<?xml version="1.0" encoding="UTF-8" standalone="no"?>
<!-- Generator: Adobe Illustrator 16.0.0, SVG Export Plug-In . SVG Version: 6.00 Build 0)  -->

<svg
   version="1.1"
   id="_x35_0m"
   x="0px"
   y="0px"
   width="144px"
   height="144px"
   viewBox="0 0 144 144"
   enable-background="new 0 0 144 144"
   xml:space="preserve"
   sodipodi:docname="hev_refuge_zone.svg"
   inkscape:version="1.2.1 (9c6d41e410, 2022-07-14)"
   xmlns:inkscape="http://www.inkscape.org/namespaces/inkscape"
   xmlns:sodipodi="http://sodipodi.sourceforge.net/DTD/sodipodi-0.dtd"
   xmlns="http://www.w3.org/2000/svg"
   xmlns:svg="http://www.w3.org/2000/svg"><defs
   id="defs5918" /><sodipodi:namedview
   id="namedview5916"
   pagecolor="#ffffff"
   bordercolor="#000000"
   borderopacity="0.25"
   inkscape:showpageshadow="2"
   inkscape:pageopacity="0.0"
   inkscape:pagecheckerboard="0"
   inkscape:deskcolor="#d1d1d1"
   showgrid="false"
   inkscape:zoom="5.4722222"
   inkscape:cx="34.26396"
   inkscape:cy="72"
   inkscape:window-width="1920"
   inkscape:window-height="986"
   inkscape:window-x="-11"
   inkscape:window-y="-11"
   inkscape:window-maximized="1"
   inkscape:current-layer="_x35_0m" />
<g
   id="g5913">
	<circle
   fill="#3D93D0"
   cx="72"
   cy="72"
   r="68.056"
   id="circle5905" />
	<path
   fill="#010101"
   d="M72,144c-9.708,0-19.111-1.921-28.011-5.662c-8.596-3.641-16.281-8.798-22.854-15.372   c-6.572-6.572-11.831-14.358-15.472-22.954C1.922,91.112,0,81.708,0,72.001c0-9.708,1.922-19.113,5.663-28.012   c3.641-8.596,8.798-16.28,15.371-22.854c6.572-6.573,14.359-11.831,22.955-15.472C52.889,1.922,62.292,0,72,0   c9.709,0,19.113,1.922,28.012,5.663c8.596,3.641,16.281,8.798,22.854,15.371c6.573,6.573,11.832,14.259,15.473,22.854   C142.079,52.787,144,62.191,144,71.899s-1.921,19.112-5.662,28.011c-3.641,8.596-8.798,16.281-15.371,22.854   c-6.572,6.572-14.359,11.831-22.854,15.37C91.113,142.079,81.709,144,72,144z M72,10.315c-16.482,0-31.955,6.472-43.685,18.101   c-11.731,11.63-18.001,27.102-18.001,43.585c0,16.482,6.473,31.955,18.102,43.685c11.629,11.73,27.102,18,43.584,18   c16.483,0,31.956-6.37,43.686-18.102c11.731-11.729,18.001-27.101,18.001-43.583c0-16.483-6.371-31.955-18.102-43.687   C103.854,16.585,88.483,10.315,72,10.315z"
   id="path5907" />
	
	
</g>
<g
   transform="matrix(0.07244409,0,0,0.08030182,-21.378606,-67.924032)"
   id="g36"
   style="clip-rule:evenodd;fill-rule:evenodd;stroke-linejoin:round;stroke-miterlimit:2">
                    
                    
                    
                    
                    
                </g><g
   transform="matrix(1.2815719,0,0,1.4187488,-85.5981,-620.16781)"
   id="g6594"
   style="clip-rule:evenodd;fill-rule:evenodd;stroke-linejoin:round;stroke-miterlimit:2;fill:#000000">
                <path
   d="m 92.46,484.776 h 10.188 V 474.3 h 7.056 v 27.144 h -7.056 V 490.248 H 92.46 v 11.196 H 85.404 V 474.3 h 7.056 z"
   style="fill:#000000;fill-rule:nonzero"
   id="path6588" />
                <path
   d="m 130.335,480.276 h -8.388 v 4.536 h 7.92 v 5.976 h -7.92 v 4.68 h 8.388 v 5.976 H 114.891 V 474.3 h 15.444 z"
   style="fill:#000000;fill-rule:nonzero"
   id="path6590" />
                <path
   d="m 139.733,474.3 6.552,16.524 6.588,-16.524 h 7.668 l -11.448,27.144 h -5.616 L 132.065,474.3 Z"
   style="fill:#000000;fill-rule:nonzero"
   id="path6592" />
            </g></svg>
