<?xml version="1.0" encoding="UTF-8" standalone="no"?>
<!-- Generator: Adobe Illustrator 16.0.0, SVG Export Plug-In . SVG Version: 6.00 Build 0)  -->

<svg
   version="1.1"
   id="_x35_0m"
   x="0px"
   y="0px"
   width="144px"
   height="144px"
   viewBox="0 0 144 144"
   enable-background="new 0 0 144 144"
   xml:space="preserve"
   sodipodi:docname="hev_refuge_zone_end.svg"
   inkscape:version="1.2.1 (9c6d41e410, 2022-07-14)"
   xmlns:inkscape="http://www.inkscape.org/namespaces/inkscape"
   xmlns:sodipodi="http://sodipodi.sourceforge.net/DTD/sodipodi-0.dtd"
   xmlns="http://www.w3.org/2000/svg"
   xmlns:svg="http://www.w3.org/2000/svg"><defs
   id="defs5918" /><sodipodi:namedview
   id="namedview5916"
   pagecolor="#ffffff"
   bordercolor="#000000"
   borderopacity="0.25"
   inkscape:showpageshadow="2"
   inkscape:pageopacity="0.0"
   inkscape:pagecheckerboard="0"
   inkscape:deskcolor="#d1d1d1"
   showgrid="false"
   inkscape:zoom="5.4722222"
   inkscape:cx="33.441625"
   inkscape:cy="72"
   inkscape:window-width="1920"
   inkscape:window-height="986"
   inkscape:window-x="-11"
   inkscape:window-y="-11"
   inkscape:window-maximized="1"
   inkscape:current-layer="_x35_0m" />
<g
   id="g5913">
	<circle
   fill="#3D93D0"
   cx="72"
   cy="72"
   r="68.056"
   id="circle5905" />
	
	
	
</g>
<g
   transform="matrix(0.07244409,0,0,0.08030182,-21.378606,-67.924032)"
   id="g36"
   style="clip-rule:evenodd;fill-rule:evenodd;stroke-linejoin:round;stroke-miterlimit:2">
                    
                    
                    
                    
                    
                </g><g
   transform="matrix(1.2815719,0,0,1.4187488,-85.5981,-620.16781)"
   id="g6594"
   style="clip-rule:evenodd;fill-rule:evenodd;stroke-linejoin:round;stroke-miterlimit:2;fill:#000000">
                <path
   d="m 92.46,484.776 h 10.188 V 474.3 h 7.056 v 27.144 h -7.056 V 490.248 H 92.46 v 11.196 H 85.404 V 474.3 h 7.056 z"
   style="fill:#000000;fill-rule:nonzero"
   id="path6588" />
                <path
   d="m 130.335,480.276 h -8.388 v 4.536 h 7.92 v 5.976 h -7.92 v 4.68 h 8.388 v 5.976 H 114.891 V 474.3 h 15.444 z"
   style="fill:#000000;fill-rule:nonzero"
   id="path6590" />
                <path
   d="m 139.733,474.3 6.552,16.524 6.588,-16.524 h 7.668 l -11.448,27.144 h -5.616 L 132.065,474.3 Z"
   style="fill:#000000;fill-rule:nonzero"
   id="path6592" />
            </g><path
   fill="#010101"
   d="m 138.3005,44.000996 c -3.6,-8.602 -8.8,-16.301 -15.399,-22.9 -6.601,-6.6 -14.301,-11.8009994 -22.901,-15.4009994 C 91.100497,1.8989967 81.700497,9.9665e-4 72.000497,9.9665e-4 c -9.7,0 -19.1,1.89800005 -28,5.69899995 -8.6,3.6 -16.3,8.8009994 -22.9,15.3999994 -6.6,6.599 -11.8000001,14.299 -15.4000001,22.901 -3.8,8.898 -5.69999999726,18.299004 -5.69999999726,28.000004 0,9.699 1.89999999726,19.199 5.69999999726,27.998 3.6,8.602 8.8000001,16.301 15.4000001,22.9 6.6,6.599 14.3,11.801 22.9,15.401 8.9,3.801 18.3,5.699 28,5.699 9.7,0 19.2,-1.898 28.000003,-5.699 8.6,-3.6 16.3,-8.801 22.9,-15.4 6.6,-6.6 11.8,-14.299 15.399,-22.9 3.8,-8.898 5.7,-18.299 5.7,-27.998 10e-4,-9.702 -1.899,-19.103004 -5.699,-28.001004 z M 25.500497,112.601 c -1.1,-1.301 -2.2,-2.602 -3.2,-3.9 L 108.6005,22.399996 c 1.301,1 2.7,2.102 3.9,3.201 z M 117.6005,30.500996 c 1.101,1.199 2.2,2.5 3.2,3.799 L 34.200497,120.9 c -1.3,-1 -2.6,-2.1 -3.8,-3.199 z m -89.300003,-2.102 c 11.7,-11.699 27.2,-18.098999 43.7,-18.098999 10.9,0 21.4,2.800999 30.600003,8.099999 L 18.400497,102.601 c -5.3,-9.201 -8.1,-19.701 -8.1,-30.6 0,-16.500004 6.4,-32.000004 18,-43.602004 z M 115.7005,115.7 c -11.7,11.6 -27.200003,18.1 -43.700003,18.1 -11.4,0 -22.3,-3.1 -31.9,-8.801 L 124.9005,40.199996 c 5.8,9.5 8.8,20.400004 8.8,31.900004 0,16.399 -6.4,31.899 -18,43.6 z"
   id="path474" /></svg>
