<?xml version="1.0" encoding="UTF-8" standalone="no"?>
<!-- Generator: Adobe Illustrator 16.0.0, SVG Export Plug-In . SVG Version: 6.00 Build 0)  -->

<svg
   version="1.1"
   id="_x35_0m"
   x="0px"
   y="0px"
   width="144px"
   height="144px"
   viewBox="0 0 144 144"
   enable-background="new 0 0 144 144"
   xml:space="preserve"
   sodipodi:docname="hev_zone_ends.svg"
   inkscape:version="1.2.1 (9c6d41e410, 2022-07-14)"
   xmlns:inkscape="http://www.inkscape.org/namespaces/inkscape"
   xmlns:sodipodi="http://sodipodi.sourceforge.net/DTD/sodipodi-0.dtd"
   xmlns="http://www.w3.org/2000/svg"
   xmlns:svg="http://www.w3.org/2000/svg"><defs
   id="defs5918" /><sodipodi:namedview
   id="namedview5916"
   pagecolor="#ffffff"
   bordercolor="#000000"
   borderopacity="0.25"
   inkscape:showpageshadow="2"
   inkscape:pageopacity="0.0"
   inkscape:pagecheckerboard="0"
   inkscape:deskcolor="#d1d1d1"
   showgrid="false"
   inkscape:zoom="5.4722222"
   inkscape:cx="55.64467"
   inkscape:cy="72"
   inkscape:window-width="1920"
   inkscape:window-height="986"
   inkscape:window-x="-11"
   inkscape:window-y="-11"
   inkscape:window-maximized="1"
   inkscape:current-layer="_x35_0m" />
<g
   id="g5913">
	<circle
   fill="#3D93D0"
   cx="72"
   cy="72"
   r="68.056"
   id="circle5905" />
	
	
	
</g>
<g
   transform="matrix(0.07244409,0,0,0.08030182,-21.378606,-67.924032)"
   id="g36"
   style="clip-rule:evenodd;fill-rule:evenodd;stroke-linejoin:round;stroke-miterlimit:2;fill:#000000"
   inkscape:label="g36">
                    <g
   transform="matrix(0.639808,0,0,0.639808,443.53,708.028)"
   id="g8"
   style="fill:#000000">
                        <path
   d="M 1196.46,1255.86 H 687.811 c -31.94,0 -57.872,25.93 -57.872,57.87 v 638.42 c 0,31.95 25.932,57.88 57.872,57.88 h 525.049 v -91.67 H 730.903 c -9.731,0 -17.631,-7.9 -17.631,-17.63 v -539.74 c 0,-9.73 7.9,-17.63 17.631,-17.63 H 1155.9 Z"
   style="fill:#000000"
   id="path6" />
                    </g>
                    <g
   transform="matrix(0.639808,0,0,0.639808,442.813,707.971)"
   id="g12"
   style="fill:#000000">
                        <path
   d="m 1377,1256.9 v 87.5 h 412.15 c 9.73,0 17.64,7.9 17.64,17.63 v 539.74 c 0,9.73 -7.91,17.63 -17.64,17.63 h -340.13 l -38.27,91.67 h 421.5 c 31.94,0 57.87,-25.93 57.87,-57.87 v -182.01 l 82.67,0.54 c 0,0 14.95,0.72 29.88,-13.04 12.91,-11.89 11.25,-27.69 11.25,-27.69 l -0.96,-187.35 c 0,0 3.7,-19.85 -11.28,-36.34 -15.41,-16.96 -36.28,-17.87 -36.28,-17.87 l -75.28,-0.57 v -174.09 c 0,-31.95 -25.93,-57.88 -57.87,-57.88 z"
   style="fill:#000000"
   id="path10" />
                    </g>
                    <g
   transform="matrix(0.639808,0,0,0.639808,443.53,708.028)"
   id="g16"
   style="fill:#000000">
                        <path
   d="m 1504.78,1619.44 h -204.67 v -450.79 l -244.36,598.99 h 214.75 l 7.42,363.31 z"
   style="fill:#000000"
   id="path14" />
                    </g>
                    <g
   transform="matrix(6.67927,0,0,6.67927,447.178,-2009.97)"
   id="g24"
   style="fill:#000000">
                        <path
   d="m 92.46,484.776 h 10.188 V 474.3 h 7.056 v 27.144 h -7.056 V 490.248 H 92.46 v 11.196 H 85.404 V 474.3 h 7.056 z"
   style="fill:#000000;fill-rule:nonzero"
   id="path18" />
                        <path
   d="m 130.335,480.276 h -8.388 v 4.536 h 7.92 v 5.976 h -7.92 v 4.68 h 8.388 v 5.976 H 114.891 V 474.3 h 15.444 z"
   style="fill:#000000;fill-rule:nonzero"
   id="path20" />
                        <path
   d="m 139.733,474.3 6.552,16.524 6.588,-16.524 h 7.668 l -11.448,27.144 h -5.616 L 132.065,474.3 Z"
   style="fill:#000000;fill-rule:nonzero"
   id="path22" />
                    </g>
                    <g
   transform="matrix(9.7345,0,0,6.5069,98.885,-940.82)"
   id="g34"
   style="fill:#000000">
                        <path
   d="m 90.838,495.468 h 7.604 v 5.976 H 82.921 l 8.591,-21.168 H 84.365 V 474.3 h 15.016 z"
   style="fill:#000000;fill-rule:nonzero"
   id="path26" />
                        <path
   d="m 105.422,487.872 c 0,1.08 0.137,2.076 0.409,2.988 0.273,0.912 0.642,1.704 1.107,2.376 0.465,0.672 1.007,1.194 1.625,1.566 0.617,0.372 1.271,0.558 1.961,0.558 0.69,0 1.343,-0.186 1.961,-0.558 0.618,-0.372 1.163,-0.894 1.636,-1.566 0.474,-0.672 0.847,-1.464 1.119,-2.376 0.273,-0.912 0.409,-1.908 0.409,-2.988 0,-1.08 -0.136,-2.076 -0.409,-2.988 -0.272,-0.912 -0.645,-1.704 -1.119,-2.376 -0.473,-0.672 -1.018,-1.194 -1.636,-1.566 -0.618,-0.372 -1.271,-0.558 -1.961,-0.558 -0.69,0 -1.344,0.186 -1.961,0.558 -0.618,0.372 -1.16,0.894 -1.625,1.566 -0.465,0.672 -0.834,1.464 -1.107,2.376 -0.272,0.912 -0.409,1.908 -0.409,2.988 z m -4.933,0 c 0,-2.016 0.249,-3.894 0.746,-5.634 0.497,-1.74 1.187,-3.258 2.07,-4.554 0.882,-1.296 1.937,-2.31 3.164,-3.042 1.227,-0.732 2.579,-1.098 4.055,-1.098 1.46,0 2.807,0.366 4.042,1.098 1.236,0.732 2.299,1.746 3.189,3.042 0.89,1.296 1.584,2.814 2.081,4.554 0.498,1.74 0.746,3.618 0.746,5.634 0,2.016 -0.248,3.894 -0.746,5.634 -0.497,1.74 -1.191,3.258 -2.081,4.554 -0.89,1.296 -1.953,2.31 -3.189,3.042 -1.235,0.732 -2.582,1.098 -4.042,1.098 -1.476,0 -2.828,-0.366 -4.055,-1.098 -1.227,-0.732 -2.282,-1.746 -3.164,-3.042 -0.883,-1.296 -1.573,-2.814 -2.07,-4.554 -0.497,-1.74 -0.746,-3.618 -0.746,-5.634 z"
   style="fill:#000000;fill-rule:nonzero"
   id="path28" />
                        <path
   d="M 123.231,501.444 V 474.3 h 4.717 l 8.711,16.596 V 474.3 h 4.692 v 27.144 h -4.692 l -8.711,-16.596 v 16.596 z"
   style="fill:#000000;fill-rule:nonzero"
   id="path30" />
                        <path
   d="m 155.141,480.276 h -5.607 v 4.536 h 5.294 v 5.976 h -5.294 v 4.68 h 5.607 v 5.976 H 144.818 V 474.3 h 10.323 z"
   style="fill:#000000;fill-rule:nonzero"
   id="path32" />
                    </g>
                </g><path
   fill="#010101"
   d="m 138.3005,44.001 c -3.6,-8.602 -8.8,-16.301 -15.399,-22.9 C 116.3005,14.501 108.6005,9.3 100.0005,5.7 91.100497,1.899 81.700497,9.9999741e-4 72.000497,9.9999741e-4 c -9.7,0 -19.1,1.89800000259 -28,5.69900000259 -8.6,3.6 -16.3,8.801 -22.9,15.4 -6.6,6.599 -11.7999996,14.299 -15.3999996,22.901 -3.8,8.898 -5.70000004726,18.299 -5.70000004726,28 0,9.699 1.90000004726,19.199 5.70000004726,27.998 3.6,8.602 8.7999996,16.301 15.3999996,22.9 6.6,6.599 14.3,11.801 22.9,15.401 8.9,3.801 18.3,5.699 28,5.699 9.7,0 19.2,-1.898 28.000003,-5.699 8.6,-3.6 16.3,-8.801 22.9,-15.4 6.6,-6.6 11.8,-14.299 15.399,-22.9 3.8,-8.898 5.7,-18.299 5.7,-27.998 10e-4,-9.702 -1.899,-19.103 -5.699,-28.001 z m -112.800003,68.6 c -1.1,-1.301 -2.2,-2.602 -3.2,-3.9 L 108.6005,22.4 c 1.301,1 2.7,2.102 3.9,3.201 z m 92.100003,-82.1 c 1.101,1.199 2.2,2.5 3.2,3.799 l -86.600003,86.6 c -1.3,-1 -2.6,-2.1 -3.8,-3.199 z M 28.300497,28.399 c 11.7,-11.699 27.2,-18.099 43.7,-18.099 10.9,0 21.4,2.801 30.600003,8.1 l -84.200003,84.201 c -5.3,-9.201 -8.1,-19.701 -8.1,-30.6 0,-16.5 6.4,-32 18,-43.602 z M 115.7005,115.7 c -11.7,11.6 -27.200003,18.1 -43.700003,18.1 -11.4,0 -22.3,-3.1 -31.9,-8.801 L 124.9005,40.2 c 5.8,9.5 8.8,20.4 8.8,31.9 0,16.399 -6.4,31.899 -18,43.6 z"
   id="path474" /></svg>
