<?xml version="1.0" encoding="UTF-8" standalone="no"?>
<!-- Generator: Adobe Illustrator 16.0.0, SVG Export Plug-In . SVG Version: 6.00 Build 0)  -->

<svg
   version="1.1"
   id="_x35_0m"
   x="0px"
   y="0px"
   width="144px"
   height="144px"
   viewBox="0 0 144 144"
   enable-background="new 0 0 144 144"
   xml:space="preserve"
   sodipodi:docname="hev_zone_begins.svg"
   inkscape:version="1.2.1 (9c6d41e410, 2022-07-14)"
   xmlns:inkscape="http://www.inkscape.org/namespaces/inkscape"
   xmlns:sodipodi="http://sodipodi.sourceforge.net/DTD/sodipodi-0.dtd"
   xmlns="http://www.w3.org/2000/svg"
   xmlns:svg="http://www.w3.org/2000/svg"><defs
   id="defs5918" /><sodipodi:namedview
   id="namedview5916"
   pagecolor="#ffffff"
   bordercolor="#000000"
   borderopacity="0.25"
   inkscape:showpageshadow="2"
   inkscape:pageopacity="0.0"
   inkscape:pagecheckerboard="0"
   inkscape:deskcolor="#d1d1d1"
   showgrid="false"
   inkscape:zoom="5.4722222"
   inkscape:cx="47.238579"
   inkscape:cy="72"
   inkscape:window-width="1920"
   inkscape:window-height="986"
   inkscape:window-x="-11"
   inkscape:window-y="-11"
   inkscape:window-maximized="1"
   inkscape:current-layer="_x35_0m" />
<g
   id="g5913">
	<circle
   fill="#3D93D0"
   cx="72"
   cy="72"
   r="68.056"
   id="circle5905" />
	<path
   fill="#010101"
   d="M72,144c-9.708,0-19.111-1.921-28.011-5.662c-8.596-3.641-16.281-8.798-22.854-15.372   c-6.572-6.572-11.831-14.358-15.472-22.954C1.922,91.112,0,81.708,0,72.001c0-9.708,1.922-19.113,5.663-28.012   c3.641-8.596,8.798-16.28,15.371-22.854c6.572-6.573,14.359-11.831,22.955-15.472C52.889,1.922,62.292,0,72,0   c9.709,0,19.113,1.922,28.012,5.663c8.596,3.641,16.281,8.798,22.854,15.371c6.573,6.573,11.832,14.259,15.473,22.854   C142.079,52.787,144,62.191,144,71.899s-1.921,19.112-5.662,28.011c-3.641,8.596-8.798,16.281-15.371,22.854   c-6.572,6.572-14.359,11.831-22.854,15.37C91.113,142.079,81.709,144,72,144z M72,10.315c-16.482,0-31.955,6.472-43.685,18.101   c-11.731,11.63-18.001,27.102-18.001,43.585c0,16.482,6.473,31.955,18.102,43.685c11.629,11.73,27.102,18,43.584,18   c16.483,0,31.956-6.37,43.686-18.102c11.731-11.729,18.001-27.101,18.001-43.583c0-16.483-6.371-31.955-18.102-43.687   C103.854,16.585,88.483,10.315,72,10.315z"
   id="path5907" />
	
	
</g>
<g
   transform="matrix(0.07244409,0,0,0.08030182,-21.378606,-67.924032)"
   id="g36"
   style="clip-rule:evenodd;fill-rule:evenodd;stroke-linejoin:round;stroke-miterlimit:2;fill:#000000">
                    <g
   transform="matrix(0.639808,0,0,0.639808,443.53,708.028)"
   id="g8"
   style="fill:#000000">
                        <path
   d="M 1196.46,1255.86 H 687.811 c -31.94,0 -57.872,25.93 -57.872,57.87 v 638.42 c 0,31.95 25.932,57.88 57.872,57.88 h 525.049 v -91.67 H 730.903 c -9.731,0 -17.631,-7.9 -17.631,-17.63 v -539.74 c 0,-9.73 7.9,-17.63 17.631,-17.63 H 1155.9 Z"
   style="fill:#000000"
   id="path6" />
                    </g>
                    <g
   transform="matrix(0.639808,0,0,0.639808,442.813,707.971)"
   id="g12"
   style="fill:#000000">
                        <path
   d="m 1377,1256.9 v 87.5 h 412.15 c 9.73,0 17.64,7.9 17.64,17.63 v 539.74 c 0,9.73 -7.91,17.63 -17.64,17.63 h -340.13 l -38.27,91.67 h 421.5 c 31.94,0 57.87,-25.93 57.87,-57.87 v -182.01 l 82.67,0.54 c 0,0 14.95,0.72 29.88,-13.04 12.91,-11.89 11.25,-27.69 11.25,-27.69 l -0.96,-187.35 c 0,0 3.7,-19.85 -11.28,-36.34 -15.41,-16.96 -36.28,-17.87 -36.28,-17.87 l -75.28,-0.57 v -174.09 c 0,-31.95 -25.93,-57.88 -57.87,-57.88 z"
   style="fill:#000000"
   id="path10" />
                    </g>
                    <g
   transform="matrix(0.639808,0,0,0.639808,443.53,708.028)"
   id="g16"
   style="fill:#000000">
                        <path
   d="m 1504.78,1619.44 h -204.67 v -450.79 l -244.36,598.99 h 214.75 l 7.42,363.31 z"
   style="fill:#000000"
   id="path14" />
                    </g>
                    <g
   transform="matrix(6.67927,0,0,6.67927,447.178,-2009.97)"
   id="g24"
   style="fill:#000000">
                        <path
   d="m 92.46,484.776 h 10.188 V 474.3 h 7.056 v 27.144 h -7.056 V 490.248 H 92.46 v 11.196 H 85.404 V 474.3 h 7.056 z"
   style="fill:#000000;fill-rule:nonzero"
   id="path18" />
                        <path
   d="m 130.335,480.276 h -8.388 v 4.536 h 7.92 v 5.976 h -7.92 v 4.68 h 8.388 v 5.976 H 114.891 V 474.3 h 15.444 z"
   style="fill:#000000;fill-rule:nonzero"
   id="path20" />
                        <path
   d="m 139.733,474.3 6.552,16.524 6.588,-16.524 h 7.668 l -11.448,27.144 h -5.616 L 132.065,474.3 Z"
   style="fill:#000000;fill-rule:nonzero"
   id="path22" />
                    </g>
                    <g
   transform="matrix(9.7345,0,0,6.5069,98.885,-940.82)"
   id="g34"
   style="fill:#000000">
                        <path
   d="m 90.838,495.468 h 7.604 v 5.976 H 82.921 l 8.591,-21.168 H 84.365 V 474.3 h 15.016 z"
   style="fill:#000000;fill-rule:nonzero"
   id="path26" />
                        <path
   d="m 105.422,487.872 c 0,1.08 0.137,2.076 0.409,2.988 0.273,0.912 0.642,1.704 1.107,2.376 0.465,0.672 1.007,1.194 1.625,1.566 0.617,0.372 1.271,0.558 1.961,0.558 0.69,0 1.343,-0.186 1.961,-0.558 0.618,-0.372 1.163,-0.894 1.636,-1.566 0.474,-0.672 0.847,-1.464 1.119,-2.376 0.273,-0.912 0.409,-1.908 0.409,-2.988 0,-1.08 -0.136,-2.076 -0.409,-2.988 -0.272,-0.912 -0.645,-1.704 -1.119,-2.376 -0.473,-0.672 -1.018,-1.194 -1.636,-1.566 -0.618,-0.372 -1.271,-0.558 -1.961,-0.558 -0.69,0 -1.344,0.186 -1.961,0.558 -0.618,0.372 -1.16,0.894 -1.625,1.566 -0.465,0.672 -0.834,1.464 -1.107,2.376 -0.272,0.912 -0.409,1.908 -0.409,2.988 z m -4.933,0 c 0,-2.016 0.249,-3.894 0.746,-5.634 0.497,-1.74 1.187,-3.258 2.07,-4.554 0.882,-1.296 1.937,-2.31 3.164,-3.042 1.227,-0.732 2.579,-1.098 4.055,-1.098 1.46,0 2.807,0.366 4.042,1.098 1.236,0.732 2.299,1.746 3.189,3.042 0.89,1.296 1.584,2.814 2.081,4.554 0.498,1.74 0.746,3.618 0.746,5.634 0,2.016 -0.248,3.894 -0.746,5.634 -0.497,1.74 -1.191,3.258 -2.081,4.554 -0.89,1.296 -1.953,2.31 -3.189,3.042 -1.235,0.732 -2.582,1.098 -4.042,1.098 -1.476,0 -2.828,-0.366 -4.055,-1.098 -1.227,-0.732 -2.282,-1.746 -3.164,-3.042 -0.883,-1.296 -1.573,-2.814 -2.07,-4.554 -0.497,-1.74 -0.746,-3.618 -0.746,-5.634 z"
   style="fill:#000000;fill-rule:nonzero"
   id="path28" />
                        <path
   d="M 123.231,501.444 V 474.3 h 4.717 l 8.711,16.596 V 474.3 h 4.692 v 27.144 h -4.692 l -8.711,-16.596 v 16.596 z"
   style="fill:#000000;fill-rule:nonzero"
   id="path30" />
                        <path
   d="m 155.141,480.276 h -5.607 v 4.536 h 5.294 v 5.976 h -5.294 v 4.68 h 5.607 v 5.976 H 144.818 V 474.3 h 10.323 z"
   style="fill:#000000;fill-rule:nonzero"
   id="path32" />
                    </g>
                </g></svg>
