<?xml version="1.0" encoding="utf-8"?>
<!-- Generator: Adobe Illustrator 16.0.0, SVG Export Plug-In . SVG Version: 6.00 Build 0)  -->
<!DOCTYPE svg PUBLIC "-//W3C//DTD SVG 1.1//EN" "http://www.w3.org/Graphics/SVG/1.1/DTD/svg11.dtd">
<svg version="1.1" id="Layer_1" xmlns="http://www.w3.org/2000/svg" xmlns:xlink="http://www.w3.org/1999/xlink" x="0px" y="0px"
	 width="144px" height="144px" viewBox="0 0 144 144" enable-background="new 0 0 144 144" xml:space="preserve">
<g>
	<g>
		<path fill="#090406" d="M86.052,121.948h-8.604V73.099c5.736-2.196,9.816-7.738,9.816-14.246c0-8.433-6.835-15.267-15.267-15.267
			c-8.434,0-15.266,6.834-15.266,15.267c0,6.508,4.078,12.049,9.813,14.245v48.85h-8.118c-6.047,0-10.945,4.872-11.014,10.905H47.4
			V144h11.027h27.624h11.025v-11.147h-0.012C96.997,126.82,92.098,121.948,86.052,121.948z"/>
		<path fill="#090406" d="M97.603,58.853c0,9.422-5.103,17.634-12.682,22.08l5.327,9.227c10.764-6.29,18.018-17.938,18.018-31.307
			c0-13.4-7.284-25.069-18.087-31.349l-5.326,9.228C92.47,41.167,97.603,49.4,97.603,58.853z"/>
		<path fill="#090406" d="M35.729,58.853c0,13.364,7.244,25.004,18,31.297l5.326-9.227c-7.567-4.449-12.664-12.654-12.664-22.07
			c0-9.445,5.125-17.672,12.733-22.112l-5.327-9.227C43.003,33.795,35.729,45.461,35.729,58.853z"/>
		<path fill="#090406" d="M27.328,58.853c0-16.466,8.933-30.811,22.192-38.558l-4.036-6.991
			C29.812,22.448,19.25,39.397,19.25,58.853c0,19.456,10.561,36.405,26.234,45.548l4.036-6.991
			C36.261,89.664,27.328,75.319,27.328,58.853z"/>
		<path fill="#090406" d="M98.51,13.304l-4.035,6.991c13.26,7.747,22.191,22.092,22.191,38.558s-8.932,30.811-22.191,38.557
			l4.035,6.991c15.675-9.144,26.233-26.093,26.233-45.548C124.743,39.397,114.185,22.448,98.51,13.304z"/>
	</g>
</g>
</svg>
