<?xml version="1.0" encoding="utf-8"?>
<!-- Generator: Adobe Illustrator 16.0.0, SVG Export Plug-In . SVG Version: 6.00 Build 0)  -->
<!DOCTYPE svg PUBLIC "-//W3C//DTD SVG 1.1//EN" "http://www.w3.org/Graphics/SVG/1.1/DTD/svg11.dtd">
<svg version="1.1" id="_x35_0m" xmlns="http://www.w3.org/2000/svg" xmlns:xlink="http://www.w3.org/1999/xlink" x="0px" y="0px"
	 width="144px" height="144px" viewBox="0 0 144 144" enable-background="new 0 0 144 144" xml:space="preserve">
<g>
	<circle fill="#3D93D0" cx="72" cy="72" r="68.057"/>
	<path fill="#010101" d="M72.001,144c-9.708,0-19.113-1.921-28.012-5.662c-8.596-3.641-16.28-8.798-22.854-15.372
		c-6.573-6.572-11.831-14.358-15.472-22.954C1.922,91.112,0,81.708,0,72.001c0-9.708,1.922-19.113,5.663-28.012
		c3.641-8.596,8.798-16.28,15.371-22.854c6.573-6.573,14.359-11.831,22.955-15.472C52.888,1.922,62.293,0,72.001,0
		c9.707,0,19.111,1.922,28.011,5.663c8.596,3.641,16.281,8.798,22.854,15.371c6.572,6.573,11.831,14.259,15.472,22.854
		C142.079,52.787,144,62.191,144,71.899s-1.921,19.112-5.662,28.011c-3.641,8.596-8.798,16.281-15.372,22.854
		c-6.572,6.572-14.358,11.831-22.854,15.37C91.112,142.079,81.708,144,72.001,144z M72.001,10.315
		c-16.484,0-31.955,6.472-43.687,18.101c-11.729,11.63-17.999,27.102-17.999,43.585c0,16.482,6.472,31.955,18.101,43.685
		c11.63,11.73,27.101,18,43.585,18c16.482,0,31.955-6.37,43.685-18.102c11.73-11.729,18.001-27.101,18.001-43.583
		c0-16.483-6.371-31.955-18.103-43.687C103.854,16.585,88.483,10.315,72.001,10.315z"/>
	<path fill="#010101" d="M98.857,95.987c-1.316,1.011-2.428,1.922-3.641,2.832c-1.314,1.112-1.215,2.225-0.203,3.337
		c1.719,1.82,3.336,3.641,5.158,5.461c1.314,1.314,1.719,2.932,1.01,4.55c-0.707,1.72-2.426,1.416-3.842,1.315
		c-7.383-0.405-13.045-6.371-13.551-14.259c-0.102-1.012-0.605-2.226-1.314-3.034c-10.82-11.831-21.844-23.764-32.662-35.797
		c-1.416-1.517-2.832-2.225-4.855-2.528c-2.426-0.404-4.854-1.214-6.977-2.427c-4.652-2.73-6.17-7.281-5.967-12.438
		c0-1.012,1.213-2.528,2.225-2.831c1.012-0.405,2.73,0,3.539,0.809c2.225,1.921,4.146,4.247,6.27,6.371
		c0.305,0.404,1.213,0.91,1.314,0.809c1.518-1.518,3.035-3.135,4.551-4.753c0.102-0.202-0.303-1.011-0.707-1.314
		c-2.023-2.326-4.146-4.449-5.967-6.876c-0.607-0.81-0.809-2.326-0.404-3.136c0.404-0.809,1.719-1.617,2.73-1.617
		c8.09-0.506,14.662,5.865,14.561,14.056c0,1.618,0.406,2.832,1.518,4.046c11.123,11.831,22.146,23.662,33.168,35.595
		c1.215,1.314,2.529,2.022,4.35,2.123c9,0.607,12.943,7.483,12.842,13.956c0,0.707-0.102,1.416-0.303,2.021
		c-0.709,2.428-2.832,3.136-4.754,1.416C104.115,101.044,101.588,98.617,98.857,95.987z"/>
</g>
</svg>
