<?xml version="1.0" encoding="utf-8"?>
<!-- Generator: Adobe Illustrator 24.1.3, SVG Export Plug-In . SVG Version: 6.00 Build 0)  -->
<svg version="1.1" id="Layer_1" xmlns="http://www.w3.org/2000/svg" xmlns:xlink="http://www.w3.org/1999/xlink" x="0px" y="0px"
	 viewBox="0 0 144 144" enable-background="new 0 0 144 144" xml:space="preserve">
<g>
	<path d="M0.178,71.871C0.152,32.536,32.326-0.537,73.046-0.103c38.768,0.413,71.575,32.26,71.127,72.932
		c-0.425,38.615-32.178,71.598-73.042,71.073C32.53,143.406,0.186,111.84,0.178,71.871z M72.203,135.565
		c35.127-0.031,62.71-28.331,63.623-61.82C136.828,36.93,106.71,7.717,71.233,8.226C36.825,8.72,8.046,37.193,8.519,72.857
		C8.976,107.316,37.337,135.581,72.203,135.565z"/>
	<path fill="#1B9ED9" d="M72.203,135.565c-34.866,0.015-63.226-28.249-63.683-62.708C8.046,37.193,36.825,8.72,71.233,8.226
		c35.477-0.509,65.595,28.703,64.592,65.519C134.913,107.234,107.33,135.534,72.203,135.565z M101.753,90.851
		c0.027-3.663-0.303-7.414-0.973-11.145c-0.909-5.062-2.424-9.91-4.946-14.407c-1.677-2.99-3.735-5.685-6.582-7.67
		c-2.853-1.989-5.974-2.838-9.45-2.046c-3.046,0.694-5.446,2.426-7.497,4.679c-3.855,4.233-6.024,9.356-7.539,14.777
		c-1.218,4.36-1.822,8.838-1.989,13.356c-0.151,4.087,0.053,8.167,0.698,12.219c0.895,5.624,2.428,11.036,5.254,16.021
		c1.839,3.245,4.096,6.132,7.329,8.114c3.083,1.89,6.369,2.394,9.831,1.216c3.123-1.063,5.484-3.158,7.487-5.703
		c3.081-3.915,4.963-8.413,6.291-13.159C101.142,101.834,101.799,96.447,101.753,90.851z M75.127,126.734
		c-1.15-0.831-2.43-1.584-3.505-2.563c-3.936-3.585-6.225-8.2-8.003-13.121c-1.104-3.057-1.641-6.24-2.106-9.432
		c-0.396-2.722-0.793-5.455-0.957-8.197c-0.266-4.445,0.028-8.873,0.756-13.277c0.901-5.452,2.412-10.697,5.058-15.569
		c1.964-3.616,4.389-6.841,8.066-8.921c0.082-0.047,0.131-0.152,0.282-0.335c-0.389,0-0.646,0-0.903,0
		c-3.711-0.001-7.425,0.073-11.134-0.026c-2.785-0.075-5.243,0.724-7.486,2.281c-3.248,2.254-5.493,5.37-7.261,8.831
		c-3.565,6.981-5.077,14.488-5.288,22.258c-0.086,3.15,0.104,6.322,0.396,9.463c0.232,2.494,0.721,4.976,1.257,7.428
		c0.676,3.092,1.796,6.047,3.158,8.907c1.685,3.536,3.814,6.74,6.911,9.211c1.929,1.539,4.064,2.667,6.576,2.817
		c2.322,0.139,4.651,0.202,6.977,0.239C70.347,126.765,72.774,126.734,75.127,126.734z M61.294,48.51
		c0.944,0.648,1.868,1.282,2.769,1.902c0.147-0.122,0.215-0.158,0.253-0.214c0.093-0.137,0.182-0.278,0.256-0.426
		c2.422-4.838,2.039-9.611-0.467-14.264c-1.034-1.92-2.292-3.72-3.453-5.571c-0.71-1.132-1.048-2.338-0.741-3.67
		c0.219-0.947,0.415-1.903,0.696-2.832c0.589-1.949,1.226-3.883,1.866-5.893c-1.004-0.343-1.983-0.694-2.977-0.994
		c-0.113-0.034-0.407,0.193-0.459,0.351c-0.757,2.325-1.509,4.652-2.218,6.992c-0.954,3.148-0.569,6.083,1.379,8.806
		c0.966,1.349,1.819,2.783,2.665,4.213c1.286,2.172,1.927,4.517,1.771,7.066C62.537,45.568,62.054,47.037,61.294,48.51z
		 M75.058,50.456c0.13-0.155,0.196-0.223,0.249-0.3c0.067-0.098,0.131-0.199,0.185-0.305c1.893-3.688,2.046-7.508,0.836-11.42
		c-0.711-2.3-2.042-4.277-3.329-6.275c-0.579-0.898-1.168-1.793-1.693-2.722c-0.866-1.534-0.598-3.137-0.128-4.709
		c0.639-2.139,1.319-4.266,2.016-6.387c0.178-0.541,0.22-0.871-0.462-1.035c-0.688-0.166-1.355-0.435-2.016-0.697
		c-0.43-0.171-0.66-0.077-0.796,0.369c-0.742,2.43-1.541,4.844-2.235,7.287c-0.838,2.95-0.464,5.72,1.362,8.267
		c0.871,1.215,1.633,2.509,2.414,3.786c2.002,3.273,2.823,6.73,1.527,10.484c-0.199,0.575-0.473,1.124-0.732,1.733
		C73.187,49.17,74.1,49.798,75.058,50.456z M81.057,16.415c-1.044,3.353-2.381,6.485-2.813,9.881
		c-0.247,1.939,0.202,3.73,1.226,5.377c0.916,1.472,1.874,2.918,2.789,4.391c2.373,3.821,3.19,7.791,1.121,12.032
		c-0.069,0.142-0.094,0.442-0.015,0.5c0.866,0.64,1.757,1.246,2.664,1.878c0.179-0.279,0.287-0.435,0.382-0.598
		c0.107-0.185,0.216-0.37,0.302-0.565c1.971-4.465,1.776-8.893-0.43-13.189c-1.027-2.001-2.301-3.88-3.528-5.772
		c-0.928-1.432-1.339-2.916-0.882-4.594c0.268-0.985,0.488-1.985,0.788-2.96c0.461-1.497,0.984-2.975,1.455-4.469
		c0.094-0.299,0.391-0.709-0.142-0.905C83.043,17.078,82.099,16.772,81.057,16.415z"/>
	<path d="M101.753,90.851c0.047,5.596-0.611,10.983-2.086,16.253c-1.329,4.746-3.211,9.244-6.291,13.159
		c-2.003,2.545-4.364,4.641-7.487,5.703c-3.461,1.178-6.748,0.674-9.831-1.216c-3.233-1.982-5.49-4.87-7.329-8.114
		c-2.826-4.985-4.359-10.397-5.254-16.021c-0.644-4.051-0.849-8.131-0.698-12.219c0.167-4.518,0.771-8.996,1.989-13.356
		c1.515-5.422,3.684-10.544,7.539-14.777c2.052-2.253,4.451-3.985,7.497-4.679c3.476-0.792,6.597,0.057,9.45,2.046
		c2.846,1.984,4.905,4.68,6.582,7.67c2.522,4.497,4.037,9.345,4.946,14.407C101.449,83.437,101.779,87.188,101.753,90.851z
		 M74.047,90.313c-0.001,4.058,0.636,7.691,2.204,11.611c0.852,2.13,2.036,4.079,3.829,5.592c2.521,2.128,5.476,2.195,8.071,0.159
		c1.644-1.291,2.768-2.991,3.654-4.847c1.792-3.752,2.469-7.768,2.601-11.878c0.088-2.733-0.213-5.45-0.84-8.119
		c-0.786-3.345-2.007-6.491-4.357-9.083c-2.721-3.002-6.5-3.22-9.341-0.585c-1.654,1.535-2.803,3.398-3.657,5.461
		C74.663,82.366,74.098,86.293,74.047,90.313z"/>
	<path d="M75.127,126.734c-2.353,0-4.78,0.031-7.205-0.009c-2.327-0.038-4.655-0.101-6.977-0.239
		c-2.512-0.15-4.647-1.277-6.576-2.817c-3.096-2.471-5.226-5.675-6.911-9.211c-1.362-2.86-2.482-5.815-3.158-8.907
		c-0.536-2.452-1.025-4.934-1.257-7.428c-0.292-3.141-0.481-6.313-0.396-9.463c0.211-7.77,1.723-15.277,5.288-22.258
		c1.767-3.46,4.012-6.576,7.261-8.831c2.243-1.557,4.701-2.355,7.486-2.281c3.709,0.1,7.422,0.026,11.134,0.026
		c0.257,0,0.513,0,0.903,0c-0.151,0.183-0.2,0.288-0.282,0.335c-3.678,2.08-6.103,5.306-8.066,8.921
		c-2.646,4.872-4.157,10.117-5.058,15.569c-0.728,4.405-1.022,8.833-0.756,13.277c0.164,2.742,0.561,5.475,0.957,8.197
		c0.465,3.193,1.002,6.375,2.106,9.432c1.778,4.921,4.066,9.537,8.003,13.121C72.697,125.15,73.977,125.903,75.127,126.734z"/>
	<path d="M61.294,48.51c0.761-1.473,1.243-2.942,1.341-4.535c0.156-2.549-0.484-4.893-1.771-7.066
		c-0.847-1.43-1.7-2.864-2.665-4.213c-1.948-2.723-2.333-5.658-1.379-8.806c0.709-2.34,1.461-4.667,2.218-6.992
		c0.051-0.158,0.346-0.385,0.459-0.351c0.995,0.3,1.974,0.651,2.977,0.994c-0.64,2.01-1.277,3.944-1.866,5.893
		c-0.281,0.929-0.477,1.885-0.696,2.832c-0.307,1.332,0.031,2.538,0.741,3.67c1.161,1.851,2.419,3.651,3.453,5.571
		c2.506,4.653,2.889,9.425,0.467,14.264c-0.074,0.148-0.163,0.289-0.256,0.426c-0.038,0.056-0.106,0.092-0.253,0.214
		C63.161,49.792,62.237,49.158,61.294,48.51z"/>
	<path d="M75.058,50.456c-0.958-0.658-1.871-1.286-2.802-1.926c0.259-0.609,0.534-1.158,0.732-1.733
		c1.296-3.754,0.474-7.21-1.527-10.484c-0.781-1.277-1.543-2.571-2.414-3.786c-1.826-2.547-2.2-5.317-1.362-8.267
		c0.694-2.443,1.493-4.857,2.235-7.287c0.136-0.446,0.366-0.539,0.796-0.369c0.661,0.262,1.328,0.531,2.016,0.697
		c0.682,0.164,0.64,0.494,0.462,1.035c-0.697,2.121-1.377,4.248-2.016,6.387c-0.47,1.572-0.738,3.175,0.128,4.709
		c0.525,0.93,1.114,1.824,1.693,2.722c1.287,1.998,2.617,3.976,3.329,6.275c1.21,3.912,1.056,7.732-0.836,11.42
		c-0.054,0.106-0.117,0.207-0.185,0.305C75.254,50.233,75.188,50.301,75.058,50.456z"/>
	<path d="M81.057,16.415c1.042,0.357,1.987,0.663,2.918,1.006c0.533,0.196,0.236,0.606,0.142,0.905
		c-0.471,1.494-0.994,2.972-1.455,4.469c-0.3,0.975-0.52,1.975-0.788,2.96c-0.457,1.678-0.047,3.162,0.882,4.594
		c1.227,1.892,2.501,3.771,3.528,5.772c2.205,4.296,2.401,8.725,0.43,13.189c-0.086,0.195-0.195,0.381-0.302,0.565
		c-0.095,0.163-0.203,0.319-0.382,0.598c-0.907-0.632-1.798-1.238-2.664-1.878c-0.079-0.058-0.055-0.358,0.015-0.5
		c2.069-4.241,1.252-8.211-1.121-12.032c-0.915-1.473-1.873-2.919-2.789-4.391c-1.025-1.647-1.473-3.437-1.226-5.377
		C78.675,22.9,80.013,19.767,81.057,16.415z"/>
	<path fill="#1B9ED9" d="M74.046,90.313c0.052-4.021,0.616-7.947,2.164-11.69c0.853-2.063,2.002-3.926,3.657-5.461
		c2.84-2.635,6.619-2.417,9.341,0.585c2.35,2.592,3.571,5.738,4.357,9.083c0.627,2.669,0.928,5.386,0.84,8.119
		c-0.132,4.11-0.809,8.127-2.601,11.878c-0.886,1.856-2.01,3.556-3.654,4.847c-2.595,2.037-5.549,1.969-8.071-0.159
		c-1.793-1.513-2.977-3.462-3.829-5.592C74.683,98.004,74.045,94.371,74.046,90.313z"/>
	<g>
		<polygon points="12.494,95.165 95.455,11.796 103.389,11.796 104.347,16.32 14.79,105.979 		"/>
		<polygon points="19.073,114.423 22.031,110.969 113.148,19.644 120.307,25.396 118.489,27.889 24.661,121.888 		"/>
		<polygon points="29.817,126.355 36.649,124.205 126.966,33.534 131.861,42.1 129.332,44.721 42.202,132.004 		"/>
	</g>
</g>
</svg>
