<?xml version="1.0" encoding="utf-8"?>
<!-- Generator: Adobe Illustrator 16.0.0, SVG Export Plug-In . SVG Version: 6.00 Build 0)  -->
<!DOCTYPE svg PUBLIC "-//W3C//DTD SVG 1.1//EN" "http://www.w3.org/Graphics/SVG/1.1/DTD/svg11.dtd">
<svg version="1.1" id="Layer_1" xmlns="http://www.w3.org/2000/svg" xmlns:xlink="http://www.w3.org/1999/xlink" x="0px" y="0px"
	 width="144px" height="144px" viewBox="0 0 144 144" enable-background="new 0 0 144 144" xml:space="preserve">
<path fill="#090406" d="M143.05,7.829C128.817,61.598,28.398,30.758,28.398,30.758C41.839,111.41,8.63,143.829,8.63,143.829
	C153.328,143.829,143.05,7.829,143.05,7.829z M104.813,101.391c-19.273,20.735-46.821,32.429-82.027,34.85
	c8.948-15.602,20.336-46.263,14.205-95.848c11.258,2.68,29.936,6.285,48.94,6.285c23.673,0,38.95-5.622,48.753-13.419
	C132.069,52.711,124.742,79.954,104.813,101.391z"/>
<path fill="#B9BBBD" d="M36.991,40.392c6.131,49.585-5.257,80.247-14.205,95.848c35.206-2.421,62.754-14.115,82.027-34.85
	c19.929-21.437,27.256-48.679,29.871-68.133c-9.803,7.797-25.08,13.419-48.753,13.419C66.927,46.677,48.249,43.072,36.991,40.392z"
	/>
</svg>
