<?xml version="1.0" encoding="UTF-8" standalone="no"?>
<!-- Generator: Adobe Illustrator 16.0.0, SVG Export Plug-In . SVG Version: 6.00 Build 0)  -->

<svg
   version="1.1"
   id="_x35_0m"
   x="0px"
   y="0px"
   width="144px"
   height="144px"
   viewBox="0 0 144 144"
   enable-background="new 0 0 144 144"
   xml:space="preserve"
   sodipodi:docname="tyre_warming_zone_end.svg"
   inkscape:version="1.2.1 (9c6d41e410, 2022-07-14)"
   xmlns:inkscape="http://www.inkscape.org/namespaces/inkscape"
   xmlns:sodipodi="http://sodipodi.sourceforge.net/DTD/sodipodi-0.dtd"
   xmlns="http://www.w3.org/2000/svg"
   xmlns:svg="http://www.w3.org/2000/svg"><defs
   id="defs180" /><sodipodi:namedview
   id="namedview178"
   pagecolor="#ffffff"
   bordercolor="#000000"
   borderopacity="0.25"
   inkscape:showpageshadow="2"
   inkscape:pageopacity="0.0"
   inkscape:pagecheckerboard="0"
   inkscape:deskcolor="#d1d1d1"
   showgrid="false"
   inkscape:zoom="5.4722222"
   inkscape:cx="47.329949"
   inkscape:cy="72"
   inkscape:window-width="1920"
   inkscape:window-height="986"
   inkscape:window-x="-11"
   inkscape:window-y="-11"
   inkscape:window-maximized="1"
   inkscape:current-layer="_x35_0m" />
<circle
   fill="#2199D0"
   cx="72"
   cy="72.156"
   r="68.664"
   id="circle171" />
<path
   fill="#040303"
   d="M82.722,21.83H61.13v0.007c-14.667,0.151-26.535,22.619-26.535,50.32s11.867,50.169,26.535,50.32v0.007  h21.592c14.736,0,26.683-22.532,26.683-50.327S97.458,21.83,82.722,21.83z M70.873,119.118c-9.995-7.27-17.089-25.548-17.089-46.961  s7.094-39.691,17.089-46.961h2.254c-9.994,7.27-17.088,25.547-17.088,46.961s7.094,39.691,17.088,46.961H70.873z M88.617,104.023  c-8.936,0-16.18-13.662-16.18-30.517c0-16.854,7.245-30.518,16.18-30.518c8.936,0,16.181,13.664,16.181,30.518  C104.797,90.361,97.553,104.023,88.617,104.023z"
   id="path173" />

<g
   id="g34"
   transform="translate(-4.1886875,3.6681697)">
	<polygon
   fill="#ffffff"
   points="44.997,86.666 35.874,86.666 35.874,61.247 27.447,61.247 27.447,53.288 53.563,53.288 53.563,61.247 44.997,61.247 "
   id="polygon22" />
	<path
   fill="#ed1f24"
   d="m 36.874,60.247 h -8.426 v -5.959 h 24.115 v 5.959 h -8.566 v 25.419 h -7.123 z"
   id="path24" />
	<path
   fill="#ffffff"
   d="M 78.695,86.666 75.883,72.357 c -0.243,-1.272 -0.462,-2.462 -0.66,-3.631 -0.239,1.233 -0.494,2.436 -0.783,3.667 L 71.29,86.665 H 61.921 L 53.998,53.287 h 9.687 l 2.525,13.762 c 0.331,1.765 0.65,3.597 0.95,5.375 0.346,-1.827 0.72,-3.681 1.09,-5.488 l 2.819,-13.648 h 9.184 l 2.668,14.035 c 0.277,1.461 0.533,2.904 0.776,4.394 0.136,-0.777 0.842,-4.752 0.842,-4.752 l 2.725,-13.677 h 9.328 l -8.617,33.378 z"
   id="path26" />
	<path
   fill="#ed1f24"
   d="M 62.712,85.666 55.263,54.288 h 7.588 l 2.375,12.942 c 0.698,3.725 1.35,7.774 1.862,10.94 h 0.093 C 67.693,74.772 68.438,71 69.229,67.137 l 2.654,-12.85 h 7.542 l 2.514,13.222 c 0.698,3.678 1.21,7.029 1.676,10.521 h 0.093 c 0.466,-3.492 1.164,-7.17 1.816,-10.894 l 2.56,-12.85 H 95.3 l -8.1,31.38 H 79.518 L 76.865,72.165 c -0.605,-3.166 -1.118,-6.099 -1.49,-9.684 h -0.093 c -0.559,3.538 -1.071,6.518 -1.815,9.684 l -2.979,13.501 z"
   id="path28" />
	<polygon
   fill="#ffffff"
   points="108.295,78.799 122.372,78.799 122.372,86.666 95.977,86.666 95.977,81.535 110.137,61.154 97.374,61.154 97.374,53.288 122.139,53.288 122.139,58.695 "
   id="polygon30" />
	<path
   fill="#ed1f24"
   d="M 96.977,81.848 111.921,60.339 V 60.153 H 98.374 v -5.866 h 22.765 v 4.097 l -14.618,21.229 v 0.186 h 14.851 v 5.866 H 96.977 Z"
   id="path32" />
</g><path
   fill="#010101"
   d="m 138.3005,44.001005 c -3.6,-8.602 -8.8,-16.301 -15.399,-22.9 C 116.3005,14.501001 108.6005,9.3000013 100.0005,5.7000013 91.100501,1.8990017 81.700502,0.0010017 72.000502,0.0010017 c -9.7,0 -19.1,1.898 -28,5.6989996 -8.6,3.6 -16.3,8.8009997 -22.9,15.4000037 -6.6,6.599 -11.8000003,14.299 -15.4000001,22.901 -3.8,8.89799 -5.69999999726,18.29899 -5.69999999726,27.99999 0,9.699 1.89999999726,19.199 5.69999999726,27.998003 C 9.3005017,108.601 14.500502,116.3 21.100502,122.899 c 6.6,6.599 14.3,11.801 22.9,15.401 8.9,3.801 18.3,5.699 28,5.699 9.7,0 19.199999,-1.898 27.999998,-5.699 8.6,-3.6 16.3,-8.801 22.9,-15.4 6.6,-6.6 11.8,-14.299 15.399,-22.900002 3.8,-8.898003 5.7,-18.299003 5.7,-27.998003 10e-4,-9.702 -1.899,-19.103 -5.699,-28.00099 z M 25.500502,112.601 c -1.1,-1.301 -2.2,-2.602 -3.2,-3.9 L 108.6005,22.400005 c 1.301,1 2.7,2.102 3.9,3.201 z M 117.6005,30.501005 c 1.101,1.199 2.2,2.5 3.2,3.799 L 34.200502,120.9 c -1.3,-1 -2.6,-2.1 -3.8,-3.199 z m -89.299998,-2.102 c 11.7,-11.699004 27.2,-18.099004 43.7,-18.099004 10.9,0 21.399999,2.801 30.599998,8.1 L 18.400502,102.601 c -5.3,-9.201005 -8.1,-19.701005 -8.1,-30.600005 0,-16.5 6.4,-31.99999 18,-43.60199 z M 115.7005,115.7 c -11.7,11.6 -27.199999,18.1 -43.699998,18.1 -11.4,0 -22.3,-3.1 -31.9,-8.801 L 124.9005,40.200005 c 5.8,9.5 8.8,20.39999 8.8,31.89999 0,16.399 -6.4,31.899005 -18,43.600005 z"
   id="path474" /></svg>
