<svg xmlns="http://www.w3.org/2000/svg" viewBox="0 0 144 144" >
	<path fill="#010101" d="M75.025,22.384c7.51,0,13.352,1.877,17.524,5.737c4.172,3.859,6.259,9.597,6.259,17.315   c0,6.05-1.253,10.953-3.651,14.708c-2.399,3.756-6.154,6.259-11.267,7.302v0.209c4.486,0.626,7.824,2.087,9.91,4.382   c2.087,2.294,3.338,5.841,3.859,10.849c0.209,1.668,0.313,3.44,0.417,5.424c0.104,1.981,0.21,4.173,0.21,6.571   c0.208,4.799,0.417,8.345,0.729,10.849c0.521,2.504,1.564,4.172,3.234,5.11v0.731H82.848c-0.939-1.253-1.461-2.713-1.772-4.277   c-0.313-1.564-0.418-3.338-0.522-5.111l-0.521-17.107c-0.208-3.546-1.043-6.258-2.606-8.24c-1.565-1.982-4.278-3.025-8.033-3.025   h-9.597v37.762H41.749V22.384H75.025z M67.305,61.396c4.382,0,7.721-1.043,10.015-3.024c2.295-1.982,3.548-5.529,3.548-10.327   c0-8.241-4.174-12.413-12.52-12.413h-8.553v25.765H67.305z" id="path1"/>
</g>
</svg>