<?xml version="1.0" encoding="UTF-8" standalone="no"?>
<!-- Generator: Adobe Illustrator 16.0.0, SVG Export Plug-In . SVG Version: 6.00 Build 0)  -->

<svg
   version="1.1"
   id="_x35_0m"
   x="0px"
   y="0px"
   width="144px"
   height="144px"
   viewBox="0 0 144 144"
   enable-background="new 0 0 144 144"
   xml:space="preserve"
   xmlns="http://www.w3.org/2000/svg"
   xmlns:svg="http://www.w3.org/2000/svg"><defs
   id="defs1" />
<path
   fill="#010101"
   d="M135.303,58.443c2.898,2.898,8.197,0.199,8.197-4L144,4.356c0-2.399-1.8-4.198-4.199-4.198L89.714,0.657  c-4.3,0-6.898,5.398-3.999,8.198l18.595,18.695l-75.48,75.48L13.133,87.336c-2.499-2.5-6.898-2.3-9.797,0.6l-1,1  c-2.899,2.899-3.1,7.197-0.6,9.797l43.688,43.689c2.5,2.5,6.898,2.299,9.797-0.602l1-0.998c2.9-2.898,3.1-7.199,0.601-9.797  l-15.696-15.697l75.481-75.48L135.303,58.443z"
   id="path1" />
</svg>
