<?xml version="1.0" encoding="utf-8"?>
<!-- Generator: Adobe Illustrator 16.0.0, SVG Export Plug-In . SVG Version: 6.00 Build 0)  -->
<!DOCTYPE svg PUBLIC "-//W3C//DTD SVG 1.1//EN" "http://www.w3.org/Graphics/SVG/1.1/DTD/svg11.dtd">
<svg version="1.1" id="Layer_1" xmlns="http://www.w3.org/2000/svg" xmlns:xlink="http://www.w3.org/1999/xlink" x="0px" y="0px"
	 width="144px" height="144px" viewBox="0 0 144 144" enable-background="new 0 0 144 144" xml:space="preserve">
<g>
	<g>
		<rect x="16.822" y="41.016" fill="#62C7C7" width="109.98" height="41.908"/>
	</g>
	<g transform="matrix(1.4441,0,0,1,-26.9209,-17.912)">
		<g transform="matrix(0.692472,-0,-0,1,18.642,17.912)">
			<g>
				<path fill="#010101" d="M19.64,83.344l-19.641,9.82l19.641,9.82V83.344z"/>
			</g>
			<g>
				<path fill="#010101" d="M124.358,83.344l19.641,9.82l-19.641,9.82V83.344z"/>
			</g>
			<g>
				<path fill="#010101" d="M122.628,93.16c0-1.93,1.57-3.5,3.5-3.5l0,0c1.931,0,3.5,1.57,3.5,3.5l0,0c0,1.94-1.569,3.5-3.5,3.5l0,0
					C124.198,96.66,122.628,95.1,122.628,93.16z M114.628,93.16c0-1.93,1.57-3.5,3.5-3.5l0,0c1.931,0,3.5,1.57,3.5,3.5l0,0
					c0,1.94-1.569,3.5-3.5,3.5l0,0C116.198,96.66,114.628,95.1,114.628,93.16z M106.628,93.16c0-1.93,1.57-3.5,3.5-3.5l0,0
					c1.931,0,3.5,1.57,3.5,3.5l0,0c0,1.94-1.569,3.5-3.5,3.5l0,0C108.198,96.66,106.628,95.1,106.628,93.16z M98.628,93.16
					c0-1.93,1.57-3.5,3.5-3.5l0,0c1.931,0,3.5,1.57,3.5,3.5l0,0c0,1.94-1.569,3.5-3.5,3.5l0,0
					C100.198,96.66,98.628,95.1,98.628,93.16z M90.628,93.16c0-1.93,1.57-3.5,3.5-3.5l0,0c1.931,0,3.5,1.57,3.5,3.5l0,0
					c0,1.94-1.569,3.5-3.5,3.5l0,0C92.198,96.66,90.628,95.1,90.628,93.16z M82.628,93.16c0-1.93,1.561-3.5,3.5-3.5l0,0
					c1.931,0,3.5,1.57,3.5,3.5l0,0c0,1.94-1.569,3.5-3.5,3.5l0,0C84.188,96.66,82.628,95.1,82.628,93.16z M74.628,93.16
					c0-1.93,1.57-3.5,3.5-3.5l0,0c1.931,0,3.5,1.57,3.5,3.5l0,0c0,1.94-1.569,3.5-3.5,3.5l0,0
					C76.198,96.66,74.628,95.1,74.628,93.16z M66.628,93.16c0-1.93,1.57-3.5,3.5-3.5l0,0c1.931,0,3.5,1.57,3.5,3.5l0,0
					c0,1.94-1.569,3.5-3.5,3.5l0,0C68.198,96.66,66.628,95.1,66.628,93.16z M58.628,93.16c0-1.93,1.57-3.5,3.5-3.5l0,0
					c1.931,0,3.5,1.57,3.5,3.5l0,0c0,1.94-1.569,3.5-3.5,3.5l0,0C60.198,96.66,58.628,95.1,58.628,93.16z M50.628,93.16
					c0-1.93,1.57-3.5,3.5-3.5l0,0c1.931,0,3.5,1.57,3.5,3.5l0,0c0,1.94-1.569,3.5-3.5,3.5l0,0
					C52.198,96.66,50.628,95.1,50.628,93.16z M42.628,93.16c0-1.93,1.57-3.5,3.5-3.5l0,0c1.931,0,3.5,1.57,3.5,3.5l0,0
					c0,1.94-1.569,3.5-3.5,3.5l0,0C44.198,96.66,42.628,95.1,42.628,93.16z M34.628,93.16c0-1.93,1.57-3.5,3.5-3.5l0,0
					c1.931,0,3.5,1.57,3.5,3.5l0,0c0,1.94-1.569,3.5-3.5,3.5l0,0C36.198,96.66,34.628,95.1,34.628,93.16z M26.628,93.16
					c0-1.93,1.57-3.5,3.5-3.5l0,0c1.931,0,3.5,1.57,3.5,3.5l0,0c0,1.94-1.569,3.5-3.5,3.5l0,0
					C28.198,96.66,26.628,95.1,26.628,93.16z M18.628,93.16c0-1.93,1.57-3.5,3.5-3.5l0,0c1.931,0,3.5,1.57,3.5,3.5l0,0
					c0,1.94-1.569,3.5-3.5,3.5l0,0C20.198,96.66,18.628,95.1,18.628,93.16z"/>
			</g>
		</g>
	</g>
</g>
<g>
	<g>
		<path d="M42.628,68.676v4.843H24.352c0.197-1.831,0.791-3.565,1.781-5.205c0.989-1.639,2.943-3.813,5.863-6.522
			c2.35-2.189,3.791-3.674,4.323-4.453c0.718-1.076,1.076-2.14,1.076-3.191c0-1.163-0.313-2.056-0.937-2.681
			c-0.625-0.625-1.488-0.937-2.589-0.937c-1.089,0-1.954,0.328-2.598,0.983c-0.644,0.656-1.015,1.744-1.113,3.266l-5.195-0.52
			c0.31-2.87,1.28-4.929,2.913-6.179c1.633-1.249,3.674-1.874,6.123-1.874c2.684,0,4.793,0.724,6.327,2.171s2.301,3.247,2.301,5.399
			c0,1.225-0.22,2.391-0.659,3.498c-0.439,1.107-1.135,2.267-2.087,3.479c-0.631,0.804-1.769,1.961-3.414,3.47
			c-1.646,1.509-2.688,2.511-3.126,3.006c-0.439,0.495-0.795,0.978-1.067,1.447H42.628z"/>
	</g>
	<g>
		<path d="M46.228,66.524l5.195-0.538c0.148,1.175,0.587,2.106,1.317,2.792c0.729,0.687,1.57,1.03,2.523,1.03
			c1.088,0,2.01-0.442,2.765-1.327c0.755-0.884,1.132-2.217,1.132-3.999c0-1.67-0.375-2.922-1.123-3.757s-1.723-1.252-2.922-1.252
			c-1.497,0-2.839,0.662-4.026,1.985l-4.23-0.612l2.672-14.157h13.786v4.88h-9.834l-0.816,4.62c1.162-0.581,2.35-0.872,3.563-0.872
			c2.313,0,4.273,0.841,5.882,2.523c1.608,1.683,2.412,3.866,2.412,6.55c0,2.239-0.649,4.237-1.948,5.993
			c-1.77,2.4-4.225,3.6-7.366,3.6c-2.511,0-4.559-0.674-6.142-2.022C47.482,70.612,46.537,68.8,46.228,66.524z"/>
	</g>
	<g>
		<path d="M76.101,46.207c2.635,0,4.694,0.94,6.179,2.82c1.769,2.227,2.653,5.919,2.653,11.077c0,5.146-0.891,8.845-2.672,11.096
			c-1.472,1.855-3.525,2.783-6.16,2.783c-2.647,0-4.781-1.017-6.401-3.052c-1.621-2.035-2.431-5.662-2.431-10.882
			c0-5.121,0.891-8.807,2.672-11.059C71.412,47.134,73.466,46.207,76.101,46.207z M76.101,50.53c-0.631,0-1.194,0.201-1.688,0.603
			c-0.495,0.402-0.879,1.123-1.15,2.162c-0.359,1.349-0.538,3.618-0.538,6.81s0.161,5.384,0.482,6.578
			c0.321,1.194,0.727,1.989,1.216,2.384c0.488,0.396,1.048,0.594,1.679,0.594s1.193-0.201,1.688-0.603
			c0.494-0.402,0.878-1.123,1.15-2.162c0.358-1.336,0.538-3.6,0.538-6.791s-0.161-5.384-0.482-6.578
			c-0.321-1.193-0.728-1.991-1.216-2.394C77.291,50.731,76.732,50.53,76.101,50.53z"/>
	</g>
	<g>
		<path d="M89.145,53.814h4.806v2.69c1.72-2.09,3.767-3.136,6.142-3.136c1.262,0,2.356,0.26,3.284,0.779s1.688,1.305,2.282,2.356
			c0.865-1.051,1.8-1.837,2.802-2.356s2.071-0.779,3.21-0.779c1.447,0,2.672,0.294,3.674,0.881c1.002,0.588,1.75,1.451,2.245,2.588
			c0.358,0.841,0.538,2.202,0.538,4.082v12.599h-5.214V62.256c0-1.954-0.18-3.216-0.538-3.785c-0.482-0.742-1.225-1.113-2.227-1.113
			c-0.73,0-1.416,0.223-2.06,0.668s-1.107,1.098-1.392,1.958c-0.285,0.86-0.427,2.217-0.427,4.073v9.463h-5.214V62.72
			c0-1.917-0.093-3.154-0.278-3.711s-0.474-0.971-0.862-1.243c-0.391-0.272-0.919-0.408-1.587-0.408
			c-0.804,0-1.528,0.217-2.171,0.649c-0.644,0.433-1.104,1.058-1.383,1.874c-0.277,0.816-0.417,2.171-0.417,4.063v9.574h-5.214
			V53.814z"/>
	</g>
</g>
</svg>
