<?xml version="1.0" encoding="utf-8"?>
<!-- Generator: Adobe Illustrator 16.0.0, SVG Export Plug-In . SVG Version: 6.00 Build 0)  -->
<!DOCTYPE svg PUBLIC "-//W3C//DTD SVG 1.1//EN" "http://www.w3.org/Graphics/SVG/1.1/DTD/svg11.dtd">
<svg version="1.1" id="Layer_1" xmlns="http://www.w3.org/2000/svg" xmlns:xlink="http://www.w3.org/1999/xlink" x="0px" y="0px"
	 width="144px" height="144px" viewBox="0 0 144 144" enable-background="new 0 0 144 144" xml:space="preserve">
<g>
	<g>
		<rect x="16.822" y="41.016" fill="#62C7C7" width="109.981" height="41.908"/>
	</g>
	<g transform="matrix(1.4441,0,0,1,-26.9209,-17.912)">
		<g transform="matrix(0.692472,-0,-0,1,18.642,17.912)">
			<g>
				<path fill="#010101" d="M19.641,83.344L0,93.164l19.641,9.82V83.344z"/>
			</g>
			<g>
				<path fill="#010101" d="M124.359,83.344L144,93.164l-19.641,9.82V83.344z"/>
			</g>
			<g>
				<path fill="#010101" d="M122.63,93.16c0-1.93,1.57-3.5,3.5-3.5l0,0c1.93,0,3.5,1.57,3.5,3.5l0,0c0,1.94-1.57,3.5-3.5,3.5l0,0
					C124.199,96.66,122.63,95.1,122.63,93.16z M114.63,93.16c0-1.93,1.57-3.5,3.5-3.5l0,0c1.93,0,3.5,1.57,3.5,3.5l0,0
					c0,1.94-1.57,3.5-3.5,3.5l0,0C116.199,96.66,114.63,95.1,114.63,93.16z M106.63,93.16c0-1.93,1.57-3.5,3.5-3.5l0,0
					c1.93,0,3.5,1.57,3.5,3.5l0,0c0,1.94-1.57,3.5-3.5,3.5l0,0C108.199,96.66,106.63,95.1,106.63,93.16z M98.63,93.16
					c0-1.93,1.57-3.5,3.5-3.5l0,0c1.93,0,3.5,1.57,3.5,3.5l0,0c0,1.94-1.57,3.5-3.5,3.5l0,0C100.199,96.66,98.63,95.1,98.63,93.16z
					 M90.63,93.16c0-1.93,1.57-3.5,3.5-3.5l0,0c1.93,0,3.5,1.57,3.5,3.5l0,0c0,1.94-1.57,3.5-3.5,3.5l0,0
					C92.199,96.66,90.63,95.1,90.63,93.16z M82.63,93.16c0-1.93,1.57-3.5,3.5-3.5l0,0c1.93,0,3.5,1.57,3.5,3.5l0,0
					c0,1.94-1.57,3.5-3.5,3.5l0,0C84.199,96.66,82.63,95.1,82.63,93.16z M74.63,93.16c0-1.93,1.57-3.5,3.5-3.5l0,0
					c1.93,0,3.5,1.57,3.5,3.5l0,0c0,1.94-1.57,3.5-3.5,3.5l0,0C76.199,96.66,74.63,95.1,74.63,93.16z M66.63,93.16
					c0-1.93,1.57-3.5,3.5-3.5l0,0c1.93,0,3.5,1.57,3.5,3.5l0,0c0,1.94-1.57,3.5-3.5,3.5l0,0C68.199,96.66,66.63,95.1,66.63,93.16z
					 M58.63,93.16c0-1.93,1.57-3.5,3.5-3.5l0,0c1.93,0,3.5,1.57,3.5,3.5l0,0c0,1.94-1.57,3.5-3.5,3.5l0,0
					C60.199,96.66,58.63,95.1,58.63,93.16z M50.63,93.16c0-1.93,1.57-3.5,3.5-3.5l0,0c1.93,0,3.5,1.57,3.5,3.5l0,0
					c0,1.94-1.57,3.5-3.5,3.5l0,0C52.199,96.66,50.63,95.1,50.63,93.16z M42.63,93.16c0-1.93,1.57-3.5,3.5-3.5l0,0
					c1.93,0,3.5,1.57,3.5,3.5l0,0c0,1.94-1.57,3.5-3.5,3.5l0,0C44.199,96.66,42.63,95.1,42.63,93.16z M34.63,93.16
					c0-1.93,1.57-3.5,3.5-3.5l0,0c1.93,0,3.5,1.57,3.5,3.5l0,0c0,1.94-1.57,3.5-3.5,3.5l0,0C36.199,96.66,34.63,95.1,34.63,93.16z
					 M26.63,93.16c0-1.93,1.57-3.5,3.5-3.5l0,0c1.93,0,3.5,1.57,3.5,3.5l0,0c0,1.94-1.57,3.5-3.5,3.5l0,0
					C28.199,96.66,26.63,95.1,26.63,93.16z M18.63,93.16c0-1.93,1.57-3.5,3.5-3.5l0,0c1.93,0,3.5,1.57,3.5,3.5l0,0
					c0,1.94-1.57,3.5-3.5,3.5l0,0C20.199,96.66,18.63,95.1,18.63,93.16z"/>
			</g>
		</g>
	</g>
</g>
<g>
	<g>
		<path d="M24.834,66.301l5.047-0.612c0.161,1.287,0.594,2.27,1.299,2.95c0.705,0.681,1.559,1.021,2.561,1.021
			c1.076,0,1.982-0.408,2.718-1.225c0.736-0.816,1.104-1.917,1.104-3.303c0-1.311-0.353-2.35-1.058-3.117
			c-0.705-0.767-1.565-1.15-2.579-1.15c-0.668,0-1.466,0.13-2.394,0.39l0.575-4.249c1.41,0.037,2.486-0.269,3.229-0.918
			s1.113-1.512,1.113-2.588c0-0.915-0.272-1.645-0.816-2.189c-0.544-0.544-1.268-0.816-2.171-0.816c-0.891,0-1.651,0.31-2.282,0.928
			c-0.631,0.619-1.015,1.521-1.15,2.709l-4.806-0.816c0.334-1.645,0.838-2.959,1.512-3.943c0.674-0.983,1.614-1.756,2.82-2.319
			c1.206-0.563,2.557-0.844,4.054-0.844c2.561,0,4.614,0.816,6.16,2.449c1.274,1.336,1.911,2.845,1.911,4.527
			c0,2.388-1.305,4.292-3.915,5.715c1.559,0.334,2.805,1.083,3.739,2.245c0.934,1.163,1.401,2.567,1.401,4.212
			c0,2.388-0.872,4.422-2.616,6.104c-1.744,1.683-3.915,2.523-6.513,2.523c-2.462,0-4.503-0.708-6.123-2.125
			C26.034,70.442,25.094,68.59,24.834,66.301z"/>
	</g>
	<g>
		<path d="M46.228,66.524l5.195-0.538c0.148,1.175,0.587,2.106,1.317,2.792c0.729,0.687,1.571,1.03,2.523,1.03
			c1.088,0,2.01-0.442,2.765-1.327c0.754-0.884,1.132-2.217,1.132-3.999c0-1.67-0.375-2.922-1.123-3.757
			c-0.749-0.835-1.723-1.252-2.922-1.252c-1.497,0-2.839,0.662-4.026,1.985l-4.23-0.612l2.672-14.157h13.786v4.88h-9.834
			l-0.816,4.62c1.163-0.581,2.35-0.872,3.563-0.872c2.313,0,4.273,0.841,5.882,2.523c1.608,1.683,2.412,3.866,2.412,6.55
			c0,2.239-0.649,4.237-1.948,5.993c-1.769,2.4-4.225,3.6-7.366,3.6c-2.511,0-4.559-0.674-6.142-2.022
			C47.483,70.612,46.537,68.8,46.228,66.524z"/>
	</g>
	<g>
		<path d="M76.101,46.207c2.635,0,4.694,0.94,6.179,2.82c1.769,2.227,2.653,5.919,2.653,11.077c0,5.146-0.891,8.845-2.672,11.096
			c-1.472,1.855-3.525,2.783-6.16,2.783c-2.647,0-4.781-1.017-6.401-3.052c-1.621-2.035-2.431-5.662-2.431-10.882
			c0-5.121,0.891-8.807,2.672-11.059C71.412,47.134,73.466,46.207,76.101,46.207z M76.101,50.53c-0.631,0-1.194,0.201-1.688,0.603
			c-0.495,0.402-0.878,1.123-1.15,2.162c-0.359,1.349-0.538,3.618-0.538,6.81s0.161,5.384,0.482,6.578
			c0.321,1.194,0.727,1.989,1.215,2.384c0.488,0.396,1.048,0.594,1.679,0.594s1.193-0.201,1.688-0.603
			c0.495-0.402,0.878-1.123,1.15-2.162c0.358-1.336,0.538-3.6,0.538-6.791s-0.161-5.384-0.482-6.578
			c-0.322-1.193-0.727-1.991-1.215-2.394C77.291,50.731,76.731,50.53,76.101,50.53z"/>
	</g>
	<g>
		<path d="M89.145,53.814h4.806v2.69c1.719-2.09,3.767-3.136,6.142-3.136c1.262,0,2.356,0.26,3.284,0.779s1.688,1.305,2.282,2.356
			c0.866-1.051,1.8-1.837,2.802-2.356s2.072-0.779,3.21-0.779c1.447,0,2.672,0.294,3.674,0.881c1.002,0.588,1.75,1.451,2.245,2.588
			c0.358,0.841,0.538,2.202,0.538,4.082v12.599h-5.214V62.256c0-1.954-0.18-3.216-0.538-3.785c-0.482-0.742-1.225-1.113-2.227-1.113
			c-0.73,0-1.417,0.223-2.06,0.668c-0.644,0.445-1.107,1.098-1.392,1.958c-0.285,0.86-0.427,2.217-0.427,4.073v9.463h-5.214V62.72
			c0-1.917-0.093-3.154-0.278-3.711s-0.473-0.971-0.863-1.243c-0.39-0.272-0.918-0.408-1.586-0.408
			c-0.804,0-1.528,0.217-2.171,0.649c-0.644,0.433-1.104,1.058-1.382,1.874s-0.417,2.171-0.417,4.063v9.574h-5.214V53.814z"/>
	</g>
</g>
</svg>
