<?xml version="1.0" encoding="utf-8"?>
<!-- Generator: Adobe Illustrator 16.0.0, SVG Export Plug-In . SVG Version: 6.00 Build 0)  -->
<!DOCTYPE svg PUBLIC "-//W3C//DTD SVG 1.1//EN" "http://www.w3.org/Graphics/SVG/1.1/DTD/svg11.dtd">
<svg version="1.1" id="_x35_0m" xmlns="http://www.w3.org/2000/svg" xmlns:xlink="http://www.w3.org/1999/xlink" x="0px" y="0px"
	 width="144px" height="144px" viewBox="0 0 144 144" enable-background="new 0 0 144 144" xml:space="preserve">
<path fill="#AEAEAE" d="M63.158,132.417c0,0-2.033-70.649-7.015-82.136l0.203-8.742c0,0,12.402,37.51,14.131,74.918
	c0,0,2.541-43.813,30.699-53.571l-0.306,2.542c0,0-10.674,4.27-17.383,22.771c-6.708,18.5-6.811,38.221-7.42,44.32L63.158,132.417
	L63.158,132.417z"/>
<path fill="#AEAEAE" d="M32.255,121.844c0,0-1.321-48.082-4.676-55.909l0.102-5.998c0,0,8.234,25.515,9.454,50.928
	c0,0,1.728-29.784,20.433-36.392l-0.204,1.728c0,0-7.115,2.847-11.486,15.451c-4.371,12.605-4.574,26.024-4.981,30.191H32.255z"/>
<path fill="#AEAEAE" d="M97.415,119.404c0,0-1.321-48.082-4.677-55.909l0.103-5.997c0,0,8.233,25.514,9.453,50.928
	c0,0,1.729-29.784,20.433-36.392l-0.203,1.728c0,0-7.115,2.846-11.487,15.452c-4.472,12.604-4.574,26.023-4.98,30.19H97.415
	L97.415,119.404z"/>
<path fill="#010101" d="M143.565,67.256c-0.915-1.83-3.354-2.44-3.151-2.846c0.102-0.407,2.542,0.813,1.118-0.305
	c-1.423-1.118-4.574,0-5.285-0.407c-0.712-0.406,1.117-1.321,0.406-1.423c-0.712-0.102-2.338,1.118-2.948,0.915
	c-0.61-0.203,0-0.813,0-0.813c-2.135,0.712-3.965,2.237-5.388,3.762c-0.203,0-1.017,0.406-1.321,0.508
	c-0.509,0.102,1.524-1.423,2.338-1.932s-0.711,0-1.423,0.102c-0.813,0.102,2.338-1.829,3.558-2.846
	c0.914-0.712,0.509-0.508-0.813-0.508c-1.322,0,1.524-1.626,2.134-2.237c0.813-0.711,0.407-0.813-0.712-0.61
	c-1.117,0.204,1.221-1.728,1.525-2.338s1.423-2.542,0.61-1.931c-1.017,0.813-1.524,1.321-2.339,1.525
	c-0.813,0.305-0.711-1.322-1.321,1.423c-0.102,0.61-0.813,0.915-1.017,0.407c-0.203-0.508-0.203,0.508-0.813,1.322
	c-1.424-1.424-3.457-1.932-3.254-2.44c0.204-0.609,3.559,1.119,1.525-0.508c-1.626-1.219-4.778-0.406-6.404-0.406
	c-0.305-0.203-0.609-0.508-1.017-0.711c0.305-0.61,1.424-1.322,0.813-1.322c-0.509,0-1.423,0.407-2.338,0.813
	c-0.712-0.204-0.609,0-0.407,0.203c-0.609,0.204-1.118,0.406-1.423,0.305c-0.915-0.204-0.102-1.118-0.102-1.118
	c-1.017,0.305-1.931,0.813-2.847,1.423c-0.508-0.406-1.017-0.711-1.422-1.017c0.508-0.305,0.914-0.711,1.321-0.915
	c1.22-1.017,0.711-0.712-1.119-0.712c-1.83-0.102,2.033-2.236,2.948-3.049c1.118-1.017,0.609-1.119-1.017-0.813
	c-0.609,0.102-0.508-0.204-0.102-0.712c0.711,0.508,1.017,0.508,0.509-0.61c0.711-0.711,1.524-1.525,1.728-1.932
	c0.508-0.813,1.932-3.456,0.915-2.643c-1.321,1.118-2.135,1.83-3.253,2.135c-0.712,0.204-0.915-0.711-1.221,0
	c-1.524-1.219-3.354-1.219-3.252-1.626c0.102-0.609,3.761,0.204,1.321-0.609c-2.236-0.712-5.082-0.508-6.303,0
	c-1.117,0.406-0.101-1.525-0.406-1.525c-0.915,0.203-3.354,1.83-4.27,1.728c-0.915-0.102-0.203-1.119-0.203-1.119
	c-1.119,0.508-2.135,1.119-2.948,1.83c-0.102,0-0.203-0.102-0.305-0.102c0.508-1.118-1.626-0.508-1.424-1.22
	c0.306-0.813,3.864-1.83,3.05-2.134c-0.914-0.204-3.252,0.61-2.744,0.102c0.509-0.407,4.066-1.83,2.847-1.83
	c-1.321,0.102-2.237-0.813-0.509-0.712c1.729,0.102,3.354-2.134,2.439-1.626c-1.219,0.711-3.456,0.406-3.05,0.101
	c0.61-0.406,3.457-1.728,2.745-1.525c-0.204,0-3.253,0-2.643-0.203c0.914-0.407,3.354-1.119,3.659-1.525
	c0.61-0.712-1.83,0.102-1.729-0.305c0.103-0.407,2.135-1.321-0.509-0.61c-2.541,0.711-4.167,3.151-4.574,2.948
	c-0.508-0.204-0.508-1.017-0.914,0c-2.44,5.692-0.712,7.42-1.524,7.522c-0.813,0.102-0.305-2.439-0.813-0.305
	c-0.203,0.711-0.306,1.728-0.407,2.846c0-0.61,0-1.119,0-1.525c0.102-2.033-0.305,0.508-0.813-0.204
	c-0.813-1.017-0.509-2.033-0.813-3.761c-0.306-1.729-0.508,0.711-1.017-0.712c-0.508-1.321,0-1.525-0.306-2.744
	c-0.711-2.745-0.711,0.508-1.422-0.61c-0.712-1.119-0.712-2.745-1.017-1.932c-0.305,0.711-1.017,0.305-1.221-0.61
	c-0.712-4.066-0.508-1.729-1.423-2.135c-0.509-0.204-1.017-0.508-1.423-1.017c0.813,0.102,2.033,0.61,3.455,1.017
	c3.254,0.915,8.031,6.811,5.389,1.423c-2.033-4.168-6.71-3.862-6.506-4.676c0.203-0.813,5.184,0.306,1.829-0.813
	c-3.049-1.016-7.013-0.61-8.641,0c-1.524,0.61-0.101-2.135-0.508-2.033c-1.22,0.305-4.574,2.643-5.896,2.439
	c-1.321-0.203-0.305-1.423-0.305-1.423c-2.237,1.118-4.169,2.337-5.693,3.761c3.456-3.457-1.118-2.033-0.813-3.151
	c0.407-1.118,5.388-2.542,4.169-2.847c-1.221-0.305-4.474,0.813-3.864,0.204c0.611-0.61,5.693-2.542,3.965-2.542
	c-1.728,0.102-3.049-1.22-0.609-1.017c2.439,0.102,4.676-2.948,3.354-2.236c-1.729,1.017-4.677,0.508-4.168,0.204
	c0.813-0.508,4.777-2.338,3.863-2.135c-0.203,0.102-4.473,0-3.66-0.305c1.321-0.61,4.574-1.524,5.083-2.135
	c0.813-0.915-2.542,0.204-2.338-0.305c0.203-0.508,2.948-1.728-0.712-0.813c-3.558,0.915-5.692,4.372-6.404,4.066
	c-0.609-0.203-0.711-1.423-1.321,0c-3.354,7.93-1.017,10.267-2.032,10.369c-1.119,0.203-0.407-3.456-1.119-0.407
	c-0.202,0.915-0.406,2.338-0.609,3.964c0-0.813,0-1.525,0-2.135c0.101-2.846-0.407,0.813-1.221-0.305
	c-1.117-1.423-0.711-2.745-1.117-5.185c-0.407-2.439-0.712,0.915-1.424-1.017c-0.609-1.83,0-2.135-0.406-3.761
	c-1.017-3.761-1.017,0.61-2.032-0.915c-1.017-1.525-0.916-3.762-1.323-2.643c-0.405,1.118-1.422,0.508-1.626-0.813
	c-0.915-5.591-0.711-2.44-2.032-2.948c-1.221-0.508-2.135-1.524-3.762-3.151c-1.22-1.22,0.508,2.744,1.017,3.862
	c0.508,1.118,4.371,5.185,2.439,4.676c-1.829-0.508-2.439-0.204-1.118,1.22c1.017,1.118,5.489,4.371,3.355,4.472
	c-2.136,0.102-2.745-0.305-1.322,1.119c2.033,1.931,7.015,5.896,5.693,5.591c-1.221-0.204-3.559-1.118-2.338-0.102
	c1.219,1.016,4.574,4.066,3.76,3.862c-0.813-0.203-2.846-1.728-2.033-0.61c0.407,0.508,1.424,2.033,2.44,3.558
	c-2.541-3.151-6.811-7.725-11.894-9.453c0,0,1.119,1.118-0.102,1.423c-1.118,0.305-4.065-1.83-5.185-1.728
	c-1.118,0.102,2.135,1.728,0.813,2.44c-1.322,0.711-6.709-1.322-9.352,0.61c-2.542,1.931,1.729-0.204,2.033,0.609
	c0.305,0.712-3.965,1.729-5.592,4.981c-2.439,4.879,1.83-0.712,4.676-1.932c2.847-1.22,3.254-1.321,1.729,1.017
	c-1.524,2.44,0,0.305,2.745-0.305c2.643-0.61,3.15-0.61,3.455,1.932c0.204,2.541,1.017-0.102,3.559-1.525
	c2.644-1.423,3.761-0.61,2.135,0.712c-1.627,1.321-0.61,2.439,0.813,1.83c1.524-0.508,4.981,0,3.456,0.61
	c-1.118,0.407,0.406,0.61,2.542,0.915c-4.066-0.203-9.455,0.102-14.334,2.033c0.407-0.406,0.508-0.711,0.103-0.508
	c-1.221,0.712-3.457,0.407-3.05,0.102c0.609-0.407,3.455-1.729,2.744-1.525c-0.203,0-3.253,0-2.643-0.204
	c0.915-0.406,3.354-1.118,3.658-1.525c0.611-0.711-1.829,0.102-1.727-0.305c0.101-0.406,2.134-1.321-0.509-0.61
	c-2.541,0.712-4.168,3.151-4.574,2.948c-0.508-0.203-0.508-1.017-0.915,0c-2.44,5.693-0.712,7.421-1.525,7.523
	c-0.813,0.101-0.305-2.44-0.813-0.306c-0.204,0.712-0.305,1.729-0.407,2.847c0-0.61,0-1.118,0-1.525
	c0.103-2.033-0.305,0.508-0.813-0.203c-0.813-1.017-0.509-2.033-0.813-3.762c-0.305-1.83-0.508,0.712-1.017-0.711
	c-0.508-1.322,0-1.525-0.305-2.745c-0.712-2.744-0.712,0.508-1.424-0.61c-0.712-1.118-0.712-2.744-1.017-1.931
	c-0.305,0.711-1.017,0.305-1.22-0.61c-0.712-4.066-0.508-1.728-1.423-2.134s-1.627-1.118-2.744-2.236
	c-0.813-0.915,0.305,1.931,0.712,2.745c0.405,0.813,3.15,3.761,1.727,3.456c-1.321-0.305-1.727-0.204-0.813,0.915
	c0.712,0.813,3.965,3.151,2.439,3.253c-1.524,0.101-2.032-0.204-0.915,0.813c1.424,1.423,5.083,4.27,4.169,4.066
	c-0.916-0.204-2.644-0.813-1.729-0.102c0.914,0.712,3.253,2.948,2.744,2.847c-0.61-0.204-2.032-1.22-1.423-0.407
	c0.305,0.407,1.017,1.424,1.829,2.643c-1.829-2.337-4.879-5.591-8.641-6.81c0,0,0.813,0.813,0,1.016
	c-0.813,0.203-2.947-1.322-3.761-1.22c-0.813,0.102,1.524,1.321,0.61,1.83c-0.915,0.508-4.879-1.017-6.71,0.407
	c-1.829,1.423,0.915-0.203,1.119,0.305c0.203,0.508-2.847,1.22-4.066,3.66c-1.829,3.558,1.321-0.508,3.456-1.423
	c2.033-0.916,2.339-1.017,1.22,0.711c-1.118,1.728,0,0.203,1.932-0.203c1.931-0.407,2.338-0.407,2.439,1.423
	c0.203,1.83,0.712-0.102,2.541-1.118c1.932-1.017,2.745-0.407,1.524,0.508c-1.219,0.915-0.508,1.321,0.611,0.915
	c1.117-0.406,3.558,0,2.438,0.407c-0.813,0.305,0.306,0.407,1.831,0.712c-4.27-0.204-10.877,0.406-15.146,4.574
	c0,0,1.423-0.305,1.117,0.813c-0.305,1.118-3.558,2.44-4.066,3.457c-0.508,1.017,1.627-1.118,1.525,0.305
	c-0.102,1.423-3.659,5.083-3.252,8.132c0.405,3.151,0.71-1.525,1.524-1.321c0.813,0.203,0,2.643,1.321,5.388
	c2.338,4.879,0.914,0,1.017-3.05c0-0.204,0-5.185,1.626-2.948c1.627,2.338,0.813,0,1.729-2.542c0.813-2.541,0.407-0.813,2.643,0.305
	c2.236,1.119,0.407-0.813,0.61-3.66c0.102-2.846,1.423-4.574,1.729-2.541c0.305,2.033,1.626,2.948,1.931,1.423
	s2.135-5.286,2.948-3.761c0.813,1.423,1.22,0.305,3.659-1.321c0.203-0.102,0.407-0.305,0.61-0.407
	c-1.322,1.119-2.541,2.542-2.847,3.558c-0.509,2.135,0.306,0,1.017,0.102c0.711,0.102-2.338,2.338-2.338,3.558
	s0.813-0.61,1.627-0.305c0.711,0.305-4.372,3.66-4.066,4.473c0.202,0.711,1.83-1.423,2.439-0.712c0.61,0.61-0.813,1.423-1.423,2.338
	c-0.61,0.915,0.102,1.219,1.118,0.711c1.017-0.508-0.204,1.119-1.017,2.847c-0.916,1.83,1.017,0.203,1.728-0.508
	c0.102-0.102,0.102-0.203,0.204-0.203c-0.103,0.203-0.407,0.915-0.407,2.033c0,1.83,0.509,4.269,1.321,5.489l0.61-0.712
	c0-0.508-0.102-1.118,0-1.524c0.305-1.118,0.914-2.338,1.83-1.321c0.203,0.203,0.305,0.407,0.508,0.508l0.509-0.508
	c0-0.305-0.103-0.508-0.305-0.915c-0.509-1.423-1.119-5.998-0.509-4.27c0.609,1.83,2.033,3.558,1.931,1.931
	c-0.101-1.728-0.203-3.863,0.712-2.541c0.915,1.423-0.813-1.83-0.508-2.44s1.017-0.102,1.728,0.711c0.61,0.813,0.509-0.711,0-2.236
	c-0.305-0.712-0.305-1.322-0.305-1.627c0.203,0.915,0.406,1.932,0.915,2.948c0.508,1.118,0.915,1.931,1.22,2.337l0.508-1.524
	c-0.101-0.711-0.203-1.525-0.305-2.338c0.102,0.61,0.305,1.22,0.406,1.931l0,0l1.627-2.643c-0.712-2.236-1.321-4.066-1.829-5.286
	c0-0.102,0-0.204,0.101-0.305c1.525,0.407,0.813,1.118,2.44,2.44c1.728,1.423,0.406,2.134,1.118,1.626
	c0.711-0.609,0.711-1.017,0.915-0.406c0.202,0.61,0.813,1.83,1.524,3.253c0.609,1.423,0.203,2.439,0.711,2.439
	c0.509,0,1.729-3.456,1.524-2.236c-0.202,1.22,0.204,2.745,0.509,3.457c0.203,0.711,0.915,3.253,0.915,3.253
	s1.017-3.253,1.729-2.542s-1.321,3.964-0.203,4.167c1.016,0.204,1.016-1.118,1.321-0.915c0.305,0.306,0.305,2.236,0.508,1.627
	c0.103-0.61,3.253-6.811-3.05-13.418c-2.033-2.135-4.065-3.558-5.997-4.574c0-0.102,0-0.102,0-0.204
	c0.915,0.305,1.83,0.712,2.847,1.118c4.777,2.135,1.626-0.406,2.744-0.305c1.118,0.203,3.456,3.863,3.559,2.846
	c0-0.915-1.627-3.354-0.916-2.948c0.712,0.406,3.559,4.066,3.151,2.745c-0.406-1.22,0.306-2.236,0.712-1.22
	c-0.305,0.61-0.102,1.118,0.407,1.118c0.305,0.508,0.711,0.915,1.117,1.321c-0.406,0.712-0.914,1.525-1.22,2.338
	c-1.219,2.541,1.424,0.305,2.339-0.712c0.101-0.102,0.202-0.204,0.202-0.305c-0.102,0.305-0.406,0.915-0.508,1.931
	c-0.509,0.102-0.915,0.102-1.321,0.305c-1.83,0.712,0.915,0,1.017,0.508s-2.542,0.306-3.659,2.643
	c-1.525,3.05,1.22-0.305,3.049-0.813c0.406-0.102,0.712-0.203,1.017-0.305c0.204,1.931,0.712,3.964,1.321,5.388
	c-0.711,0.101-1.524,0.305-2.439,0.609c-1.118,0.305-0.203,0.407-0.102,0.813c0.102,0.407-2.643,1.627-3.659,3.761
	c-1.118,2.237,0.102,0.611,0.509,0.508c0.405-0.101-0.712,1.932,0,1.424c0.405-0.305,1.524-2.237,2.032-3.05
	c0.306-0.508-0.102,2.134-0.102,2.236c-0.305,0.61,1.423-1.831,1.932-2.236c0.203-0.204,0.305,0.609,0,1.525l1.423-0.916
	c0.102-1.321,0.711-0.813,0.711,0h0.611c0.609-0.711,1.321-1.728,1.626-1.931c0.407-0.306-0.407,1.118-0.509,2.033h0.509
	c0.508-0.712,1.423-2.033,2.033-2.237c0.915-0.204-1.424,2.033,2.236,0c1.524-0.813,2.846-1.423,3.964-1.83
	c-0.102,0.102-0.305,0.305-0.406,0.406l0,0c0,0-2.541,1.017-5.794,3.761l1.728,0.101l-0.102,0.611
	c1.118-1.017,2.135-1.729,2.948-2.338c-0.102,0.711,0.407-0.508,0.915-0.407c0.609,0.102-1.83,1.83-1.83,2.846
	s0.711-0.508,1.22-0.204c0.61,0.204-3.354,2.847-3.253,3.457c0.203,0.61,1.423-1.118,1.932-0.609
	c0.508,0.508-0.609,1.118-1.118,1.83c-0.407,0.712,0.102,1.017,0.914,0.609c0.813-0.406-0.203,0.916-0.813,2.237
	c-0.712,1.423,0.813,0.204,1.321-0.407c0.103-0.101,0.103-0.101,0.103-0.202c-0.103,0.202-0.306,0.71-0.306,1.524
	c0,1.525,0.508,3.761,1.22,4.575c0.712,0.813,0.103-1.119,0.305-2.033c0.203-0.915,0.712-1.831,1.424-1.017
	c1.017,1.118,1.017,0.305,0.609-0.712c-0.406-1.119-0.914-4.676-0.406-3.253c0.508,1.424,1.524,2.846,1.524,1.525
	c-0.102-1.321-0.203-3.05,0.61-1.932c0.711,1.119-0.712-1.423-0.406-1.931c0.202-0.508,0.813-0.102,1.321,0.61
	c0.508,0.711,0.406-0.61,0-1.729c-0.407-1.118-0.204-1.83,0.305-1.321c0.915,0.712-0.305-0.305-0.305-1.931
	c0-1.525,0.406-1.525,1.017-0.712c0.405,0.609-0.204-0.813-0.509-2.237c0.102,0.102,0.204,0.204,0.406,0.204
	c0,0,0.103,0,0.103,0.102c0.203,1.728,0.405,3.558,0.609,5.489l0.103-1.627l2.438,1.22l1.321,2.033l0.814,1.932l1.422,2.745
	c-0.101-0.407-0.101-0.814-0.203-1.119c0.203-0.101,0.306-0.101,0.407,0c0.101,0.204,0,0.712-0.305,1.119l0.813,6.302
	c-0.203-1.525-0.407-3.049-0.609-4.574c0.102-0.203,0.202-0.305,0.305-0.203c0.102,0.305-0.103,1.728,0.102,1.321
	c0.203-0.407,3.66-4.677-0.102-10.776c-0.712-1.219-1.524-2.235-2.236-3.049c0-0.305-0.102-0.508-0.102-0.813
	c1.931,1.524,0.914-0.915,1.626-0.712c0.712,0.204,1.729,2.948,1.83,2.236c0.102-0.711-0.712-2.439-0.305-2.134
	c0.406,0.305,1.729,3.05,1.626,2.033c-0.102-1.017,0.508-1.83,0.508-0.407c0,1.321,1.932,2.44,1.424,1.83
	c-0.712-0.914-0.609-2.643-0.305-2.337c0.305,0.407,1.626,2.541,1.423,2.033c0-0.101-0.305-2.541,0-2.033
	c0.406,0.711,1.118,2.541,1.423,2.745c0.609,0.407-0.203-1.423,0.102-1.321c0.306,0.101,1.119,1.525,0.407-0.407
	c-0.712-1.931-2.745-2.947-2.643-3.354c0.101-0.407,0.711-0.508-0.103-0.712c-2.541-0.813-4.066-0.711-4.879-0.609
	c-0.102-0.813-0.204-1.729-0.204-2.542c0.103,0,0.305,0.101,0.407,0.203c1.423,0.813,1.931,2.236,2.033,0.813
	c0.102-1.423,0.406-1.423,1.931-1.118c1.525,0.406,2.44,1.524,1.525,0.203c-0.813-1.321-0.61-1.219,1.017-0.508
	s4.065,3.862,2.644,1.118c-0.306-0.61-0.712-1.017-1.119-1.423c0.508-1.22,1.627-4.574,0.712-8.945
	c0.407,0.305,0.813,0.203,1.017-0.61c0.305-1.525,2.135-5.286,2.948-3.761c0,0.102,0.101,0.102,0.101,0.204
	c-0.711,0.305-0.405,0.305,0.204,0.305c0.305,0.305,0.609,0.305,1.017,0c0.407,0,0.609,0.102,0.712,0.305l0,0
	c0,0.101-0.103,0.101-0.103,0.203c-0.609,0.406-3.558,0.61-4.98,3.456c-2.033,4.168,1.626-0.407,4.167-1.118
	c0.305-0.102,0.611-0.204,0.916-0.306c-0.712,0.814-1.83,1.932-1.83,2.643c0,1.22,0.813-0.61,1.626-0.305
	c0.712,0.305-4.371,3.659-4.065,4.473c0.203,0.711,1.829-1.423,2.439-0.711c0.609,0.61-0.813,1.423-1.424,2.338
	c-0.609,0.915,0.102,1.22,1.118,0.711c0.712-0.406,0.407,0.305-0.202,1.322c-1.221,0.915-2.948,2.236-3.864,4.066
	c-1.524,3.049,0.204,0.813,0.712,0.609c0.509-0.102-1.017,2.644,0,2.033c0.61-0.406,2.136-3.151,2.847-4.167
	c0.508-0.61-0.102,2.947-0.203,3.049c-0.203,0.406,0.406-0.407,1.22-1.321c0.203,1.728,0.711,3.558,1.524,4.371
	c0.915,1.017,0.103-1.424,0.407-2.644c0.101-0.305,0.203-0.508,0.305-0.813c0.305-0.305,0.508-0.61,0.712-0.915
	c0.203,0,0.508,0.102,0.711,0.406c1.118,1.423,1.221,0.508,0.813-0.712c0.609-0.406,2.338-3.049,2.948-3.456
	c0.711-0.508-0.915,2.236-0.712,3.252c0.102,1.017,2.338-3.151,3.558-3.456c0.915-0.203-0.813,1.626,0.915,1.017
	c0.102,0.407,0.102,0.813,0.203,1.22c-0.102,0.101-0.203,0.203-0.406,0.305l3.354,0.102c0.813-0.711,1.626-1.22,2.338-1.728
	c-0.203,1.017,0.609-0.711,1.321-0.61c0.813,0.102-2.541,2.542-2.541,3.863c0,1.322,0.915-0.711,1.729-0.305
	c0.406,0.204-0.813,1.22-2.033,2.236l1.829,10.979l0.813,2.033v-0.102c0.306-1.22,0.915-2.541,1.932-1.423
	c1.321,1.627,1.321,0.407,0.813-1.017c-0.609-1.525-1.22-6.505-0.609-4.574c0.609,1.932,2.135,3.862,2.033,2.033
	c-0.103-1.829-0.203-4.167,0.813-2.745c1.017,1.525-0.916-1.931-0.609-2.643c0.305-0.712,1.117-0.101,1.829,0.813
	c0.508,0.712,0.61-0.101,0.305-1.118c0.509-0.712,1.22-2.033,1.729-2.644c0.305-0.508-0.103,2.135-0.103,2.236
	c-0.304,0.611,1.424-1.83,1.932-2.236c0.306-0.305,0.306,1.525-0.609,2.541c-0.712,0.712,1.83-0.508,1.932-2.033
	c0.203-1.525,0.915-0.61,0.711,0.407c-0.102,0.305,0,0.305,0.204,0.102c0.102,0.306,0.102,0.61,0.203,1.017
	c0.202,1.22-0.102,2.135,0,2.541l0.609,3.355c0.407-0.814,0.915-1.525,1.322-2.237c0,0.406,0,0.712,0.102,0.915
	c0.101,0.814,0.202,3.66,0.202,3.66s1.831-3.152,2.339-2.237c0.609,0.916-2.236,3.863-1.22,4.371s1.321-1.017,1.524-0.609
	c0.204,0.406-0.203,2.439,0.103,1.83c0.102-0.305,1.32-1.83,1.931-4.371c0.305-0.204,0.61-0.508,0.813-0.712
	c0.101-0.101,0.101-0.101,0.101-0.204c-0.101,0.204-0.304,0.712-0.304,1.525c0,1.525,0.509,3.762,1.22,4.575
	s0.101-1.118,0.306-2.033c0.202-0.915,0.71-1.83,1.422-1.017c1.017,1.119,1.017,0.305,0.61-0.712
	c-0.406-1.118-0.915-4.675-0.406-3.252c0.508,1.422,1.524,2.846,1.524,1.525c0-1.322-0.203-3.05,0.609-1.932
	c0.712,1.118-0.711-1.423-0.407-1.932c0.204-0.508,0.814-0.101,1.322,0.61c0.509,0.712,0.407-0.61,0-1.728
	c-0.406-1.118-0.203-1.83,0.306-1.321c0.914,0.712-0.306-0.305-0.306-1.932c0-1.626,0.407-1.525,1.017-0.712
	c0.407,0.61-0.203-0.813-0.508-2.236c0,0,0,0,0.102,0l0,0c0.101,0,0.101,0.102,0.101,0.102l0.103,0.101
	c1.524,0.61,0.712,1.119,1.729,2.44c1.117,1.321,0,1.729,0.609,1.424c0.609-0.306,0.712-0.712,0.712-0.204s0.305,1.525,0.609,2.745
	c0.305,1.219-0.305,1.931,0.103,2.033c0.405,0.102,1.931-2.339,1.524-1.423c-0.407,0.915-0.306,2.134-0.203,2.745
	c0.102,0.609,0.203,2.643,0.203,2.643s1.321-2.338,1.728-1.626c0.407,0.712-1.626,2.745-0.914,3.151
	c0.711,0.407,1.016-0.712,1.118-0.406c0.102,0.305-0.103,1.728,0.102,1.321c0.202-0.407,3.659-4.676-0.102-10.775
	c-2.033-3.252-4.372-5.184-6.201-6.201c0.914,0.407,2.135,1.017,3.455,2.134c2.339,1.932,1.222-0.711,1.831-0.508
	c0.711,0.203,1.728,2.948,1.829,2.236c0.103-0.712-0.711-2.44-0.305-2.134c0.407,0.305,1.728,3.049,1.626,2.033
	c-0.101-1.017,0.509-1.83,0.509-0.407c0,1.321,1.932,2.44,1.424,1.83c-0.712-0.915-0.61-2.643-0.306-2.338
	c0.306,0.407,1.627,2.541,1.423,2.033c0-0.102-0.305-2.542,0-2.033c0.407,0.712,1.118,2.541,1.424,2.745
	c0.609,0.407-0.203-1.423,0.102-1.321c0.306,0.102,1.117,1.525,0.406-0.407s-2.744-2.948-2.644-3.354
	c0.103-0.407,0.712-0.508-0.101-0.712c-4.677-1.423-5.795,0-5.998-0.609c-0.204-0.61,1.932-0.508,0.203-0.712
	c-0.508-0.102-1.424-0.102-2.338-0.102c0,0-0.102,0-0.203-0.102c-0.915-0.407,1.117-0.61,1.932-0.305
	c0.813,0.305,1.423,0,0.508-0.711s-0.306-1.22,1.22-0.407c1.423,0.813,1.932,2.237,2.033,0.813s0.406-1.423,1.932-1.118
	c1.524,0.407,2.439,1.525,1.524,0.203c-0.813-1.321-0.609-1.22,1.017-0.508C142.549,66.85,144.988,70.001,143.565,67.256z
	 M32.561,40.521c-0.203,0.102-0.508,0.305-0.712,0.407C31.646,40.725,31.747,40.521,32.561,40.521z M32.255,53.736
	c0.204-0.305,0.306-0.305,0.61,0C32.662,53.635,32.459,53.635,32.255,53.736z M57.059,39.708L57.059,39.708L57.059,39.708
	L57.059,39.708z M54.619,60.649C54.721,60.649,54.721,60.649,54.619,60.649c-0.203,0.102-0.61,0.102-1.017,0
	C53.704,59.938,54.009,59.734,54.619,60.649z M54.314,59.328c0-0.102-0.102-0.305-0.102-0.407c0.305,0.102,0.508,0.203,0.609,0.305
	C55.025,59.226,54.721,59.226,54.314,59.328z M54.925,60.446c0.101,0,0,0.102-0.103,0.102c0-0.102,0-0.102-0.102-0.203
	C54.822,60.446,54.925,60.446,54.925,60.446z M53.094,65.02c-0.101,0-0.202-0.102-0.305-0.102c0,0,0.61,0.712-0.203,0.813
	c-0.305,0-0.914-0.203-1.525-0.508c-0.305-1.525-0.508-3.354-0.508-3.964c0.103,0.102,0.203,0.204,0.306,0.204c0,0,0,0,0,0.102
	C51.569,63.089,52.484,64.614,53.094,65.02z M45.165,43.775c1.119,2.033,1.729,0.406,5.083-1.83
	c0.305-0.203,0.508-0.407,0.813-0.508c-1.727,1.525-3.558,3.456-3.964,4.879c-0.102,0.305-0.102,0.61-0.203,0.813
	c-1.22-0.61-2.44-0.711-2.338-1.118c0.102-0.61,3.762,0.204,1.321-0.61c-0.915-0.305-2.033-0.407-3.05-0.407
	C43.641,43.571,44.556,42.758,45.165,43.775z M45.165,61.056c-0.102-0.305-0.203-0.508-0.203-0.711
	C45.572,60.039,45.572,60.344,45.165,61.056z M44.048,54.651c-4.066-0.711-6.202-0.305-7.421-0.102
	c-0.103-0.203-0.103-0.508-0.203-0.711c0.203-0.102,0.305-0.102,0-0.102c-0.204-0.915-0.407-1.931-0.305-3.151
	c0-0.102,0-0.203,0-0.203c0.101,0,0.305,0.101,0.405,0.101c2.237,0.813,3.05,2.745,2.948,0.813
	c-0.102-1.423-0.813-2.033-0.406-2.033c0.61,1.016,1.524,1.219,1.829,0.203c1.729,0.407,2.644,1.119,1.627-0.508
	c-1.118-1.931,0.406-1.118,2.745-0.406c0.406,0.102,0.914,0.406,1.321,0.61c-0.712,0.813-1.424,1.729-1.424,2.439
	c0,1.729,1.119-0.915,2.236-0.406C48.113,51.297,45.877,53.025,44.048,54.651z M47.301,47.333c0.305-0.407,0.813-0.915,1.219-0.813
	c0.407,0.102,0,0.508-0.609,1.22C47.706,47.637,47.503,47.434,47.301,47.333z M52.18,71.831c-2.338,0.305,0.406,0.102,0.203,0.712
	c-0.203,0.508-1.017-0.204-4.065,0.101c-0.103-0.711-0.103-1.626,0-2.236c0.202-0.813,0.609-1.728,1.017-2.135
	c0.609,0-0.103,0.407-0.103,1.626c-0.102,1.525,0.61,0.102,2.236-0.61c0.609,0.508,0.813,0.306,0.813-0.203
	c1.118-0.204,1.524,0.305,0.712,1.017c-1.83,1.321-1.017,1.321,0.305,1.321c0.915,0,3.151-0.407,2.948,0.203
	C54.518,71.627,52.993,71.627,52.18,71.831z M53.094,65.02c0.407,0.203,0.61,0,0.509-0.813c-0.102-0.915-0.102-1.931-0.102-2.744
	c0.305,0.102,0.609,0.203,0.915,0.203c1.321-0.102,0.609,0.61-0.407,0.61c-1.016,0,1.83,1.118,2.237,1.423
	c0.405,0.305-1.525-0.305-2.136-0.101c-0.711,0.203,2.136,1.017,2.339,1.626c0.202,0.61-2.44-0.203-0.306,1.932
	c0.915,0.813,1.524,1.728,2.033,2.44C57.059,67.968,55.433,66.341,53.094,65.02z M61.125,71.322
	C61.023,71.322,61.023,71.322,61.125,71.322C61.023,71.322,61.023,71.322,61.125,71.322C61.023,71.322,61.125,71.322,61.125,71.322
	C61.125,71.221,61.125,71.322,61.125,71.322L61.125,71.322z M64.683,60.344C64.581,60.242,64.581,60.242,64.683,60.344l-0.305,0.203
	c-0.103,0.203-0.203,0.508-0.305,0.711c0-0.102,0-0.102,0-0.203l-2.847,4.371c0,0.102,0,0.102,0,0.204
	c-0.102,0.508-0.102,0.915-0.509,1.321c-0.202,0.203-0.406,0-0.508-0.204c-0.102-0.609-0.102-1.22-0.203-1.525
	c-0.406-1.728-0.102,0.305-0.712,0.204c-0.61-0.102,0.712-1.423-1.118-5.896c-0.305-0.813-0.406-0.102-0.711,0
	c-0.407,0.102-1.524-1.626-3.355-2.236l0,0c0.407-0.915,1.424-0.102,2.339,1.017c0.914,1.118,0.711-1.017,0-3.05
	c-0.712-2.033-0.407-3.151,0.609-2.338c1.626,1.22-0.609-0.61-0.609-3.354c0-2.135,0.406-2.542,1.118-1.932
	c0.406-0.711,1.017-1.524,2.033-1.016c-0.102-0.102-0.102-0.305-0.204-0.407c2.44,0.61,1.321,1.626,3.66,3.456
	c2.338,1.931,0.609,2.948,1.524,2.237c0.915-0.814,0.915-1.424,1.22-0.61c0.306,0.813,1.22,2.542,2.033,4.575
	c0.306,0.813,0.406,1.423,0.508,2.033c-0.406,0.305-0.813,0.508-1.219,0.711c-0.814,0.305-0.712-1.321-1.322,1.423
	C65.598,60.547,64.887,60.852,64.683,60.344z M65.191,66.139c0-0.204-0.102-0.407-0.102-0.61c0.102-0.102,0.305-0.204,0.406-0.305
	C65.395,65.528,65.292,65.833,65.191,66.139z M65.699,64.003c-0.915,0,0.203-0.915,1.22-1.524c-0.305,0.508-0.61,1.016-0.813,1.524
	C65.902,64.003,65.801,64.003,65.699,64.003z M66.208,70.713c0-0.204-0.102-0.305-0.102-0.508c0.406,0,0.914-0.102,1.321,0
	c0,0.203,0.102,0.305,0.102,0.508C67.224,70.713,66.716,70.713,66.208,70.713z M67.732,61.056c-0.203,0-0.407,0-0.609,0.102
	c-1.017,0.203,0.609-1.22,1.321-2.033c0,0.102,0,0.204,0,0.305C68.342,59.836,68.14,60.344,67.732,61.056z M68.749,46.417
	c-2.033-1.525-3.965-2.643-5.692-3.456c1.626,0.508,3.558,1.22,5.591,2.135c0.509,0.204,0.914,0.406,1.321,0.508
	C69.562,45.909,69.156,46.113,68.749,46.417z M69.461,65.528c0.101-0.305,0.405-0.406,0.609-0.305
	C69.866,65.325,69.664,65.427,69.461,65.528z M70.478,56.278c0.203-0.508,0.405-0.813,0.405-0.406
	C70.782,56.074,70.578,56.176,70.478,56.278z M71.188,48.45c-0.406-0.406-0.915-0.813-1.322-1.118
	c0.204-0.102,0.407-0.204,0.509-0.305c2.033-0.915,2.339-1.017,1.22,0.712C71.392,48.146,71.188,48.349,71.188,48.45z
	 M74.441,65.935c-1.017,0-2.033,0.204-2.744,0.204c0.102-0.61,0.102-1.627,0.406-2.644c0.305,1.017,0.508,1.83,0.508,1.83
	s0.509-1.524,1.119-2.643c0.305,0.306,0.609,0.508,1.117,0.813c0.102,0,0.102,0.102,0.204,0.102
	C74.949,64.41,74.645,65.223,74.441,65.935z M75.864,67.256c0.102-0.203,0.204-0.305,0.305-0.508c0.204,0,0.407,0.102,0.509,0.102
	c0.103,0.305,0.103,0.61,0.203,1.017C76.475,67.663,76.169,67.46,75.864,67.256z M76.475,66.443L76.475,66.443
	c0.102,0.102,0.102,0.102,0.102,0.102L76.475,66.443L76.475,66.443z M74.543,51.907c-0.406-0.61-0.915-1.119-1.524-1.729
	c-0.61-0.61-1.119-1.118-1.729-1.626c0.204-0.102,1.118-0.711,2.338-1.017c0.915-0.203,1.424-0.305,1.83-0.203
	c0.203,0.203,0.306,0.305,0.406,0.508c0.102,0.305,0.102,0.609,0.204,1.118c0.101,1.22,0.406,0.813,1.117,0.102
	c0.103,0,0.103,0,0.204-0.203c0.305-0.305,0.813-0.712,1.321-1.017c0.102,0,0.203-0.102,0.203-0.102
	c0.407,0.406,0.712,0.711,0.915,0.915c-0.711,0.712,0,1.017,0.915,0.61c0.406-0.102,0.915-0.204,1.423-0.204
	c0.204,0.305,0.509,0.508,0.813,0.813c0,0,0,0.101,0.102,0.101c0.102,0.102,0.306,0.204,0.406,0.305
	C80.846,50.382,77.49,50.687,74.543,51.907z M80.235,47.231c0.712,0,0.813,0.406,0.103,0.915
	C80.235,47.841,80.134,47.536,80.235,47.231z M83.692,39.505c-1.424,0.102-1.932-0.204-1.221,0.61
	c-9.453-1.525-11.589,0.915-11.994-0.102c-0.509-1.118,4.27-1.118,0.203-1.321c-1.424-0.102-3.863,0.102-6.405,0.305
	c-0.101-0.102-0.101-0.204-0.202-0.305c-1.119-1.423,3.354-0.61,5.083-0.61c2.235,0,3.659-0.102,0.508-2.338
	c-1.83-1.321-0.508-2.541,2.541-1.321c3.05,1.22,4.168,3.863,4.066,1.119c-0.103-2.745-2.033-3.05,0.914-2.847
	C79.728,33,81.557,34.321,81.049,33c0.915,1.118,2.135,2.744,1.118,2.439c-1.321-0.305-1.728-0.204-0.813,0.915
	C81.964,37.065,85.217,39.403,83.692,39.505z M85.217,50.382c-0.103,0-0.203,0-0.305,0l0,0C84.912,50.28,85.014,50.28,85.217,50.382
	z M85.014,54.448c-0.204,0-0.407,0-0.609,0c0.405-0.305,0.813-0.61,1.321-0.915c0.203-0.102,0.405-0.305,0.609-0.407
	C85.929,53.635,85.42,54.042,85.014,54.448z M87.047,46.214c0.101,0.203,0.305,0.407,0.508,0.61
	c-0.203-0.102-0.508-0.305-0.712-0.407C86.741,46.214,86.843,46.011,87.047,46.214z M86.843,71.932
	c-0.102-0.406-0.305-0.915-0.406-1.524C86.741,70.509,86.945,71.119,86.843,71.932z M86.945,47.739c0-0.204-0.103-0.305-0.103-0.508
	c0.407,0.508,0.813,1.219,1.321,1.931C87.859,48.756,87.453,48.248,86.945,47.739z M88.368,64.918v-0.102
	c0.203-0.406,0.61-0.305,1.016,0C89.181,64.816,88.774,64.816,88.368,64.918z M90.705,52.008L90.705,52.008L90.705,52.008
	L90.705,52.008z M90.503,64.715C90.4,64.309,90.3,63.8,90.096,63.292c-0.203-0.508-0.203-0.813-0.305-1.119
	c0.204-0.101,0.406-0.305,0.712-0.508c0.509,0.407,0.406,0.305,0.202-0.102c0.307-0.204,0.611-0.407,1.017-0.712
	c0.204,0.915,0.509,1.932,0.712,3.151c-0.101,0-0.101,0.102,0,0.102c0.103,0.305,0.103,0.609,0.204,0.915
	C92.129,64.816,91.417,64.715,90.503,64.715z M96.094,50.687c0.102,0.102,0.609,0.406,1.118,0.712c-0.407,0-0.915,0.101-1.321,0.101
	c0-0.101-0.103-0.101-0.204-0.203C95.483,50.891,95.687,50.687,96.094,50.687z M98.127,55.566c0,0.204,0.102,0.407,0.406,0.814
	c-1.22-0.814-2.338-1.423-3.354-1.932C95.992,54.753,97.008,55.058,98.127,55.566z M93.553,60.141
	c1.728-0.407,2.338,0.407,1.118,1.322c-0.204,0.203-0.407,0.305-0.61,0.406C93.857,61.259,93.755,60.649,93.553,60.141z
	 M94.569,63.292c0.202,0,0.305,0,0.508,0c0.711,0,2.135-0.203,3.151-0.203c0.101,0.101,0.101,0.305,0.203,0.406
	c-1.424,0-2.745,0-3.761,0.102C94.569,63.495,94.569,63.394,94.569,63.292z M100.566,66.646L100.566,66.646
	c0,0-1.83,0.711-4.473,2.44c0-0.204-0.102-0.407-0.203-0.61c1.829-1.016,3.455-1.728,4.777-2.236c0,0.102,0,0.102,0,0.204
	C100.77,66.545,100.668,66.545,100.566,66.646z M120.287,60.649c0.509,0.203,1.017,0.508,1.118,0.61
	c0.203,0.204-0.509,0-1.118-0.102C120.287,60.954,120.287,60.852,120.287,60.649z M115.103,61.666c1.22,0.407,1.932,0,0.712-1.017
	c-0.102,0-0.102-0.102-0.102-0.102c0.203,0,0-0.508-0.204-0.915c0.306-0.102,1.017,0,2.033,0.508
	c1.729,0.915,2.44,2.541,2.643,1.728c0.611,0.305,1.322,0.61,1.424,1.017c0.102,0.407-0.712,0.305-1.017,0.508
	c-0.609-0.102-1.117-0.102-1.524-0.102c-0.407-0.203-0.712-0.407-1.118-0.711c0,0,0.305,0.407,0.202,0.711
	c-0.305,0-0.609,0-0.813,0.102c-0.305-0.102-0.712-0.305-1.22-0.508c0.61-0.204,1.423-0.204-0.203-0.406c-0.203,0-0.407,0-0.712,0
	c-0.305-0.204-0.61-0.306-0.813-0.306c-0.103,0,0,0.102,0,0.306c-0.509,0-1.119,0-1.729,0c0,0-0.103-0.102-0.203-0.102
	C111.239,61.564,113.984,61.259,115.103,61.666z M121.201,69.289c-0.101,0-0.305,0-0.405,0c0-0.101,0-0.203,0-0.305
	C121.101,68.984,121.201,69.086,121.201,69.289z M120.084,69.289c-0.407,0-0.813,0-1.118,0c0-0.101,0-0.203,0-0.305
	c0.305,0,0.711-0.102,1.017-0.102C119.982,69.086,120.084,69.188,120.084,69.289z M105.344,57.091
	c-0.101,0.102-0.203,0.204-0.305,0.102c-0.203-0.407-0.407-0.711-0.508-1.017c0-0.203,0-0.407-0.103-0.61l0,0
	c0.203,0.102,0.712,0.61,1.119,1.119C105.548,56.888,105.445,56.99,105.344,57.091z M105.953,63.089L105.953,63.089
	c0-0.102,0-0.102,0.103-0.102C106.056,62.987,106.056,62.987,105.953,63.089L105.953,63.089L105.953,63.089z M106.056,75.083
	c-0.203-1.016,0-1.524,0.712-1.016c0,0,0.102,0,0.102,0.101C106.564,74.372,106.36,74.779,106.056,75.083z M109.613,71.119
	c-1.118,0.305-0.203,0.407-0.102,0.813c0.102,0.306-1.22,1.017-2.439,2.135c-0.305-0.508-0.712-1.424-0.712-2.542
	c0-2.135,0.609-2.033,1.321-0.915c0.509,0.813-0.203-1.118-0.609-3.049c0.203,0.102,0.305,0.203,0.508,0.305
	c2.033,0.915,1.017,1.423,2.338,3.253C109.817,71.018,109.715,71.018,109.613,71.119z M108.801,58.515
	c0.101,0.203,0.305,0.406,0.508,0.609c-0.102,0.102-0.102,0.102-0.203,0.204c-0.305,0-1.321,0.61-1.83,0.711
	C106.768,60.141,107.784,59.328,108.801,58.515z M109.918,57.193c0-0.305,0.102-0.407,0.204-0.305
	c0.101,0.102,0.101,0.102,0.203,0.203C110.223,57.193,110.122,57.193,109.918,57.193z M109.918,57.701
	c0.204-0.102,0.407-0.203,0.509-0.305c0,0,0.102,0,0.102-0.102c0.102,0.102,0.203,0.204,0.306,0.305
	c-0.306,0.204-0.509,0.407-0.712,0.712C110.02,58.107,110.02,57.904,109.918,57.701z M111.544,66.24
	c-0.508-0.407-0.914-0.711-1.422-1.017c0.101,0,0.101,0,0.203-0.101c0.406,0.203,0.813,0.508,1.321,0.711
	C111.544,66.037,111.544,66.139,111.544,66.24z M110.935,47.942c-0.305-0.711-0.305,0.813-1.117,1.83
	c-0.916,1.017-0.814-1.931-1.729,0.61c-0.305,0.813,0,1.118-0.103,1.728c-2.134-0.305-3.558-0.203-4.676-0.102
	c-0.101-0.915-0.305-2.134-0.813-3.558c1.626,0.916,2.338,2.237,2.236,0.508c-0.103-2.033-1.424-2.236,0.711-2.033
	s3.558,1.524,2.44-0.407c-1.118-1.931,0.406-1.118,2.744-0.406c0.609,0.203,1.321,0.61,1.931,1.118c0,0.102,0,0.203-0.101,0.305
	C112.155,48.248,111.239,48.654,110.935,47.942z M117.237,69.391c-2.338,0.305,0.406,0.102,0.204,0.712
	c-0.103,0.305-0.61,0.102-1.831,0c-1.219-1.525-2.541-2.745-3.659-3.66c0.102,0,0.305-0.102,0.407-0.102
	c0.508,0.407,1.017,0.712,1.626,1.22c0.102,0.102,0.204,0.203,0.305,0.305c0,0.508,0.103,0.508,0.407,0.305
	c1.626,1.118,1.321-0.305,1.423-1.017c0.102-0.102,0.306-0.102,0.406-0.203h0.102c0.306,0.203,0.61,0.61,0.915,1.118
	c-1.22,1.017-0.508,1.017,0.609,1.017c0,0.102,0.103,0.203,0.103,0.203C117.949,69.289,117.542,69.391,117.237,69.391z
	 M119.779,78.642c0.101,0,0.305,0,0.405,0.101c0.306,0.306,0.103,0.508-0.202,0.814C119.88,79.251,119.88,78.946,119.779,78.642z
	 M119.982,81.895c0-0.204,0-0.508,0-0.711C120.49,80.878,120.287,81.284,119.982,81.895z M120.185,76.1
	c0,1.017,0.712-0.508,1.221-0.204c0.305,0.103-0.813,1.119-1.83,1.932c-0.203-0.712-0.407-1.525-0.813-2.44
	c0.813-0.712,1.626-1.22,2.338-1.729c-0.102,0.712,0.406-0.508,0.915-0.406C122.625,73.355,120.185,75.083,120.185,76.1z
	 M122.218,71.526L122.218,71.526c0,0-1.728,0.712-4.167,2.44c-0.102-0.204-0.204-0.306-0.305-0.508
	c0.203-0.102,0.508-0.306,0.813-0.407c1.424-0.813,2.745-1.423,3.863-1.83l0,0C122.422,71.322,122.32,71.424,122.218,71.526z
	 M126.487,62.072c-0.305,1.22-0.101,1.83-0.712,2.542c-0.202,0.203-0.405,0-0.508-0.204c-0.102-0.61-0.102-1.22-0.202-1.525
	c-0.407-1.728-0.103,0.305-0.712,0.204c-0.407-0.102,0.203-0.813-0.305-3.05c1.422,0.61,2.033,1.423,1.017-0.102
	c-1.221-1.83-0.814-1.729,1.321-0.712c0.405,0.204,0.813,0.407,1.22,0.712c-0.203,0.61,0.102,0.813-0.203,1.626
	C126.895,62.479,126.792,60.852,126.487,62.072z"/>
</svg>
