<?xml version="1.0" encoding="UTF-8"?>
<svg id="Layer_1" xmlns="http://www.w3.org/2000/svg" version="1.1" viewBox="0 0 144 144">
  <!-- Generator: Adobe Illustrator 29.1.0, SVG Export Plug-In . SVG Version: 2.1.0 Build 142)  -->
  <defs>
    <style>
      .st0 {
        fill: #fff;
      }

      .st1 {
        fill: #62c7c7;
      }
    </style>
  </defs>
  <rect class="st0" x="0" width="144" height="144"/>
  <rect class="st1" x="6.1" y="46.3" width="131.7" height="51.4"/>
  <g>
    <path d="M19.8,61.2c-.8,1-1.1,2.3-1.1,4h-6.2c0-1.7.4-3.3.9-4.8.6-1.3,1.4-2.5,2.6-3.7.9-.8,1.9-1.4,3.1-1.8s2.7-.6,4.4-.6c3.2,0,5.9.8,7.9,2.5s3,3.9,3,6.8-.6,3.7-1.8,5.1c-.8.9-1.5,1.4-2.3,1.8.6,0,1.5.5,2.6,1.6,1.7,1.6,2.5,3.7,2.5,6.5s-1,5.4-3,7.6-4.9,3.3-8.9,3.3-8.2-1.6-10-4.7c-1-1.7-1.5-3.9-1.6-6.6h6.6c0,1.4.2,2.5.7,3.4.8,1.6,2.3,2.5,4.4,2.5s2.5-.4,3.4-1.3,1.5-2.2,1.5-3.9-.9-3.7-2.7-4.5c-1-.4-2.7-.6-4.9-.6v-4.8c2.2,0,3.7-.2,4.5-.6,1.5-.7,2.2-2,2.2-4s-.4-2.3-1.1-3.2-1.8-1.2-3.2-1.2-2.7.5-3.5,1.5h0Z"/>
    <path d="M50.1,71.6c-.8,0-1.5,0-2.1.3-1,.4-1.8,1.1-2.4,2.1l-6-.3,2.4-18.8h18.7v5.7h-13.9l-1.2,7.4c1-.7,1.8-1.1,2.4-1.3,1-.4,2.2-.5,3.5-.5,2.8,0,5.3.9,7.4,2.8s3.1,4.6,3.1,8.2-1,5.9-3,8.4-5,3.7-9,3.7-5.9-.9-8-2.6-3.2-4.2-3.5-7.4h6.7c.3,1.4.8,2.6,1.5,3.4s1.8,1.2,3.3,1.2,2.9-.6,3.8-1.8,1.3-2.6,1.3-4.4-.4-3.2-1.2-4.4-2.1-1.8-3.8-1.8h0Z"/>
    <path d="M77.2,89.3c-4.3,0-7.4-1.5-9.1-4.6s-2.6-7.3-2.6-13,.9-9.9,2.6-13,4.8-4.6,9.1-4.6,7.4,1.5,9.1,4.6c1.7,3,2.6,7.4,2.6,13s-.9,9.9-2.6,13-4.8,4.6-9.1,4.6ZM81.1,80.8c.6-2.1.9-5.1.9-8.9s-.3-7.1-.9-9.1-1.9-3-3.9-3-3.3,1-3.9,3c-.6,2-1,5-1,9.1s.3,6.9,1,9,1.9,3.1,3.9,3.1,3.3-1,3.9-3.1h0Z"/>
    <path d="M108.2,69.9c-.6-1.2-1.7-1.8-3.3-1.8s-3.2.6-3.8,1.8c-.4.7-.5,1.8-.5,3.1v15.4h-6.8v-25.5h6.5v3.7c.8-1.3,1.6-2.3,2.3-2.8,1.3-1,3-1.5,5-1.5s3.5.4,4.7,1.3c1,.8,1.7,1.8,2.2,3.1.9-1.5,2-2.6,3.3-3.3,1.4-.7,2.9-1,4.6-1s2.2.2,3.3.7,2.1,1.2,3,2.3c.7.9,1.2,2,1.4,3.3.2.9.2,2.1.2,3.8v16.1h-6.9v-16.3c0-1-.2-1.8-.5-2.4-.6-1.2-1.7-1.8-3.3-1.8s-3.1.8-3.8,2.3c-.4.8-.5,1.8-.5,2.9v15.2h-6.7v-15.2c0-1.5-.2-2.6-.5-3.3h0Z"/>
  </g>
</svg>