<?xml version="1.0" encoding="UTF-8"?>
<svg id="Layer_1" xmlns="http://www.w3.org/2000/svg" version="1.1" viewBox="0 0 144 144">
  <!-- Generator: Adobe Illustrator 29.1.0, SVG Export Plug-In . SVG Version: 2.1.0 Build 142)  -->
  <defs>
    <style>
      .st0 {
        fill: #fff;
      }

      .st1 {
        fill: #62c7c7;
      }
    </style>
  </defs>
  <rect class="st0" x="0" y="0" width="144" height="144"/>
  <rect class="st1" x="6.13" y="46.32" width="131.74" height="51.37"/>
  <g>
    <path d="M19.8,61.25c-.75,1-1.11,2.34-1.08,4.01h-6.23c.06-1.69.35-3.29.87-4.8.55-1.33,1.41-2.55,2.58-3.68.88-.8,1.91-1.41,3.12-1.83s2.68-.63,4.43-.63c3.25,0,5.87.84,7.86,2.52s2.99,3.93,2.99,6.76c0,2-.59,3.69-1.78,5.06-.75.86-1.53,1.45-2.34,1.76.61,0,1.48.52,2.62,1.57,1.7,1.58,2.55,3.73,2.55,6.47,0,2.88-1,5.4-2.99,7.58s-4.94,3.27-8.85,3.27c-4.81,0-8.16-1.57-10.03-4.71-.98-1.67-1.53-3.86-1.64-6.56h6.56c0,1.36.22,2.48.66,3.38.81,1.64,2.29,2.46,4.43,2.46,1.31,0,2.46-.45,3.43-1.35s1.46-2.19,1.46-3.88c0-2.23-.91-3.73-2.72-4.48-1.03-.42-2.66-.63-4.88-.63v-4.78c2.17-.03,3.69-.24,4.55-.63,1.48-.66,2.23-1.98,2.23-3.98,0-1.3-.38-2.35-1.14-3.16s-1.82-1.22-3.2-1.22c-1.58,0-2.73.5-3.47,1.5Z"/>
    <path d="M58.45,65.4c-1.78,2.53-3.27,5.14-4.48,7.83-.95,2.11-1.81,4.69-2.58,7.73s-1.15,5.55-1.15,7.5h-6.94c.2-6.09,2.2-12.43,6-19.01,2.45-4.08,4.51-6.92,6.16-8.53h-16.95l.09-6h24v5.23c-1,.98-2.39,2.73-4.17,5.25Z"/>
    <path d="M76.8,71.59c-.81,0-1.52.1-2.11.3-1.05.38-1.84,1.07-2.37,2.09l-6-.28,2.39-18.77h18.73v5.67h-13.9l-1.22,7.43c1.03-.67,1.84-1.12,2.41-1.34.97-.36,2.15-.54,3.54-.54,2.81,0,5.27.95,7.36,2.84s3.14,4.64,3.14,8.25c0,3.14-1.01,5.95-3.02,8.41s-5.03,3.7-9.05,3.7c-3.23,0-5.89-.87-7.97-2.6s-3.23-4.2-3.47-7.38h6.66c.27,1.45.77,2.57,1.52,3.36s1.84,1.18,3.28,1.18c1.66,0,2.92-.58,3.79-1.75s1.3-2.63,1.3-4.39-.41-3.2-1.22-4.39-2.08-1.79-3.8-1.79Z"/>
    <path d="M108.16,69.95c-.56-1.23-1.66-1.85-3.3-1.85-1.91,0-3.19.62-3.84,1.85-.36.7-.54,1.75-.54,3.14v15.38h-6.77v-25.5h6.49v3.73c.83-1.33,1.61-2.27,2.34-2.84,1.3-1,2.98-1.5,5.04-1.5,1.95,0,3.53.43,4.73,1.29.97.8,1.7,1.82,2.2,3.07.88-1.5,1.96-2.6,3.26-3.3,1.38-.7,2.91-1.05,4.59-1.05,1.12,0,2.23.22,3.33.66s2.09,1.2,2.98,2.3c.72.89,1.2,1.98,1.45,3.28.16.86.23,2.12.23,3.77l-.05,16.1h-6.84v-16.27c0-.97-.16-1.77-.47-2.39-.59-1.19-1.69-1.78-3.28-1.78-1.84,0-3.12.77-3.82,2.3-.36.81-.54,1.79-.54,2.93v15.21h-6.73v-15.21c0-1.52-.16-2.62-.47-3.3Z"/>
  </g>
</svg>