<?xml version="1.0" encoding="UTF-8"?>
<svg id="Layer_1" xmlns="http://www.w3.org/2000/svg" version="1.1" viewBox="0 0 144 144">
  <!-- Generator: Adobe Illustrator 29.1.0, SVG Export Plug-In . SVG Version: 2.1.0 Build 142)  -->
  <defs>
    <style>
      .st0 {
        fill: #fff;
      }

      .st1 {
        fill: #62c7c7;
      }
    </style>
  </defs>
  <rect class="st0" x="0" width="144" height="144"/>
  <rect class="st1" x="6.13" y="46.32" width="131.74" height="51.37"/>
  <g>
    <path d="M36.76,71.59c-.81,0-1.52.1-2.11.3-1.05.38-1.84,1.07-2.37,2.09l-6-.28,2.39-18.77h18.73v5.67h-13.9l-1.22,7.43c1.03-.67,1.84-1.12,2.41-1.34.97-.36,2.15-.54,3.54-.54,2.81,0,5.27.95,7.36,2.84s3.14,4.64,3.14,8.25c0,3.14-1.01,5.95-3.02,8.41s-5.03,3.7-9.05,3.7c-3.23,0-5.89-.87-7.97-2.6s-3.23-4.2-3.47-7.38h6.66c.27,1.45.77,2.57,1.52,3.36s1.84,1.18,3.28,1.18c1.66,0,2.92-.58,3.79-1.75s1.3-2.63,1.3-4.39-.41-3.2-1.22-4.39-2.08-1.79-3.8-1.79Z"/>
    <path d="M63.88,89.31c-4.33,0-7.36-1.52-9.11-4.55s-2.61-7.35-2.61-12.96.87-9.94,2.61-12.98,4.78-4.57,9.11-4.57,7.37,1.52,9.12,4.57c1.73,3.05,2.6,7.38,2.6,12.98s-.87,9.93-2.61,12.96-4.78,4.55-9.11,4.55ZM67.79,80.75c.61-2.06.91-5.05.91-8.95s-.31-7.12-.93-9.09-1.92-2.95-3.9-2.95-3.3.98-3.94,2.95-.96,5-.96,9.09.32,6.89.96,8.96,1.95,3.11,3.94,3.11,3.29-1.04,3.91-3.12Z"/>
    <path d="M94.82,69.95c-.56-1.23-1.66-1.85-3.3-1.85-1.91,0-3.19.62-3.84,1.85-.36.7-.54,1.75-.54,3.14v15.38h-6.77v-25.5h6.49v3.73c.83-1.33,1.61-2.27,2.34-2.84,1.3-1,2.98-1.5,5.04-1.5,1.95,0,3.53.43,4.73,1.29.97.8,1.7,1.82,2.2,3.07.88-1.5,1.96-2.6,3.26-3.3,1.38-.7,2.91-1.05,4.59-1.05,1.12,0,2.23.22,3.33.66s2.09,1.2,2.98,2.3c.72.89,1.2,1.98,1.45,3.28.16.86.23,2.12.23,3.77l-.05,16.1h-6.84v-16.27c0-.97-.16-1.77-.47-2.39-.59-1.19-1.69-1.78-3.28-1.78-1.84,0-3.12.77-3.82,2.3-.36.81-.54,1.79-.54,2.93v15.21h-6.73v-15.21c0-1.52-.16-2.62-.47-3.3Z"/>
  </g>
</svg>