<?xml version="1.0" encoding="UTF-8" standalone="no"?>
<!-- Generator: Adobe Illustrator 16.0.0, SVG Export Plug-In . SVG Version: 6.00 Build 0)  -->

<svg
   version="1.1"
   id="_x35_0m"
   x="0px"
   y="0px"
   width="144px"
   height="144px"
   viewBox="0 0 144 144"
   enable-background="new 0 0 144 144"
   xml:space="preserve"
   sodipodi:docname="always.svg"
   inkscape:version="1.2.1 (9c6d41e410, 2022-07-14)"
   xmlns:inkscape="http://www.inkscape.org/namespaces/inkscape"
   xmlns:sodipodi="http://sodipodi.sourceforge.net/DTD/sodipodi-0.dtd"
   xmlns="http://www.w3.org/2000/svg"
   xmlns:svg="http://www.w3.org/2000/svg"><defs
   id="defs17" /><sodipodi:namedview
   id="namedview15"
   pagecolor="#ffffff"
   bordercolor="#000000"
   borderopacity="0.25"
   inkscape:showpageshadow="2"
   inkscape:pageopacity="0.0"
   inkscape:pagecheckerboard="0"
   inkscape:deskcolor="#d1d1d1"
   showgrid="false"
   inkscape:zoom="5.4722222"
   inkscape:cx="64.416244"
   inkscape:cy="72"
   inkscape:window-width="1920"
   inkscape:window-height="986"
   inkscape:window-x="-11"
   inkscape:window-y="-11"
   inkscape:window-maximized="1"
   inkscape:current-layer="_x35_0m" />


<g
   id="g12">
	<path
   fill="#010101"
   d="M45.5,37.127H30v74.436H15.6V37.127H0V22.363h45.5V37.127L45.5,37.127z"
   id="path6" />
	<path
   fill="#010101"
   d="M83.8,85.617c0,9.397-2.034,16.065-5.99,20.007c-3.956,3.941-10.059,5.962-18.311,5.962   c-4.295,0-7.799-0.607-10.511-1.921c-2.713-1.313-4.973-3.031-6.556-5.456s-2.713-5.053-3.278-8.185   c-0.565-3.131-0.904-6.365-0.904-9.8v-3.84h14.92v2.729c0,4.647,0.452,8.184,1.356,10.407c0.904,2.223,2.826,3.334,5.765,3.334   c2.938,0,4.86-1.111,5.764-3.334c0.904-2.224,1.356-5.76,1.356-10.407V22.363h16.276L83.8,85.617L83.8,85.617z"
   id="path8" />
	<path
   fill="#010101"
   d="M110.899,85.604c0,1.977,0.101,3.854,0.4,5.435s0.8,3.063,1.5,4.15c0.7,1.086,1.7,1.976,2.899,2.668   c1.2,0.593,2.801,0.988,4.601,0.988c2.2,0,4.2-0.89,5.899-2.57c1.801-1.68,2.601-4.347,2.601-8.003c0-1.878-0.2-3.558-0.601-5.041   c-0.399-1.383-1.1-2.667-2.199-3.754c-1-1.087-2.301-2.174-3.9-3.063c-1.6-0.89-3.6-1.878-6-2.866c-3.2-1.284-6-2.668-8.3-4.249   c-2.3-1.482-4.3-3.261-5.8-5.336c-1.601-2.076-2.7-4.447-3.4-7.115c-0.7-2.667-1.1-5.83-1.1-9.289c0-8.498,2-14.822,5.899-18.973   c3.9-4.15,9.3-6.225,16.2-6.225c3.2,0,6.1,0.395,8.8,1.284c2.7,0.89,5,2.174,7,4.052s3.5,4.25,4.601,7.214   c1.1,2.964,1.6,6.423,1.6,10.573v2.372h-13.8c0-4.051-0.601-7.213-1.8-9.486c-1.2-2.174-3.2-3.261-6-3.261   c-1.601,0-2.9,0.297-4,0.889c-1.101,0.593-1.9,1.285-2.5,2.273c-0.601,0.89-1.101,1.977-1.301,3.162   c-0.199,1.186-0.3,2.47-0.3,3.755c0,2.667,0.5,4.842,1.4,6.719c0.899,1.779,2.899,3.458,6,5.04l11.1,5.731   c2.7,1.482,5,2.964,6.7,4.545c1.7,1.582,3.1,3.261,4.1,5.04c1,1.778,1.7,3.755,2.2,5.929c0.5,2.174,0.601,4.545,0.601,7.213   c0,9.091-2.2,15.712-6.5,19.763c-4.4,4.15-10.4,6.225-18.2,6.225c-8.101,0-13.9-2.173-17.4-6.423c-3.5-4.249-5.2-10.376-5.2-18.281   v-3.459h14.4v2.372H110.899z"
   id="path10" />
</g>
</svg>
