<?xml version="1.0" encoding="UTF-8" standalone="no"?>
<!-- Generator: Adobe Illustrator 16.0.0, SVG Export Plug-In . SVG Version: 6.00 Build 0)  -->

<svg
   version="1.1"
   id="_x35_0m"
   x="0px"
   y="0px"
   width="144px"
   height="144px"
   viewBox="0 0 144 144"
   enable-background="new 0 0 144 144"
   xml:space="preserve"
   sodipodi:docname="animals.svg"
   inkscape:version="1.2.1 (9c6d41e410, 2022-07-14)"
   xmlns:inkscape="http://www.inkscape.org/namespaces/inkscape"
   xmlns:sodipodi="http://sodipodi.sourceforge.net/DTD/sodipodi-0.dtd"
   xmlns="http://www.w3.org/2000/svg"
   xmlns:svg="http://www.w3.org/2000/svg"><defs
   id="defs807" /><sodipodi:namedview
   id="namedview805"
   pagecolor="#ffffff"
   bordercolor="#000000"
   borderopacity="0.25"
   inkscape:showpageshadow="2"
   inkscape:pageopacity="0.0"
   inkscape:pagecheckerboard="0"
   inkscape:deskcolor="#d1d1d1"
   showgrid="false"
   inkscape:zoom="5.4722222"
   inkscape:cx="54.639594"
   inkscape:cy="72"
   inkscape:window-width="1920"
   inkscape:window-height="986"
   inkscape:window-x="-11"
   inkscape:window-y="-11"
   inkscape:window-maximized="1"
   inkscape:current-layer="_x35_0m" />
<g
   id="g802"
   transform="translate(4.9684874e-4)">
	<path
   id="path2"
   fill="#ffffff"
   d="m 72.023,10.144 c -16.5,0 -32,6.4 -43.7,18.1 -11.7,11.701 -18,27.101 -18,43.601 0,16.5 6.4,32 18.1,43.7 11.7,11.7 27.2,18.1 43.7,18.1 16.5,0 32,-6.399 43.7,-18.1 11.699,-11.701 18.101,-27.2 18.101,-43.6 0,-16.4 -6.399,-32 -18.101,-43.701 -11.7,-11.7 -27.301,-18.1 -43.8,-18.1 z" />
	<path
   id="path4"
   fill="#010101"
   d="m 138.301,44.001 c -3.6,-8.602 -8.8,-16.301 -15.399,-22.9 -6.601,-6.6 -14.301,-11.801 -22.899,-15.4 -8.899,-3.801 -18.3,-5.698 -28,-5.698 -9.7,0 -19.102,1.896 -28.002,5.697 -8.601,3.6 -16.3,8.801 -22.898,15.4 -6.602,6.599 -11.802,14.3 -15.4,22.901 -3.801,8.898 -5.701,18.299 -5.701,28 0,9.698 1.899,19.198 5.7,27.998 3.6,8.603 8.8,16.301 15.4,22.899 6.6,6.6 14.299,11.801 22.898,15.4 8.899,3.802 18.3,5.699 28,5.699 9.7,0 19.2,-1.897 28,-5.699 8.601,-3.6 16.3,-8.801 22.899,-15.398 6.601,-6.602 11.801,-14.3 15.398,-22.9 3.801,-8.898 5.7,-18.299 5.7,-27.998 0.004,-9.702 -1.896,-19.103 -5.696,-28.001 z m -15.736,63.458 c -0.347,0.496 -0.69,0.994 -1.053,1.48 -0.033,0.045 -0.068,0.088 -0.103,0.131 -1.735,2.318 -3.636,4.537 -5.709,6.629 C 104,127.3 88.5,133.8 72,133.8 c -11.398,0 -22.3,-3.101 -31.898,-8.802 l 0.061,-0.062 c -2.06,-1.239 -4.033,-2.606 -5.926,-4.071 l -0.035,0.035 c -1.301,-1 -2.6,-2.102 -3.801,-3.199 l 0.021,-0.021 c -2.923,-2.662 -5.589,-5.602 -7.958,-8.775 -0.052,-0.066 -0.109,-0.136 -0.163,-0.203 l 0.012,-0.01 C 14.724,98.43 10.23,85.742 10.23,72.001 10.23,37.888 37.884,10.23 72.001,10.23 c 34.117,0 61.771,27.657 61.771,61.771 0,11.534 -3.172,22.325 -8.676,31.565 -0.033,0.055 -0.063,0.111 -0.097,0.166 -0.376,0.627 -0.771,1.241 -1.168,1.854 -0.17,0.263 -0.333,0.528 -0.507,0.79 -0.245,0.366 -0.505,0.722 -0.759,1.083 z" />
	<path
   id="path9627"
   fill="#010101"
   d="M 82.280033,88.447115 H 61.612934 L 57.716483,100.02502 H 45.489351 L 65.507222,43.974982 H 78.707113 L 98.509656,100.02502 H 85.95791 Z M 79.033891,78.816896 72.000586,56.743137 64.750871,78.816896 Z"
   style="stroke-width:1.08205" />
</g>
</svg>
