<?xml version="1.0" encoding="utf-8"?>
<!-- Generator: Adobe Illustrator 16.0.0, SVG Export Plug-In . SVG Version: 6.00 Build 0)  -->
<!DOCTYPE svg PUBLIC "-//W3C//DTD SVG 1.1//EN" "http://www.w3.org/Graphics/SVG/1.1/DTD/svg11.dtd">
<svg version="1.1" id="_x35_0m" xmlns="http://www.w3.org/2000/svg" xmlns:xlink="http://www.w3.org/1999/xlink" x="0px" y="0px"
	 width="144px" height="144px" viewBox="0 0 144 144" enable-background="new 0 0 144 144" xml:space="preserve">
<path fill="#010101" d="M73.121,75.706c-2.345,10.126-9.38,17.374-11.938,27.075c-3.624,7.035-2.345,20.891-12.258,21.957
	c-3.837-0.639-0.533-3.944,0.746-5.436c0.96-1.279,2.452-2.453,2.771-3.944c3.731-14.497,7.249-29.099,10.873-44.129
	c-14.177,1.493-27.181-3.517-40.825-6.501c2.771,8.314-4.477,15.136-6.075,23.023c-0.747,9.273,2.451,18.867,6.289,27.288
	c2.239,4.156,5.01,7.674,9.807,9.06c0.426,0.106,0.746,0.853,1.172,1.386c-2.558,1.705-8.208,2.132-9.806-1.066
	C18.44,110.561,7.888,98.196,11.405,82.634c-5.649,13.43-4.583,26.647-0.746,39.865c0.853,4.476,3.624,3.943,6.182,6.608
	c-2.132,1.599-8.101,2.772-9.486-0.212C5.01,117.915,5.969,105.765,0,95.852c0.213-7.568,4.05-15.136,3.944-22.917
	c-0.213-0.107-0.426-0.107-0.64-0.213c-0.426,0.853-0.853,1.813-1.599,3.198c-2.665-9.38,3.731-18.547,1.493-28.247
	c-1.386-6.396,3.304-9.913,5.863-14.71c0.106-4.583,6.821-4.263,10.019-5.862c8.527-2.558,13.644-11.299,22.704-13.431
	c19.826-3.411,34.322,15.35,46.688,27.927c15.456,15.989,24.089-1.066,27.606-15.989c0.854-4.477,1.919-5.01,6.396-4.157
	c5.543,1.706,9.7,6.822,15.882,6.182c3.304,0.106,4.477,0.853,5.223,3.944c0.639,2.132,0.959,5.009-2.132,4.69
	c-5.33-1.279-10.233,1.706-15.456,1.918c-9.914,26.647-15.563,28.993-42.744,25.902c0.747,8.74,5.01,17.8,5.116,27.074
	c3.944,7.461,5.33,15.669,7.036,23.77c3.624-0.106,7.994,1.918,3.624,4.796c-2.665,0.427-7.994,2.025-8.314-2.024
	c-1.599-6.396-3.198-12.898-4.796-19.294C82.714,90.734,77.492,83.594,73.121,75.706z"/>
</svg>
