<?xml version="1.0" encoding="utf-8"?>
<!-- Generator: Adobe Illustrator 16.0.0, SVG Export Plug-In . SVG Version: 6.00 Build 0)  -->
<!DOCTYPE svg PUBLIC "-//W3C//DTD SVG 1.1//EN" "http://www.w3.org/Graphics/SVG/1.1/DTD/svg11.dtd">
<svg version="1.1" id="_x35_0m" xmlns="http://www.w3.org/2000/svg" xmlns:xlink="http://www.w3.org/1999/xlink" x="0px" y="0px"
	 width="144px" height="144px" viewBox="0 0 144 144" enable-background="new 0 0 144 144" xml:space="preserve">
<path fill="#010101" d="M52.631,114.066c0.605-2.927,0-3.734-2.523-5.248c-5.752-3.431-10.596-7.871-14.431-13.321
	c-1.413-1.917-1.11-3.834,0.202-5.853c2.22-3.432,4.238-6.964,6.156-10.596c0.303-0.505,0.202-1.413-0.101-1.918
	c-4.137-9.183-10.091-17.357-16.247-25.329c-0.908-1.211-3.431-1.413-5.248-1.413c-2.825-0.101-5.752,0.202-8.578,0.403
	c-0.807,0.101-1.716,0.303-2.523,0.303c-2.119,0-4.44,0.101-6.458-0.303c-1.009-0.202-2.119-1.514-2.624-2.624
	c-0.605-1.413,0.202-2.725,1.413-3.835c2.522-2.522,4.944-5.146,7.266-7.872c0.707-0.807,0.908-1.917,1.312-3.027
	c-2.22-1.21-4.945-1.109-5.954-3.834c2.422-1.716,4.844-1.816,7.468-1.009c2.22,0.707,2.523,0.606,3.835-1.514
	c-1.716-0.403-3.331-0.807-5.651-1.413c1.715-0.605,3.027-1.615,4.238-1.514c4.642,0.403,9.284,1.009,13.926,1.715
	c0.505,0.101,0.908,0.909,1.312,1.413c0.808,0.908,1.413,2.321,2.422,2.825c5.651,2.321,11.302,4.743,17.155,6.56
	c2.422,0.807,5.248,0.707,7.872,0.707c6.862-0.101,13.522,0.202,20.385,1.413c6.761,1.211,13.825,0.707,20.688,0.505
	c8.679-0.303,17.257-0.908,25.935-1.514c12.21-0.808,17.256,4.541,17.458,16.146c0.102,7.064-0.403,14.128-0.504,21.192
	c-0.101,4.138,0,8.275,1.816,12.211c1.615,3.633,1.817,7.669,0.707,11.605c-0.403,1.514-1.514,2.926-2.421,4.743
	c-2.422-7.872-3.331-15.239-2.625-23.009c0.807-8.981,0.202-18.063,0.202-27.045c-0.303,0-0.505-0.101-0.807-0.101
	c-1.009,3.532-1.716,7.165-2.927,10.596c-2.825,7.669-2.22,14.935,0.606,22.706c1.917,5.046,1.917,10.798,2.724,16.247
	c0.404,2.825,0.606,5.652,0.909,8.477c0.101,1.312-0.202,2.523-2.119,1.614c-0.102,0.404-0.202,0.909-0.304,1.312
	c-0.807,3.936-3.733,5.955-7.77,5.248c-0.606-0.101-1.514-0.505-1.716-0.908c-0.202-0.404,0.303-1.313,0.707-1.817
	c0.908-1.109,2.119-2.119,2.926-3.33c2.12-3.43,2.927-7.064,1.816-11.101c-1.412-4.743-2.523-9.587-6.055-13.321
	c-0.403-0.403-0.807-0.706-0.807-0.706c-0.505,1.816-0.707,3.834-1.514,5.651c-2.119,4.945-4.037,9.991-4.844,15.439
	c-0.707,4.643-7.468,7.67-12.11,5.248c3.027-3.33,7.165-5.55,7.973-10.394c0.706-4.339,1.816-8.578,2.724-12.716
	c-3.733-1.715-4.642,0.808-5.65,2.826c-0.303-0.102-0.605-0.202-0.605-0.202c-0.102-2.826-1.817-4.138-4.138-5.349
	c-1.312-0.707-2.221-1.917-3.229-3.027c-1.11-1.211-2.321-2.12-3.935-1.413c-8.78,3.936-17.56,2.321-26.238-0.101
	c-2.019-0.606-4.138-0.909-6.156-1.413c-1.615-0.404-2.22,0.404-2.22,1.816c0,0.404,0,0.807,0,1.211
	c0.404,7.871,0.808,15.844,1.211,23.715c0,0.807,0,1.716,0,2.523c-0.202-0.101-0.404-0.303-0.707-0.404
	c-0.605,0.505-1.413,0.909-1.715,1.514c-1.615,3.129-2.927,4.138-5.955,3.734c0.504-2.019,0.909-4.037,1.514-6.055
	c1.211-4.238,1.413-8.476,0.808-12.816c-0.303-2.119-1.615-3.33-2.826-4.642c-1.11-1.211-2.22-2.422-3.33-3.532
	c-3.431,1.716-6.56,3.33-10.091,4.945c4.541,3.935,6.963,10.596,14.43,10.394C59.089,111.441,56.365,115.175,52.631,114.066z"/>
</svg>
