<?xml version="1.0" encoding="utf-8"?>
<!-- Generator: Adobe Illustrator 16.0.0, SVG Export Plug-In . SVG Version: 6.00 Build 0)  -->
<!DOCTYPE svg PUBLIC "-//W3C//DTD SVG 1.1//EN" "http://www.w3.org/Graphics/SVG/1.1/DTD/svg11.dtd">
<svg version="1.1" id="_x35_0m" xmlns="http://www.w3.org/2000/svg" xmlns:xlink="http://www.w3.org/1999/xlink" x="0px" y="0px"
	 width="144px" height="144px" viewBox="0 0 144 144" enable-background="new 0 0 144 144" xml:space="preserve">
<g>
	<path fill="#010101" d="M72.399,24.8l-1.299-0.3L50.899,127.699l2.601,0.5l1.5-7.5l7.7,14.2l-0.7,8.9l2.7,0.2l0.6-7.9l16.2-16
		l2.1,19.3l2.7-0.3L73.8,24.6L72.399,24.8z M68.399,95.3L77.7,85.199l3.1,28.2L68.101,99.5L68.399,95.3z M68.7,90.8L68.7,90.8
		l0.1-0.101l-0.1-0.1l1.699-21.5l6.101,5.3l0.8,7L68.7,90.8z M70.7,65.8l2-26.4L76.1,70.6L70.7,65.8z M67.5,72.3l-2.8-1l4.6-23.7
		L67.5,72.3z M67.3,75l-1,13l-4-4.101l2-10L67.3,75z M66,91.6L65,105l-8.101,6.6l4.701-24.5L66,91.6z M67.8,103.1l12.9,14.1
		l-15.1,14.9L67.8,103.1z M55.8,116.6l0.2-1.2l8.601-7L63,129.899L55.8,116.6z"/>
	<polygon fill="#010101" points="38.5,13.1 64.601,22.899 65.5,20.399 47.8,13.7 56.3,11.7 31.7,2.5 30.7,5 47,11.1 	"/>
	<polygon fill="#010101" points="64.3,31.3 63.3,28.8 45.7,35.899 50.601,28.6 26.2,38.399 27.2,40.899 43.399,34.399 38.399,41.7 	
		"/>
	<polygon fill="#010101" points="100.4,33.899 108.2,29.8 80.5,27 80.2,29.7 99.1,31.6 91.3,35.7 117.5,38.3 117.8,35.6 	"/>
	<polygon fill="#010101" points="95.4,9.7 92.5,17.899 113.5,2.2 111.9,0 98,10.399 100.9,2.2 78.6,18.899 80.2,21 	"/>
</g>
</svg>
