<?xml version="1.0" encoding="utf-8"?>
<!-- Generator: Adobe Illustrator 16.0.0, SVG Export Plug-In . SVG Version: 6.00 Build 0)  -->
<!DOCTYPE svg PUBLIC "-//W3C//DTD SVG 1.1//EN" "http://www.w3.org/Graphics/SVG/1.1/DTD/svg11.dtd">
<svg version="1.1" id="_x35_0m" xmlns="http://www.w3.org/2000/svg" xmlns:xlink="http://www.w3.org/1999/xlink" x="0px" y="0px"
	 width="144px" height="144px" viewBox="0 0 144 144" enable-background="new 0 0 144 144" xml:space="preserve">
<g>
	<path fill="#010101" d="M33.635,22.429l17.357,89.155H37.107l-2.994-18.869H16.758l-2.994,18.869H0l17.355-89.056
		C17.236,22.429,33.635,22.429,33.635,22.429z M31.84,78.038l-6.346-40.034h-0.238l-6.344,40.034H31.84z"/>
	<path fill="#010101" d="M66.074,85.922c0,2.025,0.119,3.859,0.359,5.499c0.238,1.64,0.719,3.087,1.436,4.149
		c0.719,1.157,1.557,2.026,2.754,2.702c1.076,0.675,2.514,0.964,4.309,0.964c2.035,0,3.83-0.869,5.506-2.605
		c1.557-1.736,2.395-4.438,2.395-8.007c0-1.93-0.24-3.57-0.598-5.017c-0.359-1.447-1.078-2.701-1.916-3.763
		c-0.959-1.157-2.154-2.122-3.592-3.086c-1.436-0.965-3.352-1.833-5.506-2.798c-2.873-1.254-5.508-2.701-7.541-4.245
		c-2.156-1.543-3.951-3.28-5.387-5.402c-1.436-2.026-2.512-4.438-3.111-7.139c-0.719-2.702-0.959-5.789-0.959-9.358
		c0-8.49,1.795-14.857,5.389-19.102c3.59-4.149,8.496-6.271,14.842-6.271c2.873,0,5.627,0.386,8.139,1.254
		c2.514,0.868,4.549,2.219,6.465,4.052c1.914,1.833,3.23,4.341,4.189,7.235c0.957,2.895,1.557,6.464,1.557,10.516v2.412H81.635
		c0-4.053-0.598-7.236-1.676-9.455c-1.076-2.219-2.873-3.281-5.506-3.281c-1.438,0-2.633,0.29-3.711,0.869
		c-0.959,0.579-1.795,1.351-2.273,2.219c-0.6,0.965-0.959,2.026-1.197,3.184c-0.24,1.158-0.24,2.605-0.24,3.859
		c0,2.702,0.479,4.92,1.316,6.657c0.838,1.833,2.635,3.473,5.506,5.017l10.176,5.789c2.514,1.447,4.549,2.991,6.104,4.534
		c1.557,1.544,2.875,3.281,3.832,5.017S95.52,76.082,96,78.3c0.357,2.123,0.598,4.631,0.598,7.236
		c0,9.069-2.035,15.726-5.984,19.874c-3.949,4.149-9.576,6.175-16.76,6.175c-7.42,0-12.807-2.122-16.039-6.367
		c-3.232-4.246-4.789-10.42-4.789-18.331v-3.474h13.168L66.074,85.922L66.074,85.922z"/>
	<path fill="#010101" d="M113.596,85.922c0,2.025,0.119,3.859,0.359,5.499c0.238,1.64,0.717,3.087,1.436,4.149
		c0.719,1.157,1.557,2.026,2.754,2.702c1.076,0.675,2.512,0.964,4.309,0.964c2.035,0,3.83-0.869,5.506-2.605
		c1.557-1.736,2.395-4.438,2.395-8.007c0-1.93-0.238-3.57-0.598-5.017c-0.361-1.447-1.078-2.701-2.035-3.763
		c-0.957-1.157-2.154-2.122-3.592-3.086c-1.436-0.965-3.352-1.833-5.506-2.798c-2.873-1.254-5.506-2.701-7.543-4.245
		c-2.152-1.543-3.949-3.28-5.385-5.402c-1.438-2.026-2.514-4.438-3.111-7.139c-0.721-2.702-0.959-5.789-0.959-9.358
		c0-8.49,1.797-14.857,5.387-19.102c3.592-4.149,8.498-6.271,14.844-6.271c2.873,0,5.625,0.386,8.139,1.254s4.549,2.219,6.465,4.052
		c1.795,1.93,3.23,4.341,4.189,7.235c0.957,2.895,1.555,6.464,1.555,10.516v2.412h-12.926c0-4.053-0.6-7.236-1.678-9.455
		c-1.076-2.219-2.871-3.281-5.506-3.281c-1.438,0-2.633,0.29-3.711,0.869c-0.959,0.579-1.795,1.351-2.273,2.219
		c-0.6,0.965-0.959,2.026-1.197,3.184c-0.24,1.158-0.359,2.412-0.359,3.763c0,2.701,0.479,4.92,1.316,6.657
		c0.838,1.833,2.633,3.473,5.508,5.016l10.174,5.789c2.514,1.447,4.549,2.991,6.104,4.534c1.557,1.544,2.873,3.28,3.832,5.017
		c0.957,1.833,1.555,3.763,1.914,5.982c0.359,2.219,0.598,4.631,0.598,7.236c0,9.068-2.033,15.726-5.984,19.874
		c-3.949,4.149-9.576,6.175-16.758,6.175c-7.422,0-12.809-2.122-16.039-6.368c-3.232-4.244-4.787-10.419-4.787-18.331v-3.473h13.166
		V85.922L113.596,85.922z"/>
</g>
</svg>
