<?xml version="1.0" encoding="utf-8"?>
<!-- Generator: Adobe Illustrator 16.0.0, SVG Export Plug-In . SVG Version: 6.00 Build 0)  -->
<!DOCTYPE svg PUBLIC "-//W3C//DTD SVG 1.1//EN" "http://www.w3.org/Graphics/SVG/1.1/DTD/svg11.dtd">
<svg version="1.1" id="_x35_0m" xmlns="http://www.w3.org/2000/svg" xmlns:xlink="http://www.w3.org/1999/xlink" x="0px" y="0px"
	 width="144px" height="144px" viewBox="0 0 144 144" enable-background="new 0 0 144 144" xml:space="preserve">
<polygon points="144,69.638 130.495,69.638 136.403,63.731 133.238,60.566 124.971,68.835 116.702,60.566 113.537,63.731 
	119.445,69.638 103.808,69.638 109.716,63.731 106.551,60.566 98.282,68.835 90.015,60.566 86.85,63.731 92.758,69.638 
	77.119,69.638 83.027,63.731 79.862,60.566 71.595,68.835 63.326,60.566 60.161,63.731 66.069,69.638 50.432,69.638 56.34,63.731 
	53.175,60.566 44.907,68.835 36.639,60.566 33.474,63.731 39.382,69.638 23.744,69.638 29.652,63.731 26.487,60.566 18.22,68.835 
	9.951,60.566 6.786,63.731 12.694,69.638 0,69.638 0,74.362 12.693,74.362 6.786,80.269 9.951,83.432 18.22,75.164 26.489,83.434 
	29.653,80.269 23.745,74.362 39.381,74.362 33.474,80.269 36.639,83.432 44.907,75.164 53.177,83.434 56.341,80.269 50.433,74.362 
	66.068,74.362 60.161,80.269 63.326,83.432 71.595,75.164 79.864,83.434 83.028,80.269 77.121,74.362 92.757,74.362 86.85,80.269 
	90.015,83.432 98.282,75.164 106.553,83.434 109.717,80.269 103.809,74.362 119.444,74.362 113.537,80.269 116.702,83.432 
	124.971,75.164 133.24,83.434 136.404,80.269 130.496,74.362 144,74.362 "/>
</svg>
