<?xml version="1.0" encoding="UTF-8" standalone="no"?>
<!-- Generator: Adobe Illustrator 16.0.0, SVG Export Plug-In . SVG Version: 6.00 Build 0)  -->

<svg
   version="1.1"
   id="_x35_0m"
   x="0px"
   y="0px"
   width="144px"
   height="144px"
   viewBox="0 0 144 144"
   enable-background="new 0 0 144 144"
   xml:space="preserve"
   sodipodi:docname="barrel.svg"
   inkscape:version="1.2.1 (9c6d41e410, 2022-07-14)"
   xmlns:inkscape="http://www.inkscape.org/namespaces/inkscape"
   xmlns:sodipodi="http://sodipodi.sourceforge.net/DTD/sodipodi-0.dtd"
   xmlns="http://www.w3.org/2000/svg"
   xmlns:svg="http://www.w3.org/2000/svg"><defs
   id="defs13" /><sodipodi:namedview
   id="namedview11"
   pagecolor="#ffffff"
   bordercolor="#000000"
   borderopacity="0.25"
   inkscape:showpageshadow="2"
   inkscape:pageopacity="0.0"
   inkscape:pagecheckerboard="0"
   inkscape:deskcolor="#d1d1d1"
   showgrid="false"
   inkscape:zoom="5.4722222"
   inkscape:cx="64.416244"
   inkscape:cy="72"
   inkscape:window-width="1920"
   inkscape:window-height="986"
   inkscape:window-x="-11"
   inkscape:window-y="-11"
   inkscape:window-maximized="1"
   inkscape:current-layer="_x35_0m" />


<path
   fill="#ADADAD"
   d="M121.6,22.3c-1.3-11-23-19.7-49.6-19.7c-26.6,0-48.3,8.7-49.6,19.6h-0.1v99.3h0.1  c1.7,10.8,23.2,19.3,49.5,19.3c26.3,0,47.8-8.5,49.5-19.3h0.1L121.6,22.3L121.6,22.3L121.6,22.3z"
   id="path6" />
<path
   fill="#010101"
   d="M123.2,20.6C120.2,9.1,98.8,0.3,72,0.3S23.8,9.1,20.8,20.6h-0.4V56c0,0.1,0,0.2,0,0.4v34.1  c0,0.1,0,0.2,0,0.4v31l0.1,2h0.4c3.6,11.1,24.9,19.3,51.1,19.3s47.5-8.2,51.1-19.3h0.5V20.6H123.2z M24.4,23v-0.2  C25.5,13,46.9,4.9,72,4.9c25.1,0,46.5,8,47.6,17.9v0.1c0,0.2,0,0.3,0,0.5c0,9.2-19.199,19.1-47.7,19.1c-28.5,0-47.7-9.9-47.7-19.1  C24.3,23.3,24.4,23.2,24.4,23z M119.7,90.3c-2.601,18.9-47.2,19.3-47.6,19.3C43.6,108.4,32,102,27.4,96.9c-2.7-3-3-5.5-3-6.2V65  C29.5,70.7,42,77.8,72,79c1.7,0,35.7-0.3,47.7-14.2V90.3z M119.6,121.6C118.3,130.1,99.7,139.2,72,139.2S25.7,130,24.4,121.6  l-0.1-0.399V99.5c5.2,5.8,17.6,12.8,47.7,14c1.7,0,35.7-0.3,47.7-14.2V121L119.6,121.6z M119.7,55.8C117.1,74.6,72.5,75,72.1,75  C43.6,73.9,32,67.5,27.4,62.4c-2.7-3-3-5.5-3-6.2V32.4c7.7,8.3,25.9,14,47.7,14c21.7,0,39.9-5.7,47.7-14L119.7,55.8L119.7,55.8z"
   id="path8" />
</svg>
