<?xml version="1.0" encoding="utf-8"?>
<!-- Generator: Adobe Illustrator 16.0.0, SVG Export Plug-In . SVG Version: 6.00 Build 0)  -->
<!DOCTYPE svg PUBLIC "-//W3C//DTD SVG 1.1//EN" "http://www.w3.org/Graphics/SVG/1.1/DTD/svg11.dtd">
<svg version="1.1" id="_x35_0m" xmlns="http://www.w3.org/2000/svg" xmlns:xlink="http://www.w3.org/1999/xlink" x="0px" y="0px"
	 width="144px" height="144px" viewBox="0 0 144 144" enable-background="new 0 0 144 144" xml:space="preserve">
<g>
	<path fill="#010101" d="M24.5,23.4c2.2,0,4.3,0.4,6.2,1.1c1.9,0.7,3.6,2,4.9,3.8c1.3,1.8,2.5,4.1,3.2,7c0.8,2.9,1.2,6.5,1.2,10.8
		c0,4.8-0.7,9-2.1,12.4s-3.4,5.8-6.2,7.1v0.2c3.1,0.7,5.5,2.8,7.3,6.4c1.8,3.6,2.7,8.399,2.7,14.399c0,3.5-0.3,6.801-0.8,10
		c-0.5,3.2-1.5,5.9-2.9,8.301c-1.3,2.399-3.1,4.3-5.3,5.699c-2.2,1.4-4.9,2.101-8.1,2.101H6.1V23.4H24.5z M20.2,60.1
		c3.1,0,5.3-0.9,6.7-2.7c1.4-1.8,2.1-4.8,2.1-9.1c0-4.3-0.6-7.2-1.9-9c-1.3-1.8-3.3-2.6-6.1-2.6h-4v23.4H20.2L20.2,60.1z M21.4,99.4
		c2.6,0,4.8-1,6.4-2.9c1.6-1.9,2.5-5.5,2.5-10.6c0-2.601-0.2-4.7-0.6-6.4c-0.4-1.7-1-3.1-1.8-4.1c-0.8-1-1.6-1.801-2.6-2.2
		c-1-0.4-2.1-0.601-3.4-0.601h-4.8v26.9L21.4,99.4L21.4,99.4z"/>
	<path fill="#010101" d="M80.6,38.2H68.7v74.5h-11V38.2h-12V23.4H80.6V38.2z"/>
	<path fill="#010101" d="M92.7,23.4l6.1,66H99l6.4-66H116l6.4,66h0.199l6.101-66h10.6l-9.899,89.2H117.1L111,47.8h-0.2l-6.1,64.8
		H92.1L82.2,23.4C82.1,23.4,92.7,23.4,92.7,23.4z"/>
</g>
</svg>
