<?xml version="1.0" encoding="utf-8"?>
<!-- Generator: Adobe Illustrator 16.0.0, SVG Export Plug-In . SVG Version: 6.00 Build 0)  -->
<!DOCTYPE svg PUBLIC "-//W3C//DTD SVG 1.1//EN" "http://www.w3.org/Graphics/SVG/1.1/DTD/svg11.dtd">
<svg version="1.1" id="_x35_0m" xmlns="http://www.w3.org/2000/svg" xmlns:xlink="http://www.w3.org/1999/xlink" x="0px" y="0px"
	 width="144px" height="144px" viewBox="0 0 144 144" enable-background="new 0 0 144 144" xml:space="preserve">
<g>
	<path fill="#010101" d="M0,53.1c1.7,0.1,3.2-0.5,4.6-1.4c9.3-6.4,18.8-12.4,28.6-18.1c7.9-4.6,16.3-6.4,25.3-6.6
		c5.4-0.1,10.7-1.3,16.1-1.9c0.601-0.1,1.2-0.4,1.601-0.8c4.5-3.2,9.5-4.5,15.1-4.4c10.3,0.2,20.5,0.3,30.8,0.4
		c0.9,0,1.4,0.3,1.801,1.2c2.3,5.1,4.8,10.1,6.899,15.3c1.101,2.5,0.7,5.4,0.9,8.1c0.1,1.2,0.399,2.2,1.3,3.1
		c3.2,3.5,6.3,7,9.5,10.5c0.8,0.9,1.1,1.8,1.1,3c0,2.7,0,5.5,0.101,8.2c0,0.5-0.4,1.2,0.399,1.6c0,5.101,0,10.101,0,15.2
		c-3.6,0.1-3.6,0.1-3.8,3.5c-0.2,4-0.5,8.1-0.6,12.1c0,1.5-0.5,2.101-1.9,2.5c-7.399,2-15.1,3.601-21.899,7.301
		c-5.9,3.199-12.5,4.199-18.9,5c-5.3,0.699-10.8-0.101-16.2-0.2c-12.1-0.3-24.1-2.2-36.1-4.101c-5.6-0.899-10.9-3.1-16.1-5.399
		c-2.6-1.2-5-2.9-7.6-4.101c-4.1-1.8-7-4.699-9.5-8.399c-3.4-5-7-9.7-9.5-15.3c-1.3-2.9-0.9-5.9-1.4-8.8C0.5,69.8,1,69,0.1,68.4
		C0,63.2,0,58.2,0,53.1z M28.7,42.9c-1.1-0.4-1.3-1.5-2-2.2c-0.3-0.3-0.6-0.9-1.1-0.5c-1.3,0.9-2.8,1.7-3.7,2.9
		c-0.6,0.8,0.9,1.6,1.2,2.5c0.1,0.3,0.1,0.5,0.1,0.8c-1.8,1.2-3.5,2.3-5.2,3.5c-0.9-0.6-1.4-1.5-2-2.3c-0.4-0.6-0.9-0.8-1.6-0.3
		c-1.2,0.9-2.6,1.7-3.4,2.9c-0.2,0.4,1.1,1.8,1.7,2.8c0,0,0,0.1,0,0.2c-1.4,1-2.9,2-4.3,2.9c-0.5-0.3-1.2-0.5-1.6-0.9
		c-1-1-1.5-0.6-2.2,0.3c-2.4,3.1-2.5,3.1,0.6,5.7c0.2,0.2,0.3,0.4,0.5,0.6C6,64.9,6.1,68,6.3,71.1c-0.9,0.2-2.2-0.5-2.7,0.3
		c-0.8,1.3-0.9,3-0.6,4.5c0.3,1.199,1.6,0.8,2.6,1C6.3,77,7,76.8,7.5,77.3C7.7,77.8,7.9,78.4,8.2,78.9c-0.8,0-1.6,0-1.6,1.199
		c0,0.801-0.2,1.601-0.3,2.4c-0.2,1.5,0.2,2.3,1.9,2.2C9.5,84.6,10.8,84.8,12,85.1c1.4,2,2.8,4.101,4.2,6.101
		c-2.4,0.1-2.7,1.3-2,3.3c0.1,0.2,0.2,0.5,0.2,0.8c0,1.9,1.1,2,2.6,1.7c1.4-0.3,2.8-1.1,4.4-0.5c4.1,2.1,7.9,4.7,12.1,6.4
		c-1.8,1.699-1.1,3,0.6,4.1c0.3,0.2,0.6,0.5,0.9,0.9c0.7,0.899,1.3,0.699,2-0.101c1-0.899,1.7-2.2,3-2.7c3.2,1.2,6.5,2.101,9.9,2.4
		c-1.3,1.8-0.5,2.9,1.2,3.7c0.5,0.2,0.9,0.6,1.3,0.899c0.8,0.601,1.3,0.4,1.8-0.3c0.8-1.2,1.3-2.5,2.6-3.3c3.2,0.4,6.5,0.9,9.7,1.3
		c0,0.4-0.2,1,0,1.101c1.2,1.1,2.5,2.199,4,2.5c1.2,0.199,1.3-1.4,2-2.2c0.3-0.3,0.6-0.601,0.8-0.9c2.3,0.5,4.601,0.2,6.9,0.4
		c0.2,1,3,3.5,4,3.5c1.3,0,1.3-1.4,1.899-2.101c0.301-0.399,0.7-0.8,1.101-1.199C89.7,111,92.1,111.1,94.6,111.1
		c0.2,0.801-1.1,1.9,0.2,2.5c1.4,0.601,3,1.301,4.5,1.101c0.8-0.101,0.9-2.101,1.2-3.2c0.2-0.5,0.5-1,0.7-1.4
		c5-0.6,9.6-2.199,14-4.5c1.7,1.7,3.3-0.1,5-0.199c1.3-0.101,0.6-1.4,0.8-2.2c2-0.601,4.1-1.2,6.1-1.8c0.801,0.6,0.2,2.5,2.2,1.8
		c3.9-1.2,3.9-1.101,3.601-3.601c1.399-0.3,1.1-1.399,1.1-2.3c0.2-4.1,0.4-8.2,0.6-12.399C135.4,85.3,136,85.3,136.7,84.6
		c2.6-2.5,2.6-2.399,1.2-5.399c-0.101-4.4-0.101-8.8-0.2-13.2c2.3-1.2,0.5-3,0.6-4.5c0.101-1.6-1.2-1.2-2.2-1.2
		c-0.6-1-1.399-1.9-2.3-2.6c-0.2-0.7-0.399-1.4-0.6-2.2c-0.8-2.9-0.8-2.9-3.601-2.6c-0.699-0.9-1.399-1.7-2.199-2.6
		c2.199-0.9,2.1-2.3,0.899-4c-0.2-0.3-0.3-0.6-0.399-0.9c-0.2-1.3-1-1.5-2.101-1.1c-0.1-0.8-0.2-1.6-0.2-2.4
		c0.801-0.8,2.5-0.7,2.601-1.7c0.1-1.5-0.8-3-1.601-4.3c-0.699-1-1.6,0.2-2.399,0.1c-1.3-3-2.8-5.9-4-8.9c-0.4-1-1-1.5-2.101-1.4
		c0.7-1,0.801-1.7-0.399-2.4c-0.8-0.5-1.601-1.1-2.2-1.8c-0.7-0.8-1.2-0.5-1.8,0.2c-1.101,1.4-2,2.9-3.4,4c-3.1-0.1-6.2-0.2-9.3-0.3
		c0.9-3,0.9-3-2-4.2c-0.2-0.1-0.4-0.1-0.6-0.2c-1.4-1-1.9-0.3-2.5,1c-0.5,1.2-0.7,2.5-1.7,3.4c-2.3,0-4.7,0.1-7,0.1
		c0.399-2.4-0.4-3.6-3-3.2c-0.101,0-0.101,0-0.2,0c-1.8-0.6-2.7,0.1-2.7,2c0,1.2,0.2,2.5-0.399,3.6C79.1,28.6,77.8,30.6,75.6,30.4
		c-0.699-0.7-0.1-2.3-0.8-2.3c-1.7-0.1-3.4,0.1-5,0.7c-1,0.4,0.2,1.7-0.1,2.6c-1.2,0.1-2.4,0.3-3.6,0.4c-0.8-2-1.6-2.3-4.8-1.8
		c-1.8,0.3-0.8,1.7-1.1,2.5c-1.9,0.1-3.8,0.2-5.7,0.3c-0.6-3.4-3.1-1.3-4.7-1.5c-1.8-0.2-0.8,1.5-1.1,2.4c-2.3,0.2-4.4,0.8-6.5,1.7
		c-0.4-1-0.7-2-2.2-1.4c-1.1,0.4-2.9-0.1-3.5,0.8c-0.6,0.8-0.1,2.3,0,3.5C34,39.8,31.3,41.3,28.7,42.9z"/>
	<path fill="#EEC61C" d="M33.4,102.9c-4.3-1.7-8-4.301-12.1-6.4c0.5-0.6,1.2-0.6,1.8-0.8c4.2-0.8,8.4-1.7,12.6-2.601
		c4-0.899,4-0.899,3-5C38.4,87,38.1,86.7,36.9,86.9C30,88.4,23,89.7,16.1,91.1c-1.4-2-2.8-4.1-4.2-6.1c5.1,0.4,10.2,0.8,15.3,1.3
		c4.4,0.5,4.6,0.4,4.5-4c0-1.1-0.3-1.399-1.4-1.5c-7.4-0.7-14.8-1.399-22.2-2.1C7.9,78.2,7.7,77.6,7.4,77.1c1.1,0,2.2,0,3.3,0.101
		c5,0.5,9.9,1,14.9,1.5c0.7,0.1,1.9,0.5,2.1-0.2c0.6-1.5,0.9-3.2,0.5-4.8c-0.2-1.2-1.5-0.5-2.3-0.8c-0.7-0.2-1.5-0.301-2.3-0.4
		c1-2.3,3.2-3.1,4.9-4.4c1.4-1.1,1.8-1.8,0.5-3.4c-3.8-5-7.8-9.9-11.2-15.2c1.8-1.2,3.5-2.3,5.2-3.5c0.7,0.2,1.1,0.8,1.5,1.3
		c3.4,4.7,7,9.3,10.3,14.1c1.1,1.6,1.8,1.5,3.3,0.5c1.7-1.3,3-3.4,5.6-3.2c1.5,0.1,2-0.6,1.5-2.2c-0.4-1.6-0.5-3.4-0.7-5.1
		c-0.7-5.5-1.8-10.9-2.2-16.4c2.1-0.9,4.3-1.5,6.5-1.7c0.2,4,0.3,7.9,0.6,11.9c0.2,3.3,0.5,6.5,0.7,9.8c0,0.6-0.1,1.3,0.9,1.3
		c1.3-0.1,2.6-0.2,3.9-0.3c0.8,0,1-0.5,1-1.2c0-0.7-0.1-1.4-0.1-2c-0.4-6.7-0.7-13.5-1.1-20.2c1.9-0.1,3.8-0.2,5.7-0.3
		c0.5,7.1,0.9,14.2,1.4,21.3c0,0.8,0,1.7,1.1,1.6c1.6-0.2,3.4,0.2,4.8-0.9c0.1-0.1,0-0.4,0-0.6c-0.2-2.1-0.4-4.2-0.5-6.3
		c-0.3-5.2-1-10.5-1-15.7c1.2-0.1,2.4-0.3,3.6-0.4c0.7,6,1.5,12,2.1,18.1c0.5,4.3,0.4,4.2,4.6,3.9c1.3-0.1,1.7-0.5,1.5-1.8
		c-0.4-2.8-0.8-5.7-1.1-8.5c-0.4-4.2-1.2-8.4-1.4-12.6c2.2,0.1,3.5-1.8,5.3-2.5c-0.1,5.2-0.8,10.3-1.2,15.5
		c-0.3,4.2-0.199,4.2,4,4.2c1.301,0,1.601-0.5,1.7-1.7c0.5-6.8,1.101-13.6,1.7-20.4c2.3,0,4.7-0.1,7-0.1c-0.1,1.1-0.6,2-1,2.9
		c-1.8,4.1-3.6,8.1-5.3,12.2c-1.3,3-1.2,2.9,1.7,4.4c1.8,0.9,2.6,0.6,3.3-1.2c2.6-6.1,5.3-12.1,8-18.2c3.1,0.1,6.2,0.2,9.3,0.3
		c-3.1,3.9-6.1,7.9-9.2,11.8c-2.399,3.1-2.399,3,0.7,5.5c1.1,0.9,1.7,0.9,2.6-0.3c4.5-5.7,9.2-11.4,13.801-17.1
		c1.1-0.1,1.699,0.4,2.1,1.4c1.3,3,2.7,5.9,4,8.9c-5.9,2.6-11.8,5.1-17.7,7.7c-3.399,1.5-3.3,1.5-2,5c0.7,1.7,1.3,1.7,2.8,1
		c6.101-2.7,12.2-5.2,18.301-7.8c0.1,0.8,0.199,1.6,0.199,2.4c-0.3,0.2-0.699,0.5-1,0.6c-5.199,2.2-10.399,4.5-15.6,6.7
		c-1,0.4-1.5,0.8-0.9,2c1.801,4,1.7,4,5.801,2.2c0.3-0.1,0.6-0.3,0.899-0.4c4.2-1.6,8.101-3.8,12.4-5.2c0.7,0.9,1.399,1.7,2.2,2.6
		c-4.301,1.3-8.601,2.7-12.9,4c-4.5,1.4-4,0.5-2.8,5.1c0.3,1.1,0.8,1.5,1.899,1.2c6-1.9,12.101-3.4,18-5.5
		c0.9,0.8,1.7,1.6,2.301,2.6c-4.101,0.6-8.2,1.1-12.301,1.7c-0.399,0-1,0.1-1.1,0.3c-0.5,1.7-0.1,3.4,0.4,5
		c0.3,0.9,1.6,0.4,2.399,0.3c4.101-0.5,8.101-1.3,12.2-1.5c0.1,4.4,0.1,8.8,0.2,13.2c-3.101-2.2-5.3-5.3-7.9-7.9
		c-2.399-2.4-2.3-2.4-4.8-0.1c-1.5,1.3-1.5,2.1-0.1,3.5c3.199,3.3,6.6,6.5,9.399,10.2C134.1,89,133.9,93.1,133.7,97.3
		c-0.101,0.9,0.2,2-1.101,2.3c-2.1-5-3.5-10.199-5.3-15.3c-1.3-3.6-1.2-3.6-4.899-2.5c-1.4,0.4-1.7,0.9-1.2,2.4
		c1.899,5.7,3.7,11.399,5.6,17.2c-2,0.6-4.1,1.199-6.1,1.8c-1.5-5.4-2.4-10.9-3.601-16.3c-0.8-3.4-0.699-3.301-4.199-2.7
		c-2,0.3-2.2,1-1.801,2.8c1.4,6.2,2.601,12.4,3.801,18.6c-4.4,2.2-9,3.9-14,4.5c0.1-0.5,0.199-0.899,0.3-1.399
		c1.8-6.101,3.6-12.2,5.6-18.2c0.4-1.3,0.101-1.9-1.2-2.1c-0.5-0.101-1.1-0.2-1.6-0.5c-1.9-0.9-2.6-0.101-3.1,1.699
		C98.8,96.8,96.5,103.9,94.3,111.1C91.8,111,89.4,110.9,86.9,110.9C89.6,105.8,92.9,101.1,96,96.3c1.9-3.2,1.9-3.1-1.1-5.1
		c-1.4-0.9-2.101-0.8-3,0.6c-3.9,6.3-8,12.601-12,18.9c-2.301-0.2-4.601,0.1-6.9-0.4c0.1-0.8,0.6-1.3,1-2
		c3.1-4.899,6.2-9.8,9.3-14.7C83.6,93.1,84.4,92.7,83.4,91.9C79.9,89,79.4,89,77,92.8c-0.4,0.601-0.8,1.3-1.2,1.9
		c-3.2,5-6.4,10-9.6,14.899c-3.2-0.399-6.5-0.899-9.7-1.3c0.2-0.8,0.7-1.3,1.1-2c2.6-3.7,5.1-7.399,7.7-11.1
		c2.4-3.5,2.4-3.4-1.2-5.8C63.1,88.8,62.6,88.8,62,89.8c-0.9,1.5-2,3-3,4.4c-3.2,4.399-6,9-9.4,13.2c-3.4-0.301-6.7-1.101-9.9-2.4
		c0.2-0.7,0.7-1,1.1-1.4c3.2-3.3,6.4-6.5,9.6-9.8c3.1-3.2,3-3.2-0.2-6.2c-0.9-0.8-1.4-0.8-2.1,0.101c-2.4,2.6-4.8,5.1-7.2,7.6
		C38.6,97.9,36,100.4,33.4,102.9z"/>
	<path fill="#81807E" d="M17.9,49.8C21.4,55.1,25.3,60,29.1,65c1.2,1.6,0.9,2.3-0.5,3.4c-1.7,1.3-3.9,2-4.9,4.4
		c0.8,0.101,1.6,0.2,2.3,0.4c0.8,0.3,2-0.4,2.3,0.8c0.3,1.6,0,3.3-0.5,4.8c-0.2,0.7-1.4,0.3-2.1,0.2c-5-0.5-9.9-1-14.9-1.5
		c-1.1-0.1-2.2-0.1-3.3-0.1C7,76.8,6.2,77,5.6,76.9C4.7,76.8,3.3,77.1,3,75.9c-0.3-1.5-0.2-3.2,0.6-4.5c0.4-0.8,1.8-0.1,2.7-0.3
		c4.4,0.4,8.8,0.9,13.1,1.3c0-0.2,0.1-0.3,0.1-0.5c-4.6-3.4-9.1-6.8-13.7-10.2c-0.2-0.2-0.3-0.4-0.5-0.6c-3-2.6-3-2.5-0.6-5.7
		C5.5,54.5,6,54.1,7,55.1c0.4,0.4,1,0.6,1.6,0.9c2.7,2.7,5.9,4.8,8.9,7.1c1.9,1.5,3.8,2.9,5.7,4.4c0.1-0.1,0.3-0.3,0.4-0.4
		c-3.6-4.7-7.1-9.4-10.7-14c0-0.1,0-0.2,0-0.2c-0.6-1-2-2.4-1.7-2.8c0.8-1.2,2.2-2,3.4-2.9c0.6-0.5,1.1-0.3,1.6,0.3
		C16.6,48.3,17,49.2,17.9,49.8z"/>
	<path fill="#81807E" d="M42.4,35.4c0.4,5.5,1.5,10.9,2.2,16.4c0.2,1.7,0.3,3.4,0.7,5.1c0.4,1.6,0,2.3-1.5,2.2
		c-2.6-0.2-3.9,1.9-5.6,3.2c-1.5,1.1-2.2,1.2-3.3-0.5c-3.3-4.8-6.8-9.4-10.3-14.1c-0.4-0.5-0.7-1.2-1.5-1.3c0-0.3-0.1-0.5-0.1-0.8
		c-0.3-0.9-1.9-1.7-1.2-2.5c0.9-1.2,2.4-2,3.7-2.9c0.6-0.4,0.8,0.2,1.1,0.5c0.7,0.7,1,1.8,2,2.2c1.4,2.9,3.6,5.2,5.4,7.9
		c1.6,2.3,3.3,4.5,5,6.8c0.2-2.3-0.1-4.5-0.5-6.6c-0.7-4.2-1-8.5-2-12.7c0-1.2-0.5-2.7,0-3.5c0.6-0.8,2.3-0.4,3.5-0.8
		C41.7,33.4,42,34.4,42.4,35.4z"/>
	<path fill="#81807E" d="M94.6,111.2c2.2-7.2,4.5-14.3,6.601-21.5c0.5-1.8,1.2-2.601,3.1-1.7c0.5,0.2,1,0.3,1.601,0.5
		c1.3,0.2,1.6,0.8,1.199,2.1c-1.899,6-3.699,12.101-5.6,18.2c-0.1,0.4-0.2,0.9-0.3,1.4c-0.2,0.5-0.5,0.899-0.7,1.399
		c-0.4,1.2-0.4,3.101-1.2,3.2c-1.399,0.2-3-0.5-4.5-1.1C93.4,113.2,94.8,112.1,94.6,111.2z"/>
	<path fill="#81817D" d="M75.7,30.6C75.8,34.8,76.6,39,77.1,43.2c0.301,2.8,0.7,5.7,1.101,8.5c0.2,1.2-0.3,1.7-1.5,1.8
		c-4.3,0.4-4.2,0.4-4.6-3.9c-0.6-6-1.4-12-2.1-18.1c0.3-0.9-0.9-2.2,0.1-2.6c1.5-0.6,3.3-0.8,5-0.7C75.7,28.3,75,30,75.7,30.6z"/>
	<path fill="#81817D" d="M66.3,31.9c-0.1,5.3,0.7,10.5,0.9,15.7c0.1,2.1,0.3,4.2,0.5,6.3c0,0.2,0.1,0.5,0,0.6
		c-1.4,1.1-3.2,0.6-4.8,0.9c-1.1,0.2-1-0.8-1.1-1.6c-0.5-7.1-0.9-14.2-1.4-21.3c0.3-0.9-0.8-2.2,1.1-2.5
		C64.7,29.6,65.5,29.9,66.3,31.9z"/>
	<path fill="#81817D" d="M87.3,25.7c-0.6,6.8-1.2,13.6-1.7,20.4c-0.1,1.2-0.3,1.7-1.699,1.7c-4.2,0-4.301,0-4-4.2
		c0.3-5.2,1.1-10.3,1.199-15.5c0.7-1.1,0.4-2.4,0.4-3.6c0-2,0.8-2.6,2.7-2c0.1,0,0.1,0.1,0.2,0C86.8,22.2,87.7,23.3,87.3,25.7z"/>
	<path fill="#81817D" d="M8.2,78.9C15.6,79.6,23,80.3,30.4,81c1,0.1,1.4,0.4,1.4,1.5c0,4.5-0.1,4.5-4.5,4C22.1,86,17,85.6,11.9,85.2
		c-1.2-0.4-2.5-0.5-3.8-0.4C6.4,84.9,6,84,6.2,82.5c0.1-0.8,0.3-1.6,0.3-2.4C6.6,78.9,7.3,78.9,8.2,78.9z"/>
	<path fill="#81817D" d="M66.4,109.8c3.2-5,6.4-10,9.6-14.899c0.4-0.601,0.8-1.301,1.2-1.9c2.399-3.8,2.899-3.8,6.399-0.9
		c0.9,0.801,0.2,1.2-0.1,1.7c-3.1,4.9-6.2,9.8-9.3,14.7c-0.4,0.6-0.9,1.2-1,2c-0.3,0.3-0.601,0.6-0.8,0.9
		c-0.7,0.699-0.9,2.399-2,2.199c-1.5-0.3-2.8-1.5-4-2.5C66.2,110.8,66.4,110.2,66.4,109.8z"/>
	<path fill="#81817D" d="M54.7,32.9c0.4,6.7,0.7,13.5,1.1,20.2c0,0.7,0.1,1.4,0.1,2c0,0.7-0.2,1.2-1,1.2c-1.3,0.1-2.6,0.2-3.9,0.3
		c-1,0.1-0.8-0.7-0.9-1.3c-0.2-3.3-0.5-6.5-0.7-9.8c-0.2-4-0.4-7.9-0.6-11.9c0.3-0.9-0.7-2.6,1.1-2.4C51.6,31.6,54.1,29.5,54.7,32.9
		z"/>
	<path fill="#81817D" d="M101,25.7c-2.7,6.1-5.4,12.1-8,18.2c-0.8,1.9-1.6,2.1-3.3,1.2c-2.9-1.5-3-1.4-1.7-4.4
		c1.7-4.1,3.5-8.1,5.3-12.2c0.4-0.9,0.9-1.8,1-2.9c1-0.9,1.2-2.2,1.7-3.4c0.5-1.3,1.1-2,2.5-1c0.2,0.1,0.4,0.2,0.6,0.2
		C101.8,22.7,101.8,22.7,101,25.7z"/>
	<path fill="#81807E" d="M49.8,107.5c3.4-4.2,6.2-8.8,9.4-13.2c1-1.399,2.1-2.899,3-4.399c0.6-1,1.2-1,2.1-0.4
		c3.6,2.4,3.6,2.3,1.2,5.8c-2.6,3.7-5.1,7.4-7.7,11.101c-0.4,0.6-0.9,1.199-1.1,2c-1.2,0.8-1.8,2.199-2.6,3.3c-0.5,0.8-1,1-1.8,0.3
		c-0.4-0.3-0.9-0.7-1.3-0.9C49.2,110.4,48.5,109.3,49.8,107.5z"/>
	<path fill="#81807E" d="M80.2,110.8c4-6.3,8-12.6,12-18.899c0.899-1.5,1.6-1.601,3-0.601c3,2,3,1.9,1.1,5.101
		c-3,4.899-6.3,9.6-9.1,14.6c-0.4,0.4-0.7,0.8-1.101,1.2c-0.6,0.7-0.699,2.1-1.899,2.1C83.1,114.3,80.4,111.8,80.2,110.8z"/>
	<path fill="#81817D" d="M125.6,42.1c-6.1,2.6-12.199,5.1-18.3,7.8c-1.5,0.7-2.2,0.7-2.8-1c-1.3-3.5-1.5-3.5,2-5
		c5.9-2.6,11.8-5.1,17.7-7.7c0.8,0,1.7-1.1,2.399-0.1c0.801,1.3,1.7,2.8,1.601,4.3C128.1,41.4,126.4,41.3,125.6,42.1z"/>
	<path fill="#81817D" d="M16.1,91.3C23,89.9,30,88.5,36.9,87.1c1.2-0.199,1.5,0,1.8,1.2c1,4.101,1,4.101-3,5
		c-4.2,0.9-8.4,1.7-12.6,2.601c-0.7,0.1-1.4,0.1-1.8,0.8c-1.5-0.601-2.9,0.2-4.4,0.399C15.4,97.4,14.3,97.4,14.3,95.4
		c0-0.301-0.1-0.5-0.2-0.801C13.4,92.6,13.8,91.3,16.1,91.3z"/>
	<path fill="#81807E" d="M33.4,102.9c2.6-2.601,5.2-5.101,7.7-7.7c2.5-2.5,4.9-5,7.2-7.601c0.8-0.8,1.2-0.899,2.1-0.1
		c3.2,3,3.3,3,0.2,6.2c-3.2,3.3-6.4,6.6-9.6,9.8c-0.4,0.4-1,0.8-1.1,1.4c-1.3,0.6-2,1.8-3,2.699c-0.7,0.7-1.3,0.9-2,0.101
		c-0.2-0.3-0.5-0.601-0.9-0.9C32.3,105.9,31.6,104.6,33.4,102.9z"/>
	<path fill="#81807E" d="M118.1,25.9c-4.6,5.7-9.199,11.3-13.8,17.1c-0.899,1.2-1.399,1.2-2.6,0.3c-3.101-2.5-3.101-2.5-0.7-5.5
		c3.1-3.9,6.2-7.9,9.2-11.8c1.399-1.1,2.3-2.6,3.399-4c0.601-0.7,1-0.9,1.801-0.2c0.699,0.7,1.399,1.3,2.199,1.8
		C118.9,24.2,118.8,24.9,118.1,25.9z"/>
	<path fill="#81817D" d="M115.2,105.7c-1.3-6.2-2.4-12.4-3.8-18.601c-0.4-1.8-0.2-2.6,1.8-2.8c3.5-0.5,3.399-0.6,4.2,2.7
		c1.199,5.4,2.1,10.9,3.6,16.3c-0.2,0.8,0.5,2.101-0.8,2.2C118.5,105.6,116.9,107.3,115.2,105.7z"/>
	<path fill="#81807E" d="M127,101.5c-1.8-5.7-3.6-11.5-5.6-17.2c-0.5-1.5-0.2-1.899,1.199-2.399c3.7-1.101,3.601-1.2,4.9,2.5
		c1.8,5.1,3.2,10.3,5.3,15.3c0.3,2.399,0.2,2.3-3.7,3.6C127.2,103.9,127.8,102,127,101.5z"/>
	<path fill="#81817D" d="M127.5,50.5c-4.3,1.3-8.3,3.5-12.4,5.2c-0.3,0.1-0.6,0.3-0.899,0.4c-4.101,1.8-4,1.8-5.8-2.2
		c-0.601-1.3-0.101-1.6,0.899-2c5.2-2.2,10.4-4.5,15.601-6.7c0.399-0.2,0.699-0.4,1-0.6c1.1-0.4,1.899-0.2,2.1,1.1
		c0.1,0.3,0.2,0.7,0.4,0.9C129.6,48.2,129.6,49.6,127.5,50.5z"/>
	<path fill="#81817D" d="M133.9,57.8c-5.9,2.1-12,3.6-18,5.5c-1.101,0.3-1.601,0-1.9-1.2c-1.2-4.7-1.8-3.8,2.8-5.1
		c4.3-1.3,8.601-2.6,12.9-4c2.8-0.3,2.8-0.3,3.6,2.6C133.4,56.4,133.7,57.1,133.9,57.8z"/>
	<path fill="#81817D" d="M134.6,85.1C131.8,81.4,128.4,78.3,125.2,74.9c-1.4-1.4-1.4-2.2,0.1-3.5c2.5-2.3,2.4-2.3,4.8,0.1
		c2.601,2.7,4.801,5.7,7.9,7.9c1.4,2.899,1.4,2.899-1.2,5.399C136,85.5,135.4,85.6,134.6,85.1z"/>
	<path fill="#ECC41C" d="M36.7,38.3c1,4.2,1.3,8.4,2,12.7c0.4,2.1,0.6,4.2,0.5,6.6c-1.7-2.3-3.4-4.5-5-6.8c-1.8-2.6-4.1-4.9-5.4-7.9
		C31.3,41.3,34,39.8,36.7,38.3z"/>
	<path fill="#81817D" d="M137.8,66.2c-4.1,0.2-8.1,1-12.2,1.5c-0.8,0.1-2.1,0.6-2.399-0.3c-0.5-1.6-1-3.3-0.4-5
		c0.101-0.2,0.7-0.3,1.101-0.3c4.1-0.6,8.199-1.1,12.3-1.7c1,0,2.3-0.3,2.2,1.2C138.3,63.2,140.1,65,137.8,66.2z"/>
	<path fill="#ECC41C" d="M5.8,61.7c4.6,3.4,9.1,6.8,13.7,10.2c0,0.2-0.1,0.3-0.1,0.5C15,72,10.6,71.6,6.3,71.2
		C6.1,68,6,64.9,5.8,61.7z"/>
	<path fill="#ECC41C" d="M12.8,53.1c3.6,4.7,7.2,9.4,10.7,14c-0.1,0.1-0.3,0.3-0.4,0.4c-1.9-1.4-3.9-2.8-5.7-4.3
		c-3-2.4-6.2-4.4-8.9-7.1C9.9,55,11.4,54,12.8,53.1z"/>
</g>
</svg>
