<?xml version="1.0" encoding="UTF-8" standalone="no"?>
<!-- Generator: Adobe Illustrator 16.0.0, SVG Export Plug-In . SVG Version: 6.00 Build 0)  -->

<svg
   version="1.1"
   id="_x35_0m"
   x="0px"
   y="0px"
   width="144px"
   height="144px"
   viewBox="0 0 144 144"
   enable-background="new 0 0 144 144"
   xml:space="preserve"
   sodipodi:docname="bivouac.svg"
   inkscape:version="1.2.1 (9c6d41e410, 2022-07-14)"
   xmlns:inkscape="http://www.inkscape.org/namespaces/inkscape"
   xmlns:sodipodi="http://sodipodi.sourceforge.net/DTD/sodipodi-0.dtd"
   xmlns="http://www.w3.org/2000/svg"
   xmlns:svg="http://www.w3.org/2000/svg"><defs
   id="defs946" /><sodipodi:namedview
   id="namedview944"
   pagecolor="#ffffff"
   bordercolor="#000000"
   borderopacity="0.25"
   inkscape:showpageshadow="2"
   inkscape:pageopacity="0.0"
   inkscape:pagecheckerboard="0"
   inkscape:deskcolor="#d1d1d1"
   showgrid="false"
   inkscape:zoom="5.4722222"
   inkscape:cx="54.639594"
   inkscape:cy="72"
   inkscape:window-width="1920"
   inkscape:window-height="986"
   inkscape:window-x="-11"
   inkscape:window-y="-11"
   inkscape:window-maximized="1"
   inkscape:current-layer="_x35_0m" />
<g
   id="g941">
	<path
   fill="#010101"
   d="M72,144c-9.7,0-19.2-1.9-28-5.7c-8.6-3.6-16.3-8.8-22.9-15.399C14.5,116.3,9.3,108.6,5.7,100   C1.9,91.2,0,81.7,0,72s1.9-19.2,5.7-28c3.6-8.6,8.8-16.3,15.4-22.9S35.4,9.3,44,5.7C52.8,1.9,62.3,0,72,0s19.2,1.9,28,5.7   c8.6,3.6,16.3,8.8,22.9,15.4c6.6,6.6,11.8,14.3,15.399,22.9c3.8,8.9,5.7,18.3,5.7,28s-1.9,19.2-5.7,28   c-3.6,8.6-8.8,16.3-15.399,22.9C116.3,129.5,108.6,134.7,100,138.3C91.2,142.1,81.7,144,72,144z"
   id="path933" />
	<path
   fill="#FFFFFF"
   d="M72,10.3c-16.5,0-32,6.4-43.7,18.1c-11.7,11.7-18,27.1-18,43.6s6.4,32,18.1,43.7   c11.7,11.7,27.2,18.1,43.7,18.1c16.5,0,32-6.399,43.7-18.1S133.9,88.5,133.9,72.1s-6.4-32-18.101-43.7   C104.1,16.7,88.5,10.3,72,10.3z"
   id="path935" />
	<g
   id="g939">
		<path
   fill="#010101"
   d="M 74.288171,100.27525 H 48.682451 V 43.724748 H 76.1405 c 6.864512,0.10896 11.767736,2.07025 14.709669,5.992828 1.743369,2.397131 2.613963,5.230105 2.613963,8.607881 0,3.486736 -0.871684,6.210749 -2.613963,8.280999 -0.980645,1.198565 -2.397131,2.28817 -4.24946,3.159854 2.941934,1.089605 5.121144,2.724013 6.537631,5.012184 1.416486,2.288171 2.17921,5.012183 2.17921,8.280999 0,3.378865 -0.871684,6.320799 -2.506092,9.044811 -1.089605,1.743369 -2.397131,3.268818 -4.031539,4.467379 -1.852328,1.416489 -3.922578,2.288179 -6.42867,2.832979 -2.506091,0.54371 -5.230105,0.870588 -8.063078,0.870588 z m 5.556987,-35.630084 c 1.525447,-0.871684 2.289259,-2.615052 2.289259,-4.903223 0,-2.615052 -0.980643,-4.35842 -3.051983,-5.230105 -1.743368,-0.544802 -4.03045,-0.871683 -6.754462,-0.871683 H 59.905383 v 12.421498 h 13.837985 c 2.506092,0 4.576342,-0.544803 6.10179,-1.416487 z M 73.96129,75.432256 H 59.905383 v 15.036551 h 13.837985 c 2.506092,0 4.35842,-0.327971 5.774908,-0.980645 2.506091,-1.198565 3.704657,-3.595697 3.704657,-7.082433 0,-2.941933 -1.199656,-5.012183 -3.596787,-6.101788 -1.306437,-0.544802 -3.158765,-0.871685 -5.664856,-0.871685 z"
   id="path937"
   inkscape:label="path937"
   style="stroke-width:1.0896" />
	</g>
</g>
</svg>
