<?xml version="1.0" encoding="UTF-8" standalone="no"?>
<!-- Generator: Adobe Illustrator 16.0.0, SVG Export Plug-In . SVG Version: 6.00 Build 0)  -->

<svg
   version="1.1"
   id="_x35_0m"
   x="0px"
   y="0px"
   width="144px"
   height="144px"
   viewBox="0 0 144 144"
   enable-background="new 0 0 144 144"
   xml:space="preserve"
   sodipodi:docname="broken_dune_left.svg"
   inkscape:version="1.2.1 (9c6d41e410, 2022-07-14)"
   xmlns:inkscape="http://www.inkscape.org/namespaces/inkscape"
   xmlns:sodipodi="http://sodipodi.sourceforge.net/DTD/sodipodi-0.dtd"
   xmlns="http://www.w3.org/2000/svg"
   xmlns:svg="http://www.w3.org/2000/svg"><defs
   id="defs10" /><sodipodi:namedview
   id="namedview8"
   pagecolor="#ffffff"
   bordercolor="#000000"
   borderopacity="0.25"
   inkscape:showpageshadow="2"
   inkscape:pageopacity="0.0"
   inkscape:pagecheckerboard="0"
   inkscape:deskcolor="#d1d1d1"
   showgrid="false"
   inkscape:zoom="5.4722222"
   inkscape:cx="51.807107"
   inkscape:cy="72"
   inkscape:window-width="1920"
   inkscape:window-height="986"
   inkscape:window-x="-11"
   inkscape:window-y="-11"
   inkscape:window-maximized="1"
   inkscape:current-layer="_x35_0m" />
<g
   id="g5">
	<path
   fill="#ED2024"
   d="M56.506,37.863L34.281,51.556l-0.834-1.402c-0.561-1.01-1.582-1.612-2.732-1.612   c-1.373,0-2.584,0.864-3.011,2.146l-3.702,11.005c-0.519,1.554,0.331,3.381,1.855,3.99l0.174,0.069l11.375,2.234   c0.216,0.043,0.426,0.063,0.629,0.063c1.131,0,2.178-0.621,2.732-1.621c0.553-0.996,0.525-2.208-0.031-3.095l-1.037-1.815   l13.794-8.438l16.108,21.444l9.196-6.898L56.506,37.863z"
   id="path2"
   style="fill:#000000;fill-opacity:1" />
	<path
   id="path891"
   fill="#CE925B"
   d="M0,106.137c3.299-21.8,34-38.8,71.299-38.8c37.301,0,68.001,17,71.301,38.7H0V106.137z" />
</g>
</svg>
