<?xml version="1.0" encoding="UTF-8" standalone="no"?>
<!-- Generator: Adobe Illustrator 16.0.0, SVG Export Plug-In . SVG Version: 6.00 Build 0)  -->

<svg
   version="1.1"
   id="_x35_0m"
   x="0px"
   y="0px"
   width="144px"
   height="144px"
   viewBox="0 0 144 144"
   enable-background="new 0 0 144 144"
   xml:space="preserve"
   sodipodi:docname="broken_dune_right.svg"
   inkscape:version="1.2.1 (9c6d41e410, 2022-07-14)"
   xmlns:inkscape="http://www.inkscape.org/namespaces/inkscape"
   xmlns:sodipodi="http://sodipodi.sourceforge.net/DTD/sodipodi-0.dtd"
   xmlns="http://www.w3.org/2000/svg"
   xmlns:svg="http://www.w3.org/2000/svg"><defs
   id="defs11" /><sodipodi:namedview
   id="namedview9"
   pagecolor="#ffffff"
   bordercolor="#000000"
   borderopacity="0.25"
   inkscape:showpageshadow="2"
   inkscape:pageopacity="0.0"
   inkscape:pagecheckerboard="0"
   inkscape:deskcolor="#d1d1d1"
   showgrid="false"
   inkscape:zoom="5.4722222"
   inkscape:cx="51.807107"
   inkscape:cy="72"
   inkscape:window-width="1920"
   inkscape:window-height="986"
   inkscape:window-x="-11"
   inkscape:window-y="-11"
   inkscape:window-maximized="1"
   inkscape:current-layer="_x35_0m" />
<g
   id="g6">
	<path
   fill="#ED2024"
   d="M118.695,61.687l-3.698-10.995c-0.429-1.286-1.64-2.15-3.013-2.15c-1.15,0-2.172,0.603-2.704,1.562   l-0.862,1.452L86.194,37.863L63.901,67.625l9.197,6.898l16.108-21.444l13.794,8.438l-0.997,1.747   c-0.597,0.954-0.624,2.166-0.071,3.163c0.554,0.999,1.601,1.62,2.73,1.62c0.001,0,0.001,0,0.001,0c0.203,0,0.413-0.02,0.622-0.062   l11.382-2.235l0.174-0.069C118.366,65.072,119.216,63.245,118.695,61.687z"
   id="path2"
   style="fill:#000000;fill-opacity:1" />
	<path
   fill="#CE925B"
   d="M142.7,106.137c-3.3-21.8-34-38.8-71.3-38.8c-37.301,0-68,17-71.301,38.7H142.7V106.137z"
   id="path4" />
</g>
</svg>
