<?xml version="1.0" encoding="utf-8"?>
<!-- Generator: Adobe Illustrator 16.0.0, SVG Export Plug-In . SVG Version: 6.00 Build 0)  -->
<!DOCTYPE svg PUBLIC "-//W3C//DTD SVG 1.1//EN" "http://www.w3.org/Graphics/SVG/1.1/DTD/svg11.dtd">
<svg version="1.1" id="_x35_0m" xmlns="http://www.w3.org/2000/svg" xmlns:xlink="http://www.w3.org/1999/xlink" x="0px" y="0px"
	 width="144px" height="144px" viewBox="0 0 144 144" enable-background="new 0 0 144 144" xml:space="preserve">
<path fill="#010101" d="M72.9,140.206c-0.4,0-0.7,0-1.101-0.1c-6.3-0.7-12-3.5-17.1-6c-0.8-0.4-1.6-0.801-2.4-1.2
	c-3.5-1.7-5.7-4.601-6.5-8c-1.1,1.6-2.6,3.1-4.5,4.399c-0.5,0.301-1.1,0.9-1.7,1.5c-2.4,2.2-6.8,6.4-13.5,4.9
	c-6.9-1.5-15.6-3.4-21.8-10.6c-2-2.301-2.8-4.9-3.5-7.101c-0.2-0.6-0.4-1.2-0.6-1.7c-0.4-0.899-0.5-1.899-0.5-2.899
	c1.1-15.2,13.3-27.601,27.9-28.7c-4-3.4-6-8.3-5.8-14.1c0.5-16,13.5-28.5,29.8-28.5h0.1c1.7,0,3.2,0.2,4.5,0.5
	c-2.3-3.9-2.9-8.8-1.8-14.8c2.5-13.9,15.4-24.4,29.4-24c7.101,0.2,12.5,3.3,15,8.8c1.8,3.8,3.2,7.8,4.5,11.6
	c0.5,1.5,1.101,3,1.601,4.5c0.6,1.7,0.5,3.7-0.301,5.3c-0.199,0.4-0.399,0.7-0.6,1c-0.7,4.4-2.9,8.1-6.6,11.3l-2,1.7
	c-0.2,0.1-0.301,0.3-0.5,0.4c8.699-1.3,15.699,2.8,19.3,11.4c1.399,3.4,2.2,6.7,3,10c0.3,1.3,0.6,2.6,1,3.9c0.2,0.9,0.3,1.8,0.2,2.7
	c-0.4,3.6-1.5,6.7-3.101,9.3c2.5-0.7,5.2-1,7.8-1l0,0c1.5,0,2.9,0.3,4,0.5c0.301,0.1,0.601,0.1,0.9,0.2c8.4,1.5,13.4,11.5,15.1,19.7
	c2,9.699-0.1,17.8-5.6,21.6l-0.1,0.1c-0.301,0.301-0.9,0.801-1.601,1.301c-0.8,0.5-1.7,1.3-2.7,2.1c-3.199,2.7-7.199,6-12.3,5.5
	c-6.399-0.5-12.3-3.5-17.6-6l-1.8-0.9c-3-1.5-5.301-3.8-6.601-6.899c-1.3,4.399-3.7,7.8-7.3,10.399c-0.1,0-0.1,0.101-0.1,0.101
	c-0.2,0.1-0.301,0.2-0.5,0.399c-0.801,0.5-1.7,1.301-2.7,2.101C81.2,137.206,77.5,140.206,72.9,140.206z M87,132.606L87,132.606
	L87,132.606z M87.1,132.505C87,132.505,87,132.606,87.1,132.505C87,132.606,87,132.505,87.1,132.505z M87.8,132.005L87.8,132.005
	L87.8,132.005z M72.2,126.706L72.2,126.706L72.2,126.706z M73.3,126.606L73.3,126.606L73.3,126.606z M59.6,121.305
	c0.4,0.2,0.8,0.4,1.2,0.601c4.1,2.1,8.1,4,11.7,4.6c0.8-0.5,2.1-1.5,3-2.3c1.1-0.9,2.3-1.9,3.6-2.8c0.2-0.101,0.301-0.3,0.5-0.4
	c1.2-0.899,2-1.899,2.5-4.3c-0.3-1-0.6-2-0.899-3c-0.9-3.1-1.7-6-3-8.5c-1-2.1-4.2-2.2-5.101-2.1c-4.6,0.199-8.2,2.699-10.399,4.699
	c-2,1.801-1.9,2.601-1.8,3.4C61.2,114.406,60.8,118.005,59.6,121.305z M29.1,122.406L29.1,122.406L29.1,122.406z M13.7,113.005
	c0.1,0.4,0.2,0.7,0.3,1.101c0.2,0.8,0.6,1.899,0.8,2.199c3.1,3.601,8.3,4.801,13.9,6c0.4-0.3,1.1-1,1.6-1.399
	c0.9-0.9,1.9-1.8,3.2-2.7c1.5-1,1.4-1.4,1.4-1.9c-0.2-2.5,0.2-5.199,1.1-7.6c0.9-2.6,0.3-4.8-2.5-9c-0.3-0.4-0.9-1.4-3.3-1.4
	c-0.1,0-0.2,0-0.3,0C21.9,98.305,14.8,104.805,13.7,113.005z M122,122.005L122,122.005L122,122.005z M123,98.305c-4,0-8,1.7-11,4.7
	s-4.8,6.9-4.8,10.7c0,0.1,0,0.2,0,0.2c-0.101,1.6,0.2,2.399,0.399,2.5l1.9,0.899c4.1,2,8.3,4.101,12,4.601c0.8-0.5,2.1-1.601,3-2.3
	c1.2-1,2.4-2,3.7-2.9l0.1-0.1c0.3-0.301,0.8-0.801,1.5-1.2c0.4-0.7,1-3.5,0.101-7.9c-1.101-5-3.301-8.2-4.2-8.8
	c-0.4-0.1-0.8-0.2-1.2-0.2c-0.4-0.1-1-0.2-1.2-0.2S123,98.305,123,98.305z M129.6,115.505L129.6,115.505L129.6,115.505z
	 M129.8,115.305L129.8,115.305L129.8,115.305z M100.3,113.606L100.3,113.606L100.3,113.606z M90.3,98.906
	c0.101,0.1,0.101,0.2,0.2,0.3c1.5,3.2,2.5,6.4,3.5,9.6c0.7-3.399,1.9-6.699,3.8-9.699C95.3,99.606,92.9,99.606,90.3,98.906z
	 M45,92.305c1.4,2,3.6,5.5,4.6,10c1.4-2.3,3-3.8,3.8-4.6c5.5-5.1,12-8,18.8-8.4c-2.2-2.199-3.6-4.899-4.2-8
	c-3.2,4.301-7.9,7.4-11.8,9.9C52.6,93.706,48.4,93.206,45,92.305z M98.3,61.706c-0.5,0-1.1,0.1-1.7,0.2
	c-3.399,0.7-7.1,2.3-10.699,4.5c-2.4,1.5-3.5,4.1-4.4,10.399c-0.4,3,0.7,3.4,1.8,3.801c2.2,0.8,4.4,1.899,6.9,3.399
	c4.2,2.5,4.2,2.5,7.7-0.399c0.699-0.601,1.399-1.101,2.1-1.7c0.9-0.7,1.8-1.5,2.7-2.2c0.899-0.7,1.6-1.7,2.1-3.8
	c-0.2-0.9-0.5-1.9-0.7-2.8c-0.699-2.9-1.399-5.601-2.399-8.101C100.7,62.406,99.7,61.706,98.3,61.706z M51.5,55.706
	c-8.9,0-15.8,6.6-16.1,15.3l0,0c-0.1,2.4,0.7,3.3,2.2,4c3.3,1.7,6.1,2.8,8.7,3.5c0.7,0.2,2.3,0.601,3.3,0.8
	c3.4-2.199,7.1-4.8,8.2-7.2c2.4-5.4-0.2-11.2-2.9-15.1C54.4,56.406,53.7,55.706,51.5,55.706C51.6,55.706,51.6,55.706,51.5,55.706z
	 M28.6,70.806L28.6,70.806L28.6,70.806z M67.1,50.906c2.3,3.7,3.8,7.4,4.6,11.1c1.5-2.6,3.7-5.2,6.8-7.1c-2.5-0.6-5.5-1.7-9.5-3.3
	L67.1,50.906z M83.1,17.406c-7,0-14,5.8-15.3,12.7c-1,5.3-0.2,6.2,3.7,7.8l2.6,1c3.2,1.3,6.5,2.6,7.4,2.6l0,0c0.6-0.2,2.8-2.2,5-4.1
	l2-1.7c1.5-1.3,2.1-2.5,2-4.4c0-0.6,0-1.2,0.2-1.7c-0.101-0.4-0.3-0.8-0.4-1.2c-1.3-3.6-2.5-7.1-4-10.3c-0.3-0.6-1.8-0.9-3-0.9
	C83.3,17.406,83.2,17.406,83.1,17.406z"/>
<path fill="#ADADAD" d="M97.5,31.342c0.4-0.1,0.7-0.2,1-0.4c-1.9-5.2-3.5-10.5-5.9-15.5c-1.6-3.5-5.3-4.7-9-4.8
	c-10.6-0.3-20.6,7.9-22.5,18.3c-1.5,7.9,0.4,12.3,7.9,15.3c14.8,5.9,13,6.2,24-3.2C96.1,38.442,97.6,35.342,97.5,31.342z
	 M28.6,70.842c-0.2,4.7,1.8,8.3,5.9,10.3c3.2,1.6,6.5,3,9.9,4c2.6,0.699,6.1,1.699,7.9,0.5c4.4-2.9,9.6-6.2,11.6-10.7
	c3.3-7.3,1.1-15-3.4-21.7c-2.1-3.1-5.1-4.4-8.9-4.4C39.1,48.842,29,58.442,28.6,70.842z M100.3,113.642
	c-0.2,3.699,0.9,7.3,4.2,8.899c5.4,2.7,11.2,5.8,17,6.3c3.3,0.301,7.1-4.199,10.6-6.6c0.5-0.4,0.9-0.9,1.5-1.2
	c7.601-5,1.601-27.5-6.6-29c-1.2-0.2-2.5-0.6-3.8-0.6C111.1,91.341,100.4,101.742,100.3,113.642z M111.8,75.542
	c-1.2-4.4-2.1-9-3.8-13.1c-2.5-5.9-6.6-8.4-12.8-7.1c-4.5,0.9-9,2.9-12.9,5.3c-5.399,3.4-6.7,9.2-7.6,15.2
	c-0.7,5.301,1.3,9.301,6.2,11.101c2,0.7,4,1.8,5.8,2.899c6.5,3.9,9.6,3.801,15.5-0.899c1.6-1.3,3.1-2.601,4.8-3.9
	C110,82.642,111.3,79.542,111.8,75.542z M6.7,113.841c0.9,2.301,1.3,5.101,2.9,6.9c4.7,5.4,11.5,7,18.1,8.4c4.3,1,6.6-3.2,9.7-5.301
	c2.7-2,4.5-4.3,4.3-7.899c-0.1-1.601,0.2-3.4,0.7-4.9c2.1-5.7-0.2-10.5-3.2-15.1c-2.1-3.101-5.3-4.4-8.9-4.5
	C17.9,91.242,7.5,101.442,6.7,113.841z M89,116.242c-1.5-4.7-2.6-9.6-4.7-14c-2.2-4.5-7-6.2-11.6-6c-5.5,0.2-10.6,2.7-14.8,6.5
	c-2.6,2.4-4.3,5.1-3.9,9c0.3,2.6-0.2,5.4-1.1,7.9c-1.3,3.3-0.3,5.899,2.4,7.1c5.6,2.7,11.3,6,17.2,6.6c3.3,0.4,7.1-4.1,10.6-6.5
	c0.101-0.1,0.2-0.199,0.301-0.199C87,124.242,88.6,120.742,89,116.242z"/>
</svg>
