<?xml version="1.0" encoding="utf-8"?>
<!-- Generator: Adobe Illustrator 16.0.0, SVG Export Plug-In . SVG Version: 6.00 Build 0)  -->
<!DOCTYPE svg PUBLIC "-//W3C//DTD SVG 1.1//EN" "http://www.w3.org/Graphics/SVG/1.1/DTD/svg11.dtd">
<svg version="1.1" id="_x35_0m" xmlns="http://www.w3.org/2000/svg" xmlns:xlink="http://www.w3.org/1999/xlink" x="0px" y="0px"
	 width="144px" height="144px" viewBox="0 0 144 144" enable-background="new 0 0 144 144" xml:space="preserve">
<path fill="#010101" d="M143.3,115.5c-0.899-14-4.3-25.101-9-34h0.5l7.8-29h-6.3l-4.8,20h-0.1l-5-20h-6l-2.4,9.3
	c-2.1-1.7-4.2-3.2-6.3-4.6l-1.101-4.7H104.2l0.2,0.6c-6.2-3-12.2-4.9-17.5-6.1L92,28.1h-6L81.8,46c-0.399-0.1-0.8-0.2-1.2-0.2
	L76.2,28.1h-6l-4.5,17.5c-0.4,0.1-0.8,0.1-1.1,0.2l-4.1-17.7h-6.4L59,46.8C48,49.2,39.1,53,32,57.7l-0.9-3.6h-6l-2.9,11.3
	c-1.2,1.2-2.3,2.3-3.4,3.5l-3.4-14.8H9.1l5.4,20.3c-2.1,2.9-3.8,5.8-5.3,8.6c-8.6,16.5-8.5,32-8.5,32.6h4.8c0-0.1,0-15.1,8.1-30.6
	c0.8-1.5,1.7-3,2.6-4.5l0.7,2.6h6.5l3.9-15.8c0.5-0.5,1.1-1,1.7-1.5l4,17.4h6.3l7.5-27.8c4.2-1.6,8.6-3,13.4-3.9l1.5,5.7h6.5L70,50
	c0.3,0,0.6-0.1,0.9-0.1c0.4,0,2.4,0,5.4,0.3l1.8,7H84.4l1.5-5.5c5.199,1.2,11.3,3,17.399,6.1c1,0.5,2,1.1,3,1.6l5.9,22.2h6.5
	l2.6-10.5c2.601,2.8,4.9,5.8,6.9,9l0.399,1.5h0.5c5.5,9.5,8.7,20.9,9.601,34.3L143.3,115.5z M36.2,74.2L36.2,74.2l-3-11.6
	c2.1-1.5,4.3-2.8,6.7-4L36.2,74.2z M71.2,45l1.899-7.6H73.2l1.899,7.8C73.2,45,71.9,45,71.2,45z M115.5,72.2l-1.9-8.1
	c1.2,0.9,2.301,1.8,3.4,2.7L115.5,72.2L115.5,72.2z M122.5,65.6l0.9-3.8h0.1l1.7,6.6C124.3,67.4,123.4,66.5,122.5,65.6z"/>
</svg>
