<?xml version="1.0" encoding="utf-8"?>
<!-- Generator: Adobe Illustrator 16.0.0, SVG Export Plug-In . SVG Version: 6.00 Build 0)  -->
<!DOCTYPE svg PUBLIC "-//W3C//DTD SVG 1.1//EN" "http://www.w3.org/Graphics/SVG/1.1/DTD/svg11.dtd">
<svg version="1.1" id="_x35_0m" xmlns="http://www.w3.org/2000/svg" xmlns:xlink="http://www.w3.org/1999/xlink" x="0px" y="0px"
	 width="144px" height="144px" viewBox="0 0 144 144" enable-background="new 0 0 144 144" xml:space="preserve">
<g>
	<path fill="#292A2A" d="M63.7,88.225c-5,0-10.6-1-16.5-3.7c-0.3-0.1-0.5-0.399-0.5-0.7c-0.9-4.199-0.9-8.5-0.9-13.2
		c0-9,0.1-19.2-6.2-32.4c-0.2-0.4-0.1-0.9,0.3-1.1c0.3-0.3,0.8-0.3,1.2,0c5.1,3.8,7.2,12.8,9.3,21.5c1.9,7.8,3.7,15.3,7.3,17.1
		c2-5.8,5.1-10.5,8.4-15.5c4.9-7.4,10.5-15.8,13.9-30.3c0.1-0.5,0.6-0.8,1.1-0.7s0.801,0.5,0.801,1c-0.101,0.8-1.601,19-7.9,31.8
		c-1.1,2.4-3.6,8.8-3.6,12.3c3.5-1.5,14.1-7.2,18.4-21.2c0.2-0.8,0.4-1.3,0.4-1.5c0.2-0.5,0.7-0.8,1.2-0.6
		c0.5,0.1,0.8,0.7,0.699,1.2c-0.1,0.5-0.3,0.9-0.399,1.4c-1.4,4.9-6,21.6-5.4,27.8c0,0.3-0.1,0.7-0.399,0.899
		C84.7,82.325,76,88.225,63.7,88.225z M48.5,82.925c17.3,7.8,32.1-0.3,34.8-2c-0.2-4.101,1.2-11.4,2.7-17.7
		c-6.6,10-15.8,13.1-16.3,13.3c-0.3,0.1-0.5,0.1-0.8-0.1c-0.2-0.1-0.4-0.3-0.5-0.6c-1-4.1,3.1-13.6,3.6-14.6c2.9-5.8,4.8-13,6-19
		c-3.2,8-7,13.8-10.5,19.1c-3.4,5.1-6.6,9.9-8.5,15.9c-0.2,0.5-0.7,0.8-1.1,0.6c-5.3-1.3-7.3-9.8-9.5-18.8
		c-1.2-4.9-2.4-9.9-4.1-13.9c3.3,9.9,3.3,18.1,3.2,25.5C47.7,75.025,47.7,79.125,48.5,82.925z"/>
	<path fill="#555655" d="M47.6,83.625c-2.6-11.9,2.5-25.5-7.1-45.8c9.8,7.4,8.5,36.8,17.7,39.1c4.8-14.9,16.899-22,22.7-46.7
		c0,0-1.5,18.7-7.801,31.4c0,0-4.5,10.1-3.6,14c0,0,15.5-5,20.6-23.7c0,0-6.5,22-5.8,29.6C84.2,81.425,67.6,93.025,47.6,83.625z"/>
	<path fill="#010101" d="M88,125.525c-1.7,0-3.1-0.1-4.2-0.2c-0.2,0-26.4-2.8-45.8-1.899c-0.1,0-0.3,0-0.4,0l-35.9-5.2
		c-0.9-0.1-1.5-0.8-1.6-1.6c-0.1-0.9,0.3-1.7,1.1-2l31.8-15c1.9-4.5,12.2-26.8,32.3-31.5c0.1,0,0.2,0,0.3,0
		c1.2-0.1,12.9,0.2,44.6,40.5l32.2,6.899c0.899,0.2,1.5,1,1.5,1.9c0,0.899-0.7,1.7-1.601,1.899
		C140.6,119.525,103.8,125.525,88,125.525z M46.6,119.325c18,0,37.4,2,37.6,2.101c8,1,32.8-2.3,47-4.4l-22.601-4.899
		c-0.399-0.101-0.8-0.301-1.1-0.7c-28.7-36.7-40.3-39.4-41.6-39.5c-19.7,4.7-29.5,29.5-29.6,29.7c-0.2,0.5-0.5,0.8-1,1.1l-26.6,12.5
		l29.3,4.3C40.8,119.425,43.7,119.325,46.6,119.325z M34.5,100.925L34.5,100.925L34.5,100.925z"/>
	<path fill="#8C8C8C" d="M65.7,69.925c0,0,11-0.9,43.399,40.399l32.9,7.101c0,0-46.2,7.5-57.9,6c0,0-26.3-2.8-46.2-1.9l-35.9-5.3
		l32.5-15.3C34.5,100.925,44.6,74.725,65.7,69.925z"/>
	<path fill="#292A2A" stroke="#292A2A" stroke-width="0.9697" stroke-miterlimit="10" d="M62.7,88.225c-5.2,0-10.6-0.9-15.7-3.5
		c-0.1-0.1-0.2-0.1-0.3-0.3c-0.4-0.5-9.2-11.6-10.3-19.8c-1-2.4-3.3-7.7-5.2-11.1c-1.1-1.5-1.8-2.5-1.9-2.6c-0.3-0.4-0.2-1,0.2-1.3
		c0.4-0.3,0.9-0.3,1.3,0.1c0.6,0.6,1.3,1.6,2,2.8c4.4,6.2,12,16.4,15.4,19.9c1.1-5.4,4.3-22.6,3.2-31.5c-0.4-3-1.9-11.3-3.8-13.3
		c-0.3-0.3-0.4-0.9,0-1.3c0.3-0.4,0.9-0.4,1.3-0.1c0.5,0.4,11.8,9.6,9.6,42.4c1.9-1.3,5.4-5.1,5.3-16.2c0-1.2,0.5-28.8,7.5-33.8
		c0.3-0.2,0.7-0.2,1.1,0c0.4,0.2,0.5,0.6,0.4,1c-2.8,15.9-5.9,40.7-3.1,46.5c2.3-1.7,9.5-7.7,17.2-21.9c0.8-1.6,1.5-2.8,1.699-3.3
		c0.2-0.5,0.801-0.6,1.301-0.4c0.5,0.2,0.6,0.8,0.399,1.3c-0.6,1.1-1.1,2.2-1.7,3.3c-4.199,8.4-10.899,23.2-9.899,28.5
		c3.2-1.3,13.6-6.2,16.8-15.7c0.2-0.5,0.6-0.7,1.1-0.6s0.801,0.5,0.801,1c-0.101,0.7-1.5,16.6-13.4,25.7c-0.1,0-0.1,0.101-0.2,0.101
		C82.9,84.225,73.6,88.225,62.7,88.225z M48,83.125c14.3,7.3,33-0.2,34.6-0.801c6.7-5.1,9.9-12.6,11.4-17.899
		c-5.7,7.8-15.3,11.1-15.8,11.3s-1-0.1-1.2-0.5c-1.5-3.2,0.8-10.7,3.7-17.9c-6.101,8.1-10.7,10.9-11,11.1c-0.4,0.2-0.9,0.1-1.2-0.2
		c-4.5-5.3-0.2-34.2,1.6-45.1c-3.5,7-4.5,23-4.6,29.5c0.2,17-7.7,18.6-8.1,18.7c-0.3,0.1-0.6,0-0.8-0.2c-0.2-0.2-0.3-0.5-0.3-0.8
		c1.4-18.4-1.5-29.4-4.3-35.6c0.7,2.9,1,5.6,1.1,6.2c1.3,10.9-3.4,32.8-3.6,33.8c-0.1,0.3-0.3,0.6-0.6,0.7c-0.3,0.1-0.6,0.1-0.9-0.1
		c-1.8-1.4-6.5-7.4-10.8-13c0.5,1.1,0.8,1.9,0.8,2s0.1,0.2,0.1,0.2C39.1,71.525,47,81.725,48,83.125z"/>
	<path fill="#555655" d="M47.4,83.925c0,0-9.2-11.4-10.1-19.4c0,0-4.5-11.2-7.3-14c0,0,15.1,21.3,18.7,23.9c0,0,4.9-22.6,3.5-33.4
		c0,0-1.5-11.2-4.1-13.8c0,0,11.8,9.2,9.2,43.2c0,0,7.5-1.3,7.3-17.7c0,0,0.4-28.2,7.1-33.1c0,0-7.5,42-2.4,48c0,0,9.9-5.8,20-26.2
		c0,0-14.399,27.1-11.399,33.4c0,0,14.399-4.9,18.3-16.6c0,0-1.3,16.1-13.101,25C83.1,83.125,62.9,91.925,47.4,83.925z"/>
</g>
</svg>
