<?xml version="1.0" encoding="UTF-8" standalone="no"?>
<!-- Generator: Adobe Illustrator 16.0.0, SVG Export Plug-In . SVG Version: 6.00 Build 0)  -->

<svg
   version="1.1"
   id="Layer_1"
   x="0px"
   y="0px"
   width="144px"
   height="144px"
   viewBox="0 0 144 144"
   enable-background="new 0 0 144 144"
   xml:space="preserve"
   sodipodi:docname="camp.svg"
   inkscape:version="1.2.1 (9c6d41e410, 2022-07-14)"
   xmlns:inkscape="http://www.inkscape.org/namespaces/inkscape"
   xmlns:sodipodi="http://sodipodi.sourceforge.net/DTD/sodipodi-0.dtd"
   xmlns="http://www.w3.org/2000/svg"
   xmlns:svg="http://www.w3.org/2000/svg"><defs
   id="defs1752" /><sodipodi:namedview
   id="namedview1750"
   pagecolor="#ffffff"
   bordercolor="#000000"
   borderopacity="0.25"
   inkscape:showpageshadow="2"
   inkscape:pageopacity="0.0"
   inkscape:pagecheckerboard="0"
   inkscape:deskcolor="#d1d1d1"
   showgrid="false"
   inkscape:zoom="5.4722222"
   inkscape:cx="55.461929"
   inkscape:cy="72"
   inkscape:window-width="1920"
   inkscape:window-height="986"
   inkscape:window-x="-11"
   inkscape:window-y="-11"
   inkscape:window-maximized="1"
   inkscape:current-layer="g1747" />
<g
   id="g1747">
	<path
   fill="#ffffff"
   d="m 16.793197,5.6949722 c -6.022096,0 -10.9039834,4.8743638 -10.9039834,10.8878568 V 126.50346 c 0,6.01456 4.8808204,10.88786 10.9039834,10.88786 H 126.65858 c 6.02209,0 10.90398,-4.87436 10.90398,-10.88786 V 16.583895 c 0,-6.014559 -4.88189,-10.8878562 -10.90398,-10.8878562 H 16.793197 Z"
   id="path1881"
   style="stroke-width:1.06661" /><path
   fill="#010101"
   d="M121.115,113.633h0.021l2.109-6.822l-3.234-4.99l-2.003,3.793h-7.791L76.445,39.752l5.972-11.647   c0.958-1.865,0.22-4.155-1.646-5.113c-1.868-0.956-4.153-0.22-5.111,1.648l-3.482,6.792l-3.482-6.792   c-0.958-1.868-3.243-2.604-5.111-1.648c-1.865,0.958-2.604,3.248-1.646,5.113l5.972,11.647l-33.773,65.861h-7.77l-2.003-3.793   l-3.234,4.99l2.109,6.822c-2.097,0-3.797,1.699-3.797,3.797c0,2.097,1.7,3.797,3.797,3.797h97.875c2.097,0,3.797-1.7,3.797-3.797   C124.912,115.332,123.212,113.633,121.115,113.633z M31.001,111.73c-0.313,0.608-0.429,1.263-0.399,1.902l-2.969-5.625h5.276   L31.001,111.73z M72.178,48.071l29.507,57.542H84.243L72.178,79.32l-12.065,26.293H42.671L72.178,48.071z M113.774,113.633h-0.021   c0.03-0.639-0.086-1.294-0.399-1.902l-1.908-3.723h5.297L113.774,113.633z"
   id="path1743" />
	<path
   fill="#010101"
   d="M121.678-0.1h-99c-12.427,0-22.5,10.072-22.5,22.5v99c0,12.426,10.073,22.5,22.5,22.5h99   c12.427,0,22.5-10.074,22.5-22.5v-99C144.178,9.973,134.104-0.1,121.678-0.1z M137.428,116.76c0,11.261-9.128,20.391-20.391,20.391   H27.318c-11.262,0-20.391-9.13-20.391-20.391V27.041c0-11.263,9.128-20.391,20.391-20.391h89.719   c11.262,0,20.391,9.127,20.391,20.391V116.76z"
   id="path1745" />
</g>
<g
   inkscape:groupmode="layer"
   id="layer1"
   inkscape:label="Layer 1" /></svg>
