<?xml version="1.0" encoding="utf-8"?>
<!-- Generator: Adobe Illustrator 16.0.0, SVG Export Plug-In . SVG Version: 6.00 Build 0)  -->
<!DOCTYPE svg PUBLIC "-//W3C//DTD SVG 1.1//EN" "http://www.w3.org/Graphics/SVG/1.1/DTD/svg11.dtd">
<svg version="1.1" id="_x35_0m" xmlns="http://www.w3.org/2000/svg" xmlns:xlink="http://www.w3.org/1999/xlink" x="0px" y="0px"
	 width="144px" height="144px" viewBox="0 0 144 144" enable-background="new 0 0 144 144" xml:space="preserve">
<rect y="38.012" fill="#010101" width="144" height="67.977"/>
<rect x="2.213" y="40.175" fill="#FCEE23" width="139.575" height="63.65"/>
<g>
	<path fill="#010101" d="M21.42,88.438c-4.425,0-7.844-1.205-10.257-3.619c-3.117-3.016-4.727-7.24-4.727-12.871
		c0-5.732,1.609-9.955,4.727-12.871c2.313-2.414,5.731-3.621,10.257-3.621s7.844,1.207,10.257,3.621
		c3.117,2.814,4.727,7.139,4.727,12.871c0,5.631-1.609,9.855-4.727,12.871C29.264,87.233,25.845,88.438,21.42,88.438z
		 M27.554,80.093c1.509-1.91,2.213-4.625,2.213-8.145s-0.805-6.234-2.313-8.145c-1.508-1.912-3.52-2.918-6.134-2.918
		s-4.626,0.906-6.134,2.816c-1.509,1.91-2.313,4.627-2.313,8.146s0.805,6.232,2.313,8.145c1.508,1.91,3.62,2.814,6.134,2.814
		S26.046,82.005,27.554,80.093z"/>
	<path fill="#010101" d="M55.609,87.636H41.531V56.462h15.185c3.821,0.102,6.536,1.207,8.146,3.318
		c1.006,1.309,1.408,2.916,1.408,4.727c0,1.91-0.503,3.418-1.408,4.627c-0.503,0.602-1.308,1.205-2.413,1.809
		c1.608,0.604,2.815,1.508,3.619,2.715c0.805,1.309,1.207,2.816,1.207,4.525c0,1.811-0.503,3.52-1.407,4.928
		c-0.604,1.006-1.308,1.811-2.213,2.414c-1.006,0.805-2.212,1.307-3.52,1.607C58.627,87.435,57.118,87.636,55.609,87.636z
		 M58.627,67.925c0.804-0.502,1.307-1.406,1.307-2.715c0-1.406-0.603-2.412-1.709-2.916c-1.006-0.301-2.213-0.502-3.721-0.502
		h-6.838v6.938h7.643C56.716,68.729,57.822,68.429,58.627,67.925z M55.408,73.858h-7.742v8.348h7.643
		c1.407,0,2.413-0.201,3.218-0.504c1.407-0.703,2.111-2.012,2.111-3.922c0-1.607-0.704-2.715-2.011-3.318
		C57.822,74.06,56.716,73.858,55.408,73.858z"/>
	<path fill="#010101" d="M72.604,56.462h6.536v25.543h15.486v5.631H72.604V56.462L72.604,56.462z"/>
	<path fill="#010101" d="M98.549,56.462h6.436v31.174h-6.436V56.462z"/>
	<path fill="#010101" d="M133.141,85.222c-2.313,2.111-5.33,3.217-8.949,3.217c-4.525,0-8.045-1.406-10.56-4.322
		c-2.614-2.916-3.82-6.838-3.82-11.867c0-5.43,1.407-9.652,4.424-12.568c2.514-2.615,5.732-3.822,9.654-3.822
		c5.229,0,9.05,1.709,11.463,5.129c1.308,1.91,2.112,3.922,2.212,5.832h-6.536c-0.401-1.508-1.006-2.613-1.608-3.418
		c-1.207-1.307-2.916-2.012-5.229-2.012c-2.414,0-4.224,1.006-5.632,2.916c-1.407,1.91-2.012,4.625-2.012,8.145
		s0.704,6.135,2.213,7.844c1.407,1.711,3.318,2.615,5.53,2.615c2.313,0,4.022-0.703,5.229-2.213
		c0.704-0.803,1.207-2.012,1.609-3.619h6.435C136.861,80.396,135.454,83.11,133.141,85.222z"/>
</g>
</svg>
