<?xml version="1.0" encoding="UTF-8" standalone="no"?>
<!-- Generator: Adobe Illustrator 16.0.0, SVG Export Plug-In . SVG Version: 6.00 Build 0)  -->

<svg
   version="1.1"
   id="_x35_0m"
   x="0px"
   y="0px"
   width="144px"
   height="144px"
   viewBox="0 0 144 144"
   enable-background="new 0 0 144 144"
   xml:space="preserve"
   sodipodi:docname="cap_c_new.svg"
   inkscape:version="1.2.1 (9c6d41e410, 2022-07-14)"
   xmlns:inkscape="http://www.inkscape.org/namespaces/inkscape"
   xmlns:sodipodi="http://sodipodi.sourceforge.net/DTD/sodipodi-0.dtd"
   xmlns="http://www.w3.org/2000/svg"
   xmlns:svg="http://www.w3.org/2000/svg"><defs
   id="defs23"><rect
     x="13.888325"
     y="86.619289"
     width="12.243655"
     height="14.984771"
     id="rect1709" /><rect
     x="113.11675"
     y="81.685279"
     width="29.604061"
     height="27.411168"
     id="rect1703" /></defs><sodipodi:namedview
   id="namedview21"
   pagecolor="#ffffff"
   bordercolor="#000000"
   borderopacity="0.25"
   inkscape:showpageshadow="2"
   inkscape:pageopacity="0.0"
   inkscape:pagecheckerboard="0"
   inkscape:deskcolor="#d1d1d1"
   showgrid="false"
   showguides="true"
   inkscape:zoom="5.4722222"
   inkscape:cx="42.213198"
   inkscape:cy="65.42132"
   inkscape:window-width="1920"
   inkscape:window-height="986"
   inkscape:window-x="-11"
   inkscape:window-y="-11"
   inkscape:window-maximized="1"
   inkscape:current-layer="g18" />

<rect
   x="0.12715398"
   y="29.49494"
   fill="#fcee23"
   width="143.77805"
   height="85.331261"
   id="rect4"
   style="stroke-width:1.17515" />
<g
   id="g18"
   transform="matrix(1.4427288,0,0,1.3641455,-14.900534,-41.271102)">
	<g
   id="g12">
		<path
   fill="#010101"
   d="m 38.4,86.311 c -2.489,2.312 -5.867,3.556 -9.778,3.556 -4.978,0 -8.711,-1.6 -11.556,-4.801 -2.844,-3.199 -4.267,-7.467 -4.267,-12.978 0,-6.044 1.601,-10.489 4.8,-13.688 2.845,-2.845 6.4,-4.267 10.667,-4.267 5.688,0 9.956,1.955 12.622,5.688 1.422,2.133 2.311,4.267 2.311,6.4 h -7.11 c -0.533,-1.6 -1.067,-2.845 -1.778,-3.733 -1.244,-1.422 -3.199,-2.133 -5.688,-2.133 -2.667,0 -4.622,1.066 -6.222,3.2 -1.423,2.133 -2.312,4.978 -2.312,8.889 0,3.911 0.711,6.755 2.312,8.534 1.6,1.955 3.555,2.844 6.044,2.844 2.489,0 4.444,-0.889 5.688,-2.488 0.711,-0.889 1.244,-2.134 1.778,-3.912 h 7.11 C 42.488,80.978 40.889,84 38.4,86.311 Z"
   id="path6" />
		<path
   fill="#010101"
   d="M 68.622,81.867 H 56 L 53.689,88.8 H 46.222 L 58.31,54.666 h 8 L 78.399,88.8 H 70.754 Z M 66.488,76 62.222,62.489 57.955,76 Z"
   id="path8" />
		<path
   fill="#010101"
   d="M 97.244,76.533 H 89.956 V 88.8 H 82.845 V 54.667 h 14.934 c 3.377,0 6.222,0.889 8.178,2.667 1.955,1.778 3.021,4.444 3.021,8.178 0,4.089 -1.066,6.934 -3.021,8.533 -1.957,1.777 -4.802,2.488 -8.713,2.488 z m 3.378,-7.111 c 0.889,-0.889 1.422,-2.133 1.422,-3.911 0,-1.778 -0.533,-3.022 -1.422,-3.733 -0.889,-0.711 -2.311,-1.066 -3.911,-1.066 h -6.577 v 9.956 h 6.577 c 1.778,-0.001 3.022,-0.357 3.911,-1.246 z"
   id="path10" />
	</g>
	
<rect
   style="fill:#ffffff;stroke:#000000;stroke-width:0"
   id="rect308"
   width="78.278061"
   height="25.318466"
   x="10.454685"
   y="92.81356"
   ry="0" /><path
   d="m 20.943359,94.416475 1.136719,0.287109 q -0.357422,1.400391 -1.289062,2.138672 -0.925782,0.732422 -2.267579,0.732422 -1.388671,0 -2.261718,-0.5625 -0.867188,-0.568359 -1.324219,-1.640625 -0.451172,-1.072266 -0.451172,-2.302734 0,-1.341797 0.509766,-2.337891 0.515625,-1.001953 1.458984,-1.517578 0.949219,-0.521484 2.085938,-0.521484 1.289062,0 2.167968,0.65625 0.878907,0.65625 1.22461,1.845703 l -1.119141,0.263672 q -0.298828,-0.9375 -0.867187,-1.365235 -0.56836,-0.427734 -1.429688,-0.427734 -0.990234,0 -1.658203,0.474609 -0.662109,0.47461 -0.931641,1.277344 -0.269531,0.796875 -0.269531,1.646484 0,1.095703 0.316406,1.916016 0.322266,0.814453 0.996094,1.21875 0.673828,0.404297 1.458984,0.404297 0.955079,0 1.617188,-0.550781 0.662109,-0.550782 0.896484,-1.634766 z"
   id="path304"
   style="font-size:12px;font-family:Arial;-inkscape-font-specification:'Arial, Normal';white-space:pre;shape-inside:url(#rect1709);display:inline;stroke:#000000"
   transform="matrix(1.9032105,0,0,1.9561749,64.505975,-80.330051)" /></g>
</svg>
