<?xml version="1.0" encoding="UTF-8" standalone="no"?>
<!-- Generator: Adobe Illustrator 16.0.0, SVG Export Plug-In . SVG Version: 6.00 Build 0)  -->

<svg
   version="1.1"
   id="_x35_0m"
   x="0px"
   y="0px"
   width="144px"
   height="144px"
   viewBox="0 0 144 144"
   enable-background="new 0 0 144 144"
   xml:space="preserve"
   sodipodi:docname="cattle_gate.svg"
   inkscape:version="1.2.1 (9c6d41e410, 2022-07-14)"
   xmlns:inkscape="http://www.inkscape.org/namespaces/inkscape"
   xmlns:sodipodi="http://sodipodi.sourceforge.net/DTD/sodipodi-0.dtd"
   xmlns="http://www.w3.org/2000/svg"
   xmlns:svg="http://www.w3.org/2000/svg"><defs
   id="defs312" /><sodipodi:namedview
   id="namedview310"
   pagecolor="#ffffff"
   bordercolor="#000000"
   borderopacity="0.25"
   inkscape:showpageshadow="2"
   inkscape:pageopacity="0.0"
   inkscape:pagecheckerboard="0"
   inkscape:deskcolor="#d1d1d1"
   showgrid="false"
   inkscape:zoom="30.955563"
   inkscape:cx="117.41024"
   inkscape:cy="80.728623"
   inkscape:window-width="1920"
   inkscape:window-height="986"
   inkscape:window-x="-11"
   inkscape:window-y="-11"
   inkscape:window-maximized="1"
   inkscape:current-layer="_x35_0m" />
<path
   fill="#010101"
   d="M141.384,52.991v4.729h-9.862v-4.729h-2.616v4.729h-9.861v-4.729h-2.617v4.729h-9.861V51.18h-2.616v35.12  H40.15V51.28h-2.615v4.729h-9.863V51.28h-2.615v4.729h-9.861V51.28h-2.617v4.729h-9.86V51.28H0v36.83h2.616v-8.05h9.861v7.95h2.616  v-7.95h9.862v7.95h2.616v-7.95h9.862v7.547h0.101v1.308h68.729v-1.308h0.302v-5.836h9.861v7.949h2.617v-7.949h9.861v7.949h2.616  v-7.949h9.862v7.949H144V52.991H141.384z M141.384,60.438v8.05h-9.862v-8.05H141.384z M128.905,60.438v8.05h-9.861v-8.05H128.905z   M116.427,60.438v8.05h-9.861v-8.05H116.427z M37.435,58.626v8.05h-9.862v-8.05H37.435z M24.956,58.626v8.05h-9.862v-8.05H24.956z   M12.478,58.626v8.05h-9.76v-8.05H12.478z M2.718,77.444v-8.05h9.86v8.05H2.718z M15.195,77.444v-8.05h9.861v8.05H15.195z   M27.672,77.444v-8.05h9.863v8.05H27.672z M106.667,79.154v-8.05h9.861v8.05H106.667z M119.145,79.154v-8.05h9.861v8.05H119.145z   M131.622,79.154v-8.05h9.861v8.05H131.622z"
   id="path307" />
<rect
   style="fill:#000000;stroke:#000000;stroke-width:0"
   id="rect537"
   width="69.168068"
   height="5.4952202"
   x="37.416245"
   y="83.512688" /></svg>
