<?xml version="1.0" encoding="utf-8"?>
<!-- Generator: Adobe Illustrator 16.0.0, SVG Export Plug-In . SVG Version: 6.00 Build 0)  -->
<!DOCTYPE svg PUBLIC "-//W3C//DTD SVG 1.1//EN" "http://www.w3.org/Graphics/SVG/1.1/DTD/svg11.dtd">
<svg version="1.1" id="_x35_0m" xmlns="http://www.w3.org/2000/svg" xmlns:xlink="http://www.w3.org/1999/xlink" x="0px" y="0px"
	 width="144px" height="144px" viewBox="0 0 144 144" enable-background="new 0 0 144 144" xml:space="preserve">
<g>
	<polygon fill="#010101" points="41.875,38.711 47.348,38.711 47.348,12.667 56.975,12.667 56.975,7.296 47.348,7.296 47.348,0 
		41.875,0 41.875,7.296 32.147,7.296 32.147,12.667 41.875,12.667 	"/>
	<polygon fill="#010101" points="71.365,50.162 76.735,50.162 76.735,24.118 86.464,24.118 86.464,18.748 76.735,18.748 
		76.735,11.552 71.365,11.552 71.365,18.748 61.636,18.748 61.636,24.118 71.365,24.118 	"/>
	<polygon fill="#010101" points="99.435,38.711 104.907,38.711 104.907,12.667 114.635,12.667 114.635,7.296 104.907,7.296 
		104.907,0 99.435,0 99.435,7.296 89.707,7.296 89.707,12.667 99.435,12.667 	"/>
	<polygon fill="#010101" points="41.875,84.718 47.348,84.718 47.348,58.776 56.975,58.776 56.975,53.405 47.348,53.405 
		47.348,46.108 41.875,46.108 41.875,53.405 32.147,53.405 32.147,58.776 41.875,58.776 	"/>
	<polygon fill="#010101" points="71.365,96.271 76.735,96.271 76.735,70.227 86.464,70.227 86.464,64.856 76.735,64.856 
		76.735,57.56 71.365,57.56 71.365,64.856 61.636,64.856 61.636,70.227 71.365,70.227 	"/>
	<polygon fill="#010101" points="99.435,84.718 104.907,84.718 104.907,58.776 114.635,58.776 114.635,53.405 104.907,53.405 
		104.907,46.108 99.435,46.108 99.435,53.405 89.707,53.405 89.707,58.776 99.435,58.776 	"/>
	<polygon fill="#010101" points="48.665,93.94 43.192,93.94 43.192,101.134 33.465,101.134 33.465,106.607 43.192,106.607 
		43.192,132.549 48.665,132.549 48.665,106.607 58.393,106.607 58.393,101.134 48.665,101.134 	"/>
	<polygon fill="#010101" points="78.053,105.391 72.683,105.391 72.683,112.688 62.953,112.688 62.953,118.058 72.683,118.058 
		72.683,144 78.053,144 78.053,118.058 87.781,118.058 87.781,112.688 78.053,112.688 	"/>
	<polygon fill="#010101" points="115.953,101.134 106.225,101.134 106.225,93.94 100.753,93.94 100.753,101.134 91.126,101.134 
		91.126,106.607 100.753,106.607 100.753,132.549 106.225,132.549 106.225,106.607 115.953,106.607 	"/>
</g>
</svg>
