<?xml version="1.0" encoding="UTF-8" standalone="no"?>
<!-- Generator: Adobe Illustrator 16.0.0, SVG Export Plug-In . SVG Version: 6.00 Build 0)  -->

<svg
   version="1.1"
   id="_x35_0m"
   x="0px"
   y="0px"
   width="144px"
   height="144px"
   viewBox="0 0 144 144"
   enable-background="new 0 0 144 144"
   xml:space="preserve"
   sodipodi:docname="church.svg"
   inkscape:version="1.2.1 (9c6d41e410, 2022-07-14)"
   xmlns:inkscape="http://www.inkscape.org/namespaces/inkscape"
   xmlns:sodipodi="http://sodipodi.sourceforge.net/DTD/sodipodi-0.dtd"
   xmlns="http://www.w3.org/2000/svg"
   xmlns:svg="http://www.w3.org/2000/svg"><defs
   id="defs9" /><sodipodi:namedview
   id="namedview7"
   pagecolor="#ffffff"
   bordercolor="#000000"
   borderopacity="0.25"
   inkscape:showpageshadow="2"
   inkscape:pageopacity="0.0"
   inkscape:pagecheckerboard="0"
   inkscape:deskcolor="#d1d1d1"
   showgrid="false"
   inkscape:zoom="5.4722222"
   inkscape:cx="55.461929"
   inkscape:cy="101.23858"
   inkscape:window-width="1920"
   inkscape:window-height="986"
   inkscape:window-x="-11"
   inkscape:window-y="-11"
   inkscape:window-maximized="1"
   inkscape:current-layer="_x35_0m" />
<rect
   x="40.917244"
   y="58.473858"
   fill="#ffffff"
   width="63.261959"
   height="85.529442"
   id="rect155"
   style="stroke-width:1.01439" /><path
   fill="#010101"
   d="M59.3,144c-1,0-1.699,0-2.4,0c-9.299,0-18.6,0-27.899,0c-4.5,0-5.899-1.4-5.899-5.9c0-20,0-40,0-60  c0-2.3,0.799-4.1,2.399-5.7C39.2,58.7,53,44.9,66.7,31.2c1.1-1.1,1.6-2.1,1.5-3.7c-0.1-3.2,0-6.4,0-9.9c-1.6,0-3,0-4.4,0  c-2.8-0.1-4.699-1.9-4.699-4.4s2-4.2,4.799-4.2C65.2,9,66.5,9,68.2,9c0-1.6,0-3,0-4.5C68.3,1.8,69.899,0,72.399,0  C74.9,0,76.6,1.7,76.7,4.4c0,1.4,0,2.8,0,4.5c1.5,0,2.8,0,4.2,0C83.8,9,85.8,10.8,85.8,13.3c0,2.4-1.899,4.1-4.8,4.2  c-1.3,0-2.6,0-4.3,0c0,4-0.101,7.7,0.1,11.5c0,0.7,0.8,1.4,1.4,2C92,44.8,105.8,58.6,119.6,72.4C121.2,74,121.9,75.7,121.9,78  c0,20.1,0,40.2,0,60.3c0,4.2-1.4,5.7-5.7,5.7c-10.101,0-20.101,0-30.601,0c0-0.9,0-1.7,0-2.5c0-15.3,0-30.5,0-45.8  c0-7-3.6-12.101-9.699-13.8C68.101,79.7,60,85.1,59.3,93.1c-0.1,1.101-0.1,2.2-0.1,3.301c0,14.899,0,29.8,0,44.699  C59.3,142.1,59.3,142.9,59.3,144z M41.2,106c0,3.4,0,6.9,0,10.3c0,1.601,0,3.2,0,4.8c0.1,2.9,1.8,4.801,4.199,4.7  c2.4,0,4-1.899,4.101-4.8c0-0.3,0-0.6,0-0.8c0-9.5,0-19,0-28.5c0-0.8,0-1.7-0.2-2.5c-0.4-1.8-2.1-3.2-3.9-3.2  c-1.799,0-3.6,1.3-4,3.1C41.2,89.9,41.2,90.8,41.2,91.6C41.2,96.3,41.2,101.1,41.2,106z M103.8,105.9L103.8,105.9  c0-5.101,0-10.2,0-15.301c0-2.899-1.899-4.8-4.3-4.699C97.2,86,95.6,87.8,95.4,90.6c0,0.4,0,0.801,0,1.301c0,9.399,0,18.699,0,28.1  c0,0.9,0,1.8,0.199,2.7c0.4,1.8,2.101,3.1,4,3.1c1.801,0,3.5-1.3,4-3.1c0.2-0.8,0.2-1.7,0.2-2.5  C103.8,115.4,103.8,110.7,103.8,105.9z M72.5,61.6c-0.601-0.5-1.101-1-1.601-1.5c-1.799-1.7-4.199-1.7-5.799-0.1  c-1.701,1.6-1.701,4,0,5.8c1.5,1.6,3,3.1,4.6,4.6c1.699,1.6,3.899,1.6,5.7,0c1.6-1.5,3.199-3.1,4.699-4.8c1.601-1.7,1.4-4.1-0.1-5.7  c-1.6-1.6-3.9-1.6-5.7-0.1C73.7,60.5,73.2,61,72.5,61.6z"
   id="path2" />
<path
   fill="#ADADAD"
   d="M77.2,143.9c-3.2,0-6.1,0-9.301,0c-0.1-0.5-0.199-1.101-0.199-1.601c0-15.8,0-31.6,0-47.399  c0-2.601,1.1-4.2,3.1-4.9c2.101-0.7,4-0.3,5.3,1.4c0.7,0.899,1.2,2.1,1.2,3.199c0.101,16.101,0,32.2,0,48.2  C77.3,143.2,77.3,143.4,77.2,143.9z"
   id="path4" />
</svg>
