<?xml version="1.0" encoding="utf-8"?>
<!-- Generator: Adobe Illustrator 16.0.0, SVG Export Plug-In . SVG Version: 6.00 Build 0)  -->
<!DOCTYPE svg PUBLIC "-//W3C//DTD SVG 1.1//EN" "http://www.w3.org/Graphics/SVG/1.1/DTD/svg11.dtd">
<svg version="1.1" id="_x35_0m" xmlns="http://www.w3.org/2000/svg" xmlns:xlink="http://www.w3.org/1999/xlink" x="0px" y="0px"
	 width="144px" height="144px" viewBox="0 0 144 144" enable-background="new 0 0 144 144" xml:space="preserve">
<path fill="#010101" d="M71.9,44.3C79.3,20,94.3,4.5,94.5,4.3L92,1.9C91.9,2,90.9,3,89.4,4.8l-6.2-4.5C82.7,1,82,2,81.2,3.1l6.1,4.4
	c-1.1,1.3-2.2,2.9-3.5,4.7l-6.3-3.7c-0.6,0.9-1.2,1.9-1.8,2.9l6.2,3.7c-1.2,1.8-2.4,3.9-3.7,6.1L72,17.9c-0.5,1-1.1,2-1.6,3l6.2,3.2
	c-1,1.9-2,3.9-2.899,6l-6.4-2.6c-0.5,1-0.9,2.1-1.4,3.1l6.4,2.6c-0.8,1.9-1.5,3.8-2.2,5.8l-6.7-2c-0.4,1.1-0.8,2.1-1.1,3.2l6.8,2
	c-0.1,0.3-0.2,0.5-0.3,0.8c-0.5,1.6-0.9,3.2-1.3,4.8l-7.1-1.4c-0.3,1.1-0.6,2.2-0.9,3.3l7.2,1.4c-0.4,1.8-0.7,3.7-1,5.6l-7.5-0.8
	c-0.2,1.1-0.4,2.3-0.6,3.4l7.6,0.8c-0.2,1.8-0.4,3.7-0.5,5.6l-7.9-0.3c-0.1,1.1-0.2,2.3-0.3,3.4l8.1,0.3c0,2.1,0,4.2,0.1,6.3h-8.4
	c0,1.1,0,2.3,0,3.399h8.6c0.1,1.7,0.3,3.5,0.6,5.3l-8.8,1c0.1,1.101,0.2,2.301,0.4,3.4l8.9-1c0.3,1.8,0.7,3.6,1.1,5.5l-9,1.8
	c0.2,1.101,0.5,2.2,0.7,3.3l9.1-1.8c0.5,1.8,1,3.601,1.6,5.5l-9.1,2.7c0.3,1.1,0.7,2.2,1.1,3.3l9.1-2.7c0.7,1.9,1.4,3.801,2.3,5.7
	l-8.8,3.601c0.4,1.1,0.9,2.1,1.4,3.1l8.8-3.6c0.9,2,1.9,3.899,2.9,5.899l-8.4,4.4c0.5,1,1.1,2,1.7,3l8.3-4.4c1.101,2,2.4,4,3.7,6
	l-8,4.7c0.6,0.9,1.3,1.9,2,2.8l7.9-4.7c1.1,1.601,2.199,3.101,3.3,4.7l-7.2,5.2c0.7,0.9,1.4,1.8,2.2,2.6l7.1-5.1
	c0.7,0.9,1.4,1.8,2.101,2.6L94.6,139.4C69.7,109,62,76.9,71.9,44.3z"/>
</svg>
