<?xml version="1.0" encoding="utf-8"?>
<!-- Generator: Adobe Illustrator 16.0.0, SVG Export Plug-In . SVG Version: 6.00 Build 0)  -->
<!DOCTYPE svg PUBLIC "-//W3C//DTD SVG 1.1//EN" "http://www.w3.org/Graphics/SVG/1.1/DTD/svg11.dtd">
<svg version="1.1" id="_x35_0m" xmlns="http://www.w3.org/2000/svg" xmlns:xlink="http://www.w3.org/1999/xlink" x="0px" y="0px"
	 width="144px" height="144px" viewBox="0 0 144 144" enable-background="new 0 0 144 144" xml:space="preserve">
<path fill="#010101" d="M92.9,134.8C68.6,114.6,56.6,93,57.1,70.6C57.9,33.8,92.5,7.1,92.8,6.8l-2-2.6c-0.3,0.2-1.5,1.1-3.3,2.7
	l-7.3-7.1l-2.3,2.4l7.1,7c-1.3,1.2-2.8,2.7-4.4,4.3L73.2,6.8L71,9.2l7.4,6.6c-1.301,1.4-2.601,2.9-3.9,4.5l-7.7-6l-2,2.6l7.6,6
	c-1.4,1.9-2.9,3.8-4.3,5.9l-8.3-5.7l-1.9,2.7l8.3,5.7c-1.3,2.1-2.5,4.2-3.7,6.4L53.4,33l-1.6,2.9l9.1,4.9c-0.9,1.9-1.7,3.8-2.5,5.8
	l-9.9-3.5l-1.1,3.1l9.9,3.4c-0.7,2-1.3,4.1-1.8,6.2L45.1,54l-0.6,3.3l10.2,1.8c-0.4,2.1-0.7,4.2-0.9,6.4H43.6v3.3h10.2
	c0,0.4-0.1,0.9-0.1,1.3c0,1.8,0,3.6,0.1,5.5L43.1,76.4l0.2,3.3L54,78.9c0.3,2.199,0.6,4.3,1.1,6.5l-10.5,2.1l0.7,3.2L56,88.5
	c0.5,1.8,1.1,3.7,1.8,5.5l-10,3.8L49,100.9L59,97.1c0.9,2.101,1.9,4.2,3,6.301l-9.5,5.5l1.7,2.899l9.4-5.5c1.1,1.9,2.3,3.8,3.6,5.7
	l-8.4,6.2l2,2.7l8.4-6.101c1.3,1.8,2.8,3.601,4.3,5.4l-7.6,6.3L68,129l7.7-6.4c1.399,1.5,2.8,3.101,4.3,4.601l-7.6,7.3l2.3,2.4
	l7.7-7.4c1.399,1.4,2.899,2.8,4.5,4.1L79.6,141.2l2.4,2.3l7.5-7.7c0.5,0.4,0.9,0.8,1.4,1.2L92.9,134.8z"/>
</svg>
