<?xml version="1.0" encoding="utf-8"?>
<!-- Generator: Adobe Illustrator 16.0.0, SVG Export Plug-In . SVG Version: 6.00 Build 0)  -->
<!DOCTYPE svg PUBLIC "-//W3C//DTD SVG 1.1//EN" "http://www.w3.org/Graphics/SVG/1.1/DTD/svg11.dtd">
<svg version="1.1" id="_x35_0m" xmlns="http://www.w3.org/2000/svg" xmlns:xlink="http://www.w3.org/1999/xlink" x="0px" y="0px"
	 width="144px" height="144px" viewBox="0 0 144 144" enable-background="new 0 0 144 144" xml:space="preserve">
<path fill="#010101" d="M87,1.5l-3.1-1.6c-0.101,0.2-0.601,1.2-1.4,3l-8.2-2.6c-0.1,0.3-0.7,1.4-1.399,3.2L81.1,6.1
	c-0.699,1.8-1.6,4-2.399,6.5l-8.4-2.1c-0.3,1-0.7,2.1-1.1,3.3l8.399,2.1c-0.6,1.8-1.1,3.8-1.699,5.9L67.3,20.4
	c-0.3,1.1-0.6,2.2-0.9,3.4l8.6,1.4c-0.5,2-1,4.1-1.4,6.3l-8.7-1.1c-0.2,1.1-0.5,2.3-0.7,3.4l8.7,1.1c-0.301,1.8-0.7,3.8-1,5.7
	c0,0.1,0,0.2,0,0.3L63,40.4c-0.2,1.1-0.3,2.3-0.5,3.5l8.8,0.6c-0.3,2-0.5,4.1-0.7,6.3l-8.8-0.4c-0.1,1.1-0.2,2.3-0.3,3.5l8.8,0.4
	c-0.2,2-0.3,4-0.4,6.1H61c-0.1,1.1-0.1,2.3-0.2,3.5h8.9c-0.1,2.1-0.1,4.2-0.1,6.3h-9c0,1.1,0,2.3,0,3.5h9c0,2,0.1,4,0.2,6l-9,0.5
	c0,1.1,0.1,2.3,0.2,3.5l9.1-0.5c0.1,2,0.3,4.1,0.5,6.2L61.5,90.1c0.1,1.101,0.2,2.301,0.3,3.5l9.1-0.699c0.2,2.1,0.5,4.1,0.8,6.3
	l-9.2,1c0.2,1.1,0.3,2.3,0.5,3.399l9.2-1c0.3,2,0.7,4.101,1.1,6.2l-9.2,1.3c0.2,1.101,0.4,2.301,0.7,3.4l9.3-1.3
	c0.4,2,0.9,4,1.4,6.1l-9.2,1.9c0.3,1.1,0.5,2.3,0.8,3.399l9.3-1.899c0.6,2.1,1.1,4.2,1.8,6.3l-9.2,2.3c0.3,1.101,0.7,2.2,1,3.3
	l9.3-2.3c0.7,2,1.3,4.101,2.101,6.2l-9.101,3.2c0.4,1.1,0.7,2.2,1.101,3.3l9.1-3.2c0.4,1,0.8,2.101,1.2,3.101l3.3-1.2
	C56.1,61.7,86.7,2.1,87,1.5z"/>
</svg>
