<?xml version="1.0" encoding="utf-8"?>
<!-- Generator: Adobe Illustrator 16.0.0, SVG Export Plug-In . SVG Version: 6.00 Build 0)  -->
<!DOCTYPE svg PUBLIC "-//W3C//DTD SVG 1.1//EN" "http://www.w3.org/Graphics/SVG/1.1/DTD/svg11.dtd">
<svg version="1.1" id="_x35_0m" xmlns="http://www.w3.org/2000/svg" xmlns:xlink="http://www.w3.org/1999/xlink" x="0px" y="0px"
	 width="144px" height="144px" viewBox="0 0 144 144" enable-background="new 0 0 144 144" xml:space="preserve">
<rect x="-17" fill="#010101" width="17" height="22.4"/>
<rect x="-17" y="111.6" fill="#010101" width="17" height="32.4"/>
<polygon fill="#010101" points="79.7,0 79.7,-0.2 66.5,-0.2 66.5,3.2 78,3.2 78,7.6 66.5,7.6 66.5,11 78,11 78,15.4 66.5,15.4 
	66.5,18.8 78,18.8 78,23.3 66.5,23.3 66.5,26.7 78,26.7 78,31.1 66.5,31.1 66.5,34.5 78,34.5 78,38.9 66.5,38.9 66.5,42.3 78,42.3 
	78,46.7 66.5,46.7 66.5,50.1 78,50.1 78,54.5 66.5,54.5 66.5,57.9 78,57.9 78,62.3 66.5,62.3 66.5,65.7 78,65.7 78,70.1 66.5,70.1 
	66.5,73.5 78,73.5 78,77.9 66.5,77.9 66.5,81.3 78,81.3 78,85.7 66.5,85.7 66.5,89.1 78,89.1 78,93.5 66.5,93.5 66.5,96.9 78,96.9 
	78,101.4 66.5,101.4 66.5,104.8 78,104.8 78,109.2 66.5,109.2 66.5,112.6 78,112.6 78,117 66.5,117 66.5,120.4 78,120.4 78,124.8 
	66.5,124.8 66.5,128.2 78,128.2 78,132.6 66.5,132.6 66.5,136 78,136 78,140.4 66.5,140.4 66.5,143.8 78,143.8 78,143.8 81.4,143.8 
	81.4,0 "/>
</svg>
