<?xml version="1.0" encoding="utf-8"?>
<!-- Generator: Adobe Illustrator 16.0.0, SVG Export Plug-In . SVG Version: 6.00 Build 0)  -->
<!DOCTYPE svg PUBLIC "-//W3C//DTD SVG 1.1//EN" "http://www.w3.org/Graphics/SVG/1.1/DTD/svg11.dtd">
<svg version="1.1" id="_x35_0m" xmlns="http://www.w3.org/2000/svg" xmlns:xlink="http://www.w3.org/1999/xlink" x="0px" y="0px"
	 width="144px" height="144px" viewBox="0 0 144 144" enable-background="new 0 0 144 144" xml:space="preserve">
<path fill="#010101" d="M94.9,10.2V5.7C93.1,6.2,91.4,6.9,89.6,7.6l-3.8-7.7L83,1.3l3.7,7.5c-1.9,0.8-3.7,1.8-5.5,2.8l-5-7.7
	l-2.7,1.8l5,7.6c-1.7,1.1-3.4,2.2-5,3.4l-6-6.7l-2.4,2.1l5.9,6.5c-1.5,1.3-3,2.6-4.4,4l-7-6.4l-2.2,2.4l6.9,6.3
	c-1.3,1.4-2.6,2.9-3.8,4.5L53.2,24l-1.9,2.6l7.3,5.4c-1.2,1.7-2.3,3.4-3.3,5.2L46.9,33l-1.4,2.9l8.3,4c-1,2-2,4-2.8,6.1l-8.7-3
	l-1.1,3l8.6,3c-0.7,2-1.3,4-1.8,6.1l-8.8-1.8l-0.6,3.1l8.8,1.8c-0.4,2.2-0.8,4.5-1,6.8l-9-0.8l-0.3,3.2l9.1,0.8
	c-0.1,1.1-0.1,2.3-0.1,3.4c0,1.4,0.1,2.9,0.1,4.3L37.1,76.6l0.3,3.2l9.1-0.7c0.3,2.4,0.6,4.801,1.1,7.101L39,87.9l0.6,3.1l8.8-1.7
	c0.5,2,1.1,3.9,1.8,5.8L41.9,98l1,3l8.4-2.8c0.9,2,1.8,4,2.8,5.899L46,107.9l1.4,2.899l8.3-3.899c1.1,1.8,2.2,3.5,3.4,5.199
	l-7.4,5.4l1.9,2.6l7.5-5.399c1.2,1.6,2.5,3.1,3.9,4.5l-6.4,5.7l2.1,2.399l6.5-5.899c1.3,1.199,2.6,2.399,4,3.5l-6.1,6.699l2.4,2.2
	l6.3-6.899c1.8,1.3,3.601,2.5,5.4,3.699l-5,7.4l2.7,1.8l5.1-7.6c1.9,1,3.8,1.899,5.7,2.8l-3.8,7.5l2.8,1.4l3.899-7.7
	c1.4,0.5,2.801,1,4.2,1.5v-4.5c-25.9-8.5-44.6-32.8-44.6-61.5C50.3,43,69,18.7,94.9,10.2z"/>
</svg>
