<?xml version="1.0" encoding="UTF-8" standalone="no"?>
<!-- Generator: Adobe Illustrator 16.0.0, SVG Export Plug-In . SVG Version: 6.00 Build 0)  -->

<svg
   version="1.1"
   id="_x35_0m"
   x="0px"
   y="0px"
   width="144px"
   height="144px"
   viewBox="0 0 144 144"
   enable-background="new 0 0 144 144"
   xml:space="preserve"
   sodipodi:docname="collapse_2.svg"
   inkscape:version="1.2.1 (9c6d41e410, 2022-07-14)"
   xmlns:inkscape="http://www.inkscape.org/namespaces/inkscape"
   xmlns:sodipodi="http://sodipodi.sourceforge.net/DTD/sodipodi-0.dtd"
   xmlns="http://www.w3.org/2000/svg"
   xmlns:svg="http://www.w3.org/2000/svg"><defs
   id="defs7" /><sodipodi:namedview
   id="namedview5"
   pagecolor="#ffffff"
   bordercolor="#000000"
   borderopacity="0.25"
   inkscape:showpageshadow="2"
   inkscape:pageopacity="0.0"
   inkscape:pagecheckerboard="0"
   inkscape:deskcolor="#d1d1d1"
   showgrid="false"
   inkscape:zoom="5.4722222"
   inkscape:cx="51.807107"
   inkscape:cy="72"
   inkscape:window-width="1920"
   inkscape:window-height="986"
   inkscape:window-x="-11"
   inkscape:window-y="-11"
   inkscape:window-maximized="1"
   inkscape:current-layer="_x35_0m" />
<path
   d="M104.583,66.174c-0.995-6.418-1.934-12.48-0.235-24.177c3.165-21.799,0.79-38.607,0.687-39.312  c-0.25-1.713-1.835-2.911-3.553-2.649c-1.712,0.247-2.901,1.839-2.653,3.552c0.007,0.049,0.229,1.642,0.446,4.403L38.626,35.544  c-0.524,0.239-0.757,0.857-0.519,1.385c0.175,0.384,0.554,0.612,0.952,0.612c0.144,0,0.291-0.031,0.432-0.094L99.43,10.216  c0.201,3.299,0.345,7.678,0.219,12.813L38.626,50.752c-0.524,0.239-0.757,0.859-0.519,1.384c0.175,0.386,0.554,0.612,0.952,0.612  c0.144,0,0.291-0.028,0.432-0.094l60.077-27.292c-0.161,4.111-0.507,8.633-1.123,13.422l-59.82,27.178  c-0.524,0.238-0.757,0.857-0.519,1.384c0.175,0.384,0.554,0.612,0.952,0.612c0.144,0,0.291-0.03,0.432-0.094l58.633-26.637  c-0.772,5.356-1.021,9.663-0.976,13.354L38.626,81.169c-0.524,0.239-0.757,0.859-0.519,1.385c0.175,0.386,0.554,0.612,0.952,0.612  c0.144,0,0.291-0.029,0.432-0.095l57.726-26.227c0.182,3.894,0.678,7.12,1.168,10.289c0.1,0.646,0.199,1.304,0.297,1.959  L38.626,96.377c-0.524,0.238-0.757,0.859-0.519,1.384c0.175,0.386,0.554,0.612,0.952,0.612c0.144,0,0.291-0.028,0.432-0.094  l59.49-27.026c0.064,0.491,0.135,0.972,0.193,1.481c0.479,4.199,0.109,7.308-0.415,11.531l-60.134,27.321  c-0.524,0.238-0.757,0.857-0.519,1.384c0.175,0.384,0.554,0.612,0.952,0.612c0.144,0,0.291-0.03,0.432-0.094l58.975-26.794  c-0.409,3.449-0.825,7.62-0.971,13.354l-58.87,26.745c-0.524,0.239-0.757,0.859-0.519,1.384c0.175,0.387,0.554,0.613,0.952,0.613  c0.144,0,0.291-0.029,0.432-0.095l57.967-26.334c-0.003,0.281-0.011,0.536-0.013,0.826c-0.036,5.218-0.05,9.146-0.053,12.117  l-58.767,26.698c-0.524,0.239-0.757,0.857-0.519,1.384c0.175,0.384,0.554,0.612,0.952,0.612c0.144,0,0.291-0.03,0.432-0.094  l57.901-26.306c0.007,5.005,0.052,6.291,0.055,6.37c0.065,1.69,1.455,3.014,3.131,3.014c0.039,0,0.079,0,0.119-0.002  c1.729-0.063,3.079-1.52,3.017-3.248c-0.005-0.133-0.116-3.43,0.002-20.503c0.058-8.438,0.714-13.733,1.243-17.987  c0.568-4.587,1.018-8.209,0.445-13.222C105.17,69.967,104.876,68.063,104.583,66.174z"
   id="path2"
   style="fill:#d09662;fill-opacity:1" />
</svg>
