<?xml version="1.0" encoding="UTF-8" standalone="no"?>
<!-- Generator: Adobe Illustrator 16.0.0, SVG Export Plug-In . SVG Version: 6.00 Build 0)  -->

<svg
   version="1.1"
   id="_x35_0m"
   x="0px"
   y="0px"
   width="144px"
   height="144px"
   viewBox="0 0 144 144"
   enable-background="new 0 0 144 144"
   xml:space="preserve"
   sodipodi:docname="compression.svg"
   inkscape:version="1.2.1 (9c6d41e410, 2022-07-14)"
   xmlns:inkscape="http://www.inkscape.org/namespaces/inkscape"
   xmlns:sodipodi="http://sodipodi.sourceforge.net/DTD/sodipodi-0.dtd"
   xmlns="http://www.w3.org/2000/svg"
   xmlns:svg="http://www.w3.org/2000/svg"><defs
   id="defs11" /><sodipodi:namedview
   id="namedview9"
   pagecolor="#ffffff"
   bordercolor="#000000"
   borderopacity="0.25"
   inkscape:showpageshadow="2"
   inkscape:pageopacity="0.0"
   inkscape:pagecheckerboard="0"
   inkscape:deskcolor="#d1d1d1"
   showgrid="false"
   inkscape:zoom="15.477782"
   inkscape:cx="157.80685"
   inkscape:cy="82.311537"
   inkscape:window-width="1920"
   inkscape:window-height="986"
   inkscape:window-x="-11"
   inkscape:window-y="-11"
   inkscape:window-maximized="1"
   inkscape:current-layer="_x35_0m" />
<g
   id="g6">
	<path
   fill="#ed2024"
   d="m 91.236964,78.55143 -0.425777,1.365353 c -2.624965,8.412173 -10.237461,14.063633 -18.940146,14.063633 -8.640302,0 -16.425091,-5.815502 -18.934204,-14.142653 L 52.519971,78.453405 H 0.62666569 V 89.488256 H 43.77471 c 5.58362,10.389684 16.249829,16.796334 28.096331,16.796334 11.760357,0 22.394881,-6.366639 28.037913,-16.698309 H 143.21146 V 78.55143 Z"
   id="path2"
   style="stroke:#000000;stroke-width:1.49281;stroke-dasharray:none;stroke-opacity:1" />
	<polygon
   fill="#010101"
   points="86.377,44.519 86.377,37.519 57.979,37.519 57.979,44.519 68.377,44.519 68.377,62.319    57.979,62.319 72.178,86.819 86.377,62.319 75.979,62.319 75.979,44.519  "
   id="polygon4" />
</g>
</svg>
