<?xml version="1.0" encoding="utf-8"?>
<!-- Generator: Adobe Illustrator 16.0.0, SVG Export Plug-In . SVG Version: 6.00 Build 0)  -->
<!DOCTYPE svg PUBLIC "-//W3C//DTD SVG 1.1//EN" "http://www.w3.org/Graphics/SVG/1.1/DTD/svg11.dtd">
<svg version="1.1" id="_x35_0m" xmlns="http://www.w3.org/2000/svg" xmlns:xlink="http://www.w3.org/1999/xlink" x="0px" y="0px"
	 width="144px" height="144px" viewBox="0 0 144 144" enable-background="new 0 0 144 144" xml:space="preserve">
<rect x="48.9" y="40.1" fill="#A7A6A6" width="46.5" height="63.7"/>
<path fill="#597FAC" d="M131.3,68.4c-1.8,0-4.1-1-6.1-2.6c-3.5-3-7-2.9-10.601,0c-4.399,3.7-9.199,3.7-13.6,0c-3.6-3-6.9-3-10.6-0.1
	c-4.601,3.7-9.301,3.7-13.801,0c-3.199-2.7-5.899-2.7-9,0c-4.6,3.8-9.399,3.7-14-0.1C50.5,63,46.9,62.9,43.7,65.4
	c-5.5,4.3-9.3,4.3-14.7,0c-2.9-2.3-6.4-2.3-9.5,0c-5.6,4.3-9.2,4.3-14.7,0c-1.1-0.8-2.2-1.5-3.6-1.6c-1.4-0.1-1.5-0.9-1.3-1.9
	C0.1,60.6,1.1,61.2,1.8,61.3c1.9,0.3,3.5,1.2,5,2.4c3.601,3,6.9,3,10.5-0.1C21.6,60,26.6,60,30.9,63.7c3.3,2.9,7,2.9,10.399,0.1
	c4.8-3.9,9.4-3.9,14.2,0.1c3.2,2.6,6.8,2.7,10,0.1c4.8-3.8,8.2-3.8,13,0c3.1,2.5,6.6,2.5,9.6,0.1c5.301-4.2,9.4-4.2,14.5,0
	c3.101,2.5,6.801,2.5,9.9,0c5.1-4.1,9.4-4.1,14.5,0.1c3.1,2.5,6.9,2.5,10-0.2c1.6-1.4,3.3-2.4,5.4-2.6c0.6-0.1,1.5-0.5,1.6,0.6
	c0.1,0.8,0.3,1.7-1,1.9c-1.9,0.2-3.4,1.3-4.9,2.6C136.6,67.7,134.4,68.4,131.3,68.4z"/>
<path fill="#597FAC" d="M132.1,95.1c-2.5-0.1-4.699-0.899-6.699-2.5c-3.9-3.199-7.2-3.199-10.9,0c-4.1,3.4-9.1,3.5-13.3,0
	c-3.9-3.199-7-3.199-10.9-0.1c-4.5,3.6-9.3,3.5-13.6-0.2c-3.2-2.7-5.8-2.7-9,0c-4.601,3.8-9.5,3.8-14,0c-3.2-2.7-7-2.7-10.2,0
	c-4.8,3.9-9.4,3.9-14.1-0.1C26.4,89.6,22.8,89.6,19.5,92.1c-5.6,4.301-9,4.2-14.7-0.1c-1-0.8-2.1-1.4-3.399-1.5
	C0.1,90.4-0.1,89.7,0,88.6c0.2-1.5,1.3-0.8,2-0.699c1.8,0.3,3.4,1.199,4.8,2.3c3.601,3,7,3,10.5,0.1c4.5-3.7,9.3-3.7,13.8,0.101
	c3.2,2.699,7,2.8,10.301,0.1c5.1-4,9.3-4,14.3,0c3.1,2.5,6.7,2.5,9.899,0.1c5.2-4.1,8-4,13.301,0.2c2.8,2.2,6.5,2.2,9.3,0
	c5.5-4.3,9.3-4.399,14.7-0.1c3,2.399,6.899,2.6,9.6,0c4.1-3.9,10.6-4,14.8,0c2.8,2.8,6.8,2.399,10-0.3c1.7-1.4,3.5-2.4,5.601-2.7
	c0.699-0.101,1.399-0.2,1.3,0.8c0,0.7,0.5,1.7-0.8,1.8c-2.101,0.2-3.7,1.5-5.301,2.8C136.5,94.4,134.3,95,132.1,95.1z"/>
<path fill="#597FAC" d="M83.8,56.3c-2.7-0.1-5-0.9-7-2.6c-3.6-3-5.899-2.9-9.5,0.1c-4.1,3.3-9.2,3.3-13.3-0.1
	c-3.7-3.1-7.1-3.1-10.9,0c-4.199,3.4-9.199,3.4-13.5-0.2c-3.5-2.9-7-2.9-10.6,0c-4.4,3.6-9.3,3.6-13.7,0c-1.2-1-2.5-1.9-4.1-2.1
	C0,51.3-0.1,50.5,0,49.6c0.1-1.3,1.1-0.9,1.8-0.8c2,0.3,3.7,1.2,5.2,2.5c3.5,3,7,2.9,10.6-0.1c4.4-3.7,9.301-3.6,13.601,0
	c3.5,3,7,3,10.5,0c4.6-3.8,9.5-3.7,14,0.2c3.1,2.6,6.8,2.7,10,0c4.6-3.8,8.1-3.8,12.8-0.1c3.3,2.7,6.9,2.7,10.2,0
	c4.7-3.9,9.3-3.9,14,0c3.399,2.8,7,2.8,10.399-0.1c4.5-3.8,9.5-3.7,14,0.1c3.2,2.7,6.801,2.8,10,0.1c1.7-1.4,3.5-2.6,5.801-2.8
	c0.5,0,1.399-0.5,1.399,0.6c0,0.7,0.5,1.8-0.7,1.9c-2.399,0.2-4,1.8-5.899,3.1c-3.601,2.5-8.601,2.2-12-0.6
	c-4.101-3.4-7.101-3.4-11.3-0.1c-4.101,3.3-9.2,3.2-13.301-0.2c-3.6-3-7.1-3-10.699,0C88.4,55.3,86.2,56.2,83.8,56.3z"/>
<path fill="#597FAD" d="M120.1,76.9c-2.1-0.101-3.699,0.699-5.199,2C110.2,82.8,105.5,82.8,100.8,78.8c-3-2.5-6.8-2.5-9.899-0.1
	c-5.301,4.2-9.4,4.2-14.5,0c-2.801-2.3-5.601-2.3-8.5,0c-5.101,4-9.301,4.1-14.301,0c-3.1-2.5-6.8-2.5-9.899,0
	c-5.101,4.1-9.3,4.1-14.3,0c-3-2.5-6.801-2.5-9.9,0c-5.2,4.2-9.3,4.1-14.5,0c-1.1-0.8-2.2-1.5-3.6-1.601C0,77,0,76.1,0.1,75.1
	C0.3,73.8,1.3,74.3,1.9,74.4C3.8,74.8,5.4,75.6,6.9,76.8c3.6,3,7,3,10.6,0.101c4.5-3.7,9.3-3.7,13.8,0.1c3.3,2.8,6.9,2.8,10.2,0
	c4.7-3.9,9.5-3.9,14.2,0c3.2,2.6,6.899,2.7,10.1,0.1c4.8-3.899,8-3.899,12.8-0.1c3.5,2.8,6.9,2.8,10.4-0.2c4.3-3.6,9.4-3.6,13.6,0
	c3.301,2.9,7,2.9,10.4,0.2c4.8-3.9,9.5-3.9,14.2,0c3.2,2.7,6.8,2.7,10,0c1.7-1.4,3.6-2.5,5.8-2.8c0.7-0.101,1.5-0.2,1.4,0.899
	c0,0.801,0.199,1.601-1,1.7c-2,0.101-3.4,1.3-4.9,2.5c-3.8,3.101-8.9,3-12.7-0.1C124,78,122.3,76.9,120.1,76.9z"/>
</svg>
