<?xml version="1.0" encoding="UTF-8" standalone="no"?>
<!-- Generator: Adobe Illustrator 16.0.0, SVG Export Plug-In . SVG Version: 6.00 Build 0)  -->

<svg
   version="1.1"
   id="_x35_0m"
   x="0px"
   y="0px"
   width="144px"
   height="144px"
   viewBox="0 0 144 144"
   enable-background="new 0 0 144 144"
   xml:space="preserve"
   sodipodi:docname="danger_1_box.svg"
   inkscape:version="1.2.1 (9c6d41e410, 2022-07-14)"
   xmlns:inkscape="http://www.inkscape.org/namespaces/inkscape"
   xmlns:sodipodi="http://sodipodi.sourceforge.net/DTD/sodipodi-0.dtd"
   xmlns="http://www.w3.org/2000/svg"
   xmlns:svg="http://www.w3.org/2000/svg"><defs
   id="defs263" /><sodipodi:namedview
   id="namedview261"
   pagecolor="#ffffff"
   bordercolor="#000000"
   borderopacity="0.25"
   inkscape:showpageshadow="2"
   inkscape:pageopacity="0.0"
   inkscape:pagecheckerboard="0"
   inkscape:deskcolor="#d1d1d1"
   showgrid="false"
   inkscape:zoom="3.8694455"
   inkscape:cx="62.153608"
   inkscape:cy="54.788212"
   inkscape:window-width="1920"
   inkscape:window-height="986"
   inkscape:window-x="-11"
   inkscape:window-y="-11"
   inkscape:window-maximized="1"
   inkscape:current-layer="_x35_0m" />
<rect
   x="23.225508"
   y="5.2332134"
   fill="#ffffff"
   width="98.27256"
   height="135.80775"
   id="rect155"
   style="stroke-width:1.59314" /><polyline
   fill="#ec2227"
   points="109.149,21.097 109.149,122.899 34.851,122.899 34.851,21.097 "
   id="polyline246"
   transform="matrix(1.4125231,0,0,1.4125231,-29.701663,-29.636233)" />
<polyline
   fill="#ffffff"
   points="39.183,25.429 39.183,118.567 104.817,118.567 104.817,25.429 "
   id="polyline248"
   transform="matrix(1.4125231,0,0,1.4125231,-29.701663,-29.636233)" />
<g
   id="g258"
   transform="matrix(1.4125231,0,0,1.4125231,-29.625924,-29.636233)">
	<g
   id="g256">
		<g
   id="g254">
			<path
   fill="#ec2227"
   d="m 56.557,28.136 4.981,63.468 c 0.109,1.299 2.275,3.032 3.684,3.032 h 13.972 c 1.3,0 2.815,-1.841 3.032,-3.141 l 5.091,-63.251 c 0.217,-1.516 -0.976,-2.815 -2.491,-2.815 h -25.67 c -1.516,0 -2.707,1.19 -2.599,2.707 z"
   id="path250" />
			<path
   fill="#ec2227"
   d="M 78.218,118.571 H 65.655 c -2.274,0 -4.117,-1.842 -4.117,-4.115 v -12.563 c 0,-2.274 1.843,-4.116 4.117,-4.116 h 12.563 c 2.275,0 4.115,1.842 4.115,4.116 v 12.563 c 0,2.273 -1.84,4.115 -4.115,4.115 z"
   id="path252" />
		</g>
	</g>
</g>
</svg>
