<?xml version="1.0" encoding="utf-8"?>
<!-- Generator: Adobe Illustrator 16.0.0, SVG Export Plug-In . SVG Version: 6.00 Build 0)  -->
<!DOCTYPE svg PUBLIC "-//W3C//DTD SVG 1.1//EN" "http://www.w3.org/Graphics/SVG/1.1/DTD/svg11.dtd">
<svg version="1.1" id="_x35_0m" xmlns="http://www.w3.org/2000/svg" xmlns:xlink="http://www.w3.org/1999/xlink" x="0px" y="0px"
	 width="144px" height="144px" viewBox="0 0 144 144" enable-background="new 0 0 144 144" xml:space="preserve">
<g>
	<path fill="#010101" d="M22.163,22.399c4.653,0,8.448,0.997,11.388,3.093s5.144,4.987,6.734,8.778
		c1.592,3.791,2.694,8.38,3.184,13.666c0.49,5.287,0.857,11.272,0.857,17.855c0,7.781-0.367,14.664-1.102,20.351
		c-0.735,5.686-1.96,10.574-3.673,14.265c-1.715,3.791-4.042,6.483-6.98,8.379c-2.939,1.796-6.612,2.793-11.144,2.793H0v-89.18
		H22.163z M19.591,98.213c2.327,0,4.286-0.499,5.756-1.597c1.47-1.097,2.572-2.893,3.428-5.386c0.857-2.494,1.47-5.786,1.715-9.876
		s0.367-9.178,0.367-15.163c0-5.087-0.122-9.477-0.367-13.367c-0.245-3.789-0.733-6.982-1.591-9.576
		c-0.735-2.493-1.96-4.488-3.429-5.785c-1.47-1.297-3.552-1.895-6.122-1.895h-5.756v62.645H19.591L19.591,98.213z"/>
	<path fill="#010101" d="M64.041,85.976c0,2.028,0.122,3.864,0.367,5.506c0.245,1.643,0.734,3.092,1.47,4.155
		c0.734,1.158,1.592,2.028,2.815,2.705c1.102,0.677,2.571,0.966,4.408,0.966c2.082,0,3.918-0.869,5.633-2.608
		c1.592-1.738,2.449-4.444,2.449-8.02c0-1.933-0.245-3.574-0.612-5.023c-0.368-1.449-1.103-2.706-2.082-3.769
		c-0.979-1.159-2.203-2.126-3.673-3.092s-3.429-1.836-5.634-2.803c-2.938-1.255-5.632-2.704-7.714-4.25
		c-2.204-1.547-4.04-3.286-5.51-5.411c-1.47-2.029-2.571-4.445-3.184-7.149c-0.735-2.706-0.979-5.797-0.979-9.373
		c0-8.502,1.837-14.879,5.511-19.13c3.673-4.155,8.693-6.28,15.183-6.28c2.939,0,5.755,0.387,8.326,1.255
		c2.572,0.87,4.654,2.223,6.612,4.06c1.837,1.933,3.307,4.348,4.286,7.246s1.592,6.473,1.592,10.531v2.415H79.959
		c0-4.058-0.612-7.246-1.715-9.468c-1.103-2.224-2.938-3.286-5.632-3.286c-1.47,0-2.694,0.291-3.797,0.87
		c-0.979,0.579-1.836,1.353-2.325,2.222c-0.612,0.967-0.98,2.03-1.225,3.188c-0.245,1.16-0.368,2.416-0.368,3.769
		c0,2.705,0.49,4.928,1.348,6.667c0.857,1.836,2.693,3.479,5.632,5.023l10.408,5.797c2.572,1.449,4.652,2.995,6.245,4.542
		c1.592,1.546,2.938,3.284,3.918,5.024c0.98,1.835,1.593,3.768,1.96,5.99s0.612,4.639,0.612,7.246c0,9.082-2.082,15.75-6.123,19.904
		c-4.04,4.154-9.796,6.184-17.143,6.184c-7.592,0-13.103-2.126-16.408-6.378c-3.307-4.25-4.898-10.435-4.898-18.357v-3.478h13.47
		L64.041,85.976L64.041,85.976z"/>
	<path fill="#010101" d="M112.652,85.976c0,2.028,0.123,3.864,0.368,5.506c0.244,1.643,0.734,3.092,1.468,4.155
		c0.736,1.158,1.593,2.028,2.817,2.705c1.102,0.677,2.571,0.966,4.408,0.966c2.082,0,3.918-0.869,5.632-2.608
		c1.593-1.738,2.449-4.444,2.449-8.02c0-1.933-0.244-3.574-0.612-5.023c-0.367-1.449-1.102-2.706-2.081-3.769
		c-0.98-1.159-2.205-2.126-3.673-3.092c-1.47-0.966-3.43-1.836-5.634-2.803c-2.938-1.255-5.632-2.704-7.714-4.25
		c-2.204-1.547-4.041-3.286-5.51-5.411c-1.47-2.029-2.571-4.445-3.184-7.149c-0.735-2.706-0.98-5.797-0.98-9.373
		c0-8.502,1.837-14.879,5.51-19.13c3.674-4.155,8.695-6.28,15.185-6.28c2.939,0,5.755,0.387,8.326,1.255
		c2.572,0.87,4.652,2.223,6.612,4.06c1.837,1.933,3.307,4.348,4.286,7.246s1.592,6.473,1.592,10.531v2.415h-12.979
		c0-4.058-0.612-7.246-1.715-9.468c-1.103-2.224-2.939-3.286-5.632-3.286c-1.47,0-2.694,0.291-3.797,0.87
		c-0.979,0.579-1.837,1.353-2.325,2.222c-0.612,0.967-0.981,2.03-1.225,3.188c-0.245,1.16-0.368,2.416-0.368,3.769
		c0,2.705,0.49,4.928,1.348,6.667c0.856,1.836,2.693,3.479,5.632,5.023l10.408,5.797c2.572,1.449,4.652,2.995,6.245,4.542
		c1.592,1.546,2.938,3.284,3.918,5.024c0.98,1.835,1.593,3.768,1.96,5.99c0.366,2.223,0.612,4.639,0.612,7.246
		c0,9.082-2.082,15.75-6.123,19.904c-4.04,4.154-9.796,6.184-17.143,6.184c-7.592,0-13.103-2.126-16.408-6.378
		c-3.307-4.25-4.898-10.435-4.898-18.357v-3.478h13.47L112.652,85.976L112.652,85.976z"/>
</g>
</svg>
