<?xml version="1.0" encoding="utf-8"?>
<!-- Generator: Adobe Illustrator 16.0.0, SVG Export Plug-In . SVG Version: 6.00 Build 0)  -->
<!DOCTYPE svg PUBLIC "-//W3C//DTD SVG 1.1//EN" "http://www.w3.org/Graphics/SVG/1.1/DTD/svg11.dtd">
<svg version="1.1" id="_x35_0m" xmlns="http://www.w3.org/2000/svg" xmlns:xlink="http://www.w3.org/1999/xlink" x="0px" y="0px"
	 width="144px" height="144px" viewBox="0 0 144 144" enable-background="new 0 0 144 144" xml:space="preserve">
<g>
	<g>
		<g>
			<defs>
				<polygon id="SVGID_5_" points="-213.87,1 -212.87,1 -213.87,2 				"/>
			</defs>
			<defs>
				<polygon id="SVGID_6_" points="-215.87,-1 -216.87,-1 -215.87,-2 				"/>
			</defs>
			<clipPath id="SVGID_4_">
				<use xlink:href="#SVGID_5_"  overflow="visible"/>
			</clipPath>
			<clipPath id="SVGID_7_" clip-path="url(#SVGID_4_)">
				<use xlink:href="#SVGID_6_"  overflow="visible"/>
			</clipPath>
		</g>
	</g>
</g>
<g>
	<g>
		<g>
			<defs>
				<polygon id="SVGID_31_" points="-213.87,1 -212.87,1 -213.87,2 				"/>
			</defs>
			<defs>
				<polygon id="SVGID_32_" points="-215.87,-1 -216.87,-1 -215.87,-2 				"/>
			</defs>
			<clipPath id="SVGID_8_">
				<use xlink:href="#SVGID_31_"  overflow="visible"/>
			</clipPath>
			<clipPath id="SVGID_11_" clip-path="url(#SVGID_8_)">
				<use xlink:href="#SVGID_32_"  overflow="visible"/>
			</clipPath>
		</g>
	</g>
</g>
<g>
	<g id="XMLID_17_">
		<path id="XMLID_18_" fill="#A6A5A5" d="M112.206,79.718c-6.394,3.919-28.977,8.559-51.973,7.424
			c-34.545-1.649-77.135-4.846-53.314-11.961c0.104,0,0.208-0.104,0.208-0.104c2.063-0.722,29.697-11.033,44.444-19.696
			c0.31-0.206,0.721-0.309,1.031-0.412c1.134-0.31,2.268-0.206,3.299,0.412c7.734,4.229,33.721,17.737,51.562,19.8
			C114.577,75.902,115.402,77.759,112.206,79.718z"/>
	</g>
	<g id="XMLID_15_">
		<path id="XMLID_16_" fill="#C8C8C8" d="M112.206,79.718c-4.125,0.31-8.25,0.412-12.375,0.412c-13.611,0-27.224-0.618-40.836-2.063
			c-1.236-0.103-5.053-0.516-3.609-2.784c0.311-0.516,0.826-0.825,1.342-1.134c1.855-1.031,3.814-1.444,5.877-2.063
			c1.031-0.31,7.115-1.341,4.95-3.609c-0.31-0.31-0.722-0.516-1.031-0.722c-0.412-0.207-0.722-0.412-1.134-0.516
			c-0.825-0.412-1.754-0.723-2.578-1.238c-1.959-1.134-3.816-2.681-5.363-4.33c-1.854-1.96-3.609-4.229-4.846-6.703
			c1.134-0.31,2.268-0.206,3.299,0.412c7.734,4.229,33.721,17.737,51.562,19.8C114.577,75.902,115.402,77.759,112.206,79.718z"/>
	</g>
	<g id="XMLID_13_">
		<path id="XMLID_14_" fill="#A6A5A5" d="M104.369,89.515c-16.603,0-62.285-1.031-43.312-10.519c0,0,22.893-10.519,35.371-19.387
			c0.412-0.31,0.824-0.413,1.34-0.516c0.516,0,1.031,0.103,1.444,0.516c4.021,2.888,15.983,10.931,28.151,15.262
			c4.021,1.443,8.044,2.475,11.756,2.681C157.063,79.099,120.971,89.515,104.369,89.515z"/>
	</g>
	<g id="XMLID_11_">
		<path id="XMLID_12_" fill="#C8C8C8" d="M127.261,74.871c-1.752,0.206-3.505,0.206-5.361,0.206
			c-6.909-0.104-13.921-0.104-20.83-0.206c-2.372,0-4.95-0.104-6.909-1.855c-0.723-0.62-1.238-1.444-1.444-2.476
			c-0.205-1.134,0.206-2.269,0.619-3.3c1.031-2.681,2.475-5.053,3.918-7.425c0.104-0.206,0.207-0.412,0.31-0.619
			c0.516,0,1.031,0.104,1.444,0.516C103.234,62.497,115.093,70.54,127.261,74.871z"/>
	</g>
</g>
</svg>
