<?xml version="1.0" encoding="utf-8"?>
<!-- Generator: Adobe Illustrator 16.0.0, SVG Export Plug-In . SVG Version: 6.00 Build 0)  -->
<!DOCTYPE svg PUBLIC "-//W3C//DTD SVG 1.1//EN" "http://www.w3.org/Graphics/SVG/1.1/DTD/svg11.dtd">
<svg version="1.1" id="_x35_0m" xmlns="http://www.w3.org/2000/svg" xmlns:xlink="http://www.w3.org/1999/xlink" x="0px" y="0px"
	 width="144px" height="144px" viewBox="0 0 144 144" enable-background="new 0 0 144 144" xml:space="preserve">
<g>
	<g id="XMLID_66_">
		<path id="XMLID_67_" fill="#F2C920" d="M0,80.275c0,0,2.749,13.639,83.458,13.639c58.522,0,60.457-21.78,60.457-21.78L0,80.275z"
			/>
	</g>
	<g id="XMLID_68_">
		<g id="XMLID_69_">
			<path id="XMLID_70_" fill="#DCA027" d="M54.554,68.266c-7.837,0-29.414-0.611-20.458-6.209c0,0,10.789-6.208,16.692-11.398
				c0.203-0.203,0.407-0.306,0.61-0.306s0.509,0.103,0.712,0.306c1.934,1.628,7.532,6.412,13.333,8.957
				c1.934,0.813,3.766,1.424,5.598,1.628C79.49,62.159,62.391,68.266,54.554,68.266z"/>
		</g>
		<g id="XMLID_71_" opacity="0.6">
			<path id="XMLID_72_" fill="#BD8E2D" d="M65.444,59.716c-0.814,0.103-1.628,0.103-2.544,0.103c-3.257,0-6.514-0.103-9.873-0.103
				c-1.12,0-2.341-0.101-3.257-1.119c-0.305-0.407-0.61-0.813-0.712-1.425c-0.102-0.713,0.102-1.323,0.305-1.934
				c0.509-1.629,1.12-2.952,1.832-4.377c0.102-0.102,0.102-0.306,0.204-0.406c0.204,0,0.509,0.101,0.712,0.305
				C54.044,52.388,59.643,57.07,65.444,59.716z"/>
		</g>
	</g>
	<g id="XMLID_73_">
		<g id="XMLID_74_">
			<path id="XMLID_75_" fill="#DCA027" d="M99.54,68.266c-7.836,0-29.414-0.611-20.458-6.209c0,0,10.789-6.208,16.692-11.398
				c0.203-0.203,0.406-0.306,0.61-0.306c0.204,0,0.509,0.103,0.712,0.306c1.933,1.628,7.531,6.412,13.333,8.957
				c1.934,0.813,3.766,1.424,5.598,1.628C124.374,62.159,107.376,68.266,99.54,68.266z"/>
		</g>
		<g id="XMLID_76_" opacity="0.6">
			<path id="XMLID_77_" fill="#BD8E2D" d="M110.329,59.716c-0.814,0.103-1.629,0.103-2.544,0.103c-3.257,0-6.515-0.103-9.873-0.103
				c-1.119,0-2.34-0.101-3.257-1.119c-0.305-0.407-0.61-0.813-0.713-1.425c-0.101-0.713,0.103-1.323,0.306-1.934
				c0.509-1.629,1.119-2.952,1.832-4.377c0.101-0.102,0.101-0.306,0.204-0.406c0.203,0,0.509,0.101,0.711,0.305
				C99.03,52.388,104.628,57.07,110.329,59.716z"/>
		</g>
	</g>
	<g id="XMLID_6_">
		<g id="XMLID_9_">
			<path id="XMLID_10_" fill="#E4AD26" d="M106.563,71.217c-3.766,2.342-17.099,4.987-30.635,4.378
				c-20.356-1.019-45.394-2.852-31.348-7.023c0.102,0,0.102,0,0.102,0c1.221-0.407,17.506-6.515,26.157-11.604
				c0.204-0.102,0.407-0.202,0.611-0.305c0.611-0.204,1.323-0.102,1.934,0.203c4.478,2.443,19.847,10.483,30.33,11.604
				C107.988,68.979,108.497,69.996,106.563,71.217z"/>
		</g>
		<g id="XMLID_7_" opacity="0.6">
			<path id="XMLID_8_" fill="#BE8E2D" d="M106.563,71.217c-2.443,0.204-4.885,0.307-7.328,0.307c-8.04,0-16.081-0.408-24.02-1.222
				c-0.712-0.103-2.952-0.306-2.138-1.629c0.204-0.306,0.509-0.509,0.815-0.61c1.119-0.61,2.238-0.814,3.46-1.222
				c0.611-0.204,4.173-0.713,2.952-2.137c-0.204-0.204-0.407-0.306-0.611-0.408c-0.203-0.101-0.406-0.203-0.711-0.305
				c-0.509-0.204-1.018-0.407-1.527-0.713c-1.222-0.713-2.239-1.628-3.156-2.544c-1.119-1.119-2.137-2.442-2.85-3.969
				c0.611-0.204,1.323-0.103,1.934,0.202c4.478,2.443,19.847,10.484,30.33,11.604C107.988,68.979,108.497,69.996,106.563,71.217z"/>
		</g>
	</g>
	<g id="XMLID_1_">
		<g id="XMLID_4_">
			<path id="XMLID_5_" fill="#EAB520" d="M120.608,77.63c-9.771,0-36.742-0.611-25.546-6.209c0,0,13.537-6.208,20.865-11.399
				c0.204-0.203,0.509-0.306,0.814-0.306s0.61,0.103,0.917,0.306c2.341,1.629,9.363,6.413,16.59,8.957
				c2.34,0.814,4.681,1.425,6.92,1.628C151.65,71.523,130.379,77.63,120.608,77.63z"/>
		</g>
		<g id="XMLID_2_" opacity="0.6">
			<path id="XMLID_3_" fill="#BD8E2D" d="M134.144,69.08c-1.018,0.102-2.137,0.102-3.155,0.102c-4.071,0-8.142-0.102-12.315-0.102
				c-1.425,0-2.952-0.102-4.071-1.119c-0.408-0.407-0.713-0.815-0.815-1.426c-0.101-0.712,0.103-1.322,0.408-1.934
				c0.61-1.628,1.425-2.951,2.341-4.377c0.102-0.101,0.102-0.305,0.204-0.406c0.305,0,0.61,0.102,0.917,0.306
				C119.895,61.752,126.918,66.435,134.144,69.08z"/>
		</g>
	</g>
	<g id="XMLID_88_">
		<g id="XMLID_89_">
			<path id="XMLID_90_" fill="#EAB520" d="M42.137,85.06c-14.555,0-54.757-0.814-38.167-8.855c0,0,20.152-8.854,31.144-16.386
				c0.408-0.203,0.814-0.407,1.222-0.407c0.407,0,0.916,0.102,1.323,0.407c3.461,2.341,13.944,9.16,24.63,12.824
				c3.46,1.222,7.023,2.035,10.382,2.341C88.446,76.204,56.691,85.06,42.137,85.06z"/>
		</g>
		<g id="XMLID_91_" opacity="0.6">
			<path id="XMLID_92_" fill="#BD8E2D" d="M62.289,72.643c-1.526,0.203-3.155,0.203-4.682,0.101c-6.107,0-12.213-0.101-18.32-0.101
				c-2.137,0-4.376-0.102-6.005-1.527c-0.61-0.509-1.12-1.221-1.221-2.137s0.204-1.934,0.509-2.748
				c0.917-2.239,2.137-4.275,3.359-6.311c0.102-0.204,0.203-0.407,0.305-0.509c0.407,0,0.916,0.102,1.323,0.407
				C41.119,62.159,51.602,68.979,62.289,72.643z"/>
		</g>
	</g>
	<g id="XMLID_93_">
		<g id="XMLID_94_">
			<path id="XMLID_95_" fill="#F2C920" d="M122.948,86.688c-5.495,3.766-24.732,8.143-44.375,7.124
				c-29.516-1.628-65.749-4.681-45.495-11.5c0.102,0,0.102,0,0.204-0.102c1.73-0.713,25.343-10.586,37.862-18.829
				c0.305-0.204,0.61-0.307,0.916-0.407c0.916-0.306,1.934-0.204,2.85,0.407c6.513,4.071,28.701,16.996,43.968,18.931
				C124.984,83.023,125.697,84.754,122.948,86.688z"/>
		</g>
		<g id="XMLID_96_" opacity="0.6">
			<path id="XMLID_97_" fill="#BD8E2D" d="M122.948,86.688c-3.46,0.305-7.022,0.407-10.584,0.407
				c-11.603,0-23.205-0.611-34.808-1.934c-1.119-0.102-4.275-0.509-3.053-2.646c0.305-0.509,0.712-0.813,1.119-1.018
				c1.629-1.018,3.257-1.425,4.987-2.035c0.917-0.306,6.005-1.222,4.275-3.461c-0.204-0.306-0.611-0.509-0.917-0.713
				c-0.305-0.203-0.61-0.406-1.018-0.509c-0.713-0.406-1.424-0.712-2.239-1.221c-1.729-1.12-3.256-2.544-4.58-4.174
				c-1.527-1.831-3.053-4.07-4.173-6.411c0.917-0.306,1.935-0.204,2.85,0.407c6.515,4.071,28.702,16.996,43.969,18.931
				C124.984,83.023,125.697,84.754,122.948,86.688z"/>
		</g>
	</g>
</g>
</svg>
