<?xml version="1.0" encoding="utf-8"?>
<!-- Generator: Adobe Illustrator 16.0.0, SVG Export Plug-In . SVG Version: 6.00 Build 0)  -->
<!DOCTYPE svg PUBLIC "-//W3C//DTD SVG 1.1//EN" "http://www.w3.org/Graphics/SVG/1.1/DTD/svg11.dtd">
<svg version="1.1" id="_x35_0m" xmlns="http://www.w3.org/2000/svg" xmlns:xlink="http://www.w3.org/1999/xlink" x="0px" y="0px"
	 width="144px" height="144px" viewBox="0 0 144 144" enable-background="new 0 0 144 144" xml:space="preserve">
<g>
	<g>
		<g>
			<path fill="#FFFFFF" d="M94.444,61.48c-1.22-1.336-3.587,0.802-5.113,1.069c-4.313-1.908-7.481-5.42-11.26-8.035
				c-2.405-1.355-6.222,2.1-8.665,3.168c-13.645,7.023-12.328-13.016-28.245,1.031c-4.999-7.673-11.889,0.915-17.69,2.919
				c-15.344,3.894-22.404,5.802-1.85,10.993C15.207,77.76,7.307,77.854,0.17,80.965c-4.313,12.119,74.828,5.534,86.146,6.757
				c-13.893,5.705,37.023,2.442,41.489,3.129c27.309-5.571,15.478-6.545-1.813-12.977c2.729-0.382,23.188-1.546,13.913-4.504
				c-7.368-2.31-14.295-5.61-20.059-10.992c-5.267-0.229-9.103,5.247-14.541,5.152C101.259,66.29,98.091,63.274,94.444,61.48
				L94.444,61.48z"/>
			<path fill="#EAB520" d="M89.313,62.55c1.507-0.4,2.861-1.508,4.406-1.47c0.039,0.496,0.44,0.344,0.707,0.4
				c5.345,11.736,16.68,3.474,24.886,0.725c3.417,9.467,14.522,9.542,22.959,11.966c0.114,3.703-12.673,2.577-16.299,3.703
				c17.195,6.411,29.199,7.385,1.813,12.977c-4.446-0.667-55.287,2.576-41.47-3.129c-11.374-1.26-90.154,5.42-86.127-6.757
				c7.138-3.11,15.038-3.187,21.451-8.339c-20.554-5.191-13.475-7.1,1.852-10.993c4.731-1.47,8.682-6.698,13.836-6.087
				c2.88,11.412,17.041,10.553,26.183,13.187c-7.08-4.218-16.546-3.358-22.349-10.039c3.971-1.354,6.681-6.239,11.184-5.477
				c5.592,12.424,16.719,3.55,25.211,0.879c-0.019,0.361,0.248,0.382,0.516,0.4l0.019,0.019
				C78.566,58.904,85.112,64.592,89.313,62.55z M79.578,63.484c-0.095-0.037-0.19-0.19-0.248-0.058
				C79.407,63.447,79.483,63.466,79.578,63.484c0.974,7.328,9.065,10.019,15.306,11.126c-1.622,1.488-3.798,1.831-5.706,2.92
				c4.294,0.82,9.732-1.89,10.993-6.317c0.037-0.019,0.075-0.019,0.075-0.075c-0.019,0.019-0.057,0.057-0.075,0.075
				C93.014,77.167,85.019,67.893,79.578,63.484z M28.204,70.488c3.454,15.63,42.195,17.5,46.45,1.641
				c-2.595,2.521-3.568-2.117-6.106-2.996c0.879,1.852,0.916,3.74,2.71,5.001c-2.291,5.744-11.756,6.87-17.328,9.046
				c-7.08-2.863-15.821-2.978-21.47-8.894c-1.298-1.184,0.573-0.381,0.457-1.355C30.475,73.866,30.17,70.966,28.204,70.488z
				 M89.082,86.69c8.931-2.614,23.551-1.832,26.069-13.358C108.377,81.786,98.319,82.55,89.082,86.69z M54.312,74.592
				c-4.084-1.05-7.405-4.314-10.802-5.955C44.178,72.664,50.284,75.604,54.312,74.592z"/>
			<path fill="#BE8E2D" d="M41.161,58.714c5.803,6.679,15.269,5.82,22.349,10.037c-9.123-2.652-23.303-1.773-26.183-13.187
				C39.12,55.966,39.845,57.683,41.161,58.714z"/>
			<path fill="#BE8E2D" d="M139.904,73.37c-7.443-1.336-17.826-2.31-20.059-10.992C125.609,67.76,132.536,71.061,139.904,73.37z"/>
			<path fill="#BE8E2D" d="M89.313,62.55c-4.2,2.022-10.746-3.646-11.241-8.035C81.831,57.148,85.019,60.642,89.313,62.55z"/>
			<path fill="#BE8E2D" d="M63.224,59.591c-4.143,1.203-9.543-2.252-10.879-6.354C55.934,55.24,59.216,58.121,63.224,59.591z"/>
			<path fill="#BE8E2D" d="M105.305,67.53c-3.989,1.184-9.6-2.08-10.86-6.031C98.091,63.274,101.259,66.29,105.305,67.53z"/>
			<path fill="#C8C8C8" d="M94.444,61.48c-0.285-0.038-0.666,0.096-0.705-0.4C94.025,61.137,94.426,60.966,94.444,61.48z"/>
			<path fill="#C8C8C8" d="M78.071,54.515c-0.249-0.019-0.516-0.037-0.516-0.4C77.841,54.114,78.109,54.114,78.071,54.515z"/>
			<path fill="#BE8E2D" d="M28.204,70.488c1.966,0.458,2.271,3.378,4.694,2.462c0.153,1.012-1.794,0.095-0.458,1.355
				c5.668,5.915,14.391,6.029,21.47,8.893c5.573-2.156,15.057-3.301,17.329-9.046c-1.794-1.26-1.833-3.149-2.71-5.001
				c2.557,0.86,3.512,5.517,6.106,2.996C70.418,87.969,31.678,86.156,28.204,70.488z"/>
			<path fill="#BE8E2D" d="M100.171,71.194c-1.241,4.428-6.699,7.138-10.993,6.316c1.89-1.069,4.065-1.431,5.706-2.919
				c-6.222-1.107-14.332-3.799-15.306-11.107l0.021-0.019C85.019,67.874,93.014,77.187,100.171,71.194L100.171,71.194z"/>
			<path fill="#BE8E2D" d="M89.082,86.69c9.237-4.141,19.295-4.923,26.069-13.358C112.633,84.858,98.033,84.095,89.082,86.69z"/>
			<path fill="#BE8E2D" d="M54.312,74.592c-4.009,1.012-10.134-1.928-10.802-5.955C46.906,70.277,50.208,73.542,54.312,74.592z"/>
			<path fill="#C8C8C8" d="M79.56,63.484c-0.076-0.019-0.152-0.058-0.249-0.076C79.388,63.274,79.483,63.447,79.56,63.484
				C79.578,63.484,79.56,63.484,79.56,63.484z"/>
			<path fill="#C8C8C8" d="M100.151,71.194c0.02-0.02,0.057-0.057,0.076-0.076C100.246,71.175,100.208,71.175,100.151,71.194
				C100.171,71.194,100.151,71.194,100.151,71.194z"/>
		</g>
	</g>
</g>
</svg>
