<?xml version="1.0" encoding="utf-8"?>
<!-- Generator: Adobe Illustrator 16.0.0, SVG Export Plug-In . SVG Version: 6.00 Build 0)  -->
<!DOCTYPE svg PUBLIC "-//W3C//DTD SVG 1.1//EN" "http://www.w3.org/Graphics/SVG/1.1/DTD/svg11.dtd">
<svg version="1.1" id="_x35_0m" xmlns="http://www.w3.org/2000/svg" xmlns:xlink="http://www.w3.org/1999/xlink" x="0px" y="0px"
	 width="144px" height="144px" viewBox="0 0 144 144" enable-background="new 0 0 144 144" xml:space="preserve">
<g>
	<path fill="#010101" d="M20.931,22.396c4.494,0,8,1.043,10.739,3.025c2.74,2.087,4.822,5.01,6.357,8.767
		c1.533,3.755,2.521,8.348,3.068,13.668c0.548,5.322,0.768,11.271,0.768,17.947c0,7.827-0.33,14.715-0.987,20.454
		c-0.657,5.842-1.863,10.539-3.507,14.293c-1.644,3.758-3.836,6.576-6.685,8.349c-2.739,1.88-6.356,2.714-10.521,2.714H0V22.396
		H20.931z M18.41,98.465c2.301,0,4.056-0.521,5.37-1.668c1.314-1.045,2.41-2.922,3.288-5.427c0.767-2.505,1.314-5.844,1.644-9.914
		c0.219-4.068,0.438-9.183,0.438-15.233c0-5.113-0.108-9.601-0.328-13.356c-0.22-3.86-0.768-6.991-1.425-9.601
		c-0.767-2.505-1.863-4.485-3.287-5.738c-1.425-1.253-3.398-1.984-5.809-1.984h-5.37v62.922H18.41z"/>
	<path fill="#010101" d="M80.438,83.464h0.22V22.396h11.726v89.156H77.808l-15.671-62.42h-0.219v62.42H50.301V22.396h14.686
		L80.438,83.464z"/>
	<path fill="#010101" d="M112.767,22.396l8.219,28.828l8.11-28.828h13.918L128.22,66.521L144,111.584h-14.356l-9.096-30.18
		l-9.096,30.18H97.314l15.891-45.166L98.63,22.396H112.767z"/>
</g>
</svg>
