<?xml version="1.0" encoding="utf-8"?>
<!-- Generator: Adobe Illustrator 16.0.0, SVG Export Plug-In . SVG Version: 6.00 Build 0)  -->
<!DOCTYPE svg PUBLIC "-//W3C//DTD SVG 1.1//EN" "http://www.w3.org/Graphics/SVG/1.1/DTD/svg11.dtd">
<svg version="1.1" id="_x35_0m" xmlns="http://www.w3.org/2000/svg" xmlns:xlink="http://www.w3.org/1999/xlink" x="0px" y="0px"
	 width="144px" height="144px" viewBox="0 0 144 144" enable-background="new 0 0 144 144" xml:space="preserve">
<g>
	<path fill="#010101" d="M139.867,48.967v7.359h-0.102h-6.553V49.27c0-0.504-0.404-0.908-0.908-0.908s-0.908,0.404-0.908,0.908
		v1.412c-0.303,0-0.605,0-0.807,0.301c-10.789,15.023-20.568,14.42-20.67,14.42c-2.924-0.404-6.252-2.117-9.377-4.336V48.664h-3.934
		v7.865c-0.1,0-0.1-0.102-0.201-0.102h-1.713c-2.219-2.018-3.934-3.832-4.941-4.84v-2.219c0-0.504-0.404-0.906-0.908-0.906
		s-0.906,0.402-0.906,0.906v1.211c-0.102,0-0.203,0-0.203,0.102c-0.201,0.199-0.303,0.402-0.303,0.705
		c-0.1,0.102-0.201,0.102-0.201,0.102C76.344,66.611,66.461,66.006,66.361,66.006c-3.025-0.402-6.453-2.217-9.68-4.537V48.967H52.75
		v8.469c-0.203-0.1-0.404-0.201-0.607-0.201h-0.705c-3.227-2.924-5.545-5.545-5.848-5.848v-1.211c0-0.504-0.402-0.906-0.908-0.906
		c-0.504,0-0.906,0.402-0.906,0.906v0.506c-0.305,0-0.605,0.1-0.809,0.301c-10.688,15.023-20.568,14.42-20.67,14.42
		c-3.025-0.404-6.555-2.32-9.779-4.639V48.463H8.686v8.67H7.98C5.559,55.016,3.643,53,2.535,51.891v-1.715
		c0-0.504-0.404-0.906-0.908-0.906s-0.908,0.402-0.908,0.906v0.506c-0.1,0-0.301,0-0.402,0.1c-0.402,0.303-0.402,0.908-0.102,1.311
		c0.102,0.102,0.203,0.303,0.504,0.605v5.445c0,0.504,0.404,0.906,0.908,0.906h5.646c0.504,0.404,0.906,0.807,1.412,1.211v35.189
		h3.932V63.184c3.125,2.117,6.453,3.832,9.58,4.234c0,0,0.201,0,0.504,0c2.117,0,11.293-0.908,21.174-14.217v5.043
		c0,0.504,0.404,0.906,0.908,0.906h6.049c0.605,0.605,1.311,1.109,2.018,1.715v35.088h3.934V63.688
		c3.125,2.117,6.35,3.73,9.477,4.135c0,0,0.201,0,0.504,0c2.119,0,11.191-0.908,21.176-14.117v3.73c0,0.504,0.402,0.908,0.906,0.908
		h5.143c0.807,0.705,1.715,1.512,2.621,2.219V95.65h3.934V63.385c3.023,2.018,6.15,3.529,9.174,3.934c0,0,0.203,0,0.506,0
		c2.117,0,11.293-0.908,21.275-14.318v4.234c0,0.504,0.402,0.908,0.906,0.908h7.563h0.102v37.811H144V48.967H139.867z M2.535,57.033
		v-2.521c0.705,0.707,1.611,1.613,2.621,2.521H2.535z M45.691,57.234v-3.023c0.805,0.805,1.813,1.914,3.125,3.023H45.691z
		 M89.652,56.428v-2.117c0.605,0.604,1.311,1.311,2.117,2.117H89.652z"/>
</g>
</svg>
