<?xml version="1.0" encoding="utf-8"?>
<!-- Generator: Adobe Illustrator 16.0.0, SVG Export Plug-In . SVG Version: 6.00 Build 0)  -->
<!DOCTYPE svg PUBLIC "-//W3C//DTD SVG 1.1//EN" "http://www.w3.org/Graphics/SVG/1.1/DTD/svg11.dtd">
<svg version="1.1" id="_x35_0m" xmlns="http://www.w3.org/2000/svg" xmlns:xlink="http://www.w3.org/1999/xlink" x="0px" y="0px"
	 width="144px" height="144px" viewBox="0 0 144 144" enable-background="new 0 0 144 144" xml:space="preserve">
<path fill="#010101" d="M94.396,30.563H96.2h8.217v-8.918h-5.611V19.34c0-1.403-1.203-2.605-2.606-2.605h-1.804
	c-1.403,0-2.605,1.202-2.605,2.605v2.306H76.259V4.309C76.259,1.903,74.355,0,71.95,0s-4.31,1.903-4.31,4.309v17.235H52.71V19.24
	c0-1.403-1.202-2.605-2.605-2.605h-1.804c-1.403,0-2.605,1.202-2.605,2.605v2.304h-6.213v8.918h8.818h1.804h17.437v4.911H39.482
	v8.919h28.158V144h8.719V44.392h28.158v-8.919H76.259v-4.909H94.396L94.396,30.563z"/>
</svg>
