<?xml version="1.0" encoding="utf-8"?>
<!-- Generator: Adobe Illustrator 16.0.0, SVG Export Plug-In . SVG Version: 6.00 Build 0)  -->
<!DOCTYPE svg PUBLIC "-//W3C//DTD SVG 1.1//EN" "http://www.w3.org/Graphics/SVG/1.1/DTD/svg11.dtd">
<svg version="1.1" id="_x35_0m" xmlns="http://www.w3.org/2000/svg" xmlns:xlink="http://www.w3.org/1999/xlink" x="0px" y="0px"
	 width="144px" height="144px" viewBox="0 0 144 144" enable-background="new 0 0 144 144" xml:space="preserve">
<g>
	<circle fill="#3D93D0" cx="72" cy="72" r="67.3"/>
	<path fill="#010101" d="M138.3,44.001c-3.6-8.602-8.8-16.301-15.399-22.9C116.3,14.501,108.6,9.3,100,5.7
		c-8.9-3.801-18.3-5.699-28-5.699S52.9,1.899,44,5.7c-8.6,3.6-16.3,8.801-22.9,15.4S9.3,35.399,5.7,44.001
		C1.9,52.899,0,62.3,0,72.001C0,81.7,1.9,91.2,5.7,99.999c3.6,8.602,8.8,16.301,15.4,22.9S35.4,134.7,44,138.3
		c8.9,3.801,18.3,5.699,28,5.699s19.2-1.898,28-5.699c8.6-3.6,16.3-8.801,22.9-15.4c6.6-6.6,11.8-14.299,15.399-22.9
		c3.8-8.898,5.7-18.299,5.7-27.998C144,62.3,142.1,52.899,138.3,44.001z M25.5,112.601c-1.1-1.301-2.2-2.602-3.2-3.9l86.3-86.301
		c1.301,1,2.7,2.102,3.9,3.201L25.5,112.601z M117.6,30.501c1.101,1.199,2.2,2.5,3.2,3.799l-86.6,86.6c-1.3-1-2.6-2.1-3.8-3.199
		L117.6,30.501z M28.3,28.399C40,16.7,55.5,10.3,72,10.3c10.9,0,21.4,2.801,30.6,8.1l-84.2,84.201c-5.3-9.201-8.1-19.701-8.1-30.6
		C10.3,55.501,16.7,40.001,28.3,28.399z M115.7,115.7C104,127.3,88.5,133.8,72,133.8c-11.4,0-22.3-3.1-31.9-8.801L124.9,40.2
		c5.8,9.5,8.8,20.4,8.8,31.9C133.7,88.499,127.3,103.999,115.7,115.7z"/>
</g>
</svg>
