<?xml version="1.0" encoding="utf-8"?>
<!-- Generator: Adobe Illustrator 16.0.0, SVG Export Plug-In . SVG Version: 6.00 Build 0)  -->
<!DOCTYPE svg PUBLIC "-//W3C//DTD SVG 1.1//EN" "http://www.w3.org/Graphics/SVG/1.1/DTD/svg11.dtd">
<svg version="1.1" id="_x35_0m" xmlns="http://www.w3.org/2000/svg" xmlns:xlink="http://www.w3.org/1999/xlink" x="0px" y="0px"
	 width="144px" height="144px" viewBox="0 0 144 144" enable-background="new 0 0 144 144" xml:space="preserve">
<g>
	<g>
		<g>
			<defs>
				<polygon id="SVGID_5_" points="1,-213.87 2,-213.87 1,-212.87 				"/>
			</defs>
			<defs>
				<polygon id="SVGID_6_" points="-1,-215.87 -2,-215.87 -1,-216.87 				"/>
			</defs>
			<clipPath id="SVGID_4_">
				<use xlink:href="#SVGID_5_"  overflow="visible"/>
			</clipPath>
			<clipPath id="SVGID_7_" clip-path="url(#SVGID_4_)">
				<use xlink:href="#SVGID_6_"  overflow="visible"/>
			</clipPath>
		</g>
	</g>
</g>
<g>
	<g>
		<g>
			<defs>
				<polygon id="SVGID_31_" points="1,-213.87 2,-213.87 1,-212.87 				"/>
			</defs>
			<defs>
				<polygon id="SVGID_32_" points="-1,-215.87 -2,-215.87 -1,-216.87 				"/>
			</defs>
			<clipPath id="SVGID_8_">
				<use xlink:href="#SVGID_31_"  overflow="visible"/>
			</clipPath>
			<clipPath id="SVGID_11_" clip-path="url(#SVGID_8_)">
				<use xlink:href="#SVGID_32_"  overflow="visible"/>
			</clipPath>
		</g>
	</g>
</g>
<g>
	<circle fill="#3DB54A" cx="72" cy="72" r="68.1"/>
	<path fill="#010101" d="M72,144c-9.7,0-19.2-1.9-28-5.7c-8.6-3.6-16.3-8.8-22.9-15.399C14.5,116.3,9.3,108.6,5.7,100
		C1.9,91.2,0,81.7,0,72s1.9-19.2,5.7-28c3.6-8.601,8.8-16.3,15.4-22.899C27.7,14.5,35.4,9.3,44,5.7C52.8,1.899,62.3,0,72,0
		s19.2,1.899,28,5.7c8.6,3.6,16.3,8.8,22.9,15.4C129.5,27.7,134.7,35.399,138.3,44c3.8,8.899,5.7,18.3,5.7,28s-1.9,19.2-5.7,28
		c-3.6,8.6-8.8,16.3-15.399,22.9C116.3,129.5,108.6,134.7,100,138.3C91.2,142.1,81.7,144,72,144z M72,10.3c-16.5,0-32,6.4-43.7,18.1
		C16.6,40.101,10.3,55.5,10.3,72s6.4,32,18.1,43.7c11.7,11.7,27.2,18.1,43.7,18.1c16.5,0,32-6.399,43.7-18.1
		s18.101-27.2,18.101-43.6c0-16.4-6.4-32-18.101-43.701C104.1,16.7,88.5,10.3,72,10.3z"/>
	<g>
		<path fill="#010101" d="M70.3,53.101h-26V65h22.8v9H44.3v21.7H33.6V44h36.7V53.101z"/>
		<path fill="#010101" d="M114.2,95.7H73.9V86.6l26.8-33.499H74.6v-9.201H114.2v8.701L87,86.6h27.2V95.7z"/>
	</g>
</g>
</svg>
