<?xml version="1.0" encoding="UTF-8"?>
<svg id="Layer_1" xmlns="http://www.w3.org/2000/svg" version="1.1" viewBox="0 0 144 144">
  <!-- Generator: Adobe Illustrator 29.3.1, SVG Export Plug-In . SVG Version: 2.1.0 Build 151)  -->
  <defs>
    <style>
      .st0 {
        fill: #010101;
      }

      .st1 {
        fill: #fc0619;
      }

      .st2 {
        fill: #fff;
      }
    </style>
  </defs>
  <rect class="st2" x="-.04" y="0" width="144" height="144"/>
  <g>
    <polygon class="st0" points="371.74 31.23 387.44 40.29 387.44 22.16 371.74 31.23"/>
    <polygon class="st0" points="499.12 31.23 483.42 40.29 483.42 22.16 499.12 31.23"/>
    <g>
      <circle class="st0" cx="391.25" cy="31.23" r="2.75"/>
      <circle class="st0" cx="398.56" cy="31.23" r="2.75"/>
      <circle class="st0" cx="405.88" cy="31.23" r="2.75"/>
      <circle class="st0" cx="413.19" cy="31.23" r="2.75"/>
      <circle class="st0" cx="420.51" cy="31.23" r="2.75"/>
      <circle class="st0" cx="427.82" cy="31.23" r="2.75"/>
      <circle class="st0" cx="435.14" cy="31.23" r="2.75"/>
      <circle class="st0" cx="442.45" cy="31.23" r="2.75"/>
      <circle class="st0" cx="449.77" cy="31.23" r="2.75"/>
      <circle class="st0" cx="457.08" cy="31.23" r="2.75"/>
      <circle class="st0" cx="464.4" cy="31.23" r="2.75"/>
      <circle class="st0" cx="471.71" cy="31.23" r="2.75"/>
      <circle class="st0" cx="479.03" cy="31.23" r="2.75"/>
    </g>
  </g>
  <circle class="st1" cx="103.12" cy="113.74" r="12"/>
  <polygon class="st0" points="14.87 133.25 30.57 142.31 30.57 124.18 14.87 133.25"/>
  <polygon class="st0" points="122.66 10.1 106.95 19.17 106.95 1.03 122.66 10.1"/>
  <circle class="st0" cx="35.86" cy="133.25" r="2.75"/>
  <circle class="st0" cx="43.17" cy="133.25" r="2.75"/>
  <circle class="st0" cx="50.49" cy="133.25" r="2.75"/>
  <circle class="st0" cx="57.8" cy="133.25" r="2.75"/>
  <circle class="st0" cx="65.12" cy="133.25" r="2.75"/>
  <circle class="st0" cx="72.43" cy="133.25" r="2.75"/>
  <circle class="st0" cx="79.75" cy="133.25" r="2.75"/>
  <circle class="st0" cx="87.06" cy="131.77" r="2.75"/>
  <circle class="st0" cx="94.38" cy="129.02" r="2.75"/>
  <circle class="st0" cx="96.88" cy="97.27" r="2.75"/>
  <circle class="st0" cx="92.93" cy="91.24" r="2.75"/>
  <circle class="st0" cx="88.92" cy="85.74" r="2.75"/>
  <circle class="st0" cx="83.76" cy="80.52" r="2.75"/>
  <circle class="st0" cx="78.87" cy="75.43" r="2.75"/>
  <circle class="st0" cx="74" cy="70.34" r="2.75"/>
  <circle class="st0" cx="69.1" cy="65.37" r="2.75"/>
  <circle class="st0" cx="63.6" cy="60.62" r="2.75"/>
  <circle class="st0" cx="58.39" cy="55.53" r="2.75"/>
  <circle class="st0" cx="53.24" cy="50.56" r="2.75"/>
  <circle class="st0" cx="48.94" cy="45.02" r="2.75"/>
  <circle class="st1" cx="42.17" cy="29.81" r="12"/>
  <circle class="st0" cx="50.49" cy="16.42" r="2.75"/>
  <circle class="st0" cx="56.99" cy="14.6" r="2.75"/>
  <circle class="st0" cx="64.31" cy="12.85" r="2.75"/>
  <circle class="st0" cx="71.62" cy="11.5" r="2.75"/>
  <circle class="st0" cx="79.44" cy="10.1" r="2.75"/>
  <circle class="st0" cx="87.25" cy="10.1" r="2.75"/>
  <circle class="st0" cx="94.38" cy="10.1" r="2.75"/>
  <circle class="st0" cx="102.69" cy="10.1" r="2.75"/>
</svg>