<?xml version="1.0" encoding="utf-8"?>
<!-- Generator: Adobe Illustrator 16.0.0, SVG Export Plug-In . SVG Version: 6.00 Build 0)  -->
<!DOCTYPE svg PUBLIC "-//W3C//DTD SVG 1.1//EN" "http://www.w3.org/Graphics/SVG/1.1/DTD/svg11.dtd">
<svg version="1.1" id="_x35_0m" xmlns="http://www.w3.org/2000/svg" xmlns:xlink="http://www.w3.org/1999/xlink" x="0px" y="0px"
	 width="144px" height="144px" viewBox="0 0 144 144" enable-background="new 0 0 144 144" xml:space="preserve">
<g>
	<path fill="#010101" d="M40.146,22.399v14.786H14.479v20.979h24.219v14.686H14.479v38.761H0V22.399H40.146z"/>
	<path fill="#010101" d="M72,22.399c3.686,0,6.844,0.8,9.346,2.299c2.5,1.498,4.607,3.596,6.055,6.093
		c1.449,2.498,2.633,5.396,3.291,8.592c0.658,3.197,1.053,6.493,1.053,9.791c0,4.595-0.525,8.591-1.711,11.987
		c-1.053,3.397-2.633,6.193-4.607,8.393c-1.975,2.197-4.344,3.796-7.24,4.895c-2.764,1.099-5.922,1.598-9.344,1.598h-7.768v35.565
		H46.596V22.399H72z M67.525,62.76c2.895,0,5.264-1.099,6.975-3.196c1.711-2.099,2.633-5.494,2.633-10.091
		c0-4.495-0.789-7.892-2.369-10.189s-4.08-3.497-7.766-3.497h-6.055v27.073h6.582V62.76z"/>
	<path fill="#010101" d="M124.256,22.399c3.686,0,6.846,0.8,9.346,2.299c2.5,1.498,4.607,3.596,6.055,6.093
		c1.58,2.498,2.633,5.396,3.291,8.592c0.658,3.197,1.053,6.493,1.053,9.791c0,4.595-0.525,8.591-1.711,11.987
		c-1.053,3.397-2.633,6.193-4.607,8.393c-1.975,2.197-4.344,3.796-7.238,4.895c-2.764,1.099-5.924,1.598-9.346,1.598h-7.768v35.565
		H98.852V22.399H124.256z M119.781,62.76c2.895,0,5.266-1.099,6.977-3.196c1.711-2.099,2.633-5.494,2.633-10.091
		c0-4.495-0.791-7.892-2.369-10.189c-1.58-2.298-4.082-3.497-7.768-3.497h-6.055v27.073h6.582V62.76z"/>
</g>
</svg>
