<?xml version="1.0" encoding="utf-8"?>
<!-- Generator: Adobe Illustrator 16.0.0, SVG Export Plug-In . SVG Version: 6.00 Build 0)  -->
<!DOCTYPE svg PUBLIC "-//W3C//DTD SVG 1.1//EN" "http://www.w3.org/Graphics/SVG/1.1/DTD/svg11.dtd">
<svg version="1.1" id="_x35_0m" xmlns="http://www.w3.org/2000/svg" xmlns:xlink="http://www.w3.org/1999/xlink" x="0px" y="0px"
	 width="144px" height="144px" viewBox="0 0 144 144" enable-background="new 0 0 144 144" xml:space="preserve">
<g>
	<path fill="#010101" d="M39.461,22.368v14.772H14.282v21.013h23.727v14.771H14.282v38.697H0V22.368H39.461z"/>
	<path fill="#010101" d="M73.157,22.368c5.951,0,10.566,1.88,13.847,5.74c3.279,3.863,4.979,9.604,4.979,17.328
		c0,6.054-0.972,10.959-2.915,14.718c-1.944,3.757-4.858,6.263-8.866,7.307v0.208c3.521,0.625,6.194,2.087,7.772,4.384
		c1.701,2.296,2.672,5.845,3.037,10.855c0.121,1.67,0.243,3.444,0.243,5.427c0.12,1.983,0.12,4.176,0.243,6.577
		c0.12,4.801,0.363,8.35,0.606,10.854c0.365,2.506,1.215,4.175,2.55,5.115v0.73H79.229c-0.729-1.253-1.215-2.715-1.335-4.28
		c-0.243-1.67-0.365-3.34-0.365-5.114L77.166,85.1c-0.123-3.549-0.852-6.263-2.064-8.246c-1.215-1.982-3.402-3.026-6.317-3.026
		h-7.651v37.785H46.8V22.368H73.157z M66.962,61.406c3.401,0,6.073-1.044,7.896-3.027c1.822-2.088,2.794-5.531,2.794-10.333
		c0-8.245-3.28-12.421-9.959-12.421H60.89v25.781C61.013,61.406,66.962,61.406,66.962,61.406z"/>
	<path fill="#010101" d="M98.618,49.161c0.466-5.54,1.514-10.273,3.143-14.202s3.956-7.051,6.981-9.267
		c3.026-2.217,7.099-3.324,12.219-3.324s9.192,1.107,12.218,3.324c3.026,2.216,5.354,5.338,6.982,9.267s2.676,8.662,3.142,14.202
		S144,60.745,144,67.192c0,6.647-0.231,12.69-0.697,18.131c-0.466,5.438-1.513,10.173-3.142,14.102
		c-1.629,3.928-3.956,6.949-6.982,9.065c-3.025,2.115-7.098,3.122-12.218,3.122s-9.192-1.007-12.219-3.122
		c-3.025-2.116-5.353-5.138-6.981-9.065c-1.629-3.929-2.677-8.663-3.143-14.102c-0.465-5.44-0.697-11.483-0.697-18.131
		C97.921,60.745,98.153,54.701,98.618,49.161z M111.885,81.999c0.232,4.029,0.697,7.353,1.279,9.871s1.629,4.432,2.793,5.54
		c1.279,1.209,2.909,1.713,4.888,1.713s3.606-0.605,4.888-1.713c1.279-1.209,2.21-3.021,2.792-5.54s1.048-5.842,1.28-9.871
		s0.349-8.965,0.349-14.807c0-5.844-0.116-10.677-0.349-14.706s-0.698-7.354-1.28-9.872c-0.582-2.519-1.629-4.433-2.792-5.641
		c-1.281-1.209-2.909-1.713-4.888-1.713s-3.608,0.605-4.888,1.713s-2.211,3.021-2.793,5.641c-0.582,2.618-1.047,5.843-1.279,9.872
		c-0.233,4.029-0.35,8.964-0.35,14.706C111.651,73.034,111.651,77.97,111.885,81.999z"/>
</g>
</svg>
