<?xml version="1.0" encoding="utf-8"?>
<!-- Generator: Adobe Illustrator 16.0.0, SVG Export Plug-In . SVG Version: 6.00 Build 0)  -->
<!DOCTYPE svg PUBLIC "-//W3C//DTD SVG 1.1//EN" "http://www.w3.org/Graphics/SVG/1.1/DTD/svg11.dtd">
<svg version="1.1" id="_x35_0m" xmlns="http://www.w3.org/2000/svg" xmlns:xlink="http://www.w3.org/1999/xlink" x="0px" y="0px"
	 width="144px" height="144px" viewBox="0 0 144 144" enable-background="new 0 0 144 144" xml:space="preserve">
<g>
	<polygon fill="#ADADAD" points="141.91,51.848 141.91,22.789 112.852,22.789 112.852,36.323 31.148,36.323 31.148,22.789 
		2.09,22.789 2.09,51.848 16.818,51.848 16.818,92.152 2.09,92.152 2.09,121.211 31.148,121.211 31.148,106.681 112.852,106.681 
		112.852,121.211 141.91,121.211 141.91,92.152 127.381,92.152 127.381,51.848 	"/>
	<path fill="#010101" d="M144,123.301h-33.238v-14.529H33.238v14.529H0V90.063h14.729V53.938H0V20.699h33.238v13.534h77.523V20.699
		H144v33.239h-14.529v36.024H144C144,90.063,144,123.301,144,123.301z M114.941,119.12h24.879V94.241h-14.529V49.758h14.529V24.879
		h-24.879v13.534H29.059V24.879H4.18v24.879h14.729v44.483H4.18v24.879h24.879v-14.528h85.883V119.12z"/>
</g>
</svg>
