<?xml version="1.0" encoding="utf-8"?>
<!-- Generator: Adobe Illustrator 16.0.0, SVG Export Plug-In . SVG Version: 6.00 Build 0)  -->
<!DOCTYPE svg PUBLIC "-//W3C//DTD SVG 1.1//EN" "http://www.w3.org/Graphics/SVG/1.1/DTD/svg11.dtd">
<svg version="1.1" id="_x35_0m" xmlns="http://www.w3.org/2000/svg" xmlns:xlink="http://www.w3.org/1999/xlink" x="0px" y="0px"
	 width="144px" height="144px" viewBox="0 0 144 144" enable-background="new 0 0 144 144" xml:space="preserve">
<g>
	<path fill="#010101" d="M37.455,62.56h-9.9V60.11h-2.653v2.449h-9.797V60.11h-2.653v2.449H2.654V60.11H0v22.656h2.654V78.38h9.797
		v4.387h2.653V78.38h9.797v4.387h2.653V78.38h9.798v4.387h2.653V60.11h-2.653v2.449H37.455z M37.455,65.214v3.98h-9.9v-3.98H37.455z
		 M24.901,65.214v3.98h-9.797v-3.98H24.901z M12.451,65.214v3.98H2.654v-3.98H12.451z M2.654,75.827v-3.98h9.797v3.98H2.654z
		 M15.104,75.827v-3.98h9.797v3.98H15.104z M27.555,75.827v-3.98h9.798v3.98H27.555z"/>
	<path fill="#010101" d="M141.347,61.233v2.449h-9.797v-2.449h-2.654v2.449h-9.797v-2.449h-2.653v2.449h-9.797v-2.449h-2.653V83.89
		h2.653v-4.389h9.797v4.389h2.653v-4.389h9.797v4.389h2.654v-4.389h9.797v4.389H144V61.233H141.347z M141.347,66.335v3.98h-9.797
		v-3.98H141.347z M128.896,66.335v3.98h-9.797v-3.98H128.896z M116.445,66.335v3.98h-9.797v-3.98H116.445z M106.547,76.849v-3.98
		h9.797v3.98H106.547z M119.099,76.849v-3.98h9.797v3.98H119.099z M131.55,76.849v-3.98h9.797v3.98H131.55z"/>
</g>
</svg>
