<?xml version="1.0" encoding="utf-8"?>
<!-- Generator: Adobe Illustrator 16.0.0, SVG Export Plug-In . SVG Version: 6.00 Build 0)  -->
<!DOCTYPE svg PUBLIC "-//W3C//DTD SVG 1.1//EN" "http://www.w3.org/Graphics/SVG/1.1/DTD/svg11.dtd">
<svg version="1.1" id="_x35_0m" xmlns="http://www.w3.org/2000/svg" xmlns:xlink="http://www.w3.org/1999/xlink" x="0px" y="0px"
	 width="144px" height="144px" viewBox="0 0 144 144" enable-background="new 0 0 144 144" xml:space="preserve">
<g>
	<path fill="#010101" d="M48.85,44.846c-0.399-1.71-0.899-3.218-1.7-4.626c-0.8-1.407-1.8-2.613-3.1-3.52
		c-1.3-0.904-2.7-1.407-4.5-1.407c-4.2,0-7.2,2.313-9,7.039c-1.8,4.725-2.8,12.367-2.8,23.127c0,5.127,0.2,9.854,0.5,13.976
		c0.3,4.224,0.899,7.743,1.7,10.659c0.8,2.914,2,5.228,3.6,6.736c1.6,1.608,3.6,2.313,6.1,2.313c1,0,2.2-0.304,3.4-0.806
		c1.2-0.503,2.4-1.408,3.5-2.514c1.1-1.106,2-2.514,2.7-4.323s1.1-3.721,1.1-6.134v-8.849H38.95V63.95h28v47.651H54.149v-9.141
		H53.95c-2.101,3.418-4.601,5.731-7.5,7.139c-2.9,1.408-6.4,2.112-10.5,2.112c-5.301,0-9.601-0.906-12.9-2.815
		c-3.3-1.811-5.9-4.727-7.8-8.548c-1.9-3.821-3.101-8.646-3.8-14.277c-0.601-5.632-1-12.268-1-19.709
		c0-7.239,0.5-13.574,1.399-19.104c0.9-5.43,2.5-10.056,4.7-13.675c2.2-3.62,5.2-6.437,8.9-8.246c3.699-1.809,8.3-2.814,13.8-2.814
		c9.399,0,16.2,2.312,20.399,7.037c4.2,4.728,6.2,11.463,6.2,20.212h-16.5C49.35,48.164,49.25,46.554,48.85,44.846z"/>
	<path fill="#010101" d="M102.55,88.423h0.399l12.7-65.896h17.9l-19.7,89.075h-22.2l-19.7-89.075h18.5L102.55,88.423z"/>
</g>
</svg>
