<?xml version="1.0" encoding="utf-8"?>
<!-- Generator: Adobe Illustrator 16.0.0, SVG Export Plug-In . SVG Version: 6.00 Build 0)  -->
<!DOCTYPE svg PUBLIC "-//W3C//DTD SVG 1.1//EN" "http://www.w3.org/Graphics/SVG/1.1/DTD/svg11.dtd">
<svg version="1.1" id="_x35_0m" xmlns="http://www.w3.org/2000/svg" xmlns:xlink="http://www.w3.org/1999/xlink" x="0px" y="0px"
	 width="144px" height="144px" viewBox="0 0 144 144" enable-background="new 0 0 144 144" xml:space="preserve">
<path fill="#010101" d="M111.928,28.642v-8.95h-1.889v-0.696l-28.045-0.198L79.11,0.101L66.381,0l-2.983,18.797l-29.536-0.199v0.596
	h-1.89v9.349h3.879v-3.183l6.066,6.465h-8.056v0.696h-1.89v9.348h3.879v-6.066l9.746,0.1l12.928,13.724l-14.917,93.779L47.387,144
	l1.491-9.248l47.039,0.199l1.193,7.459l3.779-0.597L86.669,49.426L98.9,36.1l9.249,0.101v5.768h3.879v-8.95h-1.891v-0.696h-7.657
	l5.669-6.266v2.686L111.928,28.642L111.928,28.642z M69.663,3.879h6.066l2.287,15.017l-10.74-0.099L69.663,3.879z M69.663,81.349
	L55.342,94.377l3.581-22.774L69.663,81.349z M62.503,69.714l20.585-0.497l-10.541,9.547L62.503,69.714z M57.53,97.56l15.017-13.625
	L87.464,97.36L57.53,97.56z M86.568,101.238L72.348,111.78l-14.021-10.343L86.568,101.238z M53.95,102.929l15.116,11.237
	l-19.094,14.222L53.95,102.929z M72.348,116.554l19.491,14.42l-38.685-0.1L72.348,116.554z M75.53,114.166l15.514-11.437
	l3.978,25.856L75.53,114.166z M75.431,81.349l10.84-9.845l3.48,22.674L75.431,81.349z M59.817,65.835l2.387-15.116l20.785-0.099
	l2.287,14.618L59.817,65.835z M62.801,46.94l1.79-11.039l16.111,0.1l1.689,10.939H62.801z M65.188,32.022l1.492-9.348l11.934,0.1
	l1.491,9.348L65.188,32.022z M38.437,22.575l24.364,0.1l-1.491,9.348l-14.122-0.099L38.437,22.575z M50.867,35.802l9.845,0.1
	l-1.392,8.851L50.867,35.802z M85.973,44.553l-1.293-8.552l9.05,0.099L85.973,44.553z M83.983,32.122l-1.491-9.348l23.071,0.099
	l-8.453,9.249H83.983z"/>
</svg>
