<?xml version="1.0" encoding="utf-8"?>
<!-- Generator: Adobe Illustrator 16.0.0, SVG Export Plug-In . SVG Version: 6.00 Build 0)  -->
<!DOCTYPE svg PUBLIC "-//W3C//DTD SVG 1.1//EN" "http://www.w3.org/Graphics/SVG/1.1/DTD/svg11.dtd">
<svg version="1.1" id="_x35_0m" xmlns="http://www.w3.org/2000/svg" xmlns:xlink="http://www.w3.org/1999/xlink" x="0px" y="0px"
	 width="144px" height="144px" viewBox="0 0 144 144" enable-background="new 0 0 144 144" xml:space="preserve">
<g>
	<g>
		<g>
			<defs>
				<polygon id="SVGID_5_" points="1,-428.74 2,-428.74 1,-427.74 				"/>
			</defs>
			<defs>
				<polygon id="SVGID_6_" points="-1,-430.74 -2,-430.74 -1,-431.74 				"/>
			</defs>
			<clipPath id="SVGID_4_">
				<use xlink:href="#SVGID_5_"  overflow="visible"/>
			</clipPath>
			<clipPath id="SVGID_7_" clip-path="url(#SVGID_4_)">
				<use xlink:href="#SVGID_6_"  overflow="visible"/>
			</clipPath>
		</g>
	</g>
</g>
<g>
	<g>
		<g>
			<defs>
				<polygon id="SVGID_31_" points="1,-428.74 2,-428.74 1,-427.74 				"/>
			</defs>
			<defs>
				<polygon id="SVGID_32_" points="-1,-430.74 -2,-430.74 -1,-431.74 				"/>
			</defs>
			<clipPath id="SVGID_8_">
				<use xlink:href="#SVGID_31_"  overflow="visible"/>
			</clipPath>
			<clipPath id="SVGID_11_" clip-path="url(#SVGID_8_)">
				<use xlink:href="#SVGID_32_"  overflow="visible"/>
			</clipPath>
		</g>
	</g>
</g>
<path fill="#D09662" d="M100.155,102.211c2.764,1.125,4.094-0.104,5.322-2.252c2.149-3.686,4.605-7.063,6.857-10.645
	c0.717-1.229,1.331-1.125,2.457-0.408c1.33,0.715,1.125,1.33,0.409,2.455c-2.252,3.275-4.299,6.551-6.55,9.826
	c-1.023,1.432-0.512,1.842,0.921,1.738c0.103,0,0.103,0,0.205,0c2.969,0.615,4.708-0.613,6.141-3.273
	c1.74-3.174,3.889-5.938,5.834-9.008c0.614-0.92,1.125-1.33,2.149-0.512c0.818,0.615,1.842,1.023,0.818,2.355
	c-2.25,3.273-4.4,6.652-6.549,10.029c3.275,1.125,4.811,0.613,6.549-1.945c2.15-3.275,4.402-6.549,6.449-9.824
	c0.614-1.023,1.125-1.33,2.25-0.512c1.023,0.717,1.434,1.229,0.615,2.455c-2.251,3.275-4.4,6.652-6.55,10.031
	c2.047,0.512,3.275,0.203,4.299-1.639c2.047-3.479,4.503-6.754,6.652-10.234c0.716-1.125,1.33-1.432,2.559-0.613
	c1.433,0.92,1.023,1.637,0.307,2.66c-1.944,2.865-3.889,5.834-5.731,8.803c-0.205,0.307-0.307,0.613-0.615,1.227
	c1.023,0,1.843,0,2.662,0c1.023-0.102,1.944-0.203,1.944,1.332c0,1.637-1.125,1.125-1.944,1.125
	c-12.793,0.102-25.689,0.205-38.482-0.307c-20.264-0.922-40.323-2.764-60.076-7.574c-7.676-1.943-15.044-4.707-22.208-7.777
	c-2.866-1.229-4.606-4.197-7.881-4.4c-2.968-3.891-7.164-6.961-8.802-11.873c-0.409-1.33,0-2.148,0.614-3.172
	c2.456-3.992,5.936-7.063,9.723-9.723c8.904-6.346,19.036-10.133,29.475-13.102c13.816-3.889,27.94-5.936,42.166-7.266
	c17.91-1.639,35.922-1.842,53.936-1.535c1.229,0,2.354,0.102,3.582,0.205c0.512,0,1.229-0.205,1.331,0.613
	c0.102,0.613,0.41,1.535-0.41,1.842c-1.125,0.307-0.613,0.717-0.204,1.023c0.92,0.922,1.739,1.842,2.661,2.662
	c1.023,0.818,1.433,1.535,0.205,2.66c-1.126,1.125-1.74,0.818-2.662-0.205c-1.535-1.74-3.274-3.275-4.912-4.912
	c-1.125-1.33-2.559-1.535-4.605-1.535c2.764,2.764,5.117,5.117,7.574,7.471c0.92,0.922,1.229,1.535,0.205,2.662
	c-1.126,1.125-1.74,0.818-2.662-0.205c-2.967-3.07-6.038-6.039-9.006-9.109c-0.613-0.613-1.228-1.33-2.66-0.818
	c2.66,2.66,5.219,5.322,7.879,7.881c1.023,0.92,1.229,1.535,0.103,2.66c-1.126,1.229-1.74,0.717-2.662-0.205
	c-3.172-3.172-6.344-6.344-9.518-9.518c-0.819-0.818-1.535-1.33-3.07-0.717c2.865,2.764,5.527,5.527,8.392,8.086
	c1.125,1.023,0.717,1.535-0.102,2.354c-0.82,0.717-1.332,1.33-2.355,0.205c-3.172-3.275-6.447-6.447-9.62-9.723
	c-0.615-0.613-1.126-1.535-2.662-1.023c1.535,1.535,2.867,2.865,4.299,4.299c1.228,1.229,2.354,2.455,3.582,3.582
	c1.126,0.92,1.126,1.535,0.103,2.66c-1.126,1.127-1.638,0.717-2.457-0.205c-2.968-3.07-6.141-6.037-9.006-9.107
	c-1.126-1.229-2.252-1.33-4.299-0.922c2.866,2.764,5.322,5.117,7.881,7.471c1.023,0.922,1.229,1.535,0.102,2.662
	c-1.229,1.229-1.74,0.717-2.661-0.205c-2.457-2.559-5.22-4.912-7.471-7.676c-1.843-2.148-3.89-2.66-6.857-1.842
	c2.251,2.252,4.4,4.4,6.549,6.549c0.615,0.615,1.126,1.229,1.843,1.74c1.125,0.922,0.921,1.535,0,2.457
	c-1.023,1.023-1.638,0.92-2.559,0c-2.968-3.07-5.937-5.936-8.904-8.904c-1.74-1.74-1.74-1.74-4.811-1.535
	c1.842,1.842,3.48,3.48,5.117,5.117c0.921,0.922,1.842,1.945,2.865,2.865c1.023,0.922,1.126,1.535,0.103,2.662
	c-1.228,1.33-1.74,0.613-2.662-0.309c-2.456-2.559-5.117-4.809-7.369-7.471c-1.842-2.148-3.889-3.07-6.856-1.842
	c2.661,2.66,5.321,5.322,7.983,7.982c0.92,0.818,1.023,1.434,0.102,2.354c-1.023,1.025-1.637,1.025-2.661,0
	c-2.251-2.455-4.912-4.605-7.062-7.164c-2.252-2.66-4.605-3.273-7.982-1.842c1.944,1.945,3.787,3.787,5.73,5.732
	c0.717,0.715,1.332,1.432,2.15,2.047c1.229,1.023,1.125,1.738,0,2.865c-1.228,1.33-1.74,0.41-2.457-0.307
	c-2.661-2.662-5.424-5.221-7.982-8.086c-1.638-1.842-3.275-1.945-5.629-0.922c2.865,3.174,5.629,6.346,8.597,9.314
	c1.228,1.229,1.228,1.945-0.103,3.07c-0.921,0.717-1.33,0.512-1.944-0.205c-2.661-2.967-5.424-5.834-8.085-8.801
	c-2.866-3.174-2.968-3.275-7.267-1.639c2.866,3.174,5.731,6.244,8.597,9.211c0.921,0.922,1.023,1.535,0,2.559
	c-1.023,0.922-1.535,0.922-2.456-0.102c-2.559-2.865-5.22-5.629-7.88-8.494c-2.661-2.867-2.968-2.867-6.96-1.023
	c2.866,2.865,5.629,5.629,8.393,8.289c1.126,1.023,0.921,1.639,0,2.662c-1.126,1.227-1.74,0.512-2.456-0.205
	c-2.559-2.559-5.117-5.117-7.676-7.779c-2.457-2.455-2.866-2.559-6.243-0.512c2.763,2.764,5.526,5.426,8.29,8.086
	c0.818,0.818,1.944,1.33,0.512,2.764c-1.535,1.535-2.047,0.408-2.968-0.512c-2.661-2.662-5.322-5.322-7.983-7.982
	c-1.228-1.229-4.708-1.025-5.731,0.307c-0.512,0.717,0.308,1.023,0.614,1.33c2.559,2.66,5.22,5.322,7.881,7.881
	c0.921,0.92,0.921,1.432,0,2.354c-0.921,0.818-1.535,1.229-2.559,0.102c-2.866-2.967-5.937-5.832-8.699-8.801
	c-1.434-1.535-2.457-0.512-3.378,0.205c-0.818,0.613,0.205,1.023,0.512,1.432c2.661,2.764,5.322,5.426,7.983,8.086
	c0.818,0.818,1.535,1.33,0.307,2.457c-1.126,1.125-1.842,1.023-2.865-0.104c-2.661-2.865-5.629-5.525-8.29-8.393
	c-1.229-1.33-2.149-1.227-3.48-0.307c-2.866,2.047-5.629,4.094-8.085,6.756c-0.409,0.512-1.33,1.023-1.125,1.637
	c-0.205,1.125,0.819,0.717,1.433,0.717c2.559,0.205,5.015,0.408,7.573,0.408c1.535,0,1.433,0.82,1.433,1.945
	c0,1.229-0.409,1.637-1.638,1.535c-2.968-0.205-6.038-0.307-9.006-0.512c-1.535-0.102-1.944,0.205-1.126,1.637
	c1.229,2.047,2.764,3.891,4.503,5.527c0.819,0.717,1.331,0.615,2.149,0.102c3.173-2.047,6.346-3.99,9.519-6.141
	c1.228-0.818,1.637-0.613,2.456,0.512c0.818,1.229,0.512,1.74-0.614,2.457c-3.07,1.945-6.141,3.992-9.313,6.039
	c1.331,1.74,2.661,1.842,4.401,0.717c2.968-1.945,6.141-3.584,9.211-5.426c1.33-0.818,1.739-0.205,2.456,0.818
	c0.716,1.229,0.307,1.639-0.717,2.252c-2.968,1.639-5.936,3.379-9.108,5.221c1.638,1.33,2.968,1.943,4.912,0.717
	c3.48-2.15,7.063-4.094,10.542-6.141c1.228-0.717,1.944-1.229,2.968,0.512c1.023,1.842-0.409,1.943-1.33,2.455
	c-3.173,1.842-6.448,3.686-9.825,5.732c1.228,0.408,1.638,0.92,3.07,0c4.196-2.969,8.699-5.322,13.202-7.779
	c1.331-0.717,1.229,0.818,1.74,1.434c0.614,0.717,0.512,1.229-0.41,1.74c-3.377,1.943-6.857,3.889-10.234,5.936
	c-0.41,0.205-0.819,0.512-1.331,0.818c3.275,1.229,6.346,1.842,9.416,2.66c0.818,0.205,1.535-0.203,2.149-0.512
	c4.094-2.354,8.188-4.707,12.179-7.061c1.228-0.717,1.74-0.512,2.354,0.613c0.716,1.229,0.614,1.74-0.614,2.354
	c-3.275,1.74-6.448,3.686-9.927,5.732c2.047,0.717,3.479,1.229,5.322-0.104c3.684-2.762,7.778-5.014,11.565-7.572
	c1.331-0.922,1.74-0.307,2.354,0.717c0.716,1.023,0.614,1.535-0.512,2.25c-3.275,1.945-6.448,4.094-9.825,6.346
	c1.535,0.922,2.968,0.512,4.298,1.023c0.205,0.104,0.512,0,0.614-0.102c1.842-3.48,5.629-4.709,8.392-7.164
	c0.921-0.922,2.149-1.639,3.173-2.457s1.74-1.432,2.865,0.104c1.126,1.535,0.205,2.047-0.818,2.762
	c-2.559,1.945-5.117,3.891-7.676,5.834c-0.512,0.41-1.023,0.818-1.74,1.434c1.842,0.717,3.582,0.512,5.322,0.92
	c0.818,0.205,1.228-0.613,1.637-1.125c2.764-3.07,5.629-6.039,8.291-9.211c1.023-1.125,1.637-1.023,2.661-0.102
	c1.126,1.023,0.717,1.637-0.102,2.455c-2.457,2.662-4.912,5.322-7.369,8.086c3.889,1.432,4.4,1.229,6.55-1.945
	c1.944-3.07,4.094-6.037,5.936-9.107c0.716-1.229,1.33-0.922,2.354-0.309c0.921,0.615,1.433,1.127,0.614,2.252
	c-2.251,3.275-4.401,6.652-6.652,10.029c3.275,1.229,4.401,0.922,6.141-1.738c2.15-3.275,4.298-6.551,6.448-9.826
	c0.614-0.92,0.92-1.842,2.354-0.818c1.432,0.922,1.33,1.637,0.409,2.865c-1.842,2.764-3.684,5.424-5.424,8.291
	c-0.409,0.613-1.842,1.33-0.613,2.148c1.023,0.717,1.944-0.102,2.66-1.229c2.354-3.787,4.913-7.369,7.165-11.154
	c0.921-1.535,1.638-1.639,3.07-0.615c0.921,0.717,0.818,1.127,0.205,1.945C104.965,94.738,102.509,98.424,100.155,102.211z"/>
</svg>
