<?xml version="1.0" encoding="utf-8"?>
<!-- Generator: Adobe Illustrator 16.0.0, SVG Export Plug-In . SVG Version: 6.00 Build 0)  -->
<!DOCTYPE svg PUBLIC "-//W3C//DTD SVG 1.1//EN" "http://www.w3.org/Graphics/SVG/1.1/DTD/svg11.dtd">
<svg version="1.1" id="_x35_0m" xmlns="http://www.w3.org/2000/svg" xmlns:xlink="http://www.w3.org/1999/xlink" x="0px" y="0px"
	 width="144px" height="144px" viewBox="0 0 144 144" enable-background="new 0 0 144 144" xml:space="preserve">
<g>
	<polygon fill="#FFFFFF" points="1.305,71.85 0,108.074 99.747,106.67 142.596,93.625 142.796,60.008 	"/>
	<path fill="#010101" d="M144,59.406l-8.529-9.332l-11.34-14.752L20.772,37.73L0.101,70.945l0,0v0.102v0.1l0,0v37.029h98.943v0.502
		l1.506-0.502h1.103v-0.402L144,94.227V59.406L144,59.406z M2.71,105.467V73.656h94.228h1.604l0.402,31.711L2.71,105.467
		L2.71,105.467z M130.252,95.834V74.961l-13.646,3.412v21.875l-15.053,4.816V73.455L141.29,60.51V92.32L130.252,95.834z"/>
	<g>
		<rect x="12.443" y="80.178" fill="#FFFFFF" width="14.752" height="14.752"/>
		<path fill="#010101" d="M27.797,95.531H11.841V79.576h15.956V95.531z M13.045,94.328h13.548V80.781H13.045V94.328z"/>
	</g>
	<g>
		<rect x="32.213" y="80.178" fill="#FFFFFF" width="14.75" height="14.752"/>
		<path fill="#010101" d="M47.565,95.531H31.609V79.576h15.956V95.531z M32.814,94.328h13.547V80.781H32.814V94.328z"/>
	</g>
	<g>
		<rect x="52.081" y="80.178" fill="#FFFFFF" width="14.752" height="14.752"/>
		<path fill="#010101" d="M67.435,95.531H51.479V79.576h15.956V95.531z M52.683,94.328h13.547V80.781H52.683V94.328z"/>
	</g>
	<g>
		<rect x="71.85" y="80.178" fill="#FFFFFF" width="14.751" height="14.752"/>
		<path fill="#010101" d="M87.203,95.531H71.247V79.576h15.956V95.531L87.203,95.531z M72.452,94.328h13.547V80.781H72.452V94.328z"
			/>
	</g>
</g>
</svg>
