<?xml version="1.0" encoding="utf-8"?>
<!-- Generator: Adobe Illustrator 16.0.0, SVG Export Plug-In . SVG Version: 6.00 Build 0)  -->
<!DOCTYPE svg PUBLIC "-//W3C//DTD SVG 1.1//EN" "http://www.w3.org/Graphics/SVG/1.1/DTD/svg11.dtd">
<svg version="1.1" id="_x35_0m" xmlns="http://www.w3.org/2000/svg" xmlns:xlink="http://www.w3.org/1999/xlink" x="0px" y="0px"
	 width="144px" height="144px" viewBox="0 0 144 144" enable-background="new 0 0 144 144" xml:space="preserve">
<g>
	<path fill="#EC2227" d="M0,22.428h14.456v89.221H0V22.428z"/>
	<path fill="#EC2227" d="M46.813,22.428l10.231,62.985h0.222l10.342-62.985h21.35v89.221H75.726v-71.21h-0.223l-12.677,71.21h-11.23
		l-12.787-71.21h-0.223v71.21H25.465V22.428H46.813z"/>
	<path fill="#EC2227" d="M124.43,22.428c3.669,0,6.782,0.729,9.229,2.291c2.446,1.562,4.559,3.539,6.005,6.038
		c1.556,2.499,2.668,5.309,3.336,8.536c0.667,3.228,1,6.455,1,9.786c0,4.581-0.556,8.537-1.668,11.973
		c-1.112,3.437-2.668,6.246-4.559,8.328s-4.337,3.749-7.117,4.894c-2.78,1.041-5.894,1.666-9.34,1.666h-7.673v35.604H99.188V22.428
		H124.43z M119.981,62.821c2.892,0,5.227-1.041,6.895-3.227c1.779-2.188,2.668-5.518,2.668-10.099c0-4.477-0.778-7.912-2.334-10.203
		c-1.558-2.29-4.115-3.539-7.673-3.539h-6.005v27.067H119.981z"/>
</g>
</svg>
