<?xml version="1.0" encoding="utf-8"?>
<!-- Generator: Adobe Illustrator 16.0.0, SVG Export Plug-In . SVG Version: 6.00 Build 0)  -->
<!DOCTYPE svg PUBLIC "-//W3C//DTD SVG 1.1//EN" "http://www.w3.org/Graphics/SVG/1.1/DTD/svg11.dtd">
<svg version="1.1" id="_x35_0m" xmlns="http://www.w3.org/2000/svg" xmlns:xlink="http://www.w3.org/1999/xlink" x="0px" y="0px"
	 width="144px" height="144px" viewBox="0 0 144 144" enable-background="new 0 0 144 144" xml:space="preserve">
<g>
	<path fill="#B5B8B7" d="M128.275,25.527v-2.773l4.412,1.639c-1.387-2.772-2.773-5.042-4.412-7.184v-5.925h-5.293
		C106.975-3.083,86.557,4.856,84.163,5.739C76.726,3.722,68.03,2.462,58.704,2.462c-27.35,0-49.658,10.209-49.658,22.939l0,0
		v115.825h99.315V39.012l0,0v102.341h26.594V25.527H128.275z M98.278,11.284h-0.503c-0.252-0.126-0.63-0.377-0.882-0.503
		L98.278,11.284z"/>
	<path fill="#010101" d="M137.601,23.511c-0.125-0.126-0.125-0.253-0.252-0.379v-0.125h-0.125
		C123.359-4.091,97.27,0.067,85.549,0.445l0.882,3.53C78.365,1.58,68.912,0.194,58.578,0.194c-29.241,0-52.179,11.217-52.179,25.458
		V144h99.315h5.042h26.593V23.637L137.601,23.511z M131.804,23.007H110.63c-1.513-7.437-9.202-13.864-20.796-18.024
		C98.027,4.353,122.099,4.731,131.804,23.007z M58.704,5.109c25.71,0,43.734,8.822,46.633,17.897H11.944
		C14.843,13.932,32.866,5.109,58.704,5.109z M11.566,138.832V28.048h94.148v110.784H11.566z M132.434,138.832h-21.678V28.048h21.551
		v110.784H132.434z"/>
	
		<rect x="79.932" y="-20.94" transform="matrix(-0.0083 1 -1 -0.0083 86.0207 -79.5444)" fill="#010101" width="5.041" height="47.642"/>
</g>
</svg>
