<?xml version="1.0" encoding="utf-8"?>
<!-- Generator: Adobe Illustrator 16.0.0, SVG Export Plug-In . SVG Version: 6.00 Build 0)  -->
<!DOCTYPE svg PUBLIC "-//W3C//DTD SVG 1.1//EN" "http://www.w3.org/Graphics/SVG/1.1/DTD/svg11.dtd">
<svg version="1.1" id="_x35_0m" xmlns="http://www.w3.org/2000/svg" xmlns:xlink="http://www.w3.org/1999/xlink" x="0px" y="0px"
	 width="144px" height="144px" viewBox="0 0 144 144" enable-background="new 0 0 144 144" xml:space="preserve">
<g>
	<polygon fill="#B5B8B7" points="9.872,25.153 9.872,141.358 108.722,141.107 134.882,118.219 134.882,2.893 32.258,2.137 	"/>
	<path fill="#010101" d="M136.769,1.761V0.629L31.125,0L7.356,22.763H6.854v120.985h103.252l0.252,0.252l0.25-0.252h0.252v-0.252
		l26.285-24.146L136.769,1.761z M33.139,5.156l92.185,0.628l-17.858,17.104H14.65L33.139,5.156z M105.956,138.718H11.885V27.793
		h94.071V138.718z M110.987,26.41l20.751-19.745l0.629,110.548l-21.255,19.493L110.987,26.41L110.987,26.41z"/>
</g>
</svg>
