<?xml version="1.0" encoding="UTF-8" standalone="no"?>
<!-- Generator: Adobe Illustrator 16.0.0, SVG Export Plug-In . SVG Version: 6.00 Build 0)  -->

<svg
   version="1.1"
   id="_x35_0m"
   x="0px"
   y="0px"
   width="144px"
   height="144px"
   viewBox="0 0 144 144"
   enable-background="new 0 0 144 144"
   xml:space="preserve"
   sodipodi:docname="lateral_inclination_left.svg"
   inkscape:version="1.2.1 (9c6d41e410, 2022-07-14)"
   xmlns:inkscape="http://www.inkscape.org/namespaces/inkscape"
   xmlns:sodipodi="http://sodipodi.sourceforge.net/DTD/sodipodi-0.dtd"
   xmlns="http://www.w3.org/2000/svg"
   xmlns:svg="http://www.w3.org/2000/svg"><defs
   id="defs419" /><sodipodi:namedview
   id="namedview417"
   pagecolor="#ffffff"
   bordercolor="#000000"
   borderopacity="0.25"
   inkscape:showpageshadow="2"
   inkscape:pageopacity="0.0"
   inkscape:pagecheckerboard="0"
   inkscape:deskcolor="#d1d1d1"
   showgrid="false"
   inkscape:zoom="3.8694454"
   inkscape:cx="27.523324"
   inkscape:cy="72.103356"
   inkscape:window-width="1920"
   inkscape:window-height="986"
   inkscape:window-x="-11"
   inkscape:window-y="-11"
   inkscape:window-maximized="1"
   inkscape:current-layer="_x35_0m" />
<rect
   x="-0.93816137"
   y="-0.58157372"
   fill="#ffffff"
   width="144.27399"
   height="145.11142"
   id="rect155"
   style="stroke-width:1.99536" /><polygon
   fill="#010101"
   points="25.405,38.909 104.785,117.884 131.561,91.245 123.022,82.749 144,61.879 81.804,0 60.72,20.766 52.182,12.27 "
   id="polygon406"
   transform="matrix(-0.9137428,0,0,0.90828598,137.09818,6.7535504)" />
<polygon
   fill="#ffffff"
   points="122.18,81.91 61.458,21.5 81.698,1.468 142.419,61.879 "
   id="polygon408"
   transform="matrix(-0.9137428,0,0,0.90828598,137.09818,6.7535504)" />
<polygon
   fill="#010101"
   points="60.671,110.602 77.367,93.99 94.064,110.602 77.367,127.215 "
   id="polygon410"
   transform="matrix(-0.9137428,0,0,0.90828598,137.09818,6.7535504)" />
<polygon
   fill="#010101"
   points="15.987,66.103 32.685,49.49 49.382,66.103 32.685,82.715 "
   id="polygon412"
   transform="matrix(-0.9137428,0,0,0.90828598,137.09818,6.7535504)" />
<polygon
   fill="#010101"
   points="0,53.384 91.081,144 0,144 "
   id="polygon414"
   transform="matrix(-0.9137428,0,0,0.90828598,137.09818,6.7535504)" />
<rect
   style="fill:none;fill-opacity:1;stroke:#000000;stroke-width:5;stroke-dasharray:none"
   id="rect2525"
   width="143.43141"
   height="143.43141"
   x="-143.43141"
   y="0.5168699"
   transform="scale(-1,1)"
   inkscape:label="rect2525" /></svg>
