<?xml version="1.0" encoding="utf-8"?>
<!-- Generator: Adobe Illustrator 16.0.0, SVG Export Plug-In . SVG Version: 6.00 Build 0)  -->
<!DOCTYPE svg PUBLIC "-//W3C//DTD SVG 1.1//EN" "http://www.w3.org/Graphics/SVG/1.1/DTD/svg11.dtd">
<svg version="1.1" id="_x35_0m" xmlns="http://www.w3.org/2000/svg" xmlns:xlink="http://www.w3.org/1999/xlink" x="0px" y="0px"
	 width="144px" height="144px" viewBox="0 0 144 144" enable-background="new 0 0 144 144" xml:space="preserve">
<g>
	<path fill="#010101" d="M17.667,22.666H35.58v74.136h31.743v14.728H17.667V22.666z"/>
	<path fill="#010101" d="M90.709,96.104c1.293,2.688,3.88,4.081,7.761,4.081c2.189,0,3.882-0.398,5.175-1.095
		c1.294-0.796,2.288-1.79,2.985-3.084c0.696-1.294,1.194-2.786,1.393-4.579c0.199-1.791,0.299-3.582,0.299-5.472
		c0-1.991-0.198-3.882-0.397-5.673c-0.299-1.791-0.896-3.383-1.692-4.776c-0.797-1.393-1.99-2.487-3.482-3.384
		c-1.493-0.796-3.482-1.193-5.971-1.193h-5.971V59.287h5.871c1.891,0,3.483-0.399,4.777-1.196c1.293-0.795,2.288-1.791,3.085-3.084
		c0.795-1.294,1.392-2.787,1.79-4.379c0.398-1.691,0.598-3.383,0.598-5.174c0-4.18-0.697-7.164-2.09-8.956
		c-1.394-1.791-3.583-2.589-6.469-2.589c-1.891,0-3.482,0.398-4.676,1.096c-1.195,0.696-2.19,1.691-2.787,2.985
		c-0.696,1.294-1.095,2.787-1.294,4.578c-0.198,1.791-0.298,3.681-0.298,5.771h-16.52c0-8.755,2.19-15.325,6.567-19.603
		c4.38-4.278,10.848-6.369,19.307-6.369c8.06,0,14.229,1.791,18.708,5.473c4.478,3.683,6.666,9.354,6.666,17.116
		c0,5.274-1.193,9.653-3.582,13.037c-2.389,3.382-5.672,5.473-9.852,6.368v0.197c5.771,0.897,9.752,3.185,12.141,6.867
		c2.389,3.682,3.582,8.358,3.582,13.832c0,2.985-0.398,6.069-1.094,9.154c-0.797,3.186-2.19,5.971-4.379,8.559
		c-2.189,2.588-5.175,4.677-8.856,6.169c-3.683,1.493-8.758,2.39-14.827,2.39c-8.559,0-14.928-2.288-19.106-6.966
		c-4.179-4.677-6.368-11.246-6.368-19.803v-0.398h17.115C88.718,89.535,89.415,93.419,90.709,96.104z"/>
</g>
</svg>
