<?xml version="1.0" encoding="utf-8"?>
<!-- Generator: Adobe Illustrator 16.0.0, SVG Export Plug-In . SVG Version: 6.00 Build 0)  -->
<!DOCTYPE svg PUBLIC "-//W3C//DTD SVG 1.1//EN" "http://www.w3.org/Graphics/SVG/1.1/DTD/svg11.dtd">
<svg version="1.1" id="_x35_0m" xmlns="http://www.w3.org/2000/svg" xmlns:xlink="http://www.w3.org/1999/xlink" x="0px" y="0px"
	 width="144px" height="144px" viewBox="0 0 144 144" enable-background="new 0 0 144 144" xml:space="preserve">
<g>
	<path fill="#010101" d="M17.867,22.384h17.978V96.79h31.861v14.781H17.867V22.384z"/>
	<path fill="#010101" d="M71.701,111.571c0-3.895,0.4-7.591,1.198-10.985c0.799-3.396,1.999-6.691,3.596-9.788
		c1.598-3.096,3.696-6.093,6.092-9.088c2.497-2.997,5.294-5.893,8.59-8.891l7.191-6.79c1.998-1.798,3.596-3.396,4.794-4.894
		c1.199-1.5,2.098-2.998,2.796-4.495c0.7-1.497,1.099-3.097,1.299-4.894c0.199-1.798,0.299-3.796,0.299-5.992
		c0-7.291-2.896-10.987-8.79-10.987c-2.198,0-3.995,0.5-5.293,1.397c-1.298,0.9-2.297,2.197-2.997,3.796
		c-0.699,1.599-1.198,3.396-1.398,5.494c-0.199,2.097-0.299,4.294-0.299,6.592H71.701V48.65c0-8.188,2.197-14.582,6.591-18.976
		c4.395-4.396,11.386-6.592,20.875-6.592c8.989,0,15.68,2.098,19.975,6.192c4.294,4.094,6.492,10.086,6.492,17.878
		c0,2.796-0.2,5.491-0.799,7.889c-0.6,2.396-1.298,4.794-2.397,7.093c-1.099,2.196-2.497,4.393-4.194,6.592
		c-1.698,2.196-3.896,4.294-6.393,6.592l-9.987,9.188c-2.697,2.396-4.795,4.794-6.193,7.09c-1.398,2.298-2.497,4.296-2.896,5.893
		h33.359v13.982L71.701,111.571L71.701,111.571z"/>
</g>
</svg>
