<?xml version="1.0" encoding="utf-8"?>
<!-- Generator: Adobe Illustrator 16.0.0, SVG Export Plug-In . SVG Version: 6.00 Build 0)  -->
<!DOCTYPE svg PUBLIC "-//W3C//DTD SVG 1.1//EN" "http://www.w3.org/Graphics/SVG/1.1/DTD/svg11.dtd">
<svg version="1.1" id="_x35_0m" xmlns="http://www.w3.org/2000/svg" xmlns:xlink="http://www.w3.org/1999/xlink" x="0px" y="0px"
	 width="144px" height="144px" viewBox="0 0 144 144" enable-background="new 0 0 144 144" xml:space="preserve">
<g>
	<path fill="#010101" d="M42.841,22.582c4.662,0,8.431,0.795,11.604,2.281c3.173,1.588,5.653,3.57,7.637,6.052
		c1.884,2.479,3.273,5.354,4.165,8.528c0.794,3.174,1.29,6.446,1.29,9.818c0,4.563-0.694,8.629-2.083,12.002
		c-1.389,3.372-3.273,6.247-5.752,8.33c-2.48,2.183-5.455,3.769-9.026,4.86c-3.57,1.092-7.439,1.588-11.703,1.588h-9.72v35.605
		H11.202V22.384h31.639V22.582z M37.386,62.949c3.57,0,6.545-1.091,8.728-3.272c2.182-2.183,3.372-5.555,3.372-10.116
		c0-4.464-0.992-7.935-2.876-10.216c-1.884-2.282-5.158-3.472-9.72-3.472h-7.537V63.05h8.034V62.949z"/>
	<path fill="#010101" d="M108.102,22.582c4.563,0,8.53,0.795,11.605,2.281c3.173,1.588,5.653,3.57,7.637,6.052
		c1.884,2.479,3.273,5.354,4.166,8.528c0.793,3.174,1.289,6.446,1.289,9.818c0,4.563-0.694,8.629-2.083,12.002
		c-1.388,3.372-3.273,6.247-5.752,8.33c-2.48,2.183-5.455,3.769-9.026,4.86c-3.57,1.092-7.438,1.588-11.702,1.588h-9.72v35.605
		H76.463V22.384h31.638V22.582z M102.548,62.949c3.571,0,6.546-1.091,8.728-3.272c2.183-2.183,3.372-5.555,3.372-10.116
		c0-4.464-0.992-7.935-2.876-10.216c-1.885-2.282-5.158-3.472-9.72-3.472h-7.537V63.05h8.033V62.949z"/>
</g>
</svg>
