<?xml version="1.0" encoding="utf-8"?>
<!-- Generator: Adobe Illustrator 16.0.0, SVG Export Plug-In . SVG Version: 6.00 Build 0)  -->
<!DOCTYPE svg PUBLIC "-//W3C//DTD SVG 1.1//EN" "http://www.w3.org/Graphics/SVG/1.1/DTD/svg11.dtd">
<svg version="1.1" id="_x35_0m" xmlns="http://www.w3.org/2000/svg" xmlns:xlink="http://www.w3.org/1999/xlink" x="0px" y="0px"
	 width="144px" height="144px" viewBox="0 0 144 144" enable-background="new 0 0 144 144" xml:space="preserve">
<g>
	<path fill="#010101" d="M30.321,83.409h0.231V22.384h11.759v89.145H27.669L11.99,49.044h-0.231v62.484H0V22.384h14.872
		L30.321,83.409z"/>
	<path fill="#010101" d="M72.864,22.384c2.651,0,5.073,0.417,7.265,1.146c2.189,0.729,4.149,1.979,5.764,3.748
		c1.613,1.771,2.883,4.062,3.805,6.977c0.922,2.918,1.383,6.457,1.383,10.729c0,4.79-0.806,8.955-2.421,12.392
		c-1.614,3.437-4.035,5.833-7.263,7.083v0.206c3.573,0.626,6.456,2.813,8.531,6.354c2.075,3.539,3.113,8.33,3.113,14.37
		c0,3.541-0.347,6.874-0.924,9.998c-0.69,3.124-1.728,5.935-3.342,8.33s-3.688,4.271-6.11,5.728
		c-2.421,1.459-5.649,2.084-9.454,2.084H51.305V22.384H72.864z M67.792,58.938c3.573,0,6.226-0.938,7.84-2.708
		c1.613-1.771,2.421-4.792,2.421-9.062s-0.808-7.29-2.19-8.957c-1.384-1.664-3.805-2.602-7.033-2.602h-4.611v23.328H67.792z
		 M69.175,98.302c3.112,0,5.649-0.938,7.494-2.915c1.96-1.875,2.883-5.415,2.883-10.624c0-2.602-0.231-4.686-0.809-6.456
		c-0.576-1.771-1.152-3.123-2.074-4.165s-1.845-1.771-3.113-2.188c-1.269-0.416-2.536-0.625-3.919-0.625h-5.533v26.868
		C64.218,98.302,69.175,98.302,69.175,98.302z"/>
	<path fill="#010101" d="M112.526,22.384l8.184,28.787l8.187-28.787h14.065L128.09,66.446L144,111.444h-14.412l-9.223-30.137
		l-9.107,30.137H97.075l15.911-44.998L98.344,22.384H112.526z"/>
</g>
</svg>
