<?xml version="1.0" encoding="utf-8"?>
<!-- Generator: Adobe Illustrator 16.0.0, SVG Export Plug-In . SVG Version: 6.00 Build 0)  -->
<!DOCTYPE svg PUBLIC "-//W3C//DTD SVG 1.1//EN" "http://www.w3.org/Graphics/SVG/1.1/DTD/svg11.dtd">
<svg version="1.1" id="_x35_0m" xmlns="http://www.w3.org/2000/svg" xmlns:xlink="http://www.w3.org/1999/xlink" x="0px" y="0px"
	 width="144px" height="144px" viewBox="0 0 144 144" enable-background="new 0 0 144 144" xml:space="preserve">
<g>
	<circle fill="#3D93D0" cx="71.999" cy="72" r="68.101"/>
	<g>
		<path fill="#010101" d="M138.3,43.999c-3.6-8.598-8.801-16.299-15.4-22.898S108.601,9.3,99.999,5.7
			c-8.799-3.801-18.299-5.699-28-5.699c-9.699,0-19.1,1.898-28,5.699c-8.598,3.6-16.299,8.801-22.898,15.4S9.3,35.401,5.7,43.999
			c-3.801,8.9-5.699,18.301-5.699,28c0,9.701,1.898,19.201,5.699,28c3.6,8.602,8.801,16.301,15.4,22.9s14.301,11.801,22.898,15.4
			c8.9,3.801,18.301,5.699,28,5.699c9.701,0,19.201-1.898,28-5.699c8.602-3.6,16.301-8.801,22.9-15.4s11.801-14.299,15.4-22.9
			c3.801-8.898,5.699-18.299,5.699-28C143.999,62.3,142.101,52.8,138.3,43.999z M89.001,87.899c3.6,2.801,3.6,2.801,7.098-0.1
			c0.102-0.1,0.301,0,0.102,0c2.4,2.299,4.799,4.301,6.898,6.6c2.4,2.602,3.201,5.801,2.301,9.199c-1,4.002-3.5,6.701-7.5,7.902
			c-3.9,1.1-7.5,0.199-10.5-2.801c-5-5-9.998-10.1-15.1-15.1l10.701-10.5C84.999,84.7,86.999,86.3,89.001,87.899z M67.399,88.601
			c-1.199-1.201-2.299-2.301-3.5-3.5l9.602-9.6c1.299,0.998,2.6,2.1,3.9,3.1L67.399,88.601z M64.001,68.001c1.299,1.1,2.6,2.1,4,3.1
			L58.2,80.899c-1.799-0.799-3.699-1.299-5.699-1.4L64.001,68.001z M81.001,50.899L109.2,22.7c1.301,1,2.6,2.1,3.9,3.199L84.2,54.8
			C83.2,53.501,82.099,52.2,81.001,50.899z M36.399,95.601c0.5-0.201,1-0.5,1.4-1c1.801-1.801,3.6-3.602,5.4-5.4
			c3.4-3.4,7-4.701,10.5-3.801l-27.699,27.701c-1.102-1.301-2.201-2.6-3.201-3.9L36.399,95.601z M59.899,89.2
			c1.201,1.199,2.301,2.299,3.502,3.5L34.8,121.3c-1.299-1-2.6-2-3.799-3.1L59.899,89.2z M88.7,60.399l29.398-29.398
			c1.102,1.199,2.201,2.5,3.102,3.799L91.8,64.3C90.7,63.001,89.7,61.7,88.7,60.399z M28.3,28.3c11.701-11.6,27.201-18,43.699-18
			c11.102,0,21.9,2.9,31.201,8.5l-26.6,26.6c-0.6-0.699-1.201-1.5-2-2.4C68.3,49.3,62.2,55.3,56.001,61.501
			c1.1,0.898,1.699,1.5,2.398,2L18.7,103.2c-5.5-9.4-8.5-20.1-8.5-31.201C10.3,55.501,16.7,40.001,28.3,28.3z M115.7,115.7
			c-11.699,11.6-27.199,18-43.701,18c-11.1,0-21.898-2.9-31.199-8.5l27.6-27.6c4.9,4.9,9.801,9.799,14.701,14.699
			c3.398,3.5,7.6,5.5,12.4,5.201c7.1-0.301,12.398-4.002,14.898-10.701c2.4-6.5,1-12.5-4.1-17.5c-2-1.9-4-3.801-5.9-5.699
			c0.4-0.5,0.6-0.801,0.801-1.002c2.699-2.998,2.801-3.398,0.199-6.598c-1.699-2.102-3.4-4.201-5.1-6.301l29-29
			c5.5,9.4,8.5,20.1,8.5,31.199C133.7,88.501,127.3,104.001,115.7,115.7z"/>
		<path fill="#010101" d="M51.601,57.899c0.799,0.1,2.1-0.299,2.699-0.898c5.201-5.102,10.301-10.4,15.6-15.5
			c1.201-1.102,1.301-2.301,1.102-3.701c-1.5-8.199-8.701-14.1-17-14.1c-5.1,0-9.801,2.1-13.201,6.299
			c-4.301,5.301-5.199,11.4-2.6,17.701C40.601,53.601,45.2,57.101,51.601,57.899z"/>
	</g>
</g>
</svg>
