<?xml version="1.0" encoding="utf-8"?>
<!-- Generator: Adobe Illustrator 16.0.0, SVG Export Plug-In . SVG Version: 6.00 Build 0)  -->
<!DOCTYPE svg PUBLIC "-//W3C//DTD SVG 1.1//EN" "http://www.w3.org/Graphics/SVG/1.1/DTD/svg11.dtd">
<svg version="1.1" id="_x35_0m" xmlns="http://www.w3.org/2000/svg" xmlns:xlink="http://www.w3.org/1999/xlink" x="0px" y="0px"
	 width="144px" height="144px" viewBox="0 0 144 144" enable-background="new 0 0 144 144" xml:space="preserve">
<g>
	<circle fill="#3D93D0" cx="72" cy="72" r="68.056"/>
	<path fill="#010101" d="M72,144c-9.708,0-19.111-1.921-28.011-5.662c-8.596-3.641-16.281-8.798-22.854-15.372
		c-6.572-6.572-11.831-14.358-15.472-22.954C1.922,91.112,0,81.708,0,72.001c0-9.708,1.922-19.113,5.663-28.012
		c3.641-8.596,8.798-16.28,15.371-22.854c6.572-6.573,14.359-11.831,22.955-15.472C52.889,1.922,62.292,0,72,0
		c9.709,0,19.113,1.922,28.012,5.663c8.596,3.641,16.281,8.798,22.854,15.371c6.573,6.573,11.832,14.259,15.473,22.854
		C142.079,52.787,144,62.191,144,71.899s-1.921,19.112-5.662,28.011c-3.641,8.596-8.798,16.281-15.371,22.854
		c-6.572,6.572-14.359,11.831-22.854,15.37C91.113,142.079,81.709,144,72,144z M72,10.315c-16.482,0-31.955,6.472-43.685,18.101
		c-11.731,11.63-18.001,27.102-18.001,43.585c0,16.482,6.473,31.955,18.102,43.685c11.629,11.73,27.102,18,43.584,18
		c16.483,0,31.956-6.37,43.686-18.102c11.731-11.729,18.001-27.101,18.001-43.583c0-16.483-6.371-31.955-18.102-43.687
		C103.854,16.585,88.483,10.315,72,10.315z"/>
	<path fill="#010101" d="M56.022,61.483c6.169-6.169,12.236-12.236,18.607-18.506c1.314,1.518,2.226,2.73,3.236,3.843
		c7.786,9.809,15.572,19.518,23.461,29.225c2.527,3.136,2.527,3.642-0.203,6.573c-0.202,0.202-0.304,0.405-0.809,1.011
		c1.921,1.922,3.943,3.742,5.967,5.664c5.056,4.955,6.472,10.921,4.044,17.494c-2.427,6.775-7.685,10.314-14.864,10.719
		c-4.854,0.203-9-1.719-12.438-5.259c-7.686-7.786-15.473-15.471-23.158-23.156c-5.46-5.462-11.123-5.462-16.584,0
		c-1.82,1.819-3.641,3.64-5.461,5.46c-1.618,1.517-3.337,1.719-4.55,0.404c-1.113-1.213-1.012-2.831,0.505-4.348
		c2.023-2.124,4.146-4.248,6.27-6.27c6.776-6.473,16.483-6.473,23.259,0.202c8.09,7.988,16.18,16.079,24.169,24.168
		c2.933,2.934,6.472,3.843,10.416,2.73c3.943-1.112,6.472-3.843,7.482-7.888c0.81-3.438,0.102-6.674-2.326-9.202
		c-2.123-2.225-4.449-4.247-6.876-6.573c0.203,0,0-0.101-0.101,0c-3.539,2.934-3.539,2.934-7.18,0.102
		c-10.214-8.091-20.326-16.18-30.54-24.27C57.844,63,57.136,62.395,56.022,61.483z"/>
	<path fill="#010101" d="M53.899,23.765c8.393,0,15.573,5.966,16.988,14.056c0.304,1.416,0.102,2.528-1.112,3.742
		c-5.258,5.056-10.314,10.314-15.572,15.472c-0.607,0.606-1.821,1.011-2.73,0.91c-6.371-0.91-11.022-4.348-13.449-10.214
		c-2.63-6.27-1.72-12.337,2.629-17.696C44.091,25.888,48.843,23.765,53.899,23.765z"/>
</g>
</svg>
