<?xml version="1.0" encoding="utf-8"?>
<!-- Generator: Adobe Illustrator 16.0.0, SVG Export Plug-In . SVG Version: 6.00 Build 0)  -->
<!DOCTYPE svg PUBLIC "-//W3C//DTD SVG 1.1//EN" "http://www.w3.org/Graphics/SVG/1.1/DTD/svg11.dtd">
<svg version="1.1" id="_x35_0m" xmlns="http://www.w3.org/2000/svg" xmlns:xlink="http://www.w3.org/1999/xlink" x="0px" y="0px"
	 width="144px" height="144px" viewBox="0 0 144 144" enable-background="new 0 0 144 144" xml:space="preserve">
<rect y="38.012" fill="#010101" width="144" height="67.977"/>
<rect x="2.213" y="40.175" fill="#3E94D1" width="139.575" height="63.65"/>
<g>
	<path fill="#010101" d="M10.961,87.634H4.928V56.462h9.453l5.631,24.535l5.631-24.535h9.353v31.172h-6.033V66.517
		c0-0.604,0-1.408,0-2.514s0-1.91,0-2.514l-5.934,26.145h-6.335l-5.832-26.145c0,0.604,0,1.408,0,2.514s0,1.91,0,2.514
		L10.961,87.634L10.961,87.634z"/>
	<path fill="#010101" d="M54.905,88.438c-4.425,0-7.844-1.207-10.257-3.619c-3.117-3.018-4.727-7.24-4.727-12.871
		c0-5.732,1.609-9.955,4.727-12.873c2.313-2.412,5.731-3.619,10.257-3.619s7.844,1.207,10.258,3.619
		c3.116,2.816,4.726,7.141,4.726,12.873c0,5.631-1.609,9.854-4.726,12.871C62.749,87.231,59.33,88.438,54.905,88.438z
		 M61.039,80.093c1.509-1.91,2.213-4.625,2.213-8.145s-0.805-6.234-2.313-8.146c-1.509-1.91-3.521-2.916-6.135-2.916
		s-4.625,0.904-6.134,2.816c-1.509,1.91-2.313,4.625-2.313,8.145s0.804,6.234,2.313,8.145s3.62,2.816,6.134,2.816
		C57.319,82.808,59.531,82.003,61.039,80.093z"/>
	<path fill="#010101" d="M88.19,87.634H74.815V56.462h13.476c1.911,0,3.52,0.301,4.826,0.703c2.213,0.705,3.923,2.012,5.33,3.922
		c1.106,1.508,1.811,3.219,2.212,5.027c0.402,1.811,0.604,3.52,0.604,5.129c0,4.123-0.804,7.643-2.514,10.559
		C96.436,85.622,92.917,87.634,88.19,87.634z M93.117,64.405c-1.006-1.709-3.016-2.514-5.933-2.514h-6.033v20.313h6.033
		c3.117,0,5.229-1.508,6.436-4.525c0.705-1.709,1.006-3.619,1.006-5.932C94.525,68.528,94.022,66.114,93.117,64.405z"/>
	<path fill="#010101" d="M105.587,56.462h6.436v31.172h-6.436V56.462z"/>
	<path fill="#010101" d="M140.179,61.892h-15.586v7.141h13.676v5.43h-13.676v13.072h-6.436V56.36h22.123L140.179,61.892
		L140.179,61.892z"/>
</g>
</svg>
