<?xml version="1.0" encoding="utf-8"?>
<!-- Generator: Adobe Illustrator 16.0.0, SVG Export Plug-In . SVG Version: 6.00 Build 0)  -->
<!DOCTYPE svg PUBLIC "-//W3C//DTD SVG 1.1//EN" "http://www.w3.org/Graphics/SVG/1.1/DTD/svg11.dtd">
<svg version="1.1" id="_x35_0m" xmlns="http://www.w3.org/2000/svg" xmlns:xlink="http://www.w3.org/1999/xlink" x="0px" y="0px"
	 width="144px" height="144px" viewBox="0 0 144 144" enable-background="new 0 0 144 144" xml:space="preserve">
<g>
	<g>
		<g>
			<path fill="#010101" d="M68.692,0.169c-2.004,0.401-3.107,1.003-3.608,1.905c-0.4,0.901-0.501,1.503-0.101,3.607
				c0.101,0.501,0.101,0.701,0,0.902c-0.101,0.301-0.101,2.104,0,3.007c0.201,1.003,0.602,2.205,0.902,2.505
				c0.301,0.402,0.702,0.502,1.604,0.603c0.801,0,0.801,0,0.901,0.3c0.101,0.401,0,1.805-0.2,2.306s-0.301,0.602-0.802,1.203
				c-1.104,1.102-1.904,2.405-2.306,3.809c-0.4,1.303-1.403,8.219-1.804,12.63l-0.302,1.503l-1.101,0.501
				c-1.404,0.702-3.609,2.005-4.512,2.606l-0.801,0.5l-0.502-0.399c-1.904-1.605-3.81-3.81-5.714-6.615
				c-2.004-3.008-4.009-4.812-7.316-6.716c-3.709-2.206-8.72-3.008-13.43-2.105c-0.502,0.101-1.204,0.301-1.505,0.301l-0.601,0.2
				l-0.902-0.2c-1.905-0.401-2.807-0.401-5.213-0.501c-1.303,0-2.505,0-2.706,0l-0.3,0.1l1.203,0.903
				c0.601,0.5,1.604,1.303,2.305,1.904c0.702,0.601,1.203,1.002,1.203,1.002s0.2,1.604,0.3,2.906
				c0.101,0.702,0.101,3.107,0.101,6.415c0,6.215,0.101,8.72,0.502,12.229c0.2,1.603,0.4,2.204,1.202,2.906
				c1.303,1.303,3.207,1.503,5.111,0.601c0.301-0.1,0.702-0.3,1.003-0.3c0.701-0.101,0.902-0.301,1.202-0.702
				c0.2-0.301,0.2-0.501,0.302-1.804c0.1-1.704,0.2-2.706,0.601-3.608c0.702-2.005,1.103-3.106,1.303-4.01l0.201-0.901l1.203-0.602
				c0.701-0.301,1.303-0.602,1.303-0.602c0.2,0,1.102,1.805,1.604,3.008c0.802,1.903,1.103,3.707,1.303,5.712
				c0,0.602,0.101,3.108,0.101,5.514s0.1,4.811,0.1,5.212c0.201,1.704,0.702,3.708,1.403,5.211c0.201,0.401,0.302,0.803,0.302,0.803
				s-0.603,0.2-1.304,0.301c-3.407,0.701-6.515,1.704-9.723,3.207c-1.603,0.802-2.305,1.203-3.308,1.904
				c-1.002,0.802-1.403,1.103-1.603,1.905c-0.402,1.002-0.303,1.503,0.199,3.707c1.003,3.81,2.105,7.519,3.608,11.527
				c1.403,3.608,1.704,4.31,3.107,5.713c1.604,1.604,3.909,2.807,6.113,3.308c0.401,0.101,0.803,0.101,0.903,0.101h0.3v-6.315
				h-1.303h-1.303l-0.301-0.501c-0.401-0.802-1.203-1.504-2.104-2.004c-0.401-0.201-0.902-0.501-1.003-0.501
				c-0.2-0.302-0.4-0.702-0.4-1.304c-0.201-1.804-0.802-5.613-1.303-7.817c-0.201-1.003-0.201-1.303-0.201-1.505
				c0.1-0.399,0.501-0.701,0.902-0.801c1.904-0.3,2.806-0.4,3.909-0.701c0.702-0.201,1.804-0.301,2.405-0.401
				c2.205-0.2,4.21-0.601,6.215-1.303c1.503-0.502,2.605-1.002,3.207-1.404l0.2-0.199l0.4,0.301c0.201,0.2,0.702,0.5,1.003,0.701
				c0.901,0.602,1.203,1.002,2.906,4.109c0.401,0.701,0.902,1.604,1.104,2.004c2.305,3.81,3.307,5.612,4.811,8.62
				c1.504,3.208,2.506,5.513,3.709,8.72c0.601,1.504,0.601,1.504,0.501,2.306c0,0.903-0.302,1.403-1.103,2.405
				c-1.204,1.403-2.406,3.51-3.008,5.013l-0.2,0.502h3.407c1.904,0,3.408,0,3.408,0s0.102-0.603,0.102-1.404
				c0.1-0.702,0.2-1.504,0.2-1.604c0.3-0.902,0.802-1.704,1.603-2.305c0.201-0.102,0.401-0.401,0.603-0.803
				c0.2-0.501,0.301-0.602,0.301-1.203s0-0.602-0.903-2.505c-1.603-3.308-1.904-4.311-2.305-7.018
				c-0.2-1.102-0.501-2.404-0.902-3.808c-1.303-4.511-1.804-6.816-2.506-10.825c-0.1-0.802-0.301-2.005-0.501-2.506
				c-0.1-0.602-0.199-1.002-0.199-1.002s0.601,0,1.303,0.1c5.211,0.702,11.226,0.702,16.337,0c1.102-0.2,3.809-0.601,4.911-0.902
				c0.602-0.101,0.802-0.101,0.802-0.101s0.2,0.603,0.301,1.304c1.002,4.41,2.104,8.62,3.207,11.325
				c0.301,0.803,0.401,1.003,0.401,1.505c0,0.602,0,0.701-0.602,1.904c-0.301,0.701-0.802,1.804-1.203,2.305
				c-0.901,1.504-2.706,4.109-4.711,6.716c-1.102,1.403-2.005,2.706-2.605,3.709c-0.301,0.4-0.702,1.103-1.002,1.503
				c-0.803,1.103-1.303,1.704-1.704,2.506c-0.501,0.801-1.503,2.906-1.503,2.906s1.603,0,3.607,0.101l3.608,0.102v-0.402
				c0-0.2,0.101-0.902,0.101-1.503c0.1-1.705,0.1-1.604,0.702-1.805c0.801-0.3,1.202-0.902,1.703-2.004
				c0.802-1.905,1.804-3.91,2.907-5.514c1.804-2.605,4.91-5.813,7.617-7.817c1.202-0.902,1.604-1.504,1.604-2.306
				c0-0.3-0.2-1.504-0.401-2.807c-0.4-2.104-0.4-2.506-0.4-3.507c0-1.304,0.101-2.005,0.601-3.108
				c0.501-1.303,1.002-2.104,2.105-3.207c0.501-0.502,1.002-1.002,1.103-1.002c0,0,0.301,0.301,0.501,0.702
				c1.504,2.104,3.509,4.108,5.713,5.712c1.504,1.103,3.308,2.606,4.911,4.11c2.606,2.405,3.208,3.207,4.211,5.512
				c0.801,1.604,0.901,2.005,2.104,5.914c1.504,4.911,1.604,5.412,1.504,6.214c-0.101,0.902-0.3,1.505-1.002,2.406
				c-0.301,0.401-0.701,1.104-1.003,1.503c-0.502,0.802-1.303,2.506-1.303,2.706c0,0,1.104,0.101,3.308,0.101
				c1.804,0,3.308,0,3.308,0s0-0.702,0.101-1.604c0-0.902,0.1-1.704,0.1-1.805s0.201-0.3,0.301-0.3
				c0.401-0.302,1.002-0.803,1.203-1.203c0.1-0.2,0.2-0.603,0.2-0.802c0-0.501,0-0.702-1.002-4.01
				c-0.501-1.604-0.702-2.405-2.306-7.817c-1.403-4.912-1.403-4.711-1.303-7.316c0-2.105,0-2.005-1.002-3.308
				c-2.205-2.807-2.605-3.408-3.308-4.711c-0.602-1.103-1.104-2.406-1.404-3.608c-0.5-2.005-0.5-2.305-0.601-7.016
				c0-2.406,0-4.712-0.101-5.112c-0.2-2.205-0.4-3.709-0.802-4.812c-0.802-2.306-2.004-4.51-3.508-6.314
				c-1.003-1.203-1.003-1.103,0-1.002c1.905,0.101,3.508,0.902,4.41,2.004c0.601,0.803,1.403,2.506,2.005,4.21
				c0.601,1.704,0.802,3.107,1.103,6.014c0.401,3.909,0.601,6.716,0.701,10.926l0.1,2.806h0.903c0.501,0,2.506,0,4.409,0
				c1.905,0,3.609,0,3.609-0.1c0.1-0.101-0.201-5.012-0.603-8.22c-0.199-2.506-0.701-6.615-0.901-7.517
				c-0.401-2.506-1.504-5.012-2.907-7.117c-0.902-1.303-1.403-1.904-2.205-2.705c-2.906-2.807-7.416-3.81-11.927-2.907
				c-0.602,0.101-1.103,0.301-1.203,0.301s-0.502,0-1.403-0.301c-2.906-0.902-6.716-2.005-7.718-2.205
				c-2.806-0.602-5.813-0.502-8.82,0.2c-2.405,0.501-7.417,1.404-7.517,1.303c0,0-0.501-1.703-1.002-3.707
				c-1.003-4.11-1.204-4.812-1.805-6.416c-0.803-1.904-1.002-2.807-1.204-5.112c-0.199-1.803-0.399-3.006-0.601-3.908
				c-0.2-0.803-1.002-3.508-1.102-3.808c0-0.102-0.201-0.502-0.401-1.003c-0.201-0.401-0.702-1.504-1.103-2.406
				c-0.702-1.403-0.802-1.703-0.902-2.405c-0.101-0.701-0.101-0.902,0-1.604c0.101-0.4,0.2-1.103,0.301-1.504
				c0.803-3.107,0.5-6.515-0.803-8.118c-0.3-0.401-0.5-0.602-1.102-0.902C71.298-0.031,70.196-0.131,68.692,0.169L68.692,0.169z"/>
		</g>
	</g>
	<polygon fill="#AEAEAE" points="136.549,116.236 126.626,116.236 126.626,102.806 17.374,102.806 17.374,116.236 7.451,116.236 
		7.451,129.768 17.374,129.768 17.374,144 126.626,144 126.626,129.768 136.549,129.768 	"/>
</g>
</svg>
