<?xml version="1.0" encoding="UTF-8" standalone="no"?>
<!-- Generator: Adobe Illustrator 16.0.0, SVG Export Plug-In . SVG Version: 6.00 Build 0)  -->

<svg
   version="1.1"
   id="_x35_0m"
   x="0px"
   y="0px"
   width="144px"
   height="144px"
   viewBox="0 0 144 144"
   enable-background="new 0 0 144 144"
   xml:space="preserve"
   sodipodi:docname="mosque.svg"
   inkscape:version="1.2.1 (9c6d41e410, 2022-07-14)"
   xmlns:inkscape="http://www.inkscape.org/namespaces/inkscape"
   xmlns:sodipodi="http://sodipodi.sourceforge.net/DTD/sodipodi-0.dtd"
   xmlns="http://www.w3.org/2000/svg"
   xmlns:svg="http://www.w3.org/2000/svg"><defs
   id="defs552" /><sodipodi:namedview
   id="namedview550"
   pagecolor="#ffffff"
   bordercolor="#000000"
   borderopacity="0.25"
   inkscape:showpageshadow="2"
   inkscape:pageopacity="0.0"
   inkscape:pagecheckerboard="true"
   inkscape:deskcolor="#d1d1d1"
   showgrid="false"
   inkscape:zoom="5.4722222"
   inkscape:cx="51.807107"
   inkscape:cy="100.78173"
   inkscape:window-width="1920"
   inkscape:window-height="986"
   inkscape:window-x="-11"
   inkscape:window-y="-11"
   inkscape:window-maximized="1"
   inkscape:current-layer="g547" />
<g
   id="g547">
	<rect
   style="fill:#ffffff;fill-opacity:1;stroke:#000000"
   id="rect2118"
   width="104.16244"
   height="27.959391"
   x="20.284264"
   y="110.74112" /><rect
   style="fill:#ffffff;stroke:#000000;fill-opacity:1"
   id="rect731"
   width="76.385788"
   height="21.928934"
   x="33.441624"
   y="78.761421"
   inkscape:label="rect731" /><path
   fill="#010101"
   d="M133.559,144.157c-41.287,0-82.271,0-123.357,0c0-0.704-0.101-1.309-0.101-1.912c0-9.265,0-18.529,0-27.793   c0-1.008,0.403-2.116,1.007-3.021c1.611-2.216,3.424-4.23,5.035-6.445c0.906-1.209,1.913-1.611,3.323-1.511   c2.517,0.102,5.135,0,7.854,0c0-5.538,0-10.977,0-16.515c-0.806,0-1.41-0.102-2.115-0.102c-2.819-0.1-4.732-2.013-4.833-4.732   c-0.101-2.919,1.611-5.034,4.632-5.136c1.611-0.1,2.014-0.704,2.215-2.113c0.906-6.144,2.014-12.185,3.122-18.328   c2.215-11.682,8.962-20.141,19.435-25.779c4.732-2.618,9.566-5.136,14.199-7.855c2.316-1.308,4.33-2.92,6.747-4.632   c-4.33-2.215-6.747-5.337-6.545-10.069c0.1-3.323,1.51-5.941,4.632-8.056c-1.107,4.632-0.403,8.56,3.223,11.379   c3.524,2.819,7.35,2.819,11.68,0.604c-1.913,4.431-5.135,6.345-9.969,6.746c2.115,1.512,3.625,2.72,5.337,3.727   c3.927,2.215,7.854,4.531,11.882,6.545c13.795,6.646,21.449,17.622,23.463,32.627c0.604,4.531,1.41,9.063,2.114,13.595   c0.202,1.007,0.303,1.712,1.713,1.813c3.322,0.202,5.235,2.114,5.235,5.034c-0.101,2.921-2.216,4.733-5.639,4.835   c-0.403,0-0.806,0.101-1.41,0.101c0,5.437,0,10.774,0,16.515c2.618,0,5.236,0.1,7.855,0c1.409-0.101,2.417,0.302,3.322,1.51   c1.914,2.618,4.733,4.732,5.74,7.653s0.302,6.444,0.302,9.768C133.559,129.557,133.559,136.705,133.559,144.157z M62.566,135.498   c0-4.633-0.101-8.963,0-13.395c0.1-3.12-1.511-4.934-3.928-6.242c-0.403-0.202-1.107-0.303-1.51-0.101   c-2.417,1.309-4.229,3.121-4.129,6.143c0.101,3.927,0,7.753,0,11.682c0,0.604,0.101,1.207,0.202,1.812   C56.423,135.498,59.343,135.498,62.566,135.498z M90.459,135.498c0-4.633-0.101-8.963,0-13.395c0.101-3.12-1.611-4.832-4.028-6.242   c-0.402-0.202-1.107-0.303-1.51,0c-2.417,1.41-4.229,3.021-4.129,6.242c0.101,3.224,0,6.546,0,9.77c0,1.208,0,2.416,0,3.726   C84.216,135.498,87.237,135.498,90.459,135.498z M25.407,135.396c3.122,0,6.143,0,9.265,0c0-5.136,0-9.969,0-14.903   c0-1.713-2.719-4.632-4.33-4.935c-1.309-0.201-4.733,2.72-4.834,4.633C25.206,125.227,25.407,130.261,25.407,135.396z    M118.353,135.498c0-4.733-0.1-9.165,0-13.696c0.101-3.021-1.813-4.632-4.129-6.041c-0.402-0.202-1.107-0.202-1.51,0.101   c-2.315,1.41-4.129,3.021-3.927,6.143c0.201,3.223,0,6.546,0,9.769c0,1.208,0,2.417,0,3.726   C112.11,135.498,115.03,135.498,118.353,135.498z M59.545,97.231c0-3.424,0.302-6.746-0.101-9.969   c-0.201-1.31-2.014-2.417-3.021-3.524c-1.108,1.007-2.92,1.913-3.021,3.021c-0.403,3.424-0.101,7.049-0.101,10.473   C55.416,97.231,57.329,97.231,59.545,97.231z M75.052,97.231c0-3.424,0-6.646,0-9.869c0-1.51-2.416-4.128-3.222-3.523   c-1.31,0.805-2.92,2.114-3.122,3.424c-0.402,3.223-0.101,6.646-0.101,9.969C70.722,97.231,72.736,97.231,75.052,97.231z    M43.936,97.231c0-3.424,0-6.646,0-9.969c0-1.511-2.417-4.129-3.222-3.524c-1.309,0.805-2.92,2.215-3.122,3.524   c-0.402,3.223-0.1,6.646-0.1,9.969C39.707,97.231,41.721,97.231,43.936,97.231z M90.56,97.231c0-2.92,0-5.739,0-8.459   c0-0.402,0-0.806,0-1.208c-0.101-1.511-1.912-3.726-3.121-3.826c-1.008-0.102-3.223,1.913-3.223,3.323   c-0.102,3.424,0,6.746,0,10.271C86.33,97.231,88.344,97.231,90.56,97.231z M106.067,97.231c0-3.323,0-6.546,0-9.769   c0-1.51-1.813-3.725-3.021-3.826c-1.107-0.101-3.323,2.015-3.323,3.525c-0.101,3.323,0,6.646,0,10.069   C101.738,97.231,103.752,97.231,106.067,97.231z"
   id="path545" />
</g>
<g
   inkscape:groupmode="layer"
   id="layer1"
   inkscape:label="white" /></svg>
