<?xml version="1.0" encoding="utf-8"?>
<!-- Generator: Adobe Illustrator 16.0.0, SVG Export Plug-In . SVG Version: 6.00 Build 0)  -->
<!DOCTYPE svg PUBLIC "-//W3C//DTD SVG 1.1//EN" "http://www.w3.org/Graphics/SVG/1.1/DTD/svg11.dtd">
<svg version="1.1" id="_x35_0m" xmlns="http://www.w3.org/2000/svg" xmlns:xlink="http://www.w3.org/1999/xlink" x="0px" y="0px"
	 width="144px" height="144px" viewBox="0 0 144 144" enable-background="new 0 0 144 144" xml:space="preserve">
<g>
	<g>
		<g>
			<defs>
				<polygon id="SVGID_5_" points="-213.87,1 -212.87,1 -213.87,2 				"/>
			</defs>
			<defs>
				<polygon id="SVGID_6_" points="-215.87,-1 -216.87,-1 -215.87,-2 				"/>
			</defs>
			<clipPath id="SVGID_4_">
				<use xlink:href="#SVGID_5_"  overflow="visible"/>
			</clipPath>
			<clipPath id="SVGID_7_" clip-path="url(#SVGID_4_)">
				<use xlink:href="#SVGID_6_"  overflow="visible"/>
			</clipPath>
		</g>
	</g>
</g>
<g>
	<g>
		<g>
			<defs>
				<polygon id="SVGID_31_" points="-213.87,1 -212.87,1 -213.87,2 				"/>
			</defs>
			<defs>
				<polygon id="SVGID_32_" points="-215.87,-1 -216.87,-1 -215.87,-2 				"/>
			</defs>
			<clipPath id="SVGID_8_">
				<use xlink:href="#SVGID_31_"  overflow="visible"/>
			</clipPath>
			<clipPath id="SVGID_11_" clip-path="url(#SVGID_8_)">
				<use xlink:href="#SVGID_32_"  overflow="visible"/>
			</clipPath>
		</g>
	</g>
</g>
<g>
	<path fill="#010101" d="M105.628,92.64c-16.73,0-32.917-0.364-34.189-0.364c-38.19-4.364-69.106,0-69.288,0
		c-0.909,0.182-1.818-0.363-2-1.272c-1.455-3.273,7.638-15.64,26.733-36.735c0.363-0.364,0.728-0.546,1.091-0.546l11.094-2
		c0.727-0.182,1.636,0.182,2,0.909l3.091,5.455l8.002-2.727c0.546-0.183,1.091-0.183,1.637,0.182
		c3.273,2.182,5.456,9.638,6.365,13.094h7.638c0.546,0,1.091,0.182,1.455,0.727l11.275,13.095l8.001-1.092
		c7.639-0.364,14.367-11.639,14.367-11.639c0.363-0.728,1.272-1.091,2.183-0.909l20.187,5.092c0.363,0.183,0.727,0.364,0.908,0.546
		l5.275,5.819l11.639,7.638c0.727,0.363,0.909,1.272,0.909,2.001c-0.183,0.728-0.728,1.454-1.456,1.454
		C137.634,92.275,121.268,92.64,105.628,92.64z M36.34,86.457c10.366,0,22.551,0.545,35.462,2c0.364,0,47.465,0.91,65.105-0.364
		l-7.456-4.909c-0.183,0-0.183-0.183-0.364-0.364l-5.092-5.456l-18.367-4.729c-2.183,3.274-8.729,12.003-16.549,12.366l-8.912,1.092
		c-0.545,0-1.272-0.182-1.636-0.728L67.256,72.271h-8.184c-0.909,0-1.638-0.546-1.819-1.455c-0.909-3.818-2.728-9.639-4.546-11.639
		l-8.365,2.909c-0.909,0.364-1.818,0-2.183-0.909l-3.273-5.637l-9.093,1.637C18.518,69.18,7.424,82.819,4.515,88.093
		C9.606,87.548,21.063,86.457,36.34,86.457z"/>
	<path fill="#8F8F8E" d="M1.787,90.275c0,0,30.915-4.364,69.651,0c0,0,60.195,1.273,70.924-0.908l-11.82-7.639l-5.456-6.002
		L104.9,70.635c0,0-7.093,12.366-15.821,12.73l-9.094,1.272l-11.82-13.821h-9.093c0,0-2.364-11.093-6.002-13.457l-9.456,3.092
		l-4.001-6.729l-11.275,1.819C28.338,55.541,0.332,86.457,1.787,90.275z"/>
	<path fill="#4C4C4C" d="M16.881,80.818c-0.182,0-0.363,0-0.545-0.182c-0.364-0.363-0.546-0.909-0.182-1.272
		c0.545-0.728,13.093-17.459,21.095-18.913c0.546-0.183,1.091,0.182,1.091,0.727c0.183,0.546-0.182,1.092-0.728,1.092
		C30.338,63.542,17.79,80.273,17.79,80.455C17.427,80.818,17.063,80.818,16.881,80.818z"/>
	<path fill="#4C4C4C" d="M37.249,83.547c-0.182,0-0.182,0-0.363,0c-0.546-0.182-0.728-0.728-0.546-1.272
		c1.272-3.456-2.546-9.094-4.183-10.912c-0.363-0.363-0.363-1.091,0.182-1.272c0.363-0.364,1.091-0.364,1.273,0.182
		c0.182,0.363,6.364,7.638,4.546,12.912C38.158,83.365,37.795,83.547,37.249,83.547z"/>
	<path fill="#4C4C4C" d="M50.161,77.545c-0.546,0-0.909-0.363-0.909-0.909c-0.546-5.092-9.093-8.729-9.093-8.729
		c-0.546-0.182-0.728-0.728-0.546-1.273s0.728-0.728,1.273-0.546c0.363,0.183,9.639,4.184,10.365,10.185
		C51.07,77,50.707,77.545,50.161,77.545L50.161,77.545z"/>
	<path fill="#4C4C4C" d="M52.525,87.002c-0.182,0-0.364,0-0.364-0.182c-0.545-0.182-0.728-0.728-0.363-1.272
		c1.272-2.547,2.91-4.002,4.91-4.548c2-0.545,3.637,0.183,4.183,0.546c0.909-0.182,1.637-0.546,2.364-1.454
		c1.454-1.818,1.454-5.093,1.272-6.184c0-0.546,0.364-0.909,0.909-1.091c0.546,0,0.91,0.363,1.092,0.909
		c0,0.182,0.545,4.91-1.637,7.638c-0.909,1.273-2.183,2.001-3.819,2.183c-0.182,0-0.546,0-0.728-0.182c0,0-1.454-0.909-3.092-0.546
		c-1.454,0.364-2.545,1.637-3.637,3.638C53.07,86.82,52.889,87.002,52.525,87.002z"/>
	<path fill="#4C4C4C" d="M95.08,87.002c-0.364,0-0.546-0.182-0.728-0.363c-0.363-0.363-0.182-1.091,0.182-1.273l12.185-9.274
		c0.363-0.364,1.091-0.182,1.272,0.182s0.182,1.091-0.182,1.272L95.625,86.82C95.625,86.82,95.262,87.002,95.08,87.002z"/>
	<path fill="#4C4C4C" d="M118.902,85.548h-0.182l-7.093-2.001c-0.545-0.182-0.727-0.728-0.727-1.272l1.637-6.002
		c0.183-0.546,0.728-0.728,1.273-0.728c0.545,0.182,0.727,0.728,0.727,1.272l-1.454,5.093l6.183,1.818
		c0.545,0.182,0.729,0.728,0.729,1.272C119.812,85.365,119.448,85.548,118.902,85.548z"/>
</g>
</svg>
