<?xml version="1.0" encoding="utf-8"?>
<!-- Generator: Adobe Illustrator 16.0.0, SVG Export Plug-In . SVG Version: 6.00 Build 0)  -->
<!DOCTYPE svg PUBLIC "-//W3C//DTD SVG 1.1//EN" "http://www.w3.org/Graphics/SVG/1.1/DTD/svg11.dtd">
<svg version="1.1" id="_x35_0m" xmlns="http://www.w3.org/2000/svg" xmlns:xlink="http://www.w3.org/1999/xlink" x="0px" y="0px"
	 width="144px" height="144px" viewBox="0 0 144 144" enable-background="new 0 0 144 144" xml:space="preserve">
<g>
	<path fill="#8F8F8E" d="M10.811,137.578c0,0,22.399-6.221,29.333-77.333l9.244-58.31c0,0,16.178,3.2,31.111,5.511
		c0,0,8.178,0.711,8.178,29.867c0,0,11.2-15.646,7.467-27.378c0,0,7.467,1.244,8.178,50.488c0,0,0.711,23.11,6.222,27.378
		c0,0,21.156,18.667,23.645,49.776c0,0-41.777,8.178-123.377,3.2C10.811,140.778,8.678,139.89,10.811,137.578z"/>
	<path fill="#010101" d="M61.478,144.157c-14.756,0-31.645-0.534-50.667-1.601c-0.178,0-0.356,0-0.534-0.178
		c-0.71-0.355-1.6-1.066-1.955-2.133c-0.356-1.244,0.178-2.312,1.245-3.557c0.177-0.178,0.533-0.355,0.71-0.532
		c0.355-0.178,21.511-7.468,28.089-75.733l9.422-58.667c0-0.533,0.355-0.889,0.711-1.065c0.356-0.534,0.711-0.534,1.244-0.534
		c0.178,0,16.356,3.2,31.111,5.511c1.422,0.178,8.355,1.956,9.422,25.778c2.844-5.334,6.577-14.044,4.267-21.155
		c-0.178-0.534,0-1.244,0.355-1.601c0.356-0.533,0.889-0.71,1.6-0.533c2.134,0.355,8.889,5.156,9.422,52.088
		c0.177,8.534,1.956,23.289,5.511,26.134c0.889,0.89,21.867,19.556,24.355,51.022c0,0.889-0.533,1.601-1.422,1.777
		C134.188,139.356,109.299,144.157,61.478,144.157z M11.7,139.179c71.467,4.267,112.355-1.601,120.533-2.845
		c-2.845-29.155-22.755-47.11-22.933-47.288c-6.044-4.622-6.755-26.133-6.755-28.622c-0.356-24.533-2.312-36.8-4.089-42.845
		c-1.067,10.312-8,20.267-8.356,20.8c-0.355,0.534-1.245,0.89-1.956,0.711c-0.711-0.177-1.244-0.889-1.244-1.6
		c0-26.488-6.578-28.266-6.578-28.266C68.232,7.269,55.433,4.78,50.811,3.892l-9.066,56.888
		C35.344,126.734,15.611,137.578,11.7,139.179C11.877,139.179,11.7,139.179,11.7,139.179z M95.61,11.535L95.61,11.535L95.61,11.535z
		"/>
	<path fill="#494949" d="M117.299,113.935c-0.178,0-0.178,0-0.355,0c-6.756-2.311-9.6-11.022-10.311-13.689
		c-17.6-3.91-17.6-19.91-17.245-23.645c-9.244-4.978-18.312-21.332-18.667-22.044c-0.355-0.532-0.178-1.245,0.355-1.6
		c0.534-0.355,1.245-0.177,1.601,0.354c0.178,0.179,9.6,17.245,18.489,21.334c0.533,0.178,0.71,0.711,0.71,1.245
		c-0.355,0.71-2.844,18.488,15.823,22.044c0.533,0.177,0.711,0.356,0.889,0.889c0,0.178,2.311,10.667,9.066,12.801
		c0.534,0.178,0.889,0.889,0.711,1.422C118.188,113.579,117.654,113.935,117.299,113.935z"/>
	<path fill="#494949" d="M62.721,136.157c-0.355,0-0.71-0.178-0.888-0.534c-5.156-8.711,3.555-22.933,3.911-23.466
		c0.178-0.179,0.178-0.179,0.355-0.355c9.422-6.4,6.755-24.356,6.755-24.533c-0.178-0.534,0.355-1.245,0.889-1.245
		c0.534-0.179,1.245,0.355,1.245,0.889c0.177,0.711,2.844,19.377-7.645,26.489c-1.067,1.777-8,13.866-3.734,20.978
		c0.355,0.534,0.178,1.244-0.355,1.601C63.255,136.157,62.899,136.157,62.721,136.157z"/>
	<path fill="#494949" d="M43.877,57.579c-0.178,0-0.355,0-0.533-0.179c-0.534-0.354-0.711-0.888-0.534-1.599
		c3.022-5.512,9.245-6.045,12.267-5.512c9.066-0.889,10.489-11.732,10.489-12.089c4.089-14.399,8.356-22.399,12.622-23.821
		c1.956-0.712,3.2,0.354,3.2,0.354c0.533,0.356,0.533,1.067,0.178,1.601s-1.067,0.533-1.6,0.178c0,0-0.533-0.354-1.245,0
		c-1.599,0.533-5.866,3.911-11.022,22.045l0,0c0,0-1.6,12.978-12.622,14.044c-0.178,0-0.178,0-0.355,0
		c-0.355,0-6.933-1.245-9.955,4.268C44.588,57.4,44.233,57.579,43.877,57.579z"/>
	<path fill="#494949" d="M43.344,128.868c-0.356,0-0.711-0.179-0.889-0.355c-9.422-12.09-0.533-37.512-0.178-38.579
		c0.178-0.354,0.355-0.531,0.533-0.71c14.578-6.755,10.667-20.444,10.667-20.978c-0.178-0.533,0.178-1.244,0.71-1.423
		c0.534-0.178,1.245,0.179,1.422,0.711c0,0.179,4.445,15.823-11.377,23.467c-1.066,3.378-8.178,25.778,0,35.911
		c0.355,0.533,0.355,1.244-0.178,1.601C43.877,128.868,43.522,128.868,43.344,128.868z"/>
	<path fill="#494949" d="M109.477,132.423c-0.178,0-0.178,0-0.178,0c-17.955-4.089-16-14.577-16-14.933
		c1.777-9.245-13.333-18.489-13.511-18.489c-0.534-0.355-0.711-1.066-0.534-1.6c0.355-0.534,1.067-0.711,1.6-0.355
		c0.711,0.355,16.711,9.955,14.578,20.8c0,0.355-1.423,8.71,14.222,12.267c0.532,0.178,1.066,0.712,0.888,1.422
		C110.366,131.891,110.01,132.423,109.477,132.423z"/>
</g>
</svg>
