<?xml version="1.0" encoding="utf-8"?>
<!-- Generator: Adobe Illustrator 16.0.0, SVG Export Plug-In . SVG Version: 6.00 Build 0)  -->
<!DOCTYPE svg PUBLIC "-//W3C//DTD SVG 1.1//EN" "http://www.w3.org/Graphics/SVG/1.1/DTD/svg11.dtd">
<svg version="1.1" id="_x35_0m" xmlns="http://www.w3.org/2000/svg" xmlns:xlink="http://www.w3.org/1999/xlink" x="0px" y="0px"
	 width="144px" height="144px" viewBox="0 0 144 144" enable-background="new 0 0 144 144" xml:space="preserve">
<g>
	<g>
		<g>
			<defs>
				<polygon id="SVGID_3_" points="1,1 2,1 1,2 				"/>
			</defs>
			<clipPath id="SVGID_4_">
				<use xlink:href="#SVGID_3_"  overflow="visible"/>
			</clipPath>
		</g>
		<g>
			<defs>
				<polygon id="SVGID_5_" points="1,1 2,1 1,2 				"/>
			</defs>
			<defs>
				<polygon id="SVGID_6_" points="-1,-1 -2,-1 -1,-2 				"/>
			</defs>
			<clipPath id="SVGID_7_">
				<use xlink:href="#SVGID_5_"  overflow="visible"/>
			</clipPath>
			<clipPath id="SVGID_8_" clip-path="url(#SVGID_7_)">
				<use xlink:href="#SVGID_6_"  overflow="visible"/>
			</clipPath>
		</g>
	</g>
</g>
<g>
	<g>
		<g>
			<defs>
				<polygon id="SVGID_29_" points="1,1 2,1 1,2 				"/>
			</defs>
			<clipPath id="SVGID_11_">
				<use xlink:href="#SVGID_29_"  overflow="visible"/>
			</clipPath>
		</g>
		<g>
			<defs>
				<polygon id="SVGID_31_" points="1,1 2,1 1,2 				"/>
			</defs>
			<defs>
				<polygon id="SVGID_32_" points="-1,-1 -2,-1 -1,-2 				"/>
			</defs>
			<clipPath id="SVGID_12_">
				<use xlink:href="#SVGID_31_"  overflow="visible"/>
			</clipPath>
			<clipPath id="SVGID_16_" clip-path="url(#SVGID_12_)">
				<use xlink:href="#SVGID_32_"  overflow="visible"/>
			</clipPath>
		</g>
	</g>
</g>
<g>
	<path fill="#8F8F8E" d="M1.968,106.077c0,0,24.507-52.77,34.882-48.834l13.953-16.994h16.994c0,0,13.952-15.92,16.993-13.416
		c0,0,37.923,26.832,57.242,79.244C141.854,106.077,33.272,132.017,1.968,106.077z"/>
	<path fill="#010101" d="M51.876,119.137c-24.328,0-41.321-3.936-50.981-11.806L0,106.614l0.537-1.072
		c0-0.18,6.261-13.417,13.595-26.118c12.522-21.466,18.604-24.327,22.182-23.791l13.774-16.814h16.994
		c6.798-7.692,15.205-15.921,18.604-13.059c0.358,0.179,38.46,27.727,57.779,79.782L144,107.15l-1.609,0.359
		c-0.358,0-27.548,6.618-58.494,9.838C72.09,118.421,61.536,119.137,51.876,119.137z M3.756,105.72
		c29.516,22.361,122.713,2.506,136.308-0.716c-19.14-50.266-55.811-76.74-56.168-76.919c-1.61-0.179-8.587,5.903-15.026,13.237
		l-0.358,0.537H51.519L37.387,59.031l-1.073-0.357C30.589,56.527,15.384,80.677,3.756,105.72z"/>
	<path fill="#494949" d="M122.534,87.116c-0.179,0-0.179,0-0.357,0c-5.903-1.968-8.407-9.66-8.944-11.985
		c-15.384-3.577-15.384-17.53-15.205-20.929c-8.049-4.293-16.099-18.604-16.457-19.319c-0.179-0.537-0.179-1.073,0.358-1.252
		c0.536-0.179,1.073-0.179,1.252,0.357c0,0.179,8.407,15.026,16.1,18.782c0.357,0.18,0.536,0.537,0.536,1.073
		c-0.179,0.716-2.146,16.1,14.132,19.319c0.357,0,0.716,0.358,0.716,0.716c0,0.179,2.146,9.302,7.87,11.27
		c0.537,0.179,0.716,0.716,0.716,1.252C123.429,86.759,122.893,87.116,122.534,87.116z"/>
	<path fill="#494949" d="M74.952,106.614c-0.358,0-0.716-0.178-0.895-0.537c-4.472-7.691,3.041-20.034,3.398-20.571
		c0-0.179,0.179-0.179,0.358-0.357c8.229-5.545,5.902-21.287,5.902-21.466c0-0.536,0.358-1.073,0.895-1.073
		c0.537,0,1.073,0.357,1.073,0.895c0.18,0.716,2.505,16.814-6.618,23.255c-0.895,1.431-6.977,12.163-3.22,18.426
		c0.357,0.535,0.179,1.073-0.358,1.252C75.31,106.614,75.131,106.614,74.952,106.614z"/>
	<path fill="#494949" d="M17.352,100.175c-0.179,0-0.358,0-0.537-0.178c-0.537-0.181-0.716-0.896-0.358-1.254
		c2.504-4.829,8.05-5.188,10.733-4.829c7.871-0.895,9.123-10.196,9.123-10.555c3.578-12.7,7.155-19.677,11.091-20.75
		c1.61-0.537,2.683,0.179,2.862,0.357c0.358,0.358,0.537,0.895,0.179,1.432c-0.358,0.536-0.895,0.536-1.431,0.179
		c0,0-0.537-0.179-1.074,0c-1.431,0.536-5.188,3.398-9.659,19.319l0,0c0,0-1.431,11.27-11.091,12.164c-0.179,0-0.179,0-0.357,0
		c-0.179,0-6.082-1.073-8.766,3.756C18.067,99.995,17.71,100.175,17.352,100.175z"/>
	<path fill="#494949" d="M57.958,100.175c-0.357,0-0.537-0.178-0.715-0.358c-8.408-10.554-0.537-32.735-0.179-33.809
		c0-0.179,0.358-0.536,0.537-0.536c12.7-5.903,9.48-17.889,9.302-18.425c-0.179-0.537,0.179-1.073,0.715-1.252
		c0.537-0.18,1.073,0.179,1.252,0.715c0,0.179,3.757,13.774-10.018,20.571c-1.073,3.041-7.155,22.539,0,31.483
		c0.357,0.357,0.179,1.073-0.179,1.431C58.316,100.175,58.137,100.175,57.958,100.175z"/>
	<path fill="#494949" d="M115.737,103.216h-0.179c-15.563-3.578-13.953-12.701-13.953-13.059c1.609-8.229-11.807-16.1-11.807-16.278
		c-0.536-0.357-0.715-0.895-0.357-1.252c0.357-0.537,0.895-0.716,1.252-0.358c0.537,0.358,14.669,8.766,12.88,18.246
		c0,0.358-1.252,7.692,12.521,10.734c0.537,0.178,0.895,0.714,0.716,1.251C116.632,102.857,116.273,103.216,115.737,103.216z"/>
</g>
</svg>
