<?xml version="1.0" encoding="utf-8"?>
<!-- Generator: Adobe Illustrator 16.0.0, SVG Export Plug-In . SVG Version: 6.00 Build 0)  -->
<!DOCTYPE svg PUBLIC "-//W3C//DTD SVG 1.1//EN" "http://www.w3.org/Graphics/SVG/1.1/DTD/svg11.dtd">
<svg version="1.1" id="_x35_0m" xmlns="http://www.w3.org/2000/svg" xmlns:xlink="http://www.w3.org/1999/xlink" x="0px" y="0px"
	 width="144px" height="144px" viewBox="0 0 144 144" enable-background="new 0 0 144 144" xml:space="preserve">
<g>
	<path fill="#010101" d="M14.573,83.527L14.573,83.527l0.107-61.146h5.722v89.223h-7.017L5.829,49.107H5.722v62.497H0V22.382h7.125
		L14.573,83.527z"/>
	<path fill="#010101" d="M41.884,37.148H30.873v21.005h10.362v14.768H30.873v24.021h11.442v14.663H24.72V22.382h17.164V37.148z"/>
	<path fill="#010101" d="M51.167,83.639c0,2.253,0,4.2,0.107,6.146c0.108,1.843,0.324,3.482,0.54,4.814
		c0.323,1.331,0.647,2.458,1.079,3.175c0.432,0.819,1.08,1.128,1.835,1.128c0.756,0,1.296-0.41,1.836-1.128
		c0.432-0.819,0.863-1.844,1.079-3.175c0.323-1.332,0.432-2.972,0.54-4.814c0.107-1.845,0.107-3.894,0.107-6.146V22.382h6.153
		v61.257c0,5.634-0.324,10.243-0.863,13.828c-0.54,3.688-1.296,6.557-2.159,8.708c-0.972,2.151-1.943,3.585-3.131,4.303
		c-1.187,0.716-2.375,1.126-3.67,1.126c-1.296,0-2.483-0.307-3.67-1.024c-1.188-0.614-2.268-1.946-3.131-3.995
		c-0.972-2.049-1.619-4.814-2.159-8.604c-0.432-3.585-0.647-8.4-0.647-14.341V22.382h6.153V83.639z"/>
	<path fill="#010101" d="M74.375,111.604h-5.721V91.418h5.721V111.604z"/>
	<path fill="#010101" d="M78.585,49.108c0.215-5.526,0.647-10.249,1.403-14.166c0.756-3.919,1.834-7.034,3.13-9.245
		c1.403-2.21,3.238-3.315,5.506-3.315c2.266,0,4.21,1.105,5.505,3.315c1.403,2.211,2.482,5.326,3.131,9.245
		c0.755,3.917,1.187,8.64,1.403,14.166c0.216,5.526,0.323,11.555,0.323,18.086c0,6.631-0.107,12.66-0.323,18.085
		c-0.216,5.526-0.648,10.148-1.403,14.167c-0.756,3.918-1.728,6.934-3.131,9.043c-1.403,2.11-3.239,3.114-5.505,3.114
		c-2.268,0-4.211-1.004-5.506-3.114c-1.402-2.109-2.482-5.125-3.13-9.043c-0.756-3.918-1.188-8.641-1.403-14.167
		c-0.217-5.526-0.323-11.555-0.323-18.085C78.262,60.663,78.368,54.635,78.585,49.108z M84.521,81.964
		c0.108,4.119,0.323,7.335,0.648,9.947c0.323,2.511,0.755,4.421,1.295,5.526c0.539,1.205,1.296,1.708,2.268,1.708
		c0.971,0,1.619-0.604,2.266-1.708c0.54-1.206,0.972-3.016,1.296-5.526c0.324-2.512,0.54-5.828,0.647-9.947
		c0.108-4.12,0.108-8.942,0.108-14.77c0-5.828,0-10.751-0.108-14.771c-0.107-4.02-0.323-7.334-0.647-9.946
		c-0.432-2.513-0.864-4.32-1.404-5.526c-0.538-1.206-1.294-1.708-2.266-1.708s-1.62,0.604-2.268,1.708
		c-0.539,1.206-0.972,3.014-1.295,5.626s-0.54,5.827-0.648,9.947c-0.106,4.02-0.106,8.942-0.106,14.771
		C84.307,73.121,84.413,77.944,84.521,81.964z"/>
	<path fill="#010101" d="M108.594,83.639c0,2.253,0,4.2,0.107,6.146c0.108,1.843,0.325,3.482,0.54,4.814
		c0.323,1.331,0.648,2.458,1.08,3.175c0.432,0.819,1.079,1.128,1.728,1.128c0.755,0,1.295-0.41,1.834-1.128
		c0.432-0.819,0.863-1.844,1.08-3.175c0.215-1.332,0.432-2.972,0.54-4.814c0.106-1.845,0.106-3.894,0.106-6.146V22.382h6.153v61.257
		c0,5.634-0.323,10.243-0.863,13.828c-0.539,3.688-1.295,6.557-2.159,8.708c-0.971,2.151-1.942,3.585-3.131,4.303
		c-1.187,0.716-2.374,1.126-3.669,1.126c-1.296,0-2.482-0.307-3.671-1.024c-1.188-0.614-2.267-1.946-3.13-3.995
		c-0.972-2.049-1.62-4.814-2.159-8.604c-0.539-3.688-0.863-8.501-0.863-14.443V22.382h6.152
		C108.594,22.382,108.594,83.639,108.594,83.639z"/>
	<path fill="#010101" d="M143.892,37.136H137.2v74.395h-6.153V37.136h-6.693V22.382H144L143.892,37.136L143.892,37.136z"/>
</g>
</svg>
