<?xml version="1.0" encoding="utf-8"?>
<!-- Generator: Adobe Illustrator 16.0.0, SVG Export Plug-In . SVG Version: 6.00 Build 0)  -->
<!DOCTYPE svg PUBLIC "-//W3C//DTD SVG 1.1//EN" "http://www.w3.org/Graphics/SVG/1.1/DTD/svg11.dtd">
<svg version="1.1" id="_x35_0m" xmlns="http://www.w3.org/2000/svg" xmlns:xlink="http://www.w3.org/1999/xlink" x="0px" y="0px"
	 width="144px" height="144px" viewBox="0 0 144 144" enable-background="new 0 0 144 144" xml:space="preserve">
<g>
	<path fill="#010101" d="M19.063,83.588h0.115V22.382h7.348v89.225H17.34L7.578,49.138H7.463v62.469H0V22.382h9.301L19.063,83.588z"
		/>
	<path fill="#010101" d="M54.66,37.157H40.305v20.96H53.74v14.774H40.305v23.939h14.93v14.775H32.268V22.382H54.66V37.157
		L54.66,37.157z"/>
	<path fill="#010101" d="M66.832,83.595c0,2.259,0.115,4.292,0.23,6.099c0.113,1.808,0.344,3.389,0.688,4.743
		c0.346,1.356,0.805,2.372,1.494,3.163c0.574,0.79,1.379,1.129,2.297,1.129s1.723-0.339,2.412-1.129
		c0.574-0.791,1.033-1.807,1.377-3.163c0.344-1.354,0.574-2.936,0.689-4.743c0.115-1.807,0.229-3.84,0.229-6.099V22.382h8.039
		v61.213c0,5.534-0.344,10.165-1.033,13.892c-0.689,3.614-1.607,6.551-2.871,8.696c-1.148,2.146-2.527,3.614-4.135,4.292
		c-1.492,0.79-3.1,1.129-4.822,1.129s-3.215-0.339-4.824-1.016c-1.492-0.679-2.869-2.034-4.133-3.954
		c-1.148-2.032-2.182-4.856-2.871-8.583c-0.689-3.728-1.033-8.471-1.033-14.343V22.382h8.037L66.832,83.595L66.832,83.595z"/>
	<path fill="#010101" d="M97.033,111.606h-7.35V92.2h7.35V111.606z"/>
	<path fill="#010101" d="M103.234,22.382h8.039v89.225h-8.039V22.382z"/>
	<path fill="#010101" d="M136.422,83.588h0.113V22.382H144v89.225h-9.188l-9.988-62.469h-0.115v62.469h-7.35V22.382h9.301
		L136.422,83.588z"/>
</g>
</svg>
