<?xml version="1.0" encoding="utf-8"?>
<!-- Generator: Adobe Illustrator 16.0.0, SVG Export Plug-In . SVG Version: 6.00 Build 0)  -->
<!DOCTYPE svg PUBLIC "-//W3C//DTD SVG 1.1//EN" "http://www.w3.org/Graphics/SVG/1.1/DTD/svg11.dtd">
<svg version="1.1" id="_x35_0m" xmlns="http://www.w3.org/2000/svg" xmlns:xlink="http://www.w3.org/1999/xlink" x="0px" y="0px"
	 width="144px" height="144px" viewBox="0 0 144 144" enable-background="new 0 0 144 144" xml:space="preserve">
<rect y="38.012" fill="#010101" width="144" height="67.977"/>
<rect x="2.213" y="40.175" fill="#3DB54A" width="139.575" height="63.65"/>
<g>
	<path fill="#010101" d="M21.386,87.492h-3.697l-7.295-21.931v21.931H6.996V56.646h3.897l7.095,21.567V56.646h3.498L21.386,87.492
		L21.386,87.492z"/>
	<path fill="#010101" d="M37.175,73.995h-8.594v7.953h9.793v5.544H24.983V56.646h12.991v5.421h-9.394v6.507h8.594V73.995z"/>
	<path fill="#010101" d="M58.561,56.646h3.797l-4.996,30.847h-3.598l-2.198-18.075l-0.6-6.024l-0.6,6.024l-2.099,18.075H44.77
		l-4.996-30.847h3.997l2.398,17.712l0.5,4.941l0.499-4.821l1.999-17.832h3.896l2.1,17.712l0.499,4.941l0.5-4.701L58.561,56.646z"/>
	<path fill="#010101" d="M85.741,87.492h-3.697l-7.295-21.931v21.931h-3.498V56.646h3.897l7.096,21.567V56.646h3.497V87.492
		L85.741,87.492z"/>
	<path fill="#010101" d="M97.033,88.335c-2.498,0-4.496-1.203-5.796-3.615c-1.799-3.012-2.698-7.229-2.698-12.771
		c0-5.664,0.899-9.882,2.698-12.773c1.3-2.409,3.298-3.615,5.796-3.615c2.499,0,4.497,1.206,5.797,3.615
		c1.799,2.892,2.697,7.109,2.697,12.773c0,5.542-0.898,9.76-2.697,12.771C101.53,87.132,99.631,88.335,97.033,88.335z
		 M100.53,80.021c0.9-1.929,1.3-4.578,1.3-8.073s-0.399-6.146-1.3-8.073c-0.899-1.929-1.998-2.892-3.497-2.892
		s-2.598,0.963-3.498,2.892c-0.899,1.927-1.299,4.578-1.299,8.073s0.399,6.145,1.299,8.073c0.9,1.927,2.1,2.892,3.498,2.892
		C98.532,82.913,99.731,81.948,100.53,80.021z"/>
	<path fill="#010101" d="M121.316,56.646v5.421h-5.297v25.426h-3.697V62.066h-5.296v-5.421H121.316z"/>
	<path fill="#010101" d="M135.807,73.995h-8.595v7.953h9.793v5.544h-13.49V56.646h12.991v5.421h-9.394v6.507h8.594L135.807,73.995
		L135.807,73.995z"/>
</g>
</svg>
