<?xml version="1.0" encoding="utf-8"?>
<!-- Generator: Adobe Illustrator 16.0.0, SVG Export Plug-In . SVG Version: 6.00 Build 0)  -->
<!DOCTYPE svg PUBLIC "-//W3C//DTD SVG 1.1//EN" "http://www.w3.org/Graphics/SVG/1.1/DTD/svg11.dtd">
<svg version="1.1" id="_x35_0m" xmlns="http://www.w3.org/2000/svg" xmlns:xlink="http://www.w3.org/1999/xlink" x="0px" y="0px"
	 width="144px" height="144px" viewBox="0 0 144 144" enable-background="new 0 0 144 144" xml:space="preserve">
<g>
	<path fill="#010101" d="M132.819,30.843l7.629-5.121l-4.703-6.896l-9.509,6.374c-0.418-0.209-0.731-0.418-1.15-0.626
		c-3.135-1.568-7.001-2.3-11.599-2.3H81.823v33.022l-12.54,8.464V22.273H51.204v34.275H30.2V22.273H12.121v80.257l-8.569,5.747
		l4.703,6.897l5.12-3.449H30.2v-11.391l21.108-14.316v25.707h18.079V73.792l12.54-8.465v46.398h18.079V75.987h9.614
		c4.284,0,8.15-0.523,11.704-1.673c3.552-1.045,6.479-2.717,8.986-4.911c2.508-2.195,4.389-5.017,5.747-8.359
		c1.359-3.345,2.09-7.421,2.09-12.019c0-3.344-0.418-6.584-1.253-9.823C135.955,36.067,134.597,33.351,132.819,30.843z M30.2,90.304
		V72.015h21.108v3.973L30.2,90.304z M99.902,35.545h7.523c1.149,0,2.195,0.104,3.24,0.209l-10.764,7.315V35.545z M116.622,59.476
		c-2.194,2.194-5.12,3.24-8.674,3.24h-8.046v-9.614l18.287-12.331c1.149,2.193,1.776,5.015,1.776,8.568
		C119.966,53.937,118.816,57.282,116.622,59.476z"/>
</g>
</svg>
