<?xml version="1.0" encoding="utf-8"?>
<!-- Generator: Adobe Illustrator 16.0.0, SVG Export Plug-In . SVG Version: 6.00 Build 0)  -->
<!DOCTYPE svg PUBLIC "-//W3C//DTD SVG 1.1//EN" "http://www.w3.org/Graphics/SVG/1.1/DTD/svg11.dtd">
<svg version="1.1" id="_x35_0m" xmlns="http://www.w3.org/2000/svg" xmlns:xlink="http://www.w3.org/1999/xlink" x="0px" y="0px"
	 width="144px" height="144px" viewBox="0 0 144 144" enable-background="new 0 0 144 144" xml:space="preserve">
<g>
	<path fill="#010101" d="M27.276,22.368v34.156h21.034V22.368h17.911v89.238H48.206V72.038h-20.93v39.568H9.262V22.368H27.276z"/>
	<path fill="#010101" d="M110.165,22.368c4.582,0,8.434,0.729,11.558,2.291c3.125,1.563,5.623,3.539,7.602,6.04
		c1.979,2.499,3.333,5.31,4.165,8.537c0.833,3.229,1.25,6.458,1.25,9.789c0,4.582-0.729,8.539-2.082,11.975
		c-1.354,3.438-3.333,6.248-5.727,8.331c-2.5,2.188-5.415,3.75-8.955,4.895c-3.541,1.144-7.394,1.665-11.663,1.665h-9.58v35.716
		H78.717V22.368H110.165z M104.75,62.77c3.541,0,6.457-1.04,8.643-3.228c2.187-2.188,3.333-5.519,3.333-10.102
		c0-4.476-0.938-7.911-2.916-10.204c-1.875-2.291-5.103-3.539-9.58-3.539h-7.498V62.77H104.75z"/>
</g>
</svg>
