<?xml version="1.0" encoding="utf-8"?>
<!-- Generator: Adobe Illustrator 16.0.0, SVG Export Plug-In . SVG Version: 6.00 Build 0)  -->
<!DOCTYPE svg PUBLIC "-//W3C//DTD SVG 1.1//EN" "http://www.w3.org/Graphics/SVG/1.1/DTD/svg11.dtd">
<svg version="1.1" id="_x35_0m" xmlns="http://www.w3.org/2000/svg" xmlns:xlink="http://www.w3.org/1999/xlink" x="0px" y="0px"
	 width="144px" height="144px" viewBox="0 0 144 144" enable-background="new 0 0 144 144" xml:space="preserve">
<g>
	<path fill="#010101" d="M39.888,22.368c6.244,0,11.242,1.041,15.094,3.02c3.852,1.978,6.766,4.995,8.951,8.743
		c2.082,3.747,3.539,8.327,4.268,13.636s1.145,11.242,1.145,17.904c0,7.808-0.52,14.679-1.457,20.402
		c-0.936,5.83-2.602,10.514-4.893,14.261c-2.289,3.749-5.412,6.559-9.367,8.328c-3.955,1.873-8.848,2.707-14.887,2.707H10.323
		V22.368H39.888z M36.347,98.253c3.123,0,5.727-0.521,7.6-1.666c1.875-1.145,3.436-2.914,4.58-5.413
		c1.146-2.499,1.875-5.829,2.289-9.888c0.418-4.061,0.521-9.162,0.521-15.198c0-5.101-0.207-9.576-0.521-13.324
		c-0.311-3.748-1.039-6.975-2.08-9.577c-1.041-2.602-2.604-4.476-4.58-5.725c-1.979-1.249-4.789-1.978-8.223-1.978h-7.6v62.769
		H36.347z"/>
	<path fill="#010101" d="M117.021,83.472h0.209V22.368h16.447v89.208h-20.508L91.204,49.12h-0.207v62.456H74.552V22.368h20.713
		L117.021,83.472z"/>
</g>
</svg>
