<?xml version="1.0" encoding="utf-8"?>
<!-- Generator: Adobe Illustrator 16.0.0, SVG Export Plug-In . SVG Version: 6.00 Build 0)  -->
<!DOCTYPE svg PUBLIC "-//W3C//DTD SVG 1.1//EN" "http://www.w3.org/Graphics/SVG/1.1/DTD/svg11.dtd">
<svg version="1.1" id="_x35_0m" xmlns="http://www.w3.org/2000/svg" xmlns:xlink="http://www.w3.org/1999/xlink" x="0px" y="0px"
	 width="144px" height="144px" viewBox="0 0 144 144" enable-background="new 0 0 144 144" xml:space="preserve">
<g>
	<path fill="#957753" d="M78.258,143.9c-3.937-71.961-0.707-102.44-0.707-102.44h-3.734h-3.733c0,0,0.303,3.028,0.706,9.487
		c0,0.505,0.202,0.908,0.505,1.312c0.303,0.304,0.706,0.606,1.211,0.606c-0.605,0-0.908,0.303-1.211,0.707
		c-0.303,0.403-0.403,0.807-0.303,1.312c0.101,2.221,0.202,4.643,0.202,7.469c0,0.201,0,0.505,0.101,0.706
		c0.202,0.707,0.706,1.514,1.614,1.514c-0.807,0-1.211,0.505-1.514,1.11c-0.101,0.303-0.201,0.605-0.201,1.009
		c0,2.221,0.101,4.644,0.101,7.166c0,0.202,0,0.403,0.101,0.707c0.202,0.706,0.707,1.614,1.717,1.614
		c-1.01,0-1.414,0.808-1.717,1.514c-0.101,0.202-0.101,0.505-0.101,0.707c0,2.321,0,4.744,0,7.367c0,0.605,0.202,1.11,0.605,1.514
		c0.303,0.303,0.605,0.404,1.009,0.404c-0.604,0-1.109,0.403-1.312,0.807c-0.202,0.304-0.303,0.707-0.303,1.01
		c0,2.423-0.101,5.046-0.101,7.67c0,0.304,0,0.707,0.201,0.908c0.303,0.606,0.707,1.11,1.514,1.11c-0.908,0-1.412,0.707-1.614,1.414
		c-0.101,0.201-0.101,0.403-0.101,0.706c-0.102,2.422-0.102,4.945-0.202,7.568c0,0.606,0.202,1.211,0.605,1.616
		c0.202,0.201,0.505,0.302,0.908,0.302c-0.706,0-1.211,0.505-1.514,1.111c-0.101,0.201-0.202,0.503-0.202,0.807
		c-0.101,2.522-0.202,5.046-0.303,7.671c0,0.503,0.101,0.908,0.404,1.312c0.303,0.403,0.706,0.706,1.211,0.706
		c-1.01,0-1.515,0.908-1.716,1.716c0,0.101-0.102,0.303-0.102,0.505c-0.101,2.422-0.201,4.945-0.303,7.469
		c0,0.604,0.202,1.211,0.605,1.614c0.202,0.202,0.505,0.303,0.909,0.303c-0.909,0-1.413,0.707-1.615,1.413
		c-0.102,0.202-0.102,0.404-0.102,0.605c-0.1,2.523-0.302,5.349-0.403,7.973L78.258,143.9L78.258,143.9z"/>
	<path fill="#5F7C78" d="M126.096,42.772l-1.413-2.321c-0.1-0.101-7.366-12.212-20.991-14.13
		c-6.662-0.908-13.625,0.707-20.791,4.744c-0.606,0-1.111,0-1.615,0c2.422-1.514,5.955-2.624,5.955-2.624l1.515-0.403l-1.515-0.202
		c-1.615-0.202-3.432-0.202-4.543-0.102c2.423-1.413,7.065-2.522,7.167-2.522l1.514-0.304l-1.514-0.302
		c-1.817-0.404-3.331-0.505-4.34-0.505c2.927-1.413,8.477-2.119,8.578-2.119l1.816-0.202l-1.816-0.403
		c-2.522-0.606-4.944-0.808-6.156-0.908c2.12-1.313,7.268-2.02,9.286-2.222l1.918-0.201l-1.918-0.505
		c-1.615-0.403-4.341-0.707-5.854-0.807c3.028-1.212,8.882-1.413,8.882-1.413h2.32l-2.018-0.809
		c-2.019-0.604-4.037-0.908-5.248-1.109c3.431-1.211,9.487-1.11,9.487-1.11h1.614l-1.515-0.706c-1.614-0.707-3.431-1.11-4.642-1.212
		c4.238-1.514,9.386-1.21,9.486-1.21l2.625,0.201l-2.523-0.808c-0.102,0-12.516-4.238-23.214,2.423
		c-5.449,3.431-9.486,8.982-12.11,16.652c-1.615-9.79-5.248-17.056-11.303-21.8c-10.9-8.478-24.93-5.248-25.03-5.147l-2.623,0.605
		l2.623,0.102c0.101,0,5.854,0.201,10.396,2.422c-1.313,0-3.432,0.202-5.35,0.807l-1.514,0.505l1.614,0.102
		c0.102,0,6.863,0.605,10.396,2.422c-1.312,0-3.633,0.202-5.954,0.606l-2.32,0.403l2.32,0.302c0.101,0,6.661,0.809,9.688,2.625
		c-1.614,0-4.642-0.102-6.56,0.202l-1.918,0.302l1.918,0.404c0.101,0,7.469,1.514,9.991,3.532c-1.413-0.102-4.137-0.102-6.964,0.303
		l-1.816,0.202l1.816,0.403c0.101,0,6.156,1.412,9.286,3.33c-1.111-0.101-2.827-0.101-4.945,0.102l-1.615,0.202l1.514,0.505
		c0.102,0,5.248,1.815,7.67,3.733c-1.211-0.201-3.128-0.505-5.046-0.404l-1.514,0.102l1.412,0.605c0,0,3.937,1.615,6.359,3.633
		c-0.708-0.201-1.515-0.302-2.625-0.302l-1.412,0.101c-6.762-4.139-13.424-6.056-19.983-5.652
		C28.4,23.799,19.52,36.212,19.419,36.313l-1.515,2.22l2.019-1.715c0,0,4.845-4.037,10.093-5.45c-1.01,1.01-2.726,2.624-3.734,4.542
		l-0.808,1.413l1.313-1.01c0.101,0,5.954-4.34,10.092-5.449c-1.009,1.009-2.724,2.724-4.34,4.742l-1.412,1.817l1.917-1.313
		c0.102,0,5.955-4.037,9.688-4.844c-1.312,1.11-3.835,3.229-5.146,4.844l-1.313,1.514l1.716-1.009c0.101,0,7.065-4.037,10.598-4.238
		c-1.11,0.907-3.331,2.825-5.35,5.247l-1.21,1.413l1.614-0.908c0.1,0,6.056-3.229,9.79-3.937c-0.909,0.707-2.423,1.918-4.038,3.635
		l-1.109,1.109l1.413-0.605c0.101,0,5.551-2.321,8.779-2.422c-0.907,0.605-2.422,1.514-3.733,2.725
		c-8.881,1.009-15.139,4.44-20.992,9.891C22.143,59.122,23.152,75.169,23.152,75.371l0.202,2.623l0.505-2.521
		c0-0.102,1.313-6.661,4.643-11.304c-0.202,1.514-0.505,4.037-0.102,6.357l0.303,1.615l0.403-1.514c0-0.102,2.02-7.771,4.644-11.404
		c-0.202,1.412-0.505,4.139-0.404,6.964v2.221l0.605-2.12c0-0.101,2.12-7.469,4.744-10.598c-0.303,1.817-0.909,5.35-1.01,7.57v1.917
		l0.707-1.815c0-0.102,3.129-8.276,5.954-10.699c-0.302,1.413-0.908,4.542-0.908,7.973v1.817l0.706-1.717
		c0-0.101,2.827-6.862,5.45-9.891c-0.303,1.213-0.706,3.23-0.808,5.754l-0.101,1.514l0.706-1.313c0-0.101,3.028-5.752,5.651-8.073
		c-0.403,1.312-1.21,3.531-1.412,5.753l-0.201,1.513l0.807-1.312c0,0,2.625-4.239,5.35-6.661c-0.303,0.707-0.606,1.615-0.808,2.825
		c-6.258,7.167-9.285,14.332-9.588,22.407C48.586,89.3,61.101,100.198,61.201,100.3l2.02,1.716l-1.515-2.221
		c0-0.102-3.936-5.753-4.844-11.606c0.908,1.211,2.522,3.23,4.541,4.643l1.313,0.908l-0.808-1.412c0-0.102-4.138-7.065-4.845-11.606
		c0.908,1.211,2.624,3.331,4.743,5.349l1.615,1.615l-1.11-2.019c0-0.102-3.836-6.964-4.239-11.102
		c1.01,1.514,3.129,4.541,4.744,6.257l1.413,1.413l-0.808-1.817c0-0.101-3.734-8.275-3.432-12.009
		c0.808,1.312,2.726,3.936,5.147,6.459l1.312,1.312l-0.706-1.716c0-0.101-2.927-7.064-3.129-11.202
		c0.606,1.11,1.816,2.825,3.533,4.845l1.009,1.211l-0.504-1.515c0-0.101-1.918-6.357-1.718-9.891
		c0.606,1.211,1.718,3.432,3.13,5.248l1.01,1.212l-0.304-1.514c0-0.102-1.109-5.047-0.908-8.681
		c0.304,0.808,0.808,1.816,1.615,2.928l0.908,1.211l-0.303-1.514c0-0.102-2.019-5.854,2.624-13.121
		c5.652,7.064,4.44,14.433,4.44,14.433l-0.303,1.413l0.908-1.211c0.706-1.01,1.11-1.817,1.313-2.523
		c0.303,3.33-0.505,7.671-0.505,7.771l-0.201,1.414l0.908-1.211c1.211-1.616,2.118-3.533,2.623-4.743
		c0.304,3.229-1.211,8.779-1.312,8.881l-0.404,1.514l1.01-1.211c1.513-1.716,2.423-3.33,3.027-4.34
		c-0.102,3.734-2.522,9.991-2.522,9.991l-0.606,1.716l1.211-1.313c2.02-2.321,3.635-4.743,4.34-5.853
		c0.304,3.432-2.724,10.697-2.724,10.799l-0.708,1.816l1.313-1.413c1.414-1.515,3.129-4.239,4.037-5.652
		c-0.201,3.734-3.432,9.992-3.432,9.992l-1.01,2.019l1.616-1.615c1.815-1.816,3.229-3.733,4.036-4.845
		c-0.503,4.138-3.936,10.396-4.036,10.497l-0.808,1.413l1.312-1.01c1.716-1.312,3.129-3.129,3.937-4.238
		c-0.605,5.248-3.937,10.395-3.937,10.496l-1.412,2.22l1.917-1.716c0.102-0.101,11.001-10.294,9.992-24.727
		c-0.505-7.267-3.836-14.331-9.992-20.992l-0.102-1.515c-0.101-1.109-0.302-2.018-0.605-2.724c2.321,2.32,4.441,6.055,4.441,6.156
		l0.706,1.412l-0.101-1.514c-0.102-2.019-0.605-3.937-1.009-5.146c2.22,2.219,4.643,7.367,4.643,7.468l0.705,1.413v-1.615
		c0-2.22-0.302-4.037-0.504-5.146c2.221,2.927,4.34,9.083,4.44,9.083l0.606,1.716l0.102-1.816c0.1-3.028-0.203-5.753-0.405-7.165
		c2.322,2.422,4.743,9.789,4.743,9.891l0.606,1.917l0.102-2.019c0.101-2.019-0.303-5.147-0.505-6.762
		c2.119,3.027,3.733,9.588,3.733,9.688l0.505,2.22l0.202-2.32c0.201-2.524,0.101-4.845,0-6.156
		c2.119,3.432,3.532,10.294,3.633,10.395l0.303,1.614l0.404-1.614c0.403-2.019,0.403-4.238,0.303-5.651
		c2.826,4.34,3.634,10.294,3.634,10.396l0.302,2.624l0.304-2.624c0-0.102,1.715-14.735-8.074-25.029
		c-4.543-4.744-10.697-7.771-18.47-9.186c-0.908-0.807-1.715-1.412-2.321-1.917c3.028,0.403,7.771,2.826,7.872,2.927l1.413,0.707
		l-1.01-1.212c-1.312-1.614-2.522-2.825-3.331-3.633c3.432,0.908,8.579,4.238,8.681,4.238l1.514,1.01l-1.11-1.515
		c-1.716-2.32-3.531-4.238-4.541-5.146c3.229,0.403,9.386,4.541,9.386,4.642l1.615,1.111l-1.11-1.615
		c-1.11-1.514-3.229-3.633-4.34-4.743c3.432,1.009,8.478,5.047,8.478,5.146l1.816,1.414l-1.312-1.918
		c-1.313-1.918-2.725-3.634-3.633-4.643c3.633,1.312,8.779,5.651,8.779,5.752l1.212,1.111l-0.707-1.515
		c-0.908-1.815-2.22-3.432-3.128-4.34c4.643,1.615,8.78,5.651,8.78,5.651L126.096,42.772z M64.229,28.946
		c0,0,2.423,1.109,4.845,3.733c-1.918-1.614-3.836-2.927-5.854-4.138L64.229,28.946z M61.908,38.13
		c-0.102,0-0.202,0.102-0.303,0.102c-0.404,0-0.808,0-1.212,0C60.898,38.231,61.403,38.13,61.908,38.13z M61.706,47.819
		c0.202-0.202,0.505-0.505,0.707-0.707C62.211,47.314,61.908,47.617,61.706,47.819z M86.533,51.149
		c-2.321-2.522-5.147-5.047-8.275-7.569c5.35,2.522,7.671,6.459,7.671,6.561L86.533,51.149z"/>
</g>
</svg>
