<?xml version="1.0" encoding="utf-8"?>
<!-- Generator: Adobe Illustrator 16.0.0, SVG Export Plug-In . SVG Version: 6.00 Build 0)  -->
<!DOCTYPE svg PUBLIC "-//W3C//DTD SVG 1.1//EN" "http://www.w3.org/Graphics/SVG/1.1/DTD/svg11.dtd">
<svg version="1.1" id="_x35_0m" xmlns="http://www.w3.org/2000/svg" xmlns:xlink="http://www.w3.org/1999/xlink" x="0px" y="0px"
	 width="144px" height="144px" viewBox="0 0 144 144" enable-background="new 0 0 144 144" xml:space="preserve">
<g>
	<path fill="#AEAEAE" d="M63.179,134.195c0,0-2.03-70.658-7.005-82.13l0.203-8.833c0,0,12.385,37.461,14.213,74.923
		c0,0,2.639-43.857,30.761-53.604l-0.305,2.538c0,0-10.659,4.264-17.36,22.741c-6.701,18.477-6.802,38.171-7.513,44.364H63.179
		L63.179,134.195z"/>
	<path fill="#AEAEAE" d="M32.215,123.638c0,0-1.32-48.02-4.67-55.837l0.102-5.99c0,0,8.223,25.481,9.442,50.965
		c0,0,1.726-29.848,20.405-36.447l-0.203,1.727c0,0-7.107,2.843-11.472,15.431c-4.365,12.589-4.568,25.989-4.975,30.152H32.215z"/>
	<path fill="#AEAEAE" d="M97.391,121.303c0,0-1.319-48.02-4.67-55.837l0.102-5.99c0,0,8.223,25.481,9.441,50.965
		c0,0,1.726-29.849,20.406-36.447l-0.204,1.727c0,0-7.106,2.843-11.472,15.431c-4.467,12.589-4.568,25.989-4.975,30.152H97.391z"/>
	<path fill="#010101" d="M143.584,69.019c-0.914-1.827-3.351-2.437-3.148-2.842c0.102-0.406,2.539,0.812,1.117-0.305
		c-1.421-1.117-4.569,0-5.279-0.406s1.117-1.32,0.406-1.422c-0.71-0.101-2.335,1.117-2.943,0.914c-0.609-0.203,0-0.813,0-0.813
		c-2.132,0.711-3.959,2.233-5.381,3.757c-0.203,0-1.015,0.406-1.32,0.507c-0.507,0.103,1.523-1.421,2.335-1.929
		c0.812-0.507-0.711,0-1.421,0.102c-0.813,0.102,2.335-1.827,3.553-2.843c0.914-0.71,0.507-0.507-0.812-0.507
		s1.523-1.624,2.132-2.233c0.813-0.711,0.406-0.813-0.71-0.609c-1.117,0.203,1.218-1.726,1.523-2.335
		c0.304-0.609,1.421-2.538,0.609-1.929c-1.015,0.812-1.522,1.319-2.335,1.522c-0.812,0.305-0.71-1.319-1.319,1.422
		c-0.102,0.609-0.812,0.913-1.016,0.405c-0.202-0.508-0.202,0.508-0.812,1.319c-1.523-1.421-3.452-1.928-3.249-2.436
		c0.203-0.609,3.553,1.116,1.523-0.508c-1.625-1.219-4.771-0.406-6.396-0.406c-0.304-0.203-0.609-0.508-1.016-0.71
		c0.305-0.609,1.523-1.32,0.813-1.32c-0.507,0-1.421,0.406-2.335,0.813c-0.71-0.203-0.608,0-0.406,0.203
		c-0.609,0.202-1.116,0.406-1.421,0.305c-0.914-0.204-0.101-1.117-0.101-1.117c-1.015,0.305-1.929,0.813-2.843,1.421
		c-0.508-0.406-1.015-0.71-1.421-1.015c0.507-0.305,0.913-0.711,1.32-0.914c1.218-1.015,0.71-0.71-1.117-0.71
		c-1.827-0.103,2.031-2.234,2.944-3.047c1.117-1.015,0.609-1.115-1.015-0.812c-0.609,0.102-0.508-0.203-0.102-0.711
		c0.711,0.508,1.016,0.508,0.508-0.608c0.711-0.711,1.523-1.523,1.726-1.929c0.508-0.813,1.929-3.452,0.914-2.64
		c-1.32,1.116-2.132,1.827-3.249,2.132c-0.711,0.203-0.914-0.711-1.218,0c-1.523-1.219-3.35-1.219-3.249-1.625
		c0.102-0.608,3.756,0.203,1.319-0.608c-2.233-0.711-5.076-0.508-6.294,0c-1.117,0.406-0.102-1.523-0.406-1.523
		c-0.914,0.203-3.351,1.93-4.264,1.726c-0.914-0.101-0.203-1.116-0.203-1.116c-1.117,0.508-2.132,1.116-2.944,1.827
		c-0.102,0-0.203-0.102-0.305-0.102c0.508-1.117-1.624-0.508-1.421-1.218c0.305-0.813,3.858-1.828,3.045-2.132
		c-0.914-0.203-3.249,0.609-2.741,0.102c0.507-0.508,4.162-1.929,2.842-1.827c-1.319,0.101-2.233-0.813-0.507-0.712
		c1.726,0.103,3.35-2.131,2.437-1.624c-1.218,0.711-3.452,0.406-3.046,0.102c0.609-0.406,3.452-1.726,2.741-1.522
		c-0.203,0-3.249,0-2.64-0.203c0.914-0.406,3.35-1.117,3.654-1.523c0.609-0.71-1.827,0.103-1.726-0.304
		c0.102-0.406,2.132-1.319-0.507-0.609c-2.538,0.711-4.163,3.147-4.568,2.944c-0.507-0.203-0.507-1.016-0.914,0
		c-2.436,5.686-0.71,7.41-1.522,7.513c-0.813,0.102-0.305-2.438-0.813-0.305c-0.203,0.71-0.305,1.726-0.406,2.843
		c0-0.609,0-1.117,0-1.523c0.101-2.03-0.305,0.508-0.813-0.203c-0.812-1.015-0.508-2.029-0.812-3.756
		c-0.305-1.828-0.507,0.711-1.015-0.711c-0.508-1.319,0-1.522-0.305-2.741c-0.609-2.233-0.609,1.016-1.32-0.101
		c-0.71-1.117-0.71-2.742-1.015-1.93c-0.305,0.711-1.015,0.305-1.218-0.609c-0.711-4.061-0.508-1.726-1.523-2.131
		c-0.508-0.204-1.015-0.508-1.421-1.016c0.812,0.102,2.031,0.608,3.452,1.016c3.249,0.913,8.021,6.801,5.381,1.522
		c-2.031-4.163-6.701-3.858-6.498-4.671c0.203-0.812,5.178,0.306,1.828-0.812c-3.046-1.016-7.005-0.609-8.731,0
		c-1.523,0.609-0.102-2.132-0.507-2.03c-1.219,0.305-4.568,2.64-5.889,2.437c-1.319-0.203-0.305-1.523-0.305-1.523
		c-2.233,1.117-4.162,2.335-5.685,3.757c3.452-3.451-1.117-2.03-0.812-3.147c0.406-1.116,5.381-2.538,4.162-2.843
		c-1.218-0.304-4.467,0.813-3.857,0.204c0.609-0.609,5.685-2.641,3.959-2.539c-1.726,0.102-3.045-1.218-0.609-1.015
		c2.437,0.102,4.67-2.944,3.35-2.233c-1.726,1.016-4.67,0.508-4.162,0.203c0.812-0.508,4.771-2.336,3.858-2.132
		c-0.204,0.102-4.467,0-3.655-0.305c1.319-0.609,4.568-1.523,5.076-2.133c0.812-0.913-2.538,0.204-2.335-0.304
		c0.203-0.508,2.944-1.727-0.71-0.813c-3.553,0.914-5.686,4.365-6.396,4.163c-0.609-0.204-0.71-1.422-1.32,0
		c-3.35,7.918-1.015,10.253-2.03,10.456c-1.117,0.203-0.406-3.452-1.117-0.406c-0.203,0.914-0.406,2.335-0.609,3.959
		c0-0.812,0-1.522,0-2.132c0.102-2.843-0.406,0.813-1.218-0.305c-1.117-1.421-0.711-2.74-1.117-5.279
		c-0.406-2.537-0.711,0.914-1.422-1.015c-0.609-1.828,0-2.132-0.406-3.756c-1.015-3.757-1.015,0.608-2.031-0.914
		c-1.015-1.522-0.914-3.757-1.319-2.64c-0.406,1.016-1.421,0.508-1.625-0.812c-0.914-5.584-0.71-2.437-2.031-2.944
		c-1.218-0.508-2.132-1.523-3.756-3.147c-1.219-1.219,0.508,2.741,1.015,3.857c0.507,1.117,4.366,5.178,2.437,4.67
		c-1.929-0.507-2.437-0.202-1.117,1.219c1.015,1.116,5.482,4.365,3.35,4.467s-2.741-0.305-1.32,1.116
		c2.03,1.93,7.005,5.889,5.685,5.686c-1.218-0.203-3.553-1.116-2.335-0.102c1.32,0.914,4.569,4.062,3.756,3.857
		c-0.812-0.202-2.843-1.725-2.03-0.608c0.406,0.508,1.421,2.03,2.437,3.553c-2.538-3.146-6.802-7.716-11.878-9.441
		c0,0,1.117,1.117-0.102,1.422c-1.117,0.304-4.061-1.827-5.178-1.727c-1.117,0.103,2.132,1.727,0.813,2.437
		c-1.32,0.711-6.802-1.319-9.34,0.609s1.726-0.203,2.031,0.609c0.304,0.711-3.959,1.726-5.584,4.975
		c-2.437,4.873,1.929-0.711,4.67-1.929c2.843-1.219,3.249-1.32,1.726,1.015c-1.523,2.437,0,0.305,2.741-0.305
		c2.639-0.609,3.147-0.609,3.452,1.93c0.203,2.538,1.015-0.102,3.553-1.523c2.639-1.421,3.756-0.608,2.132,0.711
		c-1.625,1.32-0.711,1.827,0.812,1.32c1.523-0.508,4.975,0,3.452,0.608c-1.117,0.406,0.406,0.609,2.639,0.914
		c-4.061-0.203-9.441,0.102-14.314,2.03c0.406-0.406,0.508-0.711,0.102-0.508c-1.218,0.711-3.452,0.406-3.045,0.102
		c0.609-0.406,3.452-1.726,2.741-1.522c-0.204,0-3.249,0-2.64-0.203c0.913-0.406,3.35-1.117,3.654-1.523
		c0.609-0.71-1.827,0.103-1.726-0.304s2.132-1.32-0.508-0.609c-2.538,0.711-4.162,3.146-4.568,2.944
		c-0.406-0.204-0.508-1.016-0.914,0c-2.437,5.685-0.711,7.41-1.523,7.513c-0.812,0.102-0.305-2.438-0.812-0.305
		c-0.203,0.71-0.305,1.726-0.406,2.842c0-0.608,0-1.116,0-1.522c0.102-2.03-0.304,0.508-0.812-0.203
		c-0.813-1.016-0.508-2.03-0.813-3.756c-0.304-1.827-0.507,0.71-1.015-0.711c-0.508-1.319,0-1.522-0.305-2.741
		c-0.711-2.741-0.711,0.508-1.523-0.608c-0.71-1.117-0.71-2.741-1.015-1.93c-0.305,0.711-1.016,0.305-1.218-0.609
		c-0.711-4.061-0.508-1.726-1.523-2.132c-0.914-0.405-1.624-1.116-2.741-2.233c-0.812-0.914,0.305,1.929,0.711,2.741
		s3.147,3.757,1.726,3.451c-1.319-0.304-1.726-0.202-0.812,0.914c0.71,0.813,3.959,3.147,2.437,3.249s-2.03-0.203-0.914,0.813
		c1.421,1.421,5.076,4.264,4.162,4.061c-0.914-0.203-2.64-0.813-1.726-0.102c0.914,0.711,3.249,2.944,2.741,2.842
		c-0.508-0.101-2.031-1.218-1.523-0.405c0.304,0.405,1.015,1.421,1.827,2.64c-1.827-2.335-4.873-5.584-8.629-6.802
		c0,0,0.813,0.812,0,1.015c-0.812,0.203-2.944-1.319-3.756-1.218c-0.813,0.102,1.522,1.319,0.609,1.827s-4.873-1.015-6.701,0.406
		c-1.827,1.422,1.219-0.102,1.421,0.406c0.203,0.508-2.842,1.218-4.061,3.654c-2.03,3.249,1.117-0.812,3.249-1.726
		c2.03-0.913,2.335-1.016,1.218,0.71c-1.117,1.727,0,0.204,1.929-0.202c1.929-0.406,2.335-0.406,2.437,1.421
		c0.203,1.827,0.711-0.102,2.64-1.116c1.929-1.016,2.741-0.406,1.523,0.507c-1.218,0.914-0.508,1.32,0.609,0.914
		s3.553,0,2.437,0.406c-0.812,0.305,0.305,0.405,1.929,0.711c-4.467-0.204-11.066,0.405-15.33,4.568c0,0,1.421-0.305,1.117,0.812
		c-0.305,1.117-3.554,2.437-4.061,3.452c-0.508,1.015,1.625-1.117,1.523,0.305c-0.102,1.421-3.655,5.178-3.249,8.324
		c0.305,3.046,0.711-1.624,1.523-1.421c0.812,0.202,0,2.639,1.32,5.38c2.335,4.873,0.914,0,1.015-3.045c0-0.203,0-5.178,1.625-2.944
		c1.624,2.335,0.812,0,1.726-2.538c0.813-2.538,0.406-0.813,2.64,0.305s0.406-0.813,0.609-3.756
		c0.101-2.843,1.421-4.568,1.726-2.538s1.625,2.943,1.929,1.421c0.305-1.523,2.132-5.279,2.944-3.756
		c0.813,1.421,1.218,0.305,3.655-1.32c0.203-0.102,0.406-0.305,0.609-0.405c-1.319,1.116-2.639,2.537-2.842,3.553
		c-0.507,2.132,0.305,0,1.015,0.102c0.711,0.102-2.335,2.335-2.335,3.553c0,1.219,0.813-0.608,1.625-0.305
		c0.71,0.305-4.366,3.655-4.163,4.468c0.203,0.71,1.828-1.421,2.437-0.711c0.609,0.609-0.813,1.421-1.421,2.335
		c-0.609,0.913,0.102,1.219,1.117,0.711c1.015-0.508-0.203,1.116-1.015,2.843c-0.914,1.827,1.015,0.202,1.726-0.508
		c0.102-0.102,0.102-0.204,0.203-0.204c-0.102,0.204-0.406,0.914-0.406,2.031c0,1.827,0.507,4.264,1.32,5.481l0.609-0.71
		c0-0.508-0.102-1.117,0-1.523c0.305-1.116,0.914-2.335,1.828-1.319c0.203,0.203,0.304,0.406,0.507,0.508l0.508-0.508
		c0-0.305-0.102-0.508-0.305-0.913c-0.508-1.422-1.117-5.99-0.508-4.265c0.609,1.726,2.031,3.553,1.929,1.93
		c-0.102-1.727-0.203-3.858,0.71-2.539c0.914,1.422-0.812-1.827-0.507-2.437c0.305-0.608,1.015-0.101,1.726,0.711
		c0.71,0.813,0.507-0.711,0-2.233c-0.305-0.711-0.305-1.32-0.305-1.624c0.203,0.913,0.406,1.929,0.914,2.944
		c0.507,1.116,0.914,1.929,1.218,2.335l0.508-1.523c-0.102-0.71-0.203-1.522-0.305-2.335c0.102,0.609,0.305,1.218,0.406,1.93l0,0
		l1.625-2.64c-0.71-2.234-1.32-4.062-1.827-5.279c0-0.102,0-0.203,0.102-0.305c1.522,0.405,0.812,1.117,2.437,2.437
		c1.726,1.421,0.406,2.132,1.116,1.625c0.711-0.61,0.711-1.016,0.914-0.407c0.203,0.609,0.813,1.828,1.523,3.249
		c0.609,1.422,0.203,2.437,0.71,2.437s1.726-3.451,1.523-2.233c-0.203,1.219,0.203,2.74,0.507,3.452
		c0.203,0.71,0.914,3.35,0.914,3.35s1.015-3.248,1.726-2.538c0.711,0.711-1.32,3.96-0.203,4.162c1.015,0.203,1.015-1.116,1.32-0.914
		c0.305,0.306,0.305,2.234,0.507,1.625c0.102-0.609,3.249-6.802-3.045-13.401c-2.03-2.131-4.163-3.553-5.99-4.567
		c0-0.102,0-0.102,0-0.204c0.914,0.306,1.827,0.712,2.843,1.117c4.771,2.132,1.624-0.405,2.741-0.305
		c1.117,0.203,3.451,3.858,3.553,2.843c0-0.913-1.625-3.35-0.914-2.943c0.711,0.405,3.553,4.06,3.147,2.74
		c-0.406-1.218,0.304-2.233,0.71-1.218c-0.305,0.608-0.102,1.116,0.406,1.116c0.305,0.508,0.71,0.914,1.117,1.32
		c-0.406,0.71-0.914,1.522-1.218,2.335c-1.218,2.538,1.421,0.305,2.335-0.711c0.102-0.102,0.203-0.203,0.203-0.304
		c-0.102,0.304-0.406,0.913-0.508,1.928c-0.508,0.102-0.914,0.102-1.32,0.305c-1.929,0.711,0.914,0,1.016,0.508
		c0.101,0.508-2.538,0.305-3.655,2.64c-1.522,3.046,1.218-0.305,3.046-0.813c0.406-0.102,0.71-0.203,1.015-0.304
		c0.203,1.928,0.711,3.958,1.32,5.38c-0.71,0.102-1.523,0.305-2.437,0.609c-1.117,0.304-0.203,0.406-0.102,0.812
		c0.102,0.406-2.639,1.625-3.655,3.757c-1.117,2.233,0.102,0.609,0.508,0.508c0.406-0.103-0.711,1.929,0,1.421
		c0.406-0.305,1.522-2.233,2.03-3.045c0.305-0.508-0.102,2.131-0.102,2.233c-0.305,0.609,1.421-1.828,1.929-2.233
		c0.203-0.204,0.305,0.608,0,1.521l1.421-0.913c0.102-1.319,0.711-0.813,0.711,0h0.609c0.609-0.71,1.32-1.726,1.625-1.929
		c0.406-0.305-0.406,1.116-0.507,2.03h0.507c0.507-0.71,1.421-2.03,2.03-2.233c0.914-0.203-1.421,2.031,2.234,0
		c1.522-0.812,2.842-1.421,3.959-1.827c-0.102,0.101-0.305,0.305-0.406,0.406l0,0c0,0-2.538,1.016-5.787,3.756l1.726,0.102
		l-0.102,0.608c1.117-1.014,2.132-1.726,3.046-2.335c-0.102,0.712,0.406-0.507,0.913-0.405c0.609,0.102-1.827,1.827-1.827,2.843
		c0,1.015,0.711-0.508,1.218-0.203c0.609,0.203-3.35,2.843-3.249,3.451c0.203,0.609,1.421-1.116,1.929-0.608
		c0.508,0.508-0.609,1.116-1.117,1.827c-0.406,0.71,0.102,1.016,0.914,0.608c0.813-0.406-0.203,0.915-0.812,2.234
		c-0.71,1.421,0.812,0.202,1.32-0.406c0.102-0.102,0.102-0.102,0.102-0.203c-0.102,0.203-0.305,0.711-0.305,1.522
		c0,1.523,0.508,3.757,1.218,4.568c0.711,0.813,0.102-1.116,0.305-2.03s0.71-1.827,1.421-1.015c1.015,1.116,1.015,0.305,0.609-0.711
		c-0.406-1.117-0.914-4.67-0.406-3.351c0.507,1.319,1.522,2.843,1.522,1.523c-0.102-1.319-0.203-3.046,0.609-1.929
		c0.71,1.116-0.711-1.422-0.406-1.93c0.203-0.508,0.813-0.102,1.32,0.609c0.507,0.71,0.406-0.609,0-1.727
		c-0.406-1.116-0.203-1.827,0.305-1.319c0.914,0.711-0.305-0.304-0.305-1.929c0-1.624,0.406-1.522,1.015-0.71
		c0.406,0.609-0.203-0.813-0.508-2.233c0.102,0.101,0.203,0.202,0.406,0.202c0,0,0.102,0,0.102,0.102
		c0.203,1.726,0.406,3.553,0.609,5.482l0.102-1.624l2.437,1.218l1.319,2.03l0.813,1.93l1.421,2.74
		c-0.101-0.405-0.101-0.812-0.203-1.117c0.203-0.101,0.305-0.101,0.406,0c0.101,0.204,0,0.712-0.305,1.117l0.812,6.295
		c-0.203-1.523-0.406-3.046-0.609-4.569c0.102-0.202,0.203-0.304,0.304-0.202c0.102,0.304-0.102,1.726,0.102,1.319
		s3.655-4.67-0.102-10.761c-0.71-1.219-1.522-2.234-2.233-3.046c0-0.305-0.102-0.508-0.102-0.813
		c1.929,1.523,0.914-0.913,1.625-0.711c0.71,0.203,1.726,2.944,1.828,2.234c0.102-0.711-0.711-2.437-0.305-2.133
		c0.406,0.306,1.726,3.046,1.624,2.031c-0.102-1.016,0.508-1.827,0.508-0.406c0,1.319,1.929,2.437,1.421,1.827
		c-0.711-0.913-0.609-2.64-0.304-2.335c0.304,0.406,1.624,2.538,1.421,2.031c0-0.103-0.305-2.539,0-2.031
		c0.406,0.71,1.116,2.538,1.421,2.741c0.609,0.406-0.203-1.422,0.102-1.319c0.305,0.102,1.117,1.522,0.406-0.406
		c-0.71-1.929-2.741-2.944-2.64-3.351c0.102-0.405,0.711-0.508-0.101-0.711c-2.538-0.812-4.061-0.71-4.873-0.608
		c-0.102-0.813-0.204-1.727-0.204-2.538c0.102,0,0.305,0.102,0.406,0.202c1.523,0.813,1.929,2.234,2.031,0.813
		c0.102-1.421,0.406-1.421,1.929-1.116c1.523,0.405,2.437,1.522,1.523,0.203c-0.812-1.32-0.609-1.219,1.015-0.508
		c1.625,0.71,4.061,3.858,2.64,1.116c-0.305-0.608-0.71-1.015-1.117-1.421c0.508-1.219,1.625-4.568,0.711-8.935
		c0.406,0.306,0.812,0.204,1.015-0.608c0.304-1.522,2.131-5.279,2.944-3.757c0,0.102,0.101,0.102,0.101,0.203
		c-0.71,0.305-0.406,0.305,0.204,0.305c0.304,0.305,0.609,0.305,1.016,0c0.406,0,0.608,0.102,0.71,0.305l0,0
		c0,0.102-0.102,0.102-0.102,0.203c-0.608,0.406-3.553,0.609-4.975,3.452c-2.03,4.162,1.625-0.406,4.163-1.117
		c0.305-0.102,0.609-0.203,0.914-0.305c-0.71,0.813-1.827,1.929-1.827,2.64c0,1.219,0.812-0.608,1.624-0.305
		c0.711,0.305-4.365,3.655-4.162,4.468c0.203,0.71,1.827-1.422,2.436-0.712c0.609,0.609-0.812,1.422-1.421,2.335
		c-0.608,0.914,0.102,1.219,1.117,0.712c0.711-0.406,0.406,0.304-0.203,1.319c-1.218,0.913-2.944,2.233-3.857,4.061
		c-1.523,3.046,0.203,0.813,0.71,0.609c0.507-0.102-1.015,2.64,0,2.03c0.609-0.405,2.132-3.147,2.842-4.162
		c0.508-0.609-0.102,2.943-0.203,3.045c-0.203,0.406,0.406-0.405,1.218-1.319c0.203,1.726,0.71,3.553,1.522,4.365
		c0.914,1.016,0.102-1.421,0.406-2.64c0.102-0.305,0.203-0.508,0.305-0.812c0.305-0.305,0.507-0.609,0.71-0.914
		c0.203,0,0.508,0.102,0.71,0.406c1.117,1.421,1.219,0.508,0.813-0.71c0.609-0.407,2.335-3.047,2.944-3.452
		c0.711-0.508-0.914,2.232-0.71,3.248c0.101,1.016,2.335-3.146,3.553-3.452c0.914-0.202-0.812,1.625,0.914,1.016
		c0.102,0.406,0.102,0.812,0.203,1.219c-0.102,0.101-0.203,0.202-0.406,0.305l3.35,0.102c0.812-0.711,1.624-1.219,2.335-1.727
		c-0.203,1.016,0.609-0.71,1.32-0.608c0.812,0.101-2.539,2.537-2.539,3.857s0.914-0.711,1.726-0.305
		c0.407,0.203-0.812,1.219-2.03,2.233l1.32,10.762l0.813,2.029v-0.101c0.305-1.219,0.913-2.538,1.928-1.421
		c1.32,1.624,1.32,0.405,0.813-1.016s-1.218-6.498-0.609-4.569c0.71,1.93,2.132,3.858,2.03,2.031s-0.203-4.162,0.813-2.741
		c1.015,1.523-0.914-1.929-0.61-2.639c0.305-0.712,1.117-0.103,1.828,0.812c0.507,0.71,0.609-0.102,0.305-1.117
		c0.507-0.71,1.218-2.03,1.726-2.639c0.305-0.508-0.102,2.131-0.102,2.232c-0.304,0.609,1.421-1.827,1.929-2.232
		c0.305-0.306,0.305,1.522-0.608,2.537c-0.711,0.711,1.827-0.508,1.929-2.029c0.203-1.523,0.914-0.61,0.711,0.405
		c-0.102,0.305,0,0.305,0.203,0.102c0.101,0.305,0.101,0.608,0.203,1.015c0.203,1.219-0.102,2.133,0,2.538l0.609,3.351
		c0.406-0.812,0.914-1.523,1.32-2.233c0,0.406,0,0.71,0.102,0.914c0.101,0.812,0.202,3.654,0.202,3.654s1.828-3.146,2.335-2.233
		c0.507,0.914-2.132,3.858-1.117,4.366s1.32-1.016,1.523-0.609c0.203,0.405-0.203,2.437,0.101,1.827
		c0.102-0.305,1.32-1.827,1.929-4.366c0.305-0.202,0.61-0.508,0.813-0.71c0.102-0.102,0.102-0.102,0.102-0.203
		c-0.102,0.203-0.304,0.711-0.304,1.522c0,1.523,0.507,3.757,1.218,4.568c0.71,0.813,0.101-1.116,0.305-2.029
		c0.202-0.914,0.71-1.828,1.421-1.016c1.015,1.116,1.015,0.304,0.609-0.711c-0.407-1.116-0.914-4.67-0.407-3.351
		c0.508,1.421,1.523,2.843,1.523,1.523c-0.102-1.32-0.203-3.046,0.609-1.93c0.71,1.117-0.711-1.421-0.406-1.929
		c0.203-0.508,0.812-0.102,1.32,0.609c0.508,0.71,0.406-0.609,0-1.726c-0.406-1.117-0.204-1.828,0.304-1.32
		c0.914,0.711-0.304-0.305-0.304-1.929s0.406-1.522,1.015-0.711c0.406,0.61-0.204-0.812-0.507-2.232c0,0,0,0,0.101,0l0,0
		c0.102,0,0.102,0.101,0.102,0.101l0.101,0.102c1.523,0.609,0.711,1.117,1.726,2.437c1.117,1.319,0,1.726,0.609,1.422
		c0.609-0.305,0.711-0.711,0.711-0.203c0,0.507,0.304,1.522,0.609,2.741c0.203,1.218-0.305,1.929,0.101,2.029
		c0.407,0.102,1.929-2.335,1.523-1.421c-0.406,0.914-0.304,2.133-0.203,2.742c0.101,0.608,0.203,2.639,0.203,2.639
		s1.32-2.335,1.726-1.624c0.406,0.711-1.624,2.741-0.914,3.147c0.711,0.405,1.015-0.712,1.117-0.406
		c0.102,0.304-0.102,1.726,0.102,1.319c0.203-0.406,3.655-4.67-0.102-10.761c-2.031-3.249-4.366-5.178-6.193-6.193
		c0.914,0.406,2.132,1.016,3.452,2.132c2.335,1.929,1.218-0.71,1.827-0.508c0.71,0.204,1.726,2.944,1.827,2.234
		c0.102-0.711-0.711-2.437-0.304-2.133c0.406,0.305,1.726,3.047,1.624,2.031c-0.101-1.016,0.508-1.827,0.508-0.406
		c0,1.319,1.929,2.436,1.421,1.827c-0.71-0.913-0.609-2.64-0.304-2.335c0.304,0.406,1.624,2.538,1.421,2.03
		c0-0.101-0.305-2.538,0-2.03c0.406,0.71,1.117,2.538,1.421,2.741c0.609,0.406-0.204-1.422,0.101-1.319
		c0.305,0.101,1.117,1.521,0.406-0.406c-0.711-1.929-2.741-2.944-2.64-3.351c0.102-0.406,0.711-0.508-0.101-0.711
		c-4.67-1.421-5.787,0-5.99-0.609c-0.102-0.608,1.929-0.508,0.203-0.71c-0.507-0.102-1.421-0.102-2.335-0.102
		c0,0-0.102,0-0.203-0.102c-0.914-0.406,1.117-0.609,1.929-0.305c0.812,0.305,1.421,0,0.508-0.711
		c-0.914-0.71-0.305-1.218,1.218-0.405c1.523,0.812,1.929,2.233,2.031,0.812c0.102-1.421,0.406-1.421,1.929-1.116
		c1.523,0.405,2.437,1.522,1.523,0.203c-0.813-1.32-0.609-1.219,1.015-0.508C142.467,68.613,145.005,71.861,143.584,69.019z
		 M32.519,42.42c-0.203,0.103-0.507,0.305-0.71,0.406C31.605,42.624,31.707,42.318,32.519,42.42z M32.215,55.517
		c0.203-0.305,0.304-0.305,0.609,0C32.621,55.517,32.417,55.517,32.215,55.517z M57.087,41.507L57.087,41.507
		C56.986,41.507,56.986,41.507,57.087,41.507C56.986,41.507,56.986,41.507,57.087,41.507z M54.651,62.42
		C54.651,62.521,54.651,62.521,54.651,62.42c-0.203,0.102-0.609,0.102-1.015,0C53.737,61.811,54.042,61.608,54.651,62.42z
		 M54.346,61.101c0-0.102-0.101-0.305-0.101-0.406c0.304,0.102,0.507,0.203,0.609,0.305C54.956,60.999,54.752,61.101,54.346,61.101z
		 M54.956,62.318c0.102,0,0,0.102-0.102,0.102c0-0.102,0-0.102-0.102-0.203C54.854,62.217,54.854,62.318,54.956,62.318z
		 M53.128,66.786c-0.102,0-0.203-0.103-0.305-0.103c0,0,0.609,0.711-0.203,0.813c-0.305,0-0.914-0.202-1.523-0.508
		c-0.305-1.522-0.508-3.35-0.508-3.959c0.102,0.102,0.203,0.203,0.305,0.203c0,0,0,0,0,0.102
		C51.504,64.856,52.519,66.481,53.128,66.786z M45.108,45.567c1.117,2.03,1.726,0.406,5.076-1.827
		c0.305-0.203,0.508-0.406,0.813-0.508c-1.726,1.522-3.553,3.452-3.959,4.975c-0.102,0.305-0.102,0.609-0.204,0.812
		c-1.218-0.608-2.436-0.71-2.335-1.116c0.102-0.608,3.756,0.203,1.32-0.608c-0.914-0.305-2.03-0.406-3.045-0.406
		C43.585,45.466,44.6,44.553,45.108,45.567z M45.209,62.928c-0.102-0.305-0.203-0.508-0.203-0.711
		C45.615,61.811,45.514,62.217,45.209,62.928z M43.991,56.431c-4.061-0.711-6.193-0.305-7.411-0.102
		c-0.102-0.203-0.102-0.508-0.203-0.711c0.203-0.102,0.305-0.102,0-0.102c-0.203-0.914-0.406-1.929-0.305-3.147
		c0-0.101,0-0.203,0-0.203c0.102,0,0.305,0.103,0.406,0.103c2.233,0.812,3.046,2.74,2.944,0.812c-0.102-1.421-0.813-2.03-0.406-2.03
		c0.609,1.016,1.523,1.219,1.827,0.203c1.726,0.406,2.64,1.116,1.625-0.508c-1.117-1.929,0.406-1.116,2.741-0.406
		c0.406,0.102,0.914,0.406,1.32,0.609c-0.711,0.813-1.421,1.726-1.421,2.437c0,1.726,1.117-0.914,2.233-0.406
		C48.052,53.08,45.92,54.806,43.991,56.431z M47.24,49.121c0.305-0.406,0.812-0.914,1.218-0.813s0,0.508-0.609,1.218
		C47.646,49.426,47.443,49.324,47.24,49.121z M52.113,73.587c-2.335,0.306,0.406,0.102,0.203,0.711
		c-0.203,0.508-1.015-0.203-4.061,0.103c-0.102-0.712-0.102-1.625,0-2.234c0.203-0.813,0.609-1.726,1.016-2.132
		c0.609,0-0.102,0.406-0.102,1.624c-0.102,1.522,0.609,0.102,2.233-0.608c0.609,0.508,0.812,0.304,0.812-0.203
		c1.117-0.204,1.523,0.304,0.71,1.015c-1.827,1.319-1.015,1.319,0.305,1.319c0.914,0,3.147-0.405,2.944,0.204
		C54.549,73.485,53.026,73.485,52.113,73.587z M53.128,66.786c0.406,0.202,0.609,0,0.508-0.813c-0.102-0.914-0.102-1.93-0.102-2.741
		c0.305,0.102,0.609,0.203,0.914,0.203c1.32-0.102,0.609,0.608-0.406,0.608c-1.016,0,1.827,1.117,2.233,1.422
		c0.406,0.305-1.523-0.305-2.132-0.102c-0.711,0.203,2.132,1.015,2.335,1.624c0.203,0.609-2.437-0.202-0.305,1.929
		c0.914,0.813,1.522,1.726,2.03,2.437C57.087,69.831,55.463,68.105,53.128,66.786z M61.047,73.181L61.047,73.181L61.047,73.181
		C61.047,73.181,61.047,73.079,61.047,73.181C61.148,73.079,61.148,73.079,61.047,73.181C61.047,73.079,61.047,73.181,61.047,73.181
		z M64.6,62.115L64.6,62.115l-0.304,0.305c-0.102,0.203-0.203,0.508-0.304,0.711c0-0.102,0-0.102,0-0.203l-2.843,4.366
		c0,0.101,0,0.101,0,0.202c-0.102,0.508-0.102,0.913-0.508,1.32c-0.203,0.202-0.406,0-0.508-0.203
		c-0.102-0.609-0.102-1.219-0.203-1.523c-0.406-1.726-0.102,0.305-0.711,0.204c-0.609-0.103,0.711-1.422-1.117-5.889
		c-0.305-0.813-0.406-0.103-0.711,0c-0.406,0.102-1.522-1.625-3.35-2.233l0,0c0.406-0.914,1.421-0.102,2.335,1.015
		c0.914,1.116,0.71-1.015,0-3.046c-0.711-2.03-0.406-3.146,0.609-2.335c1.625,1.219-0.609-0.609-0.609-3.35
		c0-2.132,0.406-2.538,1.116-1.93c0.406-0.71,1.016-1.522,2.031-1.015c-0.102-0.102-0.102-0.305-0.203-0.406
		c2.437,0.609,1.32,1.625,3.655,3.452c2.335,1.929,0.609,3.045,1.523,2.233c0.914-0.813,0.914-1.422,1.218-0.609
		c0.304,0.813,1.218,2.538,2.03,4.568c0.305,0.813,0.406,1.422,0.508,2.03c-0.406,0.305-0.813,0.508-1.218,0.711
		c-0.812,0.305-0.711-1.319-1.32,1.421C65.514,62.42,64.904,62.623,64.6,62.115z M65.209,68.004c0-0.203-0.102-0.406-0.102-0.609
		c0.102-0.101,0.305-0.203,0.406-0.305C65.412,67.294,65.311,67.598,65.209,68.004z M65.717,65.771
		c-0.914,0,0.203-0.914,1.218-1.523c-0.305,0.508-0.609,1.016-0.812,1.523C65.92,65.771,65.818,65.771,65.717,65.771z
		 M66.225,72.471c0-0.203-0.102-0.305-0.102-0.508c0.406,0,0.914-0.102,1.319,0c0,0.203,0.102,0.305,0.102,0.508
		C67.239,72.471,66.732,72.471,66.225,72.471z M67.646,62.826c-0.203,0-0.406,0-0.609,0.102c-1.016,0.203,0.609-1.218,1.32-2.03
		c0,0.102,0,0.203,0,0.305C68.356,61.608,68.052,62.217,67.646,62.826z M68.762,48.207c-2.03-1.522-3.959-2.64-5.685-3.452
		c1.625,0.508,3.553,1.219,5.583,2.133c0.508,0.202,0.914,0.406,1.32,0.508C69.574,47.699,69.168,47.902,68.762,48.207z
		 M69.473,67.294c0.102-0.306,0.406-0.407,0.609-0.306C69.879,67.191,69.676,67.294,69.473,67.294z M70.387,58.156
		c0.203-0.508,0.406-0.812,0.406-0.406C70.691,57.852,70.59,57.953,70.387,58.156z M71.199,50.238
		c-0.406-0.407-0.914-0.813-1.32-1.117c0.203-0.103,0.406-0.203,0.508-0.305c2.03-0.914,2.335-1.016,1.218,0.71
		C71.402,49.933,71.199,50.136,71.199,50.238z M74.447,67.801c-1.015,0-2.03,0.203-2.741,0.203c0.102-0.609,0.102-1.625,0.406-2.64
		c0.305,1.015,0.508,1.93,0.508,1.93s0.507-1.523,1.117-2.641c0.305,0.305,0.609,0.508,1.117,0.813c0.101,0,0.101,0.102,0.203,0.102
		C74.955,66.177,74.65,67.09,74.447,67.801z M75.869,69.121c0.101-0.204,0.203-0.305,0.305-0.508c0.203,0,0.406,0.102,0.508,0.102
		c0.102,0.304,0.102,0.608,0.203,1.015C76.478,69.526,76.173,69.323,75.869,69.121z M76.376,68.207
		C76.478,68.207,76.478,68.207,76.376,68.207c0.101,0.102,0.101,0.102,0.101,0.102S76.478,68.309,76.376,68.207
		C76.478,68.309,76.478,68.207,76.376,68.207z M74.447,53.689c-0.406-0.609-0.914-1.116-1.522-1.726
		c-0.609-0.61-1.117-1.117-1.726-1.625c0.203-0.101,1.116-0.71,2.334-1.015c0.914-0.203,1.523-0.306,1.828-0.203
		c0.203,0.203,0.305,0.304,0.406,0.508c0.101,0.304,0.101,0.609,0.202,1.116c0.102,1.219,0.407,0.813,1.117,0.102
		c0.102,0,0.102,0,0.203-0.203c0.305-0.305,0.813-0.711,1.32-1.015c0.101,0,0.202-0.103,0.202-0.103
		c0.406,0.406,0.711,0.712,0.914,0.914c-0.71,0.711,0,1.016,0.914,0.609c0.406-0.102,0.913-0.203,1.421-0.203
		c0.203,0.305,0.508,0.507,0.813,0.813c0,0,0,0.102,0.101,0.102c0.102,0.101,0.305,0.203,0.407,0.305
		C80.742,52.166,77.493,52.471,74.447,53.689z M80.133,49.121c0.71,0,0.813,0.405,0.101,0.913
		C80.133,49.73,80.133,49.324,80.133,49.121z M83.686,41.304c-1.421,0.102-1.929-0.203-1.218,0.608
		c-9.441-1.522-11.574,0.914-12.081-0.101c-0.508-1.117,4.264-1.117,0.203-1.32c-1.421-0.102-3.858,0.102-6.396,0.305
		c-0.102-0.102-0.102-0.203-0.203-0.305c-1.117-1.421,3.35-0.608,5.076-0.608c2.233,0,3.655-0.102,0.507-2.335
		c-1.827-1.32-0.507-2.538,2.538-1.32c3.046,1.117,4.163,3.857,4.061,1.117c-0.102-2.741-2.031-3.046,0.914-2.843
		c2.539,0.304,4.366,1.624,3.858,0.304c0.913,1.117,2.131,2.742,1.116,2.438c-1.32-0.305-1.726-0.203-0.813,0.913
		C81.96,38.867,85.209,41.202,83.686,41.304z M85.209,52.166c-0.102,0-0.204,0-0.305,0l0,0
		C84.904,52.166,85.005,52.166,85.209,52.166z M85.005,56.329c-0.203,0-0.406,0-0.609,0c0.406-0.305,0.813-0.609,1.32-0.914
		c0.202-0.102,0.406-0.305,0.609-0.406C85.919,55.517,85.412,55.923,85.005,56.329z M87.036,48.004
		c0.102,0.203,0.304,0.406,0.508,0.609c-0.204-0.102-0.508-0.305-0.711-0.406C86.732,48.004,86.833,47.801,87.036,48.004z
		 M86.833,73.688c-0.101-0.405-0.305-0.913-0.406-1.522C86.732,72.369,86.935,72.979,86.833,73.688z M86.935,49.526
		c0-0.202-0.102-0.304-0.102-0.508c0.406,0.508,0.813,1.22,1.32,1.93C87.848,50.542,87.442,50.034,86.935,49.526z M88.355,66.684
		v-0.102c0.204-0.405,0.61-0.304,1.016,0C89.168,66.582,88.762,66.684,88.355,66.684z M90.69,53.791L90.69,53.791L90.69,53.791
		L90.69,53.791z M90.488,66.582c-0.102-0.405-0.204-0.913-0.406-1.522c-0.203-0.508-0.203-0.813-0.305-1.116
		c0.203-0.102,0.406-0.305,0.711-0.508c0.508,0.406,0.406,0.304,0.202-0.102c0.306-0.203,0.609-0.406,1.016-0.711
		c0.204,0.914,0.508,1.929,0.711,3.147c-0.102,0-0.102,0.102,0,0.102c0.102,0.305,0.102,0.609,0.203,0.914
		C92.112,66.582,91.402,66.582,90.488,66.582z M96.072,52.471c0.102,0.103,0.609,0.406,1.117,0.711c-0.406,0-0.914,0.102-1.32,0.102
		c0-0.102-0.101-0.102-0.203-0.203C95.462,52.674,95.666,52.573,96.072,52.471z M98.103,57.345c0,0.202,0.101,0.405,0.406,0.812
		c-1.218-0.812-2.335-1.421-3.35-1.929C95.97,56.532,96.985,56.938,98.103,57.345z M93.533,61.912
		c1.727-0.405,2.335,0.406,1.117,1.32c-0.203,0.203-0.406,0.305-0.609,0.406C93.939,63.029,93.737,62.42,93.533,61.912z
		 M94.549,65.06c0.203,0,0.305,0,0.507,0c0.711,0,2.132-0.203,3.147-0.203c0.101,0.102,0.101,0.305,0.203,0.406
		c-1.421,0-2.741,0-3.756,0.102C94.549,65.364,94.549,65.161,94.549,65.06z M100.539,68.512L100.539,68.512
		c0,0-1.828,0.71-4.467,2.437c0-0.204-0.102-0.406-0.204-0.609c1.828-1.016,3.452-1.726,4.873-2.233c0,0.102,0,0.102,0,0.203
		C100.741,68.309,100.64,68.409,100.539,68.512z M120.234,62.521c0.507,0.203,1.015,0.508,1.117,0.609
		c0.203,0.203-0.507,0-1.117-0.102C120.234,62.826,120.234,62.623,120.234,62.521z M115.158,63.436c1.218,0.406,1.928,0,0.71-1.016
		c-0.102,0-0.102-0.102-0.102-0.102c0.203,0,0-0.508-0.203-0.913c0.304-0.103,1.015,0,2.03,0.507
		c1.726,0.914,2.437,2.539,2.64,1.727c0.609,0.305,1.319,0.608,1.523,1.015c0.101,0.406-0.711,0.305-1.016,0.508
		c-0.609-0.102-1.117-0.102-1.523-0.102c-0.406-0.203-0.71-0.406-1.117-0.711c0,0,0.305,0.406,0.203,0.711
		c-0.304,0-0.609,0-0.812,0.102c-0.305-0.102-0.711-0.305-1.219-0.508c0.609-0.202,1.421-0.202-0.203-0.406
		c-0.203,0-0.406,0-0.711,0c-0.304-0.203-0.609-0.304-0.812-0.304c-0.102,0,0,0.101,0,0.304c-0.508,0-1.117,0-1.727,0
		c0,0-0.101-0.102-0.203-0.102C111.198,63.436,113.939,63.029,115.158,63.436z M121.147,71.05c-0.102,0-0.304,0-0.406,0
		c0-0.102,0-0.203,0-0.306C121.046,70.847,121.249,70.948,121.147,71.05z M120.132,71.05c-0.406,0-0.812,0-1.116,0
		c0-0.102,0-0.203,0-0.306c0.305,0,0.71-0.102,1.015-0.102C120.031,70.847,120.031,71.05,120.132,71.05z M105.31,58.968
		c-0.101,0.103-0.203,0.204-0.305,0.103c-0.203-0.406-0.406-0.711-0.508-1.016c0-0.203,0-0.406-0.101-0.609l0,0
		c0.203,0.102,0.711,0.609,1.117,1.117C105.513,58.766,105.411,58.867,105.31,58.968z M105.919,64.958L105.919,64.958
		c0-0.102,0-0.102,0.102-0.102C106.021,64.755,106.021,64.856,105.919,64.958C106.021,64.856,106.021,64.856,105.919,64.958
		L105.919,64.958z M106.123,76.836c-0.204-1.015,0-1.522,0.71-1.015c0,0,0.102,0,0.102,0.101
		C106.528,76.228,106.325,76.531,106.123,76.836z M109.574,72.877c-1.117,0.304-0.203,0.406-0.102,0.812
		c0.102,0.305-1.219,1.016-2.437,2.133c-0.305-0.508-0.711-1.421-0.711-2.538c0-2.133,0.609-2.031,1.32-0.914
		c0.508,0.812-0.203-1.117-0.609-3.046c0.203,0.102,0.304,0.203,0.508,0.305c2.03,0.914,1.015,1.422,2.335,3.249
		C109.777,72.877,109.675,72.877,109.574,72.877z M108.762,60.39c0.102,0.203,0.305,0.406,0.508,0.609
		c-0.102,0.102-0.102,0.102-0.203,0.203c-0.305,0-1.32,0.608-1.827,0.71C106.731,61.912,107.746,61.101,108.762,60.39z
		 M109.879,59.07c0-0.305,0.101-0.406,0.203-0.305c0.101,0.102,0.101,0.102,0.203,0.202
		C110.183,58.968,110.082,58.968,109.879,59.07z M109.98,59.577c0.203-0.102,0.406-0.202,0.508-0.305c0,0,0.101,0,0.101-0.101
		c0.102,0.101,0.204,0.203,0.305,0.304c-0.305,0.204-0.508,0.406-0.711,0.711C109.98,59.882,109.98,59.68,109.98,59.577z
		 M111.503,68.004c-0.508-0.406-0.914-0.71-1.421-1.016c0.101,0,0.101,0,0.203-0.102c0.406,0.203,0.812,0.508,1.32,0.711
		C111.604,67.801,111.503,67.902,111.503,68.004z M110.894,49.73c-0.305-0.712-0.305,0.812-1.117,1.827
		c-0.914,1.016-0.812-1.929-1.725,0.608c-0.306,0.813,0,1.117-0.102,1.727c-2.132-0.305-3.553-0.203-4.67-0.102
		c-0.102-0.914-0.305-2.132-0.812-3.553c1.624,0.913,2.334,2.232,2.233,0.507c-0.102-2.03-1.523-2.233,0.71-2.03
		c2.133,0.203,3.554,1.523,2.437-0.406c-1.117-1.929,0.406-1.117,2.741-0.406c0.609,0.203,1.32,0.609,1.929,1.116
		c0,0.103,0,0.204-0.101,0.306C112.112,50.034,111.198,50.44,110.894,49.73z M117.188,71.252c-2.335,0.306,0.406,0.102,0.203,0.711
		c-0.102,0.305-0.609,0.102-1.827,0c-1.218-1.522-2.539-2.741-3.655-3.654c0.101,0,0.305-0.102,0.406-0.102
		c0.507,0.406,1.015,0.71,1.624,1.218c0.102,0.102,0.204,0.203,0.305,0.305c0,0.508,0.102,0.508,0.407,0.305
		c1.624,1.116,1.319-0.305,1.421-1.016c0.102-0.102,0.305-0.102,0.406-0.202h0.102c0.304,0.202,0.609,0.608,0.914,1.116
		c-1.219,1.016-0.508,1.016,0.608,1.016c0,0.102,0.102,0.202,0.102,0.202C117.899,71.15,117.493,71.15,117.188,71.252z
		 M119.726,80.491c0.102,0,0.305,0,0.406,0.101c0.305,0.306,0.102,0.508-0.203,0.813C119.828,81.1,119.828,80.795,119.726,80.491z
		 M119.929,83.638c0-0.202,0-0.508,0-0.71C120.437,82.725,120.234,83.028,119.929,83.638z M120.234,77.851
		c0,1.016,0.71-0.507,1.218-0.202c0.305,0.101-0.813,1.116-1.828,1.929c-0.202-0.711-0.406-1.522-0.812-2.437
		c0.812-0.711,1.624-1.219,2.335-1.727c-0.102,0.711,0.406-0.507,0.914-0.405C122.568,75.212,120.234,76.938,120.234,77.851z
		 M122.265,73.385L122.265,73.385c0,0-1.727,0.71-4.163,2.437c-0.101-0.203-0.203-0.306-0.305-0.508
		c0.204-0.102,0.508-0.305,0.813-0.407c1.421-0.812,2.741-1.421,3.857-1.827l0,0C122.467,73.181,122.366,73.283,122.265,73.385z
		 M126.427,63.842c-0.305,1.218-0.102,1.827-0.711,2.537c-0.203,0.203-0.406,0-0.508-0.202c-0.101-0.609-0.101-1.219-0.203-1.523
		c-0.406-1.726-0.102,0.305-0.71,0.203c-0.407-0.102,0.203-0.813-0.305-3.046c1.421,0.609,2.03,1.422,1.015-0.101
		c-1.218-1.828-0.813-1.727,1.319-0.711c0.406,0.203,0.813,0.406,1.218,0.711c-0.203,0.608,0.102,0.812-0.203,1.624
		C126.935,64.349,126.731,62.623,126.427,63.842z"/>
</g>
</svg>
