<?xml version="1.0" encoding="utf-8"?>
<!-- Generator: Adobe Illustrator 16.0.0, SVG Export Plug-In . SVG Version: 6.00 Build 0)  -->
<!DOCTYPE svg PUBLIC "-//W3C//DTD SVG 1.1//EN" "http://www.w3.org/Graphics/SVG/1.1/DTD/svg11.dtd">
<svg version="1.1" id="_x35_0m" xmlns="http://www.w3.org/2000/svg" xmlns:xlink="http://www.w3.org/1999/xlink" x="0px" y="0px"
	 width="144px" height="144px" viewBox="0 0 144 144" enable-background="new 0 0 144 144" xml:space="preserve">
<g>
	<g>
		<path fill="#010101" d="M74.313,44.186c2.813,0.604,1.607,1.808,4.218,4.018c2.711,2.209,0.704,3.514,1.808,2.511
			c1.105-0.904,1.105-1.607,1.406-0.703c0.301,0.903,1.405,2.912,2.41,5.222c1.004,2.309,0.3,3.916,1.104,3.916
			c0.904,0,2.711-5.624,2.41-3.615c-0.302,2.008,0.301,4.418,0.702,5.523c0.401,1.104,1.507,5.221,1.507,5.221
			s1.605-5.121,2.711-4.017c1.104,1.105-2.009,6.226-0.401,6.628c1.605,0.401,1.707-1.808,2.108-1.405
			c0.402,0.401,0.502,3.614,0.804,2.61c0.2-1.005,5.222-10.846-4.82-21.389c-3.916-4.117-7.933-6.729-11.448-8.234
			c1.908,0.603,4.018,1.405,6.428,2.51c7.531,3.415,2.61-0.702,4.418-0.4c1.807,0.3,5.522,6.125,5.623,4.618
			c0.101-1.506-2.61-5.322-1.507-4.618c1.105,0.702,5.623,6.426,4.922,4.317c-0.704-2.108,0.803-4.018,1.305-1.004
			c0.603,3.012,5.925,5.121,4.419,3.715c-2.109-1.907-2.31-5.623-1.607-5.021c1.004,0.903,5.021,5.423,4.318,4.317
			c-0.201-0.2-1.406-5.422-0.703-4.519c1.306,1.507,3.815,5.322,4.72,5.824c1.606,0.904-1.104-3.013-0.2-2.912
			c0.803,0.101,3.514,3.214,1.004-1.004c-2.511-4.218-8.235-6.226-8.135-7.029s1.809-1.104-0.401-1.606
			c-12.752-2.611-15.464,0.703-16.066-0.603c-0.604-1.306,4.921-1.306,0.201-1.506c-1.607-0.101-4.419,0.1-7.331,0.401
			c-0.1-0.101-0.1-0.201-0.2-0.302c-1.306-1.707,3.816-0.804,5.823-0.703c2.611,0,4.218-0.101,0.604-2.711
			c-2.109-1.506-0.604-2.912,2.912-1.506c3.514,1.305,4.82,4.419,4.72,1.305c-0.101-3.112-2.31-3.614,1.104-3.213
			c3.415,0.302,5.725,2.41,3.917-0.603c-1.808-3.112,0.703-1.707,4.418-0.702c3.716,1.104,9.238,7.933,6.226,1.706
			c-2.31-4.819-7.731-4.418-7.531-5.422c0.201-1.004,5.925,0.401,2.109-1.004c-3.516-1.206-8.033-0.703-10.042,0
			c-1.707,0.702-0.1-2.512-0.603-2.411c-1.405,0.402-5.322,3.013-6.728,2.813c-1.808-0.503-0.603-2.008-0.603-2.008
			c-2.61,1.204-4.819,2.711-6.628,4.317c3.916-3.917-1.306-2.31-0.904-3.615c0.503-1.305,6.227-3.013,4.82-3.313
			c-1.405-0.401-5.121,0.903-4.417,0.2c0.702-0.703,6.526-3.013,4.519-2.911c-2.009,0.1-3.516-1.406-0.704-1.206
			c2.812,0.201,5.423-3.413,3.917-2.51c-2.009,1.204-5.422,0.603-4.82,0.2c0.903-0.603,5.523-2.711,4.418-2.409
			c-0.2,0.1-5.12,0-4.217-0.402c1.507-0.702,5.322-1.808,5.823-2.41c1.004-1.104-2.911,0.201-2.711-0.401
			c0.201-0.603,3.313-2.009-0.803-0.903c-4.117,1.104-6.628,5.021-7.33,4.72c-0.704-0.302-0.805-1.607-1.507,0
			c-3.816,9.138-1.104,11.849-2.41,12.05c-1.205,0.201-0.502-3.916-1.306-0.402c-0.302,1.105-0.502,2.712-0.702,4.52
			c0-0.904,0-1.708,0-2.511c0.101-3.313-0.402,0.904-1.406-0.401c-1.205-1.707-0.803-3.213-1.306-6.025
			c-0.502-2.812-0.903,1.104-1.606-1.104c-0.804-2.108,0-2.511-0.502-4.318c-1.104-4.418-1.205,0.703-2.311-1.004
			c-1.204-1.808-1.104-4.317-1.505-3.112c-0.503,1.204-1.708,0.501-1.908-0.904c-1.104-6.427-0.904-2.812-2.31-3.414
			c-1.406-0.603-2.511-1.707-4.317-3.615c-1.508-1.506,0.4,3.013,1.003,4.318s5.021,6.025,2.812,5.422
			c-2.108-0.502-2.812-0.301-1.305,1.406c1.104,1.306,6.326,5.021,3.916,5.121s-3.213-0.401-1.507,1.306
			c2.31,2.209,8.034,6.728,6.628,6.527c-1.406-0.201-4.117-1.306-2.711-0.201c1.406,1.105,5.222,4.72,4.317,4.418
			c-0.903-0.301-3.313-2.008-2.31-0.703c0.402,0.604,1.607,2.31,2.812,4.117c-2.911-3.715-7.832-8.937-13.757-10.944
			c0,0,1.205,1.204-0.101,1.605c-1.306,0.402-4.72-2.107-6.024-1.907c-1.306,0.101,2.41,2.009,0.903,2.812
			c-1.506,0.804-7.832-1.606-10.744,0.703s2.008-0.201,2.31,0.702c0.301,0.903-4.619,2.009-6.427,5.725
			c-2.812,5.623,2.209-0.903,5.423-2.31c3.213-1.406,3.715-1.606,2.008,1.104c-1.808,2.812,0,0.401,3.112-0.302
			c3.114-0.702,3.716-0.702,3.917,2.21c0.301,2.911,1.104-0.101,4.116-1.708c3.014-1.606,4.318-0.702,2.411,0.804
			c-1.908,1.506-0.803,2.108,1.004,1.506c1.707-0.602,5.724,0,3.916,0.703c-1.306,0.503,0.402,0.703,3.013,1.105
			c-7.13-0.302-17.673,0.602-24.502,7.229c0,0,2.31-0.502,1.808,1.205s-5.724,3.815-6.527,5.423
			c-0.803,1.606,2.611-1.808,2.511,0.502s-5.824,8.233-5.222,13.154c0.603,5.021,1.205-2.41,2.41-2.109
			c1.205,0.302,0,4.218,2.208,8.637c3.717,7.832,1.406,0,1.507-4.921c0-0.301-0.101-8.334,2.611-4.619
			c2.61,3.715,1.406,0,2.711-4.017c1.306-4.017,0.703-1.306,4.218,0.402c3.614,1.807,0.703-1.306,0.904-5.925
			c0.2-4.62,2.209-7.23,2.71-4.017c0.402,3.213,2.512,4.618,3.113,2.209c0.603-2.41,3.414-8.335,4.721-6.025
			c1.305,2.31,1.907,0.401,5.823-2.108c0.301-0.201,0.604-0.402,0.904-0.603c-2.009,1.808-4.117,4.017-4.519,5.724
			c-0.804,3.313,0.502,0,1.707,0.201c1.204,0.2-3.816,3.916-3.816,5.925c0,2.008,1.306-1.005,2.511-0.503
			c1.204,0.503-6.929,5.925-6.526,7.029c0.301,1.205,2.911-2.209,3.916-1.205c1.003,1.004-1.307,2.209-2.21,3.716
			c-0.903,1.405,0.201,2.008,1.808,1.205c1.707-0.804-0.402,1.807-1.707,4.519c-1.406,2.912,1.707,0.301,2.711-0.804
			c0.101-0.2,0.201-0.301,0.302-0.401c0.1-0.201,0.1-0.201,0,0c-0.201,0.401-0.603,1.406-0.603,3.213
			c0,3.214,1.004,7.532,2.51,9.238c1.507,1.707,0.201-2.31,0.703-4.116c0.503-1.808,1.406-3.716,2.813-2.109
			c2.008,2.31,2.008,0.703,1.204-1.506c-0.803-2.21-1.808-9.641-0.803-6.728c1.004,2.911,3.213,5.724,3.012,3.013
			c-0.2-2.712-0.302-6.227,1.206-4.018c1.506,2.209-1.306-2.912-0.804-3.916s1.707-0.201,2.711,1.205
			c1.004,1.305,0.803-1.205,0-3.515s-0.502-3.615,0.703-2.712c1.808,1.507-0.703-0.702-0.703-3.915c0-2.109,0.402-2.813,1.004-2.41
			l0,0l2.411-1.105 M71.802,36.555C71.702,36.555,71.702,36.555,71.802,36.555C71.702,36.555,71.702,36.555,71.802,36.555
			L71.802,36.555z"/>
	</g>
	<path fill="#ADADAD" d="M74.313,45.09c0,0,17.071,55.73,17.271,98.91l-9.639-0.1c0,0-2.109-75.112-10.043-97.706L74.313,45.09z"/>
</g>
</svg>
