<?xml version="1.0" encoding="utf-8"?>
<!-- Generator: Adobe Illustrator 16.0.0, SVG Export Plug-In . SVG Version: 6.00 Build 0)  -->
<!DOCTYPE svg PUBLIC "-//W3C//DTD SVG 1.1//EN" "http://www.w3.org/Graphics/SVG/1.1/DTD/svg11.dtd">
<svg version="1.1" id="_x35_0m" xmlns="http://www.w3.org/2000/svg" xmlns:xlink="http://www.w3.org/1999/xlink" x="0px" y="0px"
	 width="144px" height="144px" viewBox="0 0 144 144" enable-background="new 0 0 144 144" xml:space="preserve">
<g>
	<path fill="#010101" d="M46.005,22.428c4.425,0,8.146,0.704,11.162,2.213c3.017,1.509,5.431,3.42,7.341,5.832
		c1.811,2.414,3.218,5.129,4.023,8.246c0.804,3.117,1.207,6.234,1.207,9.453c0,4.425-0.704,8.245-2.012,11.564
		c-1.307,3.317-3.218,6.033-5.53,8.044c-2.414,2.111-5.229,3.62-8.648,4.726c-3.419,1.106-7.14,1.609-11.263,1.609h-9.352v37.486
		H15.536V22.428H46.005z M40.676,61.445c3.419,0,6.234-1.006,8.347-3.117c2.111-2.112,3.217-5.329,3.217-9.754
		c0-4.324-0.905-7.643-2.815-9.855s-4.927-3.52-9.252-3.52h-7.24v26.145h7.743V61.445z"/>
	<path fill="#010101" d="M100.508,22.428l-27.251,89.195H60.083l26.95-89.195H100.508z"/>
	<path fill="#010101" d="M128.464,22.428l-27.251,89.195H88.039l26.949-89.195H128.464z"/>
</g>
</svg>
