<?xml version="1.0" encoding="utf-8"?>
<!-- Generator: Adobe Illustrator 16.0.0, SVG Export Plug-In . SVG Version: 6.00 Build 0)  -->
<!DOCTYPE svg PUBLIC "-//W3C//DTD SVG 1.1//EN" "http://www.w3.org/Graphics/SVG/1.1/DTD/svg11.dtd">
<svg version="1.1" id="_x35_0m" xmlns="http://www.w3.org/2000/svg" xmlns:xlink="http://www.w3.org/1999/xlink" x="0px" y="0px"
	 width="144px" height="144px" viewBox="0 0 144 144" enable-background="new 0 0 144 144" xml:space="preserve">
<path fill="#BA6BAB" d="M72,144c-9.7,0-19.2-1.9-28-5.701c-8.6-3.6-16.3-8.8-22.9-15.399c-6.6-6.601-11.8-14.3-15.399-22.9
	c-3.8-8.8-5.7-18.3-5.7-28c0-9.699,1.9-19.199,5.7-28C9.3,35.4,14.5,27.699,21.1,21.1C27.7,14.5,35.4,9.3,44,5.699
	C52.8,1.899,62.3,0,72,0c9.699,0,19.2,1.899,28,5.699c8.6,3.601,16.3,8.801,22.899,15.4c6.601,6.6,11.801,14.301,15.4,22.899
	c3.8,8.9,5.7,18.301,5.7,28c0,9.7-1.9,19.2-5.7,28c-3.6,8.601-8.8,16.3-15.4,22.9c-6.6,6.6-14.3,11.8-22.899,15.399
	C91.2,142.1,81.699,144,72,144z"/>
<path fill="#FFFFFF" d="M72,10.3c-16.5,0-32,6.4-43.7,18.101c-11.7,11.699-18,27.1-18,43.599C10.3,88.5,16.7,104,28.4,115.7
	C40.1,127.399,55.6,133.8,72.1,133.8s32-6.4,43.7-18.1c11.7-11.7,18.1-27.2,18.1-43.601s-6.399-32-18.1-43.699
	C104.1,16.7,88.5,10.3,72,10.3z"/>
<path fill="#010101" d="M70.899,121.1l9.7-12c3.8-3.8,2.5-11.7-2.5-20.5l14.2-23c6.3,1.5,13.2-0.2,18-5.2c7.5-7.5,7.5-19.8,0-27.3
	s-19.801-7.5-27.3,0c-4.8,4.8-6.501,11.4-5.2,17.601L54,63.5c-9.3-6.001-17.5-6.9-21.7-2.7l-12,9.7c-0.4,0.199-0.7,0.5-1,0.8
	c-5.8,5.8,0.8,21.9,14.9,36c14.1,14.1,30.199,20.699,36,14.9C70.4,121.799,70.7,121.499,70.899,121.1z M47.9,93.899l-4.2,4.2
	c2.5,2.399,4.2,3.601,4.2,3.601l-5.2,5.199C30.5,97.3,26.1,86.7,26.1,86.7l5.9-4.2c1.1,1.999,2.2,3.8,3.3,5.399l4.6-3.499
	C33.2,75.099,30.6,66.3,34.3,62.6C37.6,59.3,43.9,60,51.5,64.7L42,69.899c0,0,0.3,5.5,3.8,11.8l29.5-16.8L51.3,89
	c1.8,1.8,3.9,3.499,6.4,4.999l12.3-11.8L61.3,96c2.9,1.399,6.2,2.499,10.1,3.399l5.1-8.3c3.9,7,4.801,13.1,2.001,16
	C73.699,111.899,60.1,105.999,47.9,93.899z"/>
</svg>
