<?xml version="1.0" encoding="utf-8"?>
<!-- Generator: Adobe Illustrator 16.0.0, SVG Export Plug-In . SVG Version: 6.00 Build 0)  -->
<!DOCTYPE svg PUBLIC "-//W3C//DTD SVG 1.1//EN" "http://www.w3.org/Graphics/SVG/1.1/DTD/svg11.dtd">
<svg version="1.1" id="_x35_0m" xmlns="http://www.w3.org/2000/svg" xmlns:xlink="http://www.w3.org/1999/xlink" x="0px" y="0px"
	 width="144px" height="144px" viewBox="0 0 144 144" enable-background="new 0 0 144 144" xml:space="preserve">
<path fill="#BA6BAB" d="M117.639,79.081h-17.016v30.729H84.071V24.527h34.959c8.041,0,14.383,2.137,19.177,6.573
	c4.795,4.438,7.115,11.175,7.115,20.376c0,10.023-2.475,17.089-7.115,21.362C133.567,77.109,126.607,79.081,117.639,79.081z
	 M125.525,61.336c2.166-1.973,3.248-5.259,3.248-9.693c0-4.438-1.082-7.56-3.248-9.532c-2.166-1.971-5.26-2.792-9.28-2.792h-15.622
	v25.14h15.622C120.266,64.458,123.359,63.472,125.525,61.336z"/>
<path fill="#BA6BAB" d="M61.337,103.073c-6.034,5.749-13.614,8.707-22.893,8.707c-11.447,0-20.57-3.942-27.222-11.829
	c-6.653-7.888-9.9-18.733-9.9-32.535c0-14.788,3.713-26.291,11.292-34.343c6.495-7.066,14.848-10.518,24.901-10.518
	c13.46,0,23.356,4.766,29.543,14.133c3.404,5.256,5.259,10.517,5.57,15.939h-16.86c-1.085-4.108-2.474-7.23-4.178-9.204
	c-3.094-3.615-7.576-5.585-13.609-5.585s-10.827,2.629-14.386,7.886c-3.557,5.26-5.26,12.653-5.26,22.185
	c0,9.53,1.858,16.761,5.571,21.524c3.708,4.766,8.508,7.065,14.229,7.065c5.879,0,10.361-1.971,13.455-6.079
	c1.704-2.136,3.093-5.423,4.178-9.858h16.549C70.925,89.598,67.216,97.157,61.337,103.073z"/>
</svg>
