<?xml version="1.0" encoding="utf-8"?>
<!-- Generator: Adobe Illustrator 16.0.0, SVG Export Plug-In . SVG Version: 6.00 Build 0)  -->
<!DOCTYPE svg PUBLIC "-//W3C//DTD SVG 1.1//EN" "http://www.w3.org/Graphics/SVG/1.1/DTD/svg11.dtd">
<svg version="1.1" id="_x35_0m" xmlns="http://www.w3.org/2000/svg" xmlns:xlink="http://www.w3.org/1999/xlink" x="0px" y="0px"
	 width="144px" height="144px" viewBox="0 0 144 144" enable-background="new 0 0 144 144" xml:space="preserve">
<g>
	<g>
		<g>
			<defs>
				<polygon id="SVGID_5_" points="1,-428.74 2,-428.74 1,-427.74 				"/>
			</defs>
			<defs>
				<polygon id="SVGID_6_" points="-1,-430.74 -2,-430.74 -1,-431.74 				"/>
			</defs>
			<clipPath id="SVGID_4_">
				<use xlink:href="#SVGID_5_"  overflow="visible"/>
			</clipPath>
			<clipPath id="SVGID_7_" clip-path="url(#SVGID_4_)">
				<use xlink:href="#SVGID_6_"  overflow="visible"/>
			</clipPath>
		</g>
	</g>
</g>
<g>
	<g>
		<g>
			<defs>
				<polygon id="SVGID_31_" points="1,-428.74 2,-428.74 1,-427.74 				"/>
			</defs>
			<defs>
				<polygon id="SVGID_32_" points="-1,-430.74 -2,-430.74 -1,-431.74 				"/>
			</defs>
			<clipPath id="SVGID_8_">
				<use xlink:href="#SVGID_31_"  overflow="visible"/>
			</clipPath>
			<clipPath id="SVGID_11_" clip-path="url(#SVGID_8_)">
				<use xlink:href="#SVGID_32_"  overflow="visible"/>
			</clipPath>
		</g>
	</g>
</g>
<g>
	<path fill="#B4B4B4" d="M142.886,71.975c0-2.939-2.331-5.27-5.27-5.473l0,0H7.803C7.398,66.4,7.094,66.4,6.688,66.4
		c-0.406,0-0.811,0-1.115,0.102H5.472l0,0c-2.533,0.508-4.357,2.736-4.357,5.473s1.925,4.865,4.357,5.473l0,0h0.102
		c0.405,0.102,0.709,0.102,1.115,0.102c0.405,0,0.811,0,1.114-0.102h129.915l0,0C140.555,77.244,142.886,74.813,142.886,71.975z"/>
	<path fill="#010101" d="M5.472,78.459c0.405,0.102,0.811,0.203,1.216,0.203c0.405,0,0.811,0,1.216-0.102h129.712h1.114v-0.102
		c3.041-0.607,5.27-3.242,5.27-6.383c0-3.143-2.229-5.777-5.27-6.385V65.49H7.904c-0.811-0.203-1.622-0.203-2.533,0H4.864
		l-0.507,0.201c-2.027,0.811-3.648,2.533-4.155,4.662c0,0.203-0.102,0.305-0.102,0.506c0,0.102,0,0.203,0,0.305
		C0.101,71.469,0,71.771,0,72.076c0,0.303,0,0.607,0.101,0.912c0,0.102,0,0.203,0,0.303c0,0,0.102,0.203,0.102,0.305
		c0.608,2.129,2.128,3.852,4.155,4.662 M6.182,75.928c-2.229,0-3.952-1.824-3.952-3.953c0-2.229,1.824-3.951,3.952-3.951
		s3.952,1.822,3.952,3.951C10.235,74.104,8.411,75.928,6.182,75.928z M137.616,76.23h-0.305H10.641
		c1.115-1.113,1.723-2.635,1.723-4.357s-0.709-3.242-1.723-4.357h126.469h0.507c2.331,0.102,4.154,2.027,4.154,4.357
		C141.771,74.305,139.947,76.129,137.616,76.23z"/>
</g>
</svg>
