<?xml version="1.0" encoding="utf-8"?>
<!-- Generator: Adobe Illustrator 16.0.0, SVG Export Plug-In . SVG Version: 6.00 Build 0)  -->
<!DOCTYPE svg PUBLIC "-//W3C//DTD SVG 1.1//EN" "http://www.w3.org/Graphics/SVG/1.1/DTD/svg11.dtd">
<svg version="1.1" id="_x35_0m" xmlns="http://www.w3.org/2000/svg" xmlns:xlink="http://www.w3.org/1999/xlink" x="0px" y="0px"
	 width="144px" height="144px" viewBox="0 0 144 144" enable-background="new 0 0 144 144" xml:space="preserve">
<g>
	<path fill="#010101" d="M41.391,22.428c4.896,0,8.85,0.729,12.18,2.288c3.33,1.558,5.938,3.544,8.014,6.036
		c1.984,2.502,3.436,5.315,4.379,8.538c0.828,3.224,1.354,6.455,1.354,9.785c0,4.585-0.73,8.538-2.189,11.975
		c-1.461,3.438-3.438,6.242-6.037,8.325c-2.607,2.19-5.725,3.748-9.473,4.896s-7.809,1.665-12.287,1.665H27.127v35.711H8.182v-89.22
		H41.391z M35.666,62.821c3.748,0,6.873-1.041,9.16-3.23c2.289-2.182,3.535-5.521,3.535-10.097c0-4.479-1.041-7.915-3.018-10.204
		c-1.977-2.287-5.512-3.642-10.203-3.642h-7.906v27.066h8.432V62.821z"/>
	<path fill="#010101" d="M109.893,22.428c4.789,0,8.957,0.729,12.18,2.288c3.33,1.558,5.938,3.544,8.021,6.036
		c1.977,2.502,3.438,5.315,4.371,8.538c0.936,3.224,1.354,6.455,1.354,9.785c0,4.585-0.729,8.538-2.189,11.975
		c-1.461,3.438-3.438,6.242-6.037,8.325c-2.6,2.19-5.725,3.748-9.473,4.896c-3.748,1.042-7.809,1.665-12.287,1.665H95.629v35.711
		H76.684v-89.22H109.893z M104.061,62.821c3.748,0,6.873-1.041,9.162-3.23c2.297-2.182,3.543-5.521,3.543-10.097
		c0-4.479-1.041-7.915-3.018-10.204c-1.977-2.287-5.414-3.642-10.203-3.642h-7.916v27.066h8.432V62.821z"/>
</g>
</svg>
