<?xml version="1.0" encoding="utf-8"?>
<!-- Generator: Adobe Illustrator 16.0.0, SVG Export Plug-In . SVG Version: 6.00 Build 0)  -->
<!DOCTYPE svg PUBLIC "-//W3C//DTD SVG 1.1//EN" "http://www.w3.org/Graphics/SVG/1.1/DTD/svg11.dtd">
<svg version="1.1" id="_x35_0m" xmlns="http://www.w3.org/2000/svg" xmlns:xlink="http://www.w3.org/1999/xlink" x="0px" y="0px"
	 width="144px" height="144px" viewBox="0 0 144 144" enable-background="new 0 0 144 144" xml:space="preserve">
<g>
	<path fill="#CACACA" d="M51.359,92.688c-1.807-0.302-3.111-1.505-4.615-2.309c-2.81-1.604-5.72-2.608-9.03-2.608
		c-6.924,0.101-13.947,0.101-20.871-0.401c-3.411-0.301-6.924-1.003-9.833-3.21C5.505,83.056,4,82.152,2.394,81.25
		c-2.408-1.506-2.909-2.81-1.906-5.519c0.201-0.603,0.402-1.004,1.104-1.205c3.01-0.802,5.919-1.906,9.03-2.207
		c0,0.401,0.101,0.702,0,1.104c-0.201,1.807,0.2,2.609,2.308,2.509c2.308-0.1,1.605-1.505,1.605-2.709
		c0-0.502-0.301-1.104-0.401-1.605c4.816-0.702,7.225-4.415,9.432-8.127c2.007-3.412,5.419-4.114,8.931-4.516
		c4.214-0.502,8.528-1.204,12.843-0.903c3.612,0.201,6.221-1.806,9.03-3.411c5.519-3.011,11.238-5.519,17.56-6.221
		c3.813-0.401,7.525-1.506,11.339-2.008c4.815-0.602,8.93,0.804,12.943,2.91c1.003,0.502,2.207,0.903,2.909,1.907
		c-1.706,0-3.311,0.1-5.017,0.1c-1.003,0-1.204,0.502-1.204,1.405c0,0.803-0.101,1.705,1.104,1.705c0.803,0,1.605,0,2.409,0
		c3.009,0,3.009,0,3.009-3.01c6.121,3.312,11.74,7.225,16.757,12.141c3.211,3.11,6.723,3.813,10.937,3.411
		c4.315-0.401,8.83-1.203,12.844,1.706c1.907,1.305,3.411,2.91,3.512,5.218c0.101,4.014,1.004,8.127,0.201,12.142
		c-1.004,5.117-4.114,8.628-10.234,8.729c-8.329,0-16.657,0.603-25.085,0.903c-6.724,0.201-13.546,0.603-20.269,0.803
		c-8.83,0.302-17.659,0.902-26.59,1.204c-4.113,0.101-7.023-2.509-9.934-5.017c1.506-0.101,3.011-0.101,4.516-0.101
		c0.803,0,1.305-0.302,1.204-1.104c0-0.702,0.301-1.706-0.603-1.807c-1.604-0.201-3.411-0.4-4.916,0.101
		C50.757,90.079,51.56,91.686,51.359,92.688z M61.694,78.541c-1.807,0-3.612,0.101-5.419,0c-1.203,0-1.906,0.2-1.806,1.705
		c0.101,1.305,0.101,2.308,1.806,2.308c3.612-0.101,7.225,0,10.938,0c1.605,0,1.705-0.902,1.705-2.106
		c0-1.305-0.301-1.906-1.705-1.806C65.407,78.642,63.601,78.541,61.694,78.541z M54.972,72.921c-1.706,0-3.512,0.101-5.218,0
		c-1.405-0.1-2.007,0.302-1.906,1.807c0,1.305,0.501,1.807,1.806,1.706c3.513-0.101,6.924-0.101,10.436,0
		c1.304,0,1.806-0.301,1.806-1.706c0-1.505-0.502-1.906-1.906-1.807C58.282,72.921,56.677,72.921,54.972,72.921z M79.755,84.261
		c-1.705,0-3.512,0.099-5.218,0c-1.404-0.101-1.705,0.601-1.705,1.806c0,1.203,0.301,1.705,1.605,1.705
		c3.512-0.101,6.923-0.101,10.435,0c1.305,0,1.505-0.603,1.605-1.705c0-1.306-0.301-1.906-1.706-1.806
		C83.066,84.359,81.36,84.261,79.755,84.261z M117.783,82.052c-1.806,0-3.611,0-5.418,0c-1.204,0-1.404,0.603-1.404,1.606
		c0,1.003-0.101,1.906,1.404,1.906c3.512-0.101,7.123-0.101,10.636,0c1.405,0,1.505-0.703,1.505-1.806
		c0-1.104-0.1-1.808-1.505-1.808C121.195,82.152,119.488,82.052,117.783,82.052z M87.782,60.179c1.404,0,2.81-0.101,4.113,0
		c1.606,0.1,1.907-0.603,1.907-2.007c0-1.305-0.301-2.007-1.807-1.906c-2.709,0.101-5.519,0.101-8.228,0
		c-1.505-0.101-1.807,0.602-1.807,1.906c0,1.404,0.302,2.207,1.906,2.007C85.174,60.078,86.478,60.179,87.782,60.179z
		 M58.282,56.666c-1.404,0-2.809,0.101-4.113,0c-1.605-0.1-1.906,0.603-1.906,2.008c0,1.304,0.301,2.007,1.806,1.906
		c2.709-0.101,5.519-0.101,8.228,0c1.505,0.101,1.807-0.603,1.807-1.906c0-1.405-0.302-2.208-1.907-2.008
		C60.891,56.767,59.587,56.666,58.282,56.666z M73.435,63.69c1.504,0,3.009,0,4.615,0c1.505,0.101,1.404-0.903,1.404-1.906
		c0-1.004,0.2-2.107-1.404-2.107c-3.011,0.101-6.121,0-9.132,0c-0.902,0-1.203,0.401-1.304,1.305c-0.201,1.806,0.2,2.91,2.408,2.608
		C71.126,63.49,72.229,63.69,73.435,63.69z M93.803,84.261c1.706,0,3.512,0,5.217,0c1.204,0,1.405-0.603,1.405-1.606
		c0-1.003,0.101-1.906-1.405-1.906c-3.411,0.101-6.822,0.101-10.233,0c-1.405,0-1.506,0.703-1.506,1.806
		c0,1.104,0.101,1.806,1.506,1.806C90.391,84.16,92.097,84.261,93.803,84.261z M40.623,82.955c1.404,0,2.709,0,4.114,0
		c1.505,0.101,1.806-0.803,1.806-2.006c0-1.306-0.401-1.906-1.806-1.906c-2.71,0-5.52,0.1-8.229,0c-1.505,0-1.806,0.802-1.806,2.106
		c0,1.304,0.401,1.906,1.806,1.906C37.913,82.855,39.218,82.955,40.623,82.955z M105.04,79.043c1.506,0,3.011,0,4.615,0
		c1.205,0,2.107-0.101,2.107-1.707c0-1.504-0.802-1.806-2.107-1.806c-3.01,0-6.12,0.101-9.13,0c-1.405,0-1.906,0.401-1.906,1.806
		c0,1.405,0.602,1.707,1.906,1.707C102.03,78.942,103.535,79.043,105.04,79.043z M130.928,72.019c1.203,0,2.509-0.101,3.712,0
		c1.606,0.1,2.208-0.302,2.208-2.007c0-1.605-0.602-2.007-2.007-1.906c-2.509,0.101-4.917,0.101-7.426,0
		c-1.504-0.101-2.006,0.401-2.006,1.906c0,1.705,0.602,2.207,2.207,2.007C128.62,71.918,129.723,72.019,130.928,72.019z
		 M47.245,65.897c1.405,0,2.91-0.1,4.314,0c1.305,0.101,2.007-0.1,2.007-1.706c0-1.504-0.602-1.906-1.906-1.806
		c-2.709,0.101-5.519,0.101-8.328,0c-1.404,0-2.107,0.101-2.107,1.806c0,1.606,0.803,1.807,2.007,1.706
		C44.637,65.897,45.94,65.897,47.245,65.897z M62.798,69.811c1.404,0,2.709-0.1,4.114,0c1.305,0.101,2.006-0.1,2.006-1.705
		c0-1.506-0.602-1.906-1.906-1.806c-2.81,0.1-5.619,0.1-8.528,0c-1.405,0-1.906,0.4-1.906,1.806c0,1.404,0.501,1.806,1.806,1.705
		C59.888,69.811,61.293,69.811,62.798,69.811z M109.153,69.811c-1.404,0-2.908,0.101-4.313,0c-1.305-0.1-1.807,0.402-1.807,1.706
		c0,1.305,0.302,1.807,1.706,1.807c2.81-0.101,5.619-0.101,8.529,0c1.404,0,2.106-0.201,2.106-1.906
		c0-1.606-0.803-1.706-2.106-1.706C111.863,69.911,110.459,69.811,109.153,69.811z M79.654,77.737c1.706,0,3.513,0,5.218,0
		c1.205,0,1.505-0.501,1.505-1.604c0-1.104-0.4-1.506-1.505-1.506c-3.512,0-6.923,0-10.435,0c-1.104,0-1.605,0.301-1.605,1.506
		c0,1.203,0.401,1.705,1.705,1.604C76.243,77.638,77.949,77.737,79.654,77.737z M70.223,92.588c1.807,0,3.612,0,5.419,0
		c1.104,0,1.605-0.401,1.505-1.505c0-1.104-0.302-1.606-1.505-1.606c-3.513,0-7.125,0-10.637,0c-1.204,0-1.404,0.603-1.404,1.606
		c0,1.203,0.502,1.505,1.605,1.505C66.812,92.588,68.517,92.588,70.223,92.588z M32.295,77.236c1.404,0,2.91-0.101,4.314,0
		c1.304,0.1,1.605-0.501,1.605-1.706c0-1.204-0.201-1.906-1.605-1.906c-2.709,0.101-5.519,0.101-8.228,0
		c-1.305,0-1.906,0.301-1.906,1.806c0,1.605,0.702,1.807,2.007,1.706C29.687,77.236,30.99,77.236,32.295,77.236z M85.174,72.42
		c1.504,0,3.01-0.101,4.615,0c1.405,0.101,1.506-0.703,1.506-1.807s-0.201-1.806-1.506-1.806c-2.81,0.101-5.72,0.101-8.529,0
		c-1.203,0-1.806,0.301-1.806,1.706c0,1.404,0.401,2.007,1.906,1.906C82.564,72.319,83.868,72.42,85.174,72.42z M95.81,63.69
		c-1.405,0-2.91,0.101-4.315,0c-1.203-0.101-1.705,0.401-1.604,1.605c0,1.204,0.2,1.906,1.604,1.906
		c2.709-0.101,5.519-0.101,8.229,0c1.305,0,2.006-0.201,2.006-1.806c0-1.505-0.701-1.807-2.006-1.807
		C98.519,63.791,97.214,63.69,95.81,63.69z M54.57,87.771c1.505,0,2.909-0.101,4.314,0c1.404,0.101,1.706-0.603,1.706-1.806
		c0-1.205-0.302-1.705-1.605-1.705c-2.91,0.099-5.819,0.099-8.729,0c-1.305,0-1.605,0.601-1.506,1.705
		c0,1.003,0.101,1.906,1.506,1.806C51.66,87.671,53.065,87.771,54.57,87.771z M129.523,78.541c1.404,0,2.708-0.101,4.113,0
		c1.304,0.101,1.806-0.401,1.806-1.707c0-1.304-0.301-1.806-1.705-1.806c-2.709,0.101-5.519,0.101-8.229,0
		c-1.203,0-1.905,0.201-1.905,1.606c0.1,1.304,0.501,1.906,1.806,1.906S128.118,78.541,129.523,78.541z M71.427,53.657
		c-1.505,0-3.011,0-4.615,0c-1.104,0-1.505,0.501-1.505,1.504c0,1.104,0.401,1.605,1.505,1.505c3.01-0.1,6.121,0,9.131,0
		c1.003,0,1.605-0.2,1.605-1.404s-0.401-1.705-1.605-1.705C74.537,53.657,72.933,53.657,71.427,53.657z M19.753,80.347
		c1.404,0,2.81-0.101,4.113,0c1.205,0.101,1.706-0.301,1.706-1.605c0-1.204-0.501-1.505-1.605-1.505c-2.81,0-5.519,0-8.328,0
		c-1.104,0-1.505,0.301-1.605,1.505c0,1.305,0.502,1.706,1.706,1.605C17.145,80.246,18.448,80.347,19.753,80.347z M26.274,71.517
		c0.903-0.2,2.308,0.602,3.011-0.501c0.502-0.803,0.602-2.408,0-2.91c-1.405-1.104-3.312-0.401-5.018-0.502
		c-0.602-0.101-1.204,0-1.305,0.803c0,0.101,0,0.301,0,0.401C22.563,71.316,22.863,71.517,26.274,71.517z M88.083,94.795
		c0.902-0.4,2.408,0.903,3.011-0.802c0.701-2.107-0.101-3.111-2.308-3.111c-0.903,0-1.907,0-2.81,0
		c-0.903,0-1.305,0.502-1.405,1.305C84.271,94.495,84.672,94.795,88.083,94.795z M34.001,61.984c-0.401,0-0.903,0-1.305,0
		c-1.305-0.101-2.407-0.101-2.308,1.807c0,1.806,1.104,1.705,2.208,1.705c1.103,0,2.207-0.1,3.21,0
		c1.305,0.101,1.605-0.602,1.506-1.705c0-1.004-0.101-1.907-1.506-1.807C35.306,61.984,34.603,61.984,34.001,61.984z
		 M103.636,92.187c0.802,0,1.605,0,2.408,0c1.104,0.1,1.304-0.501,1.404-1.505c0-1.004-0.201-1.706-1.404-1.605
		c-1.506,0.101-3.011,0.101-4.515,0c-1.205-0.101-1.506,0.501-1.506,1.605c0,1.104,0.401,1.604,1.506,1.505
		C102.23,92.086,102.934,92.187,103.636,92.187z M83.468,52.252c0.4,0,0.702,0,1.003,0c1.606,0.2,1.906-0.502,1.906-2.007
		c0-1.506-0.501-2.107-2.007-1.906c-0.502,0.101-1.003,0.101-1.504,0c-1.906-0.301-2.309,0.602-2.208,2.308
		C80.759,53.255,82.564,51.95,83.468,52.252z M109.856,64.995c0.502,0,0.702,0,1.004,0c1.203,0,2.308,0.2,2.308-1.605
		c0-1.907-0.903-2.007-2.308-1.907c-0.603,0-1.305,0-2.007,0c-1.706,0-2.608,1.305-1.807,2.81
		C107.749,65.697,109.055,64.693,109.856,64.995z M27.779,86.468c1.605,0,3.011,0.401,3.11-2.008c0-2.106-1.103-2.007-2.508-1.906
		c-1.305,0.101-2.91-0.603-2.91,1.906C25.472,86.468,26.375,86.668,27.779,86.468z M134.439,84.261
		c-1.003,0.099-2.608-0.603-2.608,1.806c0,2.106,1.304,1.806,2.509,1.705c1.203-0.101,2.908,0.803,2.908-1.705
		C137.248,83.858,135.944,84.261,134.439,84.261z M121.597,91.686c0.4,0,0.701,0,1.003,0c1.104,0.1,2.006,0,2.006-1.506
		c0-1.505-0.802-1.605-1.906-1.505c-0.902,0-1.705,0-2.608,0c-0.502,0-1.104,0.101-1.104,0.802c0,0.703-0.401,1.506,0.302,2.008
		C119.89,91.985,120.794,91.585,121.597,91.686z"/>
	<path fill="#B2AFA3" d="M99.521,51.449c0,3.01,0,3.01-3.011,3.01c-0.802,0-1.604,0-2.407,0c-1.204,0-1.104-0.902-1.104-1.705
		c0-0.804,0.2-1.405,1.203-1.405c1.707,0,3.312,0,5.018-0.1C99.221,51.449,99.421,51.449,99.521,51.449z"/>
	<path fill="#B2AFA3" d="M51.359,92.688c0.301-1.003-0.603-2.609,0.602-2.91c1.505-0.4,3.312-0.302,4.917-0.101
		c1.004,0.101,0.602,1.204,0.602,1.807c0.101,0.802-0.501,1.104-1.204,1.104c-1.505,0-3.01,0.101-4.515,0.101
		C51.56,92.688,51.46,92.688,51.359,92.688z"/>
	<path fill="#B2AFA3" d="M14.234,71.617c0.101,0.602,0.401,1.104,0.401,1.605c0,1.104,0.602,2.609-1.605,2.709
		c-2.107,0.101-2.509-0.803-2.308-2.509c0-0.401,0-0.702,0-1.104C11.726,71.918,12.93,71.617,14.234,71.617z"/>
	<path fill="#B2AFA3" d="M61.694,78.541c1.806,0,3.612,0.101,5.418,0c1.404-0.101,1.706,0.602,1.706,1.806s-0.201,2.106-1.706,2.106
		c-3.612,0-7.324-0.1-10.937,0c-1.706,0-1.706-1.002-1.807-2.308c-0.1-1.404,0.603-1.705,1.807-1.705
		C58.082,78.642,59.888,78.541,61.694,78.541z"/>
	<path fill="#B2AFA3" d="M54.972,72.921c1.705,0,3.311,0.101,5.017,0c1.404-0.1,1.906,0.402,1.906,1.807
		c0,1.405-0.602,1.706-1.806,1.706c-3.512-0.101-6.923-0.101-10.436,0c-1.305,0-1.806-0.401-1.806-1.706
		c0-1.505,0.602-1.906,1.906-1.807C51.46,72.921,53.266,72.921,54.972,72.921z"/>
	<path fill="#B2AFA3" d="M79.755,84.261c1.706,0,3.312,0.099,5.017,0c1.405-0.101,1.706,0.601,1.706,1.806
		c0,1.103-0.201,1.806-1.605,1.705c-3.512-0.101-6.923-0.101-10.435,0c-1.305,0-1.605-0.502-1.605-1.705
		c0-1.205,0.201-1.906,1.705-1.806C76.243,84.359,77.949,84.261,79.755,84.261z"/>
	<path fill="#B2AFA3" d="M117.783,82.052c1.705,0,3.512,0.101,5.218,0c1.405-0.101,1.505,0.703,1.505,1.807s-0.2,1.807-1.505,1.807
		c-3.513-0.101-7.124-0.101-10.636,0c-1.505,0-1.404-0.904-1.404-1.906c0-1.004,0.2-1.707,1.404-1.606
		C114.172,82.152,115.978,82.052,117.783,82.052z"/>
	<path fill="#B2AFA3" d="M87.782,60.179c-1.305,0-2.608-0.101-3.914,0c-1.604,0.1-1.906-0.603-1.906-2.007
		c0-1.305,0.302-2.007,1.807-1.906c2.709,0.101,5.519,0.101,8.228,0c1.506-0.101,1.807,0.602,1.807,1.906
		c0,1.404-0.301,2.207-1.907,2.007C90.592,60.078,89.187,60.179,87.782,60.179z"/>
	<path fill="#B2AFA3" d="M58.282,56.666c1.305,0,2.608,0.101,3.913,0c1.605-0.1,1.907,0.603,1.907,2.008
		c0,1.304-0.302,2.007-1.807,1.906c-2.709-0.101-5.519-0.101-8.228,0c-1.505,0.101-1.806-0.603-1.806-1.906
		c0-1.405,0.301-2.208,1.906-2.008C55.474,56.767,56.878,56.666,58.282,56.666z"/>
	<path fill="#B2AFA3" d="M73.435,63.69c-1.205,0-2.309-0.101-3.513,0c-2.207,0.302-2.609-0.803-2.408-2.608
		c0.101-0.903,0.401-1.305,1.305-1.305c3.01,0,6.12,0.101,9.131,0c1.605,0,1.404,1.104,1.404,2.106c0,1.004,0.101,1.907-1.404,1.907
		C76.443,63.59,74.938,63.69,73.435,63.69z"/>
	<path fill="#B2AFA3" d="M93.803,84.261c-1.706,0-3.312-0.101-5.017,0c-1.405,0.099-1.506-0.703-1.506-1.808
		c0-1.103,0.101-1.806,1.506-1.806c3.411,0.101,6.822,0.101,10.233,0c1.506,0,1.405,0.903,1.405,1.906
		c0,1.004-0.101,1.707-1.405,1.606C97.214,84.261,95.509,84.261,93.803,84.261z"/>
	<path fill="#B2AFA3" d="M40.623,82.955c-1.405,0-2.71,0-4.113,0c-1.305,0-1.807-0.602-1.807-1.906s0.301-2.106,1.807-2.106
		c2.708,0.101,5.518,0,8.228,0c1.304,0,1.806,0.602,1.806,1.906c0,1.304-0.301,2.106-1.806,2.007
		C43.433,82.855,42.027,82.955,40.623,82.955z"/>
	<path fill="#B2AFA3" d="M105.04,79.043c-1.505,0-3.01-0.101-4.615,0c-1.204,0.1-1.906-0.201-1.906-1.707
		c0-1.504,0.501-1.906,1.906-1.806c3.011,0.101,6.121,0.101,9.131,0c1.305,0,2.107,0.201,2.107,1.806
		c0,1.606-0.903,1.807-2.107,1.707C108.151,78.942,106.546,79.043,105.04,79.043z"/>
	<path fill="#B2AFA3" d="M130.928,72.019c-1.205,0-2.308-0.101-3.513,0c-1.604,0.1-2.207-0.302-2.207-2.007
		c0-1.605,0.603-2.007,2.007-1.906c2.508,0.101,4.916,0.101,7.425,0c1.506-0.101,2.008,0.401,2.008,1.906
		c0,1.705-0.603,2.207-2.208,2.007C133.437,71.918,132.131,72.019,130.928,72.019z"/>
	<path fill="#B2AFA3" d="M47.245,65.897c-1.305,0-2.608,0-3.913,0c-1.204,0.101-2.007-0.1-2.007-1.706
		c0-1.705,0.803-1.906,2.107-1.806c2.709,0.101,5.519,0.101,8.328,0c1.405,0,1.906,0.302,1.906,1.806
		c0,1.606-0.702,1.807-2.007,1.706C50.155,65.798,48.65,65.897,47.245,65.897z"/>
	<path fill="#B2AFA3" d="M62.798,69.811c-1.405,0-2.91-0.1-4.314,0c-1.305,0.101-1.807-0.401-1.807-1.705
		c0-1.506,0.502-1.906,1.906-1.806c2.81,0.1,5.619,0.1,8.529,0c1.404,0,1.906,0.4,1.906,1.806c0,1.605-0.802,1.806-2.007,1.705
		C65.507,69.811,64.103,69.811,62.798,69.811z"/>
	<path fill="#B2AFA3" d="M109.153,69.811c1.405,0,2.71,0,4.115,0c1.203,0,2.006,0,2.106,1.706c0,1.706-0.702,1.906-2.106,1.906
		c-2.81-0.1-5.619-0.1-8.529,0c-1.404,0-1.706-0.502-1.706-1.806c0-1.305,0.402-1.807,1.807-1.706
		C106.245,69.911,107.649,69.811,109.153,69.811z"/>
	<path fill="#B2AFA3" d="M79.654,77.737c-1.705,0-3.512-0.1-5.217,0c-1.204,0.101-1.706-0.401-1.706-1.604
		c0-1.205,0.502-1.506,1.605-1.506c3.512,0,6.923,0,10.435,0c1.104,0,1.505,0.401,1.505,1.506c0,1.104-0.3,1.604-1.505,1.604
		C83.167,77.638,81.461,77.737,79.654,77.737z"/>
	<path fill="#B2AFA3" d="M70.223,92.588c-1.706,0-3.311,0-5.017,0c-1.104,0-1.605-0.302-1.605-1.505c0-1.004,0.2-1.606,1.404-1.606
		c3.512,0,7.124,0,10.637,0c1.203,0,1.505,0.502,1.505,1.606c0,1.104-0.401,1.505-1.505,1.505
		C73.835,92.588,72.029,92.588,70.223,92.588z"/>
	<path fill="#B2AFA3" d="M32.295,77.236c-1.305,0-2.608-0.101-3.913,0c-1.305,0.1-2.007-0.201-2.007-1.706s0.603-1.806,1.906-1.806
		c2.709,0.101,5.519,0.101,8.229,0c1.404,0,1.604,0.702,1.604,1.906c0,1.203-0.301,1.705-1.604,1.705
		C35.205,77.236,33.699,77.236,32.295,77.236z"/>
	<path fill="#B2AFA3" d="M85.174,72.42c-1.306,0-2.609-0.101-3.914,0c-1.404,0.101-1.906-0.401-1.906-1.906
		c0-1.405,0.603-1.706,1.807-1.706c2.809,0.101,5.719,0.101,8.528,0c1.305,0,1.506,0.602,1.506,1.806
		c0,1.104-0.101,1.807-1.506,1.807C88.184,72.42,86.678,72.42,85.174,72.42z"/>
	<path fill="#B2AFA3" d="M95.81,63.69c1.304,0,2.608,0.101,3.913,0s2.006,0.201,2.006,1.806c0,1.505-0.701,1.807-2.006,1.807
		c-2.71-0.101-5.52-0.101-8.229,0c-1.505,0-1.604-0.703-1.604-1.906c0-1.205,0.401-1.706,1.604-1.605
		C93,63.791,94.404,63.69,95.81,63.69z"/>
	<path fill="#B2AFA3" d="M54.57,87.771c-1.505,0-2.91-0.101-4.314,0c-1.405,0.101-1.506-0.803-1.506-1.806
		c0-1.104,0.201-1.806,1.506-1.705c2.91,0.099,5.819,0.099,8.729,0c1.304,0,1.605,0.5,1.605,1.705c0,1.203-0.201,1.906-1.706,1.806
		C57.479,87.671,55.975,87.771,54.57,87.771z"/>
	<path fill="#B2AFA3" d="M129.523,78.541c-1.405,0-2.709,0-4.114,0c-1.305,0-1.706-0.603-1.806-1.906
		c-0.101-1.506,0.702-1.707,1.905-1.606c2.71,0.101,5.52,0.101,8.229,0c1.404,0,1.705,0.502,1.705,1.806
		c0,1.405-0.502,1.808-1.806,1.707C132.231,78.541,130.928,78.541,129.523,78.541z"/>
	<path fill="#B2AFA3" d="M71.427,53.657c1.506,0,3.011,0.1,4.616,0c1.204-0.101,1.605,0.4,1.605,1.705
		c0,1.204-0.603,1.404-1.605,1.404c-3.01,0-6.121,0-9.131,0c-1.104,0-1.505-0.4-1.505-1.505c0-1.104,0.401-1.604,1.505-1.505
		C68.416,53.657,69.922,53.657,71.427,53.657z"/>
	<path fill="#B2AFA3" d="M19.753,80.347c-1.305,0-2.608-0.101-3.913,0c-1.204,0.101-1.706-0.301-1.706-1.605
		c0-1.104,0.502-1.505,1.605-1.505c2.81,0,5.519,0,8.328,0c1.104,0,1.505,0.301,1.605,1.505c0,1.305-0.502,1.706-1.706,1.605
		C22.563,80.246,21.157,80.347,19.753,80.347z"/>
	<path fill="#B2AFA3" d="M26.274,71.517c-3.411,0-3.612-0.2-3.312-2.709c0-0.101,0-0.301,0-0.401
		c0.101-0.803,0.703-0.803,1.305-0.803c1.706,0.101,3.612-0.603,5.018,0.502c0.602,0.502,0.502,2.107,0,2.91
		C28.582,72.118,27.178,71.316,26.274,71.517z"/>
	<path fill="#B2AFA3" d="M88.083,94.795c-3.512,0-3.813-0.3-3.411-2.608c0.1-0.902,0.502-1.305,1.405-1.305c0.902,0,1.906,0,2.809,0
		c2.208,0,3.01,1.004,2.309,3.111C90.592,95.598,88.985,94.294,88.083,94.795z"/>
	<path fill="#B2AFA3" d="M34.001,61.984c0.602,0,1.305,0,2.007,0c1.404-0.101,1.404,0.803,1.505,1.807
		c0,1.104-0.2,1.806-1.505,1.705c-1.104-0.1-2.208,0-3.211,0c-1.204,0-2.208,0.101-2.208-1.705c0-1.907,1.104-1.907,2.308-1.807
		C33.098,61.984,33.499,61.984,34.001,61.984z"/>
	<path fill="#B2AFA3" d="M103.636,92.187c-0.702,0-1.405,0-2.207,0c-1.104,0.1-1.506-0.401-1.506-1.505
		c0-1.104,0.301-1.605,1.506-1.605c1.505,0.101,3.009,0.101,4.515,0c1.204,0,1.404,0.602,1.404,1.605s-0.301,1.505-1.404,1.505
		C105.241,92.086,104.438,92.187,103.636,92.187z"/>
	<path fill="#B2AFA3" d="M83.468,52.252c-0.903-0.401-2.709,0.903-2.81-1.605c0-1.706,0.401-2.608,2.208-2.308
		c0.501,0.101,1.002,0.101,1.504,0c1.506-0.201,2.007,0.4,2.007,1.906c0,1.404-0.4,2.207-1.906,2.007
		C84.17,52.252,83.969,52.252,83.468,52.252z"/>
	<path fill="#B2AFA3" d="M109.856,64.995c-0.802-0.302-2.107,0.702-2.709-0.703c-0.702-1.604,0.1-2.81,1.807-2.81
		c0.602,0,1.304,0,2.007,0c1.404-0.1,2.308,0,2.308,1.907c0,1.906-1.104,1.605-2.308,1.605
		C110.559,64.995,110.258,64.995,109.856,64.995z"/>
	<path fill="#B2AFA3" d="M27.779,86.468c-1.304,0.2-2.207,0-2.308-2.008c-0.101-2.509,1.605-1.906,2.91-1.906
		c1.305-0.101,2.508-0.2,2.508,1.906C30.79,86.769,29.285,86.468,27.779,86.468z"/>
	<path fill="#B2AFA3" d="M134.439,84.261c1.505,0,2.809-0.402,2.809,1.806c0,2.508-1.705,1.604-2.908,1.705
		c-1.205,0.101-2.408,0.401-2.509-1.705C131.831,83.658,133.437,84.359,134.439,84.261z"/>
	<path fill="#B2AFA3" d="M121.597,91.686c-0.703-0.101-1.707,0.3-2.408-0.302c-0.703-0.502-0.301-1.305-0.301-2.006
		c0-0.603,0.601-0.804,1.103-0.804c0.903,0,1.707,0,2.609,0c1.104-0.1,1.906,0,1.906,1.505c0,1.506-0.902,1.606-2.007,1.506
		C122.298,91.686,121.997,91.686,121.597,91.686z"/>
</g>
</svg>
