<?xml version="1.0" encoding="utf-8"?>
<!-- Generator: Adobe Illustrator 16.0.0, SVG Export Plug-In . SVG Version: 6.00 Build 0)  -->
<!DOCTYPE svg PUBLIC "-//W3C//DTD SVG 1.1//EN" "http://www.w3.org/Graphics/SVG/1.1/DTD/svg11.dtd">
<svg version="1.1" id="_x35_0m" xmlns="http://www.w3.org/2000/svg" xmlns:xlink="http://www.w3.org/1999/xlink" x="0px" y="0px"
	 width="144px" height="144px" viewBox="0 0 144 144" enable-background="new 0 0 144 144" xml:space="preserve">
<g>
	<path fill="#010101" d="M72.45,24.8l-1.3-0.3l-20.2,103.2l2.6,0.5l1.5-7.5l7.6,14.199l-0.7,8.9l2.7,0.2l0.6-7.899l16.2-15.9
		l2.1,19.3l2.7-0.3L73.75,24.6L72.45,24.8z M68.45,95.3l9.3-10.1l3.1,28.199L68.05,99.5L68.45,95.3z M68.75,90.8L68.75,90.8l0.1-0.1
		l-0.1-0.101l1.6-21.399l6.1,5.3l0.8,7L68.75,90.8z M70.65,65.8l2-26.399l3.4,31.1L70.65,65.8z M67.45,72.199l-2.8-0.999l4.6-23.7
		L67.45,72.199z M67.25,74.999L66.25,88l-4-4.101l1.9-9.999L67.25,74.999z M65.95,91.5l-1,13.399l-8.1,6.601l4.8-24.399L65.95,91.5z
		 M67.85,103.1L80.75,117.2L65.65,132.1L67.85,103.1z M55.85,116.6l0.2-1.199l8.6-7l-1.6,21.5L55.85,116.6z"/>
	<polygon fill="#010101" points="38.55,13.1 64.55,22.899 65.55,20.4 47.75,13.7 56.35,11.7 31.75,2.5 30.75,5 47.05,11.1 	"/>
	<polygon fill="#010101" points="64.25,31.3 63.25,28.8 45.65,35.899 50.65,28.6 26.25,38.4 27.25,40.9 43.45,34.4 38.45,41.7 	"/>
	<polygon fill="#010101" points="100.45,33.9 108.15,29.8 80.45,27 80.25,29.7 99.05,31.6 91.351,35.7 117.45,38.3 117.75,35.6 	"/>
	<polygon fill="#010101" points="95.35,9.7 92.45,17.9 113.45,2.2 111.851,0 97.95,10.5 100.85,2.2 78.55,18.9 80.25,21 	"/>
</g>
</svg>
