<?xml version="1.0" encoding="utf-8"?>
<!-- Generator: Adobe Illustrator 16.0.0, SVG Export Plug-In . SVG Version: 6.00 Build 0)  -->
<!DOCTYPE svg PUBLIC "-//W3C//DTD SVG 1.1//EN" "http://www.w3.org/Graphics/SVG/1.1/DTD/svg11.dtd">
<svg version="1.1" id="_x35_0m" xmlns="http://www.w3.org/2000/svg" xmlns:xlink="http://www.w3.org/1999/xlink" x="0px" y="0px"
	 width="144px" height="144px" viewBox="0 0 144 144" enable-background="new 0 0 144 144" xml:space="preserve">
<path fill="#FFFFFF" d="M95.999,49.15l-8.952-27.649h-30.71L47.044,49.15C71.635,56.517,95.999,49.15,95.999,49.15z"/>
<path fill="#FFFFFF" d="M71.748,116.689c0,0,42.609,0.566,38.189-20.284l-7.366-20.965c-33.656,10.993-62.666,0-62.666,0
	l-6.573,19.945C33.333,95.386,22.454,116.236,71.748,116.689z"/>
<path fill="#010101" d="M102.571,75.44l-6.572-26.29c0,0-24.364,7.366-48.955,0l-7.139,26.29
	C39.905,75.44,68.916,86.434,102.571,75.44z"/>
<path fill="#010101" d="M71.975,0.083c0,0-14.278-2.606-15.638,21.418h30.71C87.047,21.501,86.48,0.196,71.975,0.083z"/>
<path fill="#010101" d="M143.253,136.635L121.95,96.632l-12.012-0.227c4.42,20.851-38.189,20.284-38.189,20.284
	c-49.294-0.453-38.416-21.304-38.416-21.304H20.188L0.696,137.428C-1.23,143.434,3.416,144,3.416,144h136.778
	C145.634,140.714,143.253,136.635,143.253,136.635z"/>
</svg>
