<?xml version="1.0" encoding="utf-8"?>
<!-- Generator: Adobe Illustrator 16.0.0, SVG Export Plug-In . SVG Version: 6.00 Build 0)  -->
<!DOCTYPE svg PUBLIC "-//W3C//DTD SVG 1.1//EN" "http://www.w3.org/Graphics/SVG/1.1/DTD/svg11.dtd">
<svg version="1.1" id="_x35_0m" xmlns="http://www.w3.org/2000/svg" xmlns:xlink="http://www.w3.org/1999/xlink" x="0px" y="0px"
	 width="144px" height="144px" viewBox="0 0 144 144" enable-background="new 0 0 144 144" xml:space="preserve">
<g>
	<circle fill="#3E94D1" cx="72.22" cy="72" r="68.102"/>
	<path fill="#010101" d="M72.22,144c-9.699,0-19.2-1.898-28-5.699c-8.6-3.6-16.3-8.801-22.899-15.4
		c-6.601-6.6-11.801-14.299-15.4-22.901c-3.8-8.799-5.7-18.299-5.7-28c0-9.699,1.9-19.199,5.7-28c3.6-8.599,8.8-16.3,15.4-22.899
		c6.6-6.6,14.3-11.801,22.899-15.4C53.12,1.898,62.521,0,72.22,0c9.7,0,19.2,1.898,28,5.699c8.6,3.6,16.3,8.801,22.9,15.4
		c6.6,6.6,11.8,14.301,15.399,22.899c3.801,8.9,5.7,18.301,5.7,28c0,9.701-1.899,19.201-5.7,28c-3.6,8.603-8.8,16.302-15.399,22.901
		c-6.601,6.6-14.301,11.801-22.9,15.4C91.42,142.102,81.92,144,72.22,144z M72.22,10.299c-16.5,0-32,6.4-43.7,18.102
		c-11.699,11.7-17.999,27.101-17.999,43.599c0,16.502,6.399,32.002,18.1,43.702c11.699,11.699,27.199,18.1,43.7,18.1
		c16.5,0,31.999-6.4,43.699-18.1c11.7-11.7,18.101-27.2,18.101-43.601s-6.4-32-18.101-43.7
		C104.319,16.699,88.72,10.299,72.22,10.299z"/>
	<path fill="#010101" d="M106.42,48.7c-0.7-0.699-1.399-1.699-4.101-3.301c-0.3-0.6-1.1-1.6-1.499-2
		c-1.9-1.498-5.601-4.199-6.001-4.5c-0.399-0.299-1.899,1.201-1.399,1.602c0.5,0.398,4.899,3.799,5.399,4.1
		c0.501,0.4,1.101,1.199,1.3,1.699c-0.1,0.801-0.1,1.701-0.1,2.201c0.1,0.5-0.4,0.699-0.899,1.799c-0.5,1.1-0.7,2.801-0.7,4
		c0,3.801,1.4,6.701,1.9,7c0.199,0.1,0.5,0.201,0.899,0.201c-0.7,6-0.2,12.299,1.2,18.1c1.2,5.1,1.1,9.199-0.5,11.199
		c-0.7,1-1.801,1.5-3.3,1.6c-1.301,0.1-2.301-0.299-3.2-1.299c-2.1-2.301-2.801-7.4-1.9-13.301c1-6.6,0.2-11.799-2.6-14.9
		c-1.2-1.398-2.601-2.299-4.3-2.898v-0.5V38.3c0-4.8-4.8-8.601-10.7-8.601h-20c-5.9,0-10.7,3.9-10.7,8.601v21.301v40.398v9.603h41.5
		v-9.603v-36.1c0.7,0.301,1.2,0.801,1.7,1.4c2,2.301,2.601,6.699,1.8,12.199c-1.1,7-0.1,13.102,2.8,16.201
		c1.4,1.6,3.301,2.4,5.501,2.4c0.199,0,0.299,0,0.499,0c2.5-0.1,4.601-1.201,5.9-3c2.9-3.9,1.9-10.502,1-14.102
		c-1.3-5.6-1.9-11.299-1.101-16.898c0.701,0,1.101-0.1,1.301-0.5c0.1-0.4,0.7-4.301,0.8-4.6c0.1-0.301,1.4-1.102,1.6-2.602
		C108.52,53.101,107.119,49.3,106.42,48.7z M80.42,59.7h-28.9V38.899c0-2.1,2-3.8,4.4-3.8h20.1c2.4,0,4.4,1.7,4.4,3.8V59.7
		L80.42,59.7z"/>
</g>
</svg>
