<?xml version="1.0" encoding="utf-8"?>
<!-- Generator: Adobe Illustrator 16.0.0, SVG Export Plug-In . SVG Version: 6.00 Build 0)  -->
<!DOCTYPE svg PUBLIC "-//W3C//DTD SVG 1.1//EN" "http://www.w3.org/Graphics/SVG/1.1/DTD/svg11.dtd">
<svg version="1.1" id="_x35_0m" xmlns="http://www.w3.org/2000/svg" xmlns:xlink="http://www.w3.org/1999/xlink" x="0px" y="0px"
	 width="144px" height="144px" viewBox="0 0 144 144" enable-background="new 0 0 144 144" xml:space="preserve">
<g>
	<circle fill="#4B9DD6" cx="72.102" cy="72" r="68.056"/>
	<path fill="#010101" d="M138.439,43.989c-3.641-8.596-8.799-16.28-15.371-22.854c-6.574-6.573-14.359-11.831-22.955-15.472
		C91.215,1.922,81.811,0,72.102,0C62.395,0,52.988,1.922,44.09,5.663c-8.596,3.641-16.281,8.798-22.854,15.371
		C14.563,27.709,9.404,35.394,5.764,43.989c-3.74,8.898-5.662,18.304-5.662,28.012c0,9.707,1.922,19.111,5.662,28.011
		c3.641,8.596,8.799,16.281,15.371,22.854c6.574,6.572,14.26,11.831,22.854,15.472C52.889,142.079,62.293,144,72,144
		c9.709,0,19.113-1.921,28.012-5.662c8.596-3.641,16.281-8.798,22.854-15.372c6.574-6.572,11.832-14.358,15.371-22.854
		c3.742-8.898,5.662-18.303,5.662-28.011S142.18,52.888,138.439,43.989z M121.35,34.787l-9.203,9.202
		c-0.404-0.202-0.809-0.506-1.314-0.81c-0.305-0.707-1.213-1.921-1.82-2.325c-0.102-0.102-0.303-0.202-0.404-0.304l9.605-9.606
		C119.326,32.259,120.338,33.473,121.35,34.787z M108.607,62.091c0.203,0.202,0.605,0.202,1.012,0.304
		c-0.809,7.078-0.305,14.358,1.416,21.234c1.414,5.968,1.213,10.821-0.508,13.248c-0.908,1.214-2.123,1.82-3.943,1.921
		c-1.516,0.102-2.729-0.404-3.74-1.517c-2.428-2.73-3.338-8.798-2.227-15.674c0.912-6.067,0.508-11.022-1.213-14.663l7.787-7.787
		C107.596,60.775,108.303,61.888,108.607,62.091z M92.428,60.675v-0.607V56.73l14.258-14.258c0.506,0.404,1.314,1.415,1.518,1.921
		c-0.203,0.91-0.102,2.022-0.102,2.629c0.102,0.607-0.404,0.81-0.91,1.922l-12.641,12.64C93.844,61.18,93.135,60.877,92.428,60.675z
		 M51.068,60.067V35.596c0-2.427,2.326-4.449,5.156-4.449h23.563c2.832,0,5.156,2.022,5.156,4.449v1.314L61.988,60.067H51.068z
		 M85.045,47.022v7.079l-5.965,5.966H72L85.045,47.022z M113.158,25.989l-10.314,10.314c-0.404-0.304-0.811-0.506-0.91-0.606
		c-0.404-0.304-2.225,1.415-1.619,1.922c0.102,0.101,0.303,0.303,0.709,0.505l-8.596,8.595v-7.078l16.887-16.887
		C110.629,23.765,111.943,24.877,113.158,25.989z M18.809,103.247c-5.461-9.404-8.393-20.123-8.393-31.246
		c0-16.483,6.371-31.955,18.102-43.687c11.629-11.629,27.102-17.999,43.584-17.999c11.123,0,21.844,2.932,31.246,8.494
		L91.314,30.742c-2.021-3.54-6.371-5.967-11.426-5.967H56.326c-6.877,0-12.539,4.551-12.539,10.112v25.079v18.304L18.809,103.247z
		 M22.854,109.214l20.934-20.933v7.079L26.09,113.057C24.979,111.844,23.865,110.529,22.854,109.214z M31.045,118.112l12.742-12.64
		v2.022v4.955l-8.799,8.798C33.574,120.236,32.359,119.226,31.045,118.112z M115.787,115.686
		c-11.629,11.63-27.102,18.102-43.686,18.102c-11.123,0-21.842-2.933-31.248-8.494l6.473-6.472h45.102v-11.326V73.719l3.742-3.741
		c0.908,2.832,1.01,6.573,0.303,10.922c-1.314,8.191-0.102,15.37,3.236,19.011c1.719,1.922,3.943,2.832,6.371,2.832
		c0.201,0,0.404,0,0.605,0c2.934-0.202,5.359-1.416,6.979-3.539c3.438-4.651,2.225-12.337,1.213-16.585
		c-1.619-6.472-2.225-13.247-1.314-19.921c0.809,0,1.314-0.202,1.518-0.606c0.201-0.405,0.809-5.057,0.91-5.462
		c0.1-0.403,1.617-1.213,1.92-3.032c0.102-0.81-0.404-2.832-1.111-4.35l8.494-8.494c5.461,9.404,8.494,20.022,8.494,31.248
		C133.787,88.483,127.416,103.956,115.787,115.686z"/>
</g>
</svg>
