<?xml version="1.0" encoding="utf-8"?>
<!-- Generator: Adobe Illustrator 16.0.0, SVG Export Plug-In . SVG Version: 6.00 Build 0)  -->
<!DOCTYPE svg PUBLIC "-//W3C//DTD SVG 1.1//EN" "http://www.w3.org/Graphics/SVG/1.1/DTD/svg11.dtd">
<svg version="1.1" id="_x35_0m" xmlns="http://www.w3.org/2000/svg" xmlns:xlink="http://www.w3.org/1999/xlink" x="0px" y="0px"
	 width="144px" height="144px" viewBox="0 0 144 144" enable-background="new 0 0 144 144" xml:space="preserve">
<g>
	<path fill="#010101" d="M42.604,22.372c7.478,0,13.295,1.869,17.45,5.713c4.154,3.844,6.232,9.557,6.232,17.242
		c0,6.025-1.246,10.908-3.636,14.646c-2.389,3.739-6.129,6.233-11.218,7.271v0.207c4.466,0.624,7.79,2.078,9.867,4.362
		c2.078,2.287,3.324,5.817,3.844,10.804c0.208,1.663,0.312,3.429,0.415,5.401c0.104,1.975,0.208,4.155,0.208,6.545
		c0.208,4.778,0.415,8.31,0.727,10.803c0.521,2.492,1.559,4.154,3.221,5.09v0.727H50.291c-0.936-1.246-1.455-2.7-1.766-4.259
		c-0.313-1.558-0.416-3.323-0.52-5.089L47.486,84.8c-0.208-3.531-1.039-6.231-2.598-8.206c-1.558-1.973-4.258-3.013-7.997-3.013
		h-9.558v37.603H9.364V22.372H42.604z M34.813,61.221c4.362,0,7.687-1.039,9.972-3.013c2.285-2.077,3.531-5.505,3.531-10.283
		c0-8.205-4.154-12.361-12.464-12.361h-8.519v25.657H34.813z"/>
	<path fill="#010101" d="M110.122,22.372c4.57,0,8.413,0.728,11.53,2.285c3.116,1.559,5.608,3.531,7.582,6.024
		c1.974,2.492,3.324,5.298,4.156,8.518c0.83,3.22,1.245,6.44,1.245,9.764c0,4.571-0.727,8.519-2.077,11.946
		c-1.351,3.427-3.324,6.232-5.713,8.311c-2.493,2.18-5.402,3.738-8.933,4.882c-3.532,1.142-7.375,1.66-11.634,1.66h-9.558v35.525
		h-17.97V22.372H110.122z M104.617,62.571c3.531,0,6.439-1.039,8.621-3.221c2.182-2.181,3.323-5.504,3.323-10.076
		c0-4.466-0.935-7.894-2.908-10.179c-1.87-2.285-5.089-3.532-9.557-3.532h-7.478v27.008H104.617z"/>
</g>
</svg>
