<?xml version="1.0" encoding="utf-8"?>
<!-- Generator: Adobe Illustrator 16.0.0, SVG Export Plug-In . SVG Version: 6.00 Build 0)  -->
<!DOCTYPE svg PUBLIC "-//W3C//DTD SVG 1.1//EN" "http://www.w3.org/Graphics/SVG/1.1/DTD/svg11.dtd">
<svg version="1.1" id="_x35_0m" xmlns="http://www.w3.org/2000/svg" xmlns:xlink="http://www.w3.org/1999/xlink" x="0px" y="0px"
	 width="144px" height="144px" viewBox="0 0 144 144" enable-background="new 0 0 144 144" xml:space="preserve">
<g>
	<path fill="#FFFFFF" d="M144,71.999c0,39.766-32.236,72-71.998,72c-39.766,0-72.002-32.234-72.002-72
		C0,32.235,32.236,0.001,72.002,0.001C111.764,0.001,144,32.235,144,71.999z"/>
	<path fill="#ED2024" d="M71.898,144C32.102,144,0,111.775,0,71.747C0,32.022,32.406,0,72.506,0C112,0,144,32.428,144,72.557
		C143.9,111.876,111.596,144,71.898,144z M92.658,58.877c-0.607,0.304-1.012,0.811-1.316,1.317
		c-1.012,0.709-1.822,1.521-2.531,2.533c-0.203,0.202-0.506,0.305-0.709,0.508C77.873,73.57,67.646,83.907,57.418,94.243
		c-3.848,3.953-7.695,7.904-11.545,11.959c-0.809,0.404-1.316,1.114-1.822,1.823c-3.342,3.344-6.582,6.688-10.025,9.931
		c-1.215,1.115-0.91,1.621,0.203,2.433c15.697,11.857,33.215,15.809,52.254,11.248c32.91-7.905,52.961-40.737,45.365-73.672
		c-2.125-9.02-6.074-17.127-11.949-24.321c-0.404-0.607-0.809-1.823-2.025-0.607c-3.543,3.75-7.291,7.397-10.936,11.146
		c-1.012,0.71-1.822,1.621-2.531,2.534c-3.141,3.142-6.178,6.282-9.316,9.425C94.381,57.053,93.469,57.965,92.658,58.877z
		 M88.912,47.122c1.012-0.709,1.822-1.521,2.531-2.534c0.404-0.405,0.912-0.911,1.316-1.317c2.836-2.837,5.57-5.675,8.406-8.512
		c2.936-2.938,5.771-5.878,8.809-8.715c1.217-1.115,0.811-1.621-0.201-2.433C94.887,12.262,78.279,8.106,59.949,11.755
		C24.102,18.85,2.633,55.33,13.367,90.291c2.33,7.398,5.873,14.086,10.734,20.065c0.404,0.507,0.709,1.723,1.822,0.608
		c3.949-4.155,7.9-8.107,11.949-12.263c0.711-0.506,1.418-1.013,1.824-1.824c6.277-6.385,12.658-12.667,19.037-19.052
		c4.861-4.965,9.723-9.931,14.582-14.896c1.014-0.709,1.824-1.621,2.531-2.532c0.406-0.406,0.912-0.812,1.316-1.317
		c0.811-0.912,1.723-1.825,2.533-2.736C82.938,53.507,85.975,50.364,88.912,47.122z"/>
	<path fill="#010101" d="M45.873,106.202c7.191,11.146,17.926,14.794,30.482,14.693c7.189-0.102,13.975-1.419,19.645-6.182
		c5.469-4.662,8.305-10.844,8.406-17.734c0.303-16.721,0.102-33.44,0.102-50.161c0.707-1.015,1.518-1.825,2.531-2.534
		c0,9.729,0.1,19.558,0.1,29.286c0,7.602,0.102,15.201-0.1,22.802c-0.406,14.693-10.531,25.334-25.115,26.854
		c-7.189,0.71-14.277,0.405-21.164-1.925c-7.088-2.433-12.658-6.789-16.709-13.174C44.455,107.316,45.064,106.606,45.873,106.202z"
		/>
	<path fill="#010101" d="M95.189,56.142c0,3.749,0.102,7.397,0.102,11.045c0,1.925-1.316,3.142-3.139,3.142
		c-1.924,0-3.139-1.217-3.24-3.345c0-1.419-0.102-2.938-0.102-4.357c0.709-1.014,1.52-1.824,2.531-2.533
		c0,2.128,0,4.358,0.102,6.486c0,0.506-0.102,1.114,0.607,1.114c0.811,0.102,0.709-0.71,0.709-1.216
		c0-2.636-0.102-5.169-0.102-7.804C93.469,57.965,94.381,57.053,95.189,56.142z"/>
	<path fill="#010101" d="M92.861,43.271c-0.709-3.952,1.723-8.006,6.176-8.715c0.813-0.102,1.52-0.202,2.229,0.203
		C98.432,37.596,95.596,40.434,92.861,43.271z"/>
	<path fill="#010101" d="M76.254,26.55c0-4.458-3.037-7.7-7.189-7.7s-7.189,3.242-7.189,7.7c0,11.654,0,23.207,0,34.86
		c0,0.608,0,1.114,0,1.724c0,0.405-0.203,0.911-0.709,0.81c-0.508,0-0.609-0.506-0.609-0.911c0-0.508,0-1.115,0-1.724
		c0-8.917,0-17.835,0-26.854c0-4.66-2.836-7.6-7.088-7.803c-3.646-0.102-7.291,3.143-7.291,7.803
		c0.203,13.985,0.102,27.97,0.102,42.056c0,0.608,0.303,1.316-0.305,2.026c-1.924-2.635-3.746-5.168-5.568-7.601
		c-3.039-4.054-8.305-5.27-12.051-2.635c-3.85,2.635-4.76,7.904-1.926,12.16c3.951,6.183,8.002,12.161,12.053,18.241
		c0.707-0.506,1.416-1.013,1.822-1.824c-3.646-5.573-7.291-11.147-11.039-16.72c-0.303-0.507-0.707-1.015-1.012-1.622
		c-1.621-2.938-1.014-6.385,1.52-8.106c2.633-1.723,6.176-1.115,8.201,1.621c2.734,3.547,5.266,7.296,8,10.844
		c0.811,1.114,1.723,2.33,2.938,3.851c0-1.317,0-2.027,0-2.636c0-15.707,0-31.414,0-47.02c0-0.202,0-0.406,0-0.508v-4.054
		c0,0,0.506-3.647,4.252-3.748c4.559-0.102,4.963,3.748,4.963,3.748v3.852c0,0.102,0,0.304,0,0.508c-0.102,6.383,0,12.768,0,19.254
		c0,2.431-0.102,4.762,0,7.194c0.102,2.431,2.229,3.952,4.354,3.142c1.621-0.608,2.127-2.026,2.127-3.75
		c0-11.146,0-22.396-0.1-33.543c0-0.101,0-0.202,0-0.304v-4.662c0,0,1.215-3.141,4.758-3.242c3.342-0.102,4.557,3.242,4.557,3.242
		v5.067l0,0c0,0.102,0,0.102,0,0.202c-0.1,11.147,0,22.396,0,33.544c1.014-0.71,1.824-1.622,2.533-2.534
		C76.355,49.147,76.355,37.899,76.254,26.55z"/>
	<path fill="#010101" d="M91.443,29.59c-0.102-3.85-3.24-6.79-7.09-6.891c-3.848,0-7.189,2.939-7.189,6.688
		c-0.1,9.931,0,19.76,0,29.692c0.811-0.912,1.723-1.825,2.533-2.736c0-8.006,0-16.012-0.102-24.018v-4.459
		c0,0,1.621-2.837,5.063-2.736c2.836,0,4.254,2.736,4.254,2.736v4.459l0,0c0,0.202,0,0.305,0,0.507c-0.102,4.661,0,9.425,0,14.086
		c1.012-0.71,1.822-1.52,2.531-2.533C91.443,39.623,91.443,34.556,91.443,29.59z"/>
</g>
</svg>
