<?xml version="1.0" encoding="utf-8"?>
<!-- Generator: Adobe Illustrator 16.0.0, SVG Export Plug-In . SVG Version: 6.00 Build 0)  -->
<!DOCTYPE svg PUBLIC "-//W3C//DTD SVG 1.1//EN" "http://www.w3.org/Graphics/SVG/1.1/DTD/svg11.dtd">
<svg version="1.1" id="_x35_0m" xmlns="http://www.w3.org/2000/svg" xmlns:xlink="http://www.w3.org/1999/xlink" x="0px" y="0px"
	 width="144px" height="144px" viewBox="0 0 144 144" enable-background="new 0 0 144 144" xml:space="preserve">
<polygon fill="#010101" points="114.159,55.227 112.557,58.131 134.287,70.348 126.977,70.348 100.14,55.227 98.438,58.131 
	120.167,70.348 112.957,70.348 86.02,55.227 84.417,58.131 106.147,70.348 98.838,70.348 72,55.227 70.398,58.131 92.028,70.348 
	84.818,70.348 57.881,55.227 56.278,58.131 78.009,70.348 70.698,70.348 43.861,55.227 42.26,58.131 63.889,70.348 56.679,70.348 
	29.741,55.227 28.14,58.131 49.87,70.348 42.56,70.348 15.723,55.227 14.12,58.131 35.75,70.348 28.54,70.348 1.603,55.227 
	0,58.131 21.73,70.348 9.013,70.348 9.013,73.652 21.73,73.652 0,85.869 1.603,88.773 28.54,73.652 35.75,73.652 14.12,85.869 
	15.723,88.773 42.56,73.652 49.87,73.652 28.14,85.869 29.741,88.773 56.679,73.652 63.889,73.652 42.26,85.869 43.861,88.773 
	70.698,73.652 78.009,73.652 56.278,85.869 57.881,88.773 84.818,73.652 92.028,73.652 70.398,85.869 72,88.773 98.838,73.652 
	106.147,73.652 84.417,85.869 86.02,88.773 112.957,73.652 120.167,73.652 98.438,85.869 100.14,88.773 126.977,73.652 
	134.287,73.652 112.557,85.869 114.159,88.773 144,71.95 "/>
</svg>
