<?xml version="1.0" encoding="utf-8"?>
<!-- Generator: Adobe Illustrator 16.0.0, SVG Export Plug-In . SVG Version: 6.00 Build 0)  -->
<!DOCTYPE svg PUBLIC "-//W3C//DTD SVG 1.1//EN" "http://www.w3.org/Graphics/SVG/1.1/DTD/svg11.dtd">
<svg version="1.1" id="_x35_0m" xmlns="http://www.w3.org/2000/svg" xmlns:xlink="http://www.w3.org/1999/xlink" x="0px" y="0px"
	 width="144px" height="144px" viewBox="0 0 144 144" enable-background="new 0 0 144 144" xml:space="preserve">
<g>
	<g>
		<path fill="#898989" d="M143.49,39.435l-0.002-0.001l-3.022-0.624l-6.966-0.287l-0.436,0.097c-0.015,0-0.027,0-0.042,0
			l-6.965,1.524l-4.68,1.285l-7.153,1.102l-6.298,0.382l-8.207-1.335c-0.032,0.023-0.064,0.052-0.096,0.076
			c-0.438,0.019-0.85,0.179-1.146,0.4c-6.201,4.58-13.072,15.649-13.358,16.127c-0.287,0.477-0.383,1.049-0.19,1.623l0.668,2.098
			l-1.146,9.924l-2.1,4.009c-0.096,0.19-0.19,0.285-0.19,0.477l-1.527,6.776c-0.095,0.285-0.095,0.667,0,0.953l2.291,7.729
			l0.381,8.97l-1.241,4.104c-0.094,0.189-0.094,0.477-0.094,0.666l0.477,7.444c0,0.19,0,0.381,0.095,0.571l2.863,7.445l0.667,4.293
			l-3.814,13.354h1.554h2.516l3.563-12.592c0.096-0.284,0.096-0.57,0.096-0.856l-0.765-4.963c0-0.095,0-0.285-0.095-0.381
			l-2.767-7.349l-0.383-6.774l1.241-4.104c0.096-0.19,0.096-0.479,0.096-0.668l-0.478-9.543c0-0.191-0.096-0.286-0.096-0.477
			l-2.194-7.443l1.335-6.108l2.196-4.102c0.094-0.191,0.19-0.478,0.19-0.669l1.24-10.592c0-0.19,0-0.478-0.097-0.763l-0.476-1.719
			c1.526-2.386,6.68-10.115,11.26-13.836l7.348,1.24c0.191,0,0.286,0,0.476,0l6.298-0.381c0.097,0,0.097,0,0.193,0l7.442-1.146
			c0.096,0,0.096,0,0.19,0l4.962-1.337l6.584-1.431l6.586,0.286L144,43.694L143.49,39.435z"/>
		<path fill="#898989" d="M51.436,84.23L50.1,79.938l2.671-10.21c0.097-0.191,0.097-0.383,0.097-0.573l-0.19-7.253
			c0-0.382-0.098-0.667-0.288-0.954l-2.385-4.199C43.609,41.861,38.171,40.241,37.121,40.05c-0.285-0.097-0.478-0.097-0.763,0
			l-9.424,2.285l-11.379-0.376l-13.698-1.98l-0.33-0.049l0.001,0.023l0.33,0.049c0.083,1.441,0.154,2.704,0.213,3.728l13.484,1.95
			c0,0,0.095,0,0.19,0l11.547,0.381c0.095,0,0.285-0.094,0.477-0.094l9.066-2.195c1.049,0.572,4.961,3.244,9.733,14.409
			c0,0,0.094,0.095,0.094,0.189l2.195,3.818l0.19,6.488l-2.768,10.688c-0.095,0.381-0.095,0.669,0,1.05l1.432,4.866l4.009,12.12
			l-0.286,10.306l-5.44,13.358c0,0.097-0.095,0.287-0.095,0.383l-1.05,5.534c0,0.285,0,0.478,0,0.668l0.859,5.915
			c0,0.097,0,0.097,0,0.192l1.122,4.86h2.437h1.548l-1.289-5.624l-0.859-5.63l0.953-4.962l5.44-13.455
			c0.095-0.19,0.189-0.477,0.189-0.669l0.383-10.973c0-0.191,0-0.477-0.096-0.668L51.436,84.23z"/>
		<path fill="#898989" d="M103.728,12.662c0.191,0,0.382,0,0.573,0l11.736-1.525l11.546-0.859l11.834,3.053l0.995,0.355
			l-0.495-4.145l-0.004-0.025l-11.565-2.959c-0.177-0.061-0.314-0.08-0.44-0.088l-0.036-0.01l-0.069,0.006
			c-0.039-0.001-0.082-0.006-0.122-0.006l-11.928,0.859h-0.096l-11.547,1.527l-9.776-1.488l-3.775-0.61l-11.64,0.381
			c-0.192,0-0.286,0-0.383,0l-17.911,3.812l-7.146-0.659l-7.197-0.672l-7.92-0.668L22.522,5.697c-0.097,0-0.288,0-0.382,0H9.639
			c-0.095,0-0.19,0-0.286,0L0,6.999c0,0.018,0.001,0.034,0.002,0.052c0.059,1.051,0.132,2.367,0.217,3.879l9.517-1.321h12.213
			l15.842,3.246c0.095,0,0.19,0,0.285,0l8.016,0.571l14.506,1.337c0.19,0,0.381,0,0.571,0l18.036-3.817l11.26-0.287L103.728,12.662z
			"/>
	</g>
	<path fill="#A9D3EF" d="M140.412,13.686l-0.995-0.355l-11.834-3.053l-11.546,0.859l-11.736,1.525c-0.191,0-0.382,0-0.573,0
		l-13.264-2.004l-11.26,0.287l-18.036,3.817c-0.19,0-0.381,0-0.571,0l-14.506-1.337l-8.016-0.571c-0.095,0-0.19,0-0.285,0
		L21.948,9.608H9.735L0.219,10.93c0.442,7.917,1.19,21.131,1.639,29.049l13.698,1.98l11.379,0.376l9.424-2.285
		c0.285-0.097,0.478-0.097,0.763,0c1.05,0.191,6.488,1.812,12.883,16.698l2.385,4.199c0.19,0.287,0.288,0.572,0.288,0.954
		l0.19,7.253c0,0.19,0,0.382-0.097,0.573L50.1,79.938l1.336,4.293l4.103,12.406c0.096,0.191,0.096,0.477,0.096,0.668l-0.383,10.973
		c0,0.192-0.095,0.479-0.189,0.669l-5.44,13.455l-0.953,4.962l0.859,5.63l1.289,5.624h31.442l3.814-13.354l-0.667-4.293
		l-2.863-7.445c-0.095-0.19-0.095-0.381-0.095-0.571l-0.477-7.444c0-0.189,0-0.477,0.094-0.666l1.241-4.104l-0.381-8.97
		l-2.291-7.729c-0.095-0.286-0.095-0.668,0-0.953l1.527-6.776c0-0.191,0.095-0.286,0.19-0.477l2.1-4.009l1.146-9.924l-0.668-2.098
		c-0.192-0.574-0.097-1.146,0.19-1.623c0.286-0.478,7.157-11.547,13.358-16.127c0.296-0.222,0.707-0.382,1.146-0.4
		c0.031-0.024,0.063-0.053,0.096-0.076l8.207,1.335l6.298-0.382l7.153-1.102l4.68-1.285l6.965-1.524c0.015,0,0.027,0,0.042,0
		l0.436-0.097l6.966,0.287l3.022,0.624l0.002,0.001L140.412,13.686z"/>
</g>
</svg>
