<?xml version="1.0" encoding="utf-8"?>
<!-- Generator: Adobe Illustrator 16.0.0, SVG Export Plug-In . SVG Version: 6.00 Build 0)  -->
<!DOCTYPE svg PUBLIC "-//W3C//DTD SVG 1.1//EN" "http://www.w3.org/Graphics/SVG/1.1/DTD/svg11.dtd">
<svg version="1.1" id="_x35_0m" xmlns="http://www.w3.org/2000/svg" xmlns:xlink="http://www.w3.org/1999/xlink" x="0px" y="0px"
	 width="144px" height="144px" viewBox="0 0 144 144" enable-background="new 0 0 144 144" xml:space="preserve">
<g>
	<path fill="#A9D3EF" d="M79.308,52.011l0.454-11.803l1.663-16.678l0.604-23.072h-19.13l-3.403,9.594l3.025,13.479l-2.345,11.65
		l1.739,15.154L44.598,40.36l-6.2-7.996l-9.149-13.859L16.922,4.646l-16.182,16.6l14.291,16.832l15.577,12.029l12.78,15.002
		c0,0,4.537,0.686,10.132,12.488l2.194,3.428l0.15,5.787l-2.495,8.682l1.285,3.807l3.63,9.977l-0.302,8.758l-4.916,10.889
		l-0.907,4.416l0.757,4.723l1.512,5.938l30.398-0.15l3.781-12.107l-0.681-3.961l-2.571-6.092l-0.378-5.939l1.21-3.504l-0.378-7.615
		l-2.041-6.32l1.361-5.406l2.041-3.504l1.135-8.527l3.704-8.682l9.756-10.813c0,0,2.494-7.539,7.713-11.043l11.267-11.498
		l11.268-6.092l9.604-11.193L124.376,5.483l-12.553,6.777l-4.387,14.926l-10.586,5.635L79.308,52.011z"/>
	<path fill="#898989" d="M79.609,54.448c0.53,0.227,1.21,0.076,1.664-0.381l17.393-19.113l10.359-5.482
		c0.378-0.154,0.605-0.533,0.756-0.914l4.387-14.24l11.04-5.939l2.763-1.459l-1.704-1.588c-0.454-0.457-1.135-0.533-1.739-0.229
		l-12.553,6.701c-0.378,0.229-0.604,0.533-0.756,0.914l-4.16,14.316l-10.057,5.33c-0.151,0.076-0.227,0.152-0.378,0.305
		L81.802,48.89l0.302-7.617l1.589-16.6v-0.076l0.681-23.072c0-0.381-0.151-0.762-0.454-1.066c-0.227-0.305-0.681-0.457-1.059-0.457
		H81.44l-0.167,3.047l-0.529,21.473l-1.588,16.602v0.076l-0.453,11.803C78.626,53.61,79.081,54.22,79.609,54.448z"/>
	<path fill="#898989" d="M28.87,20.562l9.074,13.783l0.075,0.074l6.201,7.998c0.151,0.152,0.302,0.305,0.453,0.379l17.241,9.9
		c0.529,0.229,1.134,0.229,1.588-0.076c0.453-0.305,0.757-0.836,0.681-1.447l-1.739-14.926l2.345-11.346
		c0.075-0.229,0.075-0.457,0-0.686l-2.95-13.02l2.874-8.148l0.752-3.047h-1.735c-0.681,0-1.209,0.379-1.437,0.99l-3.402,9.594
		c-0.151,0.229-0.151,0.533-0.076,0.838l3.024,13.174l-2.344,11.271c0,0.152,0,0.303,0,0.457l1.437,12.184l-14.442-8.301
		l-6.051-7.768L31.29,18.657c-0.076-0.076-0.076-0.076-0.151-0.152L18.812,4.646c-0.227-0.381-0.681-0.533-1.06-0.533
		c-0.453,0-0.831,0.152-1.134,0.457l-1.042,1.07l2.102,2.281L28.87,20.562z"/>
	<path fill="#898989" d="M143.507,21.397l-1.044-0.971l-1.906,2.342l-8.468,9.9l-10.966,6.016c-0.15,0-0.303,0.152-0.378,0.229
		l-11.191,11.422c-4.915,3.428-7.563,9.9-8.091,11.424L91.86,72.267c-0.151,0.152-0.228,0.305-0.304,0.457l-3.704,8.605
		c-0.076,0.076-0.151,0.229-0.151,0.379l-1.06,8.225l-1.89,3.199c-0.075,0.076-0.075,0.23-0.151,0.381l-1.361,5.406
		c-0.075,0.307-0.075,0.533,0,0.838l1.966,6.168l0.379,7.082l-1.135,3.199c-0.075,0.229-0.075,0.381-0.075,0.607l0.378,5.941
		c0.075,0.152,0.075,0.305,0.15,0.457l2.496,5.939l0.604,3.426l-3.374,10.646v0.775h2.896l3.353-10.736
		c0.076-0.229,0.151-0.457,0.076-0.686l-0.682-3.959c0-0.076,0-0.229-0.076-0.307l-2.419-5.863l-0.378-5.404l1.059-3.199
		c0.075-0.229,0.075-0.381,0.075-0.609l-0.378-7.615c0-0.152,0-0.229-0.075-0.381L86.188,99.3l1.21-4.797l1.891-3.275
		c0.15-0.229,0.227-0.379,0.227-0.607l1.06-8.301l3.478-8.225l9.604-10.586c0.151-0.152,0.227-0.303,0.303-0.531
		c0.075-0.078,2.42-7.082,7.184-10.281c0.076-0.076,0.151-0.152,0.228-0.229l11.115-11.346l11.04-6.018
		c0.151-0.15,0.303-0.227,0.454-0.379l9.604-11.195C144.187,22.921,144.111,21.931,143.507,21.397z"/>
	<path fill="#898989" d="M56.47,143.468l-1.21-4.723l-0.757-4.34l0.832-3.959l4.84-10.662c0.076-0.229,0.151-0.381,0.151-0.609
		l0.303-8.756c0-0.229,0-0.459-0.076-0.611l-3.63-9.9l-1.135-3.35l2.345-8.223c0.076-0.152,0.076-0.305,0.076-0.457l-0.152-5.789
		c0-0.229-0.074-0.531-0.226-0.76l-2.117-3.352c-4.765-10.053-9-12.488-10.587-13.098L32.651,50.183
		c-0.076-0.076-0.152-0.15-0.228-0.227L16.921,37.999L3.613,22.388l-2.088-2.334l-1.088,1.117c-0.529,0.533-0.605,1.447-0.075,2.055
		l14.291,16.832c0.075,0.074,0.151,0.15,0.228,0.227l15.502,11.955L43.01,67.165c0.302,0.305,0.528,0.457,0.907,0.533
		c0.075,0,4.084,0.988,9.074,11.65c0,0,0.075,0.076,0.075,0.152l1.967,3.045l0.15,5.104l-2.42,8.453
		c-0.075,0.305-0.075,0.609,0,0.914l1.286,3.883l3.554,9.67l-0.303,8.148l-4.763,10.662c0,0.076-0.076,0.229-0.076,0.305
		l-0.907,4.416c0,0.152,0,0.381,0,0.533l0.756,4.721c0,0.076,0,0.076,0,0.154l1.145,4.49h3.015V143.468z"/>
</g>
</svg>
