<?xml version="1.0" encoding="utf-8"?>
<!-- Generator: Adobe Illustrator 16.0.0, SVG Export Plug-In . SVG Version: 6.00 Build 0)  -->
<!DOCTYPE svg PUBLIC "-//W3C//DTD SVG 1.1//EN" "http://www.w3.org/Graphics/SVG/1.1/DTD/svg11.dtd">
<svg version="1.1" id="_x35_0m" xmlns="http://www.w3.org/2000/svg" xmlns:xlink="http://www.w3.org/1999/xlink" x="0px" y="0px"
	 width="144px" height="144px" viewBox="0 0 144 144" enable-background="new 0 0 144 144" xml:space="preserve">
<g>
	<path fill="#010101" d="M42.112,22.382c7.233,0,12.859,1.878,16.878,5.738c4.019,3.862,6.028,9.6,6.028,17.323
		c0,6.053-1.206,10.956-3.516,14.714c-2.311,3.757-5.928,6.26-10.85,7.305v0.208c4.32,0.626,7.535,2.088,9.544,4.384
		c2.009,2.295,3.215,5.843,3.717,10.852c0.201,1.67,0.301,3.444,0.402,5.426c0.101,1.983,0.201,4.175,0.201,6.576
		c0.201,4.799,0.402,8.349,0.704,10.852c0.502,2.505,1.507,4.173,3.114,5.113v0.73H49.647c-0.905-1.252-1.407-2.714-1.708-4.279
		c-0.301-1.564-0.401-3.34-0.502-5.112l-0.502-17.112c-0.201-3.551-1.005-6.262-2.511-8.245c-1.507-1.984-4.12-3.026-7.736-3.026
		h-9.243v37.775h-17.38V22.382H42.112z M34.677,61.514c4.22,0,7.435-1.044,9.645-3.027c2.21-1.982,3.416-5.531,3.416-10.33
		c0-8.244-4.019-12.418-12.056-12.418h-8.238v25.775H34.677z"/>
	<path fill="#010101" d="M76.169,49.105c0.604-5.525,1.909-10.248,4.019-14.166c2.11-3.917,5.023-7.031,8.841-9.242
		c3.818-2.211,9.042-3.315,15.572-3.315c6.53,0,11.654,1.104,15.572,3.315c3.918,2.211,6.833,5.325,8.842,9.242
		c2.009,3.918,3.416,8.641,4.018,14.166c0.603,5.526,0.904,11.554,0.904,18.084c0,6.63-0.301,12.658-0.904,18.084
		c-0.603,5.425-1.909,10.146-4.018,14.063c-2.009,3.919-5.023,6.934-8.842,9.042c-3.817,2.11-9.042,3.114-15.572,3.114
		c-6.53,0-11.654-1.004-15.572-3.114c-3.918-2.108-6.832-5.123-8.841-9.042c-2.009-3.917-3.416-8.639-4.019-14.063
		c-0.603-5.426-0.904-11.454-0.904-18.084C75.265,60.659,75.566,54.632,76.169,49.105z M93.047,81.958
		c0.301,4.018,0.804,7.333,1.708,9.845c0.804,2.512,2.009,4.422,3.617,5.526c1.606,1.204,3.616,1.707,6.228,1.707
		c2.612,0,4.622-0.603,6.229-1.707c1.608-1.207,2.813-3.015,3.617-5.526c0.804-2.512,1.407-5.827,1.708-9.845
		c0.301-4.02,0.402-8.941,0.402-14.769s-0.101-10.65-0.402-14.668c-0.301-4.019-0.804-7.333-1.708-9.846
		c-0.804-2.611-2.009-4.421-3.617-5.626c-1.607-1.206-3.617-1.708-6.229-1.708c-2.612,0-4.622,0.602-6.228,1.708
		c-1.608,1.104-2.813,3.015-3.617,5.626c-0.804,2.613-1.407,5.827-1.708,9.846c-0.301,4.018-0.401,8.941-0.401,14.668
		C92.646,72.914,92.847,77.838,93.047,81.958z"/>
</g>
</svg>
