<?xml version="1.0" encoding="utf-8"?>
<!-- Generator: Adobe Illustrator 16.0.0, SVG Export Plug-In . SVG Version: 6.00 Build 0)  -->
<!DOCTYPE svg PUBLIC "-//W3C//DTD SVG 1.1//EN" "http://www.w3.org/Graphics/SVG/1.1/DTD/svg11.dtd">
<svg version="1.1" id="_x35_0m" xmlns="http://www.w3.org/2000/svg" xmlns:xlink="http://www.w3.org/1999/xlink" x="0px" y="0px"
	 width="144px" height="144px" viewBox="0 0 144 144" enable-background="new 0 0 144 144" xml:space="preserve">
<g>
	<path fill="#A1A2A5" d="M71.227,11.757c0,0,30.489-2.87,55.06,36.945c0,0,42.685,55.06-14.526,81.245c0,0-54.343,9.505-93.44-5.74
		c0,0-30.49-18.113-8.071-51.831C10.427,72.197,17.602,20.364,71.227,11.757z"/>
	<path fill="#010101" d="M73.737,134.79c-17.576,0-38.201-1.974-56.136-8.968h-0.358c-0.539-0.359-13.093-8.071-16.5-22.777
		C-1.41,93.001,1.102,82.42,8.454,71.3c0.897-5.381,10.762-53.267,62.593-61.695h0.18c1.255-0.18,32.104-2.512,57.033,38.021
		c0.717,0.897,20.804,27.081,14.526,52.549c-3.407,13.451-13.451,24.032-29.951,31.565l-0.538,0.18
		C111.042,132.099,94.721,134.79,73.737,134.79z M19.395,122.056c36.767,14.168,87.881,6.276,92.006,5.739
		c15.065-6.995,24.212-16.5,27.261-28.696c5.739-23.494-13.63-48.962-13.81-49.142c-12.555-20.087-26.364-28.875-35.87-32.642
		c-9.685-3.945-16.858-3.586-17.575-3.586c-51.114,8.429-58.647,56.674-58.827,58.826v0.537L12.4,73.452
		c-6.815,10.223-9.326,19.907-7.174,28.875C7.737,114.344,17.96,121.338,19.395,122.056z"/>
</g>
</svg>
