<?xml version="1.0" encoding="utf-8"?>
<!-- Generator: Adobe Illustrator 16.0.0, SVG Export Plug-In . SVG Version: 6.00 Build 0)  -->
<!DOCTYPE svg PUBLIC "-//W3C//DTD SVG 1.1//EN" "http://www.w3.org/Graphics/SVG/1.1/DTD/svg11.dtd">
<svg version="1.1" id="_x35_0m" xmlns="http://www.w3.org/2000/svg" xmlns:xlink="http://www.w3.org/1999/xlink" x="0px" y="0px"
	 width="144px" height="144px" viewBox="0 0 144 144" enable-background="new 0 0 144 144" xml:space="preserve">
<g>
	<path fill="#010101" d="M142.152,88.443H2.072c-0.711,0-1.245-0.355-1.778-0.889c-0.355-0.533-0.355-1.244-0.178-1.955
		l11.199-25.243c0.533-0.889,1.422-1.244,2.311-1.244c11.732,2.133,44.62,5.688,54.219-3.022c0.355-0.355,0.889-0.533,1.422-0.533
		c0.178,0,13.333,0.355,27.021,1.6c28.442,2.489,31.108,6.223,31.997,7.645l15.288,20.266c0.534,0.533,0.534,1.422,0.179,2.133
		C143.574,88.088,142.863,88.443,142.152,88.443z M5.272,84.355h132.792l-12.978-17.066c-2.666-3.91-30.042-6.933-55.107-7.644
		c-12.444,9.955-47.464,4.978-55.463,3.733L5.272,84.355z"/>
	<g>
		<path fill="#A1A2A5" d="M2.072,86.488l11.199-25.243c0,0,43.375,7.645,55.996-3.555c0,0,52.441,1.422,57.419,8.354l15.465,20.266
			H2.072V86.488z"/>
	</g>
	<path fill="#4C4C4C" d="M75.667,83.111c-0.178,0-0.356,0-0.533-0.179c-0.534-0.355-0.534-1.066-0.178-1.422
		c0.533-0.711,13.866-18.487,22.398-20.088c0.533,0,1.066,0.178,1.244,0.889c0.178,0.533-0.178,1.067-0.889,1.244
		c-7.822,1.245-21.155,19.021-21.332,19.199C76.201,83.111,76.023,83.111,75.667,83.111z"/>
	<path fill="#4C4C4C" d="M19.671,84.533c-0.178,0-0.178,0-0.355,0c-0.711-0.178-1.067-0.89-0.889-1.422
		c1.6-6.578-4.444-17.066-4.444-17.244c-0.533-0.711-0.178-1.422,0.355-1.777s1.245-0.178,1.6,0.355
		c0.178,0.533,6.577,11.555,4.799,19.021C20.56,84.178,20.204,84.533,19.671,84.533z"/>
	<path fill="#4C4C4C" d="M33.537,84.533c-0.178,0-0.178,0-0.355,0c-0.711-0.178-1.066-0.89-0.889-1.422
		c1.6-6.578-4.444-17.066-4.444-17.244c-0.355-0.533-0.178-1.244,0.355-1.6c0.534-0.355,1.245-0.178,1.6,0.355
		c0.178,0.533,6.578,11.555,4.8,19.021C34.604,84.178,34.248,84.533,33.537,84.533z"/>
	<path fill="#4C4C4C" d="M53.269,81.866c-0.534,0-1.067-0.533-1.245-1.066c-0.711-7.289-9.6-12.443-9.777-12.443
		c-0.534-0.355-0.711-1.067-0.534-1.601c0.355-0.533,1.067-0.711,1.6-0.533c0.355,0.178,10.133,5.867,11.021,14.222
		C54.513,81.333,54.158,81.866,53.269,81.866C53.447,81.866,53.447,81.866,53.269,81.866z"/>
	<path fill="#4C4C4C" d="M60.379,82.577c-0.178,0-0.178,0-0.355,0c-0.711-0.178-1.067-0.889-0.711-1.6
		c1.422-4.444,3.555-7.11,5.866-7.644c1.778-0.356,3.377,0.533,4.267,1.066c3.555-1.423,3.733-9.777,3.377-12.622
		c0-0.711,0.533-1.244,1.244-1.422c0.711,0,1.244,0.534,1.422,1.244c0.178,1.423,0.889,14.222-6.043,15.467
		c-0.356,0-0.889,0-1.067-0.356c0,0-1.066-1.244-2.489-0.889c-1.422,0.355-2.844,2.489-4.089,5.866
		C61.446,82.222,60.913,82.577,60.379,82.577z"/>
	<path fill="#4C4C4C" d="M98.955,79.022c-0.356,0-0.534-0.179-0.889-0.356c-0.355-0.532-0.178-1.066,0.178-1.422l12.798-9.955
		c0.534-0.355,1.066-0.177,1.422,0.178c0.355,0.534,0.178,1.066-0.177,1.423l-12.799,9.954
		C99.488,79.022,99.132,79.022,98.955,79.022z"/>
	<path fill="#4C4C4C" d="M124.375,77.6c0,0-0.177,0-0.355,0l-7.466-2.133c-0.534-0.178-0.889-0.712-0.711-1.244l1.778-6.4
		c0.178-0.533,0.711-0.889,1.244-0.71c0.534,0.177,0.889,0.71,0.711,1.244l-1.6,5.332l6.578,1.778
		c0.533,0.178,0.889,0.711,0.71,1.244C125.264,77.244,124.731,77.6,124.375,77.6z"/>
</g>
</svg>
