<?xml version="1.0" encoding="utf-8"?>
<!-- Generator: Adobe Illustrator 16.0.0, SVG Export Plug-In . SVG Version: 6.00 Build 0)  -->
<!DOCTYPE svg PUBLIC "-//W3C//DTD SVG 1.1//EN" "http://www.w3.org/Graphics/SVG/1.1/DTD/svg11.dtd">
<svg version="1.1" id="_x35_0m" xmlns="http://www.w3.org/2000/svg" xmlns:xlink="http://www.w3.org/1999/xlink" x="0px" y="0px"
	 width="144px" height="144px" viewBox="0 0 144 144" enable-background="new 0 0 144 144" xml:space="preserve">
<g>
	<g>
		<path fill="#AEAEAE" d="M56.581,51.021c0,0,19.271-20.675,43.157-18.367c0,0,25.693,1.807,28.103,20.876
			c0,0,5.922,16.761-22.281,13.147c0,0-26.597,1.004-27.901,0.502C77.658,67.179,63.105,67.179,56.581,51.021z"/>
	</g>
	<path fill="#010101" d="M129.246,53.229c-2.71-19.772-29.106-21.88-29.307-21.88c-16.861-1.605-31.313,7.829-38.842,13.851l0,0l0,0
		c-3.211,2.609-5.118,4.616-5.419,4.918l-0.603,0.602l0.301,0.804c6.624,16.259,21.378,16.961,22.281,16.961
		c0.702,0.101,2.208,0.101,4.115,0.101c6.021,0,16.66-0.401,23.786-0.602c11.041,1.404,18.367-0.101,21.88-4.416
		C130.952,59.351,129.446,54.132,129.246,53.229z M99.738,33.958c0.101,0,3.012,0.201,6.926,1.205
		c5.521,5.82,7.628,10.236,6.223,12.646c-0.502,0.803-1.305,1.405-2.509,1.907h-0.101c0,0,0,0,0,0.1
		c-8.632,3.714-33.021-0.803-45.867-3.813C71.837,40.281,84.985,32.553,99.738,33.958z M105.861,65.372h-0.101h-0.101
		c-9.836,0.401-25.995,0.903-27.4,0.603l-0.2-0.101h-0.201c-0.602,0-13.348-0.301-19.57-14.553c0.702-0.702,1.907-1.907,3.713-3.312
		c5.821,1.404,24.289,5.721,37.938,5.721c3.914,0,7.427-0.401,10.237-1.204c-0.301,6.623,0.703,8.33,2.308,8.731
		c1.707,0.502,3.112-1.104,3.714-2.008c0.803-0.2,1.506-0.2,1.907,0.201c1.104,0.903,1.205,3.813,0.803,6.022
		C115.396,66.075,111.08,66.075,105.861,65.372z M125.532,61.859c-0.903,1.104-2.309,2.008-4.015,2.711
		c0.201-2.209,0.101-5.521-1.806-7.026c-0.804-0.703-2.409-1.305-4.919-0.502l-0.501,0.101l-0.201,0.401
		c-0.301,0.401-0.703,0.903-1.004,1.204c-0.301-0.602-0.702-2.408-0.401-7.527c1.004-0.602,1.706-1.305,2.208-2.208
		c1.807-3.011,0.603-7.126-3.713-12.445c6.725,2.61,14.251,7.628,15.456,17.063l0.101,0.301
		C126.737,54.031,128.242,58.548,125.532,61.859z"/>
	<g>
		<path fill="#AEAEAE" d="M101.947,68.483c0,0-26.999-28.904-60.32-25.693c0,0-35.931,2.51-39.343,29.207
			c0,0-8.23,23.485,31.113,18.467c0,0,37.135,1.404,39.042,0.703C72.339,91.167,92.713,91.066,101.947,68.483z"/>
	</g>
	<path fill="#010101" d="M102.75,67.58c-0.301-0.301-27.802-29.306-61.424-26.095c-0.401,0-36.834,2.911-40.548,30.21
		C0.377,72.8-1.63,79.926,2.986,85.646c4.818,5.921,14.954,8.028,30.21,6.021c8.331,0.301,24.59,0.903,33.522,0.903
		c2.709,0,4.717-0.101,5.62-0.201c0.703,0,5.721-0.2,11.743-3.01c5.921-2.711,13.95-8.431,18.868-20.475l0.302-0.804L102.75,67.58z
		 M41.627,44.095c21.177-2.007,40.046,9.435,50.484,17.564c-17.564,4.215-53.395,11.04-65.74,5.52c0-0.101,0-0.2,0-0.301H25.77
		c-1.305-0.703-2.309-1.506-2.911-2.509c-2.208-3.714,0.903-10.037,8.833-18.468C37.211,44.396,41.427,44.095,41.627,44.095z
		 M5.094,84.04c-4.015-4.918-1.807-11.541-1.807-11.642l0.101-0.302c1.907-14.252,13.65-21.378,23.687-24.89
		c-6.825,8.028-8.933,13.95-6.323,18.267c0.703,1.203,1.807,2.207,3.212,3.01c0.603,10.338-0.702,11.543-0.803,11.643
		c-0.401-0.1-1.405-1.104-2.107-2.107l-0.201-0.401l-0.502-0.101c-2.609-0.803-4.717-0.603-6.323,0.603
		c-2.71,2.208-2.71,7.025-2.309,10.137C8.808,87.353,6.6,85.947,5.094,84.04z M72.238,89.862h-0.2h-0.201
		c-1.907,0.502-24.689-0.201-38.641-0.804h-0.1h-0.101c-7.527,1.004-13.851,0.903-18.668-0.1c-0.502-3.213-0.502-7.628,1.305-9.033
		c0.301-0.201,1.104-0.903,3.312-0.302c0.803,1.205,2.609,3.412,4.718,2.811c1.706-0.501,3.312-2.408,2.81-12.646
		c3.513,1.205,8.23,1.907,14.353,1.907c5.821,0,12.847-0.602,21.076-1.706c14.453-2.007,28.304-5.319,32.52-6.423
		c2.91,2.408,4.817,4.315,5.82,5.219C91.408,89.46,73.042,89.862,72.238,89.862z"/>
	<g>
		<path fill="#AEAEAE" d="M142.595,65.773c0,0-11.141,33.322-39.242,43.057c0,0-29.91,11.241-42.556-9.033
			c0,0-15.356-15.958,18.366-26.395c0,0,29.407-14.854,31.314-14.955C110.378,58.447,126.837,51.021,142.595,65.773z"/>
	</g>
	<path fill="#010101" d="M143.397,64.871c-15.656-14.754-32.317-8.13-33.521-7.629c-3.413,1.004-22.684,10.64-31.314,14.955
		c-13.048,4.015-20.575,9.535-22.281,16.159c-1.605,6.322,2.61,11.44,3.413,12.244c6.322,9.936,16.66,12.546,25.693,12.546
		c9.835,0,18.165-3.012,18.266-3.111c28.404-9.836,39.545-42.455,40.046-43.86L144,65.372L143.397,64.871z M61.801,99.096
		L61.6,98.895c0,0-4.215-4.517-2.81-9.936c0.502-1.808,1.405-3.413,3.011-5.02c1.003,2.309,2.91,5.421,5.821,6.123
		c1.806,0.401,3.612-0.101,5.52-1.506l0.301-0.301v-0.401c0.101-0.803,0.402-1.707,0.703-2.008c0.502,0.201,2.107,1.506,5.319,8.23
		c-0.803,1.204-1.205,2.408-1.405,3.613c-0.501,4.516,3.413,8.731,11.743,12.746C80.568,111.239,68.525,109.834,61.801,99.096z
		 M102.851,107.627c-0.101,0-3.413,1.203-8.23,2.106c-9.534-3.913-14.453-8.029-14.052-11.843
		c1.104-10.639,38.842-19.973,56.707-23.485C131.956,84.843,120.915,101.403,102.851,107.627z M138.68,71.596
		c-3.713,0.702-16.259,3.211-28.804,6.925c-14.554,4.315-24.088,8.832-28.705,13.448c-3.713-7.427-5.821-8.431-7.527-8.229
		c-2.007,0.2-2.609,2.409-2.811,3.513c-1.405,1.004-2.308,0.803-2.608,0.703c-1.907-0.502-3.613-3.413-4.617-5.821
		c3.513-2.811,8.832-5.32,15.656-7.528l0.201-0.101c10.94-5.52,29.105-14.452,30.813-14.854h0.2l0.201-0.1
		c0.301-0.101,4.114-1.808,9.735-1.808c5.62,0,13.047,1.707,20.474,8.331C140.587,67.179,139.885,69.086,138.68,71.596z"/>
</g>
</svg>
