<?xml version="1.0" encoding="utf-8"?>
<!-- Generator: Adobe Illustrator 16.0.0, SVG Export Plug-In . SVG Version: 6.00 Build 0)  -->
<!DOCTYPE svg PUBLIC "-//W3C//DTD SVG 1.1//EN" "http://www.w3.org/Graphics/SVG/1.1/DTD/svg11.dtd">
<svg version="1.1" id="_x35_0m" xmlns="http://www.w3.org/2000/svg" xmlns:xlink="http://www.w3.org/1999/xlink" x="0px" y="0px"
	 width="144px" height="144px" viewBox="0 0 144 144" enable-background="new 0 0 144 144" xml:space="preserve">
<g>
	<path fill="#A1A2A5" d="M66.22,141.1c-2.336,0-76.07,16.545-42.98-74.272c0.719-2.157,2.338-3.956,4.496-4.855
		c7.014-3.597,24.457-15.646,35.428-53.951c1.799-5.935,8.992-8.093,13.668-4.316c14.746,12.049,40.822,37.946,51.074,76.252
		C128.085,79.956,143.37,138.762,66.22,141.1z"/>
	<path fill="#010101" d="M52.192,144.157c-14.205,0-24.996-4.137-31.65-12.409c-10.609-12.948-10.25-34.888,0.9-65.641
		c0.898-2.517,2.877-4.676,5.395-5.934c6.834-3.238,23.738-14.927,34.527-52.514c0.9-3.416,3.598-6.113,7.014-7.013
		c3.418-1.079,7.014-0.36,9.713,1.979c14.926,12.229,41.361,38.484,51.791,77.33c0.18,0.899,5.756,23.019-7.732,41.003
		c-10.43,13.667-29.133,21.22-55.75,21.939c-0.18,0-0.359,0-0.898,0.18C60.825,143.798,56.329,144.157,52.192,144.157z
		 M71.437,3.704c-0.721,0-1.439,0.181-1.979,0.36C67.3,4.783,65.681,6.402,64.962,8.56c-11.15,39.205-29.314,51.434-36.508,55.031
		c-1.617,0.719-2.877,2.157-3.596,3.776c-10.609,29.313-11.15,50.174-1.439,62.044c7.734,9.53,22.121,12.947,41.543,9.89
		c0.719-0.18,1.078-0.18,1.258-0.18l0,0l0,0c25.357-0.718,43.162-7.732,52.873-20.681c12.408-16.545,7.193-37.585,7.014-37.945
		C116.036,42.729,90.14,17.013,75.571,5.144C74.493,4.244,73.054,3.704,71.437,3.704z"/>
</g>
</svg>
