<?xml version="1.0" encoding="utf-8"?>
<!-- Generator: Adobe Illustrator 16.0.0, SVG Export Plug-In . SVG Version: 6.00 Build 0)  -->
<!DOCTYPE svg PUBLIC "-//W3C//DTD SVG 1.1//EN" "http://www.w3.org/Graphics/SVG/1.1/DTD/svg11.dtd">
<svg version="1.1" id="_x35_0m" xmlns="http://www.w3.org/2000/svg" xmlns:xlink="http://www.w3.org/1999/xlink" x="0px" y="0px"
	 width="144px" height="144px" viewBox="0 0 144 144" enable-background="new 0 0 144 144" xml:space="preserve">
<g>
	<g>
		<g>
			<defs>
				<polygon id="SVGID_5_" points="-213.87,1 -212.87,1 -213.87,2 				"/>
			</defs>
			<defs>
				<polygon id="SVGID_6_" points="-215.87,-1 -216.87,-1 -215.87,-2 				"/>
			</defs>
			<clipPath id="SVGID_4_">
				<use xlink:href="#SVGID_5_"  overflow="visible"/>
			</clipPath>
			<clipPath id="SVGID_7_" clip-path="url(#SVGID_4_)">
				<use xlink:href="#SVGID_6_"  overflow="visible"/>
			</clipPath>
		</g>
	</g>
</g>
<g>
	<g>
		<g>
			<defs>
				<polygon id="SVGID_31_" points="-213.87,1 -212.87,1 -213.87,2 				"/>
			</defs>
			<defs>
				<polygon id="SVGID_32_" points="-215.87,-1 -216.87,-1 -215.87,-2 				"/>
			</defs>
			<clipPath id="SVGID_8_">
				<use xlink:href="#SVGID_31_"  overflow="visible"/>
			</clipPath>
			<clipPath id="SVGID_11_" clip-path="url(#SVGID_8_)">
				<use xlink:href="#SVGID_32_"  overflow="visible"/>
			</clipPath>
		</g>
	</g>
</g>
<g>
	<g>
		<path fill="#AEAEAE" d="M3.216,73.797c0,0,36.982-43.011,82.707-38.288c0,0,49.143,3.819,53.967,43.515
			c0,0,11.355,34.973-42.61,27.436c0,0-50.951,2.109-53.563,1.104C43.716,107.463,15.778,107.363,3.216,73.797z"/>
	</g>
	<path fill="#010101" d="M143.004,79.225c-3.216-24.822-24.018-35.877-39.493-40.601c-0.202-0.2-0.402-0.402-0.604-0.603
		l-0.402,0.402c-8.943-2.714-15.878-3.316-16.079-3.316C39.495,30.384,1.005,72.993,0.604,73.496L0,74.199l0.302,0.805
		c12.662,32.459,40.398,34.168,42.61,34.269c1.104,0.2,3.919,0.301,7.737,0.301c13.064,0,37.887-1.005,47.133-1.306
		c20.802,2.813,34.871,0,41.705-8.241C146.421,91.585,143.406,80.731,143.004,79.225z M86.225,37.921
		c0.201,0,7.135,0.603,15.979,3.316c10.753,11.758,14.571,20.4,11.456,25.626c-0.904,1.508-2.312,2.713-4.12,3.718h-0.302
		c0,0.102,0,0.102,0,0.202C92.255,79.225,40.5,69.074,16.28,63.044c3.216-2.612,6.935-5.426,11.155-8.14
		C41.103,45.86,62.407,35.609,86.225,37.921z M98.083,105.252h-0.1h-0.101c-19.597,0.804-51.755,1.809-54.167,1.207l-0.201-0.101
		h-0.302c-1.105,0-27.234-0.604-39.796-31.556c1.307-1.407,4.924-5.126,10.251-9.647c8.14,2.01,46.83,11.557,74.566,11.557
		c8.241,0,15.577-0.804,20.803-2.915c-0.804,16.08,1.206,18.994,3.417,19.697c2.613,0.805,5.025-2.512,5.93-4.12
		c2.21-0.704,3.818-0.503,4.924,0.402c3.216,2.813,2.312,11.657,1.607,15.476C118.082,106.659,109.138,106.76,98.083,105.252z
		 M137.276,98.117c-2.211,2.714-5.427,4.723-9.547,6.13c0.604-4.02,1.407-13.064-2.713-16.682c-2.011-1.709-4.724-2.01-8.04-0.804
		l-0.503,0.2l-0.2,0.402c-1.105,2.01-2.714,3.518-3.116,3.316c0,0-2.512-1.006-1.406-18.491c1.809-1.105,3.215-2.412,4.221-4.02
		c3.517-5.93,0.703-14.17-8.643-25.325c13.969,5.226,30.249,15.778,32.861,36.781l0.101,0.302
		C140.19,80.129,143.607,90.58,137.276,98.117z"/>
</g>
</svg>
