<?xml version="1.0" encoding="utf-8"?>
<!-- Generator: Adobe Illustrator 16.0.0, SVG Export Plug-In . SVG Version: 6.00 Build 0)  -->
<!DOCTYPE svg PUBLIC "-//W3C//DTD SVG 1.1//EN" "http://www.w3.org/Graphics/SVG/1.1/DTD/svg11.dtd">
<svg version="1.1" id="_x35_0m" xmlns="http://www.w3.org/2000/svg" xmlns:xlink="http://www.w3.org/1999/xlink" x="0px" y="0px"
	 width="144px" height="144px" viewBox="0 0 144 144" enable-background="new 0 0 144 144" xml:space="preserve">
<g>
	<path fill="#AEAEAE" d="M42.78,64.025c0,0-27.232-11.656-41.502,0c0,0,7.738,31.151,33.664,15.576c0,0,37.582,32.458,48.637,10.35
		l25.926,1.307c0,0,33.664-1.908,33.061-7.737c0,0-9.747-11.054-34.367-9.044c0,0-11.054-22.007-18.791-22.007
		c0,0-30.448-9.044-32.458-4.521C57.05,47.746,43.483,54.882,42.78,64.025z"/>
	<path fill="#010101" d="M143.973,83.22l-0.101-0.403l-0.301-0.301c-0.402-0.503-10.25-11.255-34.569-9.546
		c-0.603-1.105-1.507-2.914-2.813-5.125v-0.101h-0.1c-3.92-6.732-10.652-16.581-16.48-16.781
		c-11.355-3.417-30.348-8.24-33.463-4.221c-2.01,1.105-12.562,7.234-14.37,15.375c-2.513-0.905-7.839-2.813-14.169-3.819
		c-11.656-2.01-21.002-0.401-27.132,4.623l-0.503,0.603l0.201,0.804C0.374,64.931,3.991,79.4,14.944,83.923
		c4.221,1.809,8.943,1.708,14.068,0v0.101c0,0,0.102-0.101,0.201-0.101c1.809-0.703,3.719-1.508,5.729-2.612
		c3.818,3.215,22.207,17.786,36.275,17.786c1.207,0,2.412-0.101,3.518-0.302c4.221-0.804,7.537-3.316,9.748-7.336l25.121,1.307
		h0.102h0.1c3.016-0.201,29.143-1.809,33.463-6.934C143.973,84.626,143.973,83.821,143.973,83.22z M89.608,53.575
		c3.718,0,9.244,7.034,13.565,13.968l-20.098-1.607c-0.904-6.23-1.909-11.959-2.411-14.873c2.713,0.704,5.525,1.508,8.641,2.412
		L89.608,53.575z M57.753,48.853l0.402-0.202l0.201-0.401c0.803-1.105,7.838-0.603,19.795,2.211
		c0.503,2.813,2.111,11.857,3.316,20.801V79.1c-3.416,2.211-21.604-6.432-37.18-16.179C45.795,55.183,57.652,48.953,57.753,48.853z
		 M15.95,81.511C7.609,78.094,3.79,67.442,2.886,64.428c13.064-9.747,36.98-0.402,39.291,0.604
		C40.771,71.864,31.124,79.3,28.41,81.311C23.788,82.917,19.668,83.019,15.95,81.511z M74.233,95.98
		c-14.471,2.915-38.086-17.283-38.287-17.484l-0.2-0.201c3.618-3.416,7.536-7.938,8.742-12.46
		c9.145,5.627,31.554,18.489,38.085,15.273c0.201,3.216,0.302,5.929,0.102,7.938l-0.102,0.102
		C80.765,93.067,77.952,95.278,74.233,95.98z M141.259,83.923c-2.713,3.215-20.801,5.427-31.654,6.028l-24.619-1.306
		c0.301-3.818-0.302-9.948-1.105-16.279v-4.02l20.701,1.709c1.005,1.708,1.809,3.316,2.611,4.823l0.402,0.804l0.805-0.101
		C129.301,73.975,139.249,81.912,141.259,83.923C141.359,83.821,141.259,83.821,141.259,83.923z"/>
</g>
</svg>
