<?xml version="1.0" encoding="utf-8"?>
<!-- Generator: Adobe Illustrator 16.0.0, SVG Export Plug-In . SVG Version: 6.00 Build 0)  -->
<!DOCTYPE svg PUBLIC "-//W3C//DTD SVG 1.1//EN" "http://www.w3.org/Graphics/SVG/1.1/DTD/svg11.dtd">
<svg version="1.1" id="_x35_0m" xmlns="http://www.w3.org/2000/svg" xmlns:xlink="http://www.w3.org/1999/xlink" x="0px" y="0px"
	 width="144px" height="144px" viewBox="0 0 144 144" enable-background="new 0 0 144 144" xml:space="preserve">
<g>
	<polygon fill="#ADADAD" points="129.022,93.655 129.022,80.196 115.867,80.196 115.867,63.601 102.813,63.601 102.813,44.476 
		89.152,44.476 89.152,28.081 1.315,28.081 1.315,115.919 81.461,115.919 89.152,115.919 96.236,115.919 102.813,115.919 
		112.022,115.919 115.867,115.919 126.796,115.919 129.022,115.919 141.065,115.919 141.065,93.655 	"/>
	<g>
		<path fill="#010101" d="M131.856,91.53V78.071h-13.155V61.476h-13.155V42.351H92.087V25.956H0v92.088h66.991h29.043H144V91.53
			H131.856z M71.14,113.794V55.911h20.543v57.883H71.14z M139.648,113.794H95.933V51.56H66.89v62.133H4.149V30.206h83.586v16.395
			h13.56v19.125h13.155v16.596h13.155V95.78h12.042V113.794L139.648,113.794z"/>
		<path fill="#010101" d="M16.899,69.269h20.947V42.45H16.899V69.269z M21.149,46.7h12.447v18.316H21.149V46.7z"/>
	</g>
</g>
</svg>
