<?xml version="1.0" encoding="utf-8"?>
<!-- Generator: Adobe Illustrator 16.0.0, SVG Export Plug-In . SVG Version: 6.00 Build 0)  -->
<!DOCTYPE svg PUBLIC "-//W3C//DTD SVG 1.1//EN" "http://www.w3.org/Graphics/SVG/1.1/DTD/svg11.dtd">
<svg version="1.1" id="_x35_0m" xmlns="http://www.w3.org/2000/svg" xmlns:xlink="http://www.w3.org/1999/xlink" x="0px" y="0px"
	 width="144px" height="144px" viewBox="0 0 144 144" enable-background="new 0 0 144 144" xml:space="preserve">
<g>
	<path fill="#010101" d="M35.085,46.448L35.085,46.448c0.222,0,0.333,0,0.555,0h0.998c6.54-0.111,11.75-6.097,11.75-13.413
		c0-7.095-4.878-12.971-11.196-13.414c-0.11,0-0.222,0-0.332,0c-0.111,0-0.111,0-0.222,0l-1.331-0.11
		c-2.66-0.443-4.434-2.882-4.434-5.986c0-3.215,2.217-5.653,4.212-5.986l1.774-0.11c1.33-0.111,2.327-1.22,2.327-2.551V2.661
		c0-0.666-0.222-1.331-0.775-1.886C37.968,0.332,37.191,0,36.526,0h-0.998c-6.54,0.222-11.64,6.208-11.64,13.524
		c0,7.095,4.767,12.859,11.086,13.414c0.11,0,0.222,0.11,0.443,0.11l1.773,0.11c1.995,0.333,4.213,2.771,4.213,5.986
		c0,2.993-1.774,5.543-4.213,5.986c-0.11,0-0.332,0-0.443,0H35.75C29.21,39.242,24,45.229,24,52.545
		c0,6.984,4.655,12.638,10.753,13.303c0.222,0.11,0.443,0.11,0.665,0.11l1.773,0.111c1.995,0.333,4.213,2.771,4.213,5.985
		c0,2.994-1.774,5.544-4.213,5.987c-0.11,0-0.332,0-0.443,0H35.75C29.21,78.153,24,84.139,24,91.455
		c0,6.983,4.655,12.748,10.863,13.303c0.222,0.11,0.443,0.11,0.555,0.11l1.773,0.111c1.995,0.332,4.213,2.771,4.213,5.985
		c0,3.104-1.774,5.544-4.323,5.987l-0.887,0.109h-0.666c-0.222,0-0.332,0-0.554,0.111c-6.208,0.555-11.086,6.319-11.086,13.413
		c0,7.317,5.1,13.304,11.751,13.414h0.997c0,0,0,0,0.111,0c0.665,0,1.33-0.222,1.773-0.775c0.443-0.443,0.776-1.109,0.776-1.885
		v-2.217c0-1.331-1.108-2.438-2.438-2.55h-0.665l-0.888-0.111c-2.55-0.443-4.323-2.882-4.323-5.985c0-3.215,2.218-5.654,4.213-5.987
		l1.773-0.11c0.222,0,0.333,0,0.555-0.11c6.208-0.555,10.863-6.319,10.863-13.304c0-7.094-4.767-12.747-10.975-13.413
		c-0.222-0.111-0.443-0.111-0.665-0.111h-0.665l-0.887-0.109c-2.55-0.444-4.323-2.883-4.323-5.987c0-3.215,2.217-5.653,4.212-5.985
		l0,0c0.111,0,0.333,0,0.443,0h0.998l0,0c6.541-0.111,11.751-6.098,11.751-13.413c0-6.984-4.656-12.749-10.864-13.303
		c-0.222-0.111-0.443-0.111-0.775-0.111h-0.665l-0.888-0.11c-2.55-0.443-4.323-2.883-4.323-5.986
		C30.873,49.33,32.979,46.892,35.085,46.448z"/>
	<path fill="#010101" d="M70.892,46.448L70.892,46.448c0.222,0,0.332,0,0.554,0h0.998c6.54-0.111,11.64-5.986,11.64-13.413
		c0-7.095-4.877-12.971-11.196-13.414c-0.111,0-0.222,0-0.332,0c-0.111,0-0.111,0-0.223,0l-1.33-0.11
		c-2.438-0.443-4.323-2.882-4.323-5.986c0-3.215,2.217-5.653,4.213-5.986l1.773-0.11c1.33-0.111,2.328-1.22,2.328-2.551V2.661
		c0-0.666-0.222-1.331-0.776-1.886C73.773,0.332,73.108,0,72.332,0h-0.997c-6.43,0.222-11.529,6.208-11.529,13.524
		c0,7.095,4.768,12.859,11.086,13.414c0.11,0,0.222,0.11,0.443,0.11l1.773,0.11c1.996,0.333,4.213,2.771,4.213,5.986
		c0,2.993-1.774,5.543-4.213,5.986c-0.11,0-0.333,0-0.443,0h-0.998c-6.54,0.11-11.75,6.097-11.75,13.413
		c0,6.984,4.656,12.638,10.753,13.303c0.222,0.11,0.443,0.11,0.665,0.11l1.773,0.111c1.996,0.333,4.213,2.771,4.213,5.985
		c0,2.994-1.774,5.544-4.213,5.987c-0.11,0-0.333,0-0.443,0h-0.998c-6.54,0.111-11.75,6.097-11.75,13.413
		c0,6.983,4.656,12.748,10.863,13.303c0.222,0.11,0.443,0.11,0.665,0.11l1.774,0.111c1.995,0.332,4.212,2.771,4.212,5.985
		c0,3.104-1.773,5.544-4.323,5.987l-0.887,0.109h-0.665c-0.222,0-0.333,0-0.555,0.111c-6.208,0.555-11.085,6.319-11.085,13.413
		c0,7.317,5.099,13.304,11.75,13.414h0.998c0,0,0,0,0.11,0c0.666,0,1.331-0.222,1.774-0.775c0.443-0.443,0.775-1.109,0.775-1.885
		v-2.217c0-1.331-1.108-2.438-2.438-2.55h-0.665l-0.887-0.111c-2.55-0.443-4.323-2.882-4.323-5.985c0-3.215,2.217-5.654,4.212-5.987
		l1.774-0.11c0.222,0,0.332,0,0.554-0.11c6.208-0.555,10.864-6.319,10.864-13.304c0-7.094-4.768-12.747-10.975-13.413
		c-0.222-0.111-0.443-0.111-0.666-0.111H72.11l-0.887-0.109c-2.549-0.444-4.323-2.883-4.323-5.987c0-3.215,2.217-5.653,4.213-5.985
		l0,0c0.11,0,0.332,0,0.443,0h0.998l0,0c6.429,0,11.528-5.876,11.528-13.304c0-6.983-4.655-12.748-10.863-13.302
		c-0.222-0.11-0.444-0.11-0.776-0.11h-0.665l-0.887-0.111c-2.55-0.443-4.323-2.883-4.323-5.986
		C66.679,49.33,68.896,46.892,70.892,46.448z"/>
	<path fill="#010101" d="M106.809,85.47L106.809,85.47c0.222,0,0.332,0,0.554,0h0.998l0,0c6.54-0.111,11.751-6.099,11.751-13.415
		c0-6.983-4.656-12.748-10.864-13.302c-0.222-0.11-0.443-0.11-0.776-0.11h-0.665l-0.887-0.111c-2.55-0.443-4.323-2.883-4.323-5.986
		c0-3.215,2.217-5.653,4.213-5.985l0,0c0.11,0,0.332,0,0.443,0h0.998c6.54-0.111,11.75-6.098,11.75-13.414
		c0-7.095-4.878-12.97-11.196-13.413c-0.11,0-0.222,0-0.333,0c-0.11,0-0.11,0-0.221,0l-1.331-0.111
		c-2.55-0.443-4.323-2.882-4.323-5.986c0-3.214,2.218-5.653,4.213-5.985l1.773-0.111c1.33-0.11,2.328-1.22,2.328-2.55V2.771
		c0-0.665-0.222-1.33-0.776-1.885c-0.443-0.443-1.219-0.776-1.884-0.776h-0.998c-6.43,0.111-11.641,6.098-11.641,13.414
		c0,7.095,4.768,12.859,11.086,13.414c0.111,0,0.222,0.11,0.443,0.11l1.774,0.11c1.995,0.333,4.212,2.771,4.212,5.986
		c0,2.993-1.773,5.543-4.212,5.986c-0.111,0-0.333,0-0.444,0h-0.997c-6.54,0.11-11.751,6.097-11.751,13.413
		c0,6.984,4.656,12.638,10.753,13.303c0.222,0.11,0.443,0.11,0.665,0.11l1.774,0.111c1.995,0.333,4.212,2.771,4.212,5.985
		c0,2.994-1.773,5.544-4.212,5.987c-0.111,0-0.333,0-0.444,0h-0.997c-6.54,0.111-11.751,6.097-11.751,13.413
		c0,6.983,4.656,12.748,10.864,13.303c0.222,0.11,0.443,0.11,0.554,0.11l1.774,0.111c1.995,0.332,4.212,2.771,4.212,5.985
		c0,3.104-1.773,5.544-4.323,5.987l-0.888,0.109h-0.664c-0.222,0-0.333,0-0.555,0.111c-6.207,0.555-11.086,6.319-11.086,13.413
		c0,7.317,5.1,13.304,11.751,13.414h0.998c0,0,0,0,0.11,0c0.665,0,1.331-0.222,1.774-0.775c0.443-0.443,0.775-1.109,0.775-1.885
		v-2.217c0-1.331-1.108-2.438-2.438-2.55h-0.666l-0.886-0.111c-2.55-0.443-4.323-2.882-4.323-5.985c0-3.215,2.217-5.654,4.212-5.987
		l1.774-0.11c0.222,0,0.332,0,0.554-0.11c6.208-0.555,10.864-6.319,10.864-13.304c0-7.094-4.767-12.747-10.976-13.413
		c-0.221-0.111-0.442-0.111-0.665-0.111h-0.665l-0.887-0.109c-2.55-0.444-4.323-2.883-4.323-5.987
		C102.596,88.352,104.813,85.802,106.809,85.47z"/>
</g>
</svg>
