<?xml version="1.0" encoding="utf-8"?>
<!-- Generator: Adobe Illustrator 16.0.0, SVG Export Plug-In . SVG Version: 6.00 Build 0)  -->
<!DOCTYPE svg PUBLIC "-//W3C//DTD SVG 1.1//EN" "http://www.w3.org/Graphics/SVG/1.1/DTD/svg11.dtd">
<svg version="1.1" id="_x35_0m" xmlns="http://www.w3.org/2000/svg" xmlns:xlink="http://www.w3.org/1999/xlink" x="0px" y="0px"
	 width="144px" height="144px" viewBox="0 0 144 144" enable-background="new 0 0 144 144" xml:space="preserve">
<g>
	<g>
		<g>
			<defs>
				<polygon id="SVGID_5_" points="1,-428.74 2,-428.74 1,-427.74 				"/>
			</defs>
			<defs>
				<polygon id="SVGID_6_" points="-1,-430.74 -2,-430.74 -1,-431.74 				"/>
			</defs>
			<clipPath id="SVGID_4_">
				<use xlink:href="#SVGID_5_"  overflow="visible"/>
			</clipPath>
			<clipPath id="SVGID_7_" clip-path="url(#SVGID_4_)">
				<use xlink:href="#SVGID_6_"  overflow="visible"/>
			</clipPath>
		</g>
	</g>
</g>
<g>
	<g>
		<g>
			<defs>
				<polygon id="SVGID_31_" points="1,-428.74 2,-428.74 1,-427.74 				"/>
			</defs>
			<defs>
				<polygon id="SVGID_32_" points="-1,-430.74 -2,-430.74 -1,-431.74 				"/>
			</defs>
			<clipPath id="SVGID_8_">
				<use xlink:href="#SVGID_31_"  overflow="visible"/>
			</clipPath>
			<clipPath id="SVGID_11_" clip-path="url(#SVGID_8_)">
				<use xlink:href="#SVGID_32_"  overflow="visible"/>
			</clipPath>
		</g>
	</g>
</g>
<g>
	<path fill="#F7E09A" d="M59.356,121.014c0-0.098,0-0.197,0.098-0.295l5.607-19.279c0.1-0.394,0.295-0.688,0.59-0.984l6.887-6.59
		l6.787-13.771c0.295-0.492,0.688-0.886,1.18-1.082l11.51-4.525l10.525-8.361c0.394-0.295,0.885-0.491,1.377-0.491h13.869
		l12.788-7.771c0.591-0.393,1.279-0.393,1.968-0.196L144,62.035V8.533l-9.688-3.101l-12.296,3.639
		c-0.296,0.099-0.688,0.099-1.082,0.099l-9.246-1.868l-13.28,1.77L91.03,13.99c-0.196,0.098-0.393,0.197-0.59,0.295l-10.82,2.95
		l-10.23,6.1l-7.968,8.755c-0.196,0.295-0.491,0.492-0.886,0.59l-8.754,3.246l-9.64,11.116l-0.099,0.098l-12.296,12.1l-4.329,12.395
		c-0.098,0.394-0.393,0.787-0.787,1.082l-8.853,6.492L10.96,90.422l-3.246,15.641c0,0.099,0,0.197-0.099,0.295l-3.147,9.246
		l3.246,23.019c0.098,0.492,0,0.886-0.197,1.377l-1.575,2.872H55.94L59.356,121.014z"/>
	<g>
		<path fill="#898989" d="M134.902,1.202c-0.394-0.098-0.886-0.098-1.278,0L121.131,4.94l-9.148-1.87c-0.196,0-0.394,0-0.688,0
			L97.228,5.038c-0.295,0-0.59,0.1-0.885,0.296l-7.476,4.918l-10.821,2.95c-0.195,0-0.393,0.099-0.59,0.199l-10.723,6.393
			c-0.196,0.099-0.393,0.197-0.492,0.394l-7.77,8.558l-8.756,3.245c-0.295,0.1-0.59,0.297-0.885,0.592l-10.033,11.41L26.206,56.386
			c-0.196,0.296-0.393,0.591-0.491,0.886L21.485,69.47l-8.755,6.492c-0.296,0.196-0.492,0.491-0.688,0.886L6.828,88.847
			c0,0.101-0.099,0.297-0.099,0.396L3.385,104.98l-3.246,9.738c-0.099,0.295-0.196,0.688-0.099,0.983l3.246,22.82l-2.324,4.349h2.52
			h2.46l1.575-2.872c0.197-0.491,0.295-0.885,0.197-1.377l-3.246-23.019l3.147-9.246c0.099-0.098,0.099-0.196,0.099-0.295
			l3.246-15.641l4.819-11.214l8.853-6.492c0.395-0.295,0.689-0.688,0.787-1.082l4.329-12.395l12.296-12.1l0.099-0.098l9.64-11.116
			l8.754-3.246c0.395-0.098,0.689-0.295,0.886-0.59l7.968-8.755l10.23-6.1l10.82-2.95c0.197-0.098,0.394-0.197,0.59-0.295
			l7.378-4.919l13.28-1.77l9.246,1.868c0.394,0,0.786,0,1.082-0.099l12.296-3.639L144,8.533V6.241V3.99L134.902,1.202z"/>
		<path fill="#898989" d="M130.574,57.862l-12.788,7.771h-13.869c-0.492,0-0.983,0.196-1.377,0.491l-10.525,8.361l-11.51,4.525
			c-0.491,0.196-0.885,0.59-1.18,1.082l-6.787,13.771l-6.887,6.59c-0.295,0.297-0.49,0.591-0.59,0.984l-5.607,19.279
			c-0.098,0.098-0.098,0.197-0.098,0.295l-3.416,21.857h2.322h2.215l3.207-20.973l5.41-18.591l6.689-6.492
			c0.196-0.195,0.393-0.394,0.491-0.59l6.591-13.378l11.115-4.427c0.197,0,0.395-0.196,0.59-0.295l10.133-8.066h13.672
			c0.395,0,0.789-0.098,1.182-0.294l12.492-7.575L144,66.779v-2.445v-2.299l-11.458-4.369
			C131.854,57.47,131.165,57.47,130.574,57.862z"/>
	</g>
</g>
</svg>
