<?xml version="1.0" encoding="utf-8"?>
<!-- Generator: Adobe Illustrator 16.0.0, SVG Export Plug-In . SVG Version: 6.00 Build 0)  -->
<!DOCTYPE svg PUBLIC "-//W3C//DTD SVG 1.1//EN" "http://www.w3.org/Graphics/SVG/1.1/DTD/svg11.dtd">
<svg version="1.1" id="Layer_1" xmlns="http://www.w3.org/2000/svg" xmlns:xlink="http://www.w3.org/1999/xlink" x="0px" y="0px"
	 width="144px" height="144px" viewBox="0 0 144 144" enable-background="new 0 0 144 144" xml:space="preserve">
<path fill="#EC2227" stroke="#000000" stroke-miterlimit="10" d="M139.742,83.3c-0.012,0-0.021,0-0.031,0
	c-0.32,0.003-28.07,0.196-54.34,0.08l18.57-26.327c16.375,1.44,29.869,2.806,30.113,2.83c2.352,0.232,4.424-1.575,4.648-4.049
	c0.225-2.475-1.492-4.673-3.834-4.91c-0.217-0.021-10.971-1.109-24.936-2.369l5.824-8.255c1.404-1.992,1.016-4.812-0.871-6.297
	s-4.555-1.073-5.961,0.92l-8.994,12.752c-12.266-1.053-25.553-2.084-35.896-2.609C42.84,43.992,15.355,44.943,4.74,55.597
	C1.652,58.695,0.014,62.571,0,66.808c-0.051,16.181,22.371,24.512,68.502,25.426L60.416,103.7c-1.406,1.992-1.016,4.812,0.871,6.297
	c0.762,0.602,1.656,0.892,2.541,0.892c1.299,0,2.582-0.626,3.418-1.812l11.801-16.731c8.041,0.053,16.436,0.072,24.342,0.072
	c19.602,0,36.133-0.116,36.381-0.118c2.352-0.017,4.246-2.045,4.23-4.53C143.984,85.294,142.08,83.3,139.742,83.3z M73.168,83.3
	C25.465,82.869,8.494,74.514,8.52,66.837c0.006-1.793,0.668-3.291,2.088-4.715c6.389-6.412,26.207-9.43,53.02-8.066
	c8.771,0.445,19.691,1.259,30.295,2.14L74.795,83.313C74.25,83.31,73.707,83.305,73.168,83.3z"/>
</svg>
