<?xml version="1.0" encoding="utf-8"?>
<!-- Generator: Adobe Illustrator 16.0.0, SVG Export Plug-In . SVG Version: 6.00 Build 0)  -->
<!DOCTYPE svg PUBLIC "-//W3C//DTD SVG 1.1//EN" "http://www.w3.org/Graphics/SVG/1.1/DTD/svg11.dtd">
<svg version="1.1" id="_x35_0m" xmlns="http://www.w3.org/2000/svg" xmlns:xlink="http://www.w3.org/1999/xlink" x="0px" y="0px"
	 width="144px" height="144px" viewBox="0 0 144 144" enable-background="new 0 0 144 144" xml:space="preserve">
<g>
	<path fill="#F7E09A" d="M11.628,58.22c0.678-0.283,1.357-0.188,1.939,0.188l12.801,7.52h13.867c0.484,0,0.97,0.188,1.357,0.471
		l10.474,8.084l11.54,4.417c0.485,0.188,0.97,0.565,1.164,1.035l6.788,13.349l6.886,6.392c0.291,0.281,0.484,0.563,0.581,0.939
		l5.528,18.707c0,0.094,0,0.188,0.097,0.281l3.364,21.147h49.965l-1.544-2.817c-0.194-0.376-0.291-0.846-0.194-1.314l3.298-22.278
		l-3.2-9.025c0-0.094-0.098-0.188-0.098-0.281l-3.297-15.135l-4.849-10.904l-8.825-6.297c-0.388-0.283-0.581-0.658-0.775-1.035
		l-4.268-11.938l-12.219-11.751l-0.097-0.094l-9.601-10.811l-8.728-3.103c-0.292-0.093-0.679-0.282-0.873-0.563l-7.952-8.46
		l-10.183-5.922L53.715,16.2c-0.193-0.094-0.484-0.188-0.679-0.282l-7.37-4.7L32.478,9.432l-9.31,1.786
		c-0.389,0.095-0.679,0.095-1.067-0.094L9.785,7.646L0,10.746V62.54L11.628,58.22z"/>
	<g>
		<path fill="#898989" d="M144,114.432c0-0.376,0-0.752-0.098-1.034l-3.297-9.399l-3.297-15.229c0-0.094,0-0.282-0.097-0.376
			l-5.237-11.656c-0.097-0.282-0.388-0.658-0.679-0.846l-8.728-6.204l-4.268-11.846c-0.193-0.28-0.291-0.657-0.581-0.845
			l-12.607-12.032l-9.988-11.092c-0.194-0.189-0.485-0.471-0.872-0.565l-8.729-3.102l-7.757-8.365
			c-0.098-0.096-0.291-0.283-0.485-0.376l-10.765-6.204c-0.194-0.095-0.388-0.095-0.581-0.189l-10.765-2.82l-7.468-4.793
			c-0.193-0.188-0.581-0.376-0.872-0.376l-14.062-1.88c-0.291-0.094-0.582-0.094-0.776,0l-9.213,1.692L10.367,3.322
			c-0.389-0.095-0.873-0.095-1.262,0L0,6.169v2.28v2.297l9.785-3.1l12.315,3.478c0.389,0.188,0.679,0.188,1.067,0.094l9.31-1.786
			l13.188,1.786l7.37,4.7c0.194,0.094,0.485,0.188,0.679,0.282l10.861,2.82l10.183,5.922l7.952,8.46
			c0.194,0.281,0.581,0.471,0.873,0.563l8.728,3.103l9.601,10.811l0.097,0.094l12.219,11.751l4.268,11.938
			c0.194,0.377,0.388,0.752,0.775,1.035l8.825,6.297l4.849,10.904l3.297,15.135c0,0.094,0.098,0.188,0.098,0.281l3.2,9.025
			l-3.298,22.278c-0.097,0.469,0,0.938,0.194,1.314l1.544,2.817h2.539h2.521l-2.239-4.132L144,114.432z"/>
		<path fill="#898989" d="M84.554,119.32l-5.528-18.707c-0.097-0.376-0.29-0.658-0.581-0.939l-6.886-6.392l-6.788-13.349
			c-0.194-0.47-0.679-0.847-1.164-1.035l-11.54-4.417l-10.474-8.084c-0.388-0.282-0.873-0.471-1.357-0.471H26.368l-12.801-7.52
			c-0.582-0.376-1.262-0.471-1.939-0.188L0,62.54v2.191v2.257l12.112-4.444l12.413,7.331c0.388,0.188,0.775,0.282,1.164,0.282H39.46
			l10.183,7.99c0.193,0.094,0.388,0.188,0.581,0.281l11.056,4.23l6.595,12.972c0.097,0.188,0.291,0.377,0.484,0.564l6.692,6.204
			l5.333,17.954l3.264,20.396h2.181h2.187l-3.364-21.147C84.554,119.509,84.554,119.414,84.554,119.32z"/>
	</g>
</g>
</svg>
