<?xml version="1.0" encoding="utf-8"?>
<!-- Generator: Adobe Illustrator 16.0.0, SVG Export Plug-In . SVG Version: 6.00 Build 0)  -->
<!DOCTYPE svg PUBLIC "-//W3C//DTD SVG 1.1//EN" "http://www.w3.org/Graphics/SVG/1.1/DTD/svg11.dtd">
<svg version="1.1" id="_x35_0m" xmlns="http://www.w3.org/2000/svg" xmlns:xlink="http://www.w3.org/1999/xlink" x="0px" y="0px"
	 width="144px" height="144px" viewBox="0 0 144 144" enable-background="new 0 0 144 144" xml:space="preserve">
<g>
	<path fill="#F7E09A" d="M142.443,22.888l-0.449,0.023l-0.027,0.001l-5.67,0.287c-0.234,0-0.469,0-0.703-0.155
		c-6.846-2.874-15.174-2.175-23.189-1.555c-3.113,0.233-5.992,0.467-8.793,0.546c-0.156,0-0.234,0-0.389,0
		c-9.26-2.099-21.402-0.778-31.986,0.388c-4.824,0.543-9.418,1.01-13.619,1.242c-0.078,0-0.154,0-0.154,0
		c-6.227-0.388-18.756-2.719-25.293-5.049c-7.783,0.933-17.666,1.166-26.383,1.32c-1.479,0-2.801,0.077-4.201,0.077
		c0,0.01-0.002,0.019-0.002,0.026l-1.385,0.054l1.664,25.814l1.199-0.029c1.402,1.241,4.592,0.854,10.039,0.154
		c2.648-0.311,5.994-0.776,9.885-1.087c0.078,0,0.078,0,0.156,0c0.777,0,7.938,3.028,10.506,9.475
		c0.078,0.234,0.154,0.544,0.078,0.855c-0.234,1.319-0.313,2.019-0.313,2.329c1.479,4.04,1.246,11.107,0.078,15.068
		c-0.078,0.62-0.313,1.554-0.701,3.184l-0.621,2.642c2.023,3.961,4.047,11.339,4.59,15.454c0,0.233,0,0.39-0.076,0.622
		c-0.311,1.087-0.623,2.176-0.936,3.34c-2.41,8.233-5.367,18.33-3.422,26.407v1.203l25.863-0.866v-0.822
		c0.016-0.02,0.037-0.038,0.051-0.059c-0.078-0.232-0.078-0.467,0-0.698c1.557-6.446,2.102-14.835-0.855-18.873
		c-0.156-0.233-0.234-0.467-0.313-0.7c-0.467-3.106,0-6.68,0.313-10.174c0.467-4.428,1.012-9.01-0.234-12.506
		c-0.078-0.154-0.078-0.31-0.078-0.464c-0.156-4.816,1.246-13.05,2.879-17.554c-0.154-0.621-0.311-1.164-0.543-1.786
		c-0.234-0.854-0.469-1.63-0.701-2.486c-0.078-0.387-0.078-0.776,0.078-1.087c0.623-1.243,6.303-12.193,12.297-12.193h0.076h0.078
		c4.047,0.232,7.16,0.155,9.65,0.077c0.156,0,0.389,0,0.545,0.078c0.156,0.077,4.357,1.476,7.004,5.515
		c0.232,0.31,0.311,0.699,0.232,1.164c-0.078,0.545-0.232,1.166-0.311,1.788c-0.311,1.785-0.779,4.038-1.168,6.911
		c2.102,6.523,0.154,14.913-1.244,20.737c5.992,10.33,3.191,21.281,0.467,31.844c-0.467,1.786-0.934,3.65-1.324,5.437
		c0.08,0.39,0.156,0.777,0.156,1.32l1.012,7.223c0.008-0.003,0.018-0.002,0.025-0.005v1.04l23.979-0.842v-0.464
		c0.045-0.038,0.088-0.075,0.121-0.116c0,0,0,0,0-0.079c-0.076-0.232-0.076-0.465,0-0.776c1.4-6.679,1.945-15.223-0.777-18.951
		c-0.156-0.233-0.234-0.466-0.313-0.698c-0.389-3.106-0.078-6.68,0.313-10.175c0.467-4.427,0.934-9.009-0.234-12.504
		c-0.078-0.155-0.078-0.312-0.078-0.467c-0.156-4.504,1.166-13.048,2.725-17.553c-0.156-0.467-0.313-1.009-0.389-1.554
		c-0.701-2.407-1.402-5.203-2.023-7.922c-0.076-0.311,0-0.621,0.076-0.933c0.545-1.164,5.293-11.183,11.752-9.94
		c6.227,1.476,13.463,2.563,21.012,0v-0.027h1.129v-22.54l-1.129,0.048V22.888z"/>
	<g>
		<path fill="#898989" d="M32.791,75.857c0.389-1.63,0.623-2.563,0.701-3.184c1.168-3.961,1.4-11.028-0.078-15.068
			c0-0.311,0.078-1.01,0.313-2.329c0.076-0.312,0-0.621-0.078-0.855c-2.568-6.446-9.729-9.475-10.506-9.475
			c-0.078,0-0.078,0-0.156,0c-3.891,0.311-7.236,0.776-9.885,1.087c-5.447,0.699-8.637,1.087-10.039-0.154l-1.199,0.029
			l-0.666,0.016c0.213,0.4,0.455,0.742,0.732,1.03l0.133,2.032C4.48,50.4,8.033,49.898,13.57,49.218
			c2.49-0.311,5.682-0.699,9.416-1.01c1.246,0.621,5.838,2.873,7.703,7.145c-0.309,1.709-0.309,2.331-0.309,2.642
			c0,0.232,0,0.466,0.076,0.622c1.246,3.261,1.09,9.862,0.078,13.357v0.079c-0.078,0.154-1.557,6.446-1.557,6.446
			c-0.076,0.388,0,0.776,0.156,1.087c1.867,3.34,3.969,10.563,4.514,14.601c-0.234,1.01-0.545,2.02-0.857,3.03
			c-2.539,8.726-5.637,19.45-3.332,28.404l1.381-0.046l1.486-0.05v-1.203c-1.945-8.077,1.012-18.174,3.422-26.407
			c0.313-1.164,0.625-2.253,0.936-3.34c0.076-0.232,0.076-0.389,0.076-0.622c-0.543-4.115-2.566-11.493-4.59-15.454L32.791,75.857z"
			/>
		<path fill="#898989" d="M142.443,45.385v0.027c-7.549,2.563-14.785,1.476-21.012,0c-6.459-1.242-11.207,8.776-11.752,9.94
			c-0.076,0.312-0.152,0.622-0.076,0.933c0.621,2.719,1.322,5.515,2.023,7.922c0.076,0.545,0.232,1.087,0.389,1.554
			c-1.559,4.505-2.881,13.049-2.725,17.553c0,0.155,0,0.312,0.078,0.467c1.168,3.495,0.701,8.077,0.234,12.504
			c-0.391,3.495-0.701,7.068-0.313,10.175c0.078,0.232,0.156,0.465,0.313,0.698c2.723,3.729,2.178,12.272,0.777,18.951
			c-0.076,0.312-0.076,0.544,0,0.776c0,0.079,0,0.079,0,0.079c-0.033,0.041-0.076,0.078-0.121,0.116v0.464l1.402-0.05l1.744-0.061
			c0.057-0.332,0.072-0.671,0.01-1.014c0.934-4.661,2.49-15.146-1.168-20.738c-0.311-2.718,0.078-5.824,0.391-9.086
			c0.467-4.661,0.934-9.555-0.313-13.592c-0.078-4.351,1.246-12.661,2.725-16.622c0.154-0.311,0.154-0.621,0.078-0.932
			c-0.156-0.622-0.391-1.32-0.545-2.02c-0.545-2.251-1.246-4.737-1.789-7.224c1.244-2.562,4.824-8.31,8.016-7.688
			c6.646,1.565,14.441,2.69,22.762-0.104v-1.512c0.09-0.033,0.18-0.059,0.271-0.093c0.023-0.033,0.041-0.562,0.057-1.425h-0.328
			H142.443z"/>
		<path fill="#898989" d="M87.189,60.79c0.389-2.873,0.857-5.126,1.168-6.911c0.078-0.622,0.232-1.243,0.311-1.788
			c0.078-0.465,0-0.854-0.232-1.164c-2.646-4.039-6.848-5.438-7.004-5.515c-0.156-0.078-0.389-0.078-0.545-0.078
			c-2.49,0.078-5.604,0.155-9.65-0.077h-0.078h-0.076c-5.994,0-11.674,10.95-12.297,12.193c-0.156,0.311-0.156,0.7-0.078,1.087
			c0.232,0.856,0.467,1.632,0.701,2.486c0.232,0.622,0.389,1.165,0.543,1.786c-1.633,4.504-3.035,12.737-2.879,17.554
			c0,0.154,0,0.31,0.078,0.464c1.246,3.496,0.701,8.078,0.234,12.506c-0.313,3.494-0.779,7.067-0.313,10.174
			c0.078,0.233,0.156,0.467,0.313,0.7c2.957,4.038,2.412,12.427,0.855,18.873c-0.078,0.231-0.078,0.466,0,0.698
			c-0.014,0.021-0.035,0.039-0.051,0.059v0.822l1.268-0.043l1.836-0.062c0.061-0.301,0.09-0.608,0.061-0.931
			c0.855-3.729,2.879-14.681-1.246-20.815c-0.311-2.642,0-5.748,0.391-9.009c0.467-4.661,1.012-9.553-0.313-13.593
			c-0.078-4.504,1.402-12.815,2.879-16.621c0.156-0.31,0.156-0.699,0.078-1.01c-0.232-0.699-0.467-1.477-0.701-2.329
			c-0.154-0.544-0.389-1.243-0.543-1.863c2.256-4.273,6.381-9.942,9.184-9.942c0,0,0,0,0.076,0c0.078,0,0.078,0,0.078,0
			c3.969,0.232,7.004,0.155,9.494,0.077c0.779,0.311,3.111,1.398,4.826,3.651c-0.078,0.387-0.156,0.776-0.236,1.163
			c-0.309,1.943-0.777,4.272-1.244,7.38c0,0.311,0,0.544,0.078,0.777c2.102,5.901,0.078,14.367-1.324,19.96
			c-0.154,0.388-0.076,0.854,0.158,1.164c5.758,9.32,3.035,19.806,0.467,29.98c-0.467,1.864-0.934,3.806-1.402,5.748
			c0,0.154,0,0.388,0,0.543c0,0.257,0.959,7.212,1.291,9.604l1.242-0.044l1.695-0.061v-1.04c-0.008,0.003-0.018,0.002-0.025,0.005
			l-1.012-7.223c0-0.543-0.076-0.931-0.156-1.32c0.391-1.786,0.857-3.65,1.324-5.437c2.725-10.563,5.525-21.514-0.467-31.844
			C87.344,75.703,89.291,67.313,87.189,60.79z"/>
		<path fill="#898989" d="M143.572,21.278v-1.558l-6.965,0.293c-7.471-3.027-16.109-2.329-24.359-1.631
			c-2.957,0.312-5.758,0.467-8.404,0.544c-9.805-2.174-22.102-0.776-32.842,0.39c-4.746,0.543-9.26,1.009-13.307,1.242
			c-6.07-0.466-18.678-2.796-24.67-4.972c-0.234-0.077-0.467-0.077-0.699-0.077c-7.705,0.932-17.666,1.087-26.461,1.32
			c-2.023,0.078-3.891,0.078-5.68,0.156C0.123,16.992,0.063,17.009,0,17.021l0.162,2.505c-0.004,0.188-0.01,0.382-0.014,0.569
			l0.051-0.002l1.385-0.054c0-0.008,0.002-0.017,0.002-0.026c1.4,0,2.723-0.077,4.201-0.077c8.717-0.154,18.6-0.388,26.383-1.32
			c6.537,2.33,19.066,4.661,25.293,5.049c0,0,0.076,0,0.154,0c4.201-0.232,8.795-0.699,13.619-1.242
			c10.584-1.166,22.727-2.486,31.986-0.388c0.154,0,0.232,0,0.389,0c2.801-0.079,5.68-0.313,8.793-0.546
			c8.016-0.62,16.344-1.319,23.189,1.555c0.234,0.155,0.469,0.155,0.703,0.155l5.67-0.287l0.027-0.001l0.449-0.023v0.005
			l1.129-0.048l0.426-0.019C144,21.843,144,21.257,144,21.257L143.572,21.278z"/>
	</g>
</g>
</svg>
