<?xml version="1.0" encoding="utf-8"?>
<!-- Generator: Adobe Illustrator 16.0.0, SVG Export Plug-In . SVG Version: 6.00 Build 0)  -->
<!DOCTYPE svg PUBLIC "-//W3C//DTD SVG 1.1//EN" "http://www.w3.org/Graphics/SVG/1.1/DTD/svg11.dtd">
<svg version="1.1" id="_x35_0m" xmlns="http://www.w3.org/2000/svg" xmlns:xlink="http://www.w3.org/1999/xlink" x="0px" y="0px"
	 width="144px" height="144px" viewBox="0 0 144 144" enable-background="new 0 0 144 144" xml:space="preserve">
<g>
	<g>
		<g>
			<defs>
				<polygon id="SVGID_5_" points="1,-213.87 2,-213.87 1,-212.87 				"/>
			</defs>
			<defs>
				<polygon id="SVGID_6_" points="-1,-215.87 -2,-215.87 -1,-216.87 				"/>
			</defs>
			<clipPath id="SVGID_4_">
				<use xlink:href="#SVGID_5_"  overflow="visible"/>
			</clipPath>
			<clipPath id="SVGID_7_" clip-path="url(#SVGID_4_)">
				<use xlink:href="#SVGID_6_"  overflow="visible"/>
			</clipPath>
		</g>
	</g>
</g>
<g>
	<g>
		<g>
			<defs>
				<polygon id="SVGID_31_" points="1,-213.87 2,-213.87 1,-212.87 				"/>
			</defs>
			<defs>
				<polygon id="SVGID_32_" points="-1,-215.87 -2,-215.87 -1,-216.87 				"/>
			</defs>
			<clipPath id="SVGID_8_">
				<use xlink:href="#SVGID_31_"  overflow="visible"/>
			</clipPath>
			<clipPath id="SVGID_11_" clip-path="url(#SVGID_8_)">
				<use xlink:href="#SVGID_32_"  overflow="visible"/>
			</clipPath>
		</g>
	</g>
</g>
<g>
	<path fill="#010101" d="M25.795,85.921c0,2.011,0.201,3.82,0.502,5.53c0.302,1.708,0.905,3.016,1.81,4.122
		c0.905,1.105,2.112,2.011,3.52,2.615c1.508,0.603,3.318,1.006,5.631,1.006c2.615,0,5.028-0.906,7.139-2.615
		c2.112-1.71,3.219-4.424,3.219-8.045c0-1.911-0.302-3.62-0.805-5.028c-0.503-1.407-1.408-2.714-2.615-3.821
		c-1.207-1.105-2.815-2.111-4.726-3.116c-1.911-1.006-4.425-1.911-7.34-2.816c-3.822-1.307-7.24-2.715-10.056-4.223
		c-2.816-1.509-5.128-3.318-7.039-5.33c-1.911-2.011-3.319-4.424-4.123-7.138c-0.906-2.717-1.308-5.833-1.308-9.353
		c0-8.548,2.413-14.883,7.139-19.105c4.727-4.224,11.262-6.235,19.508-6.235c3.821,0,7.441,0.402,10.659,1.308
		c3.218,0.805,6.034,2.212,8.446,4.123c2.414,1.911,4.223,4.323,5.531,7.239S62.9,41.475,62.9,45.597v2.414H46.308
		c0-4.123-0.704-7.24-2.212-9.452c-1.509-2.213-3.821-3.319-7.24-3.319c-1.911,0-3.52,0.302-4.826,0.805
		c-1.308,0.604-2.313,1.308-3.118,2.212c-0.805,0.905-1.307,2.012-1.609,3.219s-0.402,2.413-0.402,3.721
		c0,2.613,0.604,4.926,1.709,6.736s3.52,3.521,7.24,5.028l13.374,5.832c3.318,1.407,6.034,2.916,8.044,4.525
		c2.112,1.608,3.721,3.219,5.028,5.028c1.308,1.81,2.111,3.821,2.614,5.932c0.503,2.112,0.704,4.626,0.704,7.24
		c0,9.05-2.614,15.686-7.944,19.81c-5.229,4.123-12.57,6.234-22.021,6.234c-9.854,0-16.793-2.111-21.017-6.436
		s-6.134-10.257-6.134-18.2v-3.52h17.396v2.515H25.795z"/>
	<path fill="#010101" d="M112.675,22.368l22.826,89.245h-18.1l-4.022-18.849H90.553l-4.022,18.849H68.43l22.826-89.245H112.675z
		 M110.462,77.977l-8.346-40.091h-0.202l-8.346,40.091H110.462z"/>
</g>
</svg>
