<?xml version="1.0" encoding="utf-8"?>
<!-- Generator: Adobe Illustrator 16.0.0, SVG Export Plug-In . SVG Version: 6.00 Build 0)  -->
<!DOCTYPE svg PUBLIC "-//W3C//DTD SVG 1.1//EN" "http://www.w3.org/Graphics/SVG/1.1/DTD/svg11.dtd">
<svg version="1.1" id="_x35_0m" xmlns="http://www.w3.org/2000/svg" xmlns:xlink="http://www.w3.org/1999/xlink" x="0px" y="0px"
	 width="144px" height="144px" viewBox="0 0 144 144" enable-background="new 0 0 144 144" xml:space="preserve">
<g>
	<circle fill="#3D93D0" cx="72.102" cy="72" r="68.152"/>
	<path fill="#0A0A0A" d="M138.531,43.949c-3.646-8.607-8.811-16.303-15.393-22.887c-6.582-6.582-14.38-11.848-22.987-15.492
		c-8.911-3.748-18.329-5.672-28.05-5.672c-9.722,0-19.14,1.924-28.051,5.672c-8.607,3.645-16.305,8.809-22.887,15.393
		C14.48,27.646,9.316,35.342,5.671,43.949C1.924,52.861,0,62.279,0,72s1.924,19.139,5.671,28.051
		c3.646,8.607,8.81,16.303,15.393,22.887c6.582,6.582,14.278,11.848,22.886,15.492c8.911,3.748,18.329,5.672,28.051,5.672
		s19.139-1.924,28.05-5.672c8.608-3.645,16.305-8.811,22.887-15.393s11.848-14.379,15.392-22.885
		C142.075,91.24,144,81.822,144,72.102C144,62.379,142.278,52.861,138.531,43.949z M120.911,34.227L83.442,71.695
		c-1.114-1.215-2.228-2.43-3.342-3.645l37.671-37.672C118.886,31.596,119.898,32.912,120.911,34.227z M112.709,25.418L75.24,62.887
		c-1.114-1.217-2.329-2.432-3.443-3.646l36.962-36.961C110.177,23.291,111.393,24.305,112.709,25.418z M18.43,102.582
		C13.164,93.367,10.329,82.938,10.329,72c0-16.506,6.48-32,18.126-43.746c11.646-11.646,27.14-18.025,43.646-18.025
		c10.937,0,21.366,2.834,30.582,8.1L66.937,54.076c-1.823-1.924-3.544-3.748-5.267-5.672c-1.113-1.215-1.619-2.328-1.519-4.051
		c0.102-8.201-6.48-14.48-14.582-14.074c-1.013,0.1-2.329,0.809-2.734,1.619c-0.404,0.811-0.101,2.43,0.405,3.141
		c1.822,2.43,4.051,4.557,5.975,6.885c0.304,0.406,0.811,1.215,0.709,1.316c-1.418,1.723-2.937,3.24-4.558,4.76
		c-0.101,0.102-0.911-0.404-1.315-0.811c-2.025-2.127-4.051-4.455-6.279-6.379c-0.81-0.709-2.531-1.115-3.544-0.811
		c-1.013,0.404-2.127,1.822-2.228,2.836c-0.203,5.164,1.316,9.721,5.975,12.455c2.127,1.215,4.557,2.025,6.987,2.43
		c2.025,0.305,3.544,1.014,4.86,2.531c1.722,1.824,3.342,3.748,5.063,5.57L18.43,102.582z M22.38,108.658l37.468-37.469
		c1.114,1.215,2.229,2.43,3.342,3.746l-37.671,37.672C24.404,111.291,23.392,110.076,22.38,108.658z M30.48,117.672l37.469-37.469
		c1.113,1.215,2.228,2.43,3.342,3.645L34.228,120.91C33.012,119.898,31.696,118.785,30.48,117.672z M115.848,115.746
		c-11.646,11.646-27.14,18.127-43.746,18.127c-11.443,0-22.38-3.037-31.899-8.811L76.05,89.215c2.229,2.432,4.456,4.861,6.684,7.393
		c0.709,0.811,1.216,2.025,1.316,3.037c0.608,7.9,6.178,13.875,13.57,14.279c1.418,0.102,3.14,0.305,3.848-1.316
		c0.709-1.621,0.305-3.24-1.013-4.557c-1.722-1.822-3.442-3.645-5.164-5.469c-1.114-1.113-1.216-2.328,0.202-3.342
		c1.114-0.912,2.228-1.822,3.646-2.836c2.734,2.533,5.267,5.064,7.898,7.393c1.925,1.723,4.051,1.113,4.761-1.418
		c0.201-0.707,0.303-1.316,0.303-2.025c0.202-6.48-3.849-13.467-12.86-13.975c-1.823-0.102-3.14-0.707-4.354-2.125
		c-2.228-2.33-4.354-4.76-6.582-7.09l36.759-37.063c5.772,9.52,8.811,20.455,8.811,31.898
		C133.873,88.506,127.493,104,115.848,115.746z"/>
</g>
</svg>
