<?xml version="1.0" encoding="utf-8"?>
<!-- Generator: Adobe Illustrator 16.0.0, SVG Export Plug-In . SVG Version: 6.00 Build 0)  -->
<!DOCTYPE svg PUBLIC "-//W3C//DTD SVG 1.1//EN" "http://www.w3.org/Graphics/SVG/1.1/DTD/svg11.dtd">
<svg version="1.1" id="_x35_0m" xmlns="http://www.w3.org/2000/svg" xmlns:xlink="http://www.w3.org/1999/xlink" x="0px" y="0px"
	 width="144px" height="144px" viewBox="0 0 144 144" enable-background="new 0 0 144 144" xml:space="preserve">
<g>
	<path fill="#010101" d="M21.768,22.384c4.657,0,8.382,1.041,11.176,3.018c2.794,1.978,5.005,4.995,6.635,8.742
		s2.678,8.325,3.143,13.633c0.582,5.307,0.815,11.238,0.815,17.899c0,7.805-0.349,14.673-1.047,20.396
		c-0.699,5.828-1.979,10.512-3.609,14.258s-4.074,6.557-6.985,8.325c-2.91,1.769-6.519,2.705-10.942,2.705H0V22.384H21.768z
		 M19.208,98.248c2.328,0,4.19-0.52,5.587-1.664c1.397-1.042,2.561-2.914,3.376-5.412c0.815-2.497,1.397-5.828,1.63-9.887
		c0.233-4.058,0.466-9.158,0.466-15.193c0-5.1-0.117-9.574-0.349-13.321c-0.233-3.746-0.815-6.972-1.514-9.573
		c-0.698-2.603-1.863-4.475-3.376-5.724s-3.492-1.978-6.053-1.978h-5.588v62.752C13.271,98.248,19.208,98.248,19.208,98.248z"/>
	<path fill="#010101" d="M83.699,83.472h0.232V22.384h12.224v89.186H81.021L64.724,49.13h-0.232v62.439H52.384V22.384H67.75
		L83.699,83.472z"/>
	<path fill="#010101" d="M144,37.058h-14.436v74.407h-13.271V37.058h-14.436V22.384H144V37.058z"/>
</g>
</svg>
