<?xml version="1.0" encoding="utf-8"?>
<!-- Generator: Adobe Illustrator 16.0.0, SVG Export Plug-In . SVG Version: 6.00 Build 0)  -->
<!DOCTYPE svg PUBLIC "-//W3C//DTD SVG 1.1//EN" "http://www.w3.org/Graphics/SVG/1.1/DTD/svg11.dtd">
<svg version="1.1" id="_x35_0m" xmlns="http://www.w3.org/2000/svg" xmlns:xlink="http://www.w3.org/1999/xlink" x="0px" y="0px"
	 width="144px" height="144px" viewBox="0 0 144 144" enable-background="new 0 0 144 144" xml:space="preserve">
<circle fill="#FFFFFF" cx="72" cy="72" r="72"/>
<g>
	<path fill="#F69321" d="M72,143.999c-9.699,0-19.199-1.899-28-5.699c-8.6-3.6-16.299-8.801-22.9-15.4
		c-6.6-6.6-11.799-14.3-15.398-22.9C1.9,91.199,0,81.699,0,71.999c0-9.699,1.9-19.199,5.701-28C9.301,35.399,14.5,27.7,21.1,21.1
		C27.701,14.5,35.4,9.3,44,5.699C52.801,1.899,62.301,0,72,0s19.201,1.899,28,5.699c8.6,3.601,16.301,8.801,22.9,15.4
		c6.6,6.601,11.801,14.3,15.4,22.899c3.799,8.9,5.699,18.301,5.699,28c0,9.7-1.9,19.2-5.699,28c-3.6,8.601-8.801,16.301-15.4,22.9
		S108.6,134.7,100,138.3C91.201,142.1,81.699,143.999,72,143.999z M72,10.3c-16.5,0-32,6.4-43.701,18.1
		c-11.699,11.7-17.998,27.1-17.998,43.6S16.699,104,28.4,115.7C40.1,127.399,55.6,133.8,72.1,133.8s32-6.4,43.701-18.1
		C127.5,104,133.9,88.499,133.9,72.1c0-16.4-6.4-32-18.1-43.7C104.1,16.7,88.5,10.3,72,10.3z"/>
	<g>
		<path fill="#010101" d="M42.799,97.199H32.5V62.1h-12v-6.8c3.199-0.101,5.4-0.3,6.6-0.601c2-0.499,3.701-1.3,4.9-2.7
			c0.9-0.899,1.5-2.1,2-3.699c0.301-0.9,0.4-1.6,0.4-2h8.299v50.899H42.799z"/>
		<path fill="#010101" d="M73.4,56.6c-1.201-1.4-2.9-2.1-5.1-2.1c-3.102,0-5.102,1.1-6.201,3.399c-0.6,1.301-1,3.4-1.1,6.301h-9.699
			c0.199-4.301,1-7.801,2.398-10.5c2.5-5.102,7.301-7.701,14.102-7.701c5.398,0,9.699,1.501,12.898,4.5
			c3.201,3.001,4.801,6.9,4.801,11.9c0,3.801-1.1,7.1-3.4,10c-1.5,1.9-3.898,4.1-7.299,6.5l-4.002,2.8
			C68.301,83.5,66.6,84.8,65.6,85.6s-1.699,1.7-2.299,2.8H85.6v8.8h-35c0.102-3.7,0.9-7,2.4-9.999c1.4-3.4,4.801-7,10.1-10.801
			c4.6-3.3,7.6-5.699,9-7.1c2.1-2.199,3.1-4.7,3.1-7.3C75.199,59.899,74.6,58.1,73.4,56.6z"/>
		<path fill="#010101" d="M108.199,98.499c-6.5,0-10.998-2.3-13.699-6.799c-2.701-4.5-3.9-11.001-3.9-19.401
			c0-8.399,1.301-14.899,3.9-19.499c2.6-4.601,7.199-6.9,13.699-6.9s11.102,2.3,13.701,6.9c2.6,4.6,3.9,11.1,3.9,19.499
			c0,8.4-1.301,14.901-3.9,19.401C119.301,96.199,114.699,98.499,108.199,98.499z M114.1,85.7c0.9-3.102,1.4-7.601,1.4-13.401
			c0-6.099-0.5-10.699-1.4-13.599c-0.898-2.9-2.898-4.4-5.799-4.4s-4.9,1.5-5.9,4.4c-1,2.899-1.4,7.5-1.4,13.599
			c0,5.901,0.5,10.3,1.4,13.401c0.9,3.1,2.9,4.699,5.9,4.699S113.201,88.8,114.1,85.7z"/>
	</g>
</g>
</svg>
