<?xml version="1.0" encoding="utf-8"?>
<!-- Generator: Adobe Illustrator 16.0.0, SVG Export Plug-In . SVG Version: 6.00 Build 0)  -->
<!DOCTYPE svg PUBLIC "-//W3C//DTD SVG 1.1//EN" "http://www.w3.org/Graphics/SVG/1.1/DTD/svg11.dtd">
<svg version="1.1" id="_x35_0m" xmlns="http://www.w3.org/2000/svg" xmlns:xlink="http://www.w3.org/1999/xlink" x="0px" y="0px"
	 width="144px" height="144px" viewBox="0 0 144 144" enable-background="new 0 0 144 144" xml:space="preserve">
<circle fill="#FFFFFF" cx="72" cy="72" r="72"/>
<g>
	<path fill="#F69321" d="M71.999,144c-9.699,0-19.199-1.899-28-5.7c-8.6-3.6-16.299-8.8-22.898-15.4
		C14.501,116.3,9.3,108.599,5.7,100c-3.801-8.8-5.699-18.3-5.699-28S1.899,52.8,5.7,44c3.6-8.601,8.801-16.3,15.4-22.899
		C27.7,14.5,35.399,9.3,43.999,5.7C52.8,1.899,62.3,0,71.999,0c9.701,0,19.201,1.899,28,5.7c8.602,3.6,16.301,8.8,22.9,15.4
		c6.6,6.6,11.801,14.299,15.4,22.899c3.799,8.9,5.699,18.3,5.699,28s-1.9,19.2-5.699,28c-3.6,8.599-8.801,16.3-15.4,22.899
		c-6.6,6.601-14.299,11.801-22.9,15.4C91.2,142.101,81.7,144,71.999,144z M71.999,10.3c-16.5,0-31.998,6.4-43.699,18.1
		c-11.699,11.7-18,27.1-18,43.601s6.4,31.999,18.1,43.7c11.701,11.699,27.201,18.1,43.701,18.1s31.998-6.4,43.699-18.1
		c11.699-11.701,18.1-27.199,18.1-43.601c0-16.399-6.4-32-18.1-43.7C104.099,16.7,88.499,10.3,71.999,10.3z"/>
	<g>
		<path fill="#010101" d="M63.7,62.7c-2.699,3.8-4.9,7.699-6.699,11.7c-1.4,3.2-2.701,6.999-3.9,11.6
			c-1.201,4.6-1.701,8.3-1.701,11.2H41.001c0.299-9.101,3.299-18.6,9-28.5c3.699-6.1,6.799-10.4,9.199-12.801H33.8l0.1-9h36V54.7
			C68.399,56.2,66.3,58.899,63.7,62.7z"/>
		<path fill="#010101" d="M91.8,98.499c-6.5,0-11-2.299-13.699-6.799c-2.6-4.6-3.9-11-3.9-19.4s1.301-14.9,3.9-19.5
			S85.3,45.9,91.8,45.9s11.1,2.3,13.699,6.899c2.602,4.6,3.9,11.1,3.9,19.5s-1.299,14.9-3.9,19.4
			C102.899,96.2,98.3,98.499,91.8,98.499z M97.7,85.7c0.898-3.101,1.398-7.6,1.398-13.4c0-6.1-0.5-10.7-1.398-13.6
			c-0.9-2.9-2.9-4.4-5.801-4.4c-3,0-4.9,1.5-5.9,4.4c-1,3-1.4,7.5-1.4,13.6c0,5.9,0.502,10.3,1.4,13.4c0.9,3.1,2.9,4.699,5.9,4.699
			C94.8,90.3,96.8,88.8,97.7,85.7z"/>
	</g>
</g>
</svg>
