<?xml version="1.0" encoding="utf-8"?>
<!-- Generator: Adobe Illustrator 16.0.0, SVG Export Plug-In . SVG Version: 6.00 Build 0)  -->
<!DOCTYPE svg PUBLIC "-//W3C//DTD SVG 1.1//EN" "http://www.w3.org/Graphics/SVG/1.1/DTD/svg11.dtd">
<svg version="1.1" id="_x35_0m" xmlns="http://www.w3.org/2000/svg" xmlns:xlink="http://www.w3.org/1999/xlink" x="0px" y="0px"
	 width="144px" height="144px" viewBox="0 0 144 144" enable-background="new 0 0 144 144" xml:space="preserve">
<circle fill="#FFFFFF" cx="72" cy="72" r="72"/>
<g>
	<path fill="#F69321" d="M72.05,144.107c-9.693,0-19.187-1.898-27.98-5.696c-8.594-3.597-16.289-8.794-22.885-15.39
		c-6.595-6.595-11.792-14.289-15.489-22.884C1.899,91.244,0,81.851,0,72.157s1.899-19.187,5.696-27.98
		c3.598-8.594,8.794-16.288,15.389-22.884c6.596-6.596,14.39-11.792,22.984-15.489c8.793-3.697,18.287-5.597,27.98-5.597
		c9.694,0,19.187,1.899,27.981,5.696c8.593,3.598,16.288,8.794,22.883,15.39c6.596,6.596,11.792,14.29,15.39,22.884
		C142.102,53.07,144,62.464,144,72.157s-1.898,19.187-5.695,27.98c-3.598,8.595-8.794,16.289-15.39,22.884
		c-6.595,6.596-14.29,11.793-22.883,15.39C91.137,142.209,81.744,144.107,72.05,144.107z M72.05,10.5
		c-16.489,0-31.978,6.396-43.669,18.088S10.394,55.669,10.394,72.157c0,16.489,6.396,31.979,18.087,43.67
		c11.692,11.691,27.182,18.087,43.67,18.087s31.978-6.396,43.67-18.087c11.691-11.691,18.086-27.181,18.086-43.67
		c0-16.488-6.396-31.978-18.086-43.669C104.128,16.796,88.539,10.5,72.05,10.5z"/>
	<g>
		<path fill="#010101" d="M57.061,56.769c-1.2-1.399-2.898-2.099-5.097-2.099c-2.997,0-5.096,1.099-6.195,3.397
			c-0.599,1.299-0.999,3.397-1.099,6.296h-9.693c0.199-4.298,0.999-7.795,2.398-10.493c2.698-5.097,7.395-7.595,14.19-7.595
			c5.396,0,9.693,1.499,12.892,4.497c3.198,2.998,4.796,6.896,4.796,11.892c0,3.798-1.099,7.095-3.397,9.992
			c-1.5,1.899-3.897,4.099-7.295,6.496l-3.997,2.798c-2.498,1.8-4.197,3.098-5.196,3.897s-1.699,1.699-2.299,2.799h22.085v8.793
			H34.277c0.1-3.696,0.899-6.994,2.398-9.993c1.399-3.397,4.797-6.995,10.093-10.792c4.597-3.298,7.595-5.696,8.994-7.095
			c2.099-2.198,3.098-4.697,3.098-7.295C58.86,59.966,58.26,58.267,57.061,56.769z"/>
		<path fill="#010101" d="M91.237,72.058c-1.2,0-2.299,0.2-3.198,0.5c-1.6,0.6-2.798,1.599-3.598,3.098l-8.995-0.4l3.698-28.18
			h27.98v8.494H86.34l-1.798,11.092c1.599-0.999,2.798-1.699,3.597-1.999c1.399-0.499,3.198-0.799,5.296-0.799
			c4.197,0,7.895,1.398,10.993,4.197c3.098,2.798,4.697,6.995,4.697,12.391c0,4.697-1.499,8.895-4.498,12.591
			c-2.997,3.698-7.594,5.598-13.59,5.598c-4.796,0-8.794-1.3-11.892-3.897c-3.098-2.599-4.796-6.296-5.196-11.093h9.992
			c0.4,2.198,1.2,3.897,2.299,4.997c1.099,1.099,2.798,1.799,4.896,1.799c2.499,0,4.396-0.9,5.696-2.599
			c1.299-1.699,1.898-3.897,1.898-6.596c0-2.599-0.599-4.796-1.799-6.595C95.734,72.857,93.835,72.058,91.237,72.058z"/>
	</g>
</g>
</svg>
