<?xml version="1.0" encoding="utf-8"?>
<!-- Generator: Adobe Illustrator 16.0.0, SVG Export Plug-In . SVG Version: 6.00 Build 0)  -->
<!DOCTYPE svg PUBLIC "-//W3C//DTD SVG 1.1//EN" "http://www.w3.org/Graphics/SVG/1.1/DTD/svg11.dtd">
<svg version="1.1" id="_x35_0m" xmlns="http://www.w3.org/2000/svg" xmlns:xlink="http://www.w3.org/1999/xlink" x="0px" y="0px"
	 width="144px" height="144px" viewBox="0 0 144 144" enable-background="new 0 0 144 144" xml:space="preserve">
<circle fill="#FFFFFF" cx="72" cy="72" r="72"/>
<g>
	<g>
		<path fill="#010101" d="M54,64.2c4.5,0,8.199,1.5,11.1,4.6s4.301,7,4.301,11.8s-1.4,8.899-4.199,12.6
			C62.4,96.8,58,98.601,52,98.601c-6.4,0-11.199-2.701-14.199-8.102c-2.4-4.199-3.5-9.6-3.5-16.199c0-3.9,0.199-7.1,0.5-9.5
			c0.6-4.3,1.699-8,3.4-10.801c1.5-2.499,3.398-4.398,5.699-5.898c2.301-1.501,5.199-2.2,8.5-2.2c4.699,0,8.5,1.199,11.301,3.6
			c2.799,2.399,4.398,5.7,4.799,9.7h-10c0-0.801-0.299-1.7-1-2.7c-1.1-1.601-2.699-2.4-4.9-2.4c-3.299,0-5.6,1.8-7,5.5
			c-0.799,2-1.299,5-1.5,8.899c1.201-1.499,2.701-2.6,4.301-3.199C50,64.5,51.9,64.2,54,64.2z M47.201,73.7c-2,1.5-3,4-3,7.399
			c0,2.7,0.699,5.001,2.199,6.7s3.301,2.6,5.6,2.6c2.201,0,4-0.8,5.301-2.5c1.299-1.7,1.9-3.799,1.9-6.5c0-3-0.701-5.3-2.201-6.8
			c-1.5-1.499-3.199-2.4-5.299-2.4C50,72.199,48.5,72.7,47.201,73.7z"/>
		<path fill="#010101" d="M91.801,98.499c-6.5,0-11-2.299-13.701-6.799c-2.6-4.6-3.9-11-3.9-19.4s1.301-14.9,3.9-19.5
			S85.301,45.9,91.801,45.9s11.1,2.3,13.699,6.899s3.9,11.1,3.9,19.5s-1.301,14.9-3.9,19.4S98.301,98.499,91.801,98.499z
			 M97.699,85.7c0.9-3.101,1.4-7.6,1.4-13.4c0-6.1-0.5-10.7-1.4-13.6c-0.898-2.9-2.9-4.4-5.799-4.4c-3,0-4.9,1.5-5.9,4.4
			c-1,3-1.4,7.5-1.4,13.6c0,5.9,0.5,10.3,1.4,13.4c0.9,3.1,2.9,4.699,5.9,4.699C94.799,90.3,96.801,88.8,97.699,85.7z"/>
	</g>
	<path fill="#F69321" d="M138.299,44c-3.6-8.601-8.799-16.3-15.398-22.899C116.299,14.5,108.6,9.3,100,5.7
		C91.199,1.899,81.699,0,72,0S52.801,1.899,44,5.7c-8.6,3.6-16.299,8.8-22.9,15.4C14.5,27.7,9.301,35.399,5.699,44
		C1.9,52.8,0,62.3,0,72s1.9,19.2,5.699,28c3.602,8.599,8.801,16.3,15.4,22.899C27.701,129.5,35.4,134.7,44,138.3
		c8.9,3.801,18.301,5.7,28,5.7s19.199-1.899,28-5.7c8.6-3.6,16.299-8.8,22.9-15.4c6.6-6.6,11.799-14.301,15.398-22.899
		C142.1,91.1,144,81.7,144,72S142.1,52.8,138.299,44z M28.4,28.399C40,16.7,55.5,10.3,72,10.3c14.201,0,27.701,4.801,38.6,13.6
		L23.801,110.7c-8.701-11-13.5-24.501-13.5-38.7C10.301,55.499,16.701,39.999,28.4,28.399z M115.701,115.7
		C104,127.3,88.5,133.7,72,133.7c-14.699,0-28.6-5.1-39.799-14.5l86.998-87c9.4,11.1,14.5,25,14.5,39.8
		C133.699,88.501,127.301,103.999,115.701,115.7z"/>
</g>
</svg>
