<?xml version="1.0" encoding="utf-8"?>
<!-- Generator: Adobe Illustrator 16.0.0, SVG Export Plug-In . SVG Version: 6.00 Build 0)  -->
<!DOCTYPE svg PUBLIC "-//W3C//DTD SVG 1.1//EN" "http://www.w3.org/Graphics/SVG/1.1/DTD/svg11.dtd">
<svg version="1.1" id="_x35_0m" xmlns="http://www.w3.org/2000/svg" xmlns:xlink="http://www.w3.org/1999/xlink" x="0px" y="0px"
	 width="144px" height="144px" viewBox="0 0 144 144" enable-background="new 0 0 144 144" xml:space="preserve">
<circle fill="#FFFFFF" cx="72" cy="72" r="72"/>
<g>
	<path fill="#F69321" d="M72,144.157c-9.7,0-19.2-1.899-28-5.7c-8.6-3.6-16.3-8.8-22.9-15.4c-6.6-6.6-11.8-14.301-15.399-22.899
		c-3.8-8.8-5.7-18.3-5.7-28s1.9-19.2,5.7-28c3.6-8.601,8.8-16.3,15.399-22.899C27.7,14.657,35.4,9.457,44,5.857
		c8.8-3.801,18.3-5.7,28-5.7c9.699,0,19.2,1.899,28,5.7c8.6,3.6,16.3,8.8,22.899,15.4c6.601,6.6,11.801,14.299,15.4,22.899
		c3.8,8.9,5.7,18.3,5.7,28s-1.9,19.2-5.7,28c-3.6,8.599-8.8,16.3-15.4,22.899c-6.6,6.601-14.3,11.801-22.899,15.4
		C91.2,142.258,81.699,144.157,72,144.157z M72,10.457c-16.5,0-32,6.4-43.699,18.1c-11.7,11.7-18,27.1-18,43.601
		s6.399,31.999,18.1,43.7c11.699,11.699,27.2,18.1,43.699,18.1c16.501,0,32-6.4,43.7-18.1
		c11.699-11.701,18.101-27.199,18.101-43.601c0-16.399-6.401-32-18.101-43.7C104.1,16.857,88.5,10.457,72,10.457z"/>
	<g>
		<path fill="#010101" d="M69.601,78.557v7.8H63.8v11.001H54V86.356H33.9v-8.8l18.7-30.9H63.8v31.801
			C63.8,78.557,69.601,78.557,69.601,78.557z M41.3,78.557H54v-22L41.3,78.557z"/>
		<path fill="#010101" d="M91.2,72.057c-1.2,0-2.3,0.2-3.2,0.5c-1.601,0.601-2.8,1.602-3.6,3.1l-9-0.399l3.6-28.2h28.1v8.5H86.3
			l-1.8,11.101c1.6-1,2.8-1.7,3.601-2c1.399-0.5,3.199-0.8,5.299-0.8c4.2,0,7.9,1.399,11.001,4.299c3.1,2.801,4.7,7,4.7,12.4
			c0,4.701-1.501,8.9-4.501,12.601s-7.6,5.601-13.601,5.601c-4.799,0-8.8-1.301-11.899-3.9s-4.8-6.301-5.2-11.101H83.9
			c0.399,2.2,1.199,3.9,2.3,5c1.1,1.101,2.8,1.8,4.899,1.8c2.5,0,4.4-0.9,5.7-2.6s1.9-3.9,1.9-6.6c0-2.6-0.601-4.801-1.8-6.601
			C95.699,72.957,93.8,72.057,91.2,72.057z"/>
	</g>
</g>
</svg>
