<?xml version="1.0" encoding="utf-8"?>
<!-- Generator: Adobe Illustrator 16.0.0, SVG Export Plug-In . SVG Version: 6.00 Build 0)  -->
<!DOCTYPE svg PUBLIC "-//W3C//DTD SVG 1.1//EN" "http://www.w3.org/Graphics/SVG/1.1/DTD/svg11.dtd">
<svg version="1.1" id="_x35_0m" xmlns="http://www.w3.org/2000/svg" xmlns:xlink="http://www.w3.org/1999/xlink" x="0px" y="0px"
	 width="144px" height="144px" viewBox="0 0 144 144" enable-background="new 0 0 144 144" xml:space="preserve">
<circle fill="#FFFFFF" cx="72" cy="72" r="72"/>
<g>
	<g>
		<path fill="#010101" d="M57,56.758c-1.2-1.4-2.899-2.102-5.1-2.102c-3,0-5.101,1.102-6.2,3.4c-0.6,1.301-1,3.4-1.1,6.301h-9.7
			c0.2-4.301,1-7.801,2.399-10.5c2.7-5.1,7.4-7.601,14.2-7.601c5.4,0,9.7,1.5,12.9,4.5s4.8,6.9,4.8,11.899
			c0,3.801-1.101,7.102-3.4,10.001c-1.499,1.9-3.899,4.1-7.3,6.5l-4,2.8c-2.5,1.8-4.199,3.1-5.199,3.9
			c-1.001,0.8-1.7,1.699-2.301,2.801h22.2v8.799h-35c0.1-3.699,0.9-7,2.4-10c1.399-3.4,4.8-7,10.1-10.801c4.6-3.299,7.6-5.699,9-7.1
			c2.101-2.199,3.1-4.699,3.1-7.3C58.8,60.057,58.2,58.257,57,56.758z"/>
		<path fill="#010101" d="M91.2,72.057c-1.2,0-2.3,0.2-3.2,0.5c-1.601,0.601-2.8,1.602-3.6,3.1l-9-0.399l3.6-28.2h28.1v8.5H86.3
			l-1.8,11.101c1.6-1,2.8-1.7,3.601-2c1.399-0.5,3.199-0.8,5.299-0.8c4.2,0,7.9,1.399,11.001,4.299c3.1,2.801,4.7,7,4.7,12.4
			c0,4.701-1.501,8.9-4.501,12.601c-2.999,3.7-7.6,5.601-13.6,5.601c-4.8,0-8.8-1.301-11.9-3.9c-3.1-2.6-4.8-6.301-5.199-11.101h10
			c0.399,2.2,1.199,3.9,2.3,5c1.1,1.101,2.8,1.8,4.899,1.8c2.501,0,4.4-0.9,5.7-2.6s1.9-3.9,1.9-6.6c0-2.6-0.601-4.801-1.8-6.601
			C95.699,72.957,93.8,72.057,91.2,72.057z"/>
	</g>
	<path fill="#F69321" d="M138.3,44.157c-3.6-8.601-8.8-16.3-15.4-22.899c-6.6-6.601-14.299-11.801-22.899-15.4
		c-8.8-3.801-18.301-5.7-28-5.7c-9.7,0-19.199,1.899-28,5.7c-8.6,3.6-16.3,8.8-22.899,15.4c-6.601,6.6-11.8,14.299-15.4,22.899
		c-3.8,8.8-5.7,18.3-5.7,28s1.9,19.2,5.7,28c3.601,8.599,8.8,16.3,15.4,22.899c6.6,6.601,14.3,11.801,22.899,15.4
		c8.9,3.801,18.3,5.7,28,5.7c9.699,0,19.2-1.899,28-5.7c8.601-3.6,16.3-8.8,22.899-15.4c6.601-6.6,11.801-14.301,15.4-22.899
		c3.8-8.9,5.7-18.3,5.7-28S142.1,52.957,138.3,44.157z M28.4,28.557c11.6-11.699,27.1-18.1,43.6-18.1c14.2,0,27.7,4.801,38.6,13.6
		l-86.799,86.801c-8.7-11-13.5-24.501-13.5-38.7C10.301,55.656,16.7,40.156,28.4,28.557z M115.7,115.857c-11.7,11.6-27.2,18-43.7,18
		c-14.699,0-28.6-5.1-39.8-14.5l87-87c9.399,11.1,14.5,25,14.5,39.8C133.7,88.658,127.3,104.156,115.7,115.857z"/>
</g>
</svg>
