<?xml version="1.0" encoding="utf-8"?>
<!-- Generator: Adobe Illustrator 16.0.0, SVG Export Plug-In . SVG Version: 6.00 Build 0)  -->
<!DOCTYPE svg PUBLIC "-//W3C//DTD SVG 1.1//EN" "http://www.w3.org/Graphics/SVG/1.1/DTD/svg11.dtd">
<svg version="1.1" id="_x35_0m" xmlns="http://www.w3.org/2000/svg" xmlns:xlink="http://www.w3.org/1999/xlink" x="0px" y="0px"
	 width="144px" height="144px" viewBox="0 0 144 144" enable-background="new 0 0 144 144" xml:space="preserve">
<circle fill="#FFFFFF" cx="72" cy="72" r="72"/>
<g>
	<g>
		<path fill="#010101" d="M39.301,97.199H29V62.1H17v-6.8c3.199-0.101,5.4-0.3,6.6-0.601c2-0.499,3.701-1.3,4.9-2.7
			c0.9-0.899,1.5-2.1,2-3.699c0.301-0.9,0.4-1.6,0.4-2h8.299L39.301,97.199L39.301,97.199z"/>
		<path fill="#010101" d="M77.102,56.6c-1.201-1.4-2.9-2.1-5.102-2.1c-3.1,0-5.1,1.1-6.199,3.399c-0.6,1.301-1,3.4-1.102,6.301H55
			c0.199-4.301,1-7.801,2.4-10.5c2.699-5.101,7.4-7.6,14.199-7.6c5.4,0,9.701,1.499,12.9,4.499
			c3.201,3.001,4.801,6.899,4.801,11.899c0,3.801-1.1,7.101-3.4,10c-1.5,1.9-3.9,4.1-7.301,6.5l-4,2.801
			c-2.5,1.799-4.199,3.1-5.199,3.9c-1,0.799-1.701,1.699-2.301,2.799h22.102V97.3h-34.9c0.1-3.7,0.898-7,2.398-10
			c1.4-3.4,4.801-7,10.102-10.8c4.6-3.3,7.6-5.7,9-7.101c2.1-2.199,3.1-4.699,3.1-7.3C78.9,59.899,78.301,58.1,77.102,56.6z"/>
		<path fill="#010101" d="M111.9,98.499c-6.5,0-11-2.3-13.701-6.799c-2.6-4.601-3.898-11-3.898-19.4s1.299-14.9,3.898-19.5
			c2.602-4.601,7.201-6.9,13.701-6.9s11.1,2.3,13.699,6.9c2.6,4.6,3.9,11.1,3.9,19.5s-1.301,14.9-3.9,19.4
			C123,96.199,118.4,98.499,111.9,98.499z M117.801,85.7c0.898-3.102,1.398-7.601,1.398-13.4c0-6.1-0.5-10.7-1.398-13.6
			c-0.9-2.9-2.9-4.4-5.801-4.4c-3,0-4.9,1.5-5.9,4.4c-0.998,2.899-1.4,7.5-1.4,13.6c0,5.9,0.5,10.299,1.4,13.4
			c0.9,3.1,2.9,4.699,5.9,4.699C114.9,90.3,116.9,88.8,117.801,85.7z"/>
	</g>
	<path fill="#F69321" d="M138.4,43.999c-3.6-8.6-8.801-16.299-15.4-22.899c-6.6-6.6-14.299-11.8-22.9-15.4
		C91.199,1.899,81.799,0,72.1,0S53,1.899,44.1,5.699C35.5,9.3,27.801,14.5,21.199,21.1C14.6,27.7,9.4,35.399,5.701,43.999
		C1.9,52.899,0,62.3,0,71.999c0,9.7,1.9,19.2,5.701,28c3.6,8.601,8.799,16.301,15.398,22.9S35.4,134.7,44,138.3
		c8.9,3.8,18.301,5.699,28,5.699c9.701,0,19.199-1.899,28-5.699c8.6-3.6,16.301-8.801,22.9-15.4s11.799-14.3,15.398-22.9
		c3.801-8.9,5.701-18.3,5.701-28C144,62.3,142.199,52.8,138.4,43.999z M28.4,28.399C40.1,16.7,55.6,10.3,72.1,10.3
		c14.201,0,27.701,4.8,38.602,13.6l-86.801,86.8C15.1,99.8,10.4,86.3,10.4,72.1C10.4,55.499,16.801,40,28.4,28.399z M115.701,115.7
		C104,127.399,88.5,133.8,72,133.8c-14.699,0-28.6-5.1-39.801-14.5l87-87c9.4,11.1,14.5,25,14.5,39.8
		C133.801,88.499,127.4,104,115.701,115.7z"/>
</g>
</svg>
