<?xml version="1.0" encoding="utf-8"?>
<!-- Generator: Adobe Illustrator 16.0.0, SVG Export Plug-In . SVG Version: 6.00 Build 0)  -->
<!DOCTYPE svg PUBLIC "-//W3C//DTD SVG 1.1//EN" "http://www.w3.org/Graphics/SVG/1.1/DTD/svg11.dtd">
<svg version="1.1" id="_x35_0m" xmlns="http://www.w3.org/2000/svg" xmlns:xlink="http://www.w3.org/1999/xlink" x="0px" y="0px"
	 width="144px" height="144px" viewBox="0 0 144 144" enable-background="new 0 0 144 144" xml:space="preserve">
<circle fill="#FFFFFF" cx="72" cy="72" r="72"/>
<g>
	<g>
		<g>
			<defs>
				<polygon id="SVGID_5_" points="-213.87,-428.74 -212.87,-428.74 -213.87,-427.74 				"/>
			</defs>
			<defs>
				<polygon id="SVGID_6_" points="-215.87,-430.74 -216.87,-430.74 -215.87,-431.74 				"/>
			</defs>
			<clipPath id="SVGID_4_">
				<use xlink:href="#SVGID_5_"  overflow="visible"/>
			</clipPath>
			<clipPath id="SVGID_7_" clip-path="url(#SVGID_4_)">
				<use xlink:href="#SVGID_6_"  overflow="visible"/>
			</clipPath>
		</g>
	</g>
</g>
<g>
	<g>
		<g>
			<defs>
				<polygon id="SVGID_31_" points="-213.87,-428.74 -212.87,-428.74 -213.87,-427.74 				"/>
			</defs>
			<defs>
				<polygon id="SVGID_32_" points="-215.87,-430.74 -216.87,-430.74 -215.87,-431.74 				"/>
			</defs>
			<clipPath id="SVGID_8_">
				<use xlink:href="#SVGID_31_"  overflow="visible"/>
			</clipPath>
			<clipPath id="SVGID_11_" clip-path="url(#SVGID_8_)">
				<use xlink:href="#SVGID_32_"  overflow="visible"/>
			</clipPath>
		</g>
	</g>
</g>
<g>
	<path fill="#F69321" d="M72.05,143.95c-9.693,0-19.188-1.899-27.98-5.696c-8.594-3.598-16.289-8.793-22.885-15.39
		c-6.594-6.595-11.791-14.29-15.488-22.884C1.899,91.087,0.001,81.693,0.001,72s1.898-19.187,5.695-27.98
		c3.598-8.594,8.793-16.289,15.389-22.884S35.476,9.344,44.069,5.746c8.895-3.697,18.287-5.695,27.98-5.695
		s19.188,1.898,27.98,5.695c8.594,3.598,16.289,8.795,22.885,15.39c6.594,6.595,11.791,14.29,15.389,22.884
		c3.799,8.895,5.695,18.287,5.695,27.98s-1.896,19.188-5.695,27.98c-3.598,8.594-8.795,16.289-15.389,22.884
		c-6.596,6.597-14.291,11.792-22.885,15.39C91.138,142.051,81.743,143.95,72.05,143.95z M72.05,10.343
		c-16.488,0-31.977,6.396-43.67,18.087C16.688,40.123,10.394,55.512,10.394,72s6.395,31.978,18.086,43.67
		c11.691,11.691,27.182,18.088,43.67,18.088c16.49,0,31.979-6.396,43.67-18.088c11.691-11.692,18.088-27.182,18.088-43.67
		s-6.396-31.979-18.088-43.67S88.538,10.343,72.05,10.343z"/>
	<g>
		<path fill="#010101" d="M38.274,94.084c-2.898-2.997-4.398-6.595-4.398-10.893c0-2.896,0.699-5.395,2-7.795
			c1.299-2.397,3.197-4.096,5.695-5.195c-2.498-1.599-4.098-3.397-4.797-5.296c-0.699-1.899-1.1-3.698-1.1-5.396
			c0-3.698,1.398-6.896,4.197-9.493c2.799-2.599,6.695-3.897,11.793-3.897c5.096,0,8.992,1.299,11.791,3.897
			c2.797,2.598,4.197,5.795,4.197,9.493c0,1.698-0.4,3.497-1.1,5.396c-0.699,1.898-2.299,3.597-4.797,4.996
			c2.498,1.399,4.396,3.298,5.697,5.597c1.299,2.299,1.898,4.896,1.898,7.794c0,4.298-1.6,7.896-4.797,10.893
			c-3.199,2.999-7.596,4.497-13.291,4.497S41.271,97.082,38.274,94.084z M44.37,82.393c0,2.498,0.699,4.396,1.998,5.796
			s3.098,2.099,5.396,2.099s4.098-0.699,5.396-2.099s1.998-3.298,1.998-5.796c0-2.598-0.699-4.596-1.998-5.896
			c-1.299-1.398-3.098-1.998-5.396-1.998s-3.998,0.699-5.396,1.998C44.97,77.896,44.37,79.795,44.37,82.393z M46.968,65.105
			c1.1,1.199,2.697,1.799,4.697,1.799c1.998,0,3.596-0.6,4.695-1.799c1.1-1.2,1.699-2.699,1.699-4.497
			c0-1.999-0.6-3.598-1.699-4.697c-1.1-1.099-2.697-1.698-4.695-1.698c-2,0-3.598,0.6-4.697,1.698c-1.1,1.1-1.799,2.599-1.799,4.597
			C45.269,62.406,45.769,63.905,46.968,65.105z"/>
		<path fill="#010101" d="M91.237,71.9c-1.199,0-2.299,0.199-3.199,0.5c-1.598,0.599-2.797,1.598-3.596,3.098l-8.994-0.4
			l3.697-28.18h27.98v8.494H86.341l-1.799,11.092c1.598-0.999,2.797-1.699,3.598-1.998c1.398-0.5,3.197-0.8,5.295-0.8
			c4.197,0,7.896,1.399,10.994,4.196c3.098,2.799,4.695,6.996,4.695,12.393c0,4.695-1.498,8.893-4.496,12.591
			c-2.998,3.696-7.596,5.597-13.592,5.597c-4.797,0-8.793-1.299-11.891-3.898c-3.1-2.598-4.797-6.295-5.197-11.092h9.994
			c0.398,2.197,1.199,3.896,2.297,4.996c1.1,1.1,2.799,1.799,4.898,1.799c2.496,0,4.396-0.898,5.695-2.598s1.898-3.897,1.898-6.596
			c0-2.598-0.6-4.797-1.799-6.596S93.835,71.9,91.237,71.9z"/>
	</g>
</g>
</svg>
