<?xml version="1.0" encoding="utf-8"?>
<!-- Generator: Adobe Illustrator 16.0.0, SVG Export Plug-In . SVG Version: 6.00 Build 0)  -->
<!DOCTYPE svg PUBLIC "-//W3C//DTD SVG 1.1//EN" "http://www.w3.org/Graphics/SVG/1.1/DTD/svg11.dtd">
<svg version="1.1" id="_x35_0m" xmlns="http://www.w3.org/2000/svg" xmlns:xlink="http://www.w3.org/1999/xlink" x="0px" y="0px"
	 width="144px" height="144px" viewBox="0 0 144 144" enable-background="new 0 0 144 144" xml:space="preserve">
<circle fill="#FFFFFF" cx="72" cy="72" r="72"/>
<g>
	<g>
		<path fill="#010101" d="M63.7,62.7c-2.7,3.8-4.899,7.7-6.7,11.699c-1.399,3.201-2.7,7-3.899,11.601c-1.2,4.6-1.7,8.3-1.7,11.2H41
			c0.3-9.1,3.301-18.6,9-28.5c3.7-6.1,6.8-10.4,9.2-12.8H33.9l0.1-9.001h36.001V54.7C68.5,56.3,66.399,58.899,63.7,62.7z"/>
		<path fill="#010101" d="M91.9,98.499c-6.5,0-11.001-2.299-13.7-6.799c-2.6-4.6-3.899-11-3.899-19.4s1.3-14.9,3.899-19.5
			c2.601-4.6,7.2-6.9,13.7-6.9S103,48.2,105.6,52.8c2.601,4.6,3.9,11.1,3.9,19.5s-1.3,14.9-3.9,19.4
			C103,96.3,98.4,98.499,91.9,98.499z M97.8,85.7c0.9-3.101,1.4-7.6,1.4-13.4c0-6.1-0.5-10.699-1.4-13.6
			c-0.899-2.9-2.9-4.4-5.799-4.4c-3.001,0-4.9,1.5-5.901,4.4c-1,3-1.399,7.5-1.399,13.6c0,5.9,0.5,10.3,1.399,13.4
			c0.9,3.1,2.9,4.7,5.901,4.7C94.899,90.4,96.9,88.8,97.8,85.7z"/>
	</g>
	<path fill="#F69321" d="M138.4,44c-3.601-8.6-8.8-16.3-15.4-22.899S108.7,9.3,100.1,5.7c-8.899-3.8-18.3-5.699-28-5.699
		C62.4,0.001,53,1.9,44.1,5.7c-8.6,3.6-16.3,8.801-22.899,15.4C14.6,27.7,9.4,35.4,5.7,44C1.9,52.899,0,62.3,0,72s1.9,19.2,5.7,28
		c3.601,8.601,8.8,16.3,15.4,22.899C27.7,129.5,35.4,134.7,44,138.3c8.9,3.801,18.3,5.7,28,5.7s19.2-1.899,28-5.7
		c8.601-3.6,16.301-8.8,22.899-15.4c6.601-6.6,11.801-14.299,15.4-22.899c3.8-8.9,5.7-18.3,5.7-28S142.2,52.899,138.4,44z
		 M28.4,28.4C40,16.7,55.601,10.3,72,10.3c14.2,0,27.7,4.801,38.601,13.6L23.8,110.7C15.1,99.7,10.4,86.2,10.4,72
		C10.4,55.5,16.8,40.001,28.4,28.4z M115.7,115.7C104,127.399,88.5,133.8,72,133.8c-14.699,0-28.6-5.1-39.8-14.5l87-87
		c9.399,11.1,14.5,25,14.5,39.801C133.8,88.5,127.4,104.001,115.7,115.7z"/>
</g>
</svg>
