<?xml version="1.0" encoding="utf-8"?>
<!-- Generator: Adobe Illustrator 16.0.0, SVG Export Plug-In . SVG Version: 6.00 Build 0)  -->
<!DOCTYPE svg PUBLIC "-//W3C//DTD SVG 1.1//EN" "http://www.w3.org/Graphics/SVG/1.1/DTD/svg11.dtd">
<svg version="1.1" id="_x35_0m" xmlns="http://www.w3.org/2000/svg" xmlns:xlink="http://www.w3.org/1999/xlink" x="0px" y="0px"
	 width="144px" height="144px" viewBox="0 0 144 144" enable-background="new 0 0 144 144" xml:space="preserve">
<circle fill="#FFFFFF" cx="72" cy="72" r="72"/>
<g>
	<g>
		<path fill="#010101" d="M71.1,72.399c-1.199,0-2.3,0.2-3.2,0.5C66.3,73.5,65.1,74.5,64.3,76l-9-0.4l3.6-28.199H87v8.5H66.2
			L64.399,67C66,66,67.2,65.3,68,65c1.399-0.5,3.2-0.8,5.3-0.8c4.2,0,7.899,1.399,11,4.2c3.1,2.8,4.7,7,4.7,12.399
			c0,4.7-1.5,8.899-4.501,12.6c-2.999,3.7-7.6,5.6-13.6,5.6c-4.8,0-8.8-1.299-12-3.898C55.8,92.5,54.1,88.8,53.7,83.999h10
			C64.1,86.2,64.9,87.899,66,89c1.1,1.1,2.8,1.8,4.899,1.8c2.5,0,4.4-0.899,5.7-2.601c1.3-1.699,1.9-3.899,1.9-6.599
			C78.5,79,77.899,76.8,76.7,75C75.5,73.2,73.6,72.399,71.1,72.399z"/>
	</g>
	<path fill="#F69321" d="M138.3,44c-3.601-8.6-8.8-16.3-15.4-22.9C116.3,14.5,108.6,9.3,100,5.7C91.199,1.9,81.699,0,72,0
		c-9.7,0-19.2,1.9-28,5.7C35.4,9.3,27.7,14.5,21.1,21.1C14.5,27.7,9.3,35.4,5.7,44C1.9,52.8,0,62.3,0,72c0,9.699,1.9,19.2,5.7,28
		c3.6,8.6,8.8,16.3,15.399,22.899C27.7,129.5,35.4,134.7,44,138.3c8.9,3.8,18.3,5.7,28,5.7c9.699,0,19.199-1.9,28-5.7
		c8.6-3.6,16.3-8.8,22.899-15.4c6.601-6.6,11.8-14.3,15.4-22.899c3.8-8.9,5.7-18.301,5.7-28C144,62.3,142.1,52.8,138.3,44z
		 M28.4,28.4C40,16.7,55.5,10.3,72,10.3c14.2,0,27.7,4.8,38.6,13.6l-86.8,86.8C15.101,99.7,10.3,86.2,10.3,72
		C10.3,55.5,16.7,40,28.4,28.4z M115.7,115.7c-11.7,11.6-27.2,18-43.7,18c-14.7,0-28.6-5.101-39.8-14.501L119.199,32.2
		c9.4,11.101,14.5,25,14.5,39.8C133.699,88.5,127.3,104,115.7,115.7z"/>
</g>
</svg>
