<?xml version="1.0" encoding="utf-8"?>
<!-- Generator: Adobe Illustrator 16.0.0, SVG Export Plug-In . SVG Version: 6.00 Build 0)  -->
<!DOCTYPE svg PUBLIC "-//W3C//DTD SVG 1.1//EN" "http://www.w3.org/Graphics/SVG/1.1/DTD/svg11.dtd">
<svg version="1.1" id="_x35_0m" xmlns="http://www.w3.org/2000/svg" xmlns:xlink="http://www.w3.org/1999/xlink" x="0px" y="0px"
	 width="144px" height="144px" viewBox="0 0 144 144" enable-background="new 0 0 144 144" xml:space="preserve">
<circle fill="#FFFFFF" cx="72" cy="72" r="72"/>
<g>
	<g>
		<g>
			<defs>
				<polygon id="SVGID_5_" points="1,-213.87 2,-213.87 1,-212.87 				"/>
			</defs>
			<defs>
				<polygon id="SVGID_6_" points="-1,-215.87 -2,-215.87 -1,-216.87 				"/>
			</defs>
			<clipPath id="SVGID_4_">
				<use xlink:href="#SVGID_5_"  overflow="visible"/>
			</clipPath>
			<clipPath id="SVGID_7_" clip-path="url(#SVGID_4_)">
				<use xlink:href="#SVGID_6_"  overflow="visible"/>
			</clipPath>
		</g>
	</g>
</g>
<g>
	<g>
		<g>
			<defs>
				<polygon id="SVGID_31_" points="1,-213.87 2,-213.87 1,-212.87 				"/>
			</defs>
			<defs>
				<polygon id="SVGID_32_" points="-1,-215.87 -2,-215.87 -1,-216.87 				"/>
			</defs>
			<clipPath id="SVGID_8_">
				<use xlink:href="#SVGID_31_"  overflow="visible"/>
			</clipPath>
			<clipPath id="SVGID_11_" clip-path="url(#SVGID_8_)">
				<use xlink:href="#SVGID_32_"  overflow="visible"/>
			</clipPath>
		</g>
	</g>
</g>
<g>
	<g>
		<path fill="#010101" d="M51.201,71.899c-1.2,0-2.301,0.2-3.2,0.5c-1.6,0.601-2.8,1.602-3.5,3.1l-9-0.399l3.6-28.2h28.101v8.5
			h-20.8L44.6,66.5c1.5-1,2.801-1.7,3.601-2c1.5-0.5,3.2-0.8,5.3-0.8c4.2,0,7.899,1.399,11,4.299c3.1,2.801,4.7,7,4.7,12.4
			c0,4.701-1.5,8.9-4.5,12.601s-7.5,5.601-13.6,5.601c-4.801,0-8.801-1.301-12.001-3.9c-3.1-2.6-4.8-6.301-5.199-11.101h10
			c0.399,2.2,1.199,3.9,2.3,5c1.1,1.101,2.8,1.8,4.9,1.8c2.499,0,4.399-0.9,5.699-2.6c1.301-1.699,2-3.9,2-6.6
			c0-2.6-0.6-4.801-1.8-6.601C55.701,72.8,53.8,71.899,51.201,71.899z"/>
		<path fill="#010101" d="M91.3,71.899c-1.2,0-2.301,0.2-3.2,0.5c-1.6,0.601-2.8,1.602-3.6,3.1l-9-0.399l3.699-28.2h28v8.5H86.4
			L84.6,66.5c1.6-1,2.801-1.7,3.601-2c1.399-0.5,3.199-0.8,5.3-0.8c4.2,0,7.9,1.399,11,4.299c3.1,2.801,4.699,7,4.699,12.4
			c0,4.701-1.5,8.9-4.499,12.601C101.7,96.7,97.1,98.601,91.1,98.601c-4.8,0-8.8-1.301-11.9-3.9c-3.1-2.6-4.799-6.301-5.2-11.101H84
			c0.399,2.2,1.199,3.9,2.3,5c1.101,1.101,2.8,1.8,4.9,1.8c2.499,0,4.399-0.9,5.699-2.6c1.301-1.699,1.9-3.9,1.9-6.6
			c0-2.6-0.6-4.801-1.8-6.601S93.9,71.899,91.3,71.899z"/>
	</g>
	<path fill="#F69321" d="M138.4,44c-3.6-8.601-8.8-16.3-15.4-22.899C116.401,14.5,108.7,9.3,100.101,5.7
		c-8.9-3.801-18.301-5.7-28-5.7c-9.7,0-19.101,1.899-28,5.7c-8.601,3.6-16.301,8.8-22.9,15.4c-6.6,6.6-11.8,14.299-15.5,22.899
		C1.901,52.9,0,62.3,0,72s1.9,19.2,5.7,28c3.6,8.599,8.8,16.3,15.4,22.899C27.701,129.5,35.4,134.7,44,138.3
		c8.9,3.801,18.3,5.7,28,5.7s19.2-1.899,28-5.7c8.6-3.6,16.3-8.8,22.9-15.4c6.6-6.6,11.799-14.301,15.399-22.899
		C142.1,91.1,144,81.7,144,72S142.2,52.8,138.4,44z M28.4,28.399C40.1,16.7,55.6,10.3,72.101,10.3c14.199,0,27.699,4.801,38.6,13.6
		l-86.8,86.801c-8.8-10.9-13.5-24.4-13.5-38.601C10.401,55.499,16.8,39.999,28.4,28.399z M115.7,115.7
		C104,127.399,88.5,133.8,72,133.8c-14.7,0-28.601-5.101-39.8-14.5l87-87c9.398,11.1,14.5,25,14.5,39.8
		C133.799,88.501,127.4,103.999,115.7,115.7z"/>
</g>
</svg>
