<?xml version="1.0" encoding="utf-8"?>
<!-- Generator: Adobe Illustrator 16.0.0, SVG Export Plug-In . SVG Version: 6.00 Build 0)  -->
<!DOCTYPE svg PUBLIC "-//W3C//DTD SVG 1.1//EN" "http://www.w3.org/Graphics/SVG/1.1/DTD/svg11.dtd">
<svg version="1.1" id="_x35_0m" xmlns="http://www.w3.org/2000/svg" xmlns:xlink="http://www.w3.org/1999/xlink" x="0px" y="0px"
	 width="144px" height="144px" viewBox="0 0 144 144" enable-background="new 0 0 144 144" xml:space="preserve">
<circle fill="#FFFFFF" cx="72" cy="72" r="72"/>
<g>
	<path fill="#F69321" d="M72.051,143.949c-9.694,0-19.188-1.898-27.981-5.695c-8.593-3.598-16.288-8.794-22.884-15.391
		C14.59,116.269,9.395,108.574,5.696,99.98C1.898,91.086,0,81.693,0,72s1.898-19.188,5.696-27.98
		c3.597-8.595,8.794-16.289,15.39-22.885C27.682,14.54,35.477,9.344,44.069,5.746C52.963,2.048,62.356,0.05,72.051,0.05
		c9.692,0,19.186,1.898,27.979,5.696c8.595,3.598,16.289,8.794,22.884,15.389c6.596,6.596,11.793,14.29,15.39,22.885
		C142.102,52.913,144,62.307,144,72s-1.898,19.187-5.696,27.98c-3.597,8.594-8.794,16.288-15.39,22.883
		c-6.595,6.597-14.289,11.793-22.884,15.391C91.137,142.051,81.743,143.949,72.051,143.949z M72.051,10.342
		c-16.489,0-31.979,6.396-43.67,18.088C16.688,40.122,10.393,55.511,10.393,72c0,16.488,6.396,31.977,18.088,43.669
		s27.181,18.088,43.67,18.088c16.488,0,31.979-6.396,43.669-18.088c11.692-11.692,18.088-27.181,18.088-43.669
		c0-16.489-6.396-31.979-18.088-43.67C104.129,16.639,88.539,10.342,72.051,10.342z"/>
	<g>
		<path fill="#010101" d="M48.367,97.281H38.174V62.106H26.182v-6.795c3.198-0.101,5.396-0.3,6.596-0.6
			c1.999-0.399,3.697-1.3,4.896-2.698c0.9-0.899,1.499-2.099,1.999-3.697c0.3-0.9,0.399-1.6,0.399-1.999h8.295V97.281L48.367,97.281
			z"/>
		<path fill="#010101" d="M77.246,97.281H67.054V62.106H55.063v-6.795c3.197-0.101,5.396-0.3,6.595-0.6
			c1.999-0.399,3.698-1.3,4.896-2.698c0.899-0.899,1.499-2.099,1.999-3.697c0.3-0.9,0.399-1.6,0.399-1.999h8.294V97.281
			L77.246,97.281z"/>
		<path fill="#010101" d="M102.729,98.481c-6.496,0-10.993-2.3-13.69-6.796c-2.699-4.496-3.897-10.992-3.897-19.387
			s1.299-14.889,3.897-19.486c2.598-4.596,7.194-6.895,13.69-6.895c6.495,0,11.092,2.299,13.69,6.895
			c2.598,4.598,3.896,11.092,3.896,19.486s-1.299,14.891-3.896,19.387C113.821,96.182,109.225,98.481,102.729,98.481z
			 M108.525,85.689c0.899-3.098,1.398-7.594,1.398-13.391c0-6.095-0.499-10.691-1.398-13.59s-2.898-4.396-5.796-4.396
			c-2.898,0-4.897,1.498-5.897,4.396c-0.998,2.898-1.398,7.495-1.398,13.59c0,5.896,0.5,10.293,1.398,13.391
			c0.9,3.098,2.898,4.697,5.897,4.697C105.727,90.387,107.626,88.787,108.525,85.689z"/>
	</g>
</g>
</svg>
