<?xml version="1.0" encoding="utf-8"?>
<!-- Generator: Adobe Illustrator 16.0.0, SVG Export Plug-In . SVG Version: 6.00 Build 0)  -->
<!DOCTYPE svg PUBLIC "-//W3C//DTD SVG 1.1//EN" "http://www.w3.org/Graphics/SVG/1.1/DTD/svg11.dtd">
<svg version="1.1" id="_x35_0m" xmlns="http://www.w3.org/2000/svg" xmlns:xlink="http://www.w3.org/1999/xlink" x="0px" y="0px"
	 width="144px" height="144px" viewBox="0 0 144 144" enable-background="new 0 0 144 144" xml:space="preserve">
<circle fill="#FFFFFF" cx="72" cy="72" r="72"/>
<g>
	<g>
		<path fill="#010101" d="M54,64.2c4.5,0,8.199,1.5,11.1,4.6s4.301,7,4.301,11.8s-1.4,8.899-4.2,12.6C62.4,96.8,58,98.601,52,98.601
			c-6.399,0-11.2-2.701-14.2-8.102c-2.399-4.199-3.5-9.6-3.5-16.199c0-3.9,0.2-7.1,0.5-9.5c0.601-4.3,1.7-8,3.4-10.801
			c1.5-2.499,3.4-4.398,5.7-5.898c2.3-1.501,5.199-2.2,8.499-2.2c4.7,0,8.5,1.199,11.301,3.6c2.8,2.399,4.399,5.7,4.8,9.7h-10
			c0-0.801-0.3-1.7-1-2.7c-1.1-1.601-2.7-2.4-4.899-2.4c-3.301,0-5.601,1.8-7,5.5c-0.801,2-1.301,5-1.501,8.899
			c1.2-1.499,2.7-2.6,4.301-3.199C50,64.5,51.899,64.2,54,64.2z M47.2,73.7c-2,1.5-3,4-3,7.399c0,2.7,0.699,5.001,2.199,6.7
			c1.501,1.699,3.301,2.6,5.601,2.6c2.2,0,4-0.8,5.3-2.5s1.9-3.799,1.9-6.5c0-3-0.7-5.3-2.2-6.8c-1.5-1.499-3.2-2.4-5.3-2.4
			C50,72.199,48.5,72.7,47.2,73.7z"/>
		<path fill="#010101" d="M91.2,71.899c-1.2,0-2.301,0.2-3.2,0.5c-1.601,0.601-2.8,1.602-3.6,3.1L75.399,75.1L79,46.899h28.1v8.5
			H86.299l-1.8,11.101c1.601-1,2.801-1.7,3.601-2c1.4-0.5,3.2-0.8,5.3-0.8c4.2,0,7.9,1.399,11.001,4.299
			c3.1,2.801,4.699,7,4.699,12.4c0,4.701-1.5,8.9-4.5,12.601s-7.6,5.601-13.601,5.601c-4.799,0-8.8-1.301-11.899-3.9
			s-4.8-6.301-5.2-11.101H83.9c0.399,2.2,1.199,3.9,2.3,5c1.1,1.101,2.8,1.8,4.899,1.8c2.5,0,4.4-0.9,5.7-2.6s1.9-3.9,1.9-6.6
			c0-2.6-0.601-4.801-1.801-6.601S93.799,71.899,91.2,71.899z"/>
	</g>
	<path fill="#F69321" d="M138.3,44c-3.6-8.601-8.8-16.3-15.4-22.899C116.3,14.5,108.6,9.3,99.999,5.7C91.2,1.899,81.699,0,72,0
		c-9.7,0-19.2,1.899-28,5.7c-8.6,3.6-16.3,8.8-22.9,15.4C14.5,27.7,9.3,35.399,5.7,44C1.9,52.8,0,62.3,0,72s1.9,19.2,5.7,28
		c3.6,8.599,8.8,16.3,15.399,22.899C27.7,129.5,35.4,134.7,44,138.3c8.899,3.801,18.3,5.7,28,5.7c9.699,0,19.2-1.899,27.999-5.7
		c8.601-3.6,16.301-8.8,22.9-15.4c6.601-6.6,11.801-14.301,15.4-22.899c3.8-8.9,5.7-18.3,5.7-28S142.1,52.8,138.3,44z M28.4,28.399
		C40,16.7,55.5,10.3,72,10.3c14.2,0,27.7,4.801,38.6,13.6L23.8,110.7c-8.7-11-13.5-24.501-13.5-38.7
		C10.3,55.499,16.7,39.999,28.4,28.399z M115.7,115.7c-11.7,11.6-27.2,18-43.7,18c-14.7,0-28.6-5.1-39.8-14.5l86.999-87
		c9.4,11.1,14.5,25,14.5,39.8C133.699,88.501,127.3,103.999,115.7,115.7z"/>
</g>
</svg>
