<?xml version="1.0" encoding="utf-8"?>
<!-- Generator: Adobe Illustrator 16.0.0, SVG Export Plug-In . SVG Version: 6.00 Build 0)  -->
<!DOCTYPE svg PUBLIC "-//W3C//DTD SVG 1.1//EN" "http://www.w3.org/Graphics/SVG/1.1/DTD/svg11.dtd">
<svg version="1.1" id="_x35_0m" xmlns="http://www.w3.org/2000/svg" xmlns:xlink="http://www.w3.org/1999/xlink" x="0px" y="0px"
	 width="144px" height="144px" viewBox="0 0 144 144" enable-background="new 0 0 144 144" xml:space="preserve">
<circle fill="#FFFFFF" cx="72" cy="72" r="72"/>
<g>
	<path fill="#F69321" d="M72,144c-9.7,0-19.2-1.899-28-5.7c-8.601-3.6-16.3-8.8-22.9-15.4C14.5,116.3,9.3,108.601,5.7,100
		C1.9,91.2,0,81.7,0,72s1.9-19.2,5.7-28c3.6-8.6,8.8-16.3,15.4-22.899S35.399,9.3,44,5.7c8.8-3.8,18.3-5.699,28-5.699
		c9.7,0,19.2,1.899,28,5.699c8.599,3.6,16.3,8.801,22.9,15.4S134.7,35.4,138.3,44c3.8,8.899,5.7,18.3,5.7,28s-1.9,19.2-5.7,28
		c-3.6,8.601-8.8,16.3-15.4,22.899c-6.6,6.601-14.301,11.801-22.9,15.4C91.2,142.101,81.7,144,72,144z M72,10.3
		c-16.5,0-32,6.4-43.701,18.101c-11.7,11.7-18,27.1-18,43.6s6.4,32.001,18.1,43.7c11.7,11.699,27.2,18.1,43.7,18.1s32-6.4,43.7-18.1
		c11.7-11.699,18.1-27.2,18.1-43.6c0-16.4-6.4-32-18.1-43.7C104.1,16.7,88.5,10.3,72,10.3z"/>
	<g>
		<path fill="#010101" d="M63.7,62.7c-2.7,3.8-4.9,7.7-6.7,11.699c-1.4,3.201-2.7,7-3.9,11.601c-1.2,4.6-1.7,8.3-1.7,11.2H41
			c0.3-9.1,3.3-18.6,9-28.5c3.7-6.1,6.799-10.4,9.2-12.8H33.8l0.1-9.001h36V54.7C68.4,56.2,66.3,58.899,63.7,62.7z"/>
		<path fill="#010101" d="M91.2,71.899c-1.201,0-2.3,0.201-3.2,0.5C86.4,73,85.2,74,84.399,75.501L75.4,75.1l3.6-28.2h28.1V55.4
			H86.299l-1.8,11.1c1.601-1,2.8-1.7,3.6-2c1.4-0.499,3.201-0.8,5.3-0.8c4.2,0,7.9,1.4,11,4.301c3.101,2.799,4.7,7,4.7,12.398
			c0,4.701-1.499,8.9-4.5,12.601S97,98.6,91,98.6c-4.8,0-8.8-1.3-11.899-3.899c-3.101-2.6-4.8-6.301-5.2-11.101h10
			c0.401,2.2,1.201,3.9,2.3,5.001c1.101,1.1,2.8,1.8,4.9,1.8c2.5,0,4.4-0.899,5.7-2.601c1.3-1.699,1.9-3.899,1.9-6.6
			c0-2.6-0.601-4.8-1.8-6.6C95.7,72.8,93.8,71.899,91.2,71.899z"/>
	</g>
</g>
</svg>
