<?xml version="1.0" encoding="utf-8"?>
<!-- Generator: Adobe Illustrator 16.0.0, SVG Export Plug-In . SVG Version: 6.00 Build 0)  -->
<!DOCTYPE svg PUBLIC "-//W3C//DTD SVG 1.1//EN" "http://www.w3.org/Graphics/SVG/1.1/DTD/svg11.dtd">
<svg version="1.1" id="_x35_0m" xmlns="http://www.w3.org/2000/svg" xmlns:xlink="http://www.w3.org/1999/xlink" x="0px" y="0px"
	 width="144px" height="144px" viewBox="0 0 144 144" enable-background="new 0 0 144 144" xml:space="preserve">
<circle fill="#FFFFFF" cx="72" cy="72" r="72"/>
<g>
	<g>
		<g>
			<defs>
				<polygon id="SVGID_5_" points="-213.87,1 -212.87,1 -213.87,2 				"/>
			</defs>
			<defs>
				<polygon id="SVGID_6_" points="-215.87,-1 -216.87,-1 -215.87,-2 				"/>
			</defs>
			<clipPath id="SVGID_4_">
				<use xlink:href="#SVGID_5_"  overflow="visible"/>
			</clipPath>
			<clipPath id="SVGID_7_" clip-path="url(#SVGID_4_)">
				<use xlink:href="#SVGID_6_"  overflow="visible"/>
			</clipPath>
		</g>
	</g>
</g>
<g>
	<g>
		<g>
			<defs>
				<polygon id="SVGID_31_" points="-213.87,1 -212.87,1 -213.87,2 				"/>
			</defs>
			<defs>
				<polygon id="SVGID_32_" points="-215.87,-1 -216.87,-1 -215.87,-2 				"/>
			</defs>
			<clipPath id="SVGID_8_">
				<use xlink:href="#SVGID_31_"  overflow="visible"/>
			</clipPath>
			<clipPath id="SVGID_11_" clip-path="url(#SVGID_8_)">
				<use xlink:href="#SVGID_32_"  overflow="visible"/>
			</clipPath>
		</g>
	</g>
</g>
<g>
	<path fill="#F69321" d="M72,144.157c-9.701,0-19.199-1.899-28-5.7c-8.6-3.6-16.299-8.8-22.9-15.4
		c-6.6-6.6-11.799-14.301-15.398-22.899C1.9,91.357,0,81.857,0,72.157s1.9-19.2,5.701-28c3.6-8.601,8.799-16.3,15.398-22.899
		C27.701,14.657,35.4,9.457,44,5.857c8.801-3.801,18.299-5.7,28-5.7c9.699,0,19.199,1.899,28,5.7c8.6,3.6,16.299,8.8,22.9,15.4
		c6.6,6.6,11.799,14.299,15.398,22.899c3.801,8.9,5.701,18.3,5.701,28s-1.9,19.2-5.701,28c-3.6,8.599-8.799,16.3-15.398,22.899
		c-6.602,6.601-14.301,11.801-22.9,15.4C91.199,142.258,81.699,144.157,72,144.157z M72,10.457c-16.5,0-32,6.4-43.701,18.1
		c-11.699,11.7-17.998,27.1-17.998,43.601s6.398,31.999,18.1,43.7c11.699,11.699,27.199,18.1,43.699,18.1s32-6.4,43.699-18.1
		C127.5,104.156,133.9,88.658,133.9,72.257c0-16.399-6.4-32-18.102-43.7C104.1,16.857,88.5,10.457,72,10.457z"/>
	<g>
		<path fill="#010101" d="M45.699,56.557c-1.1,1.5-1.699,3.5-1.6,6h-9.299c0.1-2.5,0.5-4.899,1.299-7.199c0.801-2,2.1-3.801,3.9-5.5
			c1.301-1.2,2.9-2.101,4.699-2.701c1.801-0.6,4-0.999,6.6-0.999c4.9,0,8.801,1.3,11.801,3.8s4.5,5.9,4.5,10.1
			c0,3-0.9,5.5-2.699,7.601c-1.1,1.3-2.301,2.2-3.5,2.601c0.898,0,2.199,0.799,3.898,2.399c2.602,2.4,3.801,5.601,3.801,9.7
			c0,4.3-1.5,8.1-4.5,11.4c-3,3.3-7.4,4.898-13.301,4.898c-7.199,0-12.199-2.399-15-7.1c-1.498-2.499-2.299-5.799-2.498-9.8H43.6
			c0,2,0.301,3.7,1,5.1c1.201,2.501,3.4,3.7,6.6,3.7c2,0,3.701-0.699,5.201-2c1.5-1.299,2.199-3.299,2.199-5.8
			c0-3.3-1.4-5.601-4.1-6.699c-1.5-0.601-4-0.901-7.301-0.901v-7.199c3.301-0.1,5.5-0.4,6.801-0.9c2.199-1,3.301-3,3.301-6
			c0-2-0.602-3.5-1.701-4.799c-1.1-1.301-2.699-1.801-4.799-1.801C48.6,54.357,46.799,55.057,45.699,56.557z"/>
		<path fill="#010101" d="M91.199,72.057c-1.199,0-2.299,0.2-3.199,0.5c-1.602,0.601-2.801,1.602-3.6,3.1l-9-0.399l3.6-28.2h28.1
			v8.5H86.299L84.5,66.657c1.6-1,2.799-1.7,3.6-2c1.4-0.5,3.201-0.8,5.299-0.8c4.201,0,7.9,1.399,11.002,4.299
			c3.1,2.801,4.699,7,4.699,12.4c0,4.701-1.5,8.9-4.5,12.601S97,98.758,91,98.758c-4.801,0-8.801-1.301-11.9-3.9
			s-4.801-6.301-5.199-11.101h10c0.4,2.2,1.199,3.9,2.299,5c1.1,1.101,2.801,1.8,4.9,1.8c2.5,0,4.4-0.9,5.699-2.6
			c1.301-1.699,1.9-3.9,1.9-6.6c0-2.6-0.6-4.801-1.799-6.601C95.699,72.957,93.799,72.057,91.199,72.057z"/>
	</g>
</g>
</svg>
