<?xml version="1.0" encoding="utf-8"?>
<!-- Generator: Adobe Illustrator 16.0.0, SVG Export Plug-In . SVG Version: 6.00 Build 0)  -->
<!DOCTYPE svg PUBLIC "-//W3C//DTD SVG 1.1//EN" "http://www.w3.org/Graphics/SVG/1.1/DTD/svg11.dtd">
<svg version="1.1" id="_x35_0m" xmlns="http://www.w3.org/2000/svg" xmlns:xlink="http://www.w3.org/1999/xlink" x="0px" y="0px"
	 width="144px" height="144px" viewBox="0 0 144 144" enable-background="new 0 0 144 144" xml:space="preserve">
<circle fill="#FFFFFF" cx="72" cy="72" r="72"/>
<g>
	<path fill="#F69321" d="M72.051,144.344c-9.747,0-19.292-1.909-28.134-5.728c-8.641-3.617-16.378-8.842-23.009-15.474
		S9.052,108.774,5.334,100.134c-3.818-8.942-5.728-18.388-5.728-28.135c0-9.745,1.909-19.291,5.728-28.133
		c3.617-8.642,8.842-16.378,15.474-23.01c6.631-6.631,14.468-11.855,23.109-15.473c8.942-3.719,18.387-5.728,28.134-5.728
		s19.292,1.909,28.134,5.728c8.641,3.617,16.377,8.842,23.009,15.473c6.632,6.632,11.856,14.368,15.474,23.01
		c3.818,8.942,5.726,18.388,5.726,28.133c0,9.747-1.908,19.293-5.726,28.135c-3.618,8.641-8.842,16.377-15.474,23.009
		c-6.631,6.632-14.368,11.856-23.009,15.474C91.242,142.435,81.797,144.344,72.051,144.344z M72.051,10.005
		c-16.579,0-32.153,6.431-43.909,18.187S10.056,55.421,10.056,71.999c0,16.579,6.431,32.153,18.187,43.909
		s27.33,18.187,43.909,18.187c16.579,0,32.152-6.431,43.909-18.187c11.755-11.756,18.186-27.33,18.186-43.909
		c0-16.578-6.431-32.152-18.186-43.908C104.304,16.336,88.629,10.005,72.051,10.005z"/>
	<g>
		<path fill="#010101" d="M71.247,71.899c-1.206,0-2.311,0.201-3.215,0.502c-1.608,0.603-2.813,1.607-3.617,3.115l-9.043-0.402
			l3.617-28.334h28.234v8.54H66.324l-1.809,11.153c1.608-1.005,2.813-1.708,3.617-2.01c1.407-0.502,3.216-0.804,5.326-0.804
			c4.22,0,7.938,1.407,11.052,4.22c3.115,2.813,4.722,7.034,4.722,12.46c0,4.722-1.507,8.941-4.521,12.66
			c-3.014,3.717-7.636,5.626-13.665,5.626c-4.823,0-8.842-1.306-12.057-3.918c-3.115-2.613-4.823-6.33-5.225-11.154h10.048
			c0.402,2.211,1.206,3.919,2.311,5.024c1.105,1.105,2.813,1.809,4.923,1.809c2.512,0,4.421-0.903,5.727-2.611
			c1.306-1.709,1.909-3.919,1.909-6.633c0-2.611-0.603-4.822-1.809-6.631C75.668,72.703,73.759,71.899,71.247,71.899z"/>
	</g>
</g>
</svg>
