<?xml version="1.0" encoding="utf-8"?>
<!-- Generator: Adobe Illustrator 16.0.0, SVG Export Plug-In . SVG Version: 6.00 Build 0)  -->
<!DOCTYPE svg PUBLIC "-//W3C//DTD SVG 1.1//EN" "http://www.w3.org/Graphics/SVG/1.1/DTD/svg11.dtd">
<svg version="1.1" id="_x35_0m" xmlns="http://www.w3.org/2000/svg" xmlns:xlink="http://www.w3.org/1999/xlink" x="0px" y="0px"
	 width="144px" height="144px" viewBox="0 0 144 144" enable-background="new 0 0 144 144" xml:space="preserve">
<circle fill="#FFFFFF" cx="72" cy="72" r="72"/>
<g>
	<g>
		<path fill="#010101" d="M42.8,97.199H32.5V62.1h-12v-6.8c3.2-0.101,5.4-0.3,6.6-0.601c2-0.499,3.7-1.3,4.9-2.7
			c0.9-0.899,1.5-2.1,2-3.699c0.3-0.9,0.4-1.6,0.4-2h8.3v50.899H42.8z"/>
		<path fill="#010101" d="M68.2,98.499c-6.5,0-11-2.3-13.7-6.799c-2.6-4.601-3.9-11.001-3.9-19.401c0-8.399,1.3-14.899,3.9-19.499
			c2.601-4.601,7.2-6.9,13.7-6.9s11.1,2.3,13.7,6.9c2.6,4.6,3.899,11.1,3.899,19.499c0,8.4-1.3,14.901-3.899,19.401
			C79.3,96.199,74.7,98.499,68.2,98.499z M74.1,85.7c0.9-3.102,1.4-7.601,1.4-13.401C75.5,66.2,75,61.6,74.1,58.7
			c-0.9-2.9-2.9-4.4-5.8-4.4c-3,0-5,1.5-5.9,4.4C61.5,61.6,61,66.2,61,72.299c0,5.901,0.5,10.3,1.4,13.401
			c0.9,3.1,2.9,4.699,5.9,4.699C71.2,90.3,73.101,88.8,74.1,85.7z"/>
		<path fill="#010101" d="M108.2,98.499c-6.5,0-11-2.3-13.699-6.799c-2.701-4.5-3.9-11.001-3.9-19.401
			c0-8.399,1.3-14.899,3.9-19.499c2.6-4.601,7.199-6.9,13.699-6.9c6.5,0,11.101,2.3,13.701,6.9c2.6,4.6,3.9,11.1,3.9,19.499
			c0,8.4-1.301,14.901-3.9,19.401C119.301,96.199,114.699,98.499,108.2,98.499z M114.101,85.7C115,82.599,115.5,78.1,115.5,72.299
			c0-6.099-0.5-10.699-1.399-13.599c-0.9-2.9-2.9-4.4-5.8-4.4c-2.9,0-4.9,1.5-5.9,4.4c-1,2.899-1.4,7.5-1.4,13.599
			c0,5.901,0.5,10.3,1.4,13.401c0.9,3.1,2.9,4.699,5.9,4.699C111.3,90.399,113.201,88.8,114.101,85.7z"/>
	</g>
	<path fill="#F69321" d="M138.301,43.999c-3.6-8.6-8.801-16.299-15.4-22.899c-6.6-6.6-14.301-11.8-22.9-15.4
		C91.201,1.899,81.7,0,72,0c-9.7,0-19.2,1.899-28,5.699C35.4,9.3,27.701,14.5,21.101,21.1C14.5,27.7,9.3,35.399,5.7,43.999
		C1.9,52.8,0,62.3,0,71.999c0,9.7,1.9,19.2,5.7,28c3.6,8.601,8.8,16.301,15.4,22.9S35.4,134.7,44,138.3c8.9,3.8,18.3,5.699,28,5.699
		c9.7,0,19.2-1.899,28-5.699c8.599-3.6,16.3-8.801,22.9-15.4s11.801-14.3,15.4-22.9c3.8-8.9,5.699-18.3,5.699-28
		C144,62.3,142.101,52.8,138.301,43.999z M28.4,28.399C40,16.7,55.5,10.3,72,10.3c14.199,0,27.7,4.8,38.6,13.6l-86.8,86.8
		c-8.7-10.999-13.5-24.499-13.5-38.7C10.3,55.499,16.7,40,28.4,28.399z M115.699,115.7C104,127.3,88.5,133.699,72,133.699
		c-14.701,0-28.601-5.1-39.8-14.5l87-86.999c9.4,11.1,14.5,25,14.5,39.799C133.7,88.499,127.3,104,115.699,115.7z"/>
</g>
</svg>
