<?xml version="1.0" encoding="utf-8"?>
<!-- Generator: Adobe Illustrator 16.0.0, SVG Export Plug-In . SVG Version: 6.00 Build 0)  -->
<!DOCTYPE svg PUBLIC "-//W3C//DTD SVG 1.1//EN" "http://www.w3.org/Graphics/SVG/1.1/DTD/svg11.dtd">
<svg version="1.1" id="_x35_0m" xmlns="http://www.w3.org/2000/svg" xmlns:xlink="http://www.w3.org/1999/xlink" x="0px" y="0px"
	 width="144px" height="144px" viewBox="0 0 144 144" enable-background="new 0 0 144 144" xml:space="preserve">
<circle fill="#FFFFFF" cx="72" cy="72" r="72"/>
<g>
	<path fill="#F69321" d="M72.05,144.107c-9.692,0-19.187-1.898-27.98-5.696c-8.594-3.597-16.288-8.794-22.884-15.39
		c-6.596-6.595-11.792-14.289-15.489-22.884C1.899,91.244,0,81.851,0,72.157s1.899-19.187,5.696-27.98
		c3.598-8.594,8.794-16.288,15.39-22.884c6.595-6.596,14.39-11.792,22.983-15.39c8.894-3.696,18.288-5.696,27.98-5.696
		c9.693,0,19.188,1.899,27.981,5.696c8.593,3.598,16.287,8.794,22.883,15.39s11.792,14.29,15.39,22.884
		C142.102,53.07,144,62.464,144,72.157s-1.897,19.187-5.695,27.98c-3.598,8.595-8.794,16.289-15.39,22.884
		c-6.596,6.596-14.29,11.793-22.883,15.39C91.137,142.209,81.744,144.107,72.05,144.107z M72.05,10.5
		c-16.488,0-31.978,6.396-43.669,18.088C16.689,40.279,10.394,55.669,10.394,72.157c0,16.489,6.395,31.979,18.087,43.67
		c11.691,11.691,27.181,18.087,43.67,18.087c16.488,0,31.978-6.396,43.669-18.087s18.087-27.181,18.087-43.67
		c0-16.488-6.396-31.978-18.087-43.669C104.128,16.796,88.539,10.5,72.05,10.5z"/>
	<g>
		<path fill="#010101" d="M45.769,56.568c-1.1,1.499-1.699,3.497-1.599,5.996h-9.294c0.1-2.499,0.5-4.896,1.299-7.195
			c0.8-1.999,2.099-3.798,3.897-5.496c1.299-1.199,2.898-2.099,4.697-2.698s3.997-0.999,6.595-0.999
			c4.896,0,8.794,1.299,11.792,3.797c2.998,2.499,4.497,5.896,4.497,10.093c0,2.998-0.899,5.496-2.698,7.595
			c-1.1,1.3-2.299,2.198-3.498,2.599c0.9,0,2.199,0.8,3.897,2.397c2.599,2.399,3.798,5.598,3.798,9.694
			c0,4.297-1.499,8.095-4.497,11.392c-2.998,3.298-7.396,4.897-13.291,4.897c-7.194,0-12.191-2.399-14.989-7.096
			c-1.499-2.498-2.299-5.796-2.498-9.793h9.793c0,1.999,0.3,3.697,0.999,5.097c1.199,2.498,3.397,3.697,6.595,3.697
			c2,0,3.698-0.699,5.197-1.999c1.499-1.299,2.198-3.297,2.198-5.796c0-3.298-1.399-5.596-4.097-6.695
			c-1.499-0.6-3.998-0.899-7.295-0.899v-7.194c3.297-0.101,5.496-0.4,6.795-0.9c2.198-0.999,3.298-2.997,3.298-5.996
			c0-1.998-0.6-3.497-1.699-4.796c-1.099-1.299-2.698-1.799-4.796-1.799C48.667,54.369,46.869,55.069,45.769,56.568z"/>
		<path fill="#010101" d="M91.836,98.64c-6.496,0-10.992-2.299-13.69-6.796c-2.698-4.496-3.897-10.992-3.897-19.387
			c0-8.394,1.299-14.89,3.897-19.486c2.598-4.597,7.194-6.895,13.69-6.895c6.495,0,11.092,2.298,13.69,6.895
			c2.598,4.597,3.897,11.093,3.897,19.486c0,8.395-1.3,14.891-3.897,19.387C102.928,96.341,98.332,98.64,91.836,98.64z
			 M97.732,85.848c0.899-3.098,1.399-7.594,1.399-13.391c0-6.096-0.5-10.692-1.399-13.591c-0.898-2.897-2.897-4.396-5.795-4.396
			c-2.898,0-4.897,1.499-5.896,4.396c-0.999,2.898-1.399,7.495-1.399,13.591c0,5.896,0.5,10.293,1.399,13.391
			s2.898,4.697,5.896,4.697C94.934,90.545,96.833,88.945,97.732,85.848z"/>
	</g>
</g>
</svg>
