<?xml version="1.0" encoding="utf-8"?>
<!-- Generator: Adobe Illustrator 16.0.0, SVG Export Plug-In . SVG Version: 6.00 Build 0)  -->
<!DOCTYPE svg PUBLIC "-//W3C//DTD SVG 1.1//EN" "http://www.w3.org/Graphics/SVG/1.1/DTD/svg11.dtd">
<svg version="1.1" id="_x35_0m" xmlns="http://www.w3.org/2000/svg" xmlns:xlink="http://www.w3.org/1999/xlink" x="0px" y="0px"
	 width="144px" height="144px" viewBox="0 0 144 144" enable-background="new 0 0 144 144" xml:space="preserve">
<circle fill="#FFFFFF" cx="72" cy="72" r="72"/>
<g>
	<path fill="#F69321" d="M71.999,144c-9.699,0-19.199-1.899-27.998-5.7c-8.602-3.6-16.301-8.8-22.9-15.4
		C14.499,116.3,9.3,108.601,5.7,100c-3.801-8.8-5.701-18.3-5.701-28s1.9-19.2,5.701-28c3.6-8.6,8.799-16.3,15.4-22.899
		c6.6-6.6,14.299-11.801,22.9-15.4C52.8,1.9,62.3,0.001,71.999,0.001c9.701,0,19.201,1.899,28,5.699c8.6,3.6,16.301,8.801,22.9,15.4
		C129.501,27.7,134.7,35.4,138.3,44c3.801,8.899,5.701,18.3,5.701,28s-1.9,19.2-5.701,28c-3.6,8.601-8.799,16.3-15.4,22.899
		c-6.6,6.601-14.301,11.801-22.9,15.4C91.2,142.101,81.7,144,71.999,144z M71.999,10.3c-16.5,0-32,6.4-43.699,18.101
		s-18,27.1-18,43.6s6.4,32.001,18.1,43.7c11.701,11.699,27.201,18.1,43.701,18.1c16.498,0,32-6.4,43.699-18.1s18.1-27.2,18.1-43.6
		c0-16.4-6.4-32-18.1-43.7S88.501,10.3,71.999,10.3z"/>
	<g>
		<path fill="#010101" d="M50.7,98.7c-3.801,0-7.201-1.101-10.301-3.4s-4.799-5.6-5.199-9.9h10c0.199,1.5,0.898,2.701,1.9,3.7
			c1,0.901,2.398,1.399,4.1,1.399c3.299,0,5.6-1.799,7-5.5c0.699-1.998,1.199-4.999,1.398-8.799c-0.898,1.2-1.898,2-2.898,2.6
			c-1.9,1.1-4.201,1.7-6.9,1.7c-4.1,0-7.699-1.399-10.801-4.2c-3.1-2.8-4.699-6.8-4.699-12.1c0-5.5,1.6-9.9,4.699-13.3
			C42.2,47.501,46.2,45.8,51.3,45.8c7.801,0,13.1,3.4,16,10.301c1.6,3.899,2.5,9,2.5,15.399c0,6.2-0.801,11.3-2.4,15.399
			C64.2,94.8,58.7,98.7,50.7,98.7z M47.101,55.7c-1.9,1.5-2.9,4-2.9,7.6c0,3,0.6,5.301,1.799,6.8c1.201,1.501,3.102,2.3,5.701,2.3
			c1.398,0,2.699-0.399,3.9-1.199c2.299-1.4,3.398-4,3.398-7.6c0-2.9-0.699-5.2-2-6.9c-1.299-1.699-3.199-2.5-5.498-2.5
			C49.8,54.2,48.399,54.7,47.101,55.7z"/>
		<path fill="#010101" d="M91.8,98.499c-6.5,0-11-2.299-13.699-6.799c-2.602-4.6-3.9-11-3.9-19.4s1.299-14.9,3.9-19.5
			c2.6-4.6,7.199-6.9,13.699-6.9s11.1,2.301,13.699,6.9c2.602,4.6,3.9,11.1,3.9,19.5s-1.299,14.9-3.9,19.4
			C102.899,96.2,98.3,98.499,91.8,98.499z M97.7,85.7c0.9-3.101,1.4-7.6,1.4-13.4c0-6.1-0.5-10.699-1.4-13.6s-2.9-4.4-5.801-4.4
			c-3,0-4.898,1.5-5.9,4.4c-1,3-1.398,7.5-1.398,13.6c0,5.9,0.5,10.3,1.398,13.4c0.9,3.1,2.9,4.7,5.9,4.7
			C94.8,90.3,96.8,88.8,97.7,85.7z"/>
	</g>
</g>
</svg>
