<?xml version="1.0" encoding="utf-8"?>
<!-- Generator: Adobe Illustrator 16.0.0, SVG Export Plug-In . SVG Version: 6.00 Build 0)  -->
<!DOCTYPE svg PUBLIC "-//W3C//DTD SVG 1.1//EN" "http://www.w3.org/Graphics/SVG/1.1/DTD/svg11.dtd">
<svg version="1.1" id="_x35_0m" xmlns="http://www.w3.org/2000/svg" xmlns:xlink="http://www.w3.org/1999/xlink" x="0px" y="0px"
	 width="144px" height="144px" viewBox="0 0 144 144" enable-background="new 0 0 144 144" xml:space="preserve">
<circle fill="#FFFFFF" cx="72" cy="72" r="72"/>
<g>
	<path fill="#F69321" d="M72.049,143.95c-9.692,0-19.186-1.898-27.979-5.695c-8.595-3.598-16.289-8.795-22.884-15.391
		c-6.596-6.594-11.792-14.289-15.49-22.783C1.999,91.187,0,81.794,0,72.101s1.898-19.086,5.695-27.98
		c3.598-8.594,8.795-16.289,15.39-22.885c6.596-6.594,14.39-11.891,22.984-15.488C52.864,1.95,62.357,0.05,72.049,0.05
		c9.694,0,19.188,1.9,27.981,5.697c8.594,3.598,16.288,8.793,22.883,15.389c6.597,6.596,11.793,14.291,15.391,22.885
		c3.797,8.893,5.695,18.287,5.695,27.98s-1.898,19.186-5.695,27.98c-3.598,8.594-8.794,16.289-15.391,22.883
		c-6.595,6.596-14.289,11.793-22.883,15.391C91.136,142.052,81.744,143.95,72.049,143.95z M72.049,10.343
		c-16.488,0-31.977,6.396-43.669,18.088c-11.691,11.691-17.987,27.082-17.987,43.57s6.395,31.979,18.088,43.67
		c11.691,11.691,27.181,18.086,43.669,18.086s31.978-6.395,43.67-18.086c11.691-11.691,18.087-27.182,18.087-43.67
		s-6.396-31.979-18.087-43.67C104.127,16.64,88.539,10.343,72.049,10.343z"/>
	<g>
		<path fill="#010101" d="M51.165,72.001c-1.199,0-2.299,0.199-3.197,0.498c-1.6,0.602-2.799,1.6-3.498,3.1l-8.994-0.4l3.598-28.18
			h28.08v8.494H46.368l-1.799,11.092c1.499-1,2.799-1.699,3.598-1.998c1.499-0.5,3.197-0.801,5.297-0.801
			c4.196,0,7.895,1.4,10.992,4.197c3.098,2.799,4.696,6.996,4.696,12.393c0,4.697-1.498,8.893-4.497,12.59
			c-2.997,3.699-7.494,5.596-13.59,5.596c-4.797,0-8.794-1.299-11.992-3.896c-3.098-2.598-4.796-6.295-5.195-11.092h9.992
			c0.399,2.199,1.199,3.896,2.299,4.996s2.798,1.799,4.896,1.799c2.498,0,4.396-0.898,5.695-2.598s1.999-3.898,1.999-6.596
			c0-2.598-0.599-4.797-1.799-6.596C55.662,72.899,53.762,72.001,51.165,72.001z"/>
		<path fill="#010101" d="M91.237,72.001c-1.199,0-2.299,0.199-3.198,0.498c-1.599,0.602-2.798,1.6-3.598,3.1l-8.994-0.4
			l3.698-28.18h27.98v8.494H86.339l-1.798,11.092c1.599-1,2.798-1.699,3.597-1.998c1.399-0.5,3.198-0.801,5.297-0.801
			c4.196,0,7.895,1.4,10.992,4.197c3.098,2.799,4.697,6.996,4.697,12.393c0,4.697-1.499,8.893-4.498,12.59
			c-2.997,3.699-7.594,5.596-13.59,5.596c-4.797,0-8.794-1.299-11.892-3.896s-4.796-6.295-5.196-11.092h9.992
			c0.4,2.199,1.2,3.896,2.299,4.996c1.1,1.1,2.799,1.799,4.896,1.799c2.499,0,4.396-0.898,5.696-2.598
			c1.299-1.699,1.898-3.898,1.898-6.596c0-2.598-0.6-4.797-1.799-6.596C95.734,72.8,93.834,72.001,91.237,72.001z"/>
	</g>
</g>
</svg>
