<?xml version="1.0" encoding="utf-8"?>
<!-- Generator: Adobe Illustrator 16.0.0, SVG Export Plug-In . SVG Version: 6.00 Build 0)  -->
<!DOCTYPE svg PUBLIC "-//W3C//DTD SVG 1.1//EN" "http://www.w3.org/Graphics/SVG/1.1/DTD/svg11.dtd">
<svg version="1.1" id="_x35_0m" xmlns="http://www.w3.org/2000/svg" xmlns:xlink="http://www.w3.org/1999/xlink" x="0px" y="0px"
	 width="144px" height="144px" viewBox="0 0 144 144" enable-background="new 0 0 144 144" xml:space="preserve">
<circle fill="#FFFFFF" cx="72" cy="72" r="72"/>
<g>
	<g>
		<g>
			<defs>
				<polygon id="SVGID_5_" points="1,-428.74 2,-428.74 1,-427.74 				"/>
			</defs>
			<defs>
				<polygon id="SVGID_6_" points="-1,-430.74 -2,-430.74 -1,-431.74 				"/>
			</defs>
			<clipPath id="SVGID_4_">
				<use xlink:href="#SVGID_5_"  overflow="visible"/>
			</clipPath>
			<clipPath id="SVGID_7_" clip-path="url(#SVGID_4_)">
				<use xlink:href="#SVGID_6_"  overflow="visible"/>
			</clipPath>
		</g>
	</g>
</g>
<g>
	<g>
		<g>
			<defs>
				<polygon id="SVGID_31_" points="1,-428.74 2,-428.74 1,-427.74 				"/>
			</defs>
			<defs>
				<polygon id="SVGID_32_" points="-1,-430.74 -2,-430.74 -1,-431.74 				"/>
			</defs>
			<clipPath id="SVGID_8_">
				<use xlink:href="#SVGID_31_"  overflow="visible"/>
			</clipPath>
			<clipPath id="SVGID_11_" clip-path="url(#SVGID_8_)">
				<use xlink:href="#SVGID_32_"  overflow="visible"/>
			</clipPath>
		</g>
	</g>
</g>
<g>
	<g>
		<path fill="#010101" d="M38.301,94.101c-2.9-3.001-4.4-6.601-4.4-10.9c0-2.9,0.7-5.4,2-7.801s3.2-4.1,5.7-5.199
			c-2.5-1.6-4.1-3.4-4.8-5.3c-0.699-1.899-1.1-3.7-1.1-5.4c0-3.7,1.399-6.899,4.199-9.5c2.801-2.601,6.7-3.899,11.8-3.899
			c5.101,0,9.001,1.299,11.8,3.899c2.801,2.601,4.201,5.8,4.201,9.5c0,1.7-0.4,3.501-1.102,5.4c-0.699,1.899-2.299,3.6-4.799,4.999
			c2.5,1.4,4.399,3.301,5.699,5.601c1.301,2.3,1.9,4.899,1.9,7.8c0,4.301-1.6,7.9-4.8,10.9s-7.601,4.5-13.3,4.5
			C45.6,98.7,41.201,97.101,38.301,94.101z M44.301,82.5c0,2.499,0.699,4.399,2,5.8c1.3,1.4,3.1,2.1,5.399,2.1
			s4.101-0.699,5.401-2.1c1.299-1.4,1.999-3.301,1.999-5.8c0-2.601-0.7-4.6-1.999-5.9C55.801,75.2,54,74.601,51.7,74.601
			S47.701,75.3,46.301,76.6C44.9,77.9,44.301,79.899,44.301,82.5z M46.9,65.101c1.1,1.199,2.701,1.799,4.7,1.799
			c2,0,3.601-0.6,4.7-1.799c1.1-1.2,1.7-2.701,1.7-4.5c0-2-0.601-3.601-1.7-4.701c-1.1-1.1-2.7-1.699-4.7-1.699
			c-1.999,0-3.601,0.6-4.7,1.699c-1.1,1.101-1.7,2.701-1.7,4.701C45.2,62.399,45.801,63.9,46.9,65.101z"/>
		<path fill="#010101" d="M91.801,98.501c-6.5,0-11-2.302-13.699-6.801c-2.602-4.6-3.9-11-3.9-19.4c0-8.399,1.299-14.899,3.9-19.5
			c2.599-4.6,7.299-6.9,13.699-6.9c6.5,0,11.1,2.301,13.699,6.9c2.602,4.601,3.9,11.101,3.9,19.5c0,8.4-1.299,14.9-3.9,19.4
			C102.9,96.3,98.301,98.501,91.801,98.501z M97.701,85.7c0.899-3.1,1.399-7.601,1.399-13.4c0-6.1-0.5-10.699-1.399-13.6
			c-0.9-2.9-2.9-4.4-5.801-4.4c-3,0-4.899,1.5-5.899,4.4c-1.001,3-1.4,7.5-1.4,13.6c0,5.9,0.501,10.301,1.4,13.4
			s2.899,4.699,5.899,4.699C94.801,90.399,96.801,88.8,97.701,85.7z"/>
	</g>
	<path fill="#F69321" d="M138.4,44c-3.6-8.6-8.801-16.3-15.4-22.899S108.7,9.3,100.102,5.7c-8.9-3.8-18.301-5.699-28.001-5.699
		S52.9,1.9,44.001,5.7c-8.601,3.6-16.3,8.801-22.899,15.4C14.5,27.7,9.301,35.4,5.701,44C1.9,52.899,0,62.3,0,72
		s1.9,19.2,5.701,27.999c3.6,8.602,8.799,16.301,15.4,22.9c6.6,6.6,14.299,11.801,22.899,15.4c8.899,3.8,18.3,5.699,28,5.699
		S91.201,142.1,100,138.3c8.6-3.6,16.301-8.801,22.9-15.4s11.801-14.299,15.4-22.9C142.102,91.1,144,81.7,144,72
		S142.102,52.899,138.4,44z M28.4,28.4C40,16.7,55.5,10.3,72.001,10.3c14.199,0,27.7,4.8,38.6,13.6l-86.8,86.801
		c-8.699-11-13.5-24.5-13.5-38.7C10.301,55.501,16.7,40,28.4,28.4z M115.701,115.7c-11.701,11.7-27.2,18.1-43.7,18.1
		c-14.7,0-28.601-5.1-39.7-14.5l87-87c9.398,11.101,14.5,25,14.5,39.7C133.701,88.5,127.301,104,115.701,115.7z"/>
</g>
</svg>
