<?xml version="1.0" encoding="utf-8"?>
<!-- Generator: Adobe Illustrator 16.0.0, SVG Export Plug-In . SVG Version: 6.00 Build 0)  -->
<!DOCTYPE svg PUBLIC "-//W3C//DTD SVG 1.1//EN" "http://www.w3.org/Graphics/SVG/1.1/DTD/svg11.dtd">
<svg version="1.1" id="_x35_0m" xmlns="http://www.w3.org/2000/svg" xmlns:xlink="http://www.w3.org/1999/xlink" x="0px" y="0px"
	 width="144px" height="144px" viewBox="0 0 144 144" enable-background="new 0 0 144 144" xml:space="preserve">
<circle fill="#FFFFFF" cx="72" cy="72" r="72"/>
<g>
	<g>
		<path fill="#010101" d="M50.701,98.7C46.9,98.7,43.5,97.6,40.4,95.3s-4.799-5.6-5.199-9.9h10c0.199,1.5,0.898,2.701,1.898,3.7
			c1,0.901,2.4,1.399,4.1,1.399c3.301,0,5.602-1.799,7-5.5C58.9,83.001,59.4,80,59.6,76.2c-0.898,1.2-1.898,2-2.898,2.6
			c-1.9,1.1-4.201,1.7-6.9,1.7c-4.1,0-7.699-1.399-10.801-4.2c-3.1-2.8-4.699-6.8-4.699-12.1c0-5.5,1.6-9.9,4.699-13.3
			c3.201-3.399,7.201-5.101,12.301-5.101c7.799,0,13.1,3.4,16,10.301c1.6,3.899,2.5,9,2.5,15.399c0,6.2-0.801,11.3-2.4,15.399
			C64.201,94.8,58.701,98.7,50.701,98.7z M47.1,55.7c-1.898,1.5-2.9,4-2.9,7.6c0,3,0.602,5.301,1.801,6.8
			c1.201,1.501,3.102,2.3,5.701,2.3C53.1,72.399,54.4,72,55.6,71.2c2.301-1.4,3.4-4,3.4-7.6c0-2.9-0.699-5.2-2-6.9
			c-1.299-1.699-3.199-2.5-5.5-2.5C49.801,54.2,48.4,54.7,47.1,55.7z"/>
		<path fill="#010101" d="M91.801,98.499c-6.5,0-11-2.299-13.699-6.799c-2.602-4.6-3.9-11-3.9-19.4s1.299-14.9,3.9-19.5
			c2.6-4.6,7.199-6.9,13.699-6.9s11.1,2.301,13.699,6.9c2.602,4.6,3.9,11.1,3.9,19.5s-1.299,14.9-3.9,19.4
			C102.9,96.2,98.301,98.499,91.801,98.499z M97.701,85.7c0.9-3.101,1.4-7.6,1.4-13.4c0-6.1-0.5-10.699-1.4-13.6s-2.9-4.4-5.801-4.4
			c-3,0-4.9,1.5-5.9,4.4c-1,3-1.398,7.5-1.398,13.6c0,5.9,0.5,10.3,1.398,13.4c0.9,3.1,2.9,4.7,5.9,4.7
			C94.801,90.3,96.801,88.8,97.701,85.7z"/>
	</g>
	<path fill="#F69321" d="M138.301,44c-3.6-8.6-8.801-16.3-15.4-22.899S108.6,9.3,100,5.7c-8.799-3.8-18.299-5.699-28-5.699
		c-9.699,0-19.199,1.899-28,5.699c-8.6,3.6-16.299,8.801-22.898,15.4C14.5,27.7,9.301,35.4,5.701,44C1.9,52.8,0,62.3,0,72
		s1.9,19.2,5.701,28c3.6,8.601,8.799,16.3,15.4,22.899C27.701,129.5,35.4,134.7,44,138.3c8.9,3.801,18.301,5.7,28,5.7
		c9.701,0,19.201-1.899,28-5.7c8.6-3.6,16.301-8.8,22.9-15.4c6.6-6.6,11.801-14.299,15.4-22.899C142.102,91.1,144,81.7,144,72
		S142.102,52.8,138.301,44z M28.4,28.4C40,16.7,55.5,10.3,72,10.3c14.199,0,27.701,4.801,38.6,13.6L23.801,110.7
		c-8.699-11-13.5-24.5-13.5-38.7C10.301,55.5,16.701,40.001,28.4,28.4z M115.701,115.7C104,127.3,88.502,133.7,72,133.7
		c-14.699,0-28.6-5.1-39.799-14.5l87-87c9.4,11.1,14.5,25,14.5,39.8C133.701,88.5,127.301,104.001,115.701,115.7z"/>
</g>
</svg>
