<?xml version="1.0" encoding="UTF-8"?>
<svg id="_x35_0m" xmlns="http://www.w3.org/2000/svg" version="1.1" viewBox="0 0 144 144">
  <!-- Generator: Adobe Illustrator 29.0.0, SVG Export Plug-In . SVG Version: 2.1.0 Build 186)  -->
  <defs>
    <style>
      .st0 {
        isolation: isolate;
      }

      .st1 {
        fill: #fff;
      }

      .st2 {
        fill: #f69321;
      }
    </style>
  </defs>
  <circle class="st1" cx="72" cy="72" r="72"/>
  <g class="st0">
    <g class="st0">
      <path d="M41.9,98.2h-10.1v-34.7h-11.8v-6.7c3.1,0,5.3-.3,6.6-.6,2-.4,3.6-1.3,4.9-2.6s1.5-2.1,1.9-3.6c.3-.9.4-1.6.4-2h8.2v50.3h-.1Z"/>
      <path d="M69.2,65.5c4.5,0,8.1,1.5,11,4.5s4.3,6.9,4.3,11.6-1.4,8.8-4.2,12.4c-2.8,3.6-7.2,5.4-13.1,5.4s-11-2.7-14-8c-2.3-4.1-3.5-9.5-3.5-16s.2-7,.5-9.4c.6-4.3,1.7-7.8,3.4-10.7,1.4-2.4,3.3-4.4,5.6-5.9,2.3-1.5,5.1-2.2,8.3-2.2,4.7,0,8.4,1.2,11.2,3.6s4.3,5.6,4.7,9.6h-9.9c0-.8-.3-1.7-.9-2.7-1.1-1.6-2.7-2.4-4.8-2.4-3.2,0-5.5,1.8-6.9,5.4-.7,2-1.2,4.9-1.5,8.8,1.2-1.5,2.6-2.5,4.3-3.2,1.6-.7,3.5-1,5.6-1v.2ZM62.5,75c-1.9,1.5-2.9,3.9-2.9,7.3s.7,4.9,2.2,6.6c1.5,1.7,3.3,2.6,5.6,2.6s3.9-.8,5.2-2.5c1.3-1.7,1.9-3.8,1.9-6.4s-.7-5.2-2.2-6.8c-1.4-1.6-3.2-2.3-5.3-2.3s-3.2.5-4.5,1.5Z"/>
      <path d="M106.6,99.4c-6.4,0-10.9-2.2-13.5-6.7s-3.9-10.9-3.9-19.2,1.3-14.7,3.9-19.2,7.1-6.8,13.5-6.8,10.9,2.3,13.5,6.8,3.9,10.9,3.9,19.2-1.3,14.7-3.9,19.2-7.1,6.7-13.5,6.7ZM112.4,86.8c.9-3.1,1.4-7.5,1.4-13.3s-.5-10.6-1.4-13.5-2.8-4.4-5.8-4.4-4.9,1.5-5.8,4.4c-1,2.9-1.4,7.4-1.4,13.5s.5,10.2,1.4,13.3c.9,3.1,2.9,4.6,5.8,4.6s4.9-1.5,5.8-4.6Z"/>
    </g>
  </g>
  <path class="st2" d="M138.4,44c-3.6-8.6-8.8-16.3-15.4-22.9-6.6-6.6-14.3-11.8-22.9-15.4-8.9-3.8-18.3-5.7-28-5.7s-19.1,1.9-28,5.7c-8.6,3.6-16.3,8.8-22.9,15.4-6.6,6.6-11.8,14.3-15.5,22.9C1.9,52.9,0,62.3,0,72s1.9,19.2,5.7,28c3.6,8.6,8.8,16.3,15.4,22.9s14.3,11.8,22.9,15.4c8.9,3.8,18.3,5.7,28,5.7s19.2-1.9,28-5.7c8.6-3.6,16.3-8.8,22.9-15.4,6.6-6.6,11.8-14.3,15.4-22.9,3.8-8.9,5.7-18.3,5.7-28,0-9.7-1.8-19.2-5.6-28ZM28.4,28.4c11.7-11.7,27.2-18.1,43.7-18.1s27.7,4.8,38.6,13.6L23.9,110.7c-8.8-10.9-13.5-24.4-13.5-38.6s6.4-32.1,18-43.7ZM115.7,115.7c-11.7,11.7-27.2,18.1-43.7,18.1s-28.6-5.1-39.8-14.5L119.2,32.3c9.4,11.1,14.5,25,14.5,39.8.1,16.4-6.3,31.9-18,43.6Z"/>
</svg>