<?xml version="1.0" encoding="utf-8"?>
<!-- Generator: Adobe Illustrator 16.0.0, SVG Export Plug-In . SVG Version: 6.00 Build 0)  -->
<!DOCTYPE svg PUBLIC "-//W3C//DTD SVG 1.1//EN" "http://www.w3.org/Graphics/SVG/1.1/DTD/svg11.dtd">
<svg version="1.1" id="_x35_0m" xmlns="http://www.w3.org/2000/svg" xmlns:xlink="http://www.w3.org/1999/xlink" x="0px" y="0px"
	 width="144px" height="144px" viewBox="0 0 144 144" enable-background="new 0 0 144 144" xml:space="preserve">
<circle fill="#FFFFFF" cx="72" cy="72" r="72"/>
<g>
	<g>
		<path fill="#010101" d="M59.199,97.199H48.9V62.1H37v-6.8c3.199-0.1,5.4-0.3,6.6-0.6c2-0.5,3.699-1.3,4.9-2.7
			c0.9-0.9,1.5-2.1,2-3.7c0.301-0.899,0.4-1.6,0.4-2h8.299V97.199z"/>
		<path fill="#010101" d="M91.801,98.499c-6.5,0-11.002-2.3-13.701-6.799c-2.6-4.601-3.9-11.001-3.9-19.4S75.5,57.4,78.1,52.8
			c2.6-4.6,7.201-6.899,13.701-6.899c6.498,0,11.1,2.3,13.699,6.899c2.6,4.601,3.9,11.101,3.9,19.5s-1.301,14.9-3.9,19.4
			C102.9,96.199,98.299,98.499,91.801,98.499z M97.699,85.7c0.9-3.101,1.4-7.601,1.4-13.4c0-6.1-0.5-10.7-1.4-13.6
			c-0.9-2.9-2.9-4.4-5.801-4.4C88.9,54.3,87,55.8,86,58.7c-1,3-1.4,7.5-1.4,13.6c0,5.9,0.5,10.3,1.4,13.4c0.9,3.1,2.9,4.7,5.898,4.7
			C94.799,90.3,96.799,88.8,97.699,85.7z"/>
	</g>
	<path fill="#F69321" d="M138.299,44c-3.6-8.6-8.799-16.3-15.398-22.9C116.299,14.5,108.6,9.3,100,5.7C91.199,1.9,81.699,0,72,0
		c-9.701,0-19.199,1.9-28,5.7C35.4,9.3,27.699,14.5,21.1,21.1C14.5,27.7,9.301,35.4,5.699,44C1.9,52.8,0,62.3,0,72
		c0,9.699,1.9,19.2,5.699,28c3.602,8.6,8.801,16.3,15.4,22.899C27.699,129.5,35.4,134.7,44,138.3c8.9,3.8,18.299,5.7,28,5.7
		c9.699,0,19.199-1.9,28-5.7c8.6-3.6,16.299-8.8,22.9-15.4c6.6-6.6,11.799-14.3,15.398-22.899C142.1,91.1,144,81.699,144,72
		C144,62.3,142.1,52.8,138.299,44z M28.4,28.4C40,16.7,55.5,10.3,72,10.3c14.199,0,27.699,4.8,38.6,13.6l-86.799,86.8
		C15.1,99.7,10.301,86.2,10.301,72C10.301,55.5,16.701,40,28.4,28.4z M115.699,115.7C104,127.3,88.5,133.7,72,133.7
		c-14.699,0-28.6-5.101-39.801-14.501l87-86.999c9.4,11.101,14.5,25,14.5,39.8C133.699,88.5,127.301,104,115.699,115.7z"/>
</g>
</svg>
