<?xml version="1.0" encoding="UTF-8"?>
<svg id="_x35_0m" xmlns="http://www.w3.org/2000/svg" version="1.1" viewBox="0 0 144 144">
  <!-- Generator: Adobe Illustrator 29.0.0, SVG Export Plug-In . SVG Version: 2.1.0 Build 186)  -->
  <defs>
    <style>
      .st0 {
        isolation: isolate;
      }

      .st1 {
        fill: #fff;
      }

      .st2 {
        fill: #f69321;
      }
    </style>
  </defs>
  <circle class="st1" cx="72" cy="72" r="72"/>
  <g class="st0">
    <g class="st0">
      <path d="M42.1,97.1h-10.1v-34.7h-11.8v-6.7c3.1,0,5.3-.3,6.6-.6,2-.4,3.6-1.3,4.9-2.6s1.5-2.1,1.9-3.6c.3-.9.4-1.6.4-2h8.2v50.3h-.1Z"/>
      <path d="M84.8,78.5v7.7h-5.7v10.8h-9.7v-10.8h-19.9v-8.6l18.5-30.6h11.1v31.5h5.7ZM56.8,78.5h12.6v-21.7s-12.6,21.7-12.6,21.7Z"/>
      <path d="M106.1,72.1c-1.2,0-2.2.2-3.1.5-1.6.6-2.7,1.6-3.5,3.1l-8.9-.4,3.5-27.8h27.7v8.4h-20.6l-1.8,11c1.5-1,2.7-1.7,3.6-2,1.4-.5,3.2-.8,5.2-.8,4.2,0,7.8,1.4,10.9,4.2s4.7,6.9,4.7,12.2-1.5,8.8-4.5,12.5-7.5,5.5-13.4,5.5-8.7-1.3-11.8-3.9-4.8-6.2-5.1-10.9h9.9c.4,2.2,1.1,3.8,2.3,5,1.1,1.2,2.7,1.8,4.9,1.8s4.3-.9,5.6-2.6c1.3-1.7,1.9-3.9,1.9-6.5s-.6-4.7-1.8-6.5c-1.2-1.8-3.1-2.7-5.6-2.7h0Z"/>
    </g>
  </g>
  <path class="st2" d="M138.4,44c-3.6-8.6-8.8-16.3-15.4-22.9-6.6-6.6-14.3-11.8-22.9-15.4-8.9-3.8-18.3-5.7-28-5.7s-19.1,1.9-28,5.7c-8.6,3.6-16.3,8.8-22.9,15.4-6.6,6.6-11.8,14.3-15.5,22.9C1.9,52.9,0,62.3,0,72s1.9,19.2,5.7,28c3.6,8.6,8.8,16.3,15.4,22.9s14.3,11.8,22.9,15.4c8.9,3.8,18.3,5.7,28,5.7s19.2-1.9,28-5.7c8.6-3.6,16.3-8.8,22.9-15.4,6.6-6.6,11.8-14.3,15.4-22.9,3.8-8.9,5.7-18.3,5.7-28,0-9.7-1.8-19.2-5.6-28ZM28.4,28.4c11.7-11.7,27.2-18.1,43.7-18.1s27.7,4.8,38.6,13.6L23.9,110.7c-8.8-10.9-13.5-24.4-13.5-38.6s6.4-32.1,18-43.7ZM115.7,115.7c-11.7,11.7-27.2,18.1-43.7,18.1s-28.6-5.1-39.8-14.5L119.2,32.3c9.4,11.1,14.5,25,14.5,39.8.1,16.4-6.3,31.9-18,43.6Z"/>
</svg>