<?xml version="1.0" encoding="utf-8"?>
<!-- Generator: Adobe Illustrator 16.0.0, SVG Export Plug-In . SVG Version: 6.00 Build 0)  -->
<!DOCTYPE svg PUBLIC "-//W3C//DTD SVG 1.1//EN" "http://www.w3.org/Graphics/SVG/1.1/DTD/svg11.dtd">
<svg version="1.1" id="_x35_0m" xmlns="http://www.w3.org/2000/svg" xmlns:xlink="http://www.w3.org/1999/xlink" x="0px" y="0px"
	 width="144px" height="144px" viewBox="0 0 144 144" enable-background="new 0 0 144 144" xml:space="preserve">
<circle fill="#FFFFFF" cx="72" cy="72" r="72"/>
<g>
	<g>
		<path fill="#010101" d="M63.7,62.7c-2.699,3.801-4.899,7.699-6.699,11.7c-1.4,3.2-2.701,7-3.9,11.601
			c-1.2,4.6-1.7,8.299-1.7,11.199H41.001c0.3-9.1,3.3-18.6,9-28.5c3.699-6.1,6.8-10.4,9.2-12.801H33.9l0.101-9h36V54.7
			C68.501,56.3,66.4,58.9,63.7,62.7z"/>
		<path fill="#010101" d="M91.301,72.001c-1.2,0-2.3,0.199-3.2,0.5c-1.601,0.599-2.8,1.6-3.6,3.1l-9-0.4L79.2,47.001h28.001V55.5
			h-20.8L84.6,66.601c1.601-1,2.801-1.701,3.602-2c1.399-0.5,3.199-0.801,5.299-0.801c4.2,0,7.9,1.4,11.001,4.201
			c3.1,2.799,4.7,6.998,4.7,12.399c0,4.7-1.5,8.899-4.501,12.601c-2.999,3.699-7.6,5.6-13.6,5.6c-4.8,0-8.801-1.301-11.9-3.9
			s-4.8-6.3-5.2-11.1h10.001c0.399,2.199,1.199,3.9,2.3,5c1.1,1.1,2.8,1.799,4.899,1.799c2.5,0,4.4-0.899,5.7-2.6
			c1.3-1.699,1.9-3.9,1.9-6.6c0-2.6-0.601-4.801-1.8-6.6C95.8,72.9,93.901,72.001,91.301,72.001z"/>
	</g>
	<path fill="#F69321" d="M138.4,44.001c-3.6-8.602-8.8-16.301-15.4-22.9c-6.6-6.6-14.299-11.801-22.899-15.4
		c-8.9-3.8-18.301-5.699-28-5.699c-9.7,0-19.2,1.899-28,5.699c-8.601,3.7-16.3,8.801-22.9,15.5c-6.6,6.699-11.8,14.301-15.5,22.801
		C1.9,52.9,0,62.3,0,72.001c0,9.699,1.9,19.199,5.7,28c3.601,8.599,8.801,16.299,15.4,22.899S35.4,134.7,44,138.3
		c8.9,3.801,18.301,5.699,28,5.699c9.701,0,19.2-1.898,28-5.699c8.601-3.6,16.301-8.799,22.9-15.399s11.801-14.301,15.4-22.899
		c3.8-8.9,5.699-18.301,5.699-28C144,62.301,142.201,52.9,138.4,44.001z M28.4,28.399C40.001,16.7,55.601,10.3,72,10.3
		c14.2,0,27.701,4.801,38.602,13.601l-86.801,86.8c-8.8-10.9-13.6-24.4-13.6-38.6C10.4,55.601,16.801,40.101,28.4,28.399z
		 M115.701,115.7C104.001,127.399,88.5,133.8,72,133.8c-14.699,0-28.6-5.1-39.8-14.5l87-87c9.4,11.1,14.5,25,14.5,39.701
		C133.801,88.601,127.4,104.101,115.701,115.7z"/>
</g>
</svg>
