<?xml version="1.0" encoding="utf-8"?>
<!-- Generator: Adobe Illustrator 16.0.0, SVG Export Plug-In . SVG Version: 6.00 Build 0)  -->
<!DOCTYPE svg PUBLIC "-//W3C//DTD SVG 1.1//EN" "http://www.w3.org/Graphics/SVG/1.1/DTD/svg11.dtd">
<svg version="1.1" id="_x35_0m" xmlns="http://www.w3.org/2000/svg" xmlns:xlink="http://www.w3.org/1999/xlink" x="0px" y="0px"
	 width="144px" height="144px" viewBox="0 0 144 144" enable-background="new 0 0 144 144" xml:space="preserve">
<circle fill="#FFFFFF" cx="72" cy="72" r="72"/>
<g>
	<g>
		<path fill="#010101" d="M57,56.757c-1.2-1.399-2.9-2.1-5.1-2.1c-3,0-5.1,1.101-6.2,3.4c-0.6,1.3-1,3.399-1.1,6.3h-9.7
			c0.2-4.301,1-7.8,2.399-10.5c2.7-5.1,7.4-7.6,14.201-7.6c5.399,0,9.7,1.499,12.899,4.499c3.2,3.001,4.8,6.9,4.8,11.9
			c0,3.8-1.1,7.101-3.4,10c-1.5,1.899-3.899,4.1-7.299,6.5l-4,2.8c-2.5,1.8-4.2,3.101-5.2,3.9c-1,0.8-1.7,1.699-2.3,2.8h22.2v8.8
			h-35c0.1-3.7,0.9-7,2.4-10c1.4-3.399,4.8-7,10.1-10.8c4.6-3.3,7.6-5.7,9-7.1c2.1-2.2,3.1-4.7,3.1-7.301
			C58.8,60.057,58.2,58.257,57,56.757z"/>
		<path fill="#010101" d="M91.8,98.656c-6.5,0-11-2.3-13.7-6.799c-2.601-4.601-3.9-11.001-3.9-19.4s1.299-14.899,3.9-19.5
			c2.6-4.6,7.2-6.899,13.7-6.899c6.5,0,11.101,2.3,13.7,6.899c2.601,4.601,3.9,11.101,3.9,19.5s-1.3,14.9-3.9,19.4
			C102.9,96.356,98.3,98.656,91.8,98.656z M97.7,85.857c0.9-3.101,1.4-7.601,1.4-13.4c0-6.1-0.5-10.7-1.4-13.6
			c-0.9-2.9-2.9-4.4-5.8-4.4c-3,0-4.899,1.5-5.9,4.4c-1,3-1.4,7.5-1.4,13.6c0,5.9,0.5,10.3,1.4,13.4c0.9,3.1,2.9,4.7,5.9,4.7
			C94.8,90.457,96.8,88.957,97.7,85.857z"/>
	</g>
	<path fill="#F69321" d="M138.3,44.157c-3.6-8.6-8.8-16.3-15.4-22.9c-6.6-6.6-14.3-11.8-22.9-15.399c-8.8-3.8-18.3-5.7-28-5.7
		s-19.2,1.9-28,5.7c-8.6,3.6-16.3,8.8-22.9,15.399c-6.6,6.601-11.8,14.301-15.4,22.9c-3.8,8.8-5.7,18.3-5.7,28
		c0,9.699,1.9,19.2,5.7,28c3.6,8.6,8.8,16.3,15.4,22.899c6.6,6.601,14.3,11.801,22.9,15.4c8.9,3.8,18.299,5.7,28,5.7
		s19.2-1.9,28-5.7c8.6-3.6,16.3-8.8,22.9-15.4c6.6-6.6,11.8-14.3,15.4-22.899c3.8-8.9,5.7-18.301,5.7-28
		C144,62.457,142.1,52.957,138.3,44.157z M28.4,28.558C40,16.857,55.5,10.457,72,10.457c14.2,0,27.701,4.8,38.6,13.6l-86.799,86.8
		c-8.7-10.999-13.5-24.499-13.5-38.699C10.3,55.657,16.7,40.157,28.4,28.558z M115.7,115.857c-11.7,11.6-27.199,18-43.7,18
		c-14.7,0-28.6-5.101-39.8-14.501l87-86.999c9.4,11.101,14.5,25,14.5,39.8C133.7,88.657,127.299,104.157,115.7,115.857z"/>
</g>
</svg>
