<?xml version="1.0" encoding="utf-8"?>
<!-- Generator: Adobe Illustrator 16.0.0, SVG Export Plug-In . SVG Version: 6.00 Build 0)  -->
<!DOCTYPE svg PUBLIC "-//W3C//DTD SVG 1.1//EN" "http://www.w3.org/Graphics/SVG/1.1/DTD/svg11.dtd">
<svg version="1.1" id="_x35_0m" xmlns="http://www.w3.org/2000/svg" xmlns:xlink="http://www.w3.org/1999/xlink" x="0px" y="0px"
	 width="144px" height="144px" viewBox="0 0 144 144" enable-background="new 0 0 144 144" xml:space="preserve">
<circle fill="#FFFFFF" cx="72" cy="72" r="72"/>
<g>
	<path fill="#F69321" d="M72,143.999c-9.7,0-19.2-1.899-28-5.699c-8.6-3.6-16.3-8.801-22.9-15.4s-11.8-14.3-15.4-22.9
		c-3.8-8.8-5.7-18.3-5.7-28c0-9.699,1.9-19.199,5.7-28c3.6-8.6,8.8-16.299,15.4-22.899c6.6-6.6,14.3-11.8,22.9-15.4
		C52.8,1.899,62.3,0,72,0c9.7,0,19.2,1.899,28,5.699c8.6,3.601,16.3,8.801,22.9,15.4c6.6,6.601,11.8,14.3,15.4,22.899
		c3.8,8.9,5.7,18.301,5.7,28c0,9.7-1.9,19.2-5.7,28c-3.6,8.601-8.8,16.301-15.4,22.9S108.6,134.7,100,138.3
		C91.2,142.1,81.7,143.999,72,143.999z M72,10.3c-16.5,0-32,6.4-43.701,18.1c-11.699,11.7-18,27.1-18,43.6S16.7,104,28.4,115.7
		c11.7,11.699,27.2,18.1,43.7,18.1c16.5,0,32-6.4,43.7-18.1c11.7-11.7,18.1-27.201,18.1-43.601c0-16.4-6.399-32-18.1-43.7
		C104.1,16.7,88.5,10.3,72,10.3z"/>
	<g>
		<path fill="#010101" d="M42.799,97.199H32.5V62.1h-12v-6.8c3.2-0.101,5.4-0.3,6.6-0.601c2-0.499,3.7-1.3,4.9-2.7
			c0.9-0.899,1.5-2.1,2-3.699c0.3-0.9,0.4-1.6,0.4-2h8.3v50.899H42.799z"/>
		<path fill="#010101" d="M68.2,98.499c-6.5,0-11-2.3-13.7-6.799c-2.6-4.601-3.9-11.001-3.9-19.401c0-8.399,1.3-14.899,3.9-19.499
			c2.601-4.601,7.201-6.9,13.7-6.9c6.5,0,11.1,2.3,13.701,6.9c2.6,4.6,3.899,11.1,3.899,19.499c0,8.4-1.3,14.901-3.899,19.401
			C79.3,96.199,74.7,98.499,68.2,98.499z M74.1,85.7c0.9-3.102,1.4-7.601,1.4-13.401C75.5,66.2,75,61.6,74.1,58.7
			c-0.9-2.9-2.9-4.4-5.799-4.4c-3,0-5,1.5-5.901,4.4C61.5,61.6,61,66.2,61,72.299c0,5.901,0.5,10.3,1.4,13.401
			c0.9,3.1,2.9,4.699,5.901,4.699C71.2,90.3,73.101,88.8,74.1,85.7z"/>
		<path fill="#010101" d="M108.2,98.499c-6.5,0-11-2.3-13.7-6.799c-2.701-4.5-3.9-11.001-3.9-19.401c0-8.399,1.3-14.899,3.9-19.499
			c2.6-4.601,7.2-6.9,13.7-6.9c6.5,0,11.101,2.3,13.7,6.9c2.6,4.6,3.9,11.1,3.9,19.499c0,8.4-1.301,14.901-3.9,19.401
			C119.3,96.199,114.699,98.499,108.2,98.499z M114.1,85.7c0.9-3.102,1.4-7.601,1.4-13.401c0-6.099-0.5-10.699-1.4-13.599
			c-0.9-2.9-2.9-4.4-5.8-4.4c-2.9,0-4.899,1.5-5.9,4.4c-1,2.899-1.4,7.5-1.4,13.599c0,5.901,0.5,10.3,1.4,13.401
			c0.9,3.1,2.9,4.699,5.9,4.699C111.3,90.399,113.2,88.8,114.1,85.7z"/>
	</g>
</g>
</svg>
