<?xml version="1.0" encoding="utf-8"?>
<!-- Generator: Adobe Illustrator 16.0.0, SVG Export Plug-In . SVG Version: 6.00 Build 0)  -->
<!DOCTYPE svg PUBLIC "-//W3C//DTD SVG 1.1//EN" "http://www.w3.org/Graphics/SVG/1.1/DTD/svg11.dtd">
<svg version="1.1" id="_x35_0m" xmlns="http://www.w3.org/2000/svg" xmlns:xlink="http://www.w3.org/1999/xlink" x="0px" y="0px"
	 width="144px" height="144px" viewBox="0 0 144 144" enable-background="new 0 0 144 144" xml:space="preserve">
<circle fill="#FFFFFF" cx="72" cy="72" r="72"/>
<g>
	<g>
		<path fill="#010101" d="M51.2,71.899c-1.2,0-2.3,0.2-3.2,0.5c-1.601,0.601-2.8,1.602-3.5,3.1l-9-0.399l3.5-28.2h28.101v8.5H46.3
			L44.5,66.5c1.5-1,2.8-1.7,3.6-2c1.5-0.5,3.2-0.8,5.3-0.8c4.2,0,7.9,1.399,11,4.299c3.101,2.801,4.7,7,4.7,12.4
			c0,4.701-1.499,8.9-4.5,12.601c-3,3.7-7.6,5.601-13.6,5.601c-4.8,0-8.8-1.301-12-3.9c-3.1-2.6-4.8-6.301-5.2-11.101h10.001
			c0.399,2.2,1.199,3.9,2.3,5c1.1,1.101,2.8,1.8,4.899,1.8c2.5,0,4.4-0.9,5.7-2.6s2-3.9,2-6.6c0-2.6-0.601-4.801-1.801-6.601
			C55.6,72.8,53.7,71.899,51.2,71.899z"/>
		<path fill="#010101" d="M91.8,98.499c-6.5,0-11-2.299-13.7-6.799c-2.6-4.6-3.9-11-3.9-19.4s1.301-14.9,3.9-19.5
			S85.3,45.9,91.8,45.9s11.1,2.3,13.699,6.899c2.602,4.6,3.9,11.1,3.9,19.5s-1.299,14.9-3.9,19.4
			C102.899,96.2,98.3,98.499,91.8,98.499z M97.699,85.7c0.9-3.101,1.4-7.6,1.4-13.4c0-6.1-0.5-10.7-1.4-13.6
			c-0.899-2.9-2.899-4.4-5.8-4.4c-3,0-4.899,1.5-5.899,4.4c-1.001,3-1.4,7.5-1.4,13.6c0,5.9,0.5,10.3,1.4,13.4
			c0.899,3.1,2.899,4.699,5.899,4.699C94.8,90.3,96.8,88.8,97.699,85.7z"/>
	</g>
	<path fill="#F69321" d="M138.3,44c-3.6-8.601-8.8-16.3-15.4-22.899C116.3,14.5,108.601,9.3,100,5.7C91.199,1.899,81.699,0,72,0
		c-9.7,0-19.2,1.899-28,5.7c-8.6,3.6-16.3,8.8-22.9,15.4C14.5,27.7,9.3,35.399,5.7,44C1.9,52.8,0,62.3,0,72s1.9,19.2,5.7,28
		c3.6,8.599,8.8,16.3,15.399,22.899C27.7,129.5,35.4,134.7,44,138.3c8.899,3.801,18.3,5.7,28,5.7c9.699,0,19.199-1.899,28-5.7
		c8.601-3.6,16.3-8.8,22.899-15.4c6.601-6.6,11.801-14.301,15.4-22.899c3.8-8.9,5.7-18.3,5.7-28S142.1,52.8,138.3,44z M28.4,28.399
		C40,16.7,55.5,10.3,72,10.3c14.2,0,27.7,4.801,38.6,13.6L23.8,110.7c-8.7-11-13.5-24.501-13.5-38.7
		C10.3,55.499,16.7,39.999,28.4,28.399z M115.7,115.7c-11.7,11.6-27.2,18-43.7,18c-14.7,0-28.6-5.1-39.8-14.5l87-87
		c9.4,11.1,14.5,25,14.5,39.8C133.7,88.501,127.3,103.999,115.7,115.7z"/>
</g>
</svg>
