<?xml version="1.0" encoding="utf-8"?>
<!-- Generator: Adobe Illustrator 16.0.0, SVG Export Plug-In . SVG Version: 6.00 Build 0)  -->
<!DOCTYPE svg PUBLIC "-//W3C//DTD SVG 1.1//EN" "http://www.w3.org/Graphics/SVG/1.1/DTD/svg11.dtd">
<svg version="1.1" id="_x35_0m" xmlns="http://www.w3.org/2000/svg" xmlns:xlink="http://www.w3.org/1999/xlink" x="0px" y="0px"
	 width="144px" height="144px" viewBox="0 0 144 144" enable-background="new 0 0 144 144" xml:space="preserve">
<circle fill="#FFFFFF" cx="72" cy="72" r="72"/>
<g>
	<path fill="#F69321" d="M72,144c-9.699,0-19.199-1.899-28-5.7c-8.6-3.6-16.301-8.8-22.9-15.4c-6.6-6.6-11.799-14.299-15.4-22.899
		C1.9,91.1,0,81.7,0,72s1.9-19.2,5.699-28c3.602-8.6,8.801-16.3,15.4-22.899S35.4,9.3,44,5.7c8.9-3.8,18.301-5.699,28-5.699
		S91.199,1.9,100,5.7c8.6,3.6,16.299,8.801,22.9,15.4c6.6,6.6,11.799,14.3,15.4,22.899C142.1,52.899,144,62.3,144,72
		s-1.9,19.2-5.699,28c-3.602,8.601-8.801,16.3-15.4,22.899C116.299,129.5,108.6,134.7,100,138.3C91.199,142.101,81.699,144,72,144z
		 M72,10.3c-16.5,0-32,6.4-43.699,18.101c-11.701,11.7-18,27.1-18,43.6s6.4,32.001,18.1,43.7S55.6,133.8,72.1,133.8
		s32.002-6.4,43.699-18.1c11.701-11.699,18.102-27.2,18.102-43.6c0-16.4-6.4-32-18.102-43.7C104.102,16.7,88.5,10.3,72,10.3z"/>
	<g>
		<path fill="#010101" d="M50.701,98.7C46.9,98.7,43.5,97.6,40.4,95.3s-4.801-5.6-5.201-9.9h10c0.201,1.5,0.9,2.701,1.9,3.7
			c1,0.901,2.4,1.399,4.102,1.399c3.299,0,5.6-1.799,7-5.5C58.9,83.001,59.4,80,59.6,76.2c-0.898,1.2-1.898,2-2.9,2.6
			c-1.898,1.1-4.199,1.7-6.898,1.7c-4.102,0-7.701-1.399-10.801-4.2c-3.1-2.8-4.699-6.8-4.699-12.1c0-5.5,1.6-9.9,4.699-13.3
			c3.199-3.399,7.201-5.101,12.301-5.101c7.799,0,13.1,3.4,16,10.301c1.6,3.899,2.5,9,2.5,15.399c0,6.2-0.801,11.3-2.4,15.399
			C64.201,94.8,58.701,98.7,50.701,98.7z M47.199,55.7c-1.9,1.5-2.898,4-2.898,7.6c0,3,0.6,5.301,1.799,6.8
			c1.201,1.501,3.1,2.3,5.701,2.3c1.398,0,2.699-0.399,3.898-1.199c2.301-1.4,3.4-4,3.4-7.6c0-2.9-0.699-5.2-2-6.9
			c-1.299-1.699-3.199-2.5-5.5-2.5C49.801,54.2,48.4,54.7,47.199,55.7z"/>
		<path fill="#010101" d="M91.199,71.899c-1.199,0-2.299,0.201-3.199,0.5C86.4,73,85.199,74,84.4,75.501l-9-0.401l3.6-28.2h28.1
			V55.4H86.301L84.5,66.5c1.6-1,2.799-1.7,3.6-2c1.4-0.499,3.201-0.8,5.301-0.8c4.199,0,7.9,1.4,11,4.301
			c3.1,2.898,4.699,7,4.699,12.398c0,4.701-1.5,8.9-4.5,12.601S97,98.6,91,98.6c-4.799,0-8.801-1.3-11.9-3.899
			S74.301,88.399,73.9,83.6h10c0.4,2.2,1.199,3.9,2.301,5.001c1.1,1.1,2.799,1.8,4.898,1.8c2.5,0,4.4-0.899,5.701-2.601
			c1.299-1.699,1.898-3.899,1.898-6.6c0-2.6-0.6-4.8-1.799-6.6C95.699,72.8,93.801,71.899,91.199,71.899z"/>
	</g>
</g>
</svg>
