<?xml version="1.0" encoding="utf-8"?>
<!-- Generator: Adobe Illustrator 16.0.0, SVG Export Plug-In . SVG Version: 6.00 Build 0)  -->
<!DOCTYPE svg PUBLIC "-//W3C//DTD SVG 1.1//EN" "http://www.w3.org/Graphics/SVG/1.1/DTD/svg11.dtd">
<svg version="1.1" id="_x35_0m" xmlns="http://www.w3.org/2000/svg" xmlns:xlink="http://www.w3.org/1999/xlink" x="0px" y="0px"
	 width="144px" height="144px" viewBox="0 0 144 144" enable-background="new 0 0 144 144" xml:space="preserve">
<circle fill="#FFFFFF" cx="72" cy="72" r="72"/>
<g>
	<g>
		<path fill="#010101" d="M45.801,56.557c-1.102,1.5-1.701,3.5-1.602,6H34.9c0.1-2.5,0.5-4.899,1.299-7.199
			c0.801-2,2.102-3.801,3.9-5.5c1.301-1.2,2.9-2.101,4.701-2.701c1.799-0.6,4-0.999,6.6-0.999c4.9,0,8.799,1.3,11.801,3.8
			c2.998,2.5,4.498,5.9,4.498,10.1c0,3-0.898,5.5-2.699,7.601c-1.1,1.3-2.299,2.2-3.5,2.601c0.9,0,2.201,0.799,3.9,2.399
			c2.6,2.4,3.799,5.601,3.799,9.7c0,4.3-1.5,8.1-4.5,11.4c-3,3.3-7.4,4.898-13.299,4.898c-7.201,0-12.201-2.399-15-7.1
			c-1.5-2.499-2.301-5.799-2.5-9.8h9.799c0,2,0.301,3.7,1,5.1c1.201,2.501,3.4,3.7,6.602,3.7c2,0,3.699-0.699,5.199-2
			c1.5-1.299,2.199-3.299,2.199-5.8c0-3.3-1.4-5.601-4.1-6.699c-1.5-0.601-4-0.901-7.299-0.901v-7.199c3.299-0.1,5.5-0.4,6.799-0.9
			c2.201-1,3.301-3,3.301-6c0-2-0.6-3.5-1.699-4.799C54.6,54.957,53,54.457,50.9,54.457C48.701,54.357,46.9,55.057,45.801,56.557z"
			/>
		<path fill="#010101" d="M91.299,72.057c-1.199,0-2.299,0.2-3.199,0.5c-1.6,0.601-2.801,1.602-3.6,3.1l-9-0.399l3.699-28.2h28v8.5
			H86.4L84.6,66.657c1.6-1,2.801-1.7,3.6-2c1.4-0.5,3.201-0.8,5.301-0.8c4.199,0,7.9,1.399,11,4.299c3.1,2.801,4.699,7,4.699,12.4
			c0,4.701-1.5,8.9-4.5,12.601s-7.6,5.601-13.6,5.601c-4.801,0-8.799-1.301-11.9-3.9c-3.1-2.6-4.799-6.301-5.199-11.101h10
			c0.4,2.2,1.199,3.9,2.299,5c1.102,1.101,2.801,1.8,4.9,1.8c2.5,0,4.4-0.9,5.699-2.6c1.301-1.699,1.9-3.9,1.9-6.6
			c0-2.6-0.6-4.801-1.799-6.601S93.9,72.057,91.299,72.057z"/>
	</g>
	<path fill="#F69321" d="M138.398,44.157c-3.6-8.601-8.799-16.3-15.398-22.899c-6.6-6.601-14.301-11.801-22.9-15.4
		c-8.9-3.801-18.299-5.7-28-5.7c-9.699,0-19.1,1.899-28,5.7c-8.6,3.6-16.299,8.8-22.9,15.4C14.6,27.857,9.4,35.557,5.701,44.157
		C1.9,53.058,0,62.457,0,72.157s1.9,19.2,5.701,28c3.6,8.599,8.799,16.3,15.398,22.899c6.6,6.601,14.301,11.801,22.9,15.4
		c8.9,3.801,18.301,5.7,28,5.7s19.199-1.899,28-5.7c8.6-3.6,16.301-8.8,22.9-15.4c6.6-6.6,11.799-14.301,15.4-22.899
		c3.799-8.9,5.699-18.3,5.699-28S142.199,52.957,138.398,44.157z M28.4,28.557C40.1,16.857,55.6,10.457,72.1,10.457
		c14.199,0,27.699,4.801,38.6,13.6L23.9,110.857c-8.801-10.9-13.5-24.4-13.5-38.601C10.4,55.656,16.801,40.156,28.4,28.557z
		 M115.699,115.857C104,127.557,88.5,133.957,72,133.957c-14.701,0-28.6-5.101-39.801-14.5l87-87c9.4,11.1,14.5,25,14.5,39.8
		C133.799,88.658,127.4,104.156,115.699,115.857z"/>
</g>
</svg>
