<?xml version="1.0" encoding="UTF-8"?>
<svg id="_x35_0m" xmlns="http://www.w3.org/2000/svg" version="1.1" viewBox="0 0 144 144">
  <!-- Generator: Adobe Illustrator 29.0.0, SVG Export Plug-In . SVG Version: 2.1.0 Build 186)  -->
  <defs>
    <style>
      .st0 {
        isolation: isolate;
      }

      .st1 {
        fill: #fff;
      }

      .st2 {
        fill: #f69321;
      }
    </style>
  </defs>
  <circle class="st1" cx="72" cy="72" r="72"/>
  <g class="st0">
    <g class="st0">
      <path d="M44.5,96.8h-10.1v-34.7h-11.8v-6.7c3.1-.1,5.3-.3,6.6-.6,2-.4,3.6-1.3,4.9-2.6.9-.9,1.5-2.1,1.9-3.6.3-.9.4-1.6.4-2h8.2v50.3Z"/>
      <path d="M81.3,62.6c-2.6,3.7-4.8,7.6-6.6,11.6-1.4,3.1-2.7,6.9-3.8,11.5-1.1,4.5-1.7,8.2-1.7,11.1h-10.3c.3-9,3.3-18.4,8.9-28.2,3.6-6,6.7-10.3,9.1-12.6h-25.1v-8.9h35.7v7.7c-1.5,1.5-3.5,4-6.2,7.8Z"/>
      <path d="M109.2,98c-6.4,0-10.9-2.2-13.5-6.7-2.6-4.5-3.9-10.9-3.9-19.2s1.3-14.7,3.9-19.2c2.6-4.5,7.1-6.8,13.5-6.8s10.9,2.3,13.5,6.8c2.6,4.5,3.9,10.9,3.9,19.2s-1.3,14.7-3.9,19.2c-2.6,4.5-7.1,6.7-13.5,6.7ZM115,85.4c.9-3.1,1.4-7.5,1.4-13.3s-.5-10.6-1.4-13.5c-.9-2.9-2.8-4.4-5.8-4.4s-4.9,1.5-5.8,4.4c-1,2.9-1.4,7.4-1.4,13.5s.5,10.2,1.4,13.3c.9,3.1,2.9,4.6,5.8,4.6s4.9-1.5,5.8-4.6Z"/>
    </g>
  </g>
  <path class="st2" d="M72,144c-9.7,0-19.2-1.9-28-5.7-8.6-3.6-16.3-8.8-22.9-15.4s-11.8-14.3-15.4-22.9C1.9,91.2,0,81.7,0,72s1.9-19.2,5.7-28c3.6-8.6,8.8-16.3,15.4-22.9,6.6-6.6,14.3-11.8,22.9-15.4C52.8,1.9,62.3,0,72,0s19.2,1.9,28,5.7c8.6,3.6,16.3,8.8,22.9,15.4,6.6,6.6,11.8,14.3,15.4,22.9,3.8,8.9,5.7,18.3,5.7,28s-1.9,19.2-5.7,28c-3.6,8.6-8.8,16.3-15.4,22.9s-14.3,11.8-22.9,15.4c-8.8,3.8-18.3,5.7-28,5.7ZM72,10.3c-16.5,0-32,6.4-43.7,18.1s-18,27.1-18,43.6,6.4,32,18.1,43.7c11.7,11.7,27.2,18.1,43.7,18.1s32-6.4,43.7-18.1c11.7-11.7,18.1-27.2,18.1-43.6s-6.4-32-18.1-43.7-27.3-18.1-43.8-18.1h0Z"/>
</svg>