<?xml version="1.0" encoding="utf-8"?>
<!-- Generator: Adobe Illustrator 16.0.0, SVG Export Plug-In . SVG Version: 6.00 Build 0)  -->
<!DOCTYPE svg PUBLIC "-//W3C//DTD SVG 1.1//EN" "http://www.w3.org/Graphics/SVG/1.1/DTD/svg11.dtd">
<svg version="1.1" id="_x35_0m" xmlns="http://www.w3.org/2000/svg" xmlns:xlink="http://www.w3.org/1999/xlink" x="0px" y="0px"
	 width="144px" height="144px" viewBox="0 0 144 144" enable-background="new 0 0 144 144" xml:space="preserve">
<circle fill="#FFFFFF" cx="72" cy="72" r="72"/>
<g>
	<path fill="#F69321" d="M72.05,143.95c-9.693,0-19.186-1.898-27.98-5.695c-8.594-3.598-16.289-8.795-22.883-15.391
		c-6.596-6.594-11.793-14.289-15.49-22.883c-3.797-8.895-5.695-18.287-5.695-27.98s1.898-19.188,5.695-27.98
		c3.598-8.594,8.795-16.289,15.389-22.885C27.681,14.54,35.476,9.345,44.069,5.747C52.964,2.05,62.356,0.05,72.05,0.05
		s19.188,1.9,27.98,5.697c8.594,3.598,16.289,8.793,22.883,15.389c6.598,6.596,11.793,14.291,15.391,22.885
		c3.797,8.893,5.695,18.287,5.695,27.98s-1.898,19.186-5.695,27.98c-3.598,8.594-8.793,16.289-15.391,22.883
		c-6.594,6.596-14.289,11.793-22.883,15.391C91.138,142.052,81.743,143.95,72.05,143.95z M72.05,10.343
		c-16.488,0-31.979,6.396-43.67,18.088s-17.986,27.082-17.986,43.57s6.395,31.979,18.086,43.67
		c11.693,11.691,27.182,18.086,43.67,18.086s31.979-6.395,43.67-18.086s18.088-27.182,18.088-43.67s-6.396-31.979-18.088-43.67
		S88.538,10.343,72.05,10.343z"/>
	<g>
		<path fill="#010101" d="M53.964,64.206c4.496,0,8.193,1.5,11.092,4.598c2.896,3.098,4.297,6.994,4.297,11.791
			s-1.4,8.895-4.197,12.592c-2.799,3.596-7.195,5.395-13.191,5.395c-6.395,0-11.191-2.697-14.189-8.094
			c-2.398-4.197-3.498-9.592-3.498-16.188c0-3.898,0.199-7.096,0.5-9.494c0.6-4.297,1.699-7.994,3.396-10.793
			c1.5-2.498,3.398-4.396,5.697-5.895c2.398-1.5,5.195-2.199,8.494-2.199c4.697,0,8.494,1.199,11.291,3.598
			c2.799,2.398,4.396,5.695,4.797,9.693H58.46c0-0.799-0.301-1.699-1-2.699c-1.1-1.598-2.697-2.396-4.896-2.396
			c-3.297,0-5.596,1.797-6.994,5.494c-0.801,2-1.301,4.998-1.5,8.895c1.199-1.498,2.697-2.598,4.297-3.197
			C50.065,64.505,51.864,64.206,53.964,64.206z M47.269,73.7c-2,1.498-3,3.996-3,7.395c0,2.697,0.699,4.996,2.199,6.695
			s3.297,2.598,5.596,2.598c2.199,0,3.998-0.799,5.297-2.498s1.898-3.797,1.898-6.496c0-2.996-0.699-5.295-2.197-6.795
			c-1.5-1.598-3.199-2.398-5.297-2.398C50.065,72.2,48.565,72.7,47.269,73.7z"/>
		<path fill="#010101" d="M91.237,71.901c-1.199,0-2.299,0.199-3.197,0.5c-1.6,0.6-2.799,1.598-3.6,3.098l-8.994-0.4l3.699-28.18
			h27.98v8.494H86.339l-1.797,11.092c1.598-1,2.797-1.699,3.596-2c1.4-0.498,3.199-0.799,5.297-0.799
			c4.197,0,7.895,1.398,10.992,4.197s4.697,6.996,4.697,12.391c0,4.697-1.498,8.895-4.498,12.592
			c-2.996,3.697-7.594,5.598-13.59,5.598c-4.795,0-8.793-1.301-11.891-3.898s-4.797-6.295-5.197-11.092h9.992
			c0.4,2.197,1.201,3.896,2.301,4.996c1.098,1.1,2.797,1.799,4.896,1.799c2.498,0,4.395-0.9,5.695-2.598
			c1.299-1.699,1.898-3.898,1.898-6.596c0-2.6-0.6-4.797-1.799-6.596S93.835,71.901,91.237,71.901z"/>
	</g>
</g>
</svg>
