<?xml version="1.0" encoding="utf-8"?>
<!-- Generator: Adobe Illustrator 16.0.0, SVG Export Plug-In . SVG Version: 6.00 Build 0)  -->
<!DOCTYPE svg PUBLIC "-//W3C//DTD SVG 1.1//EN" "http://www.w3.org/Graphics/SVG/1.1/DTD/svg11.dtd">
<svg version="1.1" id="_x35_0m" xmlns="http://www.w3.org/2000/svg" xmlns:xlink="http://www.w3.org/1999/xlink" x="0px" y="0px"
	 width="144px" height="144px" viewBox="0 0 144 144" enable-background="new 0 0 144 144" xml:space="preserve">
<circle fill="#FFFFFF" cx="72" cy="72" r="72"/>
<g>
	<path fill="#F69321" d="M71.999,144.157c-9.699,0-19.199-1.899-27.998-5.7c-8.6-3.6-16.301-8.8-22.9-15.4
		c-6.6-6.6-11.801-14.301-15.4-22.899c-3.799-8.8-5.699-18.3-5.699-28s1.9-19.2,5.699-28c3.6-8.601,8.801-16.3,15.4-22.899
		c6.6-6.601,14.301-11.801,22.9-15.4c8.799-3.801,18.299-5.7,27.998-5.7c9.701,0,19.201,1.899,28,5.7
		c8.602,3.6,16.301,8.8,22.9,15.4c6.6,6.6,11.801,14.299,15.4,22.899c3.801,8.9,5.699,18.3,5.699,28s-1.898,19.2-5.699,28
		c-3.6,8.599-8.801,16.3-15.4,22.899c-6.6,6.601-14.299,11.801-22.9,15.4C91.2,142.258,81.7,144.157,71.999,144.157z M71.999,10.457
		c-16.498,0-31.998,6.4-43.699,18.1c-11.699,11.7-18,27.1-18,43.601s6.4,31.999,18.102,43.7c11.699,11.699,27.199,18.1,43.699,18.1
		s32-6.4,43.699-18.1c11.699-11.701,18.1-27.199,18.1-43.601c0-16.399-6.4-32-18.1-43.7C104.101,16.857,88.501,10.457,71.999,10.457
		z"/>
	<g>
		<path fill="#010101" d="M69.601,78.557v7.8H63.8v11.001h-9.799V86.356h-20.1v-8.8l18.699-30.9H63.8v31.801
			C63.8,78.557,69.601,78.557,69.601,78.557z M41.3,78.557h12.701v-22L41.3,78.557z"/>
		<path fill="#010101" d="M91.8,98.656c-6.5,0-11-2.299-13.699-6.799c-2.6-4.6-3.9-11-3.9-19.4s1.301-14.9,3.9-19.5
			S85.3,46.058,91.8,46.058s11.1,2.3,13.699,6.899c2.602,4.6,3.9,11.1,3.9,19.5s-1.299,14.9-3.9,19.4
			C102.899,96.357,98.3,98.656,91.8,98.656z M97.7,85.857c0.9-3.101,1.4-7.6,1.4-13.4c0-6.1-0.5-10.7-1.4-13.6
			c-0.9-2.9-2.9-4.4-5.801-4.4c-3,0-4.898,1.5-5.9,4.4c-1,3-1.398,7.5-1.398,13.6c0,5.9,0.5,10.3,1.398,13.4
			c0.9,3.1,2.9,4.699,5.9,4.699C94.8,90.457,96.8,88.957,97.7,85.857z"/>
	</g>
</g>
</svg>
