<?xml version="1.0" encoding="utf-8"?>
<!-- Generator: Adobe Illustrator 16.0.0, SVG Export Plug-In . SVG Version: 6.00 Build 0)  -->
<!DOCTYPE svg PUBLIC "-//W3C//DTD SVG 1.1//EN" "http://www.w3.org/Graphics/SVG/1.1/DTD/svg11.dtd">
<svg version="1.1" id="_x35_0m" xmlns="http://www.w3.org/2000/svg" xmlns:xlink="http://www.w3.org/1999/xlink" x="0px" y="0px"
	 width="144px" height="144px" viewBox="0 0 144 144" enable-background="new 0 0 144 144" xml:space="preserve">
<circle fill="#FFFFFF" cx="72" cy="72" r="72"/>
<g>
	<path fill="#F69321" d="M72.05,143.95c-9.693,0-19.186-1.898-27.98-5.696c-8.594-3.597-16.289-8.794-22.883-15.39
		c-6.596-6.595-11.793-14.289-15.49-22.884C1.899,91.087,0.001,81.693,0.001,72s1.898-19.187,5.695-27.98
		c3.598-8.594,8.793-16.288,15.389-22.884S35.476,9.344,44.069,5.746C52.964,2.049,62.356,0.05,72.05,0.05s19.188,1.899,27.98,5.696
		c8.594,3.598,16.289,8.794,22.883,15.39c6.598,6.596,11.793,14.29,15.391,22.884c3.797,8.894,5.695,18.287,5.695,27.98
		s-1.898,19.187-5.695,27.98c-3.598,8.595-8.793,16.289-15.391,22.884c-6.594,6.596-14.289,11.793-22.883,15.39
		C91.136,142.052,81.743,143.95,72.05,143.95z M72.05,10.343c-16.488,0-31.979,6.396-43.67,18.088S10.394,55.512,10.394,72
		c0,16.489,6.395,31.979,18.086,43.67c11.693,11.691,27.182,18.087,43.67,18.087s31.979-6.396,43.67-18.087
		S133.907,88.489,133.907,72c0-16.488-6.396-31.978-18.088-43.669C104.128,16.639,88.538,10.343,72.05,10.343z"/>
	<path fill="#010101" d="M61.257,97.282H50.964V62.107h-11.99v-6.796c3.197-0.1,5.396-0.3,6.596-0.6
		c1.998-0.399,3.697-1.299,4.896-2.698c0.898-0.899,1.498-2.098,1.998-3.697c0.299-0.898,0.4-1.599,0.4-1.998h8.293L61.257,97.282
		L61.257,97.282z"/>
	<path fill="#010101" d="M83.94,71.9c-1.197,0-2.297,0.2-3.197,0.5c-1.598,0.499-2.797,1.599-3.596,3.098l-8.994-0.4l3.598-28.18
		h28.08v8.494H79.044l-1.896,11.191c1.598-0.999,2.797-1.698,3.596-1.998c1.398-0.5,3.197-0.8,5.297-0.8
		c4.197,0,7.895,1.399,10.992,4.197s4.697,6.995,4.697,12.392c0,4.697-1.5,8.894-4.498,12.591c-2.998,3.698-7.494,5.497-13.49,5.497
		c-4.797,0-8.793-1.3-11.891-3.897c-3.098-2.599-4.797-6.296-5.197-11.093h9.994c0.398,2.198,1.199,3.897,2.297,4.997
		c1.1,1.099,2.799,1.799,4.898,1.799c2.496,0,4.396-0.9,5.695-2.599c1.299-1.699,1.898-3.897,1.898-6.596
		c0-2.599-0.6-4.796-1.799-6.595S86.44,71.9,83.94,71.9z"/>
</g>
</svg>
