<?xml version="1.0" encoding="utf-8"?>
<!-- Generator: Adobe Illustrator 16.0.0, SVG Export Plug-In . SVG Version: 6.00 Build 0)  -->
<!DOCTYPE svg PUBLIC "-//W3C//DTD SVG 1.1//EN" "http://www.w3.org/Graphics/SVG/1.1/DTD/svg11.dtd">
<svg version="1.1" id="_x35_0m" xmlns="http://www.w3.org/2000/svg" xmlns:xlink="http://www.w3.org/1999/xlink" x="0px" y="0px"
	 width="144px" height="144px" viewBox="0 0 144 144" enable-background="new 0 0 144 144" xml:space="preserve">
<circle fill="#FFFFFF" cx="72" cy="72" r="72"/>
<g>
	<g>
		<g>
			<defs>
				<polygon id="SVGID_5_" points="-213.87,-213.87 -212.87,-213.87 -213.87,-212.87 				"/>
			</defs>
			<defs>
				<polygon id="SVGID_6_" points="-215.87,-215.87 -216.87,-215.87 -215.87,-216.87 				"/>
			</defs>
			<clipPath id="SVGID_4_">
				<use xlink:href="#SVGID_5_"  overflow="visible"/>
			</clipPath>
			<clipPath id="SVGID_7_" clip-path="url(#SVGID_4_)">
				<use xlink:href="#SVGID_6_"  overflow="visible"/>
			</clipPath>
		</g>
	</g>
</g>
<g>
	<g>
		<g>
			<defs>
				<polygon id="SVGID_31_" points="-213.87,-213.87 -212.87,-213.87 -213.87,-212.87 				"/>
			</defs>
			<defs>
				<polygon id="SVGID_32_" points="-215.87,-215.87 -216.87,-215.87 -215.87,-216.87 				"/>
			</defs>
			<clipPath id="SVGID_8_">
				<use xlink:href="#SVGID_31_"  overflow="visible"/>
			</clipPath>
			<clipPath id="SVGID_11_" clip-path="url(#SVGID_8_)">
				<use xlink:href="#SVGID_32_"  overflow="visible"/>
			</clipPath>
		</g>
	</g>
</g>
<g>
	<path fill="#F69321" d="M72.051,143.95c-9.693,0-19.186-1.898-27.98-5.695c-8.594-3.598-16.289-8.795-22.885-15.391
		c-6.596-6.594-11.791-14.289-15.488-22.883C1.9,91.087,0,81.694,0,72.001s1.9-19.188,5.697-27.98
		c3.598-8.594,8.793-16.289,15.389-22.885S35.477,9.345,44.07,5.747C52.965,2.05,62.357,0.05,72.051,0.05s19.188,1.9,27.98,5.697
		c8.594,3.598,16.289,8.793,22.883,15.389c6.598,6.596,11.793,14.291,15.391,22.885c3.797,8.893,5.695,18.287,5.695,27.98
		s-1.898,19.186-5.695,27.98c-3.598,8.594-8.793,16.289-15.391,22.883c-6.594,6.596-14.289,11.793-22.883,15.391
		C91.137,142.052,81.744,143.95,72.051,143.95z M72.051,10.343c-16.488,0-31.979,6.396-43.67,18.088s-17.986,27.082-17.986,43.57
		s6.395,31.979,18.086,43.67c11.693,11.691,27.182,18.086,43.67,18.086s31.979-6.395,43.67-18.086s18.088-27.182,18.088-43.67
		s-6.396-31.979-18.088-43.67S88.539,10.343,72.051,10.343z"/>
	<g>
		<path fill="#010101" d="M53.963,64.206c4.498,0,8.195,1.5,11.092,4.598c2.898,3.098,4.299,6.994,4.299,11.791
			s-1.4,8.895-4.197,12.592c-2.799,3.596-7.195,5.395-13.191,5.395c-6.396,0-11.191-2.697-14.189-8.094
			c-2.398-4.197-3.498-9.592-3.498-16.188c0-3.898,0.199-7.096,0.5-9.494c0.6-4.297,1.699-7.994,3.396-10.793
			c1.5-2.498,3.398-4.396,5.695-5.895c2.4-1.5,5.197-2.199,8.496-2.199c4.695,0,8.494,1.199,11.291,3.598
			c2.799,2.398,4.396,5.695,4.797,9.693h-9.992c0-0.799-0.301-1.699-1-2.699c-1.1-1.598-2.697-2.396-4.896-2.396
			c-3.297,0-5.596,1.797-6.996,5.494c-0.799,2-1.299,4.998-1.498,8.895c1.199-1.498,2.697-2.598,4.297-3.197
			C50.066,64.505,51.865,64.206,53.963,64.206z M47.268,73.7c-1.998,1.498-2.998,3.996-2.998,7.395c0,2.697,0.699,4.996,2.199,6.695
			s3.297,2.598,5.596,2.598c2.199,0,3.998-0.799,5.297-2.498s1.898-3.797,1.898-6.496c0-2.996-0.699-5.295-2.199-6.795
			c-1.498-1.598-3.197-2.398-5.295-2.398C50.066,72.2,48.566,72.7,47.268,73.7z"/>
		<path fill="#010101" d="M91.838,98.483c-6.496,0-10.994-2.299-13.691-6.797C75.447,87.19,74.25,80.694,74.25,72.3
			c0-8.393,1.299-14.889,3.896-19.486c2.598-4.596,7.195-6.895,13.691-6.895c6.494,0,11.092,2.299,13.689,6.895
			c2.598,4.598,3.896,11.094,3.896,19.486c0,8.395-1.299,14.891-3.896,19.387C102.93,96.185,98.332,98.483,91.838,98.483z
			 M97.732,85.69c0.898-3.098,1.398-7.594,1.398-13.391c0-6.096-0.5-10.691-1.398-13.59s-2.898-4.396-5.795-4.396
			c-2.898,0-4.898,1.498-5.896,4.396c-1,2.898-1.398,7.494-1.398,13.59c0,5.896,0.5,10.293,1.398,13.391
			c0.9,3.098,2.898,4.697,5.896,4.697S96.834,88.788,97.732,85.69z"/>
	</g>
</g>
</svg>
