<?xml version="1.0" encoding="utf-8"?>
<!-- Generator: Adobe Illustrator 16.0.0, SVG Export Plug-In . SVG Version: 6.00 Build 0)  -->
<!DOCTYPE svg PUBLIC "-//W3C//DTD SVG 1.1//EN" "http://www.w3.org/Graphics/SVG/1.1/DTD/svg11.dtd">
<svg version="1.1" id="_x35_0m" xmlns="http://www.w3.org/2000/svg" xmlns:xlink="http://www.w3.org/1999/xlink" x="0px" y="0px"
	 width="144px" height="144px" viewBox="0 0 144 144" enable-background="new 0 0 144 144" xml:space="preserve">
<circle fill="#FFFFFF" cx="72" cy="72" r="72"/>
<g>
	<path fill="#F69321" d="M72,144c-9.7,0-19.199-1.899-28-5.7c-8.6-3.6-16.299-8.8-22.899-15.4C14.5,116.3,9.301,108.599,5.7,100
		C1.9,91.2,0,81.7,0,72s1.9-19.2,5.7-28c3.601-8.601,8.8-16.3,15.4-22.899C27.701,14.5,35.4,9.3,44,5.7C52.801,1.899,62.3,0,72,0
		c9.699,0,19.2,1.899,28,5.7c8.601,3.6,16.3,8.8,22.899,15.4C129.5,27.7,134.7,35.399,138.3,44c3.8,8.9,5.7,18.3,5.7,28
		s-1.9,19.2-5.7,28c-3.6,8.599-8.8,16.3-15.4,22.899C116.3,129.5,108.601,134.7,100,138.3C91.2,142.101,81.699,144,72,144z M72,10.3
		c-16.5,0-32,6.4-43.7,18.1C16.601,40.1,10.301,55.499,10.301,72s6.399,31.999,18.1,43.7c11.7,11.699,27.2,18.1,43.699,18.1
		c16.501,0,32-6.4,43.7-18.1C127.5,103.999,133.9,88.501,133.9,72.1c0-16.399-6.4-32-18.101-43.7C104.1,16.7,88.5,10.3,72,10.3z"/>
	<g>
		<path fill="#010101" d="M57,56.601c-1.199-1.4-2.9-2.102-5.1-2.102c-3,0-5.1,1.102-6.2,3.4c-0.6,1.301-1,3.4-1.1,6.301h-9.7
			c0.2-4.301,1-7.801,2.399-10.5c2.7-5.1,7.4-7.601,14.201-7.601c5.399,0,9.699,1.5,12.899,4.5c3.199,3,4.8,6.9,4.8,11.899
			c0,3.801-1.101,7.102-3.4,10.001c-1.5,1.899-3.899,4.1-7.3,6.5l-4,2.8c-2.5,1.8-4.2,3.1-5.199,3.9
			c-1.001,0.8-1.7,1.699-2.301,2.801h22.2V97.3h-35c0.101-3.699,0.9-7,2.4-10c1.399-3.4,4.8-7,10.1-10.801
			c4.6-3.299,7.601-5.699,9-7.1c2.1-2.199,3.1-4.699,3.1-7.3C58.8,59.899,58.2,58.1,57,56.601z"/>
		<path fill="#010101" d="M91.801,98.499c-6.5,0-11.001-2.299-13.701-6.799c-2.6-4.6-3.899-11-3.899-19.4s1.3-14.9,3.899-19.5
			S85.301,45.9,91.801,45.9c6.499,0,11.1,2.3,13.699,6.899s3.9,11.1,3.9,19.5s-1.301,14.9-3.9,19.4S98.3,98.499,91.801,98.499z
			 M97.7,85.7C98.6,82.6,99.1,78.101,99.1,72.3c0-6.1-0.5-10.7-1.399-13.6c-0.9-2.9-2.9-4.4-5.801-4.4C88.9,54.3,87,55.8,86,58.7
			c-1,3-1.4,7.5-1.4,13.6c0,5.9,0.5,10.3,1.4,13.4c0.899,3.1,2.9,4.699,5.899,4.699C94.8,90.3,96.8,88.8,97.7,85.7z"/>
	</g>
</g>
</svg>
