<?xml version="1.0" encoding="utf-8"?>
<!-- Generator: Adobe Illustrator 16.0.0, SVG Export Plug-In . SVG Version: 6.00 Build 0)  -->
<!DOCTYPE svg PUBLIC "-//W3C//DTD SVG 1.1//EN" "http://www.w3.org/Graphics/SVG/1.1/DTD/svg11.dtd">
<svg version="1.1" id="_x35_0m" xmlns="http://www.w3.org/2000/svg" xmlns:xlink="http://www.w3.org/1999/xlink" x="0px" y="0px"
	 width="144px" height="144px" viewBox="0 0 144 144" enable-background="new 0 0 144 144" xml:space="preserve">
<circle fill="#FFFFFF" cx="72" cy="72" r="72"/>
<g>
	<g>
		<g>
			<defs>
				<polygon id="SVGID_3_" points="1,1 2,1 1,2 				"/>
			</defs>
			<clipPath id="SVGID_4_">
				<use xlink:href="#SVGID_3_"  overflow="visible"/>
			</clipPath>
		</g>
		<g>
			<defs>
				<polygon id="SVGID_5_" points="1,1 2,1 1,2 				"/>
			</defs>
			<defs>
				<polygon id="SVGID_6_" points="-1,-1 -2,-1 -1,-2 				"/>
			</defs>
			<clipPath id="SVGID_7_">
				<use xlink:href="#SVGID_5_"  overflow="visible"/>
			</clipPath>
			<clipPath id="SVGID_8_" clip-path="url(#SVGID_7_)">
				<use xlink:href="#SVGID_6_"  overflow="visible"/>
			</clipPath>
		</g>
	</g>
</g>
<g>
	<g>
		<g>
			<defs>
				<polygon id="SVGID_29_" points="1,1 2,1 1,2 				"/>
			</defs>
			<clipPath id="SVGID_11_">
				<use xlink:href="#SVGID_29_"  overflow="visible"/>
			</clipPath>
		</g>
		<g>
			<defs>
				<polygon id="SVGID_31_" points="1,1 2,1 1,2 				"/>
			</defs>
			<defs>
				<polygon id="SVGID_32_" points="-1,-1 -2,-1 -1,-2 				"/>
			</defs>
			<clipPath id="SVGID_12_">
				<use xlink:href="#SVGID_31_"  overflow="visible"/>
			</clipPath>
			<clipPath id="SVGID_16_" clip-path="url(#SVGID_12_)">
				<use xlink:href="#SVGID_32_"  overflow="visible"/>
			</clipPath>
		</g>
	</g>
</g>
<g>
	<g>
		<path fill="#010101" d="M45.7,56.557c-1.1,1.5-1.7,3.5-1.6,6h-9.3c0.1-2.5,0.5-4.899,1.3-7.199c0.8-2,2.1-3.801,3.899-5.5
			c1.3-1.2,2.9-2.101,4.7-2.701c1.8-0.6,4-0.999,6.6-0.999c4.9,0,8.801,1.3,11.8,3.8c3.001,2.5,4.501,5.9,4.501,10.1
			c0,3-0.9,5.5-2.7,7.601c-1.1,1.3-2.3,2.2-3.5,2.601c0.899,0,2.199,0.799,3.899,2.399c2.601,2.4,3.801,5.601,3.801,9.7
			c0,4.3-1.5,8.1-4.501,11.4c-2.999,3.3-7.399,4.898-13.3,4.898c-7.199,0-12.2-2.399-15-7.1c-1.499-2.499-2.3-5.799-2.5-9.8h9.801
			c0,2,0.3,3.7,1,5.1c1.2,2.501,3.4,3.7,6.6,3.7c2,0,3.7-0.699,5.2-2c1.5-1.299,2.2-3.299,2.2-5.8c0-3.3-1.4-5.601-4.101-6.699
			c-1.5-0.601-4-0.901-7.3-0.901v-7.199c3.3-0.1,5.5-0.4,6.8-0.9c2.2-1,3.301-3,3.301-6c0-2-0.601-3.5-1.7-4.799
			c-1.101-1.301-2.7-1.801-4.8-1.801C48.601,54.357,46.8,55.057,45.7,56.557z"/>
		<path fill="#010101" d="M91.8,98.656c-6.499,0-11-2.299-13.7-6.799c-2.6-4.6-3.9-11-3.9-19.4s1.301-14.9,3.9-19.5
			s7.201-6.899,13.7-6.899c6.5,0,11.101,2.3,13.7,6.899c2.601,4.6,3.9,11.1,3.9,19.5s-1.3,14.9-3.9,19.4
			C102.9,96.357,98.3,98.656,91.8,98.656z M97.7,85.857c0.899-3.101,1.399-7.6,1.399-13.4c0-6.1-0.5-10.7-1.399-13.6
			c-0.9-2.9-2.9-4.4-5.801-4.4c-2.999,0-4.899,1.5-5.899,4.4c-1,3-1.4,7.5-1.4,13.6c0,5.9,0.5,10.3,1.4,13.4
			c0.899,3.1,2.9,4.699,5.899,4.699C94.8,90.457,96.8,88.957,97.7,85.857z"/>
	</g>
	<path fill="#F69321" d="M138.3,44.157c-3.6-8.601-8.8-16.3-15.4-22.899c-6.6-6.601-14.299-11.801-22.899-15.4
		c-8.8-3.801-18.301-5.7-28-5.7c-9.7,0-19.199,1.899-28,5.7c-8.6,3.6-16.3,8.8-22.899,15.4c-6.601,6.6-11.8,14.299-15.4,22.899
		c-3.8,8.8-5.7,18.3-5.7,28s1.9,19.2,5.7,28c3.601,8.599,8.8,16.3,15.4,22.899c6.6,6.601,14.3,11.801,22.899,15.4
		c8.9,3.801,18.3,5.7,28,5.7c9.699,0,19.2-1.899,28-5.7c8.601-3.6,16.3-8.8,22.899-15.4c6.601-6.6,11.801-14.301,15.4-22.899
		c3.8-8.9,5.7-18.3,5.7-28S142.1,52.957,138.3,44.157z M28.4,28.557c11.6-11.699,27.1-18.1,43.6-18.1c14.2,0,27.7,4.801,38.6,13.6
		l-86.799,86.801c-8.7-11-13.5-24.501-13.5-38.7C10.301,55.656,16.7,40.156,28.4,28.557z M115.7,115.857c-11.7,11.6-27.2,18-43.7,18
		c-14.699,0-28.6-5.1-39.8-14.5l87-87c9.399,11.1,14.5,25,14.5,39.8C133.7,88.658,127.3,104.156,115.7,115.857z"/>
</g>
</svg>
