<?xml version="1.0" encoding="utf-8"?>
<!-- Generator: Adobe Illustrator 16.0.0, SVG Export Plug-In . SVG Version: 6.00 Build 0)  -->
<!DOCTYPE svg PUBLIC "-//W3C//DTD SVG 1.1//EN" "http://www.w3.org/Graphics/SVG/1.1/DTD/svg11.dtd">
<svg version="1.1" id="_x35_0m" xmlns="http://www.w3.org/2000/svg" xmlns:xlink="http://www.w3.org/1999/xlink" x="0px" y="0px"
	 width="144px" height="144px" viewBox="0 0 144 144" enable-background="new 0 0 144 144" xml:space="preserve">
<circle fill="#FFFFFF" cx="72" cy="72" r="72"/>
<g>
	<g>
		<path fill="#010101" d="M38.3,94.101c-2.9-3.001-4.4-6.601-4.4-10.9c0-2.9,0.701-5.4,2.002-7.801C37.2,73,39.101,71.3,41.601,70.2
			c-2.5-1.6-4.102-3.4-4.801-5.301C36.101,63,35.7,61.2,35.7,59.5c0-3.7,1.4-6.899,4.199-9.501C42.7,47.4,46.601,46.101,51.7,46.101
			s9,1.3,11.801,3.898C66.3,52.601,67.7,55.8,67.7,59.5c0,1.7-0.4,3.5-1.1,5.399C65.899,66.8,64.3,68.501,61.8,69.9
			c2.5,1.399,4.4,3.3,5.701,5.601c1.299,2.299,1.898,4.898,1.898,7.799c0,4.301-1.6,7.9-4.799,10.9c-3.201,3-7.6,4.5-13.301,4.5
			C45.601,98.7,41.3,97.1,38.3,94.101z M44.399,82.399c0,2.5,0.701,4.4,2,5.801c1.301,1.399,3.102,2.1,5.4,2.1
			c2.301,0,4.1-0.7,5.4-2.1c1.299-1.4,2-3.301,2-5.801c0-2.6-0.701-4.6-2-5.9c-1.301-1.399-3.1-1.999-5.4-1.999
			c-2.299,0-4,0.7-5.4,1.999C44.999,77.899,44.399,79.8,44.399,82.399z M47.001,65.101c1.1,1.199,2.699,1.799,4.699,1.799
			s3.6-0.6,4.699-1.799c1.102-1.201,1.701-2.7,1.701-4.5c0-2-0.6-3.602-1.701-4.7C55.3,54.8,53.7,54.2,51.7,54.2s-3.6,0.6-4.699,1.7
			c-1.102,1.099-1.801,2.6-1.801,4.601C45.3,62.4,45.8,63.899,47.001,65.101z"/>
		<path fill="#010101" d="M91.3,71.899c-1.199,0-2.299,0.201-3.199,0.5C86.499,73,85.3,74,84.501,75.501l-9-0.401l3.699-28.2h28
			V55.4H86.401l-1.801,11.1c1.6-1,2.799-1.7,3.6-2c1.4-0.501,3.199-0.8,5.299-0.8c4.201,0,7.9,1.4,11.002,4.199
			c3.1,2.801,4.699,7,4.699,12.4c0,4.699-1.5,8.9-4.5,12.6c-3,3.7-7.6,5.6-13.6,5.6c-4.801,0-8.801-1.299-11.9-3.898
			c-3.1-2.602-4.801-6.301-5.199-11.102h10c0.398,2.201,1.199,3.9,2.299,5.001c1.1,1.1,2.801,1.8,4.9,1.8c2.5,0,4.4-0.9,5.699-2.6
			c1.301-1.7,1.9-3.9,1.9-6.6c0-2.602-0.6-4.801-1.799-6.601C95.8,72.8,93.901,71.899,91.3,71.899z"/>
	</g>
	<path fill="#F69321" d="M138.399,44c-3.6-8.6-8.799-16.3-15.4-22.899c-6.6-6.6-14.299-11.801-22.898-15.4
		c-8.9-3.8-18.301-5.699-28-5.699c-9.701,0-19.201,1.899-28,5.699c-8.6,3.6-16.301,8.801-22.9,15.4S9.399,35.4,5.7,44
		c-3.801,8.899-5.699,18.3-5.699,28S1.899,91.2,5.7,100c3.6,8.601,8.801,16.3,15.4,22.899c6.6,6.601,14.299,11.801,22.898,15.4
		c8.9,3.801,18.301,5.7,28,5.7c9.701,0,19.201-1.899,28-5.7c8.602-3.6,16.301-8.8,22.9-15.4c6.6-6.6,11.801-14.299,15.4-22.899
		c3.801-8.9,5.699-18.3,5.699-28S142.2,52.8,138.399,44z M28.401,28.4C40.001,16.7,55.601,10.3,71.999,10.3
		c14.201,0,27.701,4.801,38.602,13.6L23.8,110.7c-8.799-10.9-13.6-24.4-13.6-38.6C10.399,55.5,16.8,40.001,28.401,28.4z
		 M115.7,115.7c-11.699,11.699-27.199,18.1-43.701,18.1c-14.699,0-28.598-5.1-39.799-14.5l87-87c9.4,11.1,14.5,25,14.5,39.801
		C133.8,88.5,127.399,104.001,115.7,115.7z"/>
</g>
</svg>
