<?xml version="1.0" encoding="utf-8"?>
<!-- Generator: Adobe Illustrator 16.0.0, SVG Export Plug-In . SVG Version: 6.00 Build 0)  -->
<!DOCTYPE svg PUBLIC "-//W3C//DTD SVG 1.1//EN" "http://www.w3.org/Graphics/SVG/1.1/DTD/svg11.dtd">
<svg version="1.1" id="_x35_0m" xmlns="http://www.w3.org/2000/svg" xmlns:xlink="http://www.w3.org/1999/xlink" x="0px" y="0px"
	 width="144px" height="144px" viewBox="0 0 144 144" enable-background="new 0 0 144 144" xml:space="preserve">
<circle fill="#FFFFFF" cx="72" cy="72" r="72"/>
<g>
	<g>
		<path fill="#010101" d="M69.701,78.557v7.8H63.9v11.001h-9.799V86.356H33.9v-8.699l18.701-30.9h11.199v31.8
			C63.9,78.557,69.701,78.557,69.701,78.557z M41.4,78.557h12.801v-22L41.4,78.557z"/>
		<path fill="#010101" d="M91.9,98.656c-6.5,0-11-2.299-13.701-6.799c-2.598-4.6-3.898-11-3.898-19.4s1.301-14.9,3.898-19.5
			c2.602-4.6,7.201-6.899,13.701-6.899s11.1,2.3,13.701,6.899c2.6,4.6,3.898,11.1,3.898,19.5s-1.299,14.9-3.898,19.4
			C103,96.357,98.4,98.656,91.9,98.656z M97.801,85.857c0.9-3.101,1.398-7.6,1.398-13.4c0-6.1-0.498-10.7-1.398-13.6
			c-0.9-2.9-2.9-4.4-5.801-4.4c-3,0-4.9,1.5-5.898,4.4c-1,3-1.4,7.5-1.4,13.6c0,5.9,0.498,10.3,1.4,13.4
			c0.9,3.1,2.898,4.699,5.898,4.699C94.9,90.457,96.9,88.957,97.801,85.857z"/>
	</g>
	<path fill="#F69321" d="M138.4,44.157c-3.6-8.601-8.801-16.3-15.4-22.899c-6.6-6.601-14.299-11.801-22.898-15.4
		c-8.9-3.801-18.301-5.7-28-5.7c-9.701,0-19.102,1.899-28,5.7c-8.602,3.6-16.301,8.8-22.9,15.4c-6.6,6.6-11.801,14.299-15.5,22.899
		C1.9,53.058,0,62.457,0,72.157s1.9,19.2,5.701,28c3.6,8.599,8.799,16.3,15.4,22.899c6.6,6.601,14.299,11.801,22.9,15.4
		c8.898,3.801,18.299,5.7,27.998,5.7c9.701,0,19.201-1.899,28-5.7c8.6-3.6,16.301-8.8,22.9-15.4c6.6-6.6,11.799-14.301,15.4-22.899
		c3.801-8.9,5.699-18.3,5.699-28S142.199,52.957,138.4,44.157z M28.4,28.557c11.701-11.699,27.201-18.1,43.701-18.1
		c14.199,0,27.699,4.801,38.6,13.6L23.9,110.857c-8.799-10.9-13.5-24.4-13.5-38.601C10.4,55.656,16.801,40.156,28.4,28.557z
		 M115.701,115.857C104,127.557,88.5,133.957,72,133.957c-14.699,0-28.6-5.101-39.799-14.5l87-87c9.398,11.1,14.5,25,14.5,39.8
		C133.801,88.658,127.4,104.156,115.701,115.857z"/>
</g>
</svg>
