<?xml version="1.0" encoding="utf-8"?>
<!-- Generator: Adobe Illustrator 16.0.0, SVG Export Plug-In . SVG Version: 6.00 Build 0)  -->
<!DOCTYPE svg PUBLIC "-//W3C//DTD SVG 1.1//EN" "http://www.w3.org/Graphics/SVG/1.1/DTD/svg11.dtd">
<svg version="1.1" id="_x35_0m" xmlns="http://www.w3.org/2000/svg" xmlns:xlink="http://www.w3.org/1999/xlink" x="0px" y="0px"
	 width="144px" height="144px" viewBox="0 0 144 144" enable-background="new 0 0 144 144" xml:space="preserve">
<circle fill="#FFFFFF" cx="72" cy="72" r="72"/>
<g>
	<path fill="#F69321" d="M72,144c-9.7,0-19.2-1.899-28-5.7c-8.601-3.6-16.3-8.8-22.9-15.4c-6.6-6.6-11.8-14.299-15.4-22.899
		C1.9,91.2,0,81.7,0,72s1.9-19.2,5.699-28C9.3,35.4,14.5,27.7,21.1,21.101C27.7,14.501,35.399,9.3,44,5.7
		c8.8-3.8,18.3-5.699,28-5.699c9.699,0,19.2,1.899,28,5.699c8.6,3.6,16.3,8.801,22.9,15.4C129.5,27.7,134.7,35.4,138.3,44
		c3.8,8.899,5.7,18.3,5.7,28s-1.9,19.2-5.7,28c-3.6,8.601-8.8,16.3-15.399,22.899C116.3,129.5,108.6,134.7,100,138.3
		C91.2,142.101,81.699,144,72,144z M72,10.3c-16.5,0-32,6.4-43.701,18.101C16.6,40.101,10.3,55.5,10.3,72s6.399,32.001,18.1,43.7
		s27.2,18.1,43.7,18.1s32-6.4,43.7-18.1s18.1-27.2,18.1-43.6c0-16.4-6.399-32-18.1-43.7S88.5,10.3,72,10.3z"/>
	<g>
		<path fill="#010101" d="M38.199,94c-2.9-3.001-4.399-6.601-4.399-10.9c0-2.899,0.7-5.399,1.999-7.8c1.301-2.4,3.201-4.1,5.701-5.2
			c-2.5-1.599-4.1-3.399-4.801-5.3c-0.699-1.899-1.1-3.699-1.1-5.4c0-3.699,1.4-6.899,4.2-9.5C42.6,47.3,46.5,46,51.6,46
			s9,1.3,11.8,3.899c2.8,2.601,4.2,5.801,4.2,9.5c0,1.701-0.4,3.501-1.1,5.4c-0.7,1.9-2.301,3.6-4.801,5c2.5,1.4,4.4,3.301,5.7,5.6
			c1.3,2.301,1.9,4.9,1.9,7.801c0,4.3-1.601,7.899-4.8,10.9C61.3,97.1,56.899,98.6,51.199,98.6C45.5,98.6,41.199,97.1,38.199,94z
			 M44.3,82.399c0,2.501,0.7,4.4,2,5.801c1.3,1.399,3.1,2.1,5.399,2.1c2.301,0,4.101-0.7,5.4-2.1c1.301-1.4,2-3.3,2-5.801
			c0-2.6-0.699-4.6-2-5.9C55.8,75.2,54,74.5,51.699,74.5c-2.3,0-4,0.7-5.399,1.999C44.9,77.899,44.3,79.8,44.3,82.399z
			 M46.899,65.101c1.101,1.199,2.7,1.799,4.7,1.799s3.6-0.6,4.7-1.799c1.1-1.201,1.7-2.7,1.7-4.5c0-2-0.601-3.6-1.7-4.7
			c-1.101-1.101-2.7-1.7-4.7-1.7s-3.6,0.6-4.7,1.7c-1.1,1.101-1.7,2.7-1.7,4.7C45.199,62.4,45.8,63.899,46.899,65.101z"/>
		<path fill="#010101" d="M91.799,98.499c-6.5,0-10.999-2.299-13.699-6.799c-2.6-4.6-3.9-11-3.9-19.4s1.301-14.9,3.9-19.5
			s7.199-6.9,13.699-6.9c6.502,0,11.102,2.301,13.701,6.9s3.9,11.1,3.9,19.5s-1.301,14.9-3.9,19.4S98.301,98.499,91.799,98.499z
			 M97.699,85.7c0.9-3.101,1.4-7.6,1.4-13.4c0-6.1-0.5-10.699-1.4-13.6c-0.899-2.9-2.899-4.4-5.8-4.4C88.9,54.3,87,55.8,86,58.7
			c-1,3-1.4,7.5-1.4,13.6c0,5.9,0.5,10.3,1.4,13.4c0.9,3.1,2.9,4.7,5.899,4.7C94.8,90.3,96.8,88.8,97.699,85.7z"/>
	</g>
</g>
</svg>
