<?xml version="1.0" encoding="utf-8"?>
<!-- Generator: Adobe Illustrator 16.0.0, SVG Export Plug-In . SVG Version: 6.00 Build 0)  -->
<!DOCTYPE svg PUBLIC "-//W3C//DTD SVG 1.1//EN" "http://www.w3.org/Graphics/SVG/1.1/DTD/svg11.dtd">
<svg version="1.1" id="_x35_0m" xmlns="http://www.w3.org/2000/svg" xmlns:xlink="http://www.w3.org/1999/xlink" x="0px" y="0px"
	 width="144px" height="144px" viewBox="0 0 144 144" enable-background="new 0 0 144 144" xml:space="preserve">
<circle fill="#FFFFFF" cx="72" cy="72" r="72"/>
<g>
	<path fill="#010101" d="M62.199,97.199H51.9V62.1H40v-6.8c3.199-0.1,5.4-0.3,6.6-0.6c2-0.5,3.701-1.3,4.9-2.7
		c0.9-0.9,1.5-2.1,2-3.7c0.299-0.899,0.4-1.6,0.4-2h8.299V97.199z"/>
	<path fill="#010101" d="M88.799,98.499c-6.5,0-10.998-2.3-13.699-6.799c-2.6-4.601-3.9-11.001-3.9-19.4S72.5,57.4,75.1,52.8
		c2.6-4.6,7.199-6.899,13.699-6.899s11.1,2.3,13.701,6.899c2.6,4.601,3.898,11.101,3.898,19.5S105.1,87.2,102.5,91.7
		C99.898,96.199,95.299,98.499,88.799,98.499z M94.699,85.7c0.9-3.101,1.4-7.601,1.4-13.4c0-6.1-0.5-10.7-1.4-13.6
		c-0.9-2.9-2.898-4.4-5.799-4.4c-3.002,0-4.9,1.5-5.9,4.4c-1,3-1.4,7.5-1.4,13.6c0,5.9,0.5,10.3,1.4,13.4c0.9,3.1,2.898,4.7,5.9,4.7
		C91.801,90.3,93.799,88.8,94.699,85.7z"/>
	<path fill="#F69321" d="M72,144c-9.701,0-19.199-1.9-28-5.7c-8.6-3.6-16.301-8.8-22.9-15.4c-6.6-6.6-11.799-14.3-15.4-22.899
		C1.9,91.2,0,81.699,0,72c0-9.7,1.9-19.2,5.699-28c3.602-8.6,8.801-16.3,15.4-22.9C27.699,14.5,35.4,9.3,44,5.7
		C52.801,1.9,62.299,0,72,0c9.699,0,19.199,1.9,28,5.7c8.6,3.6,16.299,8.8,22.9,15.399C129.5,27.7,134.699,35.4,138.299,44
		C142.1,52.899,144,62.3,144,72c0,9.699-1.9,19.2-5.701,28c-3.6,8.6-8.799,16.3-15.398,22.899C116.299,129.5,108.6,134.7,100,138.3
		C91.199,142.1,81.699,144,72,144z M72,10.3c-16.5,0-32,6.4-43.699,18.101c-11.701,11.699-18,27.1-18,43.6s6.4,32,18.1,43.7
		C40.1,127.399,55.6,133.8,72.1,133.8s32-6.4,43.699-18.1C127.5,104,133.9,88.5,133.9,72.1c0-16.399-6.4-32-18.102-43.699
		C104.1,16.7,88.5,10.3,72,10.3z"/>
</g>
</svg>
