<?xml version="1.0" encoding="utf-8"?>
<!-- Generator: Adobe Illustrator 16.0.0, SVG Export Plug-In . SVG Version: 6.00 Build 0)  -->
<!DOCTYPE svg PUBLIC "-//W3C//DTD SVG 1.1//EN" "http://www.w3.org/Graphics/SVG/1.1/DTD/svg11.dtd">
<svg version="1.1" id="_x35_0m" xmlns="http://www.w3.org/2000/svg" xmlns:xlink="http://www.w3.org/1999/xlink" x="0px" y="0px"
	 width="144px" height="144px" viewBox="0 0 144 144" enable-background="new 0 0 144 144" xml:space="preserve">
<circle fill="#FFFFFF" cx="72" cy="72" r="72"/>
<g>
	<g>
		<path fill="#010101" d="M41.201,97.199H30.9V62.1h-12v-6.8c3.201-0.101,5.4-0.3,6.6-0.601c2-0.499,3.701-1.3,4.9-2.7
			c0.9-0.899,1.5-2.1,2-3.699c0.301-0.9,0.4-1.6,0.4-2H41.1v50.899H41.201z"/>
		<path fill="#010101" d="M77.301,97.199H67V62.1H55v-6.8c3.199-0.101,5.4-0.3,6.6-0.601c2.002-0.499,3.701-1.3,4.9-2.7
			c0.9-0.899,1.5-2.1,2-3.699c0.301-0.9,0.4-1.6,0.4-2h8.301L77.301,97.199L77.301,97.199z"/>
		<path fill="#010101" d="M109.9,98.499c-6.5,0-11-2.3-13.699-6.799c-2.6-4.601-3.9-11.001-3.9-19.401
			c0-8.399,1.301-14.899,3.9-19.499c2.6-4.601,7.199-6.9,13.699-6.9s11.1,2.3,13.699,6.9c2.602,4.6,3.9,11.1,3.9,19.499
			c0,8.4-1.299,14.901-3.9,19.401C120.9,96.199,116.4,98.499,109.9,98.499z M115.801,85.7c0.9-3.102,1.4-7.601,1.4-13.401
			c0-6.099-0.5-10.699-1.4-13.599c-0.9-2.9-2.9-4.4-5.801-4.4c-3,0-4.898,1.5-5.9,4.4c-1,2.999-1.398,7.5-1.398,13.599
			c0,5.901,0.5,10.3,1.398,13.401c0.9,3.1,2.9,4.699,5.9,4.699C112.9,90.3,114.801,88.8,115.801,85.7z"/>
	</g>
	<path fill="#F69321" d="M138.301,43.999c-3.6-8.6-8.801-16.299-15.4-22.899c-6.6-6.6-14.301-11.8-22.9-15.4
		C91.201,1.899,81.701,0,72,0c-9.699,0-19.199,1.899-28,5.699C35.4,9.3,27.701,14.5,21.102,21.1
		C14.5,27.7,9.301,35.399,5.701,43.999C1.9,52.8,0,62.3,0,71.999c0,9.7,1.9,19.2,5.701,28c3.6,8.601,8.799,16.301,15.4,22.9
		c6.6,6.6,14.299,11.801,22.898,15.4c8.9,3.8,18.301,5.699,28,5.699c9.701,0,19.201-1.899,28-5.699c8.6-3.6,16.301-8.801,22.9-15.4
		s11.801-14.3,15.4-22.9c3.801-8.9,5.699-18.3,5.699-28C144,62.3,142.102,52.8,138.301,43.999z M28.4,28.399
		C40,16.7,55.5,10.3,72,10.3c14.199,0,27.701,4.8,38.6,13.6l-86.799,86.8c-8.699-10.999-13.5-24.499-13.5-38.7
		C10.301,55.499,16.701,40,28.4,28.399z M115.701,115.7C104,127.3,88.502,133.699,72,133.699c-14.699,0-28.6-5.1-39.799-14.5
		l87-86.999c9.4,11.1,14.5,25,14.5,39.799C133.701,88.499,127.301,104,115.701,115.7z"/>
</g>
</svg>
