<?xml version="1.0" encoding="utf-8"?>
<!-- Generator: Adobe Illustrator 16.0.0, SVG Export Plug-In . SVG Version: 6.00 Build 0)  -->
<!DOCTYPE svg PUBLIC "-//W3C//DTD SVG 1.1//EN" "http://www.w3.org/Graphics/SVG/1.1/DTD/svg11.dtd">
<svg version="1.1" id="_x35_0m" xmlns="http://www.w3.org/2000/svg" xmlns:xlink="http://www.w3.org/1999/xlink" x="0px" y="0px"
	 width="144px" height="144px" viewBox="0 0 144 144" enable-background="new 0 0 144 144" xml:space="preserve">
<circle fill="#FFFFFF" cx="72" cy="72" r="72"/>
<g>
	<g>
		<path fill="#010101" d="M50.7,98.7c-3.8,0-7.2-1.102-10.3-3.4c-3.1-2.301-4.801-5.6-5.2-9.9h10c0.199,1.5,0.9,2.701,1.9,3.701
			c0.999,0.898,2.399,1.4,4.1,1.4c3.3,0,5.6-1.801,7-5.502c0.7-2,1.199-5,1.4-8.799c-0.9,1.199-1.9,2-2.9,2.6
			c-1.9,1.1-4.2,1.699-6.9,1.699c-4.1,0-7.699-1.4-10.8-4.199c-3.1-2.801-4.7-6.799-4.7-12.1c0-5.5,1.601-9.9,4.7-13.301
			c3-3.299,7.101-5,12.2-5c7.8,0,13.1,3.4,16,10.301c1.6,3.9,2.5,9,2.5,15.398c0,6.201-0.8,11.301-2.4,15.4
			C64.3,94.8,58.7,98.7,50.7,98.7z M47.2,55.7c-1.9,1.5-2.899,4-2.899,7.6c0,3,0.6,5.301,1.8,6.801c1.199,1.498,3.1,2.299,5.7,2.299
			c1.399,0,2.699-0.4,3.899-1.199c2.3-1.4,3.399-4,3.399-7.6c0-2.9-0.699-5.201-2-6.9c-1.3-1.699-3.199-2.5-5.5-2.5
			C49.9,54.2,48.4,54.7,47.2,55.7z"/>
		<path fill="#010101" d="M91.3,71.899c-1.199,0-2.3,0.201-3.199,0.5c-1.601,0.6-2.801,1.6-3.601,3.1l-9-0.398l3.7-28.201h28v8.5
			H86.4l-1.801,11.1c1.601-1,2.8-1.699,3.601-2c1.4-0.5,3.2-0.799,5.3-0.799c4.199,0,7.899,1.4,11,4.199c3.1,2.801,4.7,7,4.7,12.4
			c0,4.699-1.5,8.9-4.501,12.6c-2.999,3.701-7.599,5.602-13.599,5.602c-4.8,0-8.801-1.301-11.9-3.9c-3.1-2.602-4.801-6.301-5.2-11.1
			h10c0.4,2.199,1.2,3.898,2.301,4.998c1.099,1.102,2.8,1.801,4.899,1.801c2.5,0,4.4-0.9,5.7-2.6c1.3-1.701,1.899-3.9,1.899-6.6
			c0-2.602-0.6-4.801-1.8-6.602C95.7,72.8,93.801,71.899,91.3,71.899z"/>
	</g>
	<path fill="#F69321" d="M138.399,43.999c-3.6-8.6-8.8-16.299-15.399-22.898c-6.601-6.6-14.3-11.801-22.9-15.4
		c-8.899-3.801-18.3-5.699-28-5.699c-9.699,0-19.2,1.898-28.1,5.699c-8.5,3.6-16.2,8.801-22.8,15.4C14.6,27.7,9.4,35.399,5.7,43.999
		c-3.8,8.9-5.7,18.301-5.7,28c0,9.701,1.9,19.201,5.7,28c3.601,8.602,8.8,16.301,15.4,22.9c6.6,6.6,14.3,11.801,22.899,15.4
		c8.899,3.799,18.3,5.699,28,5.699s19.2-1.9,28-5.699c8.6-3.6,16.301-8.801,22.899-15.4c6.601-6.6,11.801-14.299,15.4-22.9
		c3.8-8.9,5.7-18.299,5.7-28C144,62.3,142.2,52.899,138.399,43.999z M28.4,28.399C40.101,16.7,55.6,10.3,72.1,10.3
		c14.201,0,27.7,4.799,38.601,13.6L23.9,110.7C15.1,99.8,10.3,86.3,10.3,72.101C10.3,55.501,16.8,39.999,28.4,28.399z M115.7,115.7
		C104,127.399,88.5,133.8,72,133.8c-14.7,0-28.6-5.1-39.8-14.5l87-87c9.399,11.1,14.5,25,14.5,39.801
		C133.8,88.499,127.4,103.999,115.7,115.7z"/>
</g>
</svg>
