<?xml version="1.0" encoding="UTF-8"?>
<svg id="_x35_0m" xmlns="http://www.w3.org/2000/svg" version="1.1" viewBox="0 0 144 144">
  <!-- Generator: Adobe Illustrator 29.0.0, SVG Export Plug-In . SVG Version: 2.1.0 Build 186)  -->
  <defs>
    <style>
      .st0 {
        isolation: isolate;
      }

      .st1 {
        fill: #fff;
      }

      .st2 {
        fill: #f69321;
      }
    </style>
  </defs>
  <circle class="st1" cx="72" cy="72" r="72"/>
  <g class="st0">
    <g class="st0">
      <path d="M44.5,96.8h-10.1v-34.7h-11.8v-6.7c3.1-.1,5.3-.3,6.6-.6,2-.4,3.6-1.3,4.9-2.6.9-.9,1.5-2.1,1.9-3.6.3-.9.4-1.6.4-2h8.2v50.3Z"/>
      <path d="M79.6,62.6c-2.6,3.7-4.8,7.6-6.6,11.6-1.4,3.1-2.7,6.9-3.8,11.5-1.1,4.5-1.7,8.2-1.7,11.1h-10.3c.3-9,3.3-18.4,8.9-28.2,3.6-6,6.7-10.3,9.1-12.6h-25.1v-8.9h35.7v7.7c-1.5,1.5-3.5,4-6.2,7.8Z"/>
      <path d="M105,71.8c-1.2,0-2.2.2-3.1.5-1.6.6-2.7,1.6-3.5,3.1l-8.9-.4,3.5-27.8h27.7v8.4h-20.6l-1.8,11c1.5-1,2.7-1.7,3.6-2,1.4-.5,3.2-.8,5.2-.8,4.2,0,7.8,1.4,10.9,4.2,3.1,2.8,4.7,6.9,4.7,12.2s-1.5,8.8-4.5,12.5c-3,3.7-7.5,5.5-13.4,5.5s-8.7-1.3-11.8-3.9-4.8-6.2-5.1-10.9h9.9c.4,2.2,1.1,3.8,2.3,5,1.1,1.2,2.7,1.8,4.9,1.8s4.3-.9,5.6-2.6c1.3-1.7,1.9-3.9,1.9-6.5s-.6-4.7-1.8-6.5c-1.2-1.8-3.1-2.7-5.6-2.7Z"/>
    </g>
  </g>
  <path class="st2" d="M72,144c-9.7,0-19.2-1.9-28-5.7-8.6-3.6-16.3-8.8-22.9-15.4s-11.8-14.3-15.4-22.9C1.9,91.2,0,81.7,0,72s1.9-19.2,5.7-28c3.6-8.6,8.8-16.3,15.4-22.9,6.6-6.6,14.3-11.8,22.9-15.4C52.8,1.9,62.3,0,72,0s19.2,1.9,28,5.7c8.6,3.6,16.3,8.8,22.9,15.4,6.6,6.6,11.8,14.3,15.4,22.9,3.8,8.9,5.7,18.3,5.7,28s-1.9,19.2-5.7,28c-3.6,8.6-8.8,16.3-15.4,22.9s-14.3,11.8-22.9,15.4c-8.8,3.8-18.3,5.7-28,5.7ZM72,10.3c-16.5,0-32,6.4-43.7,18.1s-18,27.1-18,43.6,6.4,32,18.1,43.7c11.7,11.7,27.2,18.1,43.7,18.1s32-6.4,43.7-18.1c11.7-11.7,18.1-27.2,18.1-43.6s-6.4-32-18.1-43.7-27.3-18.1-43.8-18.1h0Z"/>
</svg>