<?xml version="1.0" encoding="utf-8"?>
<!-- Generator: Adobe Illustrator 16.0.0, SVG Export Plug-In . SVG Version: 6.00 Build 0)  -->
<!DOCTYPE svg PUBLIC "-//W3C//DTD SVG 1.1//EN" "http://www.w3.org/Graphics/SVG/1.1/DTD/svg11.dtd">
<svg version="1.1" id="_x35_0m" xmlns="http://www.w3.org/2000/svg" xmlns:xlink="http://www.w3.org/1999/xlink" x="0px" y="0px"
	 width="144px" height="144px" viewBox="0 0 144 144" enable-background="new 0 0 144 144" xml:space="preserve">
<g>
	<circle fill="#A8AAAD" cx="72.049" cy="72" r="68.053"/>
	<path fill="#010101" d="M72.049,143.949c-9.693,0-19.186-1.898-27.98-5.695c-8.594-3.598-16.287-8.794-22.883-15.389
		c-6.695-6.597-11.893-14.291-15.49-22.885C1.898,91.086,0,81.693,0,72s1.898-19.188,5.695-27.98
		c3.598-8.595,8.795-16.289,15.391-22.885C27.682,14.54,35.475,9.344,43.969,5.746c8.895-3.798,18.287-5.696,28.08-5.696
		c9.795,0,19.188,1.898,27.98,5.696c8.596,3.598,16.289,8.794,22.885,15.389c6.596,6.596,11.791,14.29,15.389,22.885
		C142.102,52.913,144,62.307,144,72s-1.898,19.187-5.697,27.98c-3.598,8.594-8.793,16.288-15.389,22.885
		c-6.596,6.595-14.289,11.791-22.885,15.389C91.137,142.051,81.742,143.949,72.049,143.949z M72.049,10.342
		c-16.488,0-31.977,6.396-43.668,18.088C16.688,40.122,10.293,55.511,10.293,72c0,16.488,6.395,31.977,18.088,43.669
		c11.691,11.692,27.18,18.088,43.668,18.088c16.49,0,31.979-6.396,43.67-18.088s18.088-27.181,18.088-43.569
		s-6.396-31.978-18.088-43.67C104.027,16.738,88.438,10.342,72.049,10.342z"/>
	<g>
		<path fill="#010101" d="M48.766,96.383H26.48V44.519h22.285c3.199,0,5.896,0.399,7.994,1.099c3.598,1.2,6.596,3.398,8.795,6.596
			c1.799,2.599,2.998,5.396,3.697,8.395s0.998,5.896,0.998,8.594c0,6.895-1.398,12.691-4.195,17.488
			C62.457,93.084,56.66,96.383,48.766,96.383z M56.861,57.811c-1.699-2.799-4.998-4.198-9.895-4.198h-9.992v33.776h9.992
			c5.096,0,8.693-2.498,10.693-7.595c1.098-2.798,1.699-6.096,1.699-9.894C59.359,64.705,58.459,60.607,56.861,57.811z"/>
		<path fill="#010101" d="M120.316,96.383h-10.793L88.338,59.508v36.774H78.246V44.519h11.393l20.584,36.175V44.519h10.094V96.383z"
			/>
	</g>
</g>
</svg>
