<?xml version="1.0" encoding="utf-8"?>
<!-- Generator: Adobe Illustrator 16.0.0, SVG Export Plug-In . SVG Version: 6.00 Build 0)  -->
<!DOCTYPE svg PUBLIC "-//W3C//DTD SVG 1.1//EN" "http://www.w3.org/Graphics/SVG/1.1/DTD/svg11.dtd">
<svg version="1.1" id="_x35_0m" xmlns="http://www.w3.org/2000/svg" xmlns:xlink="http://www.w3.org/1999/xlink" x="0px" y="0px"
	 width="144px" height="144px" viewBox="0 0 144 144" enable-background="new 0 0 144 144" xml:space="preserve">
<g>
	<circle fill="#A8AAAD" cx="72.05" cy="72" r="67.537"/>
	<path fill="#010101" d="M72.05,143.405c-9.62,0-19.042-1.885-27.769-5.653c-8.529-3.571-16.165-8.728-22.711-15.272
		c-6.645-6.547-11.802-14.183-15.372-22.711C2.43,90.942,0.546,81.62,0.546,71.999c0-9.619,1.884-19.041,5.652-27.768
		c3.57-8.529,8.728-16.166,15.273-22.711c6.545-6.545,14.28-11.702,22.71-15.272C53.008,2.479,62.33,0.595,72.05,0.595
		c9.719,0,19.041,1.885,27.769,5.653c8.529,3.57,16.165,8.728,22.711,15.272c6.545,6.545,11.701,14.182,15.271,22.711
		c3.769,8.826,5.653,18.148,5.653,27.768c0,9.621-1.885,19.043-5.653,27.77c-3.57,8.528-8.727,16.164-15.271,22.711
		c-6.546,6.545-14.182,11.701-22.711,15.272C90.991,141.521,81.669,143.405,72.05,143.405z M72.05,10.81
		c-16.363,0-31.735,6.348-43.339,17.951s-17.95,26.875-17.95,43.238s6.347,31.736,17.95,43.34s26.976,17.95,43.339,17.95
		s31.735-6.347,43.338-17.95c11.604-11.604,17.951-26.977,17.951-43.24s-6.348-31.734-17.951-43.338
		C103.785,17.157,88.314,10.81,72.05,10.81z"/>
	<g>
		<path fill="#010101" d="M50.926,96.198H28.811V44.728h22.115c3.174,0,5.852,0.396,7.934,1.09c3.57,1.191,6.546,3.373,8.728,6.546
			c1.785,2.579,2.975,5.355,3.669,8.331c0.694,2.975,0.992,5.852,0.992,8.528c0,6.843-1.389,12.595-4.165,17.354
			C64.513,92.925,58.761,96.198,50.926,96.198z M58.959,57.917c-1.687-2.777-4.959-4.165-9.818-4.165h-9.917v33.521h9.917
			c5.058,0,8.628-2.48,10.611-7.537c1.091-2.777,1.687-6.05,1.687-9.818C61.438,64.761,60.546,60.694,58.959,57.917z"/>
		<path fill="#010101" d="M117.769,44.728v9.123h-15.371v42.248H91.587V53.851H76.116v-9.123H117.769z"/>
	</g>
</g>
</svg>
