<?xml version="1.0" encoding="utf-8"?>
<!-- Generator: Adobe Illustrator 16.0.0, SVG Export Plug-In . SVG Version: 6.00 Build 0)  -->
<!DOCTYPE svg PUBLIC "-//W3C//DTD SVG 1.1//EN" "http://www.w3.org/Graphics/SVG/1.1/DTD/svg11.dtd">
<svg version="1.1" id="_x35_0m" xmlns="http://www.w3.org/2000/svg" xmlns:xlink="http://www.w3.org/1999/xlink" x="0px" y="0px"
	 width="144px" height="144px" viewBox="0 0 144 144" enable-background="new 0 0 144 144" xml:space="preserve">
<g>
	<circle fill="#F89520" cx="72" cy="72" r="67.583"/>
	<path fill="#010101" d="M72,143.454c-9.627,0-19.055-1.886-27.788-5.656c-8.534-3.573-16.176-8.734-22.727-15.283
		c-6.55-6.551-11.71-14.191-15.283-22.727C2.432,91.054,0.546,81.626,0.546,72s1.886-19.054,5.656-27.788
		c3.573-8.534,8.733-16.176,15.283-22.727c6.551-6.549,14.192-11.71,22.727-15.283C52.945,2.432,62.373,0.546,72,0.546
		c9.626,0,19.055,1.886,27.787,5.656c8.535,3.573,16.177,8.734,22.727,15.283c6.55,6.551,11.711,14.192,15.283,22.727
		c3.771,8.832,5.657,18.162,5.657,27.788s-1.886,19.054-5.657,27.788c-3.572,8.535-8.733,16.176-15.283,22.727
		c-6.55,6.549-14.191,11.71-22.727,15.283C91.055,141.568,81.626,143.454,72,143.454z M72,10.768
		c-16.375,0-31.758,6.353-43.369,17.964C17.02,40.342,10.768,55.625,10.768,72s6.352,31.758,17.963,43.369
		c11.611,11.61,26.994,17.962,43.368,17.962c16.376,0,31.758-6.352,43.369-17.962c11.611-11.611,17.963-26.994,17.963-43.271
		c0-16.275-6.352-31.757-17.963-43.367C103.856,17.12,88.375,10.768,72,10.768z"/>
	<g>
		<path fill="#010101" d="M50.067,95.521H27.937V44.113h22.131c3.176,0,5.855,0.396,7.939,1.091c3.572,1.191,6.55,3.375,8.733,6.551
			c1.786,2.58,2.978,5.359,3.672,8.336c0.694,2.978,0.992,5.855,0.992,8.535c0,6.848-1.39,12.604-4.168,17.367
			C63.564,92.345,57.809,95.521,50.067,95.521z M58.007,57.213c-1.688-2.778-4.962-4.169-9.825-4.169h-9.924v33.545h9.924
			c5.062,0,8.634-2.481,10.619-7.543c1.092-2.778,1.687-6.054,1.687-9.824C60.487,64.061,59.693,60.091,58.007,57.213z"/>
		<path fill="#010101" d="M116.856,44.113v9.13h-15.382v42.277H90.657V53.243H75.175v-9.13H116.856z"/>
	</g>
</g>
</svg>
