<?xml version="1.0" encoding="utf-8"?>
<!-- Generator: Adobe Illustrator 16.0.0, SVG Export Plug-In . SVG Version: 6.00 Build 0)  -->
<!DOCTYPE svg PUBLIC "-//W3C//DTD SVG 1.1//EN" "http://www.w3.org/Graphics/SVG/1.1/DTD/svg11.dtd">
<svg version="1.1" id="_x35_0m" xmlns="http://www.w3.org/2000/svg" xmlns:xlink="http://www.w3.org/1999/xlink" x="0px" y="0px"
	 width="144px" height="144px" viewBox="0 0 144 144" enable-background="new 0 0 144 144" xml:space="preserve">
<g>
	<circle fill="#F89520" cx="72" cy="71.999" r="68.1"/>
	<path fill="#010101" d="M72,143.999c-9.701,0-19.201-1.899-28-5.699c-8.602-3.6-16.301-8.801-22.9-15.4s-11.801-14.3-15.4-22.9
		C1.9,91.199,0,81.699,0,71.999c0-9.699,1.9-19.199,5.699-28c3.6-8.6,8.801-16.299,15.4-22.899c6.6-6.6,14.299-11.8,22.9-15.4
		C52.799,1.899,62.299,0,72,0c9.699,0,19.199,1.899,28,5.699c8.6,3.601,16.299,8.801,22.9,15.4c6.6,6.601,11.799,14.3,15.398,22.899
		c3.801,8.9,5.701,18.301,5.701,28c0,9.7-1.9,19.2-5.701,28c-3.6,8.601-8.799,16.301-15.398,22.9
		c-6.602,6.6-14.301,11.801-22.9,15.4C91.199,142.1,81.699,143.999,72,143.999z M72,10.3c-16.5,0-32,6.4-43.701,18.1
		c-11.699,11.7-18,27.1-18,43.6s6.4,32.001,18.1,43.701C40.1,127.399,55.6,133.8,72.1,133.8s32-6.4,43.699-18.1
		c11.701-11.7,18.1-27.201,18.1-43.601c0-16.4-6.398-32-18.1-43.7C104.1,16.7,88.5,10.3,72,10.3z"/>
	<g>
		<path fill="#010101" d="M49.898,95.699H27.6v-51.8h22.299c3.201,0,5.9,0.4,8,1.1c3.602,1.201,6.602,3.4,8.801,6.601
			c1.801,2.6,3,5.4,3.699,8.399c0.701,3,1,5.9,1,8.601c0,6.9-1.398,12.7-4.199,17.5C63.5,92.499,57.699,95.699,49.898,95.699z
			 M57.898,57.1c-1.699-2.8-4.998-4.2-9.898-4.2H38V86.7h10c5.1,0,8.699-2.5,10.699-7.601c1.1-2.8,1.699-6.101,1.699-9.9
			C60.398,64,59.6,59.999,57.898,57.1z"/>
		<path fill="#010101" d="M121.5,95.699h-10.801l-21.201-36.8v36.8h-10.1v-51.8h11.4l20.6,36.2v-36.2H121.5V95.699L121.5,95.699z"/>
	</g>
</g>
</svg>
