<?xml version="1.0" encoding="UTF-8" standalone="no"?>
<!-- Generator: Adobe Illustrator 16.0.0, SVG Export Plug-In . SVG Version: 6.00 Build 0)  -->

<svg
   version="1.1"
   id="_x35_0m"
   x="0px"
   y="0px"
   width="144px"
   height="144px"
   viewBox="0 0 144 144"
   enable-background="new 0 0 144 144"
   xml:space="preserve"
   sodipodi:docname="step_up.svg"
   inkscape:version="1.2.1 (9c6d41e410, 2022-07-14)"
   xmlns:inkscape="http://www.inkscape.org/namespaces/inkscape"
   xmlns:sodipodi="http://sodipodi.sourceforge.net/DTD/sodipodi-0.dtd"
   xmlns="http://www.w3.org/2000/svg"
   xmlns:svg="http://www.w3.org/2000/svg"><defs
   id="defs11" /><sodipodi:namedview
   id="namedview9"
   pagecolor="#ffffff"
   bordercolor="#000000"
   borderopacity="0.25"
   inkscape:showpageshadow="2"
   inkscape:pageopacity="0.0"
   inkscape:pagecheckerboard="0"
   inkscape:deskcolor="#d1d1d1"
   showgrid="false"
   inkscape:zoom="21.888889"
   inkscape:cx="126.57107"
   inkscape:cy="72"
   inkscape:window-width="1920"
   inkscape:window-height="986"
   inkscape:window-x="-11"
   inkscape:window-y="-11"
   inkscape:window-maximized="1"
   inkscape:current-layer="_x35_0m" />
<g
   id="g6">
	<path
   fill="#010101"
   d="M102.268,44.121c2.206,2.209,6.218,0.201,6.218-3.007l0.401-37.906c0-1.805-1.305-3.208-3.21-3.208   L67.772,0.3c-3.21,0-5.215,4.012-3.009,6.218l14.039,14.14L21.744,77.715L9.911,65.883c-1.906-1.905-5.214-1.705-7.421,0.401   l-0.701,0.702c-2.207,2.206-2.407,5.515-0.402,7.421l33.093,33.092c1.905,1.905,5.215,1.704,7.421-0.4l0.701-0.702   c2.207-2.207,2.406-5.517,0.401-7.421L31.07,87.042l57.059-57.061L102.268,44.121z"
   id="path2" />
	<polygon
   fill="#ed2224"
   points="72.607,62.675 72.601,63.276 72.601,132.769 12.734,132.769 12.734,144.001 83.731,144.001 83.731,141.694 83.832,141.694 83.832,73.905 144,73.905 144,62.675 73.001,62.675 "
   id="polygon4"
   style="stroke:#000000;stroke-width:1.5;stroke-dasharray:none;stroke-opacity:1"
   transform="matrix(0.99451339,0,0,0.9911447,0.06448712,0.54960977)" />
</g>
</svg>
