<?xml version="1.0" encoding="utf-8"?>
<!-- Generator: Adobe Illustrator 16.0.0, SVG Export Plug-In . SVG Version: 6.00 Build 0)  -->
<!DOCTYPE svg PUBLIC "-//W3C//DTD SVG 1.1//EN" "http://www.w3.org/Graphics/SVG/1.1/DTD/svg11.dtd">
<svg version="1.1" id="_x35_0m" xmlns="http://www.w3.org/2000/svg" xmlns:xlink="http://www.w3.org/1999/xlink" x="0px" y="0px"
	 width="144px" height="144px" viewBox="0 0 144 144" enable-background="new 0 0 144 144" xml:space="preserve">
<g>
	<polygon fill="#C0BFBF" points="1.208,98.364 142.894,98.364 142.894,46.139 15.598,46.139 	"/>
	<path fill="#010101" d="M14.994,44.931L0,99.069h144V44.931H14.994z M141.988,62.541h-9.259V46.943h9.259V62.541z M50.616,79.949
		V64.553h34.717v15.396H50.616z M87.245,79.949V64.553h31.598v15.396H87.245z M130.718,62.541h-29.183V46.943h29.183V62.541
		L130.718,62.541z M99.522,62.541H68.227V46.943h31.296V62.541z M66.214,62.541H33.409V46.943h32.805V62.541z M48.604,64.553v15.396
		H7.346l4.227-15.295h37.031V64.553z M33.409,81.861h31.598v15.195H33.409V81.861z M67.019,81.861h33.51v15.195h-33.51V81.861z
		 M120.856,79.949V64.553h21.132v15.396H120.856z M16.503,46.943h14.894v15.698H12.176L16.503,46.943z M6.843,81.861h24.554v15.195
		H2.616L6.843,81.861z M102.541,97.057V81.861h39.547v15.195C141.988,97.057,102.541,97.057,102.541,97.057z"/>
</g>
</svg>
