<?xml version="1.0" encoding="utf-8"?>
<!-- Generator: Adobe Illustrator 16.0.0, SVG Export Plug-In . SVG Version: 6.00 Build 0)  -->
<!DOCTYPE svg PUBLIC "-//W3C//DTD SVG 1.1//EN" "http://www.w3.org/Graphics/SVG/1.1/DTD/svg11.dtd">
<svg version="1.1" id="_x35_0m" xmlns="http://www.w3.org/2000/svg" xmlns:xlink="http://www.w3.org/1999/xlink" x="0px" y="0px"
	 width="144px" height="144px" viewBox="0 0 144 144" enable-background="new 0 0 144 144" xml:space="preserve">
<g>
	<path fill="#9E9E9E" d="M68.281,1.708h7.537l14.973,91.344v46.728c0,0-7.537,5.828-37.181,0V92.35L68.281,1.708z"/>
	<path fill="#010101" d="M77.024,0h-10.25L51.801,92.047v49.039l1.308,0.302C63.157,143.396,70.693,144,76.32,144
		c10.954,0,14.672-2.512,15.273-2.914l0.604-0.502V93.052L77.024,0z M80.24,128.324v-9.647h5.325v9.647H80.24z M74.712,21.202
		v10.652h-4.621V21.202H74.712z M88.981,104.307h-2.209v-9.948h2.209V104.307z M75.116,116.466v-9.948h6.631v9.948H75.116z
		 M64.765,116.466v-9.948h8.241v9.948H64.765z M66.875,94.459v9.948H59.84v-9.948H66.875z M66.372,69.437v9.446h-7.034v-9.446
		H66.372z M71.497,57.681v9.545h-2.913l0,0h-2.212l0,0h-3.114v-9.545H71.497z M75.919,45.924v9.546h-7.335v-9.546H75.919z
		 M79.336,92.248L79.336,92.248h-2.213l0,0H74.21V81.095h6.633v11.153H79.336L79.336,92.248z M69.086,104.307v-9.948h7.938v9.948
		H69.086z M75.518,69.437v9.446h-6.833v-9.446H75.518z M77.628,78.883v-9.446h5.325v9.446H77.628z M84.761,67.226h-1.707l0,0h-0.401
		v-9.545h0.602L84.761,67.226z M80.339,67.226h-2.61l0,0h-2.211l0,0h-1.81v-9.545h6.631V67.226z M71.999,81.095v11.153h-2.913l0,0
		h-2.211l0,0H63.76V81.095H71.999z M79.336,104.307v-9.948h5.324v9.948H79.336z M88.883,92.248h-2.01l0,0H84.66l0,0h-1.507V81.095
		h3.92L88.883,92.248z M85.164,78.883v-8.844l1.406,8.844H85.164z M78.13,55.47v-9.546h3.115l1.607,9.546
		C82.752,55.47,78.13,55.47,78.13,55.47z M78.13,43.713L78.13,43.713h-2.211l0,0h-2.514v-9.647h5.931l1.606,9.647
		C80.843,43.713,78.13,43.713,78.13,43.713z M78.933,31.854h-2.009V21.202h0.3L78.933,31.854z M67.88,31.854h-2.913l1.706-10.652
		h1.207V31.854L67.88,31.854z M71.096,34.065v9.647h-2.512l0,0h-2.212l0,0h-3.316l1.81-11.155v1.508H71.096z M66.372,45.924v9.546
		h-5.225l1.507-9.546H66.372z M61.047,57.681v9.545h-1.81l1.509-9.545H61.047z M57.127,81.095L57.127,81.095h2.211l0,0h2.211v11.153
		h-6.432l1.81-11.153H57.127z M57.73,94.459v9.948h-2.613v-9.948H57.73z M62.554,106.518v9.948h-7.437v-9.948H62.554z
		 M55.117,118.677h3.517v9.647h-3.517V118.677z M60.845,118.677h7.035v9.647h-7.035V118.677z M71.698,130.534v9.948
		c-2.11-0.1-4.422-0.302-7.034-0.603v-9.346H71.698L71.698,130.534z M70.091,128.324v-9.647h7.938v9.647H70.091z M87.777,118.677
		h1.204v9.647h-1.204V118.677z M84.059,116.466v-9.948h5.023v9.948H84.059z M74.21,3.314l2.612,15.677h-4.019V3.314H74.21z
		 M70.593,3.314v15.677h-3.617l2.512-15.677H70.593z M55.117,130.534h7.437v9.044c-2.31-0.301-4.723-0.703-7.437-1.204V130.534z
		 M73.909,140.584v-10.05h7.537v9.849C79.435,140.584,76.924,140.685,73.909,140.584z M83.655,140.181v-9.646h5.326v8.241
		C88.179,139.177,86.47,139.779,83.655,140.181z"/>
</g>
</svg>
