<?xml version="1.0" encoding="utf-8"?>
<!-- Generator: Adobe Illustrator 16.0.0, SVG Export Plug-In . SVG Version: 6.00 Build 0)  -->
<!DOCTYPE svg PUBLIC "-//W3C//DTD SVG 1.1//EN" "http://www.w3.org/Graphics/SVG/1.1/DTD/svg11.dtd">
<svg version="1.1" id="_x35_0m" xmlns="http://www.w3.org/2000/svg" xmlns:xlink="http://www.w3.org/1999/xlink" x="0px" y="0px"
	 width="144px" height="144px" viewBox="0 0 144 144" enable-background="new 0 0 144 144" xml:space="preserve">
<g>
	<path d="M44.821,112.564c-5.916,0-10.938-2.063-15.064-6.191c-4.128-4.127-6.191-9.133-6.191-15.016V42.655
		c0-5.883,2.08-10.896,6.24-15.04c4.16-4.144,9.165-6.216,15.016-6.216c5.915,0,10.928,2.08,15.04,6.24
		c4.111,4.16,6.167,9.165,6.167,15.016v10.14H52.134V42.411c0-2.145-0.755-3.973-2.267-5.484c-1.511-1.512-3.339-2.267-5.484-2.267
		c-2.113,0-3.917,0.755-5.412,2.267c-1.495,1.512-2.242,3.34-2.242,5.484v48.801c0,2.145,0.747,3.965,2.242,5.46
		c1.495,1.495,3.298,2.242,5.412,2.242c2.145,0,3.973-0.747,5.484-2.242c1.512-1.495,2.267-3.315,2.267-5.46V78.975h13.894v12.383
		c0,5.916-2.08,10.929-6.24,15.04C55.627,110.51,50.639,112.564,44.821,112.564z"/>
	<path d="M120.435,111.443h-14.382L95.766,83.119l-10.335,28.324H71.049l17.404-44.754L71.049,22.521h14.82l9.896,27.398
		l9.848-27.398h14.82L103.03,66.689L120.435,111.443z"/>
</g>
</svg>
