<?xml version="1.0" encoding="utf-8"?>
<!-- Generator: Adobe Illustrator 16.0.0, SVG Export Plug-In . SVG Version: 6.00 Build 0)  -->
<!DOCTYPE svg PUBLIC "-//W3C//DTD SVG 1.1//EN" "http://www.w3.org/Graphics/SVG/1.1/DTD/svg11.dtd">
<svg version="1.1" id="_x35_0m" xmlns="http://www.w3.org/2000/svg" xmlns:xlink="http://www.w3.org/1999/xlink" x="0px" y="0px"
	 width="144px" height="144px" viewBox="0 0 144 144" enable-background="new 0 0 144 144" xml:space="preserve">
<g>
	<circle fill="#EB2227" cx="72" cy="72" r="68.09"/>
	<path fill="#0A0A0A" d="M72,144c-9.721,0-19.15-1.9-28.03-5.66c-8.569-3.63-16.27-8.82-22.88-15.43
		c-6.61-6.61-11.8-14.311-15.43-22.881C1.9,91.149,0,81.72,0,72c0-9.721,1.9-19.15,5.66-28.03c3.63-8.57,8.819-16.27,15.43-22.88
		C27.7,14.48,35.4,9.29,43.97,5.66C52.85,1.899,62.279,0,72,0c9.72,0,19.149,1.899,28.029,5.66c8.57,3.63,16.271,8.82,22.881,15.43
		c6.609,6.61,11.8,14.31,15.43,22.88C142.1,52.85,144,62.279,144,72c0,9.72-1.9,19.149-5.66,28.029
		c-3.63,8.57-8.82,16.271-15.43,22.881c-6.61,6.609-14.311,11.8-22.881,15.43C91.149,142.1,81.72,144,72,144z M72,10.27
		c-16.49,0-31.99,6.42-43.65,18.08C16.69,40.01,10.27,55.51,10.27,72c0,16.489,6.421,31.989,18.08,43.649
		c11.66,11.66,27.16,18.08,43.65,18.08s31.989-6.42,43.649-18.08s18.08-27.16,18.08-43.649c0-16.49-6.42-31.99-18.08-43.65
		S88.49,10.27,72,10.27z"/>
	<path fill="#943432" d="M72,125.609c-29.561,0-53.61-24.05-53.61-53.609c0-29.561,24.05-53.61,53.61-53.61
		c29.56,0,53.609,24.05,53.609,53.61C125.609,101.56,101.56,125.609,72,125.609z M72,26.39c-25.15,0-45.61,20.46-45.61,45.61
		c0,25.149,20.46,45.609,45.61,45.609c25.149,0,45.61-20.46,45.61-45.609C117.61,46.85,97.149,26.39,72,26.39z"/>
	<polygon fill="#0A0A0A" points="72.409,78.01 40.49,47.359 46.03,41.59 72.24,66.75 87.68,50.979 93.399,56.58 	"/>
</g>
</svg>
