<?xml version="1.0" encoding="utf-8"?>
<!-- Generator: Adobe Illustrator 16.0.0, SVG Export Plug-In . SVG Version: 6.00 Build 0)  -->
<!DOCTYPE svg PUBLIC "-//W3C//DTD SVG 1.1//EN" "http://www.w3.org/Graphics/SVG/1.1/DTD/svg11.dtd">
<svg version="1.1" id="_x35_0m" xmlns="http://www.w3.org/2000/svg" xmlns:xlink="http://www.w3.org/1999/xlink" x="0px" y="0px"
	 width="144px" height="144px" viewBox="0 0 144 144" enable-background="new 0 0 144 144" xml:space="preserve">
<g>
	<g>
		<path d="M72,5.998c-40.04,0-72.5,19.722-72.5,44.047c0,24.327,32.46,44.047,72.5,44.047s72.5-19.72,72.5-44.047
			C144.5,25.72,112.04,5.998,72,5.998z M72,75.882c-25.583,0-46.323-12.026-46.323-26.861c0-14.834,20.74-26.859,46.323-26.859
			s46.323,12.025,46.323,26.859C118.323,63.855,97.583,75.882,72,75.882z"/>
		<ellipse fill="#FFFFFF" cx="72" cy="49.021" rx="46.323" ry="26.86"/>
	</g>
	<path d="M99.873,63.325c7.986-3.886,12.987-9.415,12.987-15.556c0-11.756-18.295-21.284-40.86-21.284S31.14,36.014,31.14,47.77
		c0,6.141,5.001,11.67,12.987,15.556c7.301-3.552,17.097-5.729,27.873-5.729S92.572,59.773,99.873,63.325z"/>
	<path fill="#FFFFFF" d="M99.873,63.325C92.572,59.773,82.776,57.597,72,57.597s-20.572,2.177-27.873,5.729
		c7.301,3.552,17.097,5.729,27.873,5.729S92.572,66.877,99.873,63.325z"/>
	<g>
		<path fill-rule="evenodd" clip-rule="evenodd" d="M-0.04,96.125c0.482,1.73,0.856,3.518,1.476,5.214
			c1.886,5.165,5.195,9.353,9.233,12.997c5.822,5.255,12.593,8.945,19.836,11.816c7.604,3.013,15.49,4.945,23.579,6.108
			c8.118,1.165,16.271,1.537,24.454,1.104c11.67-0.614,23.06-2.664,34.011-6.854c7.278-2.784,14.094-6.385,20.021-11.509
			c4.3-3.72,7.851-8.018,9.885-13.397c0.657-1.733,1.057-3.566,1.577-5.364c0.017,0.207,0.049,0.459,0.053,0.712
			c0.095,5.171-1.422,9.869-4.188,14.19c-3.384,5.291-7.987,9.335-13.197,12.733c-7.17,4.676-15.017,7.816-23.241,10.064
			c-6.437,1.76-12.987,2.886-19.632,3.499c-6.123,0.564-12.252,0.722-18.39,0.386c-13.577-0.74-26.738-3.335-39.173-9.03
			c-6.651-3.046-12.778-6.888-17.874-12.216c-3.838-4.018-6.722-8.591-7.941-14.093C-0.021,100.368-0.166,98.225-0.04,96.125z"/>
		<path fill-rule="evenodd" clip-rule="evenodd" d="M62.145,130.284c0-2.253-0.093-4.358,0.026-6.452
			c0.112-2.009,0.515-3.99,1.354-5.845c0.313-0.693,0.687-1.374,1.128-1.992c0.839-1.179,1.845-1.897,3.483-1.782
			c2.407,0.168,4.836,0.038,7.255,0.034c0.231,0,0.463,0,0.835,0c-1.846,2.402-2.703,5.087-2.998,7.912
			c-0.29,2.771-0.323,5.573-0.477,8.507C69.31,130.543,65.753,130.415,62.145,130.284z"/>
		<path fill-rule="evenodd" clip-rule="evenodd" d="M63.49,114.107c-3.541,4.778-3.554,10.267-3.489,15.889
			c-0.756-0.071-1.509-0.107-2.253-0.218c-2.767-0.411-5.531-0.852-8.297-1.265c-0.369-0.056-0.552-0.183-0.559-0.582
			c-0.05-3.414,0.108-6.801,1.271-10.058c0.48-1.344,1.16-2.574,2.22-3.56c0.819-0.763,1.671-1.166,2.904-0.981
			c2.291,0.341,4.617,0.453,6.93,0.66C62.618,114.029,63.021,114.066,63.49,114.107z"/>
		<path fill-rule="evenodd" clip-rule="evenodd" d="M49.523,95.866c3.635,0.46,7.262,0.919,10.964,1.389
			c0.041,4.912,0.198,9.867,3.285,14.324c-1.389-0.089-2.641-0.14-3.885-0.255c-1.598-0.146-3.188-0.377-4.786-0.502
			c-0.814-0.063-1.465-0.374-2.055-0.901c-1.216-1.089-1.954-2.474-2.46-3.99c-1.072-3.207-1.231-6.522-1.134-9.866
			C49.455,95.998,49.498,95.932,49.523,95.866z"/>
		<path fill-rule="evenodd" clip-rule="evenodd" d="M62.542,97.401c3.632,0.109,7.192,0.217,10.664,0.321
			c0.272,2.433,0.455,4.862,0.834,7.261c0.384,2.414,1.294,4.649,2.951,6.613c-0.166,0.039-0.269,0.083-0.369,0.084
			c-2.972,0.024-5.943,0.073-8.914,0.044c-0.477-0.004-1.03-0.243-1.409-0.547c-1.564-1.249-2.335-3.008-2.861-4.876
			C62.622,103.417,62.463,100.459,62.542,97.401z"/>
		<path fill-rule="evenodd" clip-rule="evenodd" d="M46.719,127.979c-1.617-0.397-3.27-0.782-4.907-1.216
			c-1.317-0.348-2.625-0.737-3.924-1.149c-0.209-0.067-0.5-0.35-0.501-0.534c-0.036-3.554,0.123-7.093,1.304-10.493
			c0.47-1.348,1.125-2.604,2.306-3.482c0.218-0.159,0.575-0.266,0.833-0.214c2.979,0.588,5.952,1.209,8.927,1.826
			c0.042,0.008,0.079,0.046,0.142,0.085c-0.011,0.055-0.006,0.139-0.041,0.177c-2.229,2.292-3.146,5.174-3.562,8.226
			C46.997,123.403,46.91,125.632,46.719,127.979z"/>
		<path fill-rule="evenodd" clip-rule="evenodd" d="M87.15,113.5c-1.553,2.503-2.196,5.224-2.417,8.022
			c-0.222,2.784-0.226,5.585-0.329,8.515c-3.039,0.188-6.159,0.382-9.297,0.576c-0.072-0.209-0.139-0.313-0.143-0.421
			c-0.187-3.864-0.164-7.713,1.097-11.436c0.553-1.632,1.343-3.137,2.775-4.179c0.384-0.278,0.893-0.488,1.36-0.532
			C82.479,113.831,84.766,113.682,87.15,113.5z"/>
		<path fill-rule="evenodd" clip-rule="evenodd" d="M37.381,93.117c3.398,0.801,6.692,1.577,10.032,2.361
			c-0.037,5.03,0.081,10.057,3.039,14.659c-1.486-0.287-2.839-0.519-4.18-0.811c-1.494-0.324-2.972-0.738-4.47-1.045
			c-0.767-0.155-1.294-0.577-1.744-1.158c-1.141-1.479-1.668-3.214-2.038-5.007C37.411,99.168,37.312,96.186,37.381,93.117z"/>
		<path fill-rule="evenodd" clip-rule="evenodd" d="M84.952,97.11c0.173,4.745,0.259,9.457,2.993,13.706
			c-0.62,0.086-1.19,0.187-1.765,0.238c-1.812,0.16-3.623,0.325-5.441,0.43c-0.391,0.021-0.86-0.115-1.186-0.339
			c-1.531-1.044-2.365-2.596-2.955-4.299c-0.995-2.869-1.186-5.848-1.186-8.85c0-0.115,0.046-0.228,0.071-0.334
			C78.639,97.479,81.761,97.297,84.952,97.11z"/>
		<path fill-rule="evenodd" clip-rule="evenodd" d="M35.775,125.053c-2.663-1.07-5.167-2.069-7.661-3.096
			c-0.165-0.067-0.346-0.351-0.346-0.532c0.012-3.384,0.184-6.751,1.343-9.978c0.465-1.299,1.099-2.504,2.222-3.367
			c0.198-0.154,0.545-0.299,0.752-0.23c2.431,0.791,4.847,1.626,7.154,2.409c-0.618,1.107-1.381,2.212-1.876,3.424
			c-1.308,3.199-1.492,6.603-1.586,10.008C35.767,124.072,35.775,124.452,35.775,125.053z"/>
		<path fill-rule="evenodd" clip-rule="evenodd" d="M96.576,112.079c-1.134,2.176-1.793,4.384-1.944,6.682
			c-0.199,3.003-0.229,6.021-0.272,9.032c-0.008,0.61-0.142,0.816-0.753,0.9c-2.014,0.273-4.017,0.621-6.025,0.933
			c-0.306,0.048-0.616,0.05-0.997,0.08c-0.035-0.732-0.085-1.42-0.094-2.105c-0.056-3.457,0.051-6.904,1.099-10.232
			c0.313-0.991,0.804-1.946,1.343-2.84c0.554-0.921,1.344-1.533,2.531-1.649C93.121,112.717,94.765,112.372,96.576,112.079z"/>
		<path fill-rule="evenodd" clip-rule="evenodd" d="M106.187,109.823c-2.376,5.3-2.184,10.809-1.977,16.434
			c-2.572,0.638-5.16,1.277-7.947,1.969c0-1.467-0.015-2.756,0.002-4.042c0.044-3.097,0.212-6.178,1.216-9.143
			c0.205-0.609,0.469-1.203,0.759-1.778c0.6-1.184,1.446-1.967,2.868-2.2C102.794,110.786,104.44,110.261,106.187,109.823z"/>
		<path fill-rule="evenodd" clip-rule="evenodd" d="M105.715,125.816c0-2.262-0.066-4.319,0.017-6.371
			c0.106-2.638,0.42-5.254,1.396-7.742c0.121-0.311,0.264-0.614,0.406-0.915c0.537-1.123,1.271-1.922,2.584-2.26
			c1.652-0.424,3.236-1.11,4.854-1.684c-0.368,1.262-0.803,2.474-1.07,3.721c-0.79,3.66-0.848,7.371-0.628,11.093
			c0.083,1.411,0.095,1.429-1.235,1.912C110.017,124.305,107.983,125.014,105.715,125.816z"/>
		<path fill-rule="evenodd" clip-rule="evenodd" d="M107.474,106.889c-2.522,0.647-4.947,1.281-7.382,1.872
			c-0.202,0.048-0.58-0.148-0.703-0.342c-0.559-0.885-1.192-1.758-1.553-2.728c-1.219-3.285-1.348-6.734-1.354-10.222
			c2.6-0.584,5.157-1.159,7.782-1.749C104.505,98.252,104.61,102.814,107.474,106.889z"/>
		<path fill-rule="evenodd" clip-rule="evenodd" d="M29.965,107.092c-2.533,2.634-3.161,5.988-3.547,9.42
			c-0.164,1.474-0.21,2.959-0.317,4.537c-0.914-0.461-1.795-0.876-2.65-1.342c-1.283-0.7-2.553-1.424-3.808-2.172
			c-0.204-0.122-0.427-0.423-0.43-0.645c-0.034-3.151,0.205-6.274,1.183-9.297c0.423-1.31,1.012-2.546,2.041-3.499
			c0.178-0.163,0.582-0.288,0.774-0.197C25.451,104.925,27.669,105.997,29.965,107.092z"/>
		<path fill-rule="evenodd" clip-rule="evenodd" d="M28.003,89.871c0.744,0.281,1.382,0.542,2.031,0.767
			c1.72,0.59,3.436,1.188,5.168,1.733c0.483,0.152,0.609,0.367,0.599,0.857c-0.081,3.528,0.033,7.047,0.974,10.475
			c0.324,1.166,0.814,2.287,1.249,3.494c-0.902-0.29-1.83-0.566-2.74-0.885c-1.084-0.377-2.187-0.722-3.222-1.208
			c-0.596-0.28-1.192-0.723-1.586-1.244c-1.149-1.525-1.601-3.347-1.954-5.191C27.972,95.807,27.934,92.915,28.003,89.871z"/>
		<path fill-rule="evenodd" clip-rule="evenodd" d="M113.271,90.945c0.262,2.204,0.444,4.373,0.796,6.513
			c0.355,2.14,1.086,4.166,2.522,6c-1.274,0.513-2.48,1.017-3.7,1.485c-1.05,0.4-2.127,0.734-3.172,1.151
			c-0.475,0.188-0.747,0.053-1.036-0.311c-1.323-1.671-1.938-3.641-2.229-5.688c-0.296-2.08-0.385-4.191-0.566-6.288
			c-0.029-0.338,0.02-0.576,0.42-0.7c2.262-0.7,4.517-1.43,6.771-2.146C113.144,90.941,113.216,90.949,113.271,90.945z"/>
		<path fill-rule="evenodd" clip-rule="evenodd" d="M86.997,96.874c2.529-0.355,4.96-0.697,7.433-1.046
			c0.195,4.694,0.297,9.36,3.046,13.535c-1.68,0.293-3.295,0.579-4.91,0.856c-0.376,0.063-0.778,0.05-1.133,0.174
			c-0.851,0.301-1.344-0.135-1.804-0.747c-0.936-1.252-1.454-2.682-1.816-4.181C87.136,102.653,86.986,99.797,86.997,96.874z"/>
		<path fill-rule="evenodd" clip-rule="evenodd" d="M21.488,103.033c-2.395,2.545-3.021,5.754-3.416,9.035
			c-0.165,1.374-0.218,2.76-0.329,4.215c-0.192-0.107-0.363-0.175-0.504-0.281c-1.646-1.237-3.297-2.469-4.923-3.729
			c-0.222-0.17-0.465-0.485-0.465-0.735c-0.006-3.504,0.149-6.998,1.242-10.364c0.298-0.915,0.806-1.761,1.228-2.661
			C16.79,100.069,19.11,101.531,21.488,103.033z"/>
		<path fill-rule="evenodd" clip-rule="evenodd" d="M122.776,103.289c-1.853,5.068-1.818,10.201-1.522,15.354
			c0.027,0.499-0.083,0.779-0.553,0.997c-1.734,0.809-3.45,1.657-5.175,2.486c-0.167,0.081-0.35,0.129-0.656,0.238
			c-0.038-1.482-0.108-2.883-0.103-4.283c0.012-3.023,0.227-6.027,1.143-8.937c0.179-0.569,0.403-1.127,0.655-1.668
			c0.515-1.113,1.223-1.987,2.469-2.438C120.287,104.59,121.457,103.917,122.776,103.289z"/>
		<path fill-rule="evenodd" clip-rule="evenodd" d="M28.136,103.569c-1.995-1.031-4.002-2.04-5.971-3.117
			c-0.34-0.185-0.568-0.636-0.77-1.004c-1.008-1.862-1.499-3.896-1.682-5.973c-0.206-2.358-0.217-4.732-0.307-7.1
			c-0.006-0.135,0.037-0.27,0.063-0.427c1.856,0.887,3.625,1.85,5.484,2.575c1.167,0.456,1.534,1.032,1.475,2.286
			c-0.153,3.431,0.063,6.848,1.003,10.18c0.232,0.817,0.554,1.61,0.833,2.415C28.223,103.46,28.181,103.515,28.136,103.569z"/>
		<path fill-rule="evenodd" clip-rule="evenodd" d="M121.324,87.564c0.333,4.166,0.593,8.297,3.344,11.793
			c-0.618,0.35-1.203,0.704-1.812,1.017c-1.382,0.714-2.788,1.384-4.152,2.124c-0.501,0.271-0.759,0.137-1.058-0.265
			c-1.254-1.684-1.838-3.637-2.133-5.655c-0.275-1.892-0.338-3.813-0.51-5.719c-0.041-0.449,0.11-0.668,0.546-0.846
			c1.726-0.708,3.432-1.468,5.144-2.207C120.887,87.726,121.085,87.657,121.324,87.564z"/>
		<path fill-rule="evenodd" clip-rule="evenodd" d="M129.169,99.55c-0.262,1.229-0.553,2.361-0.736,3.513
			c-0.545,3.396-0.673,6.826-0.416,10.247c0.105,1.416-0.311,2.256-1.53,2.909c-1.282,0.685-2.478,1.528-3.771,2.341
			c-0.055-0.245-0.107-0.379-0.114-0.514c-0.193-4.053-0.246-8.099,0.778-12.072c0.148-0.577,0.338-1.146,0.537-1.709
			c0.482-1.376,1.228-2.498,2.637-3.136C127.453,100.721,128.26,100.106,129.169,99.55z"/>
		<path fill-rule="evenodd" clip-rule="evenodd" d="M131.299,95.047c-1.792,1.209-3.55,2.396-5.328,3.596
			c-1.128-1.103-1.7-2.409-2.139-3.784c-0.782-2.464-0.994-5.017-1.101-7.58c-0.011-0.206,0.154-0.515,0.331-0.615
			c1.663-0.947,3.342-1.857,5.109-2.829C128.561,87.709,128.708,91.646,131.299,95.047z"/>
		<path fill-rule="evenodd" clip-rule="evenodd" d="M12.391,81.524c1.548,0.989,2.994,2.018,4.538,2.865
			c0.898,0.496,1.187,1.043,1.143,2.065c-0.146,3.477-0.019,6.945,0.854,10.343c0.17,0.664,0.388,1.315,0.618,2.082
			c-2.895-1.67-5.616-3.255-6.298-6.872C12.764,89.448,12.135,83.906,12.391,81.524z"/>
		<path fill-rule="evenodd" clip-rule="evenodd" d="M134.968,95.289c-0.232,1.881-0.573,3.678-0.649,5.484
			c-0.122,2.848-0.054,5.701-0.103,8.553c-0.004,0.333-0.14,0.766-0.372,0.98c-1.403,1.29-2.854,2.529-4.363,3.853
			c-0.084-0.255-0.136-0.342-0.138-0.427c-0.12-4.271-0.117-8.534,0.922-12.719c0.091-0.371,0.205-0.737,0.325-1.102
			c0.381-1.159,0.93-2.167,2.041-2.84C133.462,96.57,134.188,95.895,134.968,95.289z"/>
		<path fill-rule="evenodd" clip-rule="evenodd" d="M134.402,79.362c0.338,3.707,0.583,7.354,2.781,10.636
			c-1.557,1.374-3.126,2.76-4.877,4.304c-0.527-1.024-1.078-1.867-1.414-2.787c-0.972-2.662-1.195-5.461-1.311-8.268
			c-0.005-0.166,0.059-0.408,0.176-0.497C131.273,81.626,132.803,80.522,134.402,79.362z"/>
		<path fill-rule="evenodd" clip-rule="evenodd" d="M8.048,93.359c1.792,1.485,3.497,2.901,5.24,4.35
			c-2.566,3.844-2.58,8.308-2.897,12.963c-1.253-1.372-2.376-2.593-3.484-3.827c-0.079-0.09-0.078-0.272-0.078-0.411
			c0.004-3.785,0.066-7.568,0.751-11.308C7.686,94.549,7.879,93.99,8.048,93.359z"/>
		<path fill-rule="evenodd" clip-rule="evenodd" d="M139.863,90.701c-0.387,4.134-0.393,8.179-0.389,12.222
			c0,0.441-0.155,0.953-0.412,1.306c-1.052,1.44-2.172,2.833-3.387,4.396c-0.077-0.4-0.129-0.556-0.135-0.711
			c-0.123-3.932-0.057-7.851,0.78-11.718c0.065-0.303,0.146-0.603,0.221-0.906c0.296-1.209,0.799-2.275,1.83-3.071
			C138.927,91.79,139.37,91.211,139.863,90.701z"/>
		<path fill-rule="evenodd" clip-rule="evenodd" d="M12.196,93.759c-1.363-1.261-2.771-2.396-3.95-3.734
			c-0.476-0.54-0.572-1.516-0.629-2.309c-0.246-3.462-0.415-6.932-0.609-10.397c-0.003-0.063,0.032-0.126,0.071-0.267
			c0.839,0.735,1.577,1.536,2.459,2.118c1.189,0.786,1.53,1.75,1.481,3.166c-0.126,3.767,0.124,7.52,1.244,11.161
			C12.273,93.532,12.243,93.581,12.196,93.759z"/>
		<path fill-rule="evenodd" clip-rule="evenodd" d="M139.784,74.201c0,0.662-0.025,1.327,0.003,1.988
			c0.131,3.063,0.255,6.125,1.212,9.078c0.048,0.147,0.006,0.392-0.092,0.509c-0.869,1.049-1.76,2.078-2.769,3.257
			c-0.359-0.717-0.693-1.279-0.933-1.879c-0.812-2.044-0.961-4.227-1.329-6.371c-0.329-1.923,0.138-3.341,1.71-4.51
			c0.768-0.569,1.345-1.394,2.007-2.104C139.657,74.179,139.721,74.189,139.784,74.201z"/>
		<path fill-rule="evenodd" clip-rule="evenodd" d="M3.135,88.276c1.27,1.322,2.455,2.542,3.611,3.784
			c0.124,0.132,0.197,0.438,0.131,0.604c-0.812,2.058-1.022,4.226-1.18,6.399c-0.127,1.742-0.174,3.492-0.257,5.238
			c-0.007,0.132-0.031,0.263-0.049,0.394c-0.075,0.029-0.149,0.061-0.225,0.091c-0.881-1.542-1.767-3.081-2.636-4.63
			c-0.073-0.132-0.046-0.329-0.04-0.495c0.153-3.443,0.307-6.887,0.471-10.332C2.979,89.004,3.066,88.682,3.135,88.276z"/>
		<path fill-rule="evenodd" clip-rule="evenodd" d="M141.738,84.387c-0.211-1.336-0.513-2.667-0.614-4.012
			c-0.18-2.388-0.243-4.783-0.34-7.177c-0.009-0.248,0.021-0.543,0.146-0.747c1.093-1.764,2.209-3.51,3.318-5.262
			c0,0.154,0,0.378,0,0.6c0,4.073,0.012,8.147-0.016,12.22c-0.006,0.475-0.142,0.996-0.373,1.412
			c-0.563,1.021-1.218,1.993-1.837,2.983C141.929,84.398,141.834,84.393,141.738,84.387z"/>
		<path fill-rule="evenodd" clip-rule="evenodd" d="M2.786,72.148c0.895,1.062,1.8,2.112,2.664,3.196
			c0.158,0.194,0.191,0.521,0.203,0.794c0.165,3.636,0.313,7.272,0.469,10.909c0.013,0.26,0.063,0.521,0.036,0.814
			c-1.137-1.438-2.875-2.451-2.985-4.59c-0.19-3.701-0.425-7.399-0.645-11.098C2.615,72.165,2.701,72.156,2.786,72.148z"/>
		<path fill-rule="evenodd" clip-rule="evenodd" d="M140.592,101.646c-0.04-3.948-0.016-7.881,0.668-11.77
			c0.088-0.484,0.362-0.974,0.661-1.379c0.703-0.957,1.471-1.867,2.264-2.858C144.601,91.394,143.539,96.731,140.592,101.646z"/>
		<path fill-rule="evenodd" clip-rule="evenodd" d="M-0.119,67.225c0.544,0.976,1.104,1.944,1.618,2.935
			c0.123,0.236,0.111,0.554,0.12,0.834c0.116,3.61,0.224,7.221,0.336,10.83c0.01,0.284,0.057,0.566,0.016,0.882
			c-0.86-1.461-2.304-2.554-2.238-4.563c0.111-3.368,0.03-6.745,0.03-10.12c0-0.262,0-0.523,0-0.784
			C-0.197,67.231-0.159,67.229-0.119,67.225z"/>
		<path fill-rule="evenodd" clip-rule="evenodd" d="M1.326,97.272c-1.756-4.246-1.636-8.687-1.527-13.3
			c0.848,1.097,1.605,2.065,2.345,3.05c0.085,0.113,0.106,0.322,0.076,0.469c-0.635,3.023-0.661,6.093-0.75,9.158
			c-0.002,0.168-0.02,0.335-0.041,0.501C1.424,97.188,1.371,97.219,1.326,97.272z"/>
	</g>
</g>
</svg>
