<?xml version="1.0" encoding="utf-8"?>
<!-- Generator: Adobe Illustrator 16.0.0, SVG Export Plug-In . SVG Version: 6.00 Build 0)  -->
<!DOCTYPE svg PUBLIC "-//W3C//DTD SVG 1.1//EN" "http://www.w3.org/Graphics/SVG/1.1/DTD/svg11.dtd">
<svg version="1.1" id="_x35_0m" xmlns="http://www.w3.org/2000/svg" xmlns:xlink="http://www.w3.org/1999/xlink" x="0px" y="0px"
	 width="144px" height="144px" viewBox="0 0 144 144" enable-background="new 0 0 144 144" xml:space="preserve">
<path fill="#010101" d="M104.984,102.188c0,3.433,4.846,5.047,7.37,2.523l30.586-29.98c1.414-1.414,1.414-3.635,0-5.048
	l-30.486-30.082c-2.624-2.524-7.369-0.909-7.369,2.523v22.511H13.729V45.759c0-3.027-2.827-5.552-6.259-5.552H6.258
	C2.826,40.207,0,42.731,0,45.759v52.896c0,3.028,2.827,5.553,6.259,5.553H7.47c3.432,0,6.259-2.524,6.259-5.553V79.577h91.255
	V102.188L104.984,102.188z"/>
</svg>
