<?xml version="1.0" encoding="utf-8"?>
<!-- Generator: Adobe Illustrator 16.0.0, SVG Export Plug-In . SVG Version: 6.00 Build 0)  -->
<!DOCTYPE svg PUBLIC "-//W3C//DTD SVG 1.1//EN" "http://www.w3.org/Graphics/SVG/1.1/DTD/svg11.dtd">
<svg version="1.1" id="_x35_0m" xmlns="http://www.w3.org/2000/svg" xmlns:xlink="http://www.w3.org/1999/xlink" x="0px" y="0px"
	 width="144px" height="144px" viewBox="0 0 144 144" enable-background="new 0 0 144 144" xml:space="preserve">
<g>
	<path fill="#010101" d="M25.107,37.323h-8.557v74.312H8.67V37.323H0V22.563h25.107V37.323z"/>
	<path fill="#010101" d="M43.121,22.563c3.266,0,5.854,1.921,7.656,5.661c1.801,3.742,2.702,9.503,2.702,17.288
		c0,5.966-0.563,10.921-1.576,14.661c-1.014,3.742-2.702,6.269-4.954,7.279v0.202c2.026,0.708,3.378,2.123,4.391,4.348
		c0.901,2.224,1.465,5.865,1.689,10.818c0.112,1.721,0.112,3.437,0.226,5.46c0,1.922,0.112,4.146,0.112,6.571
		c0.112,4.754,0.225,8.393,0.338,10.818c0.226,2.527,0.676,4.246,1.463,5.156v0.707h-8.557c-0.45-1.212-0.675-2.729-0.788-4.347
		c-0.112-1.618-0.225-3.336-0.225-5.056l-0.226-17.087c-0.112-3.437-0.45-6.267-1.126-8.188c-0.675-2.022-1.913-3.033-3.489-3.033
		h-4.279v37.711h-7.881V22.563H43.121z M39.632,61.486c1.913,0,3.377-1.01,4.391-3.031c1.013-2.022,1.576-5.461,1.576-10.313
		c0-8.188-1.802-12.335-5.517-12.335h-3.716v25.68H39.632z"/>
	<path fill="#010101" d="M77.798,83.528L77.798,83.528l0.113-60.966h7.205v89.072h-9.007l-9.682-62.381h-0.113v62.381h-7.318V22.563
		h9.12L77.798,83.528z"/>
	<path fill="#010101" d="M98.064,111.635h-7.206V92.121h7.206V111.635z"/>
	<path fill="#010101" d="M104.257,22.563h7.881v89.072h-7.881V22.563z"/>
	<path fill="#010101" d="M136.683,83.528h0.112V22.563H144v89.072h-9.007l-9.682-62.381h-0.113v62.381h-7.205V22.563h9.119
		L136.683,83.528z"/>
</g>
</svg>
