<?xml version="1.0" encoding="utf-8"?>
<!-- Generator: Adobe Illustrator 16.0.0, SVG Export Plug-In . SVG Version: 6.00 Build 0)  -->
<!DOCTYPE svg PUBLIC "-//W3C//DTD SVG 1.1//EN" "http://www.w3.org/Graphics/SVG/1.1/DTD/svg11.dtd">
<svg version="1.1" id="_x35_0m" xmlns="http://www.w3.org/2000/svg" xmlns:xlink="http://www.w3.org/1999/xlink" x="0px" y="0px"
	 width="144px" height="144px" viewBox="0 0 144 144" enable-background="new 0 0 144 144" xml:space="preserve">
<g>
	<g>
		<g>
			<defs>
				<polygon id="SVGID_3_" points="1,1 2,1 1,2 				"/>
			</defs>
			<clipPath id="SVGID_4_">
				<use xlink:href="#SVGID_3_"  overflow="visible"/>
			</clipPath>
		</g>
		<g>
			<defs>
				<polygon id="SVGID_5_" points="1,1 2,1 1,2 				"/>
			</defs>
			<defs>
				<polygon id="SVGID_6_" points="-1,-1 -2,-1 -1,-2 				"/>
			</defs>
			<clipPath id="SVGID_7_">
				<use xlink:href="#SVGID_5_"  overflow="visible"/>
			</clipPath>
			<clipPath id="SVGID_8_" clip-path="url(#SVGID_7_)">
				<use xlink:href="#SVGID_6_"  overflow="visible"/>
			</clipPath>
		</g>
	</g>
</g>
<g>
	<g>
		<g>
			<defs>
				<polygon id="SVGID_29_" points="1,1 2,1 1,2 				"/>
			</defs>
			<clipPath id="SVGID_11_">
				<use xlink:href="#SVGID_29_"  overflow="visible"/>
			</clipPath>
		</g>
		<g>
			<defs>
				<polygon id="SVGID_31_" points="1,1 2,1 1,2 				"/>
			</defs>
			<defs>
				<polygon id="SVGID_32_" points="-1,-1 -2,-1 -1,-2 				"/>
			</defs>
			<clipPath id="SVGID_12_">
				<use xlink:href="#SVGID_31_"  overflow="visible"/>
			</clipPath>
			<clipPath id="SVGID_16_" clip-path="url(#SVGID_12_)">
				<use xlink:href="#SVGID_32_"  overflow="visible"/>
			</clipPath>
		</g>
	</g>
</g>
<g>
	<path fill="#010101" d="M19.329,37.193h-6.669v74.41H6.556v-74.41H0V22.382h19.328V37.193L19.329,37.193z"/>
	<path fill="#010101" d="M33.231,22.382c2.486,0,4.521,1.865,5.877,5.715c1.357,3.731,2.147,9.563,2.147,17.261
		c0,5.947-0.452,10.847-1.243,14.695c-0.792,3.732-2.035,6.182-3.843,7.348v0.234c1.469,0.698,2.6,2.099,3.391,4.314
		c0.678,2.217,1.13,5.833,1.356,10.848c0,1.633,0.113,3.498,0.113,5.482c0,1.981,0,4.197,0.113,6.529
		c0,4.782,0.113,8.398,0.226,10.848c0.226,2.448,0.565,4.198,1.13,5.13v0.701h-6.556c-0.338-1.282-0.565-2.683-0.565-4.315
		c-0.113-1.634-0.113-3.266-0.226-5.016l-0.114-17.144c0-3.501-0.339-6.299-0.903-8.281c-0.565-1.981-1.47-3.032-2.713-3.032h-3.278
		v37.671h-6.104V22.382H33.231z M30.631,61.336c1.47,0,2.6-1.051,3.392-3.032c0.791-1.983,1.13-5.482,1.13-10.265
		c0-8.28-1.357-12.362-4.295-12.362h-2.826v25.659H30.631z"/>
	<path fill="#010101" d="M59.906,83.496L59.906,83.496l0.113-60.998h5.652v89.105h-7.008l-7.46-62.396H51.09v62.396h-5.652V22.382
		h7.008L59.906,83.496z"/>
	<path fill="#010101" d="M75.617,111.604h-5.538V92.127h5.538V111.604z"/>
	<path fill="#010101" d="M79.686,49.114c0.227-5.526,0.679-10.264,1.357-14.212c0.677-3.947,1.808-6.992,3.165-9.249
		c1.356-2.256,3.165-3.271,5.425-3.271c2.261,0,4.07,1.129,5.426,3.271c1.355,2.257,2.374,5.302,3.164,9.249
		c0.679,3.948,1.244,8.686,1.357,14.212c0.226,5.527,0.339,11.505,0.339,18.048c0,6.542-0.114,12.633-0.339,18.159
		c-0.226,5.529-0.678,10.152-1.357,14.102c-0.678,3.947-1.807,6.992-3.164,9.022c-1.356,2.029-3.165,3.158-5.426,3.158
		c-2.26,0-4.069-1.015-5.425-3.158c-1.357-2.143-2.374-5.075-3.165-9.022c-0.678-3.949-1.244-8.687-1.357-14.102
		c-0.226-5.526-0.339-11.505-0.339-18.159C79.347,60.619,79.46,54.528,79.686,49.114z M85.563,82.329
		c0.113,4.198,0.339,7.582,0.565,10.264c0.338,2.684,0.679,4.55,1.244,5.715c0.565,1.167,1.242,1.867,2.147,1.867
		c0.904,0,1.583-0.584,2.146-1.867c0.565-1.165,1.019-3.148,1.244-5.715c0.227-2.564,0.452-6.065,0.566-10.264
		c0.338-4.198,0.338-9.33,0.338-15.278s0-11.079-0.112-15.279c-0.113-4.197-0.34-7.579-0.565-10.263
		c-0.339-2.683-0.678-4.548-1.243-5.832c-0.565-1.167-1.244-1.866-2.148-1.866c-0.904,0-1.583,0.584-2.147,1.866
		c-0.565,1.166-1.018,3.149-1.243,5.832c-0.339,2.684-0.453,6.065-0.565,10.263c-0.113,4.2-0.113,9.216-0.113,15.279
		C85.451,72.999,85.563,78.131,85.563,82.329z"/>
	<path fill="#010101" d="M109.3,83.699c0,2.182,0,4.249,0.113,6.085c0.113,1.839,0.226,3.446,0.565,4.824
		c0.226,1.378,0.677,2.412,1.13,3.215c0.452,0.806,1.017,1.148,1.808,1.148c0.792,0,1.357-0.343,1.81-1.148
		c0.452-0.803,0.791-1.837,1.13-3.215c0.226-1.378,0.452-2.985,0.565-4.824c0.112-1.836,0.112-3.903,0.112-6.085V22.382h6.104
		v61.317c0,5.627-0.227,10.219-0.792,13.778c-0.565,3.675-1.243,6.545-2.148,8.613c-0.904,2.182-1.921,3.56-3.052,4.249
		c-1.13,0.688-2.373,1.147-3.617,1.147s-2.486-0.345-3.617-1.033c-1.131-0.688-2.147-1.952-3.052-4.019
		c-0.905-1.952-1.582-4.823-2.147-8.498c-0.565-3.674-0.792-8.496-0.792-14.354V22.382h6.104
		C109.3,22.382,109.3,83.699,109.3,83.699z"/>
	<path fill="#010101" d="M144,37.175h-6.668v74.313h-6.104V37.175h-6.556V22.382H144V37.175L144,37.175z"/>
</g>
</svg>
