<?xml version="1.0" encoding="utf-8"?>
<!-- Generator: Adobe Illustrator 16.0.0, SVG Export Plug-In . SVG Version: 6.00 Build 0)  -->
<!DOCTYPE svg PUBLIC "-//W3C//DTD SVG 1.1//EN" "http://www.w3.org/Graphics/SVG/1.1/DTD/svg11.dtd">
<svg version="1.1" id="_x35_0m" xmlns="http://www.w3.org/2000/svg" xmlns:xlink="http://www.w3.org/1999/xlink" x="0px" y="0px"
	 width="144px" height="144px" viewBox="0 0 144 144" enable-background="new 0 0 144 144" xml:space="preserve">
<g>
	<g>
		<g>
			<defs>
				<polygon id="SVGID_5_" points="-213.87,1 -212.87,1 -213.87,2 				"/>
			</defs>
			<defs>
				<polygon id="SVGID_6_" points="-215.87,-1 -216.87,-1 -215.87,-2 				"/>
			</defs>
			<clipPath id="SVGID_4_">
				<use xlink:href="#SVGID_5_"  overflow="visible"/>
			</clipPath>
			<clipPath id="SVGID_7_" clip-path="url(#SVGID_4_)">
				<use xlink:href="#SVGID_6_"  overflow="visible"/>
			</clipPath>
		</g>
	</g>
</g>
<g>
	<g>
		<g>
			<defs>
				<polygon id="SVGID_31_" points="-213.87,1 -212.87,1 -213.87,2 				"/>
			</defs>
			<defs>
				<polygon id="SVGID_32_" points="-215.87,-1 -216.87,-1 -215.87,-2 				"/>
			</defs>
			<clipPath id="SVGID_8_">
				<use xlink:href="#SVGID_31_"  overflow="visible"/>
			</clipPath>
			<clipPath id="SVGID_11_" clip-path="url(#SVGID_8_)">
				<use xlink:href="#SVGID_32_"  overflow="visible"/>
			</clipPath>
		</g>
	</g>
</g>
<g>
	<path fill="#010101" d="M67.633,32.538c39.926-8.861,25.887,9.16,46.796,7.767c4.281-0.796,8.861,1.294,10.355,5.377
		c3.883,9.26,10.554,2.29,19.216,11.749c-2.39,4.58-7.269,6.073-11.749,4.082c-8.164-5.975-15.731,1.892-22.801,5.774
		c-5.675,2.091-12.445,0.798-18.419,2.191c-9.459,5.675-20.213,13.839-14.637,26.385c2.888,10.155,9.16,21.407-7.866,17.623
		c-4.978-4.68,3.187-18.021-5.675-26.685c-10.354-9.855-18.918-31.96-35.047-30.367c-3.884-0.199-5.875,2.39-7.368,5.676
		c-3.485,5.477-6.97,2.389-11.251-0.199C6.2,61.015-3.357,60.119,1.222,55.538c5.874-5.077,12.844-0.299,15.831-6.57
		c1.692-3.386,5.477-4.381,9.26-4.68c5.974,0.398,10.455-2.59,14.637-6.473c7.468-1.195,15.233-2.887,22.801-1.593
		C66.837,37.218,67.533,35.427,67.633,32.538z M119.806,57.729c0-0.199,0-0.299,0-0.498c-3.485,0.199-8.663-3.087-11.151,0
		C92.724,77.542,80.277,33.833,67.035,76.05c-0.696,5.874,5.875,3.783,8.363,0.995c5.078-3.484,8.165-11.45,14.836-11.351
		C113.334,65.595,102.381,65.396,119.806,57.729z M37.265,56.235c7.667,4.779,14.338,10.355,21.407,15.832
		c2.887,2.289,4.48,1.791,6.173-1.395c4.879-7.766,5.576-16.03,16.527-15.731c0-0.2,0.101-0.397,0.101-0.697
		c-11.649-5.874-19.315,18.022-34.351,3.685C44.732,55.141,41.048,54.741,37.265,56.235z"/>
	<g>
		<path fill="#ADADAD" d="M119.706,57.729c-13.84,6.173-9.658,7.467-19.217,7.865l0,0l0,0c-2.39,0.1-5.676,0.1-10.255,0.1
			c-6.671-0.1-9.758,7.866-14.836,11.351c-2.39,2.888-9.06,4.979-8.363-0.995c6.173-19.615,12.147-20.61,18.32-18.221l-3.983-2.888
			l-3.186,0.199c-0.1,0-0.198,0-0.198,0l-1.893,0.497c-6.073,2.191-7.269,8.762-11.251,15.035c-1.692,3.186-3.286,3.584-6.173,1.395
			c-7.069-5.477-13.641-10.953-21.208-15.633l-3.086,0.598c12.246,3.684,19.813,21.208,28.675,29.672
			c8.861,8.562,0.697,22.003,5.676,26.683c16.926,3.784,10.752-7.468,7.865-17.623c-5.575-12.446,5.178-20.71,14.636-26.386
			c5.875-1.393,12.745-0.1,18.421-2.189c5.177-2.888,10.752-7.966,16.527-7.966L119.706,57.729z"/>
		<path fill="#ADADAD" d="M130.559,60.317L130.559,60.317C130.459,60.317,130.559,60.317,130.559,60.317L130.559,60.317z"/>
	</g>
</g>
</svg>
