<?xml version="1.0" encoding="utf-8"?>
<!-- Generator: Adobe Illustrator 16.0.0, SVG Export Plug-In . SVG Version: 6.00 Build 0)  -->
<!DOCTYPE svg PUBLIC "-//W3C//DTD SVG 1.1//EN" "http://www.w3.org/Graphics/SVG/1.1/DTD/svg11.dtd">
<svg version="1.1" id="_x35_0m" xmlns="http://www.w3.org/2000/svg" xmlns:xlink="http://www.w3.org/1999/xlink" x="0px" y="0px"
	 width="144px" height="144px" viewBox="0 0 144 144" enable-background="new 0 0 144 144" xml:space="preserve">
<g>
	<path fill="#8DC440" d="M28.664,81.801c-1.528,0.51-2.955,1.223-4.587,1.527c-3.771,0.918-7.746-1.018-8.256-4.992
		c-0.306-2.65-2.14-4.281-4.892-4.486c-2.446-0.203-1.427-2.139-1.835-3.363c-0.407-1.324,0.611-1.732,1.631-1.732
		c1.529,0,2.242-0.305,2.141-2.141c-0.103-2.752,2.038-4.076,4.281-4.994c1.937-0.814,3.975-1.324,5.91-2.242
		c2.142-0.918,3.976-2.242,5.606-3.771c0.306-0.305,0.815-0.51,0.714-1.018c-0.204-0.51-0.815-0.613-1.325-0.613
		c-1.224-0.102-2.344,0.51-3.16,1.326c-1.63,1.529-3.567,2.141-5.809,1.936c-1.428-0.102-2.956,0.102-4.281,1.121
		c0.102-2.547-1.835-1.936-3.262-2.242c-1.528-0.408-3.975,0.715-4.077-2.344c0-0.611-0.815-0.51-1.325-0.408
		c-0.917,0.102-1.732,0.307-2.649,0.408c-1.325,0.102-2.753,0.102-3.262-1.428c-0.51-1.527-0.204-3.262,1.325-3.873
		c3.465-1.324,3.058-3.363,1.937-6.115c-1.02-2.65,0.408-5.4,3.159-7.338c1.529-1.121,3.364-1.732,5.097-2.549
		c2.854-1.324,5.504-2.752,5.707-6.521c0.103-1.225,1.224-1.529,2.345-1.633c2.344-0.102,4.077-1.119,5.605-2.955
		c1.529-1.834,2.345-1.834,4.18-0.102c1.528,1.428,3.159,1.732,4.993,0.918c2.65-1.121,5.198-1.834,8.053-1.121
		c0.815,0.203,1.732-0.205,2.242-1.02c0.306-0.51,0.306-1.02-0.102-1.428c-0.612-0.713-1.427-1.02-2.345-0.713
		c-0.815,0.305-1.631,0.611-2.548,0.713c-1.631,0.408-2.956-0.305-3.567-1.834c-0.611-1.631,0-3.262,1.631-3.771
		c1.937-0.611,2.956-1.732,3.363-3.67c0.306-1.324,1.325-1.834,2.549-2.037c1.427-0.205,2.445-0.816,2.955-2.242
		c0.51-1.529,1.835-1.734,3.262-1.631c3.669,0.508,6.727,2.344,9.887,3.975c1.528,0.814,0.306,4.994-1.632,6.217
		c-3.771,2.344-3.872,3.975,0.103,6.932c0.714-2.447,2.242-3.977,4.587-4.791c1.223-0.51,1.427-1.732,1.528-2.955
		c0.306-4.588,3.16-6.83,7.747-6.117c1.528,0.205,3.159,0.715,4.688,1.123c2.446,0.611,4.893,0.611,7.338,0.203
		c2.446-0.408,4.995-0.713,6.83,1.631c0.509,0.611,0.814,0.305,1.224,0c2.037-1.732,4.179-1.834,6.522-0.816
		c1.12,0.51,1.834,0.104,2.547-0.611c1.225-1.223,2.346-1.121,3.671,0.104c1.324,1.223,3.057,1.426,4.688,1.834
		c2.446,0.611,3.976,1.936,4.485,4.484c0.509,2.752,1.121,5.402,1.732,8.154c0.203,0.713,0.203,1.426,1.427,1.527
		c4.791,0.307,6.421,2.244,6.523,7.135c0.102,0.104,0.204,0.205,0.306,0.205c2.141-0.51,4.179-0.307,5.504,1.631
		c1.324,1.936,0.917,3.975-0.714,5.605c-0.713,0.713-0.306,0.918,0.307,1.223c2.547,1.223,4.28,3.262,4.993,6.014
		c0.204,0.816,0.612,1.02,1.427,0.713c1.122-0.51,2.345-0.713,3.67-0.51c2.649,0.408,3.872,3.059,2.242,5.098
		c-1.224,1.527-1.121,2.445,0.713,3.16c0.917,0.406,1.836,0.814,1.529,2.037c-0.306,1.324-1.325,1.732-2.548,1.631
		c-2.548-0.203-4.79,0.305-6.421,2.447c-1.122,1.426-1.937,3.057-1.427,4.688c0.611,2.242-0.612,2.854-2.242,3.363
		c-1.02,0.307-2.039,0.51-3.059,0.205c-1.732-0.611-1.63,0.51-1.427,1.629c0.204,0.613,0.51,1.225,0.815,1.836
		c1.528,3.465,0.204,6.422-3.567,7.236c-3.058,0.715-6.115,0.305-9.173-0.102c-0.611-0.102-1.121-0.203-1.732-0.203
		c-1.325-0.51-2.345-1.529-3.771-1.734c-0.307-1.223-1.324-1.834-2.242-2.547c-1.835-1.529-2.956-1.324-4.18,0.713
		c-0.917,1.426-2.242,1.834-3.873,1.936c-1.528,0.104-3.159-0.406-4.688,0.408c-3.363,0.102-6.013,2.141-8.867,3.363
		c-2.751,0.816-5.81,2.039-8.358,0.408c-2.344-1.428-4.483-1.631-6.93-1.121c-2.038-0.102-3.669-1.324-5.402-2.242
		c-2.14-1.836-4.382-3.566-7.135-4.689c-1.12-0.406-1.937-0.305-1.732,1.123c0.204,1.527-0.51,2.037-1.834,1.73
		c-1.529-0.305-2.141,0.307-1.938,1.836c0.103,1.223-0.102,1.936-1.63,1.426c-1.835-0.508-3.567,0.104-4.995,1.529
		c-1.427,0.715-2.649,2.039-4.383,0.816c-0.917-1.732-0.102-3.771-0.713-5.607c-0.306-0.916-0.611-1.834-1.835-1.936
		c-1.019-0.102-2.14,0.102-2.445,1.121c-0.51,1.631-1.632,1.529-2.854,1.529c-0.917,0-1.733-0.102-2.548,0.305
		C30.499,79.15,30.601,81.088,28.664,81.801z M122.74,56.727c1.63,0.408,3.464-0.305,5.3-0.51c1.63-0.102,2.445-1.324,2.14-2.955
		c-0.203-1.223-0.306-3.262-2.14-2.955c-4.383,0.713-7.033-1.631-9.479-4.486c-1.733-2.037-3.67-3.77-6.524-3.057
		c-2.751,0.713-5.198,0-7.746-0.713c-3.567-1.02-6.727-0.918-9.479,1.936c-1.427,1.529-3.261,1.834-5.096,0.307
		c-0.713-0.611-1.528-0.713-2.446-0.713c-5.401,0-8.969,3.057-12.128,7.031c-0.51,0.715,0.203,0.715,0.61,1.02
		c1.937,1.223,3.16,2.957,2.346,5.301c-0.612,1.936,0.203,3.057,1.732,3.975c2.14,1.223,4.483,2.141,6.522,3.566
		c2.752,2.039,2.956,2.447,2.242,5.709c-0.611,2.549,1.121,4.076,3.67,3.363c1.529-0.408,2.752-1.223,4.076-1.938
		c2.65-1.426,5.096-3.158,8.46-2.139c1.121,0.305,2.038-0.307,3.058-1.02c1.632-1.225,2.242-1.02,2.752,0.916
		c0.612,2.346,1.427,4.484,4.077,5.199c0.714,0.203,1.835,0.611,1.938-0.611c0.101-1.732,1.324-2.346,2.444-3.059
		c3.466-2.344,3.568-3.771,0-6.115c-2.241-1.428-3.363-3.465-3.261-6.014c0.102-1.834,1.224-2.752,2.956-2.344
		C119.886,56.727,121.108,56.727,122.74,56.727z M19.389,33.387c-2.241-0.203-3.159,1.121-3.873,2.854
		c-0.713,1.834-0.102,3.771-0.815,5.605c-0.509,1.225-0.204,1.938,1.121,2.141c2.549,0.408,4.485,1.631,6.116,3.568
		c0.815,1.018,1.835,1.732,3.159,2.242c3.771,1.223,6.522-0.715,9.174-2.752c3.771-2.854,6.522-2.447,8.765,1.527
		c1.325,2.346,3.567,3.873,6.014,0.816c2.752-3.465,6.421-4.893,10.702-4.994c1.528,0,2.752-0.814,3.669-2.039
		c0.408-0.611,0.714-1.324-0.204-1.834c-1.834-1.121-1.834-1.834,0-3.057c2.549-1.734,2.65-3.467,0.204-5.402
		c-1.223-1.02-2.445-2.039-3.771-3.059c-1.224-0.918-2.446-2.344-4.281-1.732c-2.141,0.814-4.179,0.305-6.218-0.611
		c-6.115-2.549-11.415-0.203-16.512,2.854c-1.427,0.918-2.446,1.324-4.179,0.918c-1.631-0.408-3.975-0.51-4.383,1.732
		c-0.407,2.037-1.324,1.834-2.752,1.527C20.714,33.59,20.103,33.488,19.389,33.387z M108.572,29.922c0.611,0,0.918,0,1.223,0
		c1.223,0,2.65,0.305,3.159-1.225c0.51-1.426-0.814-2.139-1.527-2.854c-1.224-1.223-1.836-2.445-1.836-4.281
		c0.103-4.279-3.669-8.459-7.949-9.07c-0.51-0.102-1.122-0.203-1.223,0.51c-0.205,1.121-0.918,1.121-1.733,1.121
		c-1.121,0-2.038,0.408-2.752,1.223c-1.122,1.223-2.344,1.223-3.771,0.715c-3.159-1.02-6.217-1.938-9.376-2.957
		c-0.918-0.305-2.039-0.51-2.549,0.51c-1.121,1.938-2.854,2.549-4.79,3.057c-3.567,1.02-5.708,4.893-4.688,8.461
		c1.02,3.873,3.873,5.301,8.459,4.281c2.141-0.51,4.281-0.918,6.524-0.611c2.649,0.305,2.954,0.713,1.936,3.158
		c-0.611,1.428-0.306,2.141,1.224,2.65c3.873,1.223,7.848,1.428,11.822,0.611c1.325-0.305,2.854-0.611,3.364-2.141
		C104.699,30.227,106.432,29.514,108.572,29.922z M22.243,72.016c-0.408,1.938,0.917,2.957,2.141,4.18
		c1.528,1.527,3.159,1.732,4.688,0.203c1.223-1.121,2.344-2.445,3.566-3.568c3.466-3.158,7.339-2.752,9.989,1.123
		c1.631,2.445,2.955,2.344,4.484-0.203c0.815-1.428,1.529-3.365,3.363-3.568c3.567-0.51,7.339-1.02,10.396,1.732
		c0.917,0.816,1.835,1.121,2.956,1.121c1.12,0,1.325-0.408,1.019-1.428c-0.611-2.242-0.51-2.242,1.937-1.834
		c1.733,0.408,3.567,0.713,5.402,1.02c1.732,0.203,3.363-0.102,4.586-1.529c1.122-1.426,0.816-3.059,0-4.484
		c-1.834-3.363-4.993-4.994-8.357-6.219c-1.937-0.713-3.975-0.916-5.707,0.104c-3.364,1.936-6.625,1.324-9.785-0.205
		c-3.363-1.527-6.625-1.732-9.785,0.307c-3.465,2.141-7.032,3.059-11.211,1.732c-3.159-1.02-5.402,0.918-5.504,4.18
		c-0.102,1.223-0.51,2.141-1.631,2.955C23.058,68.449,21.835,69.773,22.243,72.016z"/>
	<path fill="#9A7A60" d="M41.405,82.209c1.731,1.223,3.058-0.104,4.382-0.816c2.141,6.523,5.606,12.129,10.805,16.615
		c3.159,2.648,6.828,1.324,7.745-2.754c1.224-5.605,0.918-11.313,0.816-17.021c1.732,0.918,3.363,2.143,5.401,2.242
		c-0.306,3.771,0.204,7.441,1.224,11.008c1.12,3.568,5.197,4.486,7.542,1.734c3.058-3.467,5.3-7.441,6.422-12.027
		c2.954-1.324,5.503-3.262,8.866-3.363c-0.204,0.814-0.306,1.732-0.51,2.549c-0.611,2.139-0.102,3.871,1.632,5.197
		c1.834,1.324,3.669,1.02,5.503-0.205c3.364-2.139,6.218-4.789,8.46-8.051c1.427,0.203,2.446,1.223,3.771,1.732
		c-1.63,4.383-4.79,7.441-8.663,9.887c-7.032,4.586-14.167,9.072-20.895,14.27c-4.382,3.363-8.357,7.236-10.498,12.434
		c-3.669,8.563-1.325,16.309,3.771,23.545c0.409,0.51,0.816,1.02,1.326,1.732c-9.887,0-19.467,0-29.252,0
		c1.223-3.057,2.65-6.115,3.669-9.172c2.956-8.563,4.281-17.227,1.325-25.992c-3.466-10.701-11.415-17.326-21.404-22.117
		c-1.325-0.611-2.752-1.223-4.179-1.834c1.937-0.713,1.835-2.65,2.446-4.18c2.65,1.631,5.198,3.262,7.848,4.994
		C39.978,83.229,40.793,83.328,41.405,82.209z"/>
	<path fill="#7FB141" d="M122.74,56.727c-1.529,0-2.752,0-3.976-0.305c-1.732-0.408-2.854,0.51-2.956,2.344
		c-0.102,2.65,1.02,4.586,3.261,6.014c3.568,2.344,3.466,3.67,0,6.115c-1.12,0.816-2.344,1.428-2.444,3.059
		c-0.103,1.223-1.224,0.814-1.938,0.611c-2.65-0.715-3.465-2.854-4.077-5.199c-0.51-1.936-1.12-2.242-2.752-0.916
		c-0.917,0.713-1.937,1.324-3.058,1.02c-3.262-1.02-5.81,0.713-8.46,2.139c-1.324,0.715-2.649,1.529-4.076,1.938
		c-2.549,0.713-4.179-0.918-3.67-3.363c0.816-3.363,0.611-3.67-2.242-5.709c-2.039-1.527-4.28-2.445-6.522-3.566
		c-1.529-0.918-2.345-1.938-1.732-3.975c0.814-2.344-0.409-4.078-2.346-5.301c-0.407-0.305-1.12-0.305-0.61-1.02
		c3.057-3.975,6.727-7.031,12.128-7.031c0.918,0,1.733,0.203,2.446,0.713c1.835,1.426,3.669,1.121,5.096-0.307
		c2.753-2.854,5.912-2.955,9.479-1.936c2.446,0.713,4.995,1.426,7.746,0.713c2.854-0.713,4.791,1.02,6.524,3.057
		c2.445,2.957,5.096,5.301,9.479,4.486c1.834-0.307,1.937,1.732,2.14,2.955c0.306,1.631-0.51,2.854-2.14,2.955
		C126.104,56.422,124.269,57.135,122.74,56.727z"/>
	<path fill="#7FB141" d="M19.389,33.387c0.612,0.102,1.325,0.203,1.937,0.305c1.428,0.307,2.345,0.51,2.752-1.527
		c0.408-2.242,2.65-2.039,4.383-1.732c1.631,0.406,2.65,0,4.179-0.918c5.097-3.057,10.396-5.402,16.512-2.854
		c2.039,0.814,4.077,1.426,6.422,0.713c1.834-0.611,2.956,0.814,4.28,1.732c1.325,0.918,2.446,2.039,3.771,3.059
		c2.344,1.936,2.344,3.668-0.204,5.402c-1.834,1.223-1.834,1.834,0,2.955c0.917,0.51,0.611,1.223,0.204,1.834
		c-0.917,1.225-2.141,2.039-3.669,2.039c-4.383,0-7.95,1.529-10.702,4.994c-2.446,3.057-4.688,1.529-6.014-0.816
		c-2.242-3.975-4.994-4.482-8.766-1.527c-2.649,2.141-5.401,3.975-9.173,2.752c-1.325-0.408-2.345-1.225-3.16-2.242
		c-1.63-1.836-3.669-3.16-6.115-3.568c-1.325-0.203-1.631-0.916-1.121-2.141c0.815-1.732,0.204-3.771,0.815-5.605
		C16.229,34.406,17.249,33.184,19.389,33.387z"/>
	<path fill="#7FB141" d="M108.572,29.922c-2.141-0.408-3.873,0.305-4.688,2.955c-0.408,1.529-2.038,1.834-3.364,2.141
		c-3.974,0.918-7.949,0.611-11.823-0.611c-1.528-0.51-1.731-1.223-1.223-2.65c1.02-2.445,0.714-2.854-1.937-3.16
		c-2.241-0.305-4.383,0.205-6.522,0.611c-4.587,1.02-7.339-0.406-8.46-4.279c-1.019-3.568,1.121-7.543,4.688-8.461
		c1.936-0.51,3.771-1.121,4.79-3.057c0.51-0.918,1.631-0.816,2.548-0.51c3.16,1.02,6.32,1.936,9.377,2.955
		c1.427,0.51,2.65,0.611,3.771-0.713c0.714-0.816,1.631-1.223,2.753-1.223c0.814,0,1.63,0.102,1.731-1.121
		c0.103-0.715,0.612-0.611,1.223-0.51c4.281,0.611,7.951,4.789,7.951,9.07c0,1.732,0.611,3.059,1.835,4.281
		c0.814,0.713,2.14,1.428,1.528,2.854c-0.51,1.529-1.937,1.223-3.16,1.223C109.49,29.922,109.184,29.922,108.572,29.922z"/>
	<path fill="#7FB141" d="M22.243,72.016c-0.306-2.141,0.814-3.465,2.344-4.484c1.122-0.713,1.529-1.631,1.631-2.955
		c0.103-3.262,2.345-5.199,5.504-4.18c4.179,1.326,7.746,0.408,11.212-1.732c3.262-2.039,6.523-1.834,9.784-0.307
		c3.262,1.529,6.422,2.141,9.785,0.203c1.732-1.018,3.873-0.814,5.708-0.102c3.363,1.225,6.522,2.855,8.357,6.219
		c0.815,1.426,1.12,3.057,0,4.484c-1.224,1.426-2.854,1.732-4.587,1.529c-1.834-0.205-3.567-0.613-5.401-1.02
		c-2.345-0.51-2.549-0.408-1.937,1.834c0.305,1.02,0.203,1.428-1.02,1.428c-1.121,0-2.141-0.307-2.956-1.121
		c-3.058-2.752-6.828-2.242-10.396-1.734c-1.732,0.205-2.446,2.143-3.363,3.568c-1.528,2.549-2.854,2.65-4.484,0.203
		c-2.65-3.873-6.421-4.279-9.988-1.119c-1.224,1.119-2.345,2.344-3.567,3.566c-1.529,1.529-3.159,1.324-4.688-0.203
		C23.058,74.973,21.733,73.85,22.243,72.016z"/>
</g>
</svg>
