<?xml version="1.0" encoding="utf-8"?>
<!-- Generator: Adobe Illustrator 16.0.0, SVG Export Plug-In . SVG Version: 6.00 Build 0)  -->
<!DOCTYPE svg PUBLIC "-//W3C//DTD SVG 1.1//EN" "http://www.w3.org/Graphics/SVG/1.1/DTD/svg11.dtd">
<svg version="1.1" id="_x35_0m" xmlns="http://www.w3.org/2000/svg" xmlns:xlink="http://www.w3.org/1999/xlink" x="0px" y="0px"
	 width="144px" height="144px" viewBox="0 0 144 144" enable-background="new 0 0 144 144" xml:space="preserve">
<path fill="#010101" d="M36.125,112.677c-12.174,0-24.149,0-36.125,0c0-6.087,0-12.074,0-18.262c2.895,0,5.789,0,8.981,0
	c0,3.692,0,7.384,0,11.276c4.69,0,9.081,0,14.171,0c-3.992-26.245-10.777-53.888,19.26-67.16
	c50.096-21.255,103.983,8.183,79.733,67.16c5.09,0,9.979,0,15.168,0c0-3.692,0-7.385,0-11.177c2.396,0,4.491,0,6.687,0
	c0,5.987,0,11.975,0,18.162c-12.074,0-24.049,0-36.224,0c0.398-4.291-0.998-8.981,0.798-12.873
	c9.48-15.767,12.274-39.617-7.884-48.1c-25.048-11.676-71.85-7.884-68.457,29.04C32.933,91.62,37.023,101.7,36.125,112.677z"/>
</svg>
