<?xml version="1.0" encoding="utf-8"?>
<!-- Generator: Adobe Illustrator 16.0.0, SVG Export Plug-In . SVG Version: 6.00 Build 0)  -->
<!DOCTYPE svg PUBLIC "-//W3C//DTD SVG 1.1//EN" "http://www.w3.org/Graphics/SVG/1.1/DTD/svg11.dtd">
<svg version="1.1" id="_x35_0m" xmlns="http://www.w3.org/2000/svg" xmlns:xlink="http://www.w3.org/1999/xlink" x="0px" y="0px"
	 width="144px" height="144px" viewBox="0 0 144 144" enable-background="new 0 0 144 144" xml:space="preserve">
<circle fill="#2199D0" cx="72" cy="72.156" r="68.664"/>
<path fill="#040303" d="M82.722,21.83H61.13v0.007c-14.667,0.151-26.535,22.619-26.535,50.32s11.867,50.169,26.535,50.32v0.007
	h21.592c14.736,0,26.683-22.532,26.683-50.327S97.458,21.83,82.722,21.83z M70.873,119.118c-9.995-7.27-17.089-25.548-17.089-46.961
	s7.094-39.691,17.089-46.961h2.254c-9.994,7.27-17.088,25.547-17.088,46.961s7.094,39.691,17.088,46.961H70.873z M88.617,104.023
	c-8.936,0-16.18-13.662-16.18-30.517c0-16.854,7.245-30.518,16.18-30.518c8.936,0,16.181,13.664,16.181,30.518
	C104.797,90.361,97.553,104.023,88.617,104.023z"/>
<path fill="#020202" d="M138.3,44.001c-3.6-8.602-8.8-16.301-15.399-22.9C116.3,14.501,108.6,9.3,100,5.7
	c-8.9-3.801-18.3-5.699-28-5.699S52.9,1.899,44,5.7c-8.601,3.6-16.3,8.801-22.899,15.4C14.5,27.699,9.3,35.399,5.701,44.001
	C1.9,52.899,0,62.3,0,72.001C0,81.7,1.9,91.2,5.701,99.999c3.6,8.603,8.8,16.301,15.4,22.899C27.701,129.498,35.4,134.7,44,138.3
	c8.899,3.802,18.3,5.699,28,5.699s19.2-1.897,28-5.699c8.6-3.6,16.3-8.801,22.9-15.399c6.6-6.601,11.8-14.299,15.398-22.9
	c3.801-8.898,5.7-18.299,5.7-27.998C144,62.3,142.1,52.899,138.3,44.001z M25.5,112.602c-1.101-1.302-2.2-2.603-3.2-3.9l86.3-86.302
	c1.301,1,2.7,2.103,3.9,3.201L25.5,112.602z M117.6,30.501c1.102,1.199,2.2,2.5,3.2,3.799l-86.6,86.601
	c-1.301-1-2.6-2.101-3.801-3.199L117.6,30.501z M28.3,28.399C40,16.7,55.5,10.3,72,10.3c10.9,0,21.4,2.801,30.6,8.1l-84.2,84.202
	C13.101,93.4,10.3,82.9,10.3,72.001C10.3,55.501,16.701,40.001,28.3,28.399z M115.701,115.7C104,127.3,88.5,133.8,72,133.8
	c-11.399,0-22.3-3.1-31.899-8.801l84.8-84.799c5.8,9.5,8.8,20.4,8.8,31.9C133.701,88.499,127.3,103.999,115.701,115.7z"/>
</svg>
