<?xml version="1.0" encoding="utf-8"?>
<!-- Generator: Adobe Illustrator 16.0.0, SVG Export Plug-In . SVG Version: 6.00 Build 0)  -->
<!DOCTYPE svg PUBLIC "-//W3C//DTD SVG 1.1//EN" "http://www.w3.org/Graphics/SVG/1.1/DTD/svg11.dtd">
<svg version="1.1" id="_x35_0m" xmlns="http://www.w3.org/2000/svg" xmlns:xlink="http://www.w3.org/1999/xlink" x="0px" y="0px"
	 width="144px" height="144px" viewBox="0 0 144 144" enable-background="new 0 0 144 144" xml:space="preserve">
<circle fill="#2199D0" cx="72" cy="72.156" r="68.664"/>
<path fill="#040303" d="M82.722,21.83H61.13v0.007c-14.667,0.151-26.535,22.619-26.535,50.32s11.867,50.169,26.535,50.32v0.007
	h21.592c14.736,0,26.683-22.532,26.683-50.327S97.458,21.83,82.722,21.83z M70.873,119.118c-9.995-7.27-17.089-25.548-17.089-46.961
	s7.094-39.691,17.089-46.961h2.254c-9.994,7.27-17.088,25.547-17.088,46.961s7.094,39.691,17.088,46.961H70.873z M88.617,104.023
	c-8.936,0-16.18-13.662-16.18-30.517c0-16.854,7.245-30.518,16.18-30.518c8.936,0,16.181,13.664,16.181,30.518
	C104.797,90.361,97.553,104.023,88.617,104.023z"/>
<path fill="#020202" d="M138.3,44.157c-3.6-8.602-8.8-16.301-15.399-22.9c-6.601-6.6-14.301-11.801-22.9-15.4
	c-8.9-3.801-18.3-5.699-28-5.699S52.9,2.056,44,5.856c-8.601,3.6-16.3,8.801-22.899,15.4C14.5,27.855,9.3,35.556,5.701,44.157
	C1.9,53.056,0,62.456,0,72.157c0,9.699,1.899,19.199,5.7,27.998c3.6,8.603,8.8,16.301,15.4,22.899
	c6.6,6.6,14.299,11.802,22.899,15.401c8.899,3.802,18.3,5.699,28,5.699s19.2-1.897,28-5.699c8.6-3.6,16.3-8.801,22.9-15.399
	c6.6-6.601,11.8-14.299,15.398-22.9c3.801-8.898,5.7-18.299,5.7-27.998C144,62.456,142.1,53.056,138.3,44.157z M122.565,107.615
	c-0.347,0.496-0.691,0.994-1.054,1.481c-0.033,0.044-0.068,0.087-0.102,0.131c-1.735,2.318-3.635,4.537-5.709,6.629
	c-11.7,11.6-27.2,18.1-43.7,18.1c-11.399,0-22.3-3.1-31.899-8.801l0.061-0.062c-2.06-1.24-4.033-2.606-5.926-4.072l-0.035,0.035
	c-1.301-1-2.6-2.101-3.801-3.199l0.021-0.021c-2.923-2.662-5.589-5.602-7.958-8.775c-0.052-0.067-0.11-0.136-0.163-0.203
	l0.011-0.011c-7.589-10.261-12.082-22.949-12.082-36.69c0-34.113,27.655-61.771,61.771-61.771s61.771,27.657,61.771,61.771
	c0,11.535-3.171,22.326-8.676,31.565c-0.033,0.056-0.063,0.112-0.096,0.167c-0.376,0.627-0.771,1.241-1.168,1.854
	c-0.17,0.263-0.333,0.529-0.507,0.79C123.078,106.898,122.818,107.254,122.565,107.615z"/>
</svg>
