<?xml version="1.0" encoding="utf-8"?>
<!-- Generator: Adobe Illustrator 16.0.0, SVG Export Plug-In . SVG Version: 6.00 Build 0)  -->
<!DOCTYPE svg PUBLIC "-//W3C//DTD SVG 1.1//EN" "http://www.w3.org/Graphics/SVG/1.1/DTD/svg11.dtd">
<svg version="1.1" id="_x35_0m" xmlns="http://www.w3.org/2000/svg" xmlns:xlink="http://www.w3.org/1999/xlink" x="0px" y="0px"
	 width="144px" height="144px" viewBox="0 0 144 144" enable-background="new 0 0 144 144" xml:space="preserve">
<g>
	<path fill="#010101" d="M27.808,67.704c3.183-0.994,8.65-1.591,14.316,2.485C38.247,66.908,33.574,65.716,27.808,67.704z"/>
	<path fill="#010101" d="M27.808,67.704c-1.689,0.497-2.783,1.192-2.783,1.192C26.019,68.399,26.914,68.003,27.808,67.704z"/>
	<path fill="#010101" d="M35.762,24.457c0,0,3.778,3.778,8.849,14.216C41.926,32.411,38.943,27.439,35.762,24.457z"/>
	<path fill="#010101" d="M104.46,52.294c-3.38,1.988-6.462,6.362-9.246,12.029c-0.597,0.398-1.192,0.896-1.789,1.393
		c0.597-0.398,1.093-0.796,1.689-1.095c-1.192,2.486-2.386,5.27-3.479,8.153c-0.896,1.292-1.69,2.685-2.486,4.076
		c0.299-1.491,0.597-2.885,0.895-4.275c1.193-2.685,2.586-5.17,4.076-7.158c0,0-1.49,1.193-3.579,5.17
		c0.299-0.895,0.598-1.79,0.796-2.685c0.695-0.795,1.392-1.491,2.088-2.087c-0.696,0.497-1.292,1.093-1.988,1.688
		c5.368-16.701,11.433-26.146,11.433-26.146c-1.392,1.59-2.684,3.281-3.877,5.169c9.246-17.397,19.983-19.685,19.983-19.685
		c-14.914-0.796-23.762,17.597-28.932,38.674c-0.397,0.995-0.695,2.088-0.994,3.182c0.199-2.187,0.497-4.474,0.796-6.661
		c2.088-8.252,4.772-15.708,8.252-21.176c0,0-3.58,3.678-7.557,16.005c0.199-1.689,0.497-3.28,0.796-4.971
		c0.695-0.695,1.094-0.994,1.094-0.994c-0.398,0.299-0.696,0.497-1.094,0.796c0.895-5.667,1.988-11.234,3.181-16.603
		c2.188-4.077,3.58-6.264,3.58-6.264c-1.095,1.392-2.089,2.784-3.083,4.275c0.199-0.796,0.398-1.491,0.597-2.287
		c-0.198,0.796-0.497,1.592-0.695,2.386c-0.597,0.796-1.094,1.591-1.591,2.486c1.094-3.082,2.187-5.866,3.28-8.352
		c-0.298,1.094-0.695,2.287-0.994,3.479c0.397-1.491,0.895-2.883,1.293-4.175c6.462-14.715,12.726-20.48,12.726-20.48
		c-3.579,2.982-6.661,6.66-9.444,10.737c1.392-3.58,2.188-5.368,2.188-5.368c-0.896,1.888-1.791,3.877-2.586,5.965
		c-5.07,7.655-8.849,17-11.632,26.843c-1.69,2.386-3.182,5.069-4.673,7.854c-0.099-0.397-0.198-0.895-0.298-1.293
		c0.199-0.198,0.298-0.497,0.497-0.695c0,0-0.199,0.198-0.497,0.597c-0.1-0.497-0.199-0.994-0.298-1.491
		c0.795-4.672,1.689-9.346,2.684-13.819c4.872-11.83,9.444-17.2,9.444-17.2c-2.982,3.281-5.566,6.96-7.854,10.938
		c3.579-12.13,6.661-18.592,6.661-18.592c-2.585,5.368-4.872,11.731-6.661,18.69c-0.696,1.192-1.293,2.386-1.988,3.679
		c0.397-1.491,0.695-2.287,0.695-2.287c-0.497,1.194-0.993,2.387-1.49,3.579c1.689-7.755,3.777-15.111,6.263-21.573
		c0.397-0.597,0.696-0.896,0.696-0.896c-0.198,0.2-0.398,0.497-0.597,0.697c1.789-4.574,3.777-8.749,5.965-12.229
		c0,0-3.28,3.379-7.456,14.019c-4.475,5.466-8.053,12.028-10.937,19.187c-0.198-0.397-0.298-0.796-0.497-1.193
		C76.225,21.573,73.938,10.638,70.657,0c0,0,2.486,10.638,4.772,27.142c-1.094-2.287-2.088-3.878-2.685-4.772
		c-1.79-8.351-4.076-15.211-6.761-19.884c0.796,1.392,4.176,8.749,7.656,28.532c-0.1,0.399-0.299,0.696-0.398,1.095
		c-3.579-10.937-7.953-21.674-13.62-31.217c0,0,6.362,13.123,12.527,34.1c-0.398,1.193-0.896,2.485-1.293,3.777
		c-1.591-4.672-3.579-8.55-6.064-11.333c0,0,2.982,3.978,5.667,12.526c-0.1,0.398-0.299,0.796-0.397,1.194
		c-1.393-3.58-2.784-6.662-4.077-9.347c1.393,3.083,2.586,6.563,3.778,10.141c-0.497,1.691-0.895,3.381-1.392,5.07
		c-0.896-1.988-1.69-3.678-2.485-5.07c-0.795-5.667-1.591-10.638-2.485-15.012c0.795,1.392,1.591,3.081,2.485,4.871
		c-0.895-1.988-1.789-3.877-2.685-5.567c-3.877-19.884-8.45-26.048-8.45-26.048c3.082,6.364,5.468,14.516,7.258,23.563
		c-1.492-2.484-3.083-4.573-4.772-6.164c0,0,1.988,1.988,4.971,6.86c0.895,4.673,1.69,9.644,2.387,14.713
		c-2.387-3.776-3.878-4.97-3.878-4.97c1.491,1.789,2.784,3.877,4.076,6.263c0.696,5.567,1.192,11.334,1.591,17.001
		c0,0.1,0,0.198-0.1,0.299c-0.1-0.199-0.198-0.299-0.299-0.497c-1.988-6.861-4.076-12.626-6.064-17.499
		c-1.391-4.572-3.081-8.549-5.169-11.531c-2.188-4.275-4.474-7.755-6.959-10.042c0,0,2.584,2.485,6.163,9.047
		c-0.298-0.298-0.497-0.596-0.795-0.895c0,0,5.468,7.158,8.152,23.165l0,0c-2.685-6.761-5.07-10.838-6.86-13.224
		c-2.286-7.357-5.169-14.316-8.55-20.679c0,0,2.884,6.662,6.363,17.995c-0.199-0.198-0.299-0.299-0.299-0.299
		c0.1,0.199,0.299,0.299,0.397,0.497c2.188,6.96,4.573,15.709,6.661,25.75c-2.883-5.966-6.164-11.533-10.041-16.305
		c0,0,4.871,7.556,10.34,20.281c-0.597-0.298-1.094-0.597-1.69-0.795c-4.275-11.533-7.953-14.516-7.953-14.516
		c2.783,3.678,5.07,8.648,7.059,14.217c-1.094-0.397-2.188-0.597-3.281-0.597c-2.982-9.942-6.064-17.497-8.848-23.165
		c2.883,6.662,5.368,14.615,7.556,23.066c-0.796,0-1.591,0.099-2.485,0.298c-0.299-0.1-0.597-0.298-0.895-0.398
		c-3.183-7.058-6.96-13.72-11.533-19.386c0,0,4.573,6.959,9.743,18.789c-2.485-0.596-5.27-0.497-8.352,0.597
		c2.089-0.597,5.071-1.094,8.451-0.298c0.199,0.398,0.298,0.795,0.497,1.094c-0.1,0-0.298,0.1-0.397,0.1c0.1,0,0.298-0.1,0.397-0.1
		c4.971,11.632,10.339,27.538,13.023,46.131c-0.1,1.889-0.199,3.578-0.199,5.169C56.342,87.091,49.084,75.16,42.225,70.189
		c15.906,13.223,18.192,60.248,18.192,60.248c1.592,3.678,2.088,0.596,2.088,0.596c-0.198-1.987-0.397-3.877-0.496-5.766
		c0.099,0,0.198,0,0.198-0.1c0,0.297,0,0.597,0,0.895c0,0,0.597,0.298,1.393-0.101c0.396,3.481,0.596,5.568,0.596,5.568
		c0.497,2.286,0.994,2.286,1.293,1.789c0,1.69,0.1,3.38,0.1,5.07c0,0,0.198,0.896,1.689-0.298c0,0-0.1-4.573,0.1-12.13
		c0-0.099,0.099-0.099,0.099-0.197c0.696,9.842,0.796,16.503,0.796,16.503c1.293,2.784,2.188,0,2.188,0
		c-0.1-1.69-0.199-3.381-0.299-4.971c0.597-0.497,0.994-1.491,0.994-1.491c-0.397-3.879-0.695-7.656-0.994-11.335
		c0.299,0,0.497,0,0.795-0.099c0.398,11.234,1.194,18.592,1.194,18.592c1.392,2.685,2.783-0.696,2.783-0.696
		c-0.298-2.685-0.497-5.27-0.696-7.854c0.497,0.497,1.095,0.895,1.89,0.994c0,0,0.396-1.988,0.894-5.668
		c-0.298,3.48-0.596,7.159-0.894,10.936c0,0,0.696,2.288,1.789,0c0,0,0.199-4.771,0.796-11.93c0.596-0.198,1.392-1.291,1.392-1.291
		c0-0.2,0.099-0.497,0.099-0.697c0,0.1,0.1,0.2,0.1,0.299c-0.198,4.373-0.397,9.047-0.497,13.918c0,0,1.095,2.784,2.287-0.397
		c0,0,0-1.193,0-3.28c1.094,0.695,1.988-0.895,1.988-0.895c-0.397-2.884-0.795-5.668-0.994-8.352h0.1
		c1.292,2.088,1.988-0.497,1.988-0.497c0-0.299-0.1-0.596-0.1-0.994c0.1-0.101,0.198-0.101,0.298-0.199c0.1,0,0.199,0,0.398,0
		c-1.293,9.445-1.69,15.51-1.69,15.51c1.192,0.994,2.286,0.497,2.286,0.497c0.1-5.07,0.397-10.141,0.895-15.013
		c0.796,1.392,1.492,0.994,1.89,0.497c0.1,0,0.199-0.1,0.299-0.1c-0.896,4.672-1.393,7.557-1.393,7.557c0.299,2.982,2.287,0,2.287,0
		c0.298-3.182,0.695-6.164,1.094-9.047c0.298-0.1,0.397-0.3,0.397-0.3c0-0.794,0-1.59,0-2.386
		c0.895-5.567,1.889-10.737,2.982-15.608c-1.193,8.054-2.187,17.497-2.982,28.435c0,0,0.695,2.287,1.789,0
		c0,0,0.696-19.587,4.176-39.568c5.866-19.287,12.925-30.521,16.106-34.896c0.099,0,0.099,0,0.099,0c-0.099,0-0.099,0-0.099-0.1
		c0.994-1.392,1.689-2.087,1.689-2.087c-0.895,0.497-1.79,1.094-2.685,1.888c-1.094-0.298-2.187-0.396-3.28-0.497l0.1-0.1
		c0,0-0.1,0-0.1,0.1c-1.492,0-2.982,0.199-4.375,0.598c5.07-11.335,9.246-17.896,9.246-17.896
		c-4.176,5.468-7.854,11.632-11.035,18.094c-0.398,0-0.696,0-1.093,0c0.993-2.584,1.888-5.071,2.882-7.456
		c1.79-1.988,2.983-2.982,2.983-2.982c-0.896,0.695-1.79,1.393-2.685,2.187c0.1-0.198,0.1-0.297,0.198-0.497
		c3.182-7.06,5.567-10.936,5.567-10.936c-0.596,0.695-1.192,1.393-1.789,2.187c4.573-9.644,8.053-15.21,8.053-15.21
		C112.513,36.089,108.138,43.942,104.46,52.294z M62.902,106.874c-0.198-1.293-0.397-2.584-0.596-3.877
		c0.099-4.474,0.298-8.947,0.696-13.421C63.003,95.242,63.003,101.208,62.902,106.874z M65.091,91.863c0-0.397-0.1-0.697-0.1-1.095
		c0-1.491,0-2.982,0-4.572c0.795,2.584,1.491,5.27,2.088,7.953c-0.199,2.087-0.398,4.176-0.597,6.263
		C66.085,97.331,65.588,94.547,65.091,91.863z M99.787,63.329c-0.596,0.497-1.094,0.994-1.59,1.491
		c0.397-0.696,0.795-1.392,1.192-2.087c0.299-0.101,0.497-0.101,0.695-0.199C99.986,62.832,99.887,63.13,99.787,63.329z
		 M99.489,64.124c-0.199,0.497-0.397,1.095-0.597,1.592c-0.795,0.695-1.591,1.491-2.387,2.287c0.1-0.299,0.299-0.499,0.398-0.796
		C97.898,65.914,98.693,64.92,99.489,64.124z M70.359,101.903c-0.199-0.895-0.298-1.689-0.497-2.485
		c0.1-0.696,0.199-1.392,0.298-1.987c0.199,0.694,0.299,1.49,0.497,2.187c0,0.298,0,0.695-0.099,0.995
		C70.459,101.009,70.459,101.506,70.359,101.903z M71.154,72.575c0.497,1.391,1.094,2.884,1.591,4.375
		c-0.198,0.794-0.397,1.689-0.596,2.484c-0.398-0.993-0.896-1.889-1.293-2.685c0-0.198-0.1-0.396-0.1-0.497
		c0.1-1.093,0.198-2.087,0.397-3.181C71.056,72.873,71.056,72.675,71.154,72.575z M76.722,43.942
		c0.199-0.695,0.398-1.392,0.598-2.087c0.298,2.386,0.496,4.871,0.695,7.456c-0.397-1.691-0.796-3.38-1.293-5.07
		C76.722,44.042,76.722,43.942,76.722,43.942z M81.295,53.389c-0.198,0.297-0.396,0.596-0.596,0.894
		c0.199-1.292,0.397-2.684,0.596-3.977c0.101,0.497,0.199,0.994,0.299,1.491C81.494,52.395,81.396,52.892,81.295,53.389z
		 M84.079,62.435c0,0.198-0.1,0.397-0.1,0.597c-0.099-0.597-0.099-1.292-0.198-1.89c0-0.1,0.1-0.1,0.1-0.198
		C83.979,61.54,84.079,62.037,84.079,62.435z M74.535,97.23c-0.1-0.497-0.199-0.994-0.199-1.491c0.1-1.689,0.199-3.28,0.299-4.971
		v0.1c0,1.392,0,2.784,0,4.275C74.635,95.84,74.535,96.535,74.535,97.23z M79.207,81.721c0,0.299,0,0.598,0.1,0.896
		c0,0.597,0,1.094,0,1.69c-0.1-0.297-0.1-0.497-0.198-0.796C79.108,82.915,79.108,82.318,79.207,81.721z M81.494,82.318
		c-0.199-0.994-0.397-1.988-0.596-2.884c0-2.087,0-4.075,0-6.263c0.298,1.988,0.596,3.977,0.894,5.965
		C81.693,80.231,81.594,81.226,81.494,82.318z M69.663,90.073c0-0.896,0.1-1.79,0.1-2.586c0.1,0.697,0.199,1.293,0.299,1.89
		c-0.1,0.497-0.199,0.994-0.299,1.491C69.862,90.57,69.763,90.271,69.663,90.073z M70.757,93.155c0.1,0.596,0.198,1.292,0.299,1.889
		c0,0.1,0,0.299,0,0.397c-0.101-0.497-0.199-0.994-0.299-1.491C70.657,93.652,70.657,93.453,70.757,93.155z M78.811,93.155
		c-0.1-0.398-0.199-0.795-0.299-1.094c0-0.696,0.1-1.393,0.1-2.188c0.1,0.696,0.199,1.392,0.298,2.088c0,0.198,0,0.398,0,0.597
		S78.811,92.956,78.811,93.155z M83.085,68.997c-0.198,1.291-0.397,2.485-0.497,3.678c-0.397-2.387-0.796-4.772-1.192-7.158
		c0.497-0.994,0.994-1.89,1.491-2.685C82.985,64.82,83.085,66.81,83.085,68.997z M80.4,57.364c0.1-0.696,0.199-1.292,0.299-1.989
		c0.199-0.297,0.298-0.695,0.497-0.994c-0.298,1.293-0.497,2.686-0.696,3.978C80.4,58.159,80.4,57.763,80.4,57.364z M74.336,63.627
		c-0.397-1.391-0.795-2.783-1.192-4.075c0.198-1.094,0.397-2.286,0.596-3.381C74.038,58.558,74.236,61.042,74.336,63.627z
		 M74.236,67.803c-0.397,2.088-0.695,4.275-0.994,6.363c-0.596-1.591-1.093-3.181-1.789-4.672c0.397-2.586,0.795-5.071,1.193-7.656
		C73.242,63.826,73.839,65.815,74.236,67.803z M67.476,88.481c0,0.299,0,0.598-0.099,0.896c-0.795-2.783-1.591-5.269-2.485-7.456
		c0-1.192-0.1-2.486-0.1-3.68c0.895,2.685,1.79,5.568,2.585,8.452C67.476,87.289,67.476,87.885,67.476,88.481z M88.254,86.493
		c0.101-0.396,0.199-0.695,0.299-0.994c0-0.099,0.1-0.198,0.1-0.298c-0.1,0.597-0.298,1.192-0.398,1.789
		C88.354,86.792,88.354,86.594,88.254,86.493z M85.073,79.534c0-0.297,0-0.597,0-0.895c0.1-0.298,0.198-0.497,0.397-0.795
		C85.271,78.342,85.173,78.938,85.073,79.534z M84.974,57.662c-0.1,0.101-0.199,0.199-0.298,0.299
		c-0.1-0.397-0.199-0.796-0.199-1.193c0.497-1.192,0.994-2.387,1.392-3.579C85.57,54.68,85.271,56.171,84.974,57.662z
		 M83.682,59.354C83.582,59.354,83.582,59.354,83.682,59.354c-0.1,0-0.1,0-0.1-0.1c0,0,0-0.101,0.1-0.101
		C83.582,59.254,83.682,59.254,83.682,59.354z M81.991,55.575c0-0.299,0.1-0.497,0.1-0.796c0,0.099,0,0.299,0.1,0.397
		C82.091,55.276,81.991,55.375,81.991,55.575z M79.506,46.527c-0.199-2.088-0.397-4.274-0.695-6.363
		c0.496,1.393,0.894,2.884,1.292,4.574C79.903,45.335,79.704,45.932,79.506,46.527z M75.629,47.721
		c0.298,1.094,0.497,2.187,0.795,3.281c0.199,1.393,0.298,2.882,0.497,4.373c-0.298,1.194-0.596,2.486-0.895,3.68
		c-0.597-1.988-1.094-3.878-1.69-5.767c0.199-1.094,0.497-2.088,0.696-3.181C75.23,49.312,75.43,48.517,75.629,47.721z
		 M69.266,69.692c-0.298-1.094-0.497-2.188-0.795-3.281c0-0.298,0-0.497-0.1-0.795c0.397,0.795,0.696,1.69,1.093,2.585
		C69.365,68.698,69.365,69.195,69.266,69.692z M66.78,66.411L66.78,66.411c-0.198-0.695-0.397-1.392-0.597-1.988
		c0-0.1,0-0.198,0.1-0.299C66.482,64.92,66.681,65.616,66.78,66.411z M66.383,69.692c-0.298-0.299-0.597-0.695-0.795-0.994
		c0.099-0.497,0.198-0.994,0.198-1.491C65.984,68.102,66.184,68.896,66.383,69.692z M66.681,70.985
		c0.199,0.695,0.299,1.391,0.497,2.087c0.1,2.884,0.199,5.666,0.298,8.45c-0.795-2.684-1.59-5.27-2.584-7.953
		c0.199-1.491,0.397-2.883,0.696-4.274C65.886,69.791,66.283,70.388,66.681,70.985z M64.395,68.599c0-0.299,0-0.497-0.1-0.796
		c0.1,0.1,0.1,0.1,0.1,0.2C64.494,68.3,64.494,68.5,64.395,68.599z M69.663,108.167c0,0.099,0,0.099,0,0.198s0,0.1,0,0.2
		C69.663,108.365,69.663,108.266,69.663,108.167z M79.704,107.173c0.1-0.895,0.199-1.789,0.199-2.685
		c0.1,0.497,0.199,0.994,0.298,1.491l0,0c-0.099,0.696-0.198,1.392-0.397,2.089C79.804,107.769,79.704,107.471,79.704,107.173z
		 M91.437,96.634c-0.796,3.082-1.491,6.065-2.088,8.947c-0.1-3.081-0.199-5.964-0.398-8.848c1.094-11.433,3.778-20.38,6.86-27.239
		c0.994-1.393,1.988-2.586,3.082-3.679c-2.884,8.451-4.971,17.397-6.462,25.848C92.032,93.353,91.734,95.044,91.437,96.634z
		 M99.489,62.435c0.497-0.895,0.994-1.689,1.491-2.387c-0.299,0.697-0.597,1.492-0.896,2.288
		C99.986,62.336,99.787,62.336,99.489,62.435z M84.974,76.453c0-0.1,0-0.2,0-0.3c0.199-1.093,0.298-2.087,0.497-3.182
		c0.1,0.697,0.199,1.492,0.199,2.188C85.371,75.657,85.173,76.055,84.974,76.453z M78.611,37.48c0-0.099,0.1-0.199,0.1-0.299
		c0.298,1.094,0.695,2.288,0.993,3.381C79.406,39.47,79.009,38.475,78.611,37.48z M76.822,37.182
		c-0.3,0.697-0.497,1.491-0.796,2.188c-0.497-3.281-0.994-6.462-1.591-9.445c0.497,0.895,1.193,2.188,1.988,3.877
		C76.522,34.896,76.623,35.989,76.822,37.182z M69.862,65.517c-0.597-1.292-1.193-2.585-1.789-3.878
		c-0.1-1.689-0.299-3.28-0.398-4.871c0.398-2.187,0.896-4.373,1.293-6.363c0.795,2.188,1.591,4.474,2.286,6.761
		C70.757,59.851,70.26,62.633,69.862,65.517z M65.588,61.142c0,0.199-0.1,0.398-0.1,0.598c-0.796-2.784-1.591-5.27-2.387-7.557
		c0.498,0.994,1.094,2.088,1.591,3.281C64.991,58.656,65.289,59.949,65.588,61.142z M65.091,64.323
		c-0.199,1.094-0.398,2.188-0.497,3.281c-0.1-0.101-0.199-0.199-0.199-0.199c-0.199-2.982-0.497-5.865-0.795-8.648
		C64.097,60.645,64.594,62.435,65.091,64.323z M62.902,72.575c0,0.199,0,0.396,0,0.696c-0.099-0.398-0.099-0.696-0.198-1.094
		C62.804,72.276,62.902,72.475,62.902,72.575z M62.505,84.704c-0.397,4.274-0.795,8.352-1.094,12.229
		c-2.087-12.327-4.474-22.666-6.959-31.416c2.089,2.088,3.878,4.771,5.468,7.854C60.914,76.95,61.71,80.827,62.505,84.704z
		 M73.739,126.56C73.739,126.659,73.739,126.659,73.739,126.56c0,0.198,0,0.298,0,0.398
		C73.739,126.857,73.739,126.758,73.739,126.56z M86.565,118.009c0-0.497,0-0.895,0-1.392c0.099,0.994,0.099,1.988,0.197,2.883
		c0,0,0,0,0,0.1C86.664,119.003,86.664,118.506,86.565,118.009z M101.875,63.627c0.397-0.198,0.796-0.497,1.192-0.695
		c-1.689,3.58-3.181,7.158-4.572,10.936C99.589,70.288,100.682,66.81,101.875,63.627z M103.863,53.686
		c-0.198,0.397-0.299,0.796-0.497,1.192c-0.299,0.598-0.597,1.293-0.895,1.89c-0.896,0.995-1.79,1.989-2.585,2.983
		C101.576,56.967,102.969,54.979,103.863,53.686z M86.763,70.985c-0.197-1.194-0.298-2.287-0.497-3.381
		c0.797-4.673,1.69-9.146,2.486-13.123c0.497-0.598,0.994-1.193,1.491-1.59c-0.795,3.876-1.491,8.052-2.188,12.426
		C87.658,67.007,87.161,68.896,86.763,70.985z M90.343,52.395c-0.497,0.396-0.895,0.794-1.393,1.191
		c1.193-5.667,2.387-10.538,3.38-14.216c0.696-1.393,1.393-2.685,1.89-3.778C92.928,40.463,91.535,46.129,90.343,52.395z
		 M82.488,47.521c-0.099-0.597-0.298-1.093-0.397-1.689c0.1-0.695,0.199-1.393,0.397-2.088c0.896-2.584,1.69-4.972,2.585-7.158
		C84.179,40.065,83.384,43.646,82.488,47.521z M81.594,40.762c-0.198,0.497-0.397,0.896-0.497,1.393
		c-0.696-2.287-1.293-4.275-1.89-6.165c3.48-10.24,7.258-16.901,9.545-20.678C86.465,21.375,83.979,29.727,81.594,40.762z
		 M75.728,28.633c0.199,1.192,0.299,2.385,0.497,3.578c-0.596-0.993-1.192-1.988-1.889-2.784c-0.397-2.285-0.895-4.473-1.392-6.659
		C73.938,24.656,74.833,26.544,75.728,28.633z M73.641,31.417c0.298,1.491,0.497,3.081,0.795,4.672
		c-0.397-1.192-0.696-2.387-1.094-3.479C73.441,32.112,73.541,31.714,73.641,31.417z M72.447,35.989
		c0.696,2.485,1.491,5.07,2.188,7.755c-0.398,1.491-0.896,2.982-1.293,4.474c-0.597-2.883-1.292-5.566-1.988-8.054
		C71.751,38.574,72.149,37.182,72.447,35.989z M70.955,41.657c0.498,1.689,0.896,3.479,1.393,5.466
		c-0.497-1.491-1.094-2.982-1.591-4.373C70.856,42.353,70.955,42.054,70.955,41.657z M70.459,43.844
		c0.795,2.386,1.491,4.772,2.188,7.356c-0.299,1.393-0.597,2.684-0.896,4.076c-0.796-2.385-1.591-4.474-2.386-6.363
		C69.763,47.123,70.062,45.435,70.459,43.844z M66.283,43.744c0.696,1.491,1.293,2.982,1.988,4.474
		c-0.298,1.393-0.695,2.784-0.994,4.177C66.979,49.41,66.681,46.527,66.283,43.744z M61.411,45.632
		c0.696,2.387,1.393,4.772,2.089,7.26c-0.299-0.598-0.696-1.095-0.995-1.691C62.207,49.312,61.81,47.521,61.411,45.632z
		 M59.423,46.626c-0.596-0.794-1.192-1.689-1.889-2.485c0,0,1.094,1.592,2.685,4.574c0.597,1.591,1.192,3.281,1.79,4.971
		c0.496,3.679,0.795,7.854,0.894,12.329c-0.397-0.398-0.795-0.697-1.192-0.995c0.397,0.397,0.795,0.696,1.192,1.094
		c0,0.696,0,1.391,0,2.187c-0.397-0.993-0.795-1.987-1.192-2.982c0-0.099,0-0.199-0.1-0.298l0,0l0,0
		c-1.59-9.147-3.777-18.492-6.661-27.439C56.541,40.265,58.032,43.347,59.423,46.626z M59.423,63.728
		c0.299,0.596,0.598,1.292,0.796,1.988c0.597,2.982,1.094,5.965,1.491,9.046c-0.198-0.396-0.497-0.796-0.696-1.192
		c-1.094-4.176-2.286-7.655-3.38-10.638C58.33,63.23,58.827,63.429,59.423,63.728z M56.839,62.633
		c0.895,2.586,1.69,5.27,2.485,8.054c-1.591-2.287-3.28-4.175-4.872-5.568c-0.298-1.093-0.597-2.187-0.994-3.28
		C54.552,62.037,55.646,62.236,56.839,62.633z M52.266,61.938c0.198,0.695,0.298,1.293,0.497,1.988
		c-0.896-0.695-1.89-1.293-2.784-1.79C50.575,61.938,51.37,61.938,52.266,61.938z M48.984,61.938c0.1,0,0.199,0.1,0.299,0.1
		c-0.1,0-0.199,0-0.299,0.099C49.084,62.037,48.984,62.037,48.984,61.938z M49.481,62.136c1.094,0.497,2.188,0.994,3.281,1.79
		c2.088,8.152,3.778,16.803,5.27,24.954c-2.188-8.648-5.071-17.995-8.948-26.644C49.184,62.136,49.382,62.136,49.481,62.136z
		 M64.097,115.821c0.198-2.385,0.298-5.269,0.497-8.55c0.099,3.878,0.099,7.854-0.1,11.831
		C64.395,118.009,64.295,116.916,64.097,115.821z M65.091,124.57c0.099,0,0.198,0,0.397,0c0,1.194,0,2.486,0,3.679
		C65.289,127.057,65.189,125.765,65.091,124.57z M74.038,131.53c-0.1-1.392-0.199-2.784-0.299-4.075
		c0.1,0.396,0.398,1.291,0.994,0.794C74.535,129.343,74.236,130.438,74.038,131.53z M89.547,127.255L89.547,127.255
		C89.547,127.255,89.547,127.354,89.547,127.255C89.547,127.354,89.547,127.354,89.547,127.255z M112.91,61.639
		c-4.871,4.376-9.146,13.521-12.726,23.961c2.088-8.85,4.772-16.901,8.352-22.668c0.696,0.198,1.392,0.497,2.088,0.796
		c0,0-0.796-0.398-2.088-0.896c0.397-0.596,0.696-1.093,1.094-1.59C110.724,61.341,111.916,61.44,112.91,61.639z M109.431,61.44
		c-0.298,0.299-0.695,0.796-1.192,1.491c-0.199-0.1-0.298-0.1-0.497-0.1c0.199,0.1,0.298,0.1,0.497,0.199
		c-2.387,3.48-7.258,12.428-11.235,32.907c-1.988,6.86-3.678,13.72-4.971,19.883c0.298-8.947,1.293-17.298,2.585-24.853
		c3.281-11.234,7.059-20.879,10.539-28.534c0.994,0.1,1.889,0.299,2.684,0.497c-0.894-0.299-1.789-0.497-2.684-0.596l0,0
		C106.647,61.639,108.138,61.44,109.431,61.44z M103.466,62.236c-0.1,0.198-0.1,0.298-0.199,0.396
		c-0.397,0.199-0.894,0.497-1.292,0.696c0.099-0.397,0.298-0.795,0.398-1.093C102.671,62.236,103.067,62.236,103.466,62.236z"/>
	<path fill="#010101" d="M47.295,62.633c-1.691,0.497-2.784,1.193-2.784,1.193C45.505,63.329,46.399,62.932,47.295,62.633z"/>
	<path fill="#010101" d="M114.104,61.938c0.896,0.299,1.789,0.597,2.784,1.094C116.888,63.031,115.794,62.435,114.104,61.938z"/>
	<path fill="#010101" d="M65.984,2.485c-0.099-0.198-0.198-0.299-0.198-0.299C65.886,2.287,65.886,2.386,65.984,2.485z"/>
	<path fill="#010101" d="M38.745,61.639c-1.691,0.497-2.784,1.193-2.784,1.193C36.955,62.336,37.85,61.938,38.745,61.639z"/>
</g>
</svg>
