<?xml version="1.0" encoding="utf-8"?>
<!-- Generator: Adobe Illustrator 16.0.0, SVG Export Plug-In . SVG Version: 6.00 Build 0)  -->
<!DOCTYPE svg PUBLIC "-//W3C//DTD SVG 1.1//EN" "http://www.w3.org/Graphics/SVG/1.1/DTD/svg11.dtd">
<svg version="1.1" id="_x35_0m" xmlns="http://www.w3.org/2000/svg" xmlns:xlink="http://www.w3.org/1999/xlink" x="0px" y="0px"
	 width="144px" height="144px" viewBox="0 0 144 144" enable-background="new 0 0 144 144" xml:space="preserve">
<g>
	<path fill="#010101" d="M142.699,74.462c-17.813-7.535-29.985,0.802-31.37,1.828c-4.354,2.398-13.36,2.968-17.813,2.968
		l4.948-7.077l5.74-0.572c0.495,0,0.891-0.571,0.792-1.142c0-0.57-0.495-1.029-0.99-0.913l-4.057,0.343l3.167-4.453
		c0.296-0.456,0.296-1.143-0.1-1.485c-0.395-0.343-0.989-0.343-1.286,0.115l-2.474,3.996l-3.563-3.881
		c-0.396-0.344-0.891-0.344-1.287,0c-0.396,0.456-0.297,1.025,0,1.483l3.562,3.996l-0.395,0.569
		c-0.396,0.115-0.594,0.458-0.594,0.914l-5.74,8.106c-0.198,0-0.297,0-0.297,0c-0.296,0-0.396,0-0.593,0.115
		c-4.553,1.94-9.5,6.851-12.766,10.504c-1.682-5.594-5.245-10.276-10.688-13.93c0-2.512,0.297-6.279,1.088-9.819h12.073l3.563,3.882
		c0.198,0.228,0.396,0.228,0.594,0.228c0.197,0,0.495-0.114,0.594-0.341c0.395-0.459,0.296-1.027,0-1.484l-2.178-2.398h2.771
		c0.496,0,0.891-0.458,0.891-1.026c0-0.572-0.395-1.029-0.891-1.029H68.579c1.188-3.882,3.266-7.193,6.829-7.764h18.604
		c0.396,0,0.692-0.113,0.989-0.343c0.199-0.115,2.178-1.827,5.146-5.938h10.886l3.661,6.395c0.198,0.343,0.496,0.456,0.792,0.456
		c0.198,0,0.396,0,0.495-0.229c0.395-0.342,0.495-0.914,0.197-1.369l-2.969-5.253H114l0,0l0,0h5.839
		c0.495,0,0.891-0.457,0.891-1.029c0-0.568-0.396-1.025-0.891-1.025h-4.354l2.276-4.91c0.198-0.458,0.1-1.142-0.396-1.371
		c-0.495-0.228-0.99-0.113-1.188,0.456l-2.771,5.825h-11.875c2.574-3.885,5.641-9.364,8.708-17.015
		c0.199-0.456,5.542-10.162,24.641-2.969c0.989,0.343,1.979-0.228,2.275-1.37c0.297-1.142-0.198-2.283-1.187-2.624
		c-18.308-6.852-25.829,0.568-28.105,3.651c-0.989-1.142-2.869-3.425-6.135-7.764l2.87-4.566l8.807-1.828
		c0.496-0.113,0.792-0.687,0.693-1.142c-0.1-0.571-0.594-0.912-0.99-0.799l-6.927,1.484l0.297-0.456l0,0l4.354-6.853
		c0.297-0.457,0.198-1.141-0.198-1.482c-0.396-0.343-0.989-0.23-1.287,0.228l-3.563,5.595l-2.375-5.595
		c-0.198-0.458-0.791-0.686-1.187-0.458c-0.396,0.23-0.594,0.914-0.396,1.371l2.969,6.279l-1.287,2.055l0,0l-2.87,4.453
		c-2.87-3.882-5.938-7.992-8.412-11.418l2.574-5.137C95,1.045,94.902,0.359,94.506,0.13c-0.396-0.229-0.99-0.114-1.187,0.343
		l-2.276,4.454c-1.979-2.74-3.365-4.567-3.365-4.567c-0.296-0.458-0.891-0.458-1.286-0.114c-0.396,0.342-0.396,1.026-0.1,1.483
		c0,0,1.88,2.512,4.453,6.051l-3.562-0.684c-0.495-0.115-0.99,0.343-0.99,0.914c0,0.569,0.297,1.142,0.792,1.142l5.64,1.028
		c1.287,1.71,2.574,3.538,3.958,5.366l-9.005,5.252l-0.099-0.115L81.74,17.6c-0.396-0.228-0.99,0-1.188,0.456
		c-0.198,0.458,0,1.144,0.396,1.371L85.6,21.94l-3.76,2.168c-0.396,0.229-0.594,0.914-0.396,1.371
		c0.197,0.342,0.495,0.568,0.791,0.568c0.1,0,0.296,0,0.396-0.112l6.037-3.539l-0.792,5.137c-0.1,0.572,0.198,1.142,0.692,1.142
		c0.099,0,0.099,0,0.198,0c0.396,0,0.792-0.342,0.89-0.799l1.088-6.737l7.026-4.108c0.793,1.025,1.584,2.169,2.375,3.195
		c3.761,5.023,5.838,7.537,6.927,8.792c-1.483,3.54-2.869,6.623-4.255,9.25H88.272l-3.167-5.71c-0.296-0.457-0.792-0.57-1.188-0.343
		s-0.593,0.914-0.296,1.37l2.573,4.567h-5.542c-0.495,0-0.891,0.457-0.891,1.028c0,0.569,0.396,1.027,0.891,1.027h2.771
		l-3.365,3.884c-0.396,0.455-0.396,1.026,0,1.483c0.198,0.227,0.396,0.343,0.594,0.343s0.494-0.116,0.594-0.343l4.651-5.253h1.879
		l0,0l0,0h13.954c-3.859,6.852-7.026,10.276-8.115,11.304H75.407c-0.198,0-0.297,0.115-0.396,0.115l-10.49-9.934l1.583-3.655
		c0.198-0.456,0-1.142-0.396-1.368c-0.396-0.229-0.989,0-1.188,0.457l-1.386,3.195l-2.375-2.284
		c-0.396-0.343-0.99-0.343-1.287,0.115c-0.296,0.456-0.296,1.142,0.099,1.482l3.761,3.655l-3.365,0.914
		c-0.495,0.115-0.791,0.684-0.692,1.255c0.099,0.458,0.495,0.8,0.89,0.8c0.1,0,0.1,0,0.198,0l4.75-1.256l7.719,7.422
		c-7.125,3.082-8.906,14.157-9.204,20.896c-0.593-0.229-1.088-0.572-1.682-0.914c-0.099-0.114-0.297-0.114-0.396-0.228
		c-0.396-0.113-5.542-1.713-10.292-7.423l4.255-5.937l7.422,1.027h0.099c0.396,0,0.792-0.343,0.891-0.914
		c0.099-0.57-0.297-1.026-0.792-1.142l-6.432-0.571l4.058-5.709c0.296-0.456,0.296-1.143-0.099-1.483
		c-0.396-0.343-0.99-0.343-1.287,0.114l-2.474,3.425l-3.068-5.48c-0.297-0.458-0.792-0.685-1.188-0.342
		c-0.396,0.342-0.594,0.912-0.297,1.368l3.365,6.167l-5.74,8.107c-3.266-4.454-6.135-10.962-7.125-20.439
		c3.167-0.799,8.214-3.425,15.141-11.305c0.099-0.114,0.198-0.227,0.296-0.456c0.1-0.229,3.068-5.595,14.053-3.539
		c0.989,0.227,1.879-0.57,2.078-1.715c0.198-1.141-0.495-2.166-1.484-2.396c-2.671-0.456-4.948-0.571-6.927-0.456l1.979-8.335
		l6.037-2.74c0.495-0.23,0.692-0.799,0.495-1.371c-0.198-0.569-0.693-0.799-1.188-0.569l-4.75,2.169l1.287-5.368
		c0.099-0.57-0.198-1.143-0.594-1.255c-0.495-0.115-0.99,0.229-1.088,0.685L67.49,9.493l-3.86-2.969
		c-0.395-0.343-0.989-0.228-1.187,0.343c-0.297,0.456-0.198,1.143,0.297,1.37l4.354,3.311l-2.771,11.761
		c-5.74,1.029-8.115,4.454-8.708,5.481c-0.693,0.684-1.286,1.484-1.88,2.055L43.74,18.286l2.474-6.396
		c0.198-0.568,0-1.141-0.495-1.369c-0.396-0.229-0.99,0-1.188,0.57l-2.474,5.823l-2.078-2.625c-0.297-0.458-0.891-0.458-1.287-0.115
		s-0.396,1.029-0.099,1.485l2.969,3.768l0,0l1.188,1.485l-7.125,1.142c-0.495,0.112-0.792,0.569-0.792,1.142
		c0.099,0.456,0.396,0.913,0.891,0.913h0.099l7.818-1.256c0.198,0,0.297-0.115,0.396-0.229l7.818,9.819
		c-4.552,4.568-7.917,6.167-9.797,6.624c-1.188-3.311-5.641-12.332-22.563-20.78c-1.682-0.799-3.563,0-4.354,1.939
		c-0.693,1.94,0,4.112,1.682,5.023c2.97,1.485,5.542,2.97,7.621,4.455l-9.401,7.307c-0.396,0.343-0.495,0.915-0.198,1.371
		c0.198,0.342,0.494,0.457,0.792,0.457c0.198,0,0.396,0,0.495-0.229l10.094-7.879c7.521,5.481,9.401,10.048,9.698,10.962
		c0.396,6.28,1.583,11.533,3.266,15.987H28.896l-4.256-6.853l2.079-3.769c0.297-0.455,0.198-1.141-0.297-1.369
		c-0.396-0.344-0.99-0.229-1.188,0.343l-1.781,3.083l-0.099-0.114l0,0l-1.88-2.969c-0.297-0.458-0.792-0.572-1.287-0.23
		c-0.395,0.343-0.494,0.914-0.197,1.485l1.088,1.714l-4.057,1.025c-0.495,0.116-0.792,0.687-0.693,1.259
		c0.099,0.456,0.494,0.799,0.89,0.799c0.099,0,0.099,0,0.198,0l5.047-1.257l4.354,7.079H15.834c-0.496,0-0.891,0.456-0.891,1.028
		c0,0.569,0.395,1.027,0.891,1.027h24.344c1.781,4.111,3.958,7.535,6.135,10.161h-10.49c-0.495,0-0.891,0.458-0.891,1.028
		s0.396,1.029,0.891,1.029h12.271c5.146,5.252,10.192,7.307,11.479,7.764c6.631,3.196,10.787,7.535,12.172,13.017
		c0.692,2.513,0.692,5.138,0.396,7.536c-3.86-1.485-10.688-4.225-17.021-6.738l-2.078-14.957c-0.099-0.57-0.495-0.912-0.989-0.912
		c-0.495,0.113-0.792,0.569-0.792,1.142l1.979,13.815c-5.244-2.054-9.995-3.882-12.271-4.795c-0.197-0.115-3.166-1.713-8.213-2.854
		l-4.75-12.79l2.969-2.627c0.396-0.343,0.495-1.025,0.198-1.482c-0.297-0.458-0.891-0.571-1.287-0.229l-2.573,2.283l-0.396-1.142
		c-0.198-0.572-0.692-0.799-1.188-0.572c-0.494,0.23-0.692,0.799-0.494,1.371l1.386,3.538l-3.959-1.367
		c-0.495-0.23-0.99,0.113-1.088,0.683c-0.198,0.572,0.099,1.144,0.594,1.258l5.442,1.941l3.167,8.563
		c-3.364-0.57-7.521-0.913-12.271-0.457c-0.495,0-0.891,0.573-0.792,1.142c0,0.572,0.495,1.029,0.989,0.914
		c5.146-0.457,9.5,0,13.063,0.687L18.11,97.414c-0.396,0.343-0.495,0.913-0.198,1.371c0.198,0.342,0.495,0.456,0.791,0.456
		c0.198,0,0.396,0,0.495-0.229l15.141-11.646c3.859,1.027,6.136,2.285,6.235,2.285c1.088,0.456,2.771,1.025,4.75,1.825
		l-9.698,10.049c-0.396,0.344-0.396,1.028-0.099,1.485c0.198,0.227,0.396,0.341,0.692,0.341c0.198,0,0.396-0.114,0.594-0.228
		l10.391-10.732c7.917,3.083,19.396,7.649,24.838,9.819c-1.088,4.909-3.265,8.678-3.265,8.678c-0.297,0.455-0.396,0.913-0.495,1.369
		c-0.396,2.284-0.495,5.71-0.593,9.592l-17.021-1.027l-2.177-11.761l4.849-1.255c0.495-0.115,0.792-0.687,0.692-1.257
		c-0.099-0.571-0.594-0.913-1.088-0.799l-4.849,1.254l-0.297-1.598c-0.099-0.57-0.594-0.911-1.088-0.799
		c-0.495,0.115-0.792,0.684-0.693,1.255l0.792,4.685l-4.057-3.087c-0.396-0.341-0.99-0.227-1.188,0.346
		c-0.297,0.456-0.198,1.141,0.297,1.369l5.146,3.881c0.099,0.115,0.297,0.115,0.495,0.115l1.386,7.537l-11.281-1.029
		c-0.891-0.913-3.958-3.652-10.49-6.623l2.375-10.046c0.099-0.572-0.198-1.142-0.593-1.258c-0.495-0.114-0.99,0.229-1.089,0.686
		l-2.375,9.819c-4.651-1.94-10.787-3.768-18.901-5.023l-0.693-4.681c-0.297-0.572-0.792-0.915-1.286-0.915
		c-0.495,0.114-0.792,0.687-0.693,1.142l0.594,4.112c-1.089-0.23-2.276-0.343-3.463-0.458c-0.496,0-0.891,0.344-0.99,0.914
		c0,0.572,0.297,1.027,0.792,1.142c5.443,0.686,10.193,1.598,14.25,2.627l-2.671,2.283l0,0l-1.98,1.713l-4.75-0.914
		c-0.495-0.113-0.99,0.229-0.99,0.799c-0.099,0.573,0.198,1.142,0.692,1.142l3.068,0.572l-2.672,2.284
		c-0.396,0.342-0.495,1.026-0.198,1.484c0.198,0.229,0.396,0.456,0.693,0.456c0.197,0,0.396-0.114,0.593-0.228l4.75-4.227
		l-0.792,5.825c-0.099,0.57,0.297,1.14,0.792,1.14h0.099c0.396,0,0.792-0.342,0.891-0.913l1.088-7.992l3.562-3.083
		c9.402,2.74,14.745,6.053,17.318,7.994l-10.391,7.079c-0.396,0.227-0.594,0.913-0.296,1.369c0.198,0.343,0.495,0.456,0.791,0.456
		c0.198,0,0.297,0,0.495-0.113l11.083-7.535c0.198,0.113,0.198,0.228,0.297,0.228c0.197,0.229,0.395,0.229,0.593,0.342l30.38,2.628
		c0,7.421,0.396,15.186,0.495,16.555c0.1,2.058,1.584,3.54,3.266,3.54c0.099,0,0.099,0,0.198,0c1.782-0.115,3.167-1.941,3.068-3.995
		c-0.298-5.367-0.891-19.983-0.198-25.577c0.198-0.458,0.495-0.915,0.792-1.6c1.683,0,3.958,0,6.828,0l14.349,13.359
		c0.197,0.115,0.396,0.228,0.593,0.228c0.298,0,0.496-0.112,0.694-0.456c0.296-0.456,0.197-1.142-0.198-1.484l-12.567-11.419
		c13.952,0.115,35.822,0.799,43.443,4.684c0.297,0.113,0.593,0.228,0.89,0.228c0.792,0,1.683-0.569,1.979-1.485
		c0.495-1.255,0-2.739-1.088-3.311c-2.672-1.37-6.927-2.397-11.875-3.084l8.313-5.709l4.948,2.056c0.099,0,0.198,0,0.297,0
		c0.396,0,0.692-0.229,0.791-0.684c0.199-0.571-0.099-1.143-0.495-1.372l-3.563-1.483l1.188-0.8
		c0.396-0.227,0.593-0.913,0.296-1.369c-0.198-0.457-0.792-0.686-1.188-0.343l-2.375,1.598l-0.297-0.112
		c-0.495-0.23-0.99,0.112-1.187,0.569c0,0.115,0,0.342,0,0.457l-0.198,0.115l-2.474-5.711c-0.198-0.456-0.792-0.684-1.188-0.456
		c-0.396,0.229-0.594,0.914-0.396,1.37l2.573,5.709l-7.917,5.366c-7.025-0.913-15.24-1.256-22.463-1.482l6.631-9.593l6.135,1.028
		h0.098c0.396,0,0.792-0.342,0.891-0.914c0.1-0.57-0.296-1.141-0.792-1.141l-5.046-0.802l0.495-0.799
		c0.296-0.456,0.198-1.142-0.1-1.485c-0.395-0.342-0.989-0.227-1.286,0.115l-2.87,4.225l-3.761-5.023
		c-0.296-0.456-0.891-0.456-1.286-0.115c-0.396,0.344-0.396,1.029-0.1,1.485l3.959,5.366l-5.245,7.537
		c-5.344-0.114-10.093-0.114-13.359,0c1.188-3.769,2.177-8.563,1.583-13.59c2.672-3.195,8.016-9.132,12.667-11.188
		c2.375,0,15.734,0,21.968-3.655c0.198-0.112,1.683-1.255,4.354-2.282l4.157,3.996l-10.787,10.62
		c-0.396,0.343-0.396,1.025-0.099,1.482c0.198,0.228,0.396,0.343,0.692,0.343c0.199,0,0.396-0.115,0.594-0.228l11.084-10.848
		l10.39,9.706c0.198,0.113,0.397,0.228,0.594,0.228c0.297,0,0.495-0.114,0.693-0.341c0.297-0.459,0.297-1.142-0.099-1.486
		l-15.042-14.043c4.949-1.484,12.469-2.284,21.771,1.598c0.891,0.344,1.979-0.113,2.276-1.256
		C144.084,75.947,143.688,74.806,142.699,74.462z"/>
</g>
</svg>
