<?xml version="1.0" encoding="utf-8"?>
<!-- Generator: Adobe Illustrator 16.0.0, SVG Export Plug-In . SVG Version: 6.00 Build 0)  -->
<!DOCTYPE svg PUBLIC "-//W3C//DTD SVG 1.1//EN" "http://www.w3.org/Graphics/SVG/1.1/DTD/svg11.dtd">
<svg version="1.1" id="_x35_0m" xmlns="http://www.w3.org/2000/svg" xmlns:xlink="http://www.w3.org/1999/xlink" x="0px" y="0px"
	 width="144px" height="144px" viewBox="0 0 144 144" enable-background="new 0 0 144 144" xml:space="preserve">
<g>
	<path fill="#75C044" d="M71.902,79.544c0.91-2.528,1.82-4.954,2.73-7.482c2.224,5.358,3.741,10.921,5.257,16.481
		c3.235,12.031,5.561,24.165,7.179,36.501c0.101,0.605-0.101,1.516,0.91,1.516c1.618,0,3.236,0,4.954,0
		c0.506,0,0.809-0.303,0.91-0.808c0.505-2.832,0.91-5.663,1.416-8.494c4.146-23.457,11.022-45.803,25.683-65.014
		c2.426-3.134,5.156-5.965,7.987-8.696c1.012-0.909,2.022-1.415,3.134-0.605c1.213,0.809,0.91,2.022,0.404,3.235
		c-0.505,1.112-1.011,2.124-1.517,3.236c-0.304,0.101-0.708,0.202-1.01,0.506c-5.157,6.167-9.504,12.94-13.044,20.12
		c-4.55,9.201-7.988,18.806-10.717,28.815c-2.224,8.393-3.843,16.886-5.258,25.479c-0.303,1.82,0.203,2.63,2.326,2.63
		c4.651-0.101,9.202,0,13.853,0c1.517,0.1,1.112-1.012,1.213-1.82c2.022-13.043,5.359-25.783,11.628-37.513
		c2.932-5.459,6.369-10.413,10.818-14.66c0.708-0.708,1.517-1.719,2.628-0.91c1.213,0.81,0.303,1.82,0,2.73
		c-0.708,1.82-1.517,3.639-2.326,5.561c-0.708,0-1.011,0.607-1.314,1.012c-1.416,2.224-2.932,4.449-4.146,6.775
		c-6.167,11.626-9.303,24.265-11.425,37.207c-0.203,1.314,0.505,1.518,1.517,1.518c2.629,0,5.358,0,7.988,0.101
		c2.022,0,4.043,0.1,6.066,0.1c1.416,0,2.528,0.607,2.528,2.225c0,1.517-1.112,2.226-2.528,2.327c-0.708,0-1.314,0-2.023,0
		c-43.679,0-87.459,0-131.139,0c-0.91,0-1.82-0.102-2.629-0.203c-1.213-0.202-1.82-0.91-1.82-2.123c0-1.314,0.809-2.123,2.023-2.226
		c1.517-0.1,3.134-0.1,4.651,0c1.213,0,1.719-0.2,1.618-1.616c-0.505-17.393-3.033-34.379-9.807-50.555
		c-0.405-0.911-1.113-2.022-0.102-2.832c1.214-0.909,2.022,0.202,2.832,1.012c2.123,2.122,4.246,4.146,5.662,6.773
		c0.303,2.932,1.517,5.562,2.225,8.393c3.134,12.031,4.954,24.267,4.954,36.703c0,1.415,0.404,2.022,1.921,1.922
		c2.629-0.102,5.258,0,7.785,0c1.719,0,1.012-1.316,1.012-2.023c-0.101-7.481-0.505-15.064-1.314-22.546
		c-1.719-16.381-4.955-32.457-10.617-48.028c-0.91-2.628-2.022-5.156-3.033-7.684c-0.505-1.314-1.214-2.63,0.303-3.641
		c1.416-1.011,2.428,0.101,3.539,1.011c1.416,1.213,2.528,2.63,3.741,4.045c0.101,2.729,1.618,5.056,2.427,7.583
		c3.741,11.224,6.572,22.548,8.393,34.275c1.213,8.19,2.224,16.381,2.527,24.672c0.101,3.538,0.708,7.077,0.506,10.718
		c-0.101,1.011,0.303,1.517,1.416,1.517c4.752,0,9.504,0,14.257,0c1.011,0,1.516-0.506,1.213-1.314
		c-0.809-2.832-0.101-5.764-0.505-8.696c-0.505-7.685-0.809-15.268-1.618-22.951c-2.73-26.289-8.19-51.972-18.706-76.338
		c-0.101-0.304-0.303-0.709-0.404-1.011c-0.404-1.215-0.303-2.428,0.809-3.236c1.113-0.809,2.427-0.809,3.539,0.102
		c0.809,0.707,1.719,1.415,2.326,2.426c-0.101,1.215,0.404,2.124,0.809,3.235C37.929,22.62,39.547,26.26,40.861,30
		c5.157,15.166,8.999,30.637,11.527,46.511c1.517,10.01,2.629,20.121,3.337,30.232c0.404,5.864,0.91,11.728,0.505,17.592
		c-0.203,2.124,0.708,2.63,2.629,2.529c6.572-0.102,13.144,0,19.615,0c2.932,0,3.134-0.305,2.73-3.236
		c-1.416-10.01-3.336-19.816-5.663-29.626C74.531,88.947,72.813,84.297,71.902,79.544z"/>
	<path fill="#8FC857" d="M71.902,79.544c0.809,4.854,2.528,9.403,3.64,14.155c2.224,9.807,4.247,19.615,5.663,29.625
		c0.404,2.933,0.202,3.235-2.73,3.235c-6.572,0-13.145-0.101-19.615,0c-2.022,0-2.832-0.404-2.629-2.526
		c0.405-5.865-0.101-11.729-0.505-17.594c-0.708-10.111-1.82-20.12-3.337-30.232c-2.426-15.873-6.269-31.344-11.527-46.509
		c-1.213-3.742-2.831-7.281-4.347-11.022c-0.405-1.011-1.011-2.021-0.809-3.235c6.673,5.764,11.729,12.841,16.481,20.121
		c8.19,12.84,14.054,26.794,18.806,41.353C71.195,77.925,71.599,78.735,71.902,79.544z"/>
	<path fill="#8FC857" d="M95.157,117.156c-0.505,2.831-0.91,5.662-1.416,8.493c-0.101,0.506-0.404,0.81-0.91,0.81
		c-1.617,0-3.235,0-4.954,0c-1.011,0-0.809-0.81-0.91-1.517c-1.618-12.335-3.943-24.468-7.179-36.501
		c-1.517-5.561-3.034-11.122-5.258-16.481c7.583-21.838,18.3-41.858,35.287-57.936c0.101-0.101,0.203-0.202,0.304-0.302
		c1.213-1.215,2.628-1.922,4.145-0.709c1.518,1.112,1.213,2.529,0.506,4.044c-3.235,7.18-5.865,14.661-8.19,22.144
		c-4.752,15.772-7.988,31.85-9.909,48.229c-1.112,9.1-1.82,18.199-2.124,27.299C94.652,115.539,94.146,116.55,95.157,117.156z"/>
	<path fill="#8FC857" d="M49.86,116.55c0.404,2.832-0.303,5.764,0.505,8.696c0.202,0.909-0.303,1.313-1.213,1.313
		c-4.752,0-9.504,0-14.257,0c-1.112,0-1.517-0.506-1.415-1.516c0.303-3.54-0.304-7.077-0.506-10.718
		c-0.303-8.291-1.314-16.481-2.527-24.67c-1.719-11.731-4.551-23.054-8.393-34.277c-0.809-2.527-2.326-4.854-2.427-7.583
		c4.955,4.752,8.696,10.515,12.032,16.481c8.695,15.468,13.75,32.151,17.087,49.442C48.849,114.729,48.344,116.045,49.86,116.55z"/>
	<path fill="#8FC857" d="M117.099,126.661c-4.651,0-9.201-0.202-13.853,0c-2.123,0.102-2.628-0.708-2.326-2.628
		c1.416-8.595,2.932-17.089,5.258-25.48c2.628-9.908,6.167-19.615,10.717-28.816c3.54-7.18,7.887-13.953,13.044-20.12
		c0.201-0.202,0.606-0.304,1.01-0.506c-2.528,7.178-5.055,14.459-6.875,21.839c-3.235,13.145-5.258,26.492-6.167,40.04
		C117.401,116.246,117.604,121.403,117.099,126.661z"/>
	<path fill="#8FC857" d="M133.782,126.56c-2.629,0-5.359-0.101-7.988-0.101c-1.011,0-1.719-0.202-1.517-1.517
		c2.123-12.942,5.257-25.479,11.425-37.208c1.213-2.326,2.73-4.551,4.146-6.774c0.303-0.506,0.505-1.113,1.314-1.011
		c-1.517,5.763-3.337,11.525-4.55,17.39C134.894,107.046,133.882,116.752,133.782,126.56z"/>
	<path fill="#8FC857" d="M26.1,126.56c-2.629,0-5.258-0.101-7.785,0c-1.517,0-1.921-0.506-1.921-1.921
		c0.101-12.437-1.82-24.67-4.954-36.703c-0.708-2.831-1.921-5.459-2.224-8.392c4.246,5.055,6.976,11.021,9.302,17.088
		C22.46,106.338,24.785,116.348,26.1,126.56z"/>
</g>
</svg>
