<?xml version="1.0" encoding="utf-8"?>
<!-- Generator: Adobe Illustrator 16.0.0, SVG Export Plug-In . SVG Version: 6.00 Build 0)  -->
<!DOCTYPE svg PUBLIC "-//W3C//DTD SVG 1.1//EN" "http://www.w3.org/Graphics/SVG/1.1/DTD/svg11.dtd">
<svg version="1.1" id="_x35_0m" xmlns="http://www.w3.org/2000/svg" xmlns:xlink="http://www.w3.org/1999/xlink" x="0px" y="0px"
	 width="144px" height="144px" viewBox="0 0 144 144" enable-background="new 0 0 144 144" xml:space="preserve">
<g>
	<path id="hassock_x5F_2_1_" fill="#010101" d="M126.675,52.974c-0.701-2.402-1.001-4.907-1.102-7.411
		c-0.1-2.402-0.1-4.806-0.4-7.108c0.601-0.902,1.102-1.704,1.802-2.504c-0.601,0.8-1.202,1.602-1.802,2.504c0-0.101,0-0.201,0-0.301
		c-0.201-1.303-0.401-2.504-0.901-3.705c-0.1-0.301-0.201-0.602-0.301-0.902l-0.1-0.299c-0.1-0.101-0.1-0.201-0.2-0.301h-0.301
		c-0.201,0-0.401,0-0.501,0.1c-0.701,0.101-1.302,0.5-1.803,0.9c-4.506,4.207-7.911,9.313-10.814,14.722l1.001-3.204
		c0.2-0.602,0.3-1.203,0.3-1.803c0-0.401-0.2-0.802-0.501-1.103c2.704-4.807,5.607-9.513,8.913-13.919
		c-3.305,4.406-6.209,9.013-9.013,13.819c-0.1-0.101-0.2-0.101-0.3-0.101c0.1,0,0.2,0.101,0.3,0.101
		c-2.804,4.706-5.407,9.612-7.911,14.42l-0.3,0.201l0,0c0.701-2.705,1.402-5.509,2.102-8.313c0.901-3.804,1.704-7.71,2.604-11.516
		c1.402-2.102,2.804-4.205,4.206-6.308c-1.402,2.003-2.804,4.104-4.206,6.109c0.801-3.906,1.602-7.813,2.403-11.817
		c-0.802,4.105-1.803,8.212-2.704,12.316c-2.304,3.404-4.606,6.81-6.809,10.215c1.602-5.208,3.204-10.415,5.107-15.622
		c-2.203,6.108-4.707,12.217-6.91,18.427c-0.201,0.299-0.4,0.699-0.702,1c2.004-4.906,3.906-9.814,5.608-14.821
		c0.1-0.299,0.301-0.6,0.401-0.9c-0.1,0.301-0.2,0.602-0.401,0.802c1.502-4.307,2.804-8.512,4.006-12.919
		c-3.004,10.314-7.21,20.229-11.817,29.942c2.104-7.01,4.207-13.919,6.409-20.929c0.201-0.301,0.4-0.602,0.701-0.902
		c-0.201,0.301-0.401,0.602-0.701,0.902c0.5-1.603,1.001-3.205,1.502-4.907c-0.5,1.702-1.102,3.404-1.602,5.107
		c-2.103,2.804-4.005,5.807-5.708,8.912c0.1-2.003,0.2-4.106,0.4-6.108c2.102-3.806,4.406-7.512,6.709-11.216l1.803-2.704
		c0.6-0.9,1.101-1.903,1.902-2.603c0.401-0.401,1.001-0.602,1.502-0.401s0.901,0.601,1.202,1.101
		c0.601,0.902,1.201,1.803,1.903,2.604c3.003,3.104,7.71,4.506,11.916,3.405c-4.206,1.101-8.913-0.301-11.916-3.405
		c-0.802-0.802-1.402-1.602-1.903-2.604c-0.301-0.399-0.702-0.9-1.202-1.101c-0.6-0.2-1.201,0-1.602,0.401
		c-0.801,0.8-1.302,1.802-1.903,2.603l-1.802,2.704c-2.203,3.405-4.306,6.91-6.409,10.415c0-0.101,0-0.201,0-0.401
		c0.1-0.701,0.2-1.401,0.301-2.103c0.099-0.101,0.099-0.2,0.199-0.2c-0.5-0.101-0.6,0-0.6,0c0.3-1.803,0.901-3.605,1.702-5.208
		c-0.901,1.703-1.502,3.605-1.903,5.508c-0.801,1.202-1.602,2.404-2.403,3.605c2.403-7.912,4.006-16.123,7.31-23.733
		c-3.805,8.813-6.108,18.226-9.613,27.038c-0.401,1-0.801,2.003-1.202,3.004c1.202-7.31,1.802-14.721,1.802-22.131
		c0,2.705-0.201,5.308-0.5,7.91c-0.301,2.003-0.602,3.906-0.901,5.909c-0.4,2.404-0.901,4.906-1.401,7.311
		c-0.101,0.7-0.301,1.401-0.501,2.104c0-0.702,0.101-1.403,0.101-2.104c0,0.802-0.101,1.502-0.101,2.302
		c-0.3,1.502-0.701,2.905-1.001,4.407c-0.601,1.201-1.201,2.503-1.802,3.705c0-2.704-0.101-5.508-0.101-8.211
		c0-1.702-0.1-3.404-0.1-5.108c0.401-3.805,0.702-7.609,1.001-11.516c-0.3,3.204-0.601,6.408-1.101,9.614
		c-0.1-1.403-0.2-2.904-0.301-4.307c0.601-3.404,1.502-6.709,2.804-9.913c-1.202,2.804-2.203,5.807-2.904,8.812
		c-0.3-2.803-0.901-5.708-1.803-8.411c1.001,2.904,1.502,5.808,1.704,8.813c-0.201,0.801-0.401,1.603-0.602,2.402
		c-1.001,4.706-1.603,9.515-2.203,14.221c-0.201,1.401-0.401,2.703-0.602,4.104c0-0.101,0-0.101,0-0.199
		c1.002-6.709,1.702-13.42,2.104-20.229c-0.401,6.209-1.302,12.417-2.403,18.526c-0.201-0.701-0.301-1.303-0.501-1.903
		c-0.4-1.503-0.701-3.005-1.102-4.505c-0.1-4.908,0-9.915,0.801-14.822c0.301-2.002,0.601-4.005,0.501-6.009
		c-0.1-0.9-0.2-1.801-0.501-2.804c0.501-2.002,1.001-4.104,1.502-6.107c-0.401,2.003-1.001,4.005-1.502,5.908
		c-0.3-1.001-0.601-1.903-0.901-2.904c-1.201-3.806-1.101-8.011,0.501-11.716c-1.602,3.705-1.702,7.91-0.501,11.716
		c0.301,1.001,0.602,2.103,0.901,3.104c-0.4,1.503-0.901,3.104-1.302,4.606c-0.801,2.704-1.401,5.508-2.003,8.313
		c-0.5-2.104-1.101-4.307-1.803-6.41c0.702-1.701,1.503-3.404,2.404-5.106c-0.901,1.603-1.702,3.305-2.404,4.908
		c-0.099-0.401-0.199-0.802-0.4-1.203c-2.304-7.511-5.508-14.72-10.214-21.029c4.806,6.209,7.71,13.62,9.813,21.13
		c0.201,0.602,0.3,1.201,0.501,1.902c-0.3,0.801-0.702,1.603-1.001,2.505c-0.1,0.399-0.3,0.8-0.4,1.2
		c-0.301-2.203-0.802-4.307-1.202-6.51c0.5,2.304,0.801,4.708,1.001,7.11c-0.1,0.401-0.301,0.902-0.401,1.303
		c-0.2-1.002-0.401-2.003-0.701-2.905c0.3,1.002,0.5,2.004,0.701,2.905c-0.2,0.8-0.401,1.502-0.701,2.303
		c-0.1-4.506-0.801-8.913-2.003-13.219c1.302,4.606,1.802,9.414,1.702,14.221c-0.2,0.7-0.4,1.401-0.601,2.202
		c-0.301,1.503-0.601,3.005-0.901,4.507c-0.3-1.702-0.601-3.404-0.701-5.207c-0.301-3.705-0.201-7.411-0.5-11.116
		c-0.1-1.401-0.201-2.804-0.401-4.205l0.301-8.011c-0.101,2.603-0.201,5.206-0.401,7.71c-0.4-2.203-0.901-4.307-1.903-6.309
		c1.001,2.104,1.502,4.306,1.903,6.609c-0.201,4.305-0.4,8.512-0.701,12.817c-0.401,6.909-0.601,13.919-0.101,20.929
		c0.101,1.603,0.201,3.204,0.401,4.907c-0.1,1.401-0.2,2.704-0.401,4.105c-0.701-4.406-1.502-8.813-2.403-13.218
		c-0.2-1.002-0.401-2.003-0.601-3.005l0,0c-0.2-1.803-0.601-3.704-1.201-5.507c-0.401-7.01-0.401-14.12,0.1-21.13
		C64.99,15.021,65.491,7.311,63.388,0c1.001,3.605,1.402,7.411,1.402,11.215c0,3.806-0.4,7.512-0.701,11.316
		c-0.601,5.508-0.801,11.115-0.801,16.724c-0.201-0.602-0.301-1.102-0.501-1.703c-1.401-4.405-3.404-8.812-6.409-12.417
		c0-0.401-0.1-0.901-0.1-1.302c-0.4-4.406-1.002-9.013-3.504-12.817c2.603,3.704,3.104,8.411,3.304,12.817c0,0.301,0,0.602,0,1.002
		c-0.1-0.102-0.2-0.2-0.301-0.4c0.101,0.1,0.201,0.2,0.301,0.4c0.2,4.105,0.4,8.312,1.803,12.316c0.4,1.202,0.9,2.403,1.401,3.605
		c0.4,2.805,0.701,5.508,1.102,8.311c-0.601-1.902-1.102-3.705-1.803-5.606c-3.205-9.515-7.11-18.728-11.817-27.639
		c4.507,9.413,7.811,18.926,10.615,28.438c1.001,3.204,1.802,6.409,2.704,9.715c-1.202-3.306-2.403-6.61-3.906-9.814
		c-1.101-2.503-2.503-4.906-3.805-7.311c-1.202-2.402-2.303-5.107-2.003-7.811c-0.2,2.804,0.701,5.508,1.903,7.912
		c1.202,2.503,2.504,4.906,3.505,7.409c2.104,5.007,3.605,10.314,5.208,15.521c0.2,0.7,0.5,1.502,0.701,2.203
		c0.101,1.001,0.201,2.004,0.4,3.005c-0.1-0.101-0.1-0.302-0.2-0.401c0.1,0.2,0.1,0.301,0.2,0.501
		c0.2,1.302,0.301,2.604,0.501,3.806c0.1,0.399,0.1,0.7,0.2,1.101c-0.1,2.304-0.2,4.506-0.1,6.81c0,0.301,0,0.602,0.1,0.9
		c-0.501-0.9-1.001-1.801-1.401-2.703c-0.501-4.305-1.001-8.611-1.903-12.816c-0.802-3.706-1.903-7.311-3.405-10.815
		c-0.802-1.702-1.603-3.405-2.704-5.007c-0.5-0.802-1.001-1.603-1.603-2.304c-0.601-0.7-1.201-1.502-2.103-1.901
		c-0.4-0.202-0.901-0.102-1.301-0.102c-0.401-2.002-0.901-4.005-1.402-5.907c-0.801-2.705-1.803-5.208-3.405-7.511
		c-0.1-0.3-0.201-0.601-0.301-0.901c0.1,0.301,0.201,0.602,0.301,0.801c-0.201-0.301-0.4-0.601-0.601-0.801
		c0.2,0.301,0.4,0.602,0.601,0.801c1.502,4.507,2.904,9.013,4.406,13.62c-0.301,0.099-0.601,0.199-0.901,0.399l-2.503,1.302
		l-2.203,1.102c-0.101-0.4-0.301-0.901-0.401-1.303c-1.402-4.605-2.403-9.412-2.704-14.318c0.301,5.407,1.202,10.715,2.704,15.921
		l-2.002,1.002c-1.202-2.302-2.604-4.405-4.506-6.208c1.802,1.803,3.204,4.005,4.405,6.208l-0.3,0.101
		c-3.305,1.803-6.609,3.604-9.914,5.508c3.305-1.903,6.609-3.705,9.914-5.408c0.1,0,0.2-0.1,0.3-0.1
		c0.301,0.7,0.702,1.401,1.002,2.103c0.8,1.903,1.502,3.805,2.203,5.808c-0.701,0.101-1.402,0.301-2.103,0.501
		c-0.2,0.101-0.4,0.101-0.5,0.2c-0.1-0.2-0.201-0.4-0.201-0.501c0.101,0.201,0.201,0.401,0.201,0.501
		c-1.803,0.7-3.505,1.502-5.308,2.204c-3.806,1.702-7.71,3.303-11.516,5.105c-3.805,1.804-7.61,3.806-10.414,7.01
		c2.503-3.104,6.309-5.105,10.114-6.81c3.905-1.602,7.811-3.104,11.716-4.706c1.803-0.7,3.605-1.502,5.408-2.104
		c2.203,5.107,4.606,10.114,7.209,15.022c0.101,0.1,0.101,0.2,0.201,0.399c0,0-0.1,0-0.1-0.099l0.1,0.099
		c0.1,0.102,0.1,0.2,0.2,0.301l-14.921-3.906c5.007,1.303,10.014,2.705,15.021,4.106c0.901,1.702,1.903,3.404,2.804,5.207
		c-1.001,0.101-2.003,0.301-3.004,0.501c-1.602,0.399-3.205,0.602-4.807,0.801c-1.102,0.1-2.203,0.2-3.305,0.301
		c0-0.101-0.1-0.101-0.1-0.201c0,0.101,0.1,0.101,0.1,0.201c-2.103,0.2-4.305,0.501-6.308,1.303
		c-3.004,1.001-6.008,3.004-7.311,6.107c1.302-3.005,4.307-5.007,7.311-5.908c2.103-0.702,4.206-0.9,6.409-1.102
		c0.901,1.803,1.802,3.506,2.804,5.207c-0.501,0.2-1.002,0.502-1.502,0.801c-4.606,2.704-8.111,7.311-9.513,12.418
		c1.502-5.107,5.208-9.513,9.814-12.018c0.5-0.3,1.001-0.501,1.502-0.699c0.601,1.001,1.302,2.003,2.002,3.003l-0.3,0.601
		l-1.202,3.104c-0.1-0.099-0.201-0.299-0.301-0.399c0.1,0.101,0.201,0.301,0.201,0.399l-1.101,2.604
		c-1.703,3.806-3.405,7.611-5.208,11.415c-3.605,7.511-7.51,15.021-11.616,22.231c4.206-7.211,8.211-14.62,11.917-22.131
		c1.903-3.806,3.605-7.51,5.408-11.415l1.001-2.204c1.502,2.505,3.304,4.907,5.307,7.11c2.203,2.404,4.707,4.508,7.31,6.408
		c0.2,0.401,0.401,0.803,0.501,1.203c-1.202-0.702-2.304-1.303-3.505-1.902c-0.901-0.401-1.903-0.802-2.904-1.003
		c-1.001-0.198-2.103-0.099-3.004,0.401c-0.1,0-0.2,0.1-0.301,0.1c-1.602-2.504-2.804-5.207-3.505-8.11
		c0.601,2.903,1.703,5.708,3.104,8.312c-0.701,0.4-1.301,1-1.802,1.602c-0.701,0.802-1.302,1.502-1.902,2.404
		c-2.303,3.305-3.805,7.209-4.406,11.315c0.601-4.007,2.303-7.911,4.807-11.017c1.102-1.301,2.304-2.804,3.705-3.503
		c0.101,0.099,0.101,0.198,0.101,0.299c1.702,2.704,3.805,5.207,6.408,7.11c-0.701,0.3-1.401,0.602-2.103,0.901
		c-5.908,2.604-11.315,6.309-16.824,9.613c5.608-3.305,11.517-5.909,17.124-9.113c0.701-0.399,1.502-0.8,2.203-1.201
		c0.5,0.401,1.101,0.802,1.703,1.103c1.702,1.001,3.605,1.801,5.607,2.402c1.302,1.603,3.204,2.804,5.207,3.204
		c0.301,0.101,0.701,0.101,1.001,0.101c0.401,0.101,0.801,0.3,1.202,0.4c-0.901,0.602-1.703,1.202-2.604,1.903
		c-1.903,1.502-3.806,3.204-5.508,4.906c1.803-1.702,4.106-2.704,6.309-4.006c1.101-0.602,2.103-1.302,3.004-1.902l0.702-0.502
		c0.9,0.101,1.902,0.202,2.803,0.101c-0.101,0.102-0.101,0.301-0.2,0.401l0.2,0.1l0.401-0.501c0.1,0,0.1,0,0.201,0
		c0,0.102,0,0.202,0.1,0.301h-0.1v0.2c0.1,0,0.1,0,0.2,0c0.5,2.704,1.001,5.407,1.501,8.011c-0.5-2.703-0.901-5.307-1.101-8.011
		c1.702,0.101,3.404-0.399,4.906-1.201c0.801-0.401,1.502-0.9,2.203-1.401c1.503,4.606,2.804,9.412,3.706,14.118
		c-0.901-4.906-1.602-9.913-2.804-14.82c0.2-0.198,0.4-0.4,0.701-0.501c0.901,2.104,1.603,4.307,2.404,6.41
		c1.301,3.304,2.503,6.709,3.805,10.114c1.202,3.404,2.403,6.809,3.304,10.314c-0.901-3.506-1.802-7.01-2.804-10.415
		c-1-3.505-2.203-6.909-3.505-10.214c-0.9-2.203-1.902-4.307-2.803-6.408c0.201-0.101,0.4-0.302,0.5-0.401
		c2.804-2.504,5.508-5.107,8.211-7.812c0.1-0.101,0.3-0.3,0.4-0.399c0.501,1.201,1.202,2.402,2.003,3.505
		c1.302,1.803,2.803,3.604,4.006,5.406c0.6,0.901,1.201,1.903,1.701,2.905c0.401,1.001,0.701,2.102,0.901,3.204
		c-0.1-1.103-0.4-2.203-0.801-3.305c-0.4-1.002-1.001-2.003-1.603-3.004c-1.202-1.903-2.603-3.706-3.805-5.608
		c-0.701-1.201-1.402-2.403-1.803-3.705c0.5-0.501,1.001-1.001,1.502-1.602c0.901,0.9,1.603,1.902,2.203,2.903
		c0.802,1.403,1.603,2.805,2.403,4.206c0.801,1.402,1.703,2.704,2.704,4.005c1.902,2.504,4.106,4.707,6.509,6.61
		c0.1,0.299,0.2,0.601,0.301,1.001c-0.101-0.301-0.201-0.602-0.301-0.9c0.1,0.099,0.1,0.099,0.2,0.198c-0.1-0.1-0.2-0.1-0.2-0.198
		c-1.602-5.408-1.502-11.017-1.803-16.624l-0.5-12.617c0.099-0.101,0.099-0.101,0.2-0.101c0.3,0.701,0.601,1.303,0.901,2.002
		c1.302,2.304,3.005,4.407,4.607,6.51c0.201,2.202,0.4,4.306,0.601,6.509c-0.301-2.103-0.4-4.307-0.601-6.408
		c0.1,0.101,0.1,0.201,0.201,0.301c1.701,2.202,3.204,4.605,3.805,7.409c-0.601-2.703-2.003-5.207-3.605-7.509
		c-0.1-0.201-0.199-0.302-0.4-0.501c-0.801-12.117,0.1-24.234,2.403-36.051l0.3-1.302v-0.2l0.1-0.4v-0.201c0-0.1,0-0.1-0.1-0.1h-0.1
		l-0.702-0.099h-0.2c-0.301,0-0.601,0.099-0.801,0.198c-1.001,0.501-1.602,1.302-2.103,2.004l-3.305,4.206l-2.504,3.305
		c0-0.301-0.1-0.501-0.1-0.802l11.015-17.625l0,0l4.707,8.413c-1.502-2.805-2.904-5.709-4.307-8.613l-0.1-0.3l1.402-2.203
		c-0.5,0.7-0.901,1.502-1.402,2.203l-0.601-1.303c0.2-0.299,0.3-0.6,0.5-0.9c2.704-4.906,5.508-9.713,8.612-14.32
		c0.3,2.203,0.4,4.507,0.5,6.81C125.574,48.066,125.774,50.571,126.675,52.974c0.701,2.403,2.104,4.607,4.106,6.107
		C128.678,57.68,127.376,55.377,126.675,52.974z M43.36,28.84c1.503,2.304,2.604,4.907,3.205,7.511
		c0.4,1.502,0.701,3.104,1.001,4.605C46.164,37.053,44.762,32.946,43.36,28.84z M110.954,42.459
		c0.301,0.301,0.501,0.701,0.501,1.103c0,0.6-0.1,1.2-0.3,1.7c-0.4,1.103-0.801,2.304-1.202,3.406c-0.1,0.399-0.3,0.7-0.4,1.102
		c-0.701,1.302-1.301,2.703-1.903,4.006c-1.201,1.702-2.403,3.404-3.405,5.106v-0.501v-0.4v-0.9v-0.802v-0.201c0-0.1-0.1,0-0.1,0
		l-0.4,0.201h-0.1C105.947,51.672,108.351,47.064,110.954,42.459z M104.545,61.385C104.545,61.485,104.445,61.485,104.545,61.385
		L104.545,61.385C104.445,61.485,104.445,61.485,104.545,61.385z M102.442,76.706c-0.5,0.701-1.001,1.502-1.402,2.203
		c-0.601,1.001-1.302,1.903-1.903,2.904c1.703-4.807,3.105-9.613,4.707-14.52c0.2,1.602,0.4,3.104,0.601,4.706
		c0,0.3,0.1,0.501,0.1,0.8C103.844,74.203,103.144,75.505,102.442,76.706z M104.746,74.001c0,0.202,0.099,0.501,0.099,0.702
		l-2.903,3.806c0.1-0.201,0.2-0.301,0.301-0.5L104.746,74.001z M93.63,101.741c-0.2-0.301-0.401-0.602-0.601-0.901
		c0.801-0.801,1.602-1.603,2.404-2.404C94.631,99.438,94.03,100.539,93.63,101.741z M93.63,103.043l-0.1,0.1L93.63,103.043
		L93.63,103.043z M94.231,98.436c3.104-3.403,6.108-6.709,9.112-10.214c0.1,0,0.2,0.102,0.301,0.102l-1.903,2.503
		c-1.302,1.702-2.604,3.404-3.805,5.107C96.534,96.733,95.333,97.535,94.231,98.436z M103.443,87.321
		c-0.2-0.101-0.4-0.201-0.601-0.301c-0.401-0.101-0.801-0.2-1.202-0.301c1.503-2.102,3.005-4.306,4.506-6.509
		c0.301,1.103,0.601,2.203,0.901,3.305C105.847,84.917,104.646,86.12,103.443,87.321z M102.743,88.021
		c-2.403,2.505-4.908,4.908-7.31,7.312c1.902-2.504,3.705-5.107,5.508-7.711C101.541,87.722,102.142,87.922,102.743,88.021z
		 M95.632,93.229c-0.3,0.4-0.701,0.9-1.001,1.302c1.102-2.304,2.304-4.607,3.305-6.91c0.701,0,1.502,0,2.303,0.101
		C98.637,89.524,97.135,91.427,95.632,93.229z M95.433,91.427c0.4-1.002,0.801-2.003,1.202-2.905c0.1-0.198,0.2-0.501,0.3-0.699l0,0
		c0.201,0,0.4-0.101,0.701-0.101C96.935,88.924,96.234,90.124,95.433,91.427z M95.833,86.621c0,0.099-0.1,0.099-0.1,0.199
		c-1.102,0.4-2.103,1.002-2.904,1.802c0.5-1.602,1.001-3.204,1.402-4.807c2.604-4.405,5.006-9.012,7.209-13.618
		C99.638,75.705,97.835,81.213,95.833,86.621z M91.928,104.444L91.928,104.444c-0.401,0.401-0.801,0.702-1.202,1.102
		c0.1-0.201,0.301-0.301,0.501-0.5c-0.702,0.7-1.502,1.401-2.304,2.002l-1.101,0.701c0.3-0.6,0.601-1.201,0.901-1.803
		c0.3-0.4,0.601-0.8,1.001-1.201c0.1,0,0.2-0.1,0.3-0.1C90.525,104.345,91.227,104.244,91.928,104.444z M91.928,96.334
		c0.101-0.101,0.2-0.301,0.3-0.4c-0.1,0.199-0.1,0.4-0.199,0.501C91.928,96.435,91.928,96.334,91.928,96.334z M85.52,103.344
		c-0.101,0-0.101,0.101-0.201,0.101c0.1-0.201,0.1-0.302,0.201-0.501c0.4-0.302,0.7-0.702,1.101-1.003c-0.1,0.2-0.1,0.301-0.2,0.502
		C86.119,102.742,85.819,103.043,85.52,103.344z M85.819,108.649c-0.101,0.201-0.101,0.401-0.201,0.501l0,0
		c0.1-0.1,0.1-0.3,0.201-0.4V108.649z M85.118,101.842c0-0.101,0-0.202,0-0.301l0.801-1.103l1.702-2.503
		c-0.3,0.5-0.501,0.9-0.801,1.401C86.219,100.238,85.719,101.04,85.118,101.842z M84.217,61.886c-0.1-0.501-0.201-0.901-0.301-1.401
		c0.5-1.103,0.901-2.104,1.402-3.204c-0.101,2.402-0.101,4.806-0.2,7.209c-0.1,0.3-0.2,0.602-0.301,0.901
		C84.717,64.189,84.517,63.087,84.217,61.886c0.099-0.301,0.2-0.601,0.2-0.901C84.417,61.285,84.316,61.585,84.217,61.886z
		 M81.413,75.905c0.1-1.202,0.1-2.304,0.2-3.505c0.101-0.2,0.101-0.4,0.201-0.602l1.302-1.902c-0.4,0.501-0.801,1.103-1.203,1.603
		c0.501-2.003,1.102-4.105,1.603-6.108c0.2,1.102,0.3,2.104,0.501,3.204c-0.4,1.202-0.801,2.404-1.202,3.605
		C82.214,73.401,81.814,74.603,81.413,75.905z M81.613,80.813c-0.2,0.8-0.4,1.602-0.601,2.503c0-0.5,0.1-1.001,0.1-1.502
		C81.313,81.412,81.413,81.111,81.613,80.813z M83.917,56.578c0.601-3.905,1.102-7.91,1.502-11.816c0.101-1.002,0.2-2.002,0.3-3.005
		c0,0.602,0,1.203,0,1.805c0,3.304-0.1,6.508-0.199,9.813C85.018,54.476,84.417,55.478,83.917,56.578z M86.821,92.629L86.821,92.629
		c0.1,0.3,0.2,0.501,0.3,0.8c-0.401,1.303-0.801,2.604-1.101,4.006l0.2,0.101c-0.3,0.4-0.601,0.9-0.901,1.301
		c0-0.699,0.1-1.401,0.1-2.103c0.2-0.5,0.3-1.001,0.501-1.502C86.219,94.331,86.52,93.429,86.821,92.629z M86.42,85.418
		c0.2-0.501,0.401-1.102,0.601-1.603c0,0,0-0.1,0.1-0.1c0,0.802,0,1.602,0,2.404c-0.2,0.501-0.401,1.101-0.5,1.602
		C86.52,86.92,86.52,86.22,86.42,85.418z M88.122,97.836c-0.1,0.2-0.1,0.4-0.2,0.6c-0.2,0.301-0.4,0.602-0.601,0.901
		C87.622,98.836,87.922,98.335,88.122,97.836z M88.523,102.342c-0.2,0.2-0.3,0.501-0.501,0.701c0.1-0.1,0.1-0.301,0.1-0.401
		C88.223,102.542,88.323,102.442,88.523,102.342z M91.227,102.943c0.099-0.201,0.3-0.302,0.5-0.501c0,0.199,0,0.4,0,0.501
		C91.627,102.943,91.427,102.943,91.227,102.943z M90.626,99.438l-0.301,0.101c-0.3,0.2-0.7,0.4-1,0.602
		c0.601-0.902,1.201-1.903,1.803-2.805l0,0c0,0.2,0,0.4,0.1,0.5C91.026,98.335,90.826,98.937,90.626,99.438z M91.127,90.625
		c-0.501,0.7-1.001,1.402-1.603,2.104c-1.101,1.502-2.103,3.104-3.204,4.606c0.4-0.9,0.801-1.804,1.302-2.804
		c0,0.1,0.101,0.2,0.101,0.301l0.2-0.101c-0.1-0.2-0.1-0.4-0.2-0.602c0.1-0.2,0.2-0.5,0.3-0.701l0.1,0.101
		c1.703-2.402,3.204-4.907,4.707-7.409C92.328,87.621,91.727,89.123,91.127,90.625z M96.133,66.592
		c-0.801,1.603-1.702,3.305-2.503,4.907c0.1-0.199,0.1-0.5,0.2-0.7C94.531,69.396,95.333,67.994,96.133,66.592z M94.932,66.392
		c0.401-1.702,0.801-3.305,1.302-4.906c2.002-4.005,4.105-8.011,6.408-11.917c-0.701,3.505-1.903,6.91-3.304,10.215
		c-1.503,1.702-2.604,3.505-3.706,5.407C95.333,65.591,95.132,65.992,94.932,66.392z M94.231,73.001
		c1.602-3.605,3.304-7.211,4.707-11.015c0.4-0.501,0.8-1.103,1.201-1.603c0.301-0.301,0.601-0.701,0.901-1.002
		c-0.2,0.602-0.301,1.201-0.501,1.803C97.736,66.592,94.932,72,92.228,77.407C92.829,75.905,93.53,74.502,94.231,73.001z
		 M98.036,70.097c-2.303,3.205-4.406,6.509-6.309,10.014c-0.401,0.702-0.801,1.502-1.101,2.204l9.213-18.125
		C99.137,66.191,98.537,68.094,98.036,70.097z M98.938,69.196c0.5-0.701,0.901-1.401,1.402-2.003v0.101
		c-0.5,0.8-1.001,1.702-1.502,2.503C98.837,69.596,98.938,69.396,98.938,69.196z M94.13,77.407
		c-0.901,1.502-1.802,2.904-2.704,4.406c0.2-0.5,0.501-1.001,0.701-1.502c1.703-3.205,3.605-6.209,5.508-9.212
		c-0.101,0.2-0.101,0.399-0.101,0.5c0,0.1-0.1,0.3-0.1,0.4c-0.4,0.6-0.701,1.201-1.001,1.702
		C95.632,75.003,94.832,76.205,94.13,77.407z M96.033,76.806c-0.2,0.803-0.501,1.603-0.801,2.404
		c-0.301,0.5-0.501,1.001-0.801,1.502c-1.302,2.304-2.503,4.706-3.805,7.01C92.428,84.116,94.231,80.411,96.033,76.806z
		 M92.729,69.997c-0.601,1.103-1.302,2.203-1.903,3.404c0.701-1.802,1.502-3.604,2.303-5.407
		C93.029,68.695,92.829,69.396,92.729,69.997z M92.228,73.602c0,0.201-0.1,0.501-0.1,0.702c-1.602,3.104-3.104,6.308-4.305,9.612
		c0,0.101,0,0.101-0.1,0.2c0.1-1.002,0.3-2.003,0.4-3.005C89.524,78.609,90.926,76.104,92.228,73.602z M89.524,84.116
		c-0.5,1.102-1.001,2.202-1.502,3.305c0.201-0.501,0.301-0.9,0.501-1.401L89.524,84.116z M88.223,90.225
		c-0.301,0.802-0.601,1.602-0.801,2.404c-0.1-0.201-0.1-0.401-0.1-0.702C87.521,91.427,87.822,90.826,88.223,90.225z
		 M104.145,62.086L104.145,62.086c0-0.1,0.1-0.1,0.1-0.2C104.244,61.986,104.244,61.986,104.145,62.086z M103.543,63.488
		c-0.801,1.603-1.502,3.204-2.403,4.706c-1.502,3.004-3.104,5.908-4.707,8.813c0.301-1.001,0.601-1.903,1.001-2.904
		c0.301-0.601,0.601-1.102,0.901-1.702c1.703-3.104,3.505-6.108,5.208-9.213C103.543,63.288,103.543,63.388,103.543,63.488z
		 M102.843,57.88c0.099,0,0.099-0.101,0.2-0.101c0.2-0.1,0.4-0.299,0.3,0v1.504c0,0.399,0,0.8,0,1.101
		c-1.101,1.903-2.002,4.005-2.804,6.108c-0.5,0.601-0.901,1.201-1.402,1.902c0.801-2.703,1.602-5.407,2.403-8.11
		C102.042,59.482,102.442,58.682,102.843,57.88z M99.638,48.969c2.304-3.806,4.707-7.511,7.11-11.217
		c-0.901,3.605-1.802,7.211-2.803,10.815c-0.801,3.104-1.702,6.108-2.504,9.212c-0.5,0.401-1.001,0.902-1.502,1.302
		c1.102-3.104,2.003-6.308,2.604-9.612c0.501-0.901,1.001-1.803,1.603-2.703c-2.504,4.104-5.007,8.11-7.41,12.315
		C97.636,55.776,98.637,52.372,99.638,48.969z M96.434,54.275c0,0,0-0.101,0.1-0.101c0.401-0.601,0.701-1.201,1.102-1.903
		c-0.201,0.602-0.401,1.203-0.601,1.803c-1.102,3.406-2.203,6.81-3.004,10.314c-1.402,2.704-2.803,5.508-4.105,8.313
		c0-0.2,0.1-0.301,0.1-0.501c0.3-1.101,0.5-2.203,0.801-3.404c0.201-0.802,0.5-1.502,0.701-2.304
		c0.801-2.202,1.502-4.306,2.403-6.509C94.731,58.181,95.632,56.278,96.434,54.275z M86.62,69.896c0.1-0.301,0.1-0.7,0.1-1.001
		l1.803-5.106c1.603-4.506,3.104-9.013,4.206-13.619c0.701-1.902,1.502-3.806,2.303-5.708c-0.601,4.305-1.602,8.512-2.704,12.718
		c-0.5,1.702-0.901,3.505-1.402,5.206C89.524,64.789,88.022,67.294,86.62,69.896z M101.641,32.946
		c-2.503,7.509-5.107,15.021-7.71,22.531c0.901-4.207,1.602-8.413,1.903-12.718C97.435,39.354,99.338,36.05,101.641,32.946z
		 M92.929,39.855c0.401-1.202,0.801-2.403,1.202-3.605c0.801-1.301,1.603-2.503,2.504-3.805c-0.201,0.901-0.3,1.803-0.4,2.704
		c-1.502,2.503-2.904,5.107-4.306,7.61C92.228,41.858,92.628,40.856,92.929,39.855z M89.625,48.468c0.2-0.401,0.4-0.902,0.7-1.303
		c1.803-3.704,3.806-7.31,5.809-10.814c-0.2,1.902-0.4,3.906-0.601,5.808c0,0.301-0.1,0.602-0.1,0.901
		c-2.404,4.707-4.506,9.613-6.309,14.62c-0.3,0.802-0.601,1.702-0.901,2.504C88.623,56.178,89.124,52.271,89.625,48.468z
		 M90.125,57.98c0.801-2.604,1.702-5.207,2.704-7.71c-1.202,4.605-2.704,9.013-4.406,13.418l-0.801,2.202
		C88.423,63.288,89.224,60.583,90.125,57.98z M87.221,56.879c0.101-0.301,0.201-0.601,0.301-0.901c-0.1,0.601-0.2,1.303-0.401,1.902
		C87.221,57.581,87.221,57.28,87.221,56.879z M87.021,61.686c-0.1,0.602-0.1,1.302-0.2,1.902c-0.101,0.201-0.101,0.401-0.201,0.602
		C86.821,63.388,86.921,62.487,87.021,61.686z M86.52,54.776c-0.1,0.4-0.2,0.701-0.2,1.101c0-0.2,0-0.399,0-0.6
		C86.42,55.076,86.52,54.876,86.52,54.776z M86.219,72.8c0-0.299,0.101-0.6,0.101-0.9c0.501-1.001,1.102-2.003,1.602-3.004
		c-0.601,1.302-1.202,2.704-1.803,4.005C86.219,72.9,86.219,72.8,86.219,72.8z M89.023,69.997L89.023,69.997
		c-1.001,3.004-1.903,5.908-2.804,8.812c0-0.8-0.1-1.702-0.1-2.502C87.021,74.103,88.022,72,89.023,69.997z M86.119,89.623
		c-0.1,0.301-0.1,0.602-0.2,0.802c-0.1,0.101-0.1,0.301-0.201,0.501c0-0.901,0.101-1.902,0.101-2.805
		C85.919,88.622,86.02,89.123,86.119,89.623z M83.816,48.268c0.401-4.807,0.801-9.515,1.502-14.221c0.1-0.4,0.1-0.8,0.201-1.201
		c0.099,1.803,0.099,3.605,0.099,5.407c-0.801,6.008-1.803,12.117-2.704,18.125c0-0.1-0.1-0.301-0.1-0.4
		C83.315,53.475,83.617,50.87,83.816,48.268z M82.915,63.087c0-0.1,0.1-0.1,0.1-0.2c0.101,0.802,0.3,1.603,0.401,2.403
		c-0.501,2.104-1.102,4.206-1.702,6.209c0-0.101,0-0.101,0-0.199C82.014,68.495,82.414,65.79,82.915,63.087z M82.014,61.986
		c0.201-0.2,0.301-0.501,0.501-0.701c0,0.3-0.101,0.701-0.101,1.002c0,0.099,0,0.099,0,0.2c-0.3,0.6-0.501,1.201-0.801,1.803
		C81.714,63.588,81.814,62.787,82.014,61.986z M81.513,55.576c0,0.101,0,0.2,0.1,0.301c-0.3,1.704-0.601,3.406-0.801,5.107
		c0-0.3,0-0.601,0-0.901C81.012,58.581,81.313,57.08,81.513,55.576z M81.112,53.475c-0.1,0.7-0.3,1.401-0.4,2.102
		c0-0.8,0-1.601-0.101-2.402c0-1.001-0.1-1.903-0.1-2.905C80.612,51.371,80.813,52.372,81.112,53.475z M80.512,68.996
		c0-0.101,0-0.2,0.1-0.301c0.5-1.201,1.001-2.403,1.502-3.705c-0.201,2.103-0.5,4.104-0.801,6.208
		c-0.1,0.501-0.201,0.902-0.201,1.401c-0.2,0.301-0.5,0.602-0.701,0.902c0-0.101-0.1-0.2-0.1-0.301
		C80.312,71.799,80.412,70.397,80.512,68.996z M80.913,73.001c-0.1,0.601-0.2,1.102-0.301,1.702c-0.1-0.301-0.2-0.601-0.3-0.9
		L80.913,73.001z M80.111,74.304c0.201,0.299,0.301,0.6,0.501,0.9c0,0.101,0,0.101,0,0.2c0,0.2-0.1,0.301-0.1,0.501
		c-0.2,0.3-0.401,0.601-0.501,0.9C79.911,75.905,80.011,75.104,80.111,74.304z M78.709,89.725c0-0.102,0-0.102,0-0.2
		c0.101-0.301,0.101-0.501,0.201-0.802c0,0.101,0,0.201,0,0.201v0.1C78.91,89.224,78.81,89.524,78.709,89.725z M79.01,91.127
		c0,0.1,0,0.1,0,0.198C78.91,91.227,78.91,91.227,79.01,91.127L79.01,91.127z M77.508,80.312c-0.1-0.602-0.1-1.302-0.201-1.903
		c0.602-0.9,1.203-1.803,1.803-2.703l0.1-0.2c-0.1,0.501-0.1,1.101-0.1,1.602c0,0.401-0.1,0.7-0.1,1.102
		C78.51,78.809,78.008,79.609,77.508,80.312z M77.508,84.917L77.508,84.917L77.508,84.917L77.508,84.917z M77.408,84.718
		C77.408,84.816,77.408,84.816,77.408,84.718C77.408,84.816,77.408,84.718,77.408,84.718L77.408,84.718z M76.806,85.619
		c-0.1-0.401-0.1-0.803-0.199-1.303C76.706,84.718,76.806,85.118,76.806,85.619C76.806,85.519,76.806,85.619,76.806,85.619z
		 M76.806,99.639c0,0.1-0.1,0.3-0.1,0.501v0.099c0-0.6,0-1.101,0-1.702v-0.101c0,0.202,0,0.501,0.1,0.702
		C76.806,99.337,76.806,99.438,76.806,99.639z M75.706,69.297c-0.201-1.803-0.401-3.507-0.602-5.308
		c0.3-0.701,0.602-1.502,0.801-2.203c0.301,2.103,0.301,4.206,0.201,6.308C76.005,68.595,75.905,68.996,75.706,69.297z
		 M76.005,70.397c0,0.501-0.101,0.902-0.101,1.401c0-0.3,0-0.601-0.099-0.9C75.905,70.698,76.005,70.498,76.005,70.397z
		 M75.905,61.786c-0.3,0.701-0.6,1.401-0.901,2.103c-0.2-1.303-0.3-2.504-0.5-3.806v-0.1c0.1-0.602,0.1-1.203,0.201-1.703
		c0.199-1.301,0.3-2.604,0.5-3.905c0.2,2.404,0.501,4.706,0.901,7.01C76.005,61.485,76.005,61.686,75.905,61.786
		c0-0.201,0-0.401-0.099-0.602C75.905,61.385,75.905,61.585,75.905,61.786z M76.005,61.786c0.101-0.101,0.101-0.201,0.101-0.401
		c0.1,0.401,0.1,0.802,0.2,1.201c0.201,1.002,0.4,2.005,0.701,3.005c-0.1,0.401-0.201,0.801-0.301,1.202
		C76.506,65.19,76.306,63.488,76.005,61.786z M77.007,86.02c0,0.101,0,0.2,0.101,0.299c0,0.101-0.101,0.202-0.101,0.401
		c0-0.199,0-0.301-0.1-0.5C76.907,86.12,76.907,86.12,77.007,86.02z M76.907,71.1c-0.101-1.003-0.101-2.005-0.201-3.006
		c0-0.1,0.1-0.299,0.1-0.4c0.101-0.399,0.201-0.801,0.301-1.302c0.1,0.602,0.3,1.201,0.5,1.803
		C77.408,69.196,77.107,70.197,76.907,71.1z M77.208,59.081c0.099-0.099,0.099-0.199,0.099-0.301
		c0.201,0.902,0.301,1.904,0.201,2.805C77.408,60.785,77.307,59.883,77.208,59.081z M78.008,75.305
		c0.2-0.501,0.301-0.902,0.501-1.402c0,0.2-0.101,0.5-0.101,0.7C78.309,74.903,78.208,75.104,78.008,75.305z M78.309,75.604
		c0,0.101,0,0.201-0.101,0.401c-0.1,0.099-0.2,0.199-0.3,0.301C78.108,76.006,78.208,75.806,78.309,75.604z M77.208,75.604
		c0.4-1.604,0.801-3.305,1.302-4.906c0.099,0.2,0.199,0.5,0.3,0.7C78.208,72.8,77.708,74.203,77.208,75.604z M77.208,87.421
		c0,0.501,0,1.001,0.099,1.503c0,0.1-0.099,0.1-0.099,0.199l0.099,0.101l0,0l0,0c0,0.101-0.099,0.301-0.099,0.399
		c-0.1-0.5-0.1-1.001-0.201-1.603C77.107,87.822,77.208,87.621,77.208,87.421z M78.709,75.404L78.709,75.404
		c0.201-0.701,0.4-1.403,0.602-2.103c0-0.101,0.1-0.201,0.1-0.301l0,0c0,0.501-0.1,1-0.1,1.602
		C79.109,74.903,78.91,75.104,78.709,75.404z M80.011,64.89c0,0.101,0,0.201,0,0.301c-0.3,1.502-0.5,2.903-0.801,4.405
		c-0.1-0.299-0.2-0.7-0.3-1.001c0.3-1.101,0.5-2.203,0.701-3.305l0,0C79.811,65.19,79.911,65.091,80.011,64.89z M79.811,64.591
		c0.1-0.301,0.1-0.602,0.2-0.902c0,0.2,0,0.401,0,0.501C79.911,64.29,79.911,64.489,79.811,64.591z M79.41,80.912
		c0-0.301,0.1-0.601,0.1-0.802c0.2-0.802,0.5-1.602,0.701-2.402c-0.1,0.801-0.3,1.502-0.4,2.303
		c-0.101,0.601-0.101,1.101-0.201,1.702c-0.1,0.301-0.2,0.501-0.3,0.802C79.311,81.914,79.311,81.412,79.41,80.912z M79.71,78.109
		c0-0.303,0.101-0.602,0.101-0.902c0-0.101,0-0.101,0-0.2l0.5-1.001C80.211,76.706,79.911,77.407,79.71,78.109z M79.811,25.235
		c0.4-1.503,0.701-2.904,1.102-4.406c0.2,0.801,0.3,1.702,0.4,2.503c0.1,2.003-0.201,4.006-0.601,5.908
		c-0.801,4.306-1.002,8.612-1.102,12.918c-0.601-2.503-1.201-4.907-1.803-7.41C78.409,31.544,79.01,28.339,79.811,25.235z
		 M79.71,47.267c0.101,2.002,0.101,4.004,0.201,6.008c0.1,1.602,0.1,3.204,0.1,4.906c-0.2,1.103-0.5,2.203-0.7,3.204
		c-0.301,1.402-0.702,2.905-1.001,4.307c-0.201-1.101-0.401-2.304-0.602-3.404c0-1.203-0.1-2.304-0.3-3.405
		c0.1-0.2,0.2-0.501,0.3-0.701c-0.1,0.2-0.2,0.501-0.3,0.701c-0.101-0.2-0.101-0.4-0.101-0.701c0.101,0.2,0.101,0.501,0.101,0.701
		c-0.101,0.101-0.101,0.199-0.101,0.3c-0.5-3.305-0.8-6.609-1.101-9.913c0-0.3-0.1-0.502-0.1-0.801
		c0.501-3.906,1.001-7.711,1.602-11.617C78.309,40.257,79.01,43.76,79.71,47.267z M74.604,30.241c0.3-0.8,0.601-1.602,0.901-2.402
		c0.601,2.402,1.201,4.807,1.703,7.209c-0.1,0.301-0.1,0.602-0.201,0.802c-0.5,2.903-1.001,5.708-1.402,8.612
		c-0.4-4.205-0.801-8.512-1.502-12.719C74.303,31.344,74.403,30.843,74.604,30.241z M73.903,32.646c0.1,1.102,0.2,2.103,0.301,3.204
		c0.3,4.407,0.4,8.912,0.7,13.419c0,0.3,0,0.501,0.101,0.801c-0.3,2.403-0.5,4.807-0.701,7.31c-0.1-2.603-0.1-5.308,0-7.91
		c0.1-5.107,0.3-10.314-0.601-15.422C73.602,33.546,73.803,33.046,73.903,32.646z M72.601,42.26c0.1-1.704,0.201-3.406,0.201-5.009
		c0.2-1.101,0.4-2.102,0.7-3.204c0.802,5.007,0.601,10.214,0.401,15.321c-0.1,2.203-0.1,4.407-0.1,6.609
		c-0.401-2.303-0.901-4.506-1.502-6.81c-0.101-0.401-0.201-0.7-0.201-1.001C72.2,46.164,72.5,44.161,72.601,42.26z M74.103,66.592
		c-0.1,0.401-0.3,0.802-0.4,1.203c0.101-0.902,0.201-1.803,0.301-2.805C74.003,65.491,74.003,66.091,74.103,66.592z M72.4,38.954
		L72.4,38.954c-0.1,1.002-0.1,2.103-0.3,3.204c-0.1,1.303-0.3,2.704-0.501,4.006c-0.1-0.2-0.1-0.501-0.1-0.7
		C71.699,43.36,72,41.157,72.4,38.954z M68.896,35.85l0.5-12.417c0.2,1.202,0.3,2.504,0.3,3.705c0.101,3.705,0,7.41,0.101,11.115
		c0.1,2.403,0.4,4.807,0.9,7.109c-0.601,3.806-1.001,7.511-1.402,11.316c0,0.501-0.1,0.902-0.1,1.402c0-0.5-0.1-1.001-0.1-1.503
		C68.595,49.77,68.696,42.76,68.896,35.85z M68.095,70.898c-0.601-0.802-1.202-1.702-1.702-2.604
		c-0.201-1.903-0.301-3.806-0.401-5.709c0,0.101,0.1,0.301,0.1,0.401c0.601,2.403,1.202,4.706,1.803,7.109
		C67.995,70.298,67.995,70.599,68.095,70.898z M68.095,71.398c-0.1,1.103-0.2,2.104-0.301,3.204c0,0.301-0.1,0.602-0.1,0.802
		c-0.2-0.601-0.4-1.302-0.701-1.902c-0.2-1.302-0.301-2.503-0.401-3.806C66.993,70.397,67.494,70.898,68.095,71.398z M66.592,62.187
		c-0.2-1.002-0.5-2.003-0.701-3.005c0-0.3,0-0.601,0-0.901c0-0.199,0-0.4,0-0.501C66.092,59.182,66.292,60.685,66.592,62.187z
		 M65.691,81.111c-0.5-1.803-0.901-3.604-1.402-5.406c0.501,2.503,1.002,4.906,1.502,7.409l0.101,1.202
		c-0.201-0.3-0.301-0.601-0.5-1.001c-0.801-3.605-1.402-7.211-1.903-10.814c0-0.802,0-1.702,0-2.504
		c0.4,1.401,0.901,2.903,1.402,4.307c0.1,0.299,0.2,0.6,0.3,0.9L65.691,81.111z M65.391,57.28c-0.1-0.301-0.201-0.602-0.201-1.002
		c-0.1-1.703-0.3-3.405-0.4-5.107c0.1,0.501,0.2,1.002,0.2,1.502c0.1,0.901,0.301,1.803,0.401,2.604
		C65.391,55.978,65.391,56.578,65.391,57.28z M65.19,48.066c-0.3-1.301-0.601-2.603-0.901-3.905v-0.099
		C64.79,45.362,65.09,46.766,65.19,48.066z M64.99,72.2l0.1,0.7c-0.5-1.301-1.001-2.503-1.502-3.806c0-0.299,0-0.6,0-1.001
		C64.089,69.596,64.49,70.898,64.99,72.2z M64.289,63.488c-0.2-0.501-0.3-1.001-0.5-1.502c0-0.501,0-0.902,0-1.403
		c0-2.603-0.101-5.306-0.501-8.011c0.1,0.401,0.2,0.802,0.4,1.203C63.789,57.08,63.989,60.284,64.289,63.488z M57.38,30.142h-0.101
		c0.602,2.704,1.002,5.308,1.502,8.012c-0.1-0.301-0.3-0.602-0.4-0.902c-1.502-3.705-1.803-7.71-2.103-11.815
		c3.004,3.604,4.807,8.01,5.908,12.518c0.401,1.401,0.702,2.804,1.001,4.205c0,1.102,0,2.203,0.101,3.306
		c0,1.601,0.1,3.104,0.2,4.706c-0.1-0.2-0.1-0.301-0.1-0.501c-0.701-2.104-1.502-4.205-2.303-6.309
		c-0.401-1.002-0.901-2.003-1.302-3.005C59.082,36.952,58.381,33.546,57.38,30.142z M61.386,53.475
		c-0.1-1.302-0.301-2.705-0.401-4.006c-0.201-2.004-0.5-4.005-0.801-6.008c0,0.101,0.101,0.2,0.101,0.299
		c0.801,2.104,1.602,4.207,2.203,6.31c0.1,0.502,0.3,0.901,0.401,1.402c0.5,3.004,0.601,6.009,0.4,9.111
		c-0.201-0.7-0.4-1.502-0.601-2.202C62.286,56.679,61.886,55.076,61.386,53.475z M62.687,65.29c0.1,0.301,0.201,0.601,0.3,0.901
		c0,0.301,0,0.602-0.1,0.901C62.787,66.492,62.687,65.891,62.687,65.29z M62.387,80.411c0.2,0.401,0.4,0.802,0.701,1.201
		c0.1,0.602,0.201,1.203,0.301,1.803c-0.401-0.6-0.901-1.302-1.402-1.903c-0.1-0.8-0.2-1.602-0.301-2.401
		C61.886,79.511,62.086,79.91,62.387,80.411z M61.085,80.211c-0.301-0.501-0.601-0.902-1.001-1.402v-0.1
		c-0.801-2.402-1.502-4.708-2.303-7.109c1,1.902,1.902,3.805,3.003,5.707C60.885,78.308,60.985,79.21,61.085,80.211z M58.882,87.822
		c-0.601-0.802-1.202-1.702-1.803-2.604l-2.703-5.406c-0.301-0.602-0.602-1.202-0.901-1.803c0.601,0.199,1.101,0.5,1.602,0.9
		c1.402,2.202,2.804,4.306,4.306,6.309c0.4,1.603,0.901,3.304,1.201,5.007C60.083,89.424,59.483,88.622,58.882,87.822z
		 M59.883,90.525c-0.3-0.501-0.601-1.001-1.001-1.402l-0.4-0.901C58.982,88.924,59.483,89.725,59.883,90.525z M52.573,77.807
		C52.673,77.807,52.673,77.807,52.573,77.807c0.201,0,0.301,0.101,0.4,0.101c0.301,0.702,0.601,1.401,0.901,2.203l1.102,2.705
		c-0.2-0.401-0.501-0.901-0.701-1.304C53.774,80.211,53.174,79.01,52.573,77.807z M52.774,78.408c-0.101-0.2-0.301-0.501-0.401-0.7
		h0.1C52.573,78.009,52.673,78.208,52.774,78.408z M47.065,60.184c2.304,4.907,5.107,9.613,8.111,14.02
		c-0.701-0.602-1.603-1.103-2.504-1.403c-0.1,0-0.1,0-0.2-0.099c-3.004-4.808-5.708-9.714-8.011-14.922
		c-0.4-0.9-0.801-1.802-1.202-2.703c0.1,0,0.301,0,0.401,0c0.401,0,0.701,0.101,1.102,0.101
		C45.563,56.879,46.265,58.581,47.065,60.184z M46.164,55.776c0.101,0.101,0.201,0.101,0.401,0.201
		c1.602,1.103,2.604,3.005,3.405,4.906l2.503,5.708c0.401,0.802,0.701,1.603,1.001,2.404c-1.903-3.004-3.705-6.109-5.408-9.313
		C47.466,58.381,46.765,57.08,46.164,55.776z M55.677,75.305c0.801,1.002,1.302,2.304,1.703,3.504c0.2,0.401,0.3,0.901,0.501,1.302
		c-0.301-0.299-0.501-0.6-0.802-0.802c-0.1-0.099-0.3-0.299-0.5-0.399c-0.801-1.201-1.602-2.304-2.403-3.505
		c-0.501-0.701-0.901-1.502-1.401-2.203C53.975,73.702,54.977,74.304,55.677,75.305z M59.983,82.515
		c-0.701-1.504-1.402-3.004-2.103-4.506c0,0,0,0,0-0.102c0.8,1.103,1.602,2.104,2.403,3.204c0.3,0.902,0.5,1.803,0.801,2.805
		c-0.2-0.301-0.501-0.601-0.701-0.9C60.184,82.815,60.083,82.715,59.983,82.515z M49.469,42.559
		c0.801,0.301,1.402,1.103,1.903,1.803c0.601,0.701,1.102,1.502,1.602,2.304c1.001,1.603,1.803,3.305,2.604,5.007
		c1.502,3.404,2.503,7.01,3.204,10.714c0.702,3.606,1.202,7.311,1.603,11.016c-1.803-3.305-3.505-6.709-5.007-10.113
		c-1.603-5.008-3.305-10.014-5.007-15.021c-0.6-1.703-1.201-3.305-1.802-5.008c-0.1-0.3-0.1-0.601-0.2-0.901
		C48.667,42.358,49.068,42.358,49.469,42.559z M44.262,44.161l2.502-1.201c0.301-0.101,0.602-0.2,0.901-0.301
		c0.101,0.4,0.201,0.802,0.401,1.201c0.1,0.602,0.2,1.202,0.301,1.803c1.201,6.209,3.204,12.217,5.607,18.025
		c0.5,1.302,1.102,2.503,1.702,3.806c0.201,0.6,0.401,1.201,0.601,1.803c0.701,2.102,1.502,4.205,2.203,6.308
		c-0.801-1.702-1.602-3.305-2.503-5.006c1.101,2.302,2.203,4.605,3.104,7.01c-1.402-2.004-2.704-3.906-4.005-5.909
		c-0.701-1.702-1.402-3.404-2.103-5.207l-2.203-5.909c-0.801-1.901-1.802-4.005-3.705-5.306c-0.4-0.301-0.901-0.501-1.302-0.702
		c-1.402-3.004-2.604-6.107-3.605-9.313C42.76,44.862,43.561,44.562,44.262,44.161z M40.657,48.567
		c-0.3-0.701-0.701-1.402-1.001-2.103c0.601-0.301,1.302-0.602,1.903-1.001c0.801,3.004,1.802,5.907,3.004,8.812
		c-0.2,0-0.5-0.101-0.701-0.101c-0.201,0-0.501,0-0.701,0C42.259,52.372,41.558,50.471,40.657,48.567z M48.167,70.498
		c-2.804-4.807-5.508-9.614-7.71-14.722c0.1-0.1,0.301-0.1,0.401-0.2c0.701-0.199,1.401-0.399,2.203-0.5
		c0.4,1.001,0.701,1.903,1.101,2.904c1.903,4.906,4.307,9.713,6.91,14.319c-0.701-0.199-1.402-0.4-2.203-0.601
		C48.667,71.3,48.368,70.898,48.167,70.498z M49.068,72c0.701,0.2,1.502,0.4,2.203,0.701c0.701,1.102,1.302,2.302,2.003,3.403
		c0.2,0.401,0.5,0.802,0.801,1.202c-0.401-0.1-0.701-0.2-1.102-0.3c-0.4-0.7-0.801-1.402-1.202-2.004
		C50.971,73.902,50.07,72.9,49.068,72L49.068,72z M49.068,72.101c1.001,0.8,1.803,1.9,2.403,3.003
		c0.401,0.602,0.701,1.203,1.001,1.903c-0.1,0-0.201,0-0.301,0c-0.401-0.802-0.701-1.603-1.102-2.404
		c0.301,0.802,0.601,1.603,1.001,2.404c-0.1,0-0.2,0-0.301,0C50.971,75.305,49.97,73.702,49.068,72.101z M43.06,83.916
		c-1.102-1.602-2.103-3.305-3.004-5.107c1.102-0.1,2.103-0.1,3.204-0.199c1.603-0.101,3.305-0.302,4.907-0.601
		c1.102-0.202,2.203-0.4,3.205-0.4c0.4,0.699,0.801,1.502,1.301,2.302c-0.1-0.2-0.3-0.399-0.4-0.5c0.201,0.3,0.301,0.5,0.501,0.801
		c1,1.803,2.002,3.505,2.903,5.207c0.801,1.702,1.602,3.506,2.503,5.207c0.401,0.7,0.801,1.503,1.202,2.203
		c0.5,1.102,1.001,2.204,1.502,3.205c0.2,0.6,0.401,1.101,0.601,1.702c-0.901-1.401-1.902-2.805-2.804-4.206c0-0.101,0-0.199,0-0.3
		c0,0.101,0,0.199,0,0.3c-0.1-0.101-0.1-0.199-0.2-0.3l-3.806-5.708c-0.4-1.001-0.901-1.902-1.602-2.705
		c-0.5-1.001-1.001-2.102-1.302-3.204c0.201,0.902,0.501,1.903,0.901,2.805c-1.001-0.901-2.203-1.401-3.504-1.503
		c-0.3,0-0.601-0.099-0.901-0.099l-0.601-1.203l0,0c-0.1-0.2-0.2-0.399-0.3-0.6c0.1,0.2,0.2,0.399,0.2,0.6l-0.501,1.203
		C45.664,83.016,44.362,83.415,43.06,83.916z M58.982,97.535c0-0.501-0.1-0.902-0.1-1.402c0.801,1.302,1.603,2.604,2.504,3.906
		c0.1,0.199,0.2,0.3,0.3,0.5c0.101,0.2,0.101,0.301,0.201,0.501C60.784,99.837,59.783,98.736,58.982,97.535z M59.983,101.14
		c-0.1-0.1-0.301-0.2-0.4-0.3c-0.1-0.101-0.1-0.2-0.2-0.301c0-0.101,0-0.101,0-0.2C59.483,100.539,59.783,100.84,59.983,101.14z
		 M53.875,94.03c0.901,1.501,1.702,2.903,2.604,4.305c-0.301-0.198-0.5-0.399-0.701-0.6L53.875,94.03z M53.875,96.133
		c-2.904-2.604-5.708-5.407-8.111-8.512l1.703-4.105c0.1,0,0.2,0,0.3,0L53.875,96.133z M50.37,87.12l-1.802-3.505
		c0.1,0,0.301,0,0.401,0c1.201,0.2,2.303,0.701,3.104,1.503c0.802,0.801,1.302,1.902,1.602,3.104
		c0.401,1.202,0.601,2.504,1.001,3.906c0.201,0.7,0.501,1.301,0.701,2.002c0.3,0.602,0.601,1.302,1.001,1.903
		c0.2,0.401,0.401,0.7,0.701,1.101C54.676,93.93,52.373,90.625,50.37,87.12z M56.579,93.63c-0.2-0.601-0.5-1.202-0.701-1.903
		c-0.201-0.6-0.301-1.201-0.501-1.803c0.701,1.303,1.302,2.604,2.103,3.806c0.401,0.701,0.801,1.401,1.201,2.104
		c0,0.4,0,0.8,0,1.201c-0.4-0.6-0.8-1.101-1.101-1.702C57.179,94.832,56.879,94.23,56.579,93.63z M58.681,101.842l0.1,0.099
		c0.101,0.802,0.101,1.504,0.301,2.304l-1.803-3.604C57.68,101.04,58.181,101.44,58.681,101.842z M43.36,84.417
		c1.102-0.4,2.204-0.701,3.305-0.802l-1.402,3.505C44.662,86.22,43.961,85.317,43.36,84.417z M49.569,98.638
		c-2.103-2.005-4.105-4.307-5.607-6.711l1.502-3.505l0.1-0.301c2.503,3.605,5.408,6.911,8.712,9.915
		c0.3,0.299,0.701,0.602,1.001,0.9l2.904,6.009c-0.801-1.303-1.602-2.604-2.203-3.905c0.601,1.302,1.201,2.504,1.803,3.806
		c-0.101-0.101-0.201-0.101-0.301-0.2C54.676,102.843,51.972,100.939,49.569,98.638z M56.579,105.445
		c0.1,0.101,0.201,0.101,0.301,0.201c0.701,0.501,1.402,1.002,2.002,1.401c0.2,0.4,0.4,0.802,0.601,1.202
		c-0.702-0.501-1.502-1.002-2.204-1.502L56.579,105.445z M59.082,109.752c-0.1,0.101-0.2,0.101-0.2,0.101l-0.3-0.602
		C58.781,109.452,58.982,109.552,59.082,109.752z M47.867,105.146c-0.1-0.101-0.1-0.101-0.1-0.201c0.1,0,0.1-0.1,0.2-0.1
		c1.602-0.702,3.405,0,5.107,0.9c1.803,0.902,3.405,1.903,5.007,3.104c0.201,0.4,0.301,0.801,0.501,1.301
		c-0.701,0.501-1.502,0.902-2.303,1.303c-0.4,0.201-0.801,0.401-1.202,0.602C52.272,110.253,49.87,107.85,47.867,105.146z
		 M56.579,112.956c-0.401-0.2-0.701-0.4-1.102-0.602c0.3-0.1,0.601-0.299,1.001-0.499c0.801-0.301,1.602-0.602,2.403-0.902
		c0.4,1.203,0.901,2.403,1.603,3.605C59.082,114.158,57.781,113.658,56.579,112.956z M61.886,114.458c0,0.101,0,0.101,0,0.201
		c0,0.1,0,0.1,0,0.1c-1.001-1.201-1.803-2.603-2.604-4.006c0.301-0.101,0.501-0.2,0.801-0.299c0.1,0.099,0.201,0.198,0.301,0.198
		c0,0.501,0.1,0.902,0.4,1.201c0.101,0.101,0.301,0.303,0.501,0.401c0.2,0.301,0.3,0.601,0.5,0.902c0,0.1,0,0.199,0,0.3h-0.101
		C61.786,113.957,61.786,114.258,61.886,114.458z M61.986,107.349c-0.401-0.199-0.802-0.502-1.202-0.7
		c-0.3-0.902-0.5-1.803-0.701-2.604l2.002,3.204L61.986,107.349z M61.886,104.244c0.2,0.101,0.3,0.2,0.5,0.301
		c0,0.101,0,0.301,0,0.501C62.286,104.745,62.086,104.545,61.886,104.244z M63.087,105.946l-0.1,0.101c0-0.301,0-0.702,0-1.001
		c0.1,0.101,0.2,0.101,0.301,0.199c0,0.2,0,0.301,0,0.501C63.288,105.746,63.188,105.846,63.087,105.946z M61.585,91.628
		c-0.3-1.604-0.701-3.305-1.101-4.908c0.1,0.101,0.2,0.301,0.3,0.4c0.301,1.001,0.701,1.903,1.002,2.804
		c0.5,1.303,1.001,2.504,1.502,3.706c0.1,0.3,0.1,0.5,0.2,0.801C62.888,93.529,62.286,92.629,61.585,91.628z M62.186,83.516
		L62.186,83.516c0.501,0.501,0.901,1.103,1.402,1.603c0.201,1.102,0.4,2.203,0.601,3.205C63.588,86.72,62.888,85.118,62.186,83.516z
		 M64.289,80.912c-0.2-1.303-0.4-2.704-0.5-4.106c0-0.1,0-0.2,0-0.4c0.4,1.902,0.701,3.806,1.201,5.708
		C64.689,81.713,64.49,81.313,64.289,80.912z M64.99,85.118c0.401,0.7,0.801,1.503,1.302,2.203l0,0v0.2
		c-0.401-0.501-0.702-1.001-1.102-1.502C65.09,85.719,65.09,85.418,64.99,85.118z M66.292,88.121v0.202
		c-0.101,0.8-0.101,1.701-0.101,2.503c-0.3-1.203-0.501-2.503-0.801-3.706C65.691,87.421,65.992,87.722,66.292,88.121z
		 M65.391,104.945C65.391,104.846,65.391,104.846,65.391,104.945C65.491,104.846,65.491,104.945,65.391,104.945
		C65.491,104.945,65.491,104.945,65.391,104.945z M66.492,104.444c-0.2-0.501-0.5-1-0.701-1.501c0.301,0.4,0.501,0.9,0.801,1.301
		C66.592,104.244,66.592,104.345,66.492,104.444z M66.492,92.128C66.492,92.027,66.492,92.027,66.492,92.128
		C66.492,92.027,66.492,92.027,66.492,92.128c0-0.5,0.1-0.901,0.2-1.402l0,0C66.592,91.127,66.592,91.628,66.492,92.128z
		 M66.793,104.945c0-0.1,0-0.3,0-0.4c0,0,0,0.101,0.1,0.101l0,0L66.793,104.945z M66.793,83.215c0-0.7,0-1.401,0-2.202
		c0.1,0.301,0.1,0.7,0.2,1.001C66.893,82.414,66.793,82.815,66.793,83.215z M67.193,90.425v0.101c0.2,1.103,0.4,2.104,0.601,3.204
		c-0.3-0.399-0.601-0.7-0.901-1.001C66.993,91.927,67.093,91.127,67.193,90.425z M67.794,97.635c-0.2-0.701-0.5-1.502-0.701-2.203
		c0-0.2-0.1-0.399-0.1-0.6c0.301,0.399,0.701,0.8,1.001,1.201C67.895,96.534,67.895,97.034,67.794,97.635z M67.895,88.021
		c-0.101-0.299-0.301-0.499-0.401-0.8c0-0.4,0.1-0.802,0.1-1.201c0.2,0.801,0.301,1.702,0.501,2.502
		C68.095,88.422,67.995,88.222,67.895,88.021z M68.295,81.011c0.501,1.103,0.901,2.305,1.401,3.406c-0.1,0.301-0.1,0.601-0.2,0.9
		c0,0.101,0,0.302-0.1,0.401c-0.4-1.001-0.701-2.003-1.001-3.004c0-0.101,0-0.2-0.1-0.301c0.2,0.301,0.401,0.602,0.601,0.901h0.1
		c-0.3-0.701-0.601-1.401-0.802-2.204C68.295,81.213,68.295,81.111,68.295,81.011z M69.497,93.63c0-0.101-0.1-0.201-0.1-0.201l0,0
		c0,0,0,0,0,0.101C69.396,93.429,69.497,93.529,69.497,93.63z M68.796,100.438c-0.201-0.399-0.301-0.9-0.501-1.301
		c0.1-0.702,0.2-1.303,0.3-2.004c0.101,0.501,0.201,1.003,0.301,1.504c0.3,1.001,0.5,2.002,0.8,3.104c0,0.3,0,0.701,0,1.001
		C69.396,101.94,69.096,101.14,68.796,100.438z M70.097,82.515c-0.5-1.302-0.901-2.703-1.401-4.006c0.1-0.9,0.3-1.903,0.4-2.804
		c0.401,1.702,0.802,3.405,1.202,5.107c0,0.1,0,0.299,0,0.4C70.197,81.612,70.097,82.014,70.097,82.515z M70.799,89.725
		c-0.101-0.4-0.301-0.701-0.401-1.103c0.1-0.4,0.2-0.8,0.3-1.201c0,0.501,0.101,1.001,0.101,1.503
		C70.898,89.224,70.898,89.524,70.799,89.725z M70.698,79.11c-0.1-0.501-0.3-1.001-0.4-1.402c-0.301-2.003-0.5-4.106-0.801-6.108
		c0.1-1.202,0.2-2.403,0.301-3.506c0.5,3.104,1.001,6.109,1.301,9.113C70.999,77.807,70.799,78.509,70.698,79.11z M71.199,79.609
		c0,0.301,0,0.602,0,0.902c0-0.101-0.1-0.301-0.1-0.401c0.1-0.501,0.2-1.101,0.301-1.602l0,0
		C71.199,78.809,71.199,79.21,71.199,79.609z M71.599,75.104L71.599,75.104c-0.5-3.404-1.001-6.809-1.502-10.214
		c0.201-2.703,0.301-5.308,0.5-8.011c0.201-3.005,0.401-6.009,0.701-8.912c0,0.2,0.101,0.4,0.101,0.601
		c-0.201,1.202-0.301,2.403-0.401,3.605c-0.301,3.403-0.2,6.709,0,10.114c0.2,3.304,0.601,6.608,0.801,9.913
		c0,0.501,0.1,1.001,0.1,1.502C71.8,74.103,71.699,74.603,71.599,75.104z M72.4,119.966c-0.1,0-0.3,0-0.4,0
		c0-0.101-0.1-0.101-0.1-0.101s0.1,0,0.1-0.1l0,0c0.1,0,0.2-0.1,0.301-0.1h0.1V119.966z M72.1,62.086
		c-0.3-3.306-0.501-6.608-0.3-9.913c0-0.401,0.1-0.701,0.1-1.102c0.601,3.104,1.102,6.108,1.602,9.213
		c0.101,0.7,0.201,1.401,0.201,2.102c-0.3,1.804-0.601,3.705-0.901,5.508C72.5,65.992,72.301,63.989,72.1,62.086z M73.302,74.203
		c0.1-1.604,0.1-3.204,0.3-4.906c0-0.202,0.1-0.501,0.1-0.702c0.201-0.601,0.301-1.101,0.501-1.702c0.2,1.702,0.3,3.505,0.4,5.208
		c-0.4,0.9-0.801,1.9-1.202,2.803C73.302,74.703,73.302,74.402,73.302,74.203z M73.302,96.934c0-0.6,0.1-1.201,0.1-1.803
		c0.1,0.301,0.1,0.602,0.2,0.902C73.602,96.334,73.501,96.633,73.302,96.934z M73.702,82.113c0-0.1,0-0.1,0-0.199
		c0-1.402-0.1-2.804-0.201-4.107c0.101-0.299,0.201-0.6,0.301-0.8c0.3-0.902,0.601-1.803,0.901-2.703
		c0.1,1.502,0.199,3.003,0.3,4.505v0.101l0,0l0,0c-0.2,0.7-0.3,1.402-0.5,2.104c0,0,0,0.099-0.1,0.099
		C74.103,81.313,73.903,81.713,73.702,82.113z M74.903,86.419c0,0.102,0,0.2,0,0.301c-0.099,0-0.099,0.101-0.199,0.101
		C74.704,86.72,74.804,86.521,74.903,86.419z M74.003,97.535c-0.1,0.1-0.2,0.1-0.2,0.2c0,0,0,0-0.101,0.1
		c0.101-0.2,0.101-0.3,0.201-0.5l0,0C74.003,97.435,74.003,97.535,74.003,97.535z M73.702,100.739c0-0.1,0.101-0.1,0.101-0.2
		c0,0,0,0.101,0.1,0.101c0.1,0.2,0.2,0.3,0.2,0.5C74.003,101.04,73.803,100.84,73.702,100.739z M74.503,99.337c0,0-0.1,0-0.1-0.1
		s0-0.1,0.1-0.1C74.503,99.237,74.503,99.337,74.503,99.337L74.503,99.337z M74.604,90.826c0,0.701,0,1.302-0.1,2.002
		c-0.1-0.601-0.3-1.2-0.5-1.802c0.201-0.501,0.4-0.902,0.601-1.403C74.704,90.024,74.604,90.425,74.604,90.826z M74.704,120.767
		c0-0.099,0-0.099,0-0.199c0.1,0,0.199,0,0.3,0c0.601-0.102,1.202-0.202,1.802-0.4C76.206,120.466,75.505,120.668,74.704,120.767z
		 M76.306,119.766c-0.3,0.1-0.5,0.1-0.801,0.1l0,0c0.801-0.3,1.603-0.801,2.303-1.301l0,0
		C77.307,119.064,76.806,119.364,76.306,119.766z M77.908,87.12L77.908,87.12c-0.101-0.4-0.101-0.802-0.201-1.201
		c0.1-0.2,0.1-0.4,0.201-0.501c0.1,0.101,0.1,0.301,0.2,0.4C78.008,86.22,78.008,86.621,77.908,87.12z M78.208,84.718L78.208,84.718
		L78.208,84.718L78.208,84.718z M78.208,84.518C78.208,84.618,78.208,84.618,78.208,84.518c-0.1,0-0.1-0.101-0.1-0.101
		c0.1-0.2,0.1-0.4,0.201-0.602C78.309,84.116,78.309,84.316,78.208,84.518z M78.51,98.236c0-0.4,0-0.901,0-1.303
		c0.099-0.301,0.099-0.7,0.199-1C78.51,96.733,78.51,97.435,78.51,98.236z M78.008,83.516c-0.1-0.801-0.301-1.602-0.401-2.303
		l1.302-2.504c-0.1,1.001-0.201,1.902-0.301,2.903C78.409,82.214,78.208,82.914,78.008,83.516z M79.811,117.161l-1.102,0.802
		l0.101-0.1C79.109,117.563,79.41,117.362,79.811,117.161c0.1-0.099,0.3-0.198,0.4-0.299
		C80.111,116.963,79.911,117.063,79.811,117.161z M80.312,93.13c0.1-0.902,0.3-1.805,0.401-2.604c0.3-1.101,0.5-2.202,0.801-3.204
		c0.1-0.201,0.1-0.501,0.201-0.7c0,0.6-0.101,1.101-0.101,1.702c0,1.001,0,2.002,0.101,3.002v0.102
		c-0.401,0.9-0.801,1.803-1.202,2.804C80.312,93.729,80.312,93.429,80.312,93.13z M81.313,96.534c-0.1,0.199-0.1,0.5-0.201,0.7
		c-0.1-0.2-0.2-0.301-0.2-0.501c0.1-0.399,0.2-0.9,0.3-1.302c0.2-0.501,0.4-0.9,0.601-1.401
		C81.714,94.931,81.513,95.732,81.313,96.534z M81.714,79.309c0.5-1.7,1.001-3.503,1.602-5.206c0,0.101,0,0.101,0,0.201
		c-0.3,1.301-0.701,2.502-1.001,3.806C82.114,78.509,81.913,78.909,81.714,79.309z M82.715,105.245c0-0.099,0.1-0.199,0.1-0.3
		l0.802-1.102l0.099,0.1c0,0,0,0,0,0.101c-0.2,0.2-0.4,0.501-0.5,0.701c-0.1,0.101-0.2,0.301-0.3,0.401
		C82.815,105.146,82.715,105.146,82.715,105.245z M83.315,98.836c0.101-0.1,0.101-0.198,0.2-0.3c0,0.102,0,0.102,0,0.2
		C83.416,98.736,83.315,98.736,83.315,98.836z M83.716,114.358L83.716,114.358c-0.2,0.2-0.4,0.301-0.5,0.4
		c-0.1,0-0.3,0.101-0.4,0.101l0,0c0.4-0.401,0.802-0.802,1.302-1.201C84.017,113.858,83.816,114.058,83.716,114.358z M83.917,93.529
		c-0.101,0.501-0.101,1.102-0.201,1.602c-0.2,0.4-0.5,0.803-0.701,1.103c0.3-1.201,0.602-2.304,0.801-3.505
		c0.101-0.401,0.301-0.701,0.401-1.101C84.117,92.327,84.017,92.929,83.917,93.529z M83.617,84.017h0.199
		c-0.199,0.8-0.3,1.702-0.5,2.504c-0.1,0.5-0.2,1.101-0.3,1.601c0,0,0,0.101-0.1,0.101c0.201-3.004,0.4-6.008,0.4-9.111
		c0.2-0.702,0.301-1.304,0.4-2.004l0.701-2.104c0-0.1,0.1-0.1,0.1-0.199c0,0.3,0,0.501,0.1,0.801c0,0.5,0,1.001,0,1.502
		C84.117,79.41,83.716,81.713,83.617,84.017z M84.417,113.757c0.2-0.3,0.4-0.6,0.501-0.901c0.1-0.1,0.3-0.199,0.4-0.4
		c-0.101,0.101-0.2,0.101-0.4,0.201l0,0c1.502-1.402,2.904-2.904,4.406-4.306c0.099-0.101,0.2-0.201,0.4-0.201
		c-0.1,0.201-0.301,0.5-0.4,0.701C87.922,110.652,86.219,112.255,84.417,113.757z M87.221,111.954c0.602-0.7,1.102-1.5,1.603-2.202
		c-0.201,0.501-0.5,0.9-0.701,1.401C87.822,111.454,87.521,111.655,87.221,111.954z M91.727,107.949
		c-1.001,0.901-2.002,1.803-2.904,2.604c0.6-1.001,1.302-2.103,1.902-3.104c0.501-0.4,1.001-0.7,1.502-1.102
		c0.101,0.302,0.101,0.601,0.201,0.901C92.228,107.448,92.028,107.749,91.727,107.949z M91.627,92.528
		c0.1-0.201,0.1-0.501,0.201-0.702c0.4-0.6,0.801-1.201,1.301-1.702c0.201-0.299,0.401-0.501,0.701-0.8
		C93.029,90.425,92.328,91.427,91.627,92.528z M92.829,94.331L92.829,94.331l-0.101,0.1C92.729,94.431,92.729,94.431,92.829,94.331z
		 M92.829,103.143C92.729,103.143,92.729,103.143,92.829,103.143c-0.101-0.3-0.101-0.601-0.101-0.901v-0.301
		c0.101,0.2,0.3,0.401,0.5,0.602C93.029,102.742,92.929,102.943,92.829,103.143z M93.129,106.648c-0.1-0.302-0.1-0.501-0.2-0.803
		c0.3-0.199,0.601-0.4,0.901-0.601c0.1,0.1,0.3,0.2,0.401,0.301c0,0,0,0,0.1,0C93.93,105.946,93.53,106.347,93.129,106.648z
		 M94.731,103.143C94.731,103.143,94.631,103.143,94.731,103.143c2.003-2.203,4.106-4.206,6.209-6.308
		c-2.103,2.001-4.407,3.904-6.709,5.707c-0.101-0.1-0.101-0.1-0.201-0.2c0.401-0.5,0.701-1.102,1.102-1.603
		c3.204-3.204,6.309-6.509,9.413-9.713c-1.602,1.603-3.505,2.804-5.308,4.205c0-0.101,0.101-0.101,0.101-0.199
		c0.4-0.401,0.801-0.701,1.301-1.103c-0.3,0.2-0.701,0.501-1.001,0.701c0.802-1.102,1.703-2.304,2.504-3.404l1.902-2.504
		c0.101,0.101,0.2,0.101,0.2,0.201c0.801,0.901,1.303,2.002,1.603,3.204l0.1,2.002c-1.001,1.202-2.103,2.305-3.204,3.405
		C100.139,99.538,97.435,101.341,94.731,103.143z M104.646,88.121l0.199-0.299l0.702-0.902l0.1-0.1v0.1v0.501l0.1,2.202
		c-0.199-0.399-0.5-0.9-0.901-1.3C104.845,88.323,104.746,88.222,104.646,88.121z M106.047,94.23v0.7
		c-0.702,0.601-1.402,1.103-2.103,1.604C104.746,95.833,105.346,95.032,106.047,94.23z M95.433,104.144
		c1.101-0.8,2.203-1.701,3.204-2.504c-1.001,0.902-2.002,1.904-3.004,2.805C95.532,104.345,95.532,104.244,95.433,104.144z
		 M106.848,107.448c0.4,5.508,0.4,11.217,2.003,16.524c-2.403-2.004-4.506-4.307-6.209-6.91c-0.901-1.303-1.702-2.704-2.403-4.106
		c-0.601-1.301-1.201-2.603-1.903-4.006c1.703,2.304,3.205,4.708,4.606,7.21c-2.001-3.806-4.104-7.41-6.708-10.915
		c-0.101-0.099-0.101-0.099-0.201-0.199c2.002-2.103,3.905-4.206,5.808-6.31c1.402-1.201,2.704-2.402,4.105-3.605L106.848,107.448z
		 M106.548,94.531V94.03c0,0.1,0.1,0.301,0.1,0.4C106.648,94.531,106.548,94.531,106.548,94.531z M106.948,93.229
		c0.3-0.401,0.701-0.802,1.002-1.202C107.549,92.428,107.248,92.828,106.948,93.229c-0.1-0.301-0.1-0.501-0.201-0.701
		c-0.099-0.301-0.199-0.702-0.3-1.102l-0.1-1.702l-0.101-2.203V86.92l-0.1-1.603c0-0.199-0.1,0-0.2,0.101l-0.3,0.301l-0.5,0.7
		l-0.902,1.103l-0.2,0.301c-0.1,0-0.1-0.101-0.2-0.101c1.101-1.201,2.103-2.504,3.204-3.705c0.801,2.604,1.703,5.207,2.704,7.71
		c-0.901,0.802-1.802,1.604-2.704,2.403C107.048,93.729,106.948,93.529,106.948,93.229z M112.156,102.742
		c-1.502-2.103-3.005-4.104-4.106-6.408c-0.301-0.702-0.601-1.403-0.901-2.204c0.901-0.8,1.802-1.702,2.604-2.502
		c0.601,1.602,1.301,3.104,2.002,4.706C111.955,98.436,112.055,100.539,112.156,102.742z M108.25,71.398l3.304-4.306
		c0.5-0.701,1.101-1.502,1.902-1.902c0.201-0.1,0.401-0.2,0.601-0.2c0.101,0,0.2,0,0.3,0c0,0,0,0.101,0,0.2l-0.2,1.302
		c-1.803,9.713-2.503,19.728-2.204,29.641c-0.701-1.502-1.402-3.104-2.003-4.706c0.1-0.102,0.301-0.2,0.401-0.4
		c-0.1,0.101-0.301,0.2-0.401,0.4c-1.001-2.604-1.902-5.207-2.603-7.911c1.502-1.803,3.104-3.505,4.606-5.308
		c-1.502,1.702-3.104,3.404-4.606,5.107c-0.301-1.102-0.602-2.305-0.901-3.504c0.8-1.202,1.702-2.505,2.503-3.707
		c-0.802,1.202-1.703,2.404-2.604,3.605c-0.401-1.502-0.701-3.104-0.901-4.707L108.25,71.398z M106.047,80.11
		c-1.703,2.204-3.405,4.407-5.107,6.609c-0.101,0-0.201,0-0.301,0c-0.701-0.099-1.402-0.199-2.203-0.199
		c0.602-1.303,1.201-2.604,1.802-4.006c-0.601,1.302-1.301,2.703-2.002,4.006c-0.201,0-0.401,0-0.601,0
		c0.7-1.303,1.402-2.704,2.102-4.006l2.003-2.504l3.304-4.306C105.346,77.106,105.646,78.609,106.047,80.11z M104.945,72.2
		c0-0.1,0-0.1,0-0.2c-0.3-2.003-0.4-4.106-0.601-6.109c0.601-1.901,1.302-3.904,2.003-5.808c0.201-0.501,0.4-1.002,0.601-1.502
		c1.201-1.501,2.403-3.005,3.505-4.507c-1.201,1.502-2.304,2.905-3.505,4.407c0.3-0.9,0.701-1.702,1.002-2.604
		c0.901-1.302,1.802-2.703,2.704-4.005c0.5-0.602,0.901-1.401,1.602-1.602c0.4-0.101,0.701,0.1,0.901,0.399
		c0.201,0.301,0.401,0.701,0.601,1.002l1.302,2.304c-3.205,5.406-6.309,10.914-9.213,16.522C105.547,71.1,105.246,71.6,104.945,72.2
		z M116.061,55.776c-3.003,4.708-6.108,9.414-9.212,14.12c2.904-5.107,5.708-10.214,8.512-15.321L116.061,55.776z M115.66,52.773
		c-0.1,0.2-0.2,0.3-0.3,0.501l-0.9-2.004c-0.202-0.4-0.301-0.699-0.602-1.201c-0.2-0.2-0.401-0.501-0.701-0.701
		s-0.701-0.301-1.102-0.2c-0.801,0.101-1.202,0.602-1.602,0.901l-0.1,0.101c0.601-1.303,1.302-2.705,2.003-3.905
		c2.403-4.406,5.308-8.513,8.813-12.017c0.5-0.401,1-0.702,1.602-0.803c0.1,0,0.3-0.099,0.5-0.099c0.1-0.1,0.1,0.099,0.2,0.3
		c0.1,0.3,0.201,0.602,0.4,0.901c0.401,1.202,0.701,2.404,0.901,3.605c0,0.2,0.1,0.399,0.1,0.6
		C121.668,43.36,118.564,47.967,115.66,52.773z"/>
</g>
</svg>
