<?xml version="1.0" encoding="utf-8"?>
<!-- Generator: Adobe Illustrator 16.0.0, SVG Export Plug-In . SVG Version: 6.00 Build 0)  -->
<!DOCTYPE svg PUBLIC "-//W3C//DTD SVG 1.1//EN" "http://www.w3.org/Graphics/SVG/1.1/DTD/svg11.dtd">
<svg version="1.1" id="_x35_0m" xmlns="http://www.w3.org/2000/svg" xmlns:xlink="http://www.w3.org/1999/xlink" x="0px" y="0px"
	 width="144px" height="144px" viewBox="0 0 144 144" enable-background="new 0 0 144 144" xml:space="preserve">
<g>
	<g>
		<g>
			<defs>
				<polygon id="SVGID_5_" points="1,-213.87 2,-213.87 1,-212.87 				"/>
			</defs>
			<defs>
				<polygon id="SVGID_6_" points="-1,-215.87 -2,-215.87 -1,-216.87 				"/>
			</defs>
			<clipPath id="SVGID_4_">
				<use xlink:href="#SVGID_5_"  overflow="visible"/>
			</clipPath>
			<clipPath id="SVGID_7_" clip-path="url(#SVGID_4_)">
				<use xlink:href="#SVGID_6_"  overflow="visible"/>
			</clipPath>
		</g>
	</g>
</g>
<g>
	<g>
		<g>
			<defs>
				<polygon id="SVGID_31_" points="1,-213.87 2,-213.87 1,-212.87 				"/>
			</defs>
			<defs>
				<polygon id="SVGID_32_" points="-1,-215.87 -2,-215.87 -1,-216.87 				"/>
			</defs>
			<clipPath id="SVGID_8_">
				<use xlink:href="#SVGID_31_"  overflow="visible"/>
			</clipPath>
			<clipPath id="SVGID_11_" clip-path="url(#SVGID_8_)">
				<use xlink:href="#SVGID_32_"  overflow="visible"/>
			</clipPath>
		</g>
	</g>
</g>
<g>
	<path id="path19" fill="#010101" d="M40.69,88.323h0.402l12.665-65.956h17.991l-19.801,89.155H29.634L9.933,22.367h18.595
		L40.69,88.323z"/>
	<path id="path21" fill="#010101" d="M115.875,44.681c-0.403-1.708-0.906-3.216-1.708-4.624c-0.805-1.406-1.81-2.612-3.117-3.518
		c-1.307-0.904-2.713-1.407-4.523-1.407c-4.221,0-7.237,2.313-9.046,7.036c-1.809,4.624-2.814,12.363-2.814,23.118
		c0,5.125,0.201,9.851,0.502,13.971c0.302,4.222,0.904,7.74,1.708,10.655c0.804,2.914,2.01,5.228,3.619,6.733
		c1.609,1.609,3.618,2.313,6.132,2.313c1.005,0,2.211-0.302,3.417-0.805c1.206-0.502,2.412-1.406,3.518-2.513
		c1.106-1.104,2.01-2.513,2.713-4.321c0.703-1.709,1.106-3.72,1.106-6.131v-8.846h-11.459V63.778h28.144v46.437h-12.765v-7.939
		h-0.201c-2.11,3.417-4.624,5.729-7.538,7.136c-2.915,1.408-6.433,2.111-10.554,2.111c-5.328,0-9.65-0.904-12.967-2.813
		c-3.316-1.812-5.93-4.726-7.839-8.545c-1.91-3.82-3.116-8.645-3.819-14.272c-0.704-5.63-1.005-12.264-1.005-19.701
		c0-7.237,0.502-13.569,1.407-19.098c0.905-5.528,2.513-10.052,4.724-13.669c2.212-3.619,5.228-6.434,8.947-8.242
		c3.719-1.81,8.343-2.814,13.871-2.814c9.448,0,16.283,2.313,20.504,7.036s6.233,11.458,6.233,20.203h-16.686
		C116.377,47.998,116.177,46.39,115.875,44.681z"/>
</g>
</svg>
