<?xml version="1.0" encoding="utf-8"?>
<!-- Generator: Adobe Illustrator 16.0.0, SVG Export Plug-In . SVG Version: 6.00 Build 0)  -->
<!DOCTYPE svg PUBLIC "-//W3C//DTD SVG 1.1//EN" "http://www.w3.org/Graphics/SVG/1.1/DTD/svg11.dtd">
<svg version="1.1" id="_x35_0m" xmlns="http://www.w3.org/2000/svg" xmlns:xlink="http://www.w3.org/1999/xlink" x="0px" y="0px"
	 width="144px" height="144px" viewBox="0 0 144 144" enable-background="new 0 0 144 144" xml:space="preserve">
<g>
	<g>
		<g>
			<defs>
				<polygon id="SVGID_5_" points="-213.87,-428.74 -212.87,-428.74 -213.87,-427.74 				"/>
			</defs>
			<defs>
				<polygon id="SVGID_6_" points="-215.87,-430.74 -216.87,-430.74 -215.87,-431.74 				"/>
			</defs>
			<clipPath id="SVGID_4_">
				<use xlink:href="#SVGID_5_"  overflow="visible"/>
			</clipPath>
			<clipPath id="SVGID_7_" clip-path="url(#SVGID_4_)">
				<use xlink:href="#SVGID_6_"  overflow="visible"/>
			</clipPath>
		</g>
	</g>
</g>
<g>
	<g>
		<g>
			<defs>
				<polygon id="SVGID_31_" points="-213.87,-428.74 -212.87,-428.74 -213.87,-427.74 				"/>
			</defs>
			<defs>
				<polygon id="SVGID_32_" points="-215.87,-430.74 -216.87,-430.74 -215.87,-431.74 				"/>
			</defs>
			<clipPath id="SVGID_8_">
				<use xlink:href="#SVGID_31_"  overflow="visible"/>
			</clipPath>
			<clipPath id="SVGID_11_" clip-path="url(#SVGID_8_)">
				<use xlink:href="#SVGID_32_"  overflow="visible"/>
			</clipPath>
		</g>
	</g>
</g>
<g>
	<path fill="#C8C8C8" d="M2.255,19.092L2.255,19.092L15.79,34.856l15.828,12.122c0.078,0.077,0.154,0.155,0.232,0.231l12.738,14.901
		c1.623,0.619,5.945,3.089,10.811,13.281l2.16,3.397c0.156,0.232,0.232,0.541,0.232,0.772l0.154,5.868c0,0.154,0,0.309-0.076,0.463
		l-2.395,8.339l1.158,3.397l3.707,10.038c0.076,0.154,0.076,0.386,0.076,0.617l-0.309,8.88c0,0.23-0.076,0.386-0.154,0.616
		l-4.941,10.888l-0.848,4.015l0.77,4.401l1.176,4.546h28.811l3.447-10.801l-0.617-3.475l-2.549-6.022
		c-0.076-0.154-0.076-0.309-0.154-0.463l-0.385-6.022c0-0.231,0-0.386,0.076-0.617l1.158-3.243l-0.387-7.181l-2.006-6.255
		c-0.078-0.309-0.078-0.539,0-0.849l1.389-5.481c0.078-0.155,0.078-0.309,0.154-0.387l1.932-3.243l1.08-8.339
		c0-0.154,0.076-0.309,0.154-0.387l3.783-8.724c0.078-0.154,0.154-0.31,0.309-0.464l9.807-10.654
		c0.541-1.545,3.242-8.108,8.262-11.582L121.8,35.859c0.078-0.076,0.232-0.229,0.387-0.308l11.197-6.101l8.588-9.969L126.036,4.869
		l-11.184,5.975l-4.248,14.438c-0.154,0.386-0.385,0.771-0.771,0.927l-10.578,5.637L81.419,51.147
		c-0.309,0.31-0.695,0.464-1.08,0.542l-7.336,6.563c-0.539,0.54-1.467,0.54-2.008,0l-2.625-2.239c-0.076,0-0.076-0.077-0.154-0.077
		l-5.713-5.944c-0.232,0-0.541-0.079-0.773-0.232L44.126,39.721c-0.154-0.077-0.309-0.231-0.463-0.386l-6.332-8.107l-0.076-0.077
		l-9.266-13.977L16.562,4.357v0.187L2.255,19.092z"/>
	<g>
		<path fill="#898989" d="M142.925,20.357l-0.953-0.875l-8.588,9.969l-11.197,6.101c-0.154,0.078-0.309,0.231-0.387,0.308
			l-11.426,11.583c-5.02,3.474-7.721,10.037-8.262,11.582l-9.807,10.654c-0.154,0.154-0.23,0.31-0.309,0.464l-3.783,8.724
			c-0.078,0.078-0.154,0.232-0.154,0.387l-1.08,8.339l-1.932,3.243c-0.076,0.078-0.076,0.231-0.154,0.387l-1.389,5.481
			c-0.078,0.31-0.078,0.54,0,0.849l2.006,6.255l0.387,7.181l-1.158,3.243c-0.076,0.231-0.076,0.386-0.076,0.617l0.385,6.022
			c0.078,0.154,0.078,0.309,0.154,0.463l2.549,6.022l0.617,3.475l-3.447,10.801h1.49h1.713l3.178-10.105
			c0.078-0.23,0.154-0.463,0.078-0.695l-0.695-4.015c0-0.077,0-0.231-0.078-0.308l-2.471-5.946l-0.385-5.481l1.08-3.243
			c0.076-0.231,0.076-0.386,0.076-0.618l-0.385-7.721c0-0.155,0-0.232-0.076-0.386l-1.93-6.023l1.234-4.863l1.93-3.321
			c0.154-0.23,0.232-0.386,0.232-0.617l1.08-8.493l3.553-8.339l9.807-10.732c0.152-0.155,0.23-0.31,0.309-0.54
			c0.076-0.078,2.471-7.181,7.334-10.424c0.078-0.077,0.154-0.154,0.232-0.232l11.35-11.505L134.851,32
			c0.152-0.154,0.309-0.232,0.461-0.387l8.688-10.271L142.925,20.357z"/>
		<path fill="#898989" d="M109.833,26.209c0.387-0.155,0.617-0.541,0.771-0.927l4.248-14.438l11.184-5.975l-1.242-1.14l-1.295-1.188
			l-10.732,5.754c-0.385,0.23-0.617,0.541-0.771,0.927l-4.246,14.517l-10.27,5.404c-0.154,0.076-0.232,0.153-0.385,0.308
			L80.106,47.982c-0.232,0.077-0.541,0.154-0.771,0.386l-7.336,6.563l-1.545-1.312l-6.871-7.104
			c-0.463-0.463-1.156-0.617-1.775-0.308l-15.828-9.034l-6.176-7.876L30.46,15.321c-0.076,0-0.076-0.076-0.154-0.154L18.845,2.369
			l-1.156,1.007l-1.127,0.981l11.428,12.816l9.266,13.977l0.076,0.077l6.332,8.107c0.154,0.154,0.309,0.309,0.463,0.386
			l17.604,10.038c0.232,0.153,0.541,0.232,0.773,0.232l5.713,5.944c0.078,0,0.078,0.077,0.154,0.077l2.625,2.239
			c0.541,0.54,1.469,0.54,2.008,0l7.336-6.563c0.385-0.078,0.771-0.232,1.08-0.542l17.836-19.302L109.833,26.209z"/>
		<path fill="#898989" d="M56.634,97.63l-1.158-3.397l2.395-8.339c0.076-0.154,0.076-0.309,0.076-0.463l-0.154-5.868
			c0-0.231-0.076-0.54-0.232-0.772l-2.16-3.397C50.534,65.2,46.212,62.73,44.589,62.111L31.851,47.21
			c-0.078-0.076-0.154-0.154-0.232-0.231L15.79,34.856L2.255,19.092l-1.15,1.107l-1.104,1.065l13.473,15.753
			c0.076,0.078,0.154,0.155,0.23,0.232l15.83,12.123l12.895,15.056c0.309,0.309,0.539,0.464,0.926,0.54
			c0.076,0,4.168,1.081,9.266,11.814c0,0,0.076,0.077,0.076,0.154l2.008,3.088l0.154,5.173l-2.471,8.571
			c-0.078,0.309-0.078,0.617,0,0.926l1.313,3.938l3.629,9.806l-0.309,8.262l-4.865,10.811c0,0.075-0.076,0.23-0.076,0.308
			l-0.928,4.479c0,0.154,0,0.386,0,0.539l0.773,4.788c0,0.078,0,0.078,0,0.154l0.986,3.852h1.49h1.709l-1.176-4.546l-0.77-4.401
			l0.848-4.015l4.941-10.888c0.078-0.23,0.154-0.386,0.154-0.616l0.309-8.88c0-0.231,0-0.463-0.076-0.617L56.634,97.63z"/>
	</g>
</g>
</svg>
