<?xml version="1.0" encoding="utf-8"?>
<!-- Generator: Adobe Illustrator 16.0.0, SVG Export Plug-In . SVG Version: 6.00 Build 0)  -->
<!DOCTYPE svg PUBLIC "-//W3C//DTD SVG 1.1//EN" "http://www.w3.org/Graphics/SVG/1.1/DTD/svg11.dtd">
<svg version="1.1" id="_x35_0m" xmlns="http://www.w3.org/2000/svg" xmlns:xlink="http://www.w3.org/1999/xlink" x="0px" y="0px"
	 width="144px" height="144px" viewBox="0 0 144 144" enable-background="new 0 0 144 144" xml:space="preserve">
<g>
	<g>
		<g>
			<defs>
				<polygon id="SVGID_5_" points="1,-428.74 2,-428.74 1,-427.74 				"/>
			</defs>
			<defs>
				<polygon id="SVGID_6_" points="-1,-430.74 -2,-430.74 -1,-431.74 				"/>
			</defs>
			<clipPath id="SVGID_4_">
				<use xlink:href="#SVGID_5_"  overflow="visible"/>
			</clipPath>
			<clipPath id="SVGID_7_" clip-path="url(#SVGID_4_)">
				<use xlink:href="#SVGID_6_"  overflow="visible"/>
			</clipPath>
		</g>
	</g>
</g>
<g>
	<g>
		<g>
			<defs>
				<polygon id="SVGID_31_" points="1,-428.74 2,-428.74 1,-427.74 				"/>
			</defs>
			<defs>
				<polygon id="SVGID_32_" points="-1,-430.74 -2,-430.74 -1,-431.74 				"/>
			</defs>
			<clipPath id="SVGID_8_">
				<use xlink:href="#SVGID_31_"  overflow="visible"/>
			</clipPath>
			<clipPath id="SVGID_11_" clip-path="url(#SVGID_8_)">
				<use xlink:href="#SVGID_32_"  overflow="visible"/>
			</clipPath>
		</g>
	</g>
</g>
<g>
	<path fill="#C8C8C8" d="M57.114,139.007l-1.542-12.716l-1.541-13.297c0-0.192,0-0.386,0-0.482l1.252-14.355l1.252-11.273
		l-2.89-13.393c0-0.096,0-0.096,0-0.096l-1.831-11.466c0-0.097,0-0.29,0-0.385v-4.625c0-0.868,0.385-1.639,1.06-2.12l7.419-5.491
		c0.385-0.29,0.868-0.482,1.35-0.482l13.199-1.061l12.14-5.106c0.29-0.095,0.579-0.192,0.867-0.192l14.549-0.674
		c0.385,0,0.674,0,1.06,0.192l6.263,2.408l11.176,1.445l13.2-0.771l3.511-0.831V11.602l-3.704-0.835L116.08,6.913l-10.117-1.541
		L90.354,9.225c-0.193,0.098-0.482,0.098-0.675,0.098L74.842,8.937c-0.192,0-0.289,0-0.481-0.097l-8.189-1.734l-17.439,1.35
		l-11.369,2.987c-0.097,0-0.29,0.096-0.386,0.096l-8.96,0.866l-7.901,5.397l-6.455,11.851l0.771,6.839l3.757,19.752
		c0,0.192,0.097,0.387,0.097,0.579L17.9,67.806c0,0.192,0,0.482-0.096,0.675l-3.276,10.889l2.409,16.186l2.12,11.273
		c0.096,0.385,0.096,0.77-0.096,1.154l-2.987,10.889l-4.239,18.498L12.775,144h43.114L57.114,139.007z"/>
	<g>
		<path fill="#898989" d="M135.157,5.564l-17.921-3.854c-0.097,0-0.097,0-0.193,0l-10.695-1.64c-0.385-0.095-0.674-0.095-1.059,0
			L89.487,3.927l-14.26-0.386l-8.286-1.734c-0.29-0.096-0.481-0.096-0.771-0.096L48.154,3.156c-0.193,0-0.289,0.095-0.482,0.095
			l-11.658,3.18l-9.346,0.867c-0.482,0.097-0.867,0.193-1.253,0.481l-8.961,6.167c-0.289,0.192-0.578,0.482-0.771,0.868
			l-7.13,13.104c-0.193,0.48-0.385,0.963-0.289,1.542l0.867,7.707c0,0.097,0,0.097,0,0.192l3.854,19.655l-0.289,10.311L9.324,78.403
			c-0.096,0.386-0.192,0.771-0.096,1.158l2.505,16.859l2.023,10.792l-2.89,10.405l-4.432,19.078c0,0.288-0.096,0.673,0,0.963
			L7.47,144h2.691h2.614l-1.042-6.631l4.239-18.498l2.987-10.889c0.192-0.385,0.192-0.77,0.096-1.154l-2.12-11.273l-2.409-16.186
			l3.276-10.889c0.096-0.192,0.096-0.482,0.096-0.675l0.385-10.983c0-0.192-0.097-0.387-0.097-0.579l-3.757-19.752l-0.771-6.839
			l6.455-11.851l7.901-5.397l8.96-0.866c0.097,0,0.29-0.096,0.386-0.096l11.369-2.987l17.439-1.35L74.36,8.84
			c0.193,0.097,0.29,0.097,0.481,0.097l14.837,0.386c0.193,0,0.482,0,0.675-0.098l15.608-3.853l10.117,1.541l17.824,3.854
			l3.704,0.835V8.884V6.127L135.157,5.564z"/>
		<path fill="#898989" d="M120.897,45.838l-11.176-1.445l-6.263-2.408c-0.386-0.192-0.674-0.192-1.06-0.192l-14.549,0.674
			c-0.289,0-0.578,0.098-0.867,0.192l-12.14,5.106l-13.199,1.061c-0.482,0-0.964,0.192-1.35,0.482l-7.419,5.491
			c-0.674,0.481-1.06,1.252-1.06,2.12v4.625c0,0.095,0,0.288,0,0.385l1.831,11.466c0,0,0,0,0,0.096l2.89,13.393l-1.252,11.273
			l-1.252,14.355c0,0.097,0,0.29,0,0.482l1.541,13.297l1.542,12.716L55.889,144h2.745h2.548l1.039-4.316
			c0.096-0.29,0.096-0.677,0.096-0.965l-1.638-13.104l-1.445-13.007l1.252-14.067l1.349-11.562c0.097-0.289,0.097-0.579,0-0.866
			L58.848,72.43l-1.831-11.176v-3.18l5.685-4.238l12.912-1.062c0.289,0,0.481-0.095,0.771-0.192l12.043-5.01l13.682-0.577
			l6.069,2.313c0.193,0,0.385,0.095,0.579,0.095l11.851,1.445c0.192,0,0.289,0,0.481,0l13.682-0.77c0.097,0,0.289-0.097,0.385-0.097
			l2.452-0.563v-2.564v-2.618l-3.511,0.831L120.897,45.838z"/>
	</g>
</g>
</svg>
