<?xml version="1.0" encoding="utf-8"?>
<!-- Generator: Adobe Illustrator 16.0.0, SVG Export Plug-In . SVG Version: 6.00 Build 0)  -->
<!DOCTYPE svg PUBLIC "-//W3C//DTD SVG 1.1//EN" "http://www.w3.org/Graphics/SVG/1.1/DTD/svg11.dtd">
<svg version="1.1" id="_x35_0m" xmlns="http://www.w3.org/2000/svg" xmlns:xlink="http://www.w3.org/1999/xlink" x="0px" y="0px"
	 width="144px" height="144px" viewBox="0 0 144 144" enable-background="new 0 0 144 144" xml:space="preserve">
<g>
	<path fill="#C8C8C8" d="M79.309,52.011l0.454-11.804l1.663-16.677l0.604-23.073h-19.13l-3.403,9.594l3.025,13.479l-2.345,11.65
		l1.739,15.154L44.599,40.36l-6.2-7.997l-9.149-13.858L16.923,4.646l-16.182,16.6l14.291,16.831l15.577,12.03l12.78,15.002
		c0,0,4.537,0.686,10.132,12.488l2.194,3.427l0.15,5.788l-2.495,8.681l1.285,3.808l3.63,9.976l-0.302,8.758l-4.916,10.89
		l-0.907,4.415l0.757,4.723l1.512,5.938l30.398-0.151l3.781-12.107l-0.681-3.961l-2.571-6.092l-0.378-5.938l1.21-3.504l-0.378-7.615
		l-2.041-6.32l1.361-5.406l2.041-3.504l1.135-8.528l3.704-8.682l9.756-10.812c0,0,2.494-7.54,7.713-11.043l11.267-11.498
		l11.268-6.092l9.604-11.193L124.377,5.482l-12.553,6.777l-4.387,14.927L96.852,32.82L79.309,52.011z"/>
	<path fill="#898989" d="M79.609,54.447c0.53,0.228,1.21,0.076,1.664-0.38l17.393-19.114l10.359-5.482
		c0.378-0.153,0.605-0.533,0.756-0.914l4.387-14.24l11.04-5.939l2.763-1.458l-1.704-1.588c-0.454-0.457-1.135-0.533-1.739-0.229
		l-12.553,6.7c-0.378,0.229-0.604,0.534-0.756,0.914l-4.16,14.316l-10.057,5.33c-0.151,0.076-0.227,0.153-0.378,0.306l-14.821,16.22
		l0.302-7.616l1.589-16.6v-0.077l0.681-23.072c0-0.381-0.151-0.762-0.454-1.066C83.693,0.152,83.239,0,82.861,0H81.44l-0.167,3.047
		l-0.529,21.474l-1.588,16.601v0.076L78.703,53C78.627,53.61,79.081,54.219,79.609,54.447z"/>
	<path fill="#898989" d="M28.87,20.561l9.074,13.783l0.075,0.075l6.201,7.997c0.151,0.152,0.302,0.305,0.453,0.38l17.241,9.899
		c0.529,0.229,1.134,0.229,1.588-0.075c0.453-0.305,0.757-0.837,0.681-1.448l-1.739-14.925l2.345-11.346
		c0.075-0.229,0.075-0.457,0-0.686l-2.95-13.021l2.874-8.148L65.465,0h-1.735c-0.681,0-1.209,0.38-1.437,0.99l-3.402,9.594
		c-0.151,0.229-0.151,0.534-0.076,0.838l3.024,13.174l-2.344,11.271c0,0.152,0,0.304,0,0.457l1.437,12.184l-14.442-8.301
		l-6.051-7.768L31.29,18.656c-0.076-0.075-0.076-0.075-0.151-0.151L18.813,4.646c-0.227-0.382-0.681-0.533-1.06-0.533
		c-0.453,0-0.831,0.151-1.134,0.457l-1.042,1.069l2.102,2.281L28.87,20.561z"/>
	<path fill="#898989" d="M143.508,21.397l-1.044-0.972l-1.906,2.342l-8.468,9.901l-10.966,6.016c-0.15,0-0.303,0.152-0.378,0.229
		l-11.191,11.422c-4.915,3.427-7.563,9.899-8.091,11.423L91.86,72.267c-0.151,0.152-0.228,0.305-0.304,0.457l-3.704,8.604
		c-0.076,0.076-0.151,0.229-0.151,0.38l-1.06,8.225l-1.89,3.199c-0.075,0.076-0.075,0.229-0.151,0.38l-1.361,5.406
		c-0.075,0.307-0.075,0.533,0,0.839l1.966,6.167l0.379,7.083l-1.135,3.198c-0.075,0.229-0.075,0.381-0.075,0.608l0.378,5.94
		c0.075,0.152,0.075,0.306,0.15,0.457l2.496,5.939l0.604,3.427l-3.374,10.646v0.775h2.896l3.353-10.736
		c0.076-0.229,0.151-0.457,0.076-0.686l-0.682-3.96c0-0.075,0-0.228-0.076-0.306l-2.419-5.863l-0.378-5.405l1.059-3.199
		c0.075-0.228,0.075-0.38,0.075-0.608l-0.378-7.615c0-0.152,0-0.229-0.075-0.381L86.188,99.3l1.21-4.798l1.891-3.275
		c0.15-0.228,0.227-0.379,0.227-0.607l1.06-8.301l3.478-8.224l9.604-10.586c0.151-0.153,0.227-0.304,0.303-0.532
		c0.075-0.077,2.42-7.082,7.184-10.281c0.076-0.075,0.151-0.151,0.228-0.229l11.115-11.346l11.04-6.017
		c0.151-0.151,0.303-0.228,0.454-0.379l9.604-11.195C144.188,22.921,144.111,21.931,143.508,21.397z"/>
	<path fill="#898989" d="M56.471,143.467l-1.21-4.722l-0.757-4.341l0.832-3.959l4.84-10.661c0.076-0.229,0.151-0.381,0.151-0.61
		l0.303-8.756c0-0.229,0-0.458-0.076-0.61l-3.63-9.9l-1.135-3.35l2.345-8.223c0.076-0.153,0.076-0.305,0.076-0.458l-0.152-5.788
		c0-0.229-0.074-0.532-0.226-0.761l-2.117-3.351c-4.765-10.053-9-12.488-10.587-13.098L32.651,50.182
		c-0.076-0.075-0.152-0.15-0.228-0.227L16.922,37.999L3.613,22.388l-2.088-2.334L0.438,21.17c-0.529,0.533-0.605,1.447-0.075,2.055
		l14.291,16.832c0.075,0.074,0.151,0.15,0.228,0.227l15.502,11.956l12.628,14.925c0.302,0.305,0.528,0.457,0.907,0.533
		c0.075,0,4.084,0.989,9.074,11.65c0,0,0.075,0.077,0.075,0.153l1.967,3.045l0.15,5.103l-2.42,8.453
		c-0.075,0.305-0.075,0.609,0,0.914l1.286,3.883l3.554,9.671l-0.303,8.148l-4.763,10.661c0,0.077-0.076,0.229-0.076,0.305
		l-0.907,4.416c0,0.153,0,0.382,0,0.533l0.756,4.722c0,0.076,0,0.076,0,0.153l1.145,4.491h3.015V143.467z"/>
</g>
</svg>
