<?xml version="1.0" encoding="utf-8"?>
<!-- Generator: Adobe Illustrator 16.0.0, SVG Export Plug-In . SVG Version: 6.00 Build 0)  -->
<!DOCTYPE svg PUBLIC "-//W3C//DTD SVG 1.1//EN" "http://www.w3.org/Graphics/SVG/1.1/DTD/svg11.dtd">
<svg version="1.1" id="_x35_0m" xmlns="http://www.w3.org/2000/svg" xmlns:xlink="http://www.w3.org/1999/xlink" x="0px" y="0px"
	 width="144px" height="144px" viewBox="0 0 144 144" enable-background="new 0 0 144 144" xml:space="preserve">
<g>
	<path fill="#C8C8C8" d="M9.92,44.913l13.231,0.696l11.242-1.394l6.268-2.388c0.298-0.101,0.696-0.198,0.995-0.198l14.524,0.696
		c0.298,0,0.597,0.1,0.895,0.199L69.213,47.6l13.231,0.994c0.498,0,0.995,0.198,1.393,0.498l7.362,5.569
		c0.697,0.498,0.995,1.295,0.995,2.091v4.675c0,0.1,0,0.298,0,0.398l-1.79,11.441c0,0.098,0,0.098,0,0.098l-2.885,13.332
		l1.294,11.143l1.292,14.426c0,0.198,0,0.396,0,0.497l-1.492,13.23l-1.592,12.735L88.095,144h43.112l1.079-6.667l-4.278-18.603
		l-2.983-10.745c-0.101-0.397-0.101-0.796-0.101-1.193l2.089-11.441l2.387-16.115l-3.283-10.845c-0.1-0.198-0.1-0.398-0.1-0.695
		l-0.298-10.943c0-0.199,0-0.398,0.1-0.599l3.88-19.797l0.696-6.764l-6.466-11.84l-7.86-5.471l-8.954-0.796
		c-0.1,0-0.298,0-0.398-0.1l-11.44-2.985l-17.41-1.393L69.71,8.8c-0.199,0-0.298,0.1-0.497,0.1L54.39,9.198
		c-0.198,0-0.497,0-0.696-0.101L38.075,5.219L27.928,6.81L6.366,11.578v32.545L9.92,44.913z"/>
	<g>
		<path fill="#898989" d="M137.559,136.339l-4.377-19.201l-2.786-10.246l1.99-10.943l2.486-16.813c0-0.298,0-0.696-0.099-1.095
			l-3.383-11.042l-0.297-10.246l3.879-19.699c0-0.099,0-0.099,0-0.198l0.796-7.66c0.1-0.498,0-0.995-0.298-1.492l-7.162-13.132
			c-0.2-0.397-0.498-0.697-0.796-0.896l-8.954-6.169c-0.398-0.297-0.896-0.497-1.294-0.497l-9.352-0.895l-11.44-2.985
			C96.272,3.03,96.174,3.03,95.974,3.03L77.968,1.637c-0.298,0-0.598,0-0.796,0.1l-8.258,1.791L54.688,3.926L38.871,0.045
			c-0.299,0-0.696-0.101-0.995,0L27.132,1.736c-0.1,0-0.1,0-0.199,0L9.025,5.617l-2.659,0.63v2.718v2.613L27.928,6.81l10.147-1.591
			l15.619,3.879c0.199,0.101,0.498,0.101,0.696,0.101l14.824-0.299c0.199,0,0.298-0.1,0.497-0.1l8.158-1.791l17.41,1.393
			l11.44,2.985c0.1,0.1,0.298,0.1,0.398,0.1l8.954,0.796l7.86,5.471l6.466,11.84l-0.696,6.764l-3.88,19.797
			c-0.1,0.2-0.1,0.399-0.1,0.599l0.298,10.943c0,0.297,0,0.497,0.1,0.695l3.283,10.845l-2.387,16.115l-2.089,11.441
			c0,0.397,0,0.796,0.101,1.193l2.983,10.745l4.278,18.603L131.208,144h2.598h2.701l1.053-6.667
			C137.658,137.035,137.658,136.637,137.559,136.339z"/>
		<path fill="#898989" d="M91.199,54.661l-7.362-5.569c-0.397-0.3-0.895-0.498-1.393-0.498L69.213,47.6l-12.137-5.074
			c-0.298-0.1-0.597-0.199-0.895-0.199L41.657,41.63c-0.299,0-0.697,0.098-0.995,0.198l-6.268,2.388l-11.242,1.394L9.92,44.913
			l-3.554-0.79v2.714v2.618l2.659,0.631c0.1,0.1,0.298,0.1,0.398,0.1l13.629,0.696c0.199,0,0.299,0,0.498,0l11.838-1.592
			c0.2,0,0.398,0,0.598-0.101l6.068-2.287l13.531,0.597l12.037,5.073c0.299,0.101,0.498,0.2,0.796,0.2l12.833,0.995l5.671,4.376
			v3.185L85.13,72.47l-2.984,13.729c0,0.199,0,0.498,0,0.796l1.293,11.54l1.194,14.127l-1.493,12.934l-1.592,13.133
			c0,0.397,0,0.694,0.1,0.994l1.07,4.278h2.637h2.74l-1.075-5.272l1.592-12.735l1.492-13.23c0-0.101,0-0.299,0-0.497l-1.292-14.426
			l-1.294-11.143l2.885-13.332c0,0,0,0,0-0.098l1.79-11.441c0-0.101,0-0.299,0-0.398v-4.675
			C92.193,55.956,91.896,55.159,91.199,54.661z"/>
	</g>
</g>
</svg>
