<?xml version="1.0" encoding="utf-8"?>
<!-- Generator: Adobe Illustrator 16.0.0, SVG Export Plug-In . SVG Version: 6.00 Build 0)  -->
<!DOCTYPE svg PUBLIC "-//W3C//DTD SVG 1.1//EN" "http://www.w3.org/Graphics/SVG/1.1/DTD/svg11.dtd">
<svg version="1.1" id="_x35_0m" xmlns="http://www.w3.org/2000/svg" xmlns:xlink="http://www.w3.org/1999/xlink" x="0px" y="0px"
	 width="144px" height="144px" viewBox="0 0 144 144" enable-background="new 0 0 144 144" xml:space="preserve">
<g>
	<polygon fill="#C8C7C7" points="7.551,53.719 51.918,1.192 56.296,3.473 60.09,6.939 66.025,10.309 69.723,14.968 72.738,21.805 
		77.117,23.986 81.689,26.86 84.317,34.095 89.473,38.556 92.003,42.519 93.657,47.674 100.663,55.997 100.663,63.629 
		102.414,70.07 112.338,77.699 114.771,88.206 115.354,99.207 117.786,105.45 124.499,117.144 125.182,128.344 126.154,132.703 
		131.992,142.813 132.479,144 77.312,143.803 76.824,136.071 71.668,129.829 69.139,118.135 64.663,111.692 60.382,98.017 
		57.268,93.558 49.388,90.782 43.842,78.494 37.809,76.512 30.707,67.79 27.982,63.827 21.658,62.734 14.166,55.501 10.858,53.322 	
		"/>
	<path fill="#888888" d="M136.467,143.901l-0.389-1.188c0-0.099,0-0.198-0.098-0.297l-5.74-9.812l-0.876-3.865l-0.681-11.001
		c-0.098-0.297-0.098-0.595-0.291-0.892l-6.617-11.596l-2.237-5.748L118.954,88.8c-0.097-0.198-0.097-0.298-0.097-0.396
		l-2.433-10.506c-0.195-0.495-0.39-0.892-0.778-1.188l-9.438-7.234l-1.458-5.551v-7.335c0-0.495-0.196-0.892-0.487-1.287
		l-6.811-8.029l-1.557-4.756c0-0.198-0.099-0.297-0.194-0.494l-2.53-3.967c-0.099-0.099-0.194-0.295-0.389-0.396L88.111,33.6
		l-2.53-6.739c-0.097-0.396-0.389-0.792-0.777-0.99l-4.573-2.874c-0.097,0-0.097-0.101-0.194-0.101l-3.794-1.882l-2.725-6.146
		c-0.099-0.099-0.194-0.298-0.293-0.396l-3.697-4.658c-0.194-0.197-0.389-0.396-0.583-0.495l-5.741-3.171l-3.502-3.369
		c-0.098-0.1-0.194-0.199-0.39-0.297l-4.378-2.28c-0.875-0.396-1.849-0.199-2.433,0.494l-2.335,2.776l4.185,1.188l0.097-0.099
		l2.724,1.486l3.698,3.271c0.096,0.1,0.292,0.198,0.389,0.298l5.545,3.171l3.309,4.162l2.919,6.541
		c0.099,0.396,0.487,0.794,0.877,0.991l4.28,2.18l3.892,2.479l2.432,6.64c0.098,0.297,0.293,0.595,0.584,0.792l4.865,4.162
		l2.237,3.668l1.558,4.955c0.098,0.197,0.194,0.494,0.389,0.693l6.616,7.73v6.838c0,0.198,0.097,0.298,0.097,0.495l1.655,6.441
		c0.097,0.396,0.292,0.793,0.681,1.09l9.341,7.137l2.238,9.613l0.777,10.901c0,0.197,0,0.396,0.098,0.595l2.336,6.144
		c0,0.1,0,0.198,0.097,0.297l6.42,11.298l0.683,10.704c0.097,0.099,0.097,0.196,0.097,0.297l0.973,4.262
		c0,0.198,0.098,0.396,0.195,0.596l4.766,8.225l1.323,1.287h3.954C136.48,143.967,136.478,143.934,136.467,143.901z"/>
	<path fill="#888888" d="M81.106,142.515l-0.292-5.848c-0.097-0.396-0.194-0.892-0.488-1.188l-4.863-5.849l-2.334-11.197
		c0-0.2-0.099-0.497-0.293-0.695l-4.281-6.244l-4.183-13.278c-0.098-0.199-0.196-0.397-0.294-0.595l-3.209-4.462
		c-0.293-0.296-0.583-0.594-0.974-0.691l-7.005-2.478l-5.156-11.496c-0.195-0.496-0.682-0.894-1.168-1.091l-5.547-1.883
		l-6.713-8.126l-2.725-3.866c-0.292-0.396-0.778-0.692-1.264-0.794l-5.741-0.99l-7.005-6.837c-0.098,0-0.195-0.1-0.292-0.198
		l-2.627-1.686l-0.098,0.099l-3.989-2.773l-2.529,2.974c-0.584,0.595-0.682,1.485-0.292,2.377c0.389,0.693,1.167,1.09,1.945,0.991
		l2.919-0.595l2.53,1.686l7.298,7.136c0.29,0.297,0.681,0.396,1.07,0.494l5.546,0.893l2.236,3.271l0.098,0.099l7.104,8.723
		c0.194,0.296,0.486,0.494,0.875,0.594l5.253,1.784l5.158,11.497c0.291,0.493,0.68,0.889,1.166,1.089l7.201,2.577l2.626,3.666
		l4.185,13.28c0.098,0.297,0.194,0.396,0.292,0.595l4.28,6.145l2.433,11.297c0,0.299,0.194,0.695,0.39,0.894l4.768,5.747l0.356,6.44
		h3.714L81.106,142.515z"/>
</g>
</svg>
