<?xml version="1.0" encoding="utf-8"?>
<!-- Generator: Adobe Illustrator 16.0.0, SVG Export Plug-In . SVG Version: 6.00 Build 0)  -->
<!DOCTYPE svg PUBLIC "-//W3C//DTD SVG 1.1//EN" "http://www.w3.org/Graphics/SVG/1.1/DTD/svg11.dtd">
<svg version="1.1" id="_x35_0m" xmlns="http://www.w3.org/2000/svg" xmlns:xlink="http://www.w3.org/1999/xlink" x="0px" y="0px"
	 width="144px" height="144px" viewBox="0 0 144 144" enable-background="new 0 0 144 144" xml:space="preserve">
<g>
	<polygon fill="none" points="41.995,58.319 41.895,58.436 41.895,64.734 41.995,64.35 	"/>
	<path fill="#C8C7C7" d="M89.702,4.714l-0.101-0.1l-2.807,1.503l-3.808,3.508c-0.101,0.1-0.301,0.2-0.402,0.302l-5.712,3.206
		l-3.408,4.21l-3.006,6.615c-0.101,0.4-0.502,0.801-0.902,1.003l-4.41,2.204l-4.009,2.505l-2.506,6.716
		c-0.1,0.302-0.3,0.602-0.601,0.803l-5.011,4.209l-2.306,3.508l-1.604,5.011c-0.1,0.2-0.199,0.502-0.401,0.702l-6.714,7.701v6.03
		l-0.101,0.385v0.617c0,0.2-0.101,0.301-0.101,0.501l-1.704,6.516c-0.101,0.4-0.301,0.802-0.702,1.102l-9.621,7.217l-2.305,9.721
		l-0.196,2.404l-0.406,7.519l-0.256,0.644l-0.045,0.559c0,0.201,0,0.402-0.1,0.603l-2.406,6.214c0,0.1-0.101,0.201-0.101,0.3
		l-6.614,11.425l-0.603,9.724l-0.04,0.177l-0.06,0.925c0,0.102,0,0.2,0,0.302l-1.002,4.31c0,0.2-0.101,0.401-0.2,0.601L10.777,144
		h51.47l0.294-5.784c0.1-0.4,0.201-0.902,0.5-1.204l5.012-5.913l2.406-11.324c0-0.2,0.101-0.502,0.3-0.702l4.41-6.314l4.311-13.43
		c0.099-0.2,0.2-0.399,0.3-0.603l3.307-4.509c0.3-0.302,0.602-0.603,1.002-0.702l7.215-2.504l5.313-11.628
		c0.201-0.501,0.701-0.902,1.203-1.103l5.713-1.904l6.915-8.219l2.807-3.909c0.301-0.399,0.802-0.702,1.304-0.801l5.913-1.003
		l7.216-6.914c0.1,0,0.2-0.102,0.3-0.201l2.706-1.705l0.101,0.102l4.109-2.808l2.606,3.007c0.096,0.114,0.162,0.248,0.228,0.381
		l0.173,0.021L92.208,1.207l-0.12,0.062l1.925,2.243L89.702,4.714z"/>
	<path fill="#888888" d="M137.737,54.306c-0.065-0.133-0.132-0.267-0.228-0.381l-2.606-3.007l-4.109,2.808l-0.101-0.102
		l-2.706,1.705c-0.101,0.1-0.2,0.201-0.3,0.201l-7.216,6.914l-5.913,1.003c-0.502,0.099-1.002,0.401-1.304,0.801l-2.807,3.909
		l-6.915,8.219L97.82,78.28c-0.501,0.2-1.001,0.602-1.203,1.103l-5.313,11.628l-7.215,2.504c-0.401,0.1-0.702,0.4-1.002,0.702
		l-3.307,4.509c-0.101,0.203-0.202,0.402-0.3,0.603l-4.311,13.43l-4.41,6.314c-0.199,0.2-0.3,0.502-0.3,0.702l-2.406,11.324
		l-5.012,5.913c-0.3,0.302-0.401,0.804-0.5,1.204L62.247,144h3.893h0.145l0.264-4.682l4.912-5.813
		c0.2-0.202,0.401-0.603,0.401-0.903l2.506-11.426l4.409-6.215c0.1-0.199,0.201-0.3,0.3-0.6l4.31-13.432l2.708-3.708l7.416-2.605
		c0.502-0.201,0.902-0.601,1.203-1.103l5.312-11.626l5.412-1.805c0.401-0.1,0.702-0.299,0.902-0.601l7.317-8.82l0.099-0.101
		l2.306-3.309l5.712-0.901c0.401-0.1,0.803-0.199,1.103-0.5l7.517-7.216L133,56.932l2.706,0.302c0.802,0.1,1.604-0.302,2.005-1.002
		C138.035,55.581,138.017,54.874,137.737,54.306z"/>
	<path fill="#888888" d="M92.087,1.269l-0.481-0.563c-0.602-0.702-1.604-0.902-2.505-0.502l-4.51,2.306
		c-0.202,0.101-0.301,0.2-0.401,0.3l-3.609,3.409l-5.913,3.206c-0.201,0.102-0.4,0.3-0.602,0.502l-3.808,4.71
		c-0.1,0.101-0.201,0.301-0.301,0.402l-2.807,6.213l-3.908,1.905c-0.1,0-0.1,0.099-0.201,0.099l-4.71,2.907
		c-0.401,0.2-0.702,0.601-0.802,1.002l-2.505,7.017l-4.812,4.108c-0.2,0.101-0.3,0.301-0.401,0.401L47.206,42.7
		c-0.1,0.2-0.2,0.301-0.2,0.502l-1.503,4.81l-7.016,8.118c-0.3,0.401-0.502,0.802-0.502,1.304v7.416l-1.503,5.713l-9.722,7.316
		c-0.401,0.302-0.602,0.702-0.802,1.203l-2.506,10.524c0,0.099,0,0.2,0,0.401l-0.601,10.823l-2.306,5.813l-6.815,11.727
		c-0.2,0.303-0.2,0.603-0.301,0.902l-0.701,11.124l-0.902,3.911L6.05,144h3.924h0.804l4.657-7.89c0.1-0.199,0.2-0.4,0.2-0.601
		l1.002-4.31c0-0.102,0-0.2,0-0.302l0.06-0.925l0.04-0.177l0.603-9.724l6.614-11.425c0-0.099,0.101-0.2,0.101-0.3l2.406-6.214
		c0.1-0.2,0.1-0.401,0.1-0.603l0.045-0.559l0.256-0.644l0.406-7.519l0.196-2.404l2.305-9.721l9.621-7.217
		c0.401-0.3,0.602-0.701,0.702-1.102l1.704-6.516c0-0.2,0.101-0.301,0.101-0.501v-0.617v-6.299l0.101-0.116l6.714-7.701
		c0.202-0.2,0.301-0.502,0.401-0.702l1.604-5.011l2.306-3.508l5.011-4.209c0.301-0.201,0.501-0.501,0.601-0.803l2.506-6.716
		l4.009-2.505l4.41-2.204c0.4-0.202,0.801-0.603,0.902-1.003l3.006-6.615l3.408-4.21l5.712-3.206
		c0.101-0.102,0.301-0.202,0.402-0.302l3.808-3.508l2.807-1.503l0.101,0.1l4.311-1.202L92.087,1.269z"/>
</g>
</svg>
