<?xml version="1.0" encoding="utf-8"?>
<!-- Generator: Adobe Illustrator 16.0.0, SVG Export Plug-In . SVG Version: 6.00 Build 0)  -->
<!DOCTYPE svg PUBLIC "-//W3C//DTD SVG 1.1//EN" "http://www.w3.org/Graphics/SVG/1.1/DTD/svg11.dtd">
<svg version="1.1" id="_x35_0m" xmlns="http://www.w3.org/2000/svg" xmlns:xlink="http://www.w3.org/1999/xlink" x="0px" y="0px"
	 width="144px" height="144px" viewBox="0 0 144 144" enable-background="new 0 0 144 144" xml:space="preserve">
<g>
	<circle fill="#FCEE23" cx="71.999" cy="72" r="68.1"/>
	<path fill="#010101" d="M71.999,144c-9.698,0-19.199-1.9-27.999-5.7c-8.601-3.601-16.3-8.8-22.9-15.4
		c-6.601-6.6-11.8-14.3-15.399-22.9c-3.8-8.8-5.701-18.3-5.701-27.999c0-9.7,1.901-19.201,5.701-28.001
		c3.6-8.599,8.799-16.3,15.399-22.898C27.7,14.5,35.399,9.3,44,5.7C52.901,2,62.301,0,71.999,0C81.699,0,91.2,1.899,100,5.7
		c8.601,3.6,16.301,8.8,22.9,15.4c6.601,6.599,11.8,14.3,15.398,22.898C142.1,52.9,144.001,62.3,144.001,72
		c0,9.699-1.901,19.199-5.702,27.999c-3.599,8.601-8.798,16.301-15.398,22.9c-6.6,6.601-14.3,11.8-22.9,15.4
		C91.2,142.1,81.699,144,71.999,144z M71.999,10.3c-16.498,0-32,6.4-43.7,18.101C16.601,40.1,10.3,55.5,10.3,72s6.399,32,18.1,43.7
		c11.701,11.698,27.2,18.1,43.7,18.1c16.501,0,32-6.401,43.7-18.1c11.701-11.7,18.102-27.2,18.102-43.7s-6.4-32-18.102-43.7
		C104.1,16.6,88.499,10.3,71.999,10.3z"/>
	<path fill="#010101" d="M120.2,90.2c-2.102-5.399-4.301-10.801-6.4-16.1C108.4,60.601,102.999,47,97.699,33.4
		c-0.698-1.701-1.601-2.501-3.498-2.301c-1.802,0.199-3.701,0.301-5.502,0.399c-5.101,0.4-10.1,1.3-14.7,3.5
		C69.101,36.7,64.7,39.101,60.399,42c-4.299,2.2-8.199,5-12.3,7.4c-0.299,0.199-0.4,0.499-0.6,0.799
		C47.101,50.3,46.7,50.3,46.301,50.5c-4,2.4-8.2,4.5-12.502,6.399C29.8,58.4,25.699,59.5,21.4,60.1c-1.401,0.2-2.1,0.9-1.601,2.2
		c1.601,4,2.9,8.2,5,11.999c1.4,4.9,3.6,9.501,5.4,14.201c1.601,4.1,3.199,8.199,4.8,12.3c0.399,1.101,1,1.801,2.2,1.6
		c4.6-0.6,9.101-1.399,13.301-3.5c4.8-1.7,9.399-4,13.499-7.099c4.6-2.201,8.699-5.101,12.899-7.802
		c4.501-2.3,9.102-4.7,13.601-6.999c4.8-1.6,9.599-3,14.699-3.301c2.6,6.4,5.201,12.9,7.802,19.3c0.999,2.501,2.6,3.2,4.999,2.2
		C120.499,94.299,121.201,92.7,120.2,90.2z"/>
</g>
</svg>
