<?xml version="1.0" encoding="utf-8"?>
<!-- Generator: Adobe Illustrator 16.0.0, SVG Export Plug-In . SVG Version: 6.00 Build 0)  -->
<!DOCTYPE svg PUBLIC "-//W3C//DTD SVG 1.1//EN" "http://www.w3.org/Graphics/SVG/1.1/DTD/svg11.dtd">
<svg version="1.1" id="_x35_0m" xmlns="http://www.w3.org/2000/svg" xmlns:xlink="http://www.w3.org/1999/xlink" x="0px" y="0px"
	 width="144px" height="144px" viewBox="0 0 144 144" enable-background="new 0 0 144 144" xml:space="preserve">
<g>
	<path fill="#A3D6F3" d="M25.475,47.135h5.146c0,0,11.604-8.072,14.328-7.87c0,0,22.602-2.422,24.821-0.303
		c0,0,11.301,3.027,11.502,4.742c0,0,10.696-2.522,20.988,5.65c0,0,17.959,4.742,25.426,4.439c0,0,15.438,13.42,15.336,21.693
		c0,0,1.11,17.354-6.054,18.565c0,0-7.063,1.109-8.577,1.109c-1.513,0,1.615,0,1.615,0s-3.532,4.743-11.099,6.257l-11.604-0.707
		c0,0-9.989,3.532-11.099,1.716c0,0-5.247,3.531-6.659,2.825l-10.494-1.816c0,0-15.337,0.808-17.153,2.22
		c0,0-30.875,1.21-36.425-1.211c0,0-20.886-11.099-23.207-15.539c0,0-2.018-8.072-0.303-12.914l1.917-15.034
		C3.883,60.958,9.432,52.482,25.475,47.135z"/>
	<path fill="#010101" d="M45.857,107.271c-8.476,0-17.758-0.303-20.886-1.715c-2.22-1.11-21.29-11.503-23.812-16.145
		c0-0.101-0.101-0.201-0.101-0.201c-0.101-0.304-2.119-8.376-0.303-13.521l1.917-14.933c0-0.201,0.101-0.303,0.202-0.605
		c0.202-0.303,6.054-8.879,22.198-14.327c0.101,0,0.202-0.102,0.303-0.102h4.742c3.027-2.118,11.604-7.869,14.63-7.869
		c0,0,0,0,0.101,0c6.659-0.707,22.097-2.019,25.325-0.202c7.568,2.018,10.393,3.531,11.503,4.541
		c2.724-0.404,11.906-1.11,20.987,5.852c2.119,0.605,18.162,4.642,24.821,4.339c0.303,0,0.606,0.101,0.808,0.303
		c0.706,0.604,15.841,13.823,15.639,22.601c0.101,1.816,0.908,18.363-7.063,19.776c-0.605,0.101-3.935,0.707-6.458,0.908
		c-0.908,1.11-4.641,5.146-11.704,6.356c-0.101,0-0.202,0-0.303,0l-11.301-0.605c-5.65,1.917-9.384,2.624-11.2,1.917
		c-2.522,1.615-5.448,3.128-7.063,2.624l-9.989-1.816c-7.063,0.303-15.337,1.211-16.346,1.917c-0.202,0.101-0.404,0.202-0.707,0.202
		C60.386,107.069,53.424,107.271,45.857,107.271z M3.479,88.402c1.917,3.027,14.529,10.695,22.702,14.934
		c4.238,1.917,26.738,1.514,35.516,1.109c2.825-1.312,13.924-2.018,17.456-2.22c0.101,0,0.201,0,0.302,0l10.191,1.917
		c0.101,0,0.202,0,0.202,0.102l0,0c0.707,0,3.128-1.212,5.449-2.725c0.202-0.202,0.605-0.202,0.908-0.202
		c0.202,0,0.404,0.202,0.706,0.403c1.009,0.304,5.449-0.605,9.787-2.118c0.101,0,0.303-0.102,0.404-0.102l11.502,0.706
		c4.036-0.807,6.962-2.623,8.476-3.935c-0.302-0.202-0.606-0.605-0.606-1.009c0-0.707,0.606-1.211,1.211-1.211h0.404
		c1.21,0,6.457-0.808,8.374-1.109c4.944-0.908,5.348-13.117,4.944-17.354c0.101-6.256-10.09-16.548-14.529-20.483
		c-7.871,0.102-24.619-4.338-25.326-4.54c-0.101,0-0.302-0.101-0.403-0.202c-9.787-7.87-19.877-5.549-19.978-5.448
		c-0.303,0.102-0.706,0-1.008-0.202c-0.203-0.101-0.304-0.303-0.404-0.706c-0.807-0.908-6.155-2.725-10.594-3.936
		c-0.202,0-0.303-0.101-0.404-0.201c-1.513-1.009-13.521-0.403-23.812,0.706c-0.101,0-0.202,0-0.202,0
		c-1.312-0.201-8.072,3.733-13.521,7.567c-0.202,0.102-0.403,0.202-0.707,0.202h-4.843C11.854,53.088,6.001,60.05,4.993,61.463
		l-1.816,14.73c0,0.101,0,0.202-0.101,0.202C1.663,80.532,3.076,87.394,3.479,88.402z M1.966,76.093L1.966,76.093L1.966,76.093z
		 M79.859,43.906L79.859,43.906L79.859,43.906z"/>
</g>
</svg>
