<?xml version="1.0" encoding="utf-8"?>
<!-- Generator: Adobe Illustrator 16.0.0, SVG Export Plug-In . SVG Version: 6.00 Build 0)  -->
<!DOCTYPE svg PUBLIC "-//W3C//DTD SVG 1.1//EN" "http://www.w3.org/Graphics/SVG/1.1/DTD/svg11.dtd">
<svg version="1.1" id="_x35_0m" xmlns="http://www.w3.org/2000/svg" xmlns:xlink="http://www.w3.org/1999/xlink" x="0px" y="0px"
	 width="144px" height="144px" viewBox="0 0 144 144" enable-background="new 0 0 144 144" xml:space="preserve">
<g>
	<path fill="#597FAC" d="M130.887,68.569c-1.858,0-4.108-0.979-6.065-2.641c-3.522-2.936-6.947-2.936-10.567,0
		c-4.402,3.619-9.196,3.619-13.599,0c-3.522-2.936-6.947-3.033-10.567-0.099c-4.599,3.718-9.196,3.718-13.697,0
		c-3.131-2.642-5.87-2.642-9.001,0c-4.5,3.718-9.393,3.718-13.99-0.098c-3.131-2.642-6.654-2.642-9.785-0.195
		c-5.576,4.207-9.294,4.207-14.676,0c-2.935-2.349-6.457-2.349-9.49,0c-5.576,4.305-9.196,4.305-14.577,0
		c-1.077-0.783-2.251-1.468-3.522-1.663c-1.369-0.196-1.467-0.979-1.271-1.957c0.195-1.272,1.174-0.686,1.859-0.588
		c1.956,0.294,3.521,1.175,4.988,2.447c3.621,3.032,6.85,2.934,10.469-0.099c4.305-3.62,9.295-3.521,13.6,0.099
		c3.327,2.836,6.947,2.934,10.371,0.098c4.795-3.914,9.393-3.914,14.09,0.098c3.13,2.641,6.75,2.641,9.979,0.098
		c4.795-3.816,8.219-3.816,12.915,0c3.032,2.446,6.556,2.543,9.589,0.098c5.282-4.207,9.391-4.207,14.479,0
		c3.131,2.543,6.752,2.445,9.883,0c5.087-4.109,9.393-4.109,14.48,0.098c3.13,2.544,6.848,2.445,9.979-0.195
		c1.566-1.37,3.326-2.349,5.381-2.642c0.588-0.099,1.566-0.489,1.664,0.587c0.098,0.783,0.293,1.762-1.076,1.859
		c-1.957,0.195-3.426,1.369-4.893,2.543C136.17,67.982,134.018,68.667,130.887,68.569z"/>
	<path fill="#597FAC" d="M131.669,95.182c-2.543-0.098-4.696-0.88-6.652-2.544c-3.914-3.131-7.143-3.131-10.859,0
		c-4.109,3.425-9.002,3.425-13.209,0c-3.914-3.131-7.045-3.229-10.86-0.098c-4.501,3.62-9.196,3.522-13.599-0.195
		c-3.131-2.642-5.773-2.74-9.002,0c-4.598,3.718-9.393,3.718-13.99,0c-3.229-2.74-6.947-2.74-10.176,0
		c-4.696,3.914-9.393,3.914-14.089-0.099c-3.032-2.543-6.653-2.642-9.784-0.097c-5.576,4.206-9,4.206-14.577-0.098
		c-0.979-0.784-2.153-1.37-3.327-1.469c-1.369-0.098-1.467-0.782-1.369-1.858c0.195-1.468,1.271-0.782,1.957-0.685
		c1.858,0.293,3.326,1.174,4.793,2.348c3.523,3.033,6.947,3.033,10.469,0.098c4.502-3.719,9.197-3.719,13.697,0.098
		c3.229,2.74,6.947,2.74,10.176,0.196c5.088-4.013,9.295-4.013,14.285,0c3.032,2.445,6.75,2.544,9.881,0.097
		c5.186-4.011,7.926-4.011,13.307,0.197c2.739,2.151,6.457,2.151,9.295,0c5.479-4.307,9.293-4.307,14.578-0.099
		c3.032,2.349,6.848,2.642,9.588,0c4.011-3.913,10.566-4.011,14.772,0c2.837,2.739,6.752,2.446,9.98-0.293
		c1.663-1.37,3.425-2.349,5.575-2.642c0.686-0.098,1.371-0.196,1.371,0.782c0,0.685,0.488,1.663-0.783,1.761
		c-2.152,0.196-3.718,1.469-5.283,2.74C136.073,94.595,133.919,95.182,131.669,95.182z"/>
	<path fill="#597FAC" d="M83.63,56.536c-2.641-0.098-4.891-0.979-6.945-2.643c-3.619-2.935-5.871-2.935-9.49,0.098
		c-4.012,3.327-9.197,3.327-13.209-0.098c-3.717-3.033-7.143-3.033-10.957,0c-4.207,3.425-9.197,3.326-13.404-0.195
		c-3.424-2.936-6.947-2.838-10.566,0c-4.402,3.521-9.295,3.62-13.6,0c-1.271-0.979-2.544-1.859-4.109-2.055
		c-1.174-0.098-1.271-0.881-1.174-1.762c0.098-1.369,1.076-0.88,1.762-0.781c1.956,0.293,3.619,1.271,5.185,2.543
		c3.522,2.936,6.946,2.936,10.567-0.098c4.402-3.62,9.294-3.62,13.501,0c3.425,2.936,6.946,2.936,10.469,0
		c4.501-3.718,9.392-3.718,13.991,0.195c3.131,2.642,6.848,2.642,9.979,0c4.6-3.815,8.121-3.815,12.72-0.098
		c3.327,2.642,6.946,2.642,10.175,0c4.696-3.913,9.295-3.913,13.893,0c3.327,2.739,6.947,2.739,10.372-0.098
		c4.501-3.718,9.49-3.718,13.991,0.098c3.13,2.642,6.75,2.739,9.979,0.098c1.663-1.468,3.521-2.543,5.771-2.739
		c0.588,0,1.371-0.489,1.371,0.587c0,0.685,0.488,1.762-0.686,1.859c-2.445,0.195-4.01,1.859-5.869,3.131
		c-3.62,2.543-8.514,2.25-11.938-0.588c-4.108-3.326-7.141-3.424-11.25-0.098s-9.197,3.229-13.307-0.195
		c-3.619-3.033-7.143-3.033-10.664,0C88.132,55.655,85.979,56.438,83.63,56.536z"/>
	<path fill="#597FAD" d="M119.733,77.179c-2.055-0.098-3.719,0.686-5.186,1.957c-4.696,3.914-9.295,3.914-14.088-0.098
		c-2.936-2.445-6.752-2.543-9.883-0.098c-5.283,4.207-9.294,4.207-14.479,0c-2.838-2.348-5.577-2.25-8.513,0
		c-5.088,4.012-9.295,4.012-14.284,0c-3.131-2.445-6.751-2.445-9.784,0c-5.087,4.109-9.294,4.109-14.284,0
		c-3.032-2.445-6.849-2.445-9.882,0c-5.186,4.109-9.295,4.109-14.479,0c-1.077-0.881-2.153-1.565-3.522-1.663
		c-1.369-0.099-1.467-0.979-1.271-1.957c0.195-1.369,1.174-0.782,1.761-0.685c1.858,0.391,3.522,1.174,4.989,2.446
		c3.621,3.032,6.947,3.032,10.566,0.097c4.502-3.717,9.295-3.717,13.697,0.099c3.229,2.739,6.85,2.739,10.176,0
		c4.696-3.913,9.49-3.913,14.188,0c3.13,2.642,6.848,2.642,9.979,0.098c4.697-3.913,8.023-3.913,12.719-0.098
		c3.523,2.837,6.85,2.739,10.371-0.195c4.305-3.62,9.393-3.62,13.6,0c3.327,2.837,6.947,2.935,10.371,0.195
		c4.696-3.913,9.49-3.913,14.187,0c3.229,2.642,6.751,2.739,9.979,0c1.761-1.468,3.523-2.544,5.773-2.837
		c0.684-0.098,1.467-0.195,1.467,0.88c0,0.783,0.195,1.663-0.979,1.762c-1.957,0.097-3.424,1.271-4.893,2.544
		c-3.814,3.032-8.902,3.032-12.719-0.099C123.647,78.157,121.886,77.081,119.733,77.179z"/>
</g>
</svg>
