<?xml version="1.0" encoding="utf-8"?>
<!-- Generator: Adobe Illustrator 16.0.0, SVG Export Plug-In . SVG Version: 6.00 Build 0)  -->
<!DOCTYPE svg PUBLIC "-//W3C//DTD SVG 1.1//EN" "http://www.w3.org/Graphics/SVG/1.1/DTD/svg11.dtd">
<svg version="1.1" id="_x35_0m" xmlns="http://www.w3.org/2000/svg" xmlns:xlink="http://www.w3.org/1999/xlink" x="0px" y="0px"
	 width="144px" height="144px" viewBox="0 0 144 144" enable-background="new 0 0 144 144" xml:space="preserve">
<g>
	<path fill="#AEAEAE" d="M3.595,34.606v51.123c0,0,74.389,49.926,137.794-1.498V34.606c0,0-6.69-22.367-65.502-24.164
		C75.787,10.442,17.673,8.245,3.595,34.606z"/>
	<g id="Layer_1_00000162347965711298613840000005780095471517493930_">
		<path fill="#010101" d="M143.086,34.106C140.69,19.329,110.535,8.046,72.491,8.046c-39.64,0-70.793,12.281-70.894,27.959l0,0
			L0,133.358c0,1.398,1.099,2.596,2.497,2.596l0,0c1.398,0,2.496-1.098,2.596-2.496l0.799-44.533
			c9.086,5.891,36.446,21.467,69.796,21.467c19.571,0,41.138-5.391,62.307-21.066l-0.7,44.033c0,1.398,1.099,2.596,2.497,2.596l0,0
			c1.398,0,2.596-1.098,2.596-2.496l1.598-97.354C144.085,35.306,143.686,34.507,143.086,34.106z M72.491,13.237
			c39.242,0,65.702,11.783,65.702,22.867c0,11.082-26.46,22.766-65.702,22.766C33.25,58.87,6.79,47.087,6.79,36.005
			C6.79,24.921,33.15,13.237,72.491,13.237z M5.991,82.933L6.59,46.587c10.284,10.285,35.547,17.475,65.901,17.475
			c30.754,0,56.317-7.389,66.301-17.973l-0.599,36.844C76.885,131.562,10.884,86.329,5.991,82.933z"/>
	</g>
</g>
</svg>
