<?xml version="1.0" encoding="utf-8"?>
<!-- Generator: Adobe Illustrator 16.0.0, SVG Export Plug-In . SVG Version: 6.00 Build 0)  -->
<!DOCTYPE svg PUBLIC "-//W3C//DTD SVG 1.1//EN" "http://www.w3.org/Graphics/SVG/1.1/DTD/svg11.dtd">
<svg version="1.1" id="_x35_0m" xmlns="http://www.w3.org/2000/svg" xmlns:xlink="http://www.w3.org/1999/xlink" x="0px" y="0px"
	 width="144px" height="144px" viewBox="0 0 144 144" enable-background="new 0 0 144 144" xml:space="preserve">
<g>
	<polygon fill="#B5B7B6" points="28.707,142.792 11.39,142.792 35.05,72.516 35.05,21.47 104.118,21.47 104.118,72.516 
		132.61,142.792 108.547,142.792 86.095,72.616 53.374,72.616 31.929,142.792 	"/>
	<polygon fill="#B5B7B6" points="69.583,1.736 35.05,21.974 104.218,21.974 	"/>
	<path fill="#010101" d="M135.027,144l-29.399-72.29V20.865h-0.403c-0.1-0.2-0.302-0.402-0.503-0.503L70.188,0.226
		c-0.503-0.301-1.208-0.301-1.711,0L33.942,20.362c-0.705,0.403-1.007,1.107-0.806,1.913c0,0.101,0.101,0.201,0.101,0.201
		l0.101,49.335L8.973,144h24.063l7.048-23.156l29.198-15.505l30.607,15.403l7.45,23.258H135.027z M69.382,3.549l28.392,16.612H40.99
		L69.382,3.549z M30.62,140.778H13.604l23.056-68.162l0.101-0.201V23.484h65.745v48.931l27.789,68.363h-20.438L87.203,70.603H52.065
		L30.62,140.778z M41.896,115.004l6.242-20.237l16.311,8.255L41.896,115.004z M69.181,100.404l-19.734-9.968l5.034-16.611h30.305
		L89.72,89.33L69.181,100.404z M74.014,102.821l17.115-9.163l6.847,21.244L74.014,102.821z"/>
</g>
</svg>
