<?xml version="1.0" encoding="UTF-8" standalone="no"?>
<!-- Generator: Adobe Illustrator 16.0.0, SVG Export Plug-In . SVG Version: 6.00 Build 0)  -->

<svg
   version="1.1"
   id="_x35_0m"
   x="0px"
   y="0px"
   width="144px"
   height="144px"
   viewBox="0 0 144 144"
   enable-background="new 0 0 144 144"
   xml:space="preserve"
   sodipodi:docname="water-marsh.svg"
   inkscape:version="1.2.1 (9c6d41e410, 2022-07-14)"
   xmlns:inkscape="http://www.inkscape.org/namespaces/inkscape"
   xmlns:sodipodi="http://sodipodi.sourceforge.net/DTD/sodipodi-0.dtd"
   xmlns:xlink="http://www.w3.org/1999/xlink"
   xmlns="http://www.w3.org/2000/svg"
   xmlns:svg="http://www.w3.org/2000/svg"><defs
   id="defs111" /><sodipodi:namedview
   id="namedview109"
   pagecolor="#ffffff"
   bordercolor="#000000"
   borderopacity="0.25"
   inkscape:showpageshadow="2"
   inkscape:pageopacity="0.0"
   inkscape:pagecheckerboard="0"
   inkscape:deskcolor="#d1d1d1"
   showgrid="false"
   inkscape:zoom="5.4722222"
   inkscape:cx="55.461929"
   inkscape:cy="72"
   inkscape:window-width="1920"
   inkscape:window-height="986"
   inkscape:window-x="-11"
   inkscape:window-y="-11"
   inkscape:window-maximized="1"
   inkscape:current-layer="_x35_0m" />
<g
   id="g18">
	<g
   id="g16">
		<g
   id="g14">
			<defs
   id="defs3">
				<polygon
   id="SVGID_5_"
   points="-213.87,-213.87 -212.87,-213.87 -213.87,-212.87     " />
			</defs>
			<defs
   id="defs6">
				<polygon
   id="SVGID_6_"
   points="-215.87,-215.87 -216.87,-215.87 -215.87,-216.87     " />
			</defs>
			<clipPath
   id="SVGID_4_">
				<use
   xlink:href="#SVGID_5_"
   overflow="visible"
   id="use8" />
			</clipPath>
			<clipPath
   id="SVGID_7_"
   clip-path="url(#SVGID_4_)">
				<use
   xlink:href="#SVGID_6_"
   overflow="visible"
   id="use11" />
			</clipPath>
		</g>
	</g>
</g>
<g
   id="g36">
	<g
   id="g34">
		<g
   id="g32">
			<defs
   id="defs21">
				<polygon
   id="SVGID_31_"
   points="-213.87,-213.87 -212.87,-213.87 -213.87,-212.87     " />
			</defs>
			<defs
   id="defs24">
				<polygon
   id="SVGID_32_"
   points="-215.87,-215.87 -216.87,-215.87 -215.87,-216.87     " />
			</defs>
			<clipPath
   id="SVGID_8_">
				<use
   xlink:href="#SVGID_31_"
   overflow="visible"
   id="use26" />
			</clipPath>
			<clipPath
   id="SVGID_11_"
   clip-path="url(#SVGID_8_)">
				<use
   xlink:href="#SVGID_32_"
   overflow="visible"
   id="use29" />
			</clipPath>
		</g>
	</g>
</g>
<g
   id="g106">
	<path
   fill="#EEC723"
   d="M51.386,92.702c-0.709,0.203-1.215-0.304-1.822-0.709c-4.554-2.934-9.311-4.554-14.876-4.351   c-5.667,0.202-11.436,0-17.103-0.305c-4.049-0.201-8.096-1.012-11.436-3.643c-1.315-1.113-2.834-2.125-4.453-2.833   c-2.023-0.911-1.72-2.328-1.619-3.947c0.102-1.721,0.911-2.428,2.43-2.732c2.732-0.607,5.363-1.315,8.096-2.024   c0,0.911-0.102,1.721-0.102,2.632c0,0.404,0,1.012,0.506,1.012c1.012,0.102,2.328,0.507,3.137-0.202   c0.709-0.708,0.405-1.923,0.203-2.834c-0.203-1.113-1.619-0.303-2.227-1.012c4.959-0.202,8.299-2.631,10.424-7.084   c1.922-3.946,5.465-5.363,9.613-5.769c4.756-0.404,9.613-1.012,14.37-1.012c1.417,0,2.632-0.405,3.946-1.113   c5.668-3.339,11.335-6.679,18.014-7.691c5.161-0.809,10.221-2.226,15.484-2.63c5.768-0.507,10.625,1.618,15.179,4.958   c-1.619,0-3.339,0-4.958,0c-0.607,0-1.215,0.102-1.215,0.91c0,0.709-0.305,1.722,0.404,1.923c1.721,0.405,3.644,0.507,5.363,0   c1.215-0.303,0.405-1.923,0.607-2.935c6.072,3.34,11.739,7.286,16.799,12.145c2.53,2.429,5.263,3.744,8.805,3.541   c3.035-0.201,6.174-0.404,9.209-0.303c6.173,0.202,9.411,3.542,9.513,9.614c0.101,3.238,0.607,6.375,0.101,9.613   c-1.012,5.769-4.148,8.5-9.916,8.703c-15.585,0.607-31.17,1.214-46.855,1.821c-8.197,0.304-16.293,0.607-24.49,1.113   C57.963,98.066,54.725,95.232,51.386,92.702c1.518,0,3.137,0,4.756,0c0.607,0,1.214,0,1.214-0.81c0-0.709,0.405-1.821-0.304-2.024   c-1.619-0.506-3.541-0.506-5.16-0.101C50.778,90.071,51.587,91.69,51.386,92.702z M61.809,78.636c-1.923,0-3.745,0.102-5.667,0   c-1.316-0.102-1.619,0.506-1.619,1.72c0.101,1.013-0.203,2.126,1.416,2.126c3.846,0,7.691,0,11.537,0   c1.619,0,1.315-1.215,1.315-2.228c0.102-1.012-0.101-1.72-1.417-1.618C65.553,78.737,63.731,78.636,61.809,78.636z M54.927,76.409   c1.923,0,3.744,0,5.668,0c1.416,0,1.214-1.113,1.314-2.023c0.102-0.911-0.202-1.519-1.314-1.519c-3.745,0-7.591,0-11.335,0   c-1.315,0-1.315,0.708-1.315,1.72c0,1.013-0.102,1.923,1.416,1.822C51.081,76.309,53.004,76.409,54.927,76.409z M79.619,87.845   c1.72,0,3.542-0.102,5.263,0c1.518,0.101,1.619-0.708,1.619-1.822c0-1.113-0.304-1.72-1.619-1.72   c-3.441,0.102-6.883,0.102-10.322,0c-1.316,0-1.822,0.404-1.721,1.72c0,1.216,0.305,1.923,1.721,1.822   C76.28,87.743,77.999,87.845,79.619,87.845z M117.872,85.72c1.721,0,3.542-0.102,5.263,0c1.417,0.102,1.517-0.607,1.517-1.721   c0-1.012,0-1.822-1.416-1.822c-3.541,0.102-7.184,0.102-10.727,0c-1.518,0-1.417,0.811-1.417,1.822   c-0.101,1.113,0.304,1.721,1.519,1.721C114.432,85.618,116.151,85.72,117.872,85.72z M87.917,60.116c1.519,0,3.037-0.102,4.555,0   c1.417,0.101,1.518-0.81,1.417-1.821c0-1.012,0.202-2.024-1.519-2.024c-3.036,0.102-5.971,0.102-9.006,0   c-1.418,0-1.52,0.709-1.52,1.821c0,1.013-0.1,2.125,1.52,2.024C84.983,60.015,86.501,60.116,87.917,60.116z M58.368,56.776   c-1.519,0-3.037,0.102-4.555,0c-1.518-0.101-1.518,0.81-1.518,1.923s-0.102,2.024,1.518,1.923c2.732-0.102,5.566-0.102,8.299,0   c1.518,0.102,2.227-0.304,2.125-2.024c0-1.72-0.709-1.922-2.125-1.821C60.897,56.878,59.684,56.776,58.368,56.776z M73.749,59.813   c-1.518,0-3.035,0.101-4.553,0c-1.519-0.101-1.519,0.81-1.519,1.923s-0.101,2.023,1.519,1.923c2.732-0.102,5.565-0.102,8.298,0   c1.619,0.101,2.125-0.405,2.125-2.024c0-1.721-0.81-1.922-2.125-1.821C76.179,59.813,74.964,59.813,73.749,59.813z M40.658,79.142   c-1.417,0-2.833,0.101-4.149,0c-1.619-0.102-1.721,0.708-1.721,2.023c0,1.215,0.305,1.923,1.721,1.822   c2.732-0.102,5.363-0.102,8.096,0c1.619,0.101,1.923-0.506,1.923-2.024c0-1.518-0.506-1.923-1.923-1.821   C43.289,79.242,41.974,79.142,40.658,79.142z M93.889,84.303c1.72,0,3.44-0.102,5.262,0c1.315,0.102,1.417-0.607,1.417-1.619   c-0.102-0.911,0.202-1.923-1.316-1.923c-3.439,0-6.982,0.102-10.523,0c-1.518,0-1.316,0.91-1.316,1.923   c-0.101,1.113,0.102,1.821,1.518,1.721C90.549,84.303,92.167,84.303,93.889,84.303z M105.526,75.6c-1.721,0-3.543,0.102-5.263,0   c-1.417-0.102-1.519,0.709-1.519,1.821c0,1.012,0.203,1.619,1.418,1.619c3.439-0.101,6.881-0.101,10.321,0   c1.316,0,1.417-0.708,1.417-1.619s0-1.72-1.315-1.72C108.866,75.701,107.146,75.6,105.526,75.6z M131.028,72.058   c1.113,0,2.327,0,3.441,0c1.314,0,2.529,0.304,2.529-1.821c0-2.024-1.013-2.024-2.43-2.024c-2.227,0.102-4.452,0.102-6.779,0   c-1.417,0-2.43,0-2.43,2.024c0,1.922,0.911,1.922,2.328,1.821C128.902,71.957,129.915,72.058,131.028,72.058z M47.438,65.985   c1.416,0,2.935-0.101,4.352,0c1.416,0.102,1.721-0.506,1.721-1.821c0-1.214-0.203-1.923-1.721-1.821   c-2.732,0.101-5.566,0.101-8.299,0c-1.315,0-2.327-0.102-2.327,1.821c0,1.821,1.012,1.721,2.227,1.721   C44.808,65.885,46.122,65.985,47.438,65.985z M62.618,69.933c1.518,0,3.035-0.102,4.554,0c1.417,0.102,1.721-0.507,1.721-1.821   c0-1.315-0.304-1.822-1.721-1.822c-2.833,0.102-5.667,0.102-8.501,0c-1.214,0-2.023,0-2.023,1.721c0,1.619,0.607,2.024,2.023,1.923   C59.987,69.831,61.302,69.933,62.618,69.933z M109.372,69.831c-1.519,0-3.036,0.102-4.655,0c-1.519-0.101-1.62,0.709-1.62,1.923   s0.305,1.721,1.62,1.721c2.833-0.102,5.667-0.102,8.601,0c1.418,0,2.126-0.203,2.126-1.923c0-1.619-0.81-1.721-2.024-1.721   C112.003,69.933,110.687,69.831,109.372,69.831z M95.71,67.099c1.518,0,3.035-0.102,4.554,0c1.315,0.102,1.619-0.506,1.619-1.72   c0-1.113-0.304-1.721-1.519-1.721c-2.935,0.101-5.97,0.101-8.904,0c-1.215,0-1.721,0.506-1.721,1.721   c0,1.214,0.404,1.72,1.619,1.72C92.774,67.099,94.293,67.099,95.71,67.099z M79.821,74.688c-1.721,0-3.541,0.102-5.262,0   c-1.215-0.102-1.721,0.304-1.721,1.62c0,1.112,0.404,1.517,1.518,1.517c3.543,0,6.982,0,10.525,0c1.113,0,1.518-0.303,1.518-1.517   c0-1.215-0.404-1.722-1.619-1.62C83.161,74.79,81.542,74.688,79.821,74.688z M70.31,92.702c1.72,0,3.339,0,5.06,0   c1.214,0,1.923-0.102,1.923-1.62c0-1.416-0.709-1.517-1.822-1.517c-3.34,0-6.679,0-10.119,0c-1.113,0-1.721,0.101-1.721,1.517   c0,1.519,0.709,1.62,1.923,1.62C67.071,92.601,68.69,92.702,70.31,92.702z M32.259,77.32c1.416,0,2.834-0.102,4.148,0   c1.316,0.101,1.822-0.405,1.721-1.721c0-1.214-0.303-1.821-1.721-1.821c-2.732,0.101-5.565,0.101-8.298,0   c-1.315,0-1.821,0.404-1.72,1.72c0,1.215,0.303,1.923,1.72,1.822C29.526,77.219,30.842,77.32,32.259,77.32z M85.489,68.92   c-1.518,0-3.036,0.102-4.555,0c-1.416-0.101-1.518,0.709-1.518,1.821c0,1.114,0.102,1.822,1.518,1.822   c3.037-0.101,5.971-0.101,8.905,0c1.417,0,1.519-0.708,1.519-1.822c0-1.112-0.102-1.821-1.519-1.72   C88.423,69.021,87.007,68.92,85.489,68.92z M54.522,87.845c1.518,0,3.035-0.102,4.554,0c1.315,0.101,1.519-0.606,1.519-1.721   c0-1.215-0.203-1.923-1.619-1.821c-2.834,0.102-5.668,0.102-8.502,0c-1.314,0-1.72,0.304-1.82,1.72   c0,1.417,0.404,1.923,1.922,1.822C51.892,87.743,53.206,87.845,54.522,87.845z M129.813,75.194c-1.416,0-2.732,0-4.149,0   c-1.214-0.101-1.923,0.102-1.923,1.62c0,1.518,0.709,1.821,2.024,1.821c2.632-0.102,5.263-0.102,7.894,0   c1.316,0,2.023-0.203,1.922-1.821c0-1.417-0.605-1.721-1.82-1.62C132.444,75.194,131.13,75.194,129.813,75.194z M71.726,53.538   c-1.518,0-3.035,0.102-4.554,0c-1.214-0.101-1.72,0.405-1.72,1.619c0,1.215,0.506,1.519,1.619,1.519   c3.035-0.102,5.971-0.102,9.006,0c1.215,0,1.619-0.304,1.721-1.619c0-1.417-0.709-1.519-1.821-1.519   C74.56,53.64,73.144,53.538,71.726,53.538z M19.812,80.355c1.416,0,2.935-0.102,4.352,0c1.214,0.102,1.416-0.607,1.416-1.618   c0-1.113-0.303-1.62-1.518-1.519c-2.732,0.102-5.465,0-8.299,0c-1.113,0-1.72,0.102-1.72,1.519s0.606,1.72,1.821,1.618   C17.18,80.355,18.495,80.355,19.812,80.355z M26.187,71.552c0.203,0,0.404,0,0.607,0c1.315,0,2.732,0.405,2.732-1.923   s-1.417-1.821-2.732-1.923c-0.81,0-1.619,0.102-2.429,0c-1.519-0.102-1.519,0.81-1.519,1.923c0,1.112,0,2.023,1.519,1.923   C25.073,71.45,25.681,71.552,26.187,71.552z M88.019,94.827c0.709,0,1.315,0,2.024,0c1.519,0.101,1.417-0.911,1.315-1.922   c0-0.912,0.203-2.024-1.315-1.923c-1.215,0-2.53,0-3.745,0c-1.012,0-1.416,0.303-1.518,1.416   C84.578,94.727,84.78,94.827,88.019,94.827z M33.878,65.479c0.404,0,0.91,0,1.315,0c1.315,0.102,2.327,0,2.226-1.821   c0-1.923-1.112-1.721-2.226-1.619c-1.113,0-2.227,0.101-3.238,0c-1.315-0.102-1.619,0.506-1.619,1.619s0.101,2.023,1.619,1.923   C32.562,65.379,33.271,65.479,33.878,65.479z M103.907,92.196c0.606,0,1.113,0,1.721,0c1.213,0.102,1.922-0.102,1.922-1.62   c0-1.416-0.709-1.517-1.821-1.517c-1.315,0-2.632,0.101-3.946,0c-1.215-0.102-1.619,0.404-1.619,1.618   c0,1.113,0.505,1.519,1.518,1.519C102.39,92.196,103.198,92.196,103.907,92.196z M83.465,52.223c0.405,0,0.708,0,1.013,0   c1.314,0.101,2.124-0.101,2.124-1.822c0-1.72-0.606-2.124-2.226-2.022c-0.404,0.101-0.911,0.101-1.315,0   c-2.126-0.405-2.429,0.707-2.328,2.529C80.935,53.134,82.655,51.818,83.465,52.223z M110.384,65.074   c0.91-0.404,2.834,1.114,2.934-1.72c0.102-2.834-1.82-1.619-3.137-1.821c-0.607-0.102-1.113,0-1.72,0   c-0.911,0-1.214,0.303-1.315,1.214C106.942,64.974,107.044,65.074,110.384,65.074z M28.21,82.582   c-1.314,0.102-2.732-0.506-2.732,1.923c0,2.024,1.013,2.024,2.43,2.024c1.416-0.102,2.935,0.404,2.935-2.024   C30.741,82.177,29.425,82.684,28.21,82.582z M134.874,84.303c-0.305,0-0.607,0-0.911,0c-1.315-0.102-2.024,0.202-2.024,1.72   c0,1.519,0.506,1.923,1.924,1.822c0.607-0.102,1.213-0.102,1.719,0c1.316,0.101,1.722-0.405,1.722-1.721   C137.606,83.898,136.088,84.303,134.874,84.303z M121.616,91.791c0.405,0,0.709,0,1.013,0c1.112,0.102,2.124,0.102,2.124-1.619   c0-1.619-1.012-1.518-2.022-1.417c-0.811,0-1.62,0-2.429,0c-0.506,0-1.113-0.101-1.215,0.607c-0.102,0.709-0.304,1.519,0.202,2.126   C119.896,92.095,120.907,91.589,121.616,91.791z"
   id="path38"
   style="fill:#a3d6f3;fill-opacity:1" />
	<path
   fill="#B4B19C"
   d="M99.556,51.515c-0.203,1.012,0.607,2.53-0.607,2.935c-1.721,0.506-3.643,0.404-5.363,0   c-0.811-0.203-0.405-1.315-0.405-1.923c0-0.81,0.506-0.911,1.215-0.911c1.618,0,3.339,0,4.958,0   C99.454,51.413,99.454,51.413,99.556,51.515z"
   id="path40" />
	<path
   fill="#B4B19C"
   d="M61.809,78.636c1.923,0,3.744,0.102,5.667,0c1.215,0,1.417,0.606,1.417,1.618   c-0.102,1.013,0.304,2.228-1.315,2.228c-3.846,0-7.691,0-11.537,0c-1.619,0-1.315-1.113-1.417-2.126   c-0.101-1.214,0.304-1.72,1.62-1.72C57.963,78.737,59.886,78.636,61.809,78.636z"
   id="path42" />
	<path
   fill="#B4B19C"
   d="M54.927,76.409c-1.923,0-3.744-0.101-5.667,0c-1.518,0.101-1.315-0.911-1.417-1.822   c0-1.012,0.102-1.72,1.316-1.72c3.744,0.101,7.59,0,11.334,0c1.113,0,1.416,0.506,1.315,1.519c-0.102,0.91,0.202,2.023-1.315,2.023   C58.671,76.409,56.749,76.409,54.927,76.409z"
   id="path44" />
	<path
   fill="#B4B19C"
   d="M79.619,87.845c-1.72,0-3.339-0.102-5.06,0c-1.416,0.101-1.721-0.507-1.721-1.822s0.404-1.821,1.721-1.72   c3.439,0.102,6.881,0.102,10.322,0c1.315,0,1.619,0.506,1.619,1.72c0,1.216-0.203,1.923-1.619,1.822   C83.161,87.743,81.339,87.845,79.619,87.845z"
   id="path46" />
	<path
   fill="#B4B19C"
   d="M117.872,85.72c-1.721,0-3.542-0.102-5.262,0c-1.316,0.102-1.619-0.506-1.519-1.721   c0-1.012,0-1.923,1.417-1.822c3.543,0.102,7.186,0.102,10.727,0c1.416,0,1.416,0.811,1.416,1.822c0,1.113-0.1,1.822-1.517,1.721   C121.414,85.618,119.694,85.72,117.872,85.72z"
   id="path48" />
	<path
   fill="#B4B19C"
   d="M87.917,60.116c-1.416,0-2.934-0.102-4.352,0c-1.619,0.101-1.518-0.91-1.518-2.024   c0-1.012,0.102-1.821,1.518-1.821c3.036,0.102,5.971,0.102,9.008,0c1.619,0,1.416,1.013,1.518,2.024c0,1.012,0,1.922-1.418,1.821   C90.954,60.015,89.436,60.116,87.917,60.116z"
   id="path50" /><path
   fill="#b4b19c"
   d="m 19.493291,80.86282 c -1.416,0 -2.934,-0.102 -4.352,0 -1.619,0.101 -1.518,-0.91 -1.518,-2.024 0,-1.012 0.102,-1.821 1.518,-1.821 3.036,0.102 5.971,0.102 9.008,0 1.619,0 1.416,1.013 1.518,2.024 0,1.012 0,1.922 -1.418,1.821 -1.719,-0.101 -3.237,0 -4.756,0 z"
   id="path50-4"
   inkscape:transform-center-x="-19.187817"
   inkscape:transform-center-y="-6.213198" />
	<path
   fill="#B4B19C"
   d="M58.368,56.776c1.214,0,2.428,0.102,3.744,0c1.315-0.101,2.125,0.102,2.125,1.821   c0,1.721-0.607,2.126-2.125,2.024c-2.732-0.102-5.566-0.102-8.299,0c-1.619,0.102-1.518-0.91-1.518-1.923   c0-1.113,0-2.023,1.518-1.923C55.331,56.878,56.85,56.776,58.368,56.776z"
   id="path52" />
	<path
   fill="#B4B19C"
   d="M73.749,59.813c1.215,0,2.43,0.101,3.745,0s2.125,0.101,2.125,1.821s-0.607,2.125-2.125,2.024   c-2.732-0.102-5.565-0.102-8.298,0c-1.619,0.101-1.519-0.911-1.519-1.923c0-1.113,0-2.023,1.519-1.923   C70.714,59.913,72.231,59.813,73.749,59.813z"
   id="path54" />
	<path
   fill="#B4B19C"
   d="M40.658,79.142c1.315,0,2.631,0.101,3.946,0c1.417-0.102,1.923,0.304,1.923,1.821   c0,1.519-0.405,2.125-1.923,2.024c-2.732-0.102-5.363-0.102-8.096,0c-1.416,0.101-1.721-0.607-1.721-1.822   c0-1.214,0.102-2.125,1.721-2.023C37.926,79.242,39.343,79.142,40.658,79.142z"
   id="path56" />
	<path
   fill="#B4B19C"
   d="M93.889,84.303c-1.722,0-3.34-0.102-5.061,0c-1.315,0.102-1.618-0.607-1.518-1.721   c0.101-0.911-0.101-1.923,1.315-1.923c3.44,0.102,6.982,0.102,10.524,0c1.519,0,1.214,1.012,1.315,1.923   c0.102,1.012-0.102,1.721-1.416,1.619C97.329,84.303,95.608,84.303,93.889,84.303z"
   id="path58" />
	<path
   fill="#B4B19C"
   d="M105.526,75.6c1.721,0,3.34,0,5.06,0c1.315-0.102,1.315,0.81,1.315,1.721c0,1.012-0.101,1.72-1.417,1.619   c-3.44-0.102-6.882-0.102-10.321,0c-1.215,0-1.418-0.507-1.418-1.619c0-1.113,0.102-1.822,1.519-1.822   C101.983,75.701,103.704,75.6,105.526,75.6z"
   id="path60" />
	<path
   fill="#B4B19C"
   d="M131.028,72.058c-1.113,0-2.227,0-3.238,0c-1.315,0.101-2.227,0-2.328-1.821   c0-2.024,1.013-2.024,2.43-2.024c2.226,0.102,4.451,0.102,6.779,0c1.417,0,2.429,0,2.429,2.024c0,2.125-1.214,1.922-2.53,1.821   C133.355,72.058,132.242,72.058,131.028,72.058z"
   id="path62" />
	<path
   fill="#B4B19C"
   d="M47.438,65.985c-1.316,0-2.631,0-3.947,0c-1.214,0-2.227,0.102-2.227-1.72c0-1.923,0.911-1.923,2.328-1.822   c2.732,0.102,5.566,0.102,8.299,0c1.416-0.101,1.72,0.607,1.72,1.822c0,1.315-0.405,1.821-1.72,1.821   C50.373,65.885,48.854,65.985,47.438,65.985z"
   id="path64" />
	<path
   fill="#B4B19C"
   d="M62.618,69.933c-1.316,0-2.631-0.102-3.947,0c-1.518,0.102-2.023-0.304-2.023-1.923s0.81-1.721,2.023-1.721   c2.834,0,5.668,0.102,8.501,0c1.417,0,1.721,0.507,1.721,1.822c0,1.214-0.304,1.923-1.721,1.821   C65.653,69.831,64.136,69.933,62.618,69.933z"
   id="path66" />
	<path
   fill="#B4B19C"
   d="M109.372,69.831c1.314,0,2.631,0,3.945,0c1.215-0.101,2.025,0,2.025,1.721c0,1.619-0.709,1.923-2.125,1.923   c-2.834-0.102-5.668-0.102-8.603,0c-1.315,0-1.619-0.507-1.619-1.721s0.101-2.023,1.619-1.923   C106.336,69.933,107.854,69.831,109.372,69.831z"
   id="path68" />
	<path
   fill="#B4B19C"
   d="M95.71,67.099c-1.417,0-2.936,0-4.352,0c-1.215,0.102-1.619-0.506-1.619-1.72   c0-1.215,0.404-1.721,1.721-1.721c2.935,0.101,5.97,0.101,8.904,0c1.316,0,1.519,0.506,1.519,1.721c0,1.214-0.304,1.72-1.619,1.72   C98.745,67.099,97.228,67.099,95.71,67.099z"
   id="path70" />
	<path
   fill="#B4B19C"
   d="M79.821,74.688c1.721,0,3.34,0.102,5.061,0c1.214-0.102,1.72,0.405,1.619,1.62   c0,1.214-0.506,1.517-1.518,1.517c-3.543,0-6.984,0-10.525,0c-1.113,0-1.518-0.404-1.518-1.517c0-1.316,0.506-1.62,1.721-1.62   C76.382,74.79,78.101,74.688,79.821,74.688z"
   id="path72" />
	<path
   fill="#B4B19C"
   d="M70.31,92.702c-1.619,0-3.238,0-4.857,0c-1.215,0-1.924-0.102-1.924-1.62c0-1.416,0.709-1.517,1.721-1.517   c3.34,0,6.68,0,10.12,0c1.112,0,1.72,0.101,1.821,1.517c0,1.519-0.709,1.62-1.923,1.62C73.648,92.601,72.029,92.702,70.31,92.702z"
   id="path74" />
	<path
   fill="#B4B19C"
   d="M32.259,77.32c-1.417,0-2.834-0.102-4.149,0c-1.417,0.101-1.72-0.506-1.72-1.822   c0-1.315,0.404-1.821,1.72-1.72c2.732,0.101,5.565,0.101,8.298,0c1.418-0.102,1.721,0.506,1.721,1.821s-0.404,1.821-1.721,1.721   C35.093,77.219,33.675,77.32,32.259,77.32z"
   id="path76" />
	<path
   fill="#B4B19C"
   d="M85.489,68.92c1.416,0,2.934,0.102,4.351,0c1.417-0.101,1.519,0.709,1.519,1.721   c0,1.113-0.102,1.822-1.519,1.822c-3.035-0.102-5.97-0.102-8.905,0c-1.416,0-1.518-0.709-1.518-1.822   c0-1.012,0.102-1.821,1.518-1.821C82.453,69.021,83.972,68.92,85.489,68.92z"
   id="path78" />
	<path
   fill="#B4B19C"
   d="M54.522,87.845c-1.316,0-2.631-0.102-3.947,0c-1.416,0.101-1.922-0.405-1.922-1.822   c0-1.315,0.506-1.72,1.82-1.72c2.834,0.102,5.668,0.102,8.502,0c1.416,0,1.619,0.606,1.619,1.821c0,1.114-0.203,1.821-1.519,1.721   C57.558,87.743,56.04,87.845,54.522,87.845z"
   id="path80" />
	<path
   fill="#B4B19C"
   d="M129.813,75.194c1.316,0,2.631,0.102,3.947,0c1.215-0.101,1.82,0.203,1.82,1.62   c0,1.518-0.605,1.821-1.922,1.821c-2.631-0.102-5.262-0.102-7.894,0c-1.315,0-2.024-0.304-2.024-1.821   c0-1.519,0.709-1.62,1.923-1.62C127.081,75.194,128.497,75.194,129.813,75.194z"
   id="path82" />
	<path
   fill="#B4B19C"
   d="M71.726,53.538c1.418,0,2.732,0,4.149,0c1.113,0,1.821,0.102,1.821,1.519c0,1.214-0.506,1.619-1.72,1.619   c-3.036-0.102-5.972-0.102-9.007,0c-1.113,0-1.518-0.304-1.619-1.519c0-1.214,0.404-1.72,1.721-1.619   C68.69,53.64,70.208,53.538,71.726,53.538z"
   id="path84" />
	<path
   fill="#B4B19C"
   d="M26.187,71.552c-0.607,0-1.113-0.102-1.721,0c-1.518,0.202-1.518-0.811-1.518-1.923   c0-1.113,0-2.024,1.518-1.923c0.811,0.102,1.619,0,2.43,0c1.314,0,2.732-0.506,2.732,1.923c0,2.328-1.418,1.821-2.732,1.923   C26.692,71.552,26.39,71.552,26.187,71.552z"
   id="path86" />
	<path
   fill="#B4B19C"
   d="M88.019,94.827c-3.34,0-3.44-0.101-3.238-2.429c0.102-1.012,0.607-1.416,1.518-1.416   c1.215,0,2.53,0,3.745,0c1.519-0.102,1.315,1.011,1.315,1.923c0,0.91,0.102,2.022-1.315,1.922   C89.334,94.827,88.728,94.827,88.019,94.827z"
   id="path88" />
	<path
   fill="#B4B19C"
   d="M33.878,65.479c-0.607,0-1.316-0.101-1.923,0c-1.519,0.202-1.519-0.708-1.619-1.923   c0-1.214,0.304-1.721,1.619-1.619c1.113,0.102,2.226,0,3.238,0c1.214,0,2.226-0.202,2.226,1.619c0,1.923-0.91,2.024-2.226,1.822   C34.788,65.479,34.384,65.479,33.878,65.479z"
   id="path90" />
	<path
   fill="#B4B19C"
   d="M103.907,92.196c-0.709,0-1.417,0-2.227,0c-1.113,0.102-1.518-0.304-1.518-1.519   c0-1.214,0.404-1.72,1.619-1.618c1.314,0.101,2.631,0.101,3.946,0c1.112,0,1.72,0.101,1.821,1.517c0,1.519-0.709,1.722-1.922,1.62   C105.021,92.196,104.514,92.196,103.907,92.196z"
   id="path92" />
	<path
   fill="#B4B19C"
   d="M83.465,52.223c-0.81-0.405-2.429,0.911-2.632-1.315c-0.101-1.721,0.203-2.834,2.328-2.529   c0.404,0.101,0.91,0.101,1.316,0c1.518-0.203,2.226,0.201,2.226,2.022c0,1.722-0.708,2.024-2.125,1.822   C84.173,52.223,83.87,52.223,83.465,52.223z"
   id="path94" />
	<path
   fill="#B4B19C"
   d="M110.384,65.074c-3.34,0-3.441-0.101-3.238-2.327c0.102-0.911,0.404-1.315,1.315-1.214   c0.606,0,1.214-0.102,1.72,0c1.215,0.202,3.137-0.911,3.137,1.821C113.218,66.087,111.294,64.569,110.384,65.074z"
   id="path96" />
	<path
   fill="#B4B19C"
   d="M28.21,82.582c1.215,0,2.632-0.405,2.632,1.822c0,2.428-1.417,2.023-2.935,2.023   c-1.417,0.102-2.43,0.102-2.43-1.923C25.478,82.076,26.896,82.684,28.21,82.582z"
   id="path98" />
	<path
   fill="#B4B19C"
   d="M51.386,92.702c0.101-1.012-0.607-2.53,0.506-2.935c1.619-0.507,3.439-0.507,5.16,0.101   c0.709,0.203,0.304,1.315,0.304,2.024c0,0.81-0.606,0.81-1.214,0.81C54.522,92.702,53.004,92.702,51.386,92.702L51.386,92.702z"
   id="path100" />
	<path
   fill="#B4B19C"
   d="M134.874,84.303c1.214,0,2.732-0.404,2.631,1.821c-0.102,1.315-0.405,1.923-1.721,1.721   c-0.607-0.102-1.215-0.102-1.72,0c-1.417,0.101-1.923-0.304-1.923-1.822c0-1.518,0.708-1.821,2.023-1.72   C134.267,84.303,134.569,84.303,134.874,84.303z"
   id="path102" />
	<path
   fill="#B4B19C"
   d="M121.616,91.791c-0.709-0.101-1.72,0.405-2.428-0.303c-0.507-0.506-0.304-1.417-0.203-2.126   c0.102-0.708,0.709-0.607,1.215-0.607c0.809,0,1.618,0,2.429,0c1.013,0,2.022-0.202,2.022,1.417c0,1.721-0.91,1.721-2.124,1.619   C122.325,91.791,122.021,91.791,121.616,91.791z"
   id="path104" />
</g>
<path
   fill="#b4b19c"
   d="m 12.727771,75.92881 c -0.599667,0 -1.24253,-0.102 -1.843044,0 -0.685635,0.101 -0.642862,-0.91 -0.642862,-2.024 0,-1.012 0.0432,-1.821 0.642862,-1.821 1.285726,0.102 2.528679,0.102 3.814829,0 0.685635,0 0.599666,1.013 0.642863,2.024 0,1.012 0,1.922 -0.600514,1.821 -0.727985,-0.101 -1.370848,0 -2.014134,0 z"
   id="path50-6"
   style="stroke-width:0.650764" /></svg>
