<?xml version="1.0" encoding="utf-8"?>
<!-- Generator: Adobe Illustrator 16.0.0, SVG Export Plug-In . SVG Version: 6.00 Build 0)  -->
<!DOCTYPE svg PUBLIC "-//W3C//DTD SVG 1.1//EN" "http://www.w3.org/Graphics/SVG/1.1/DTD/svg11.dtd">
<svg version="1.1" id="_x35_0m" xmlns="http://www.w3.org/2000/svg" xmlns:xlink="http://www.w3.org/1999/xlink" x="0px" y="0px"
	 width="144px" height="144px" viewBox="0 0 144 144" enable-background="new 0 0 144 144" xml:space="preserve">
<g>
	<path fill="#AEAEAE" d="M23.397,23.599h98.511c0,0,20.386,5.322,19.983,28.619c0,0-1.606,25.004-21.289,29.824H21.39
		c0,0-20.987-7.431-19.983-31.632C1.406,50.511,4.921,22.394,23.397,23.599z"/>
	<g id="Layer_1_00000151504894839452494070000011761803059015935125_">
		<path fill="#010101" d="M118.796,20.687H23.8c-0.201,0-0.502,0-0.703,0.101C10.143,22.093,0,35.749,0,52.218
			c0,17.371,11.247,31.631,25.104,31.631h0.703v17.474l0,0v19.782c0,1.205,1.005,2.209,2.209,2.209c1.205,0,2.21-1.004,2.21-2.209
			v-18.275l19.18-8.034v12.753c0,1.205,1.004,2.209,2.209,2.209s2.209-1.004,2.209-2.209V91.582l0,0V83.95h34.946v17.473l0,0v19.682
			c0,1.205,1.004,2.209,2.209,2.209s2.21-1.004,2.21-2.209v-18.275l19.18-8.034v12.753c0,1.205,1.004,2.209,2.209,2.209
			c1.204,0,2.209-1.004,2.209-2.209V91.582l0,0V83.95h2.109C132.753,83.95,144,69.79,144,52.318
			C143.899,34.846,132.553,20.687,118.796,20.687z M4.318,52.318c0-14.461,8.636-26.31,19.581-27.113c0.101,0,0.302,0,0.402-0.101
			h81.841c-7.431,5.523-12.451,15.666-12.451,27.214s5.021,21.69,12.451,27.213H25.104C13.657,79.531,4.318,67.28,4.318,52.318z
			 M49.406,90.075l-19.18,8.033v-14.26h19.18V90.075z M112.269,90.075l-19.18,8.033v-14.26h19.18V90.075z M118.796,79.531
			c-11.448,0-20.687-12.251-20.687-27.213c0-14.963,9.339-27.214,20.687-27.214c11.347,0,20.686,12.251,20.686,27.214
			C139.481,67.28,130.143,79.531,118.796,79.531z"/>
	</g>
</g>
</svg>
