<?xml version="1.0" encoding="UTF-8" standalone="no"?>
<!-- Generator: Adobe Illustrator 16.0.0, SVG Export Plug-In . SVG Version: 6.00 Build 0)  -->

<svg
   version="1.1"
   id="_x35_0m"
   x="0px"
   y="0px"
   width="144px"
   height="144px"
   viewBox="0 0 144 144"
   enable-background="new 0 0 144 144"
   xml:space="preserve"
   sodipodi:docname="waypoint_control.svg"
   inkscape:version="1.2.1 (9c6d41e410, 2022-07-14)"
   xmlns:inkscape="http://www.inkscape.org/namespaces/inkscape"
   xmlns:sodipodi="http://sodipodi.sourceforge.net/DTD/sodipodi-0.dtd"
   xmlns="http://www.w3.org/2000/svg"
   xmlns:svg="http://www.w3.org/2000/svg"><defs
   id="defs160" /><sodipodi:namedview
   id="namedview158"
   pagecolor="#ffffff"
   bordercolor="#000000"
   borderopacity="0.25"
   inkscape:showpageshadow="2"
   inkscape:pageopacity="0.0"
   inkscape:pagecheckerboard="0"
   inkscape:deskcolor="#d1d1d1"
   showgrid="false"
   inkscape:zoom="5.4722222"
   inkscape:cx="54.639594"
   inkscape:cy="72"
   inkscape:window-width="1920"
   inkscape:window-height="986"
   inkscape:window-x="-11"
   inkscape:window-y="-11"
   inkscape:window-maximized="1"
   inkscape:current-layer="_x35_0m" />
<g
   id="g155">
	<circle
   fill="#FCEE23"
   cx="71.952"
   cy="72"
   r="68.1"
   id="circle147" />
	<path
   fill="#010101"
   d="M71.952,144c-9.7,0-19.2-1.9-28-5.701c-8.6-3.6-16.301-8.799-22.9-15.399s-11.8-14.3-15.4-22.9   c-3.799-8.8-5.699-18.3-5.699-27.999c0-9.7,1.9-19.2,5.699-28c3.601-8.6,8.801-16.301,15.4-22.9s14.301-11.8,22.9-15.4   C52.752,1.9,62.252,0,71.952,0c9.699,0,19.199,1.9,28,5.699c8.6,3.601,16.299,8.801,22.899,15.4c6.6,6.6,11.8,14.301,15.399,22.9   c3.801,8.899,5.7,18.3,5.7,28c0,9.699-1.899,19.199-5.7,27.999c-3.6,8.601-8.8,16.3-15.399,22.9   c-6.601,6.601-14.3,11.8-22.899,15.399C91.052,142.1,81.651,144,71.952,144z M71.952,10.3c-16.5,0-32,6.4-43.7,18.101   c-11.7,11.699-18,27.1-18,43.6s6.399,32,18.101,43.7c11.699,11.698,27.199,18.1,43.699,18.1s32-6.401,43.699-18.1   c11.7-11.7,18.101-27.2,18.101-43.7s-6.4-32-18.101-43.7C104.052,16.6,88.452,10.3,71.952,10.3z"
   id="path149" />
	<g
   id="g153">
		<path
   fill="#010101"
   d="m 88.125103,94.511303 c -3.992756,3.604981 -9.010319,5.460532 -15.153021,5.460532 -7.574974,0 -13.615297,-2.472694 -18.018591,-7.417051 -4.402269,-4.946419 -6.552215,-11.745297 -6.552215,-20.400756 0,-9.272602 2.457081,-16.484626 7.474644,-21.533043 4.298867,-4.430243 9.828323,-6.59282 16.482916,-6.59282 8.905894,0 15.459132,2.986808 19.554266,8.860487 2.252324,3.296925 3.480864,6.59385 3.685621,9.993804 H 84.54186 c -0.715624,-2.575723 -1.637029,-4.533272 -2.764214,-5.769619 -2.047567,-2.267666 -5.014492,-3.502983 -9.008273,-3.502983 -3.99378,0 -7.166484,1.648463 -9.52221,4.945388 -2.353679,3.296925 -3.479841,7.933226 -3.479841,13.908903 0,5.975677 1.22854,10.50895 3.68562,13.496788 2.457081,2.987839 5.631835,4.430243 9.41881,4.430243 3.891402,0 6.858327,-1.235316 8.905894,-3.811039 1.128209,-1.339376 2.048591,-3.400985 2.764215,-6.181735 h 10.954485 c -0.922429,5.66453 -3.37951,10.402829 -7.371243,14.112901 z"
   id="path151"
   style="stroke-width:1.02703" />
	</g>
</g>
</svg>
