<?xml version="1.0" encoding="utf-8"?>
<!-- Generator: Adobe Illustrator 16.0.0, SVG Export Plug-In . SVG Version: 6.00 Build 0)  -->
<!DOCTYPE svg PUBLIC "-//W3C//DTD SVG 1.1//EN" "http://www.w3.org/Graphics/SVG/1.1/DTD/svg11.dtd">
<svg version="1.1" id="_x35_0m" xmlns="http://www.w3.org/2000/svg" xmlns:xlink="http://www.w3.org/1999/xlink" x="0px" y="0px"
	 width="144px" height="144px" viewBox="0 0 144 144" enable-background="new 0 0 144 144" xml:space="preserve">
<g>
	<path fill="#3D93D0" d="M72.05,144c-9.768,0-19.133-1.913-27.994-5.64c-8.559-3.625-16.313-8.861-22.857-15.406
		c-6.547-6.547-11.883-14.4-15.508-22.959C1.964,91.132,0.05,81.667,0.05,71.999c0-9.666,1.914-19.132,5.641-27.993
		c3.625-8.56,8.861-16.313,15.406-22.858C27.642,14.602,35.396,9.265,43.956,5.64C52.917,1.913,62.282,0,72.05,0
		c9.77,0,19.133,1.913,27.994,5.64c8.561,3.625,16.314,8.861,22.859,15.406c6.547,6.546,11.781,14.3,15.408,22.858
		c3.725,8.862,5.639,18.328,5.639,27.995s-1.914,19.133-5.639,27.994c-3.627,8.56-8.861,16.313-15.408,22.858
		c-6.545,6.546-14.299,11.782-22.859,15.407C91.183,142.087,81.718,144,72.05,144z"/>
	<path fill="#FFFFFF" d="M72.05,10.271c-16.514,0-32.021,6.444-43.602,18.126S10.321,55.586,10.321,71.999
		c0,16.414,6.445,32.023,18.127,43.604c11.68,11.58,27.189,18.025,43.602,18.025c16.414,0,32.023-6.445,43.604-18.025
		s18.025-27.189,18.025-43.604c0-16.413-6.445-32.021-18.025-43.602S88.565,10.271,72.05,10.271z"/>
	<g>
		<path fill="#3D93D0" d="M90.075,77.337H62.685v14.501h31.219v10.17H51.206V45.617h41.387v9.969H62.685v11.882h27.391V77.337
			L90.075,77.337z"/>
	</g>
</g>
</svg>
