<?xml version="1.0" encoding="utf-8"?>
<!-- Generator: Adobe Illustrator 16.0.0, SVG Export Plug-In . SVG Version: 6.00 Build 0)  -->
<!DOCTYPE svg PUBLIC "-//W3C//DTD SVG 1.1//EN" "http://www.w3.org/Graphics/SVG/1.1/DTD/svg11.dtd">
<svg version="1.1" id="_x35_0m" xmlns="http://www.w3.org/2000/svg" xmlns:xlink="http://www.w3.org/1999/xlink" x="0px" y="0px"
	 width="144px" height="144px" viewBox="0 0 144 144" enable-background="new 0 0 144 144" xml:space="preserve">
<g>
	<circle fill="#FFFFFF" cx="71.4" cy="71.4" r="63.2"/>
	<path fill="#3D93D0" d="M72,144c-9.7,0-19.2-1.9-28-5.7c-8.6-3.6-16.3-8.8-22.9-15.4C14.5,116.3,9.3,108.6,5.7,100
		C1.9,91.2,0,81.7,0,72s1.9-19.2,5.7-28c3.6-8.601,8.8-16.3,15.4-22.899C27.7,14.5,35.4,9.3,44,5.7C52.9,1.9,62.3,0,72,0
		s19.2,1.9,28,5.7c8.6,3.6,16.3,8.8,22.9,15.4c6.6,6.6,11.8,14.299,15.4,22.899c3.8,8.9,5.7,18.3,5.7,28s-1.9,19.2-5.7,28
		c-3.6,8.6-8.8,16.3-15.4,22.899c-6.6,6.601-14.3,11.801-22.9,15.4C91.1,142.1,81.7,144,72,144z M72,10.3c-16.5,0-32,6.4-43.7,18.1
		C16.601,40.1,10.3,55.5,10.3,72s6.4,31.999,18.1,43.699c11.7,11.7,27.2,18.1,43.7,18.1s32-6.399,43.7-18.1s18.1-27.199,18.1-43.599
		c0-16.4-6.4-32.001-18.1-43.701C104.1,16.7,88.5,10.3,72,10.3z"/>
	<g>
		<path fill="#3D93D0" d="M47.7,46.6h12.6L72.5,89.4L84.8,46.6H97l-19.2,56.399H66.7L47.7,46.6z"/>
	</g>
</g>
</svg>
