<?xml version="1.0" encoding="utf-8"?>
<!-- Generator: Adobe Illustrator 16.0.0, SVG Export Plug-In . SVG Version: 6.00 Build 0)  -->
<!DOCTYPE svg PUBLIC "-//W3C//DTD SVG 1.1//EN" "http://www.w3.org/Graphics/SVG/1.1/DTD/svg11.dtd">
<svg version="1.1" id="_x35_0m" xmlns="http://www.w3.org/2000/svg" xmlns:xlink="http://www.w3.org/1999/xlink" x="0px" y="0px"
	 width="144px" height="144px" viewBox="0 0 144 144" enable-background="new 0 0 144 144" xml:space="preserve">
<g>
	<circle fill="#EC2227" cx="72.05" cy="71.95" r="68.042"/>
	<path fill="#010101" d="M72.05,144c-9.721,0-19.14-1.904-28.059-5.612c-8.617-3.607-16.233-8.818-22.848-15.433
		c-6.613-6.612-11.824-14.329-15.532-22.947C1.904,91.19,0,81.67,0,71.949c0-9.72,1.904-19.14,5.712-28.059
		c3.607-8.517,8.718-16.233,15.332-22.847c6.613-6.614,14.33-11.725,22.947-15.432C52.91,1.904,62.329,0,72.05,0
		c9.72,0,19.14,1.904,28.059,5.612c8.617,3.607,16.233,8.817,22.848,15.432c6.613,6.613,11.824,14.33,15.432,22.847
		C142.196,52.81,144,62.229,144,71.949c0,9.721-1.904,19.141-5.612,28.059c-3.607,8.618-8.818,16.234-15.432,22.848
		c-6.614,6.614-14.33,11.825-22.848,15.433C91.189,142.096,81.77,144,72.05,144z M72.05,10.222c-16.534,0-31.967,6.412-43.69,18.037
		c-11.725,11.624-18.038,27.156-18.038,43.69c0,16.535,6.413,31.967,18.038,43.691c11.624,11.724,27.156,18.138,43.69,18.138
		s31.966-6.414,43.691-18.037c11.724-11.625,18.037-27.156,18.037-43.691c0-16.534-6.413-31.967-18.037-43.69
		C104.116,16.634,88.484,10.222,72.05,10.222z"/>
	<g>
		<path fill="#010101" d="M72.25,89.787c2.807,0,5.011-0.301,6.714-0.901c3.308-1.203,4.91-3.308,4.91-6.515
			c0-1.804-0.802-3.307-2.404-4.309c-1.604-1.002-4.209-1.804-7.616-2.605l-6.013-1.303c-5.812-1.303-9.82-2.706-12.024-4.31
			c-3.809-2.604-5.612-6.613-5.612-12.124c0-5.011,1.804-9.22,5.512-12.527c3.607-3.306,9.019-5.01,16.033-5.01
			c5.912,0,10.923,1.604,15.132,4.71s6.313,7.615,6.514,13.629H82.07c-0.2-3.408-1.703-5.713-4.409-7.216
			c-1.804-0.902-4.108-1.403-6.813-1.403c-3.007,0-5.411,0.602-7.216,1.805c-1.803,1.202-2.705,2.905-2.705,5.11
			c0,2.004,0.902,3.508,2.705,4.51c1.103,0.701,3.608,1.402,7.315,2.304l9.62,2.306c4.209,1.002,7.416,2.404,9.521,4.107
			c3.307,2.606,5.01,6.414,5.01,11.425c0,5.11-1.903,9.319-5.812,12.727c-3.908,3.406-9.42,5.11-16.535,5.11
			c-7.314,0-13.026-1.704-17.235-5.01c-4.209-3.308-6.213-7.917-6.213-13.729h11.123c0.301,2.605,1.002,4.51,2.104,5.712
			C64.334,88.685,67.641,89.787,72.25,89.787z"/>
	</g>
</g>
</svg>
