<?xml version="1.0" encoding="utf-8"?>
<!-- Generator: Adobe Illustrator 16.0.0, SVG Export Plug-In . SVG Version: 6.00 Build 0)  -->
<!DOCTYPE svg PUBLIC "-//W3C//DTD SVG 1.1//EN" "http://www.w3.org/Graphics/SVG/1.1/DTD/svg11.dtd">
<svg version="1.1" id="_x35_0m" xmlns="http://www.w3.org/2000/svg" xmlns:xlink="http://www.w3.org/1999/xlink" x="0px" y="0px"
	 width="144px" height="144px" viewBox="0 0 144 144" enable-background="new 0 0 144 144" xml:space="preserve">
<g>
	<circle fill="#61C5BC" cx="72" cy="72" r="68.101"/>
	<path fill="#010101" d="M72,143.999c-9.699,0-19.2-1.898-28-5.699c-8.6-3.6-16.3-8.801-22.899-15.4
		C14.5,116.3,9.3,108.601,5.7,99.999C1.9,91.2,0,81.7,0,71.999c0-9.699,1.9-19.199,5.7-28c3.6-8.598,8.8-16.299,15.4-22.898
		C27.7,14.501,35.4,9.3,44,5.7c8.8-3.801,18.301-5.699,28-5.699c9.7,0,19.2,1.898,28,5.699c8.601,3.6,16.3,8.801,22.9,15.4
		c6.6,6.6,11.8,14.301,15.399,22.898c3.801,8.9,5.7,18.301,5.7,28c0,9.701-1.899,19.201-5.7,28c-3.6,8.602-8.8,16.301-15.399,22.9
		c-6.601,6.6-14.3,11.801-22.9,15.4C91.2,142.101,81.7,143.999,72,143.999z M72,10.3c-16.5,0-32,6.4-43.7,18.102
		c-11.699,11.699-18,27.1-18,43.598c0,16.502,6.4,32.002,18.101,43.701c11.699,11.699,27.199,18.1,43.7,18.1
		c16.5,0,31.999-6.4,43.699-18.1s18.101-27.199,18.101-43.6s-6.4-32-18.101-43.699C104.1,16.7,88.5,10.3,72,10.3z"/>
	<g>
		<path fill="#010101" d="M57.399,97.501H47.3v-51.9h15.8l9.4,40.799l9.3-40.799H97.4v51.799H87.3v-35c0-1,0-2.398,0-4.199
			c0-1.799,0-3.199,0-4.199l-9.8,43.498H67.101L57.3,54.001c0,1,0,2.4,0,4.199c0,1.801,0,3.199,0,4.199L57.399,97.501L57.399,97.501
			z"/>
	</g>
</g>
</svg>
