<?xml version="1.0" encoding="utf-8"?>
<!-- Generator: Adobe Illustrator 16.0.0, SVG Export Plug-In . SVG Version: 6.00 Build 0)  -->
<!DOCTYPE svg PUBLIC "-//W3C//DTD SVG 1.1//EN" "http://www.w3.org/Graphics/SVG/1.1/DTD/svg11.dtd">
<svg version="1.1" id="_x35_0m" xmlns="http://www.w3.org/2000/svg" xmlns:xlink="http://www.w3.org/1999/xlink" x="0px" y="0px"
	 width="144px" height="144px" viewBox="0 0 144 144" enable-background="new 0 0 144 144" xml:space="preserve">
<g>
	<path fill="#FFFFFF" d="M28.101,76.75c0,0,8-14.2,44.8-14c0,0,41.899-0.899,47,14.601v45.799c0,0-14.6,16-46.899,14.4
		c0,0-37.9-0.7-46.101-15.5L28.101,76.75z"/>
	<path fill="#ADADAD" d="M73.3,8.95L6.101,38.75c0,0,71.5,19.2,131.8,0L73.3,8.95z"/>
	<path fill="#010101" d="M143.6,37.75l-70-32.3L0.4,37.85l5.4,1.501c0.2,0.1,7.8,2,19.899,4.1V87.85l0,0v32.7
		c0,8.699,16.9,18,48.101,18c31.199,0,48.1-9.301,48.1-18v-25.7l0,0V43.65c5.6-1.2,11.2-2.601,16.699-4.3L143.6,37.75z M118,120.55
		c0,6.601-18.1,14-44.199,14c-26.101,0-44.2-7.399-44.2-14v-1.4C47.101,127.75,60,128.15,61.8,128.15c0.101,0,0.2,0,0.2,0
		l-0.1-4.001c-0.101,0-13.8,0.101-32.3-9.4v-2.898c17.2,8.399,29.899,8.699,31.7,8.699c0.1,0,0.199,0,0.199,0l-0.1-4
		c-0.1,0-13.601,0.1-31.8-9.2v-3.6c17.7,8.8,30.7,9.101,32.5,9.101c0.1,0,0.199,0,0.199,0l-0.1-4.001c-0.1,0-14,0.101-32.6-9.6
		v-2.899c17.399,8.5,30.2,8.899,32,8.899c0.1,0,0.199,0,0.199,0l-0.1-4c-0.1,0-13.8,0.1-32.1-9.301V86.05
		c6.699,5.899,21.699,10.7,44.2,10.7c22.5,0,37.5-4.801,44.199-10.7V120.55L118,120.55z M73.801,92.85c-26.001,0-44.2-7.399-44.2-14
		s18.1-14,44.2-14c26.1,0,44.199,7.399,44.199,14S99.9,92.85,73.801,92.85z M118,71.55c-6.699-5.899-21.699-10.699-44.199-10.699
		c-22.501,0-37.4,4.8-44.101,10.699v-27.5c12.7,2.001,29.4,3.801,47.7,3.801c13.1,0,26.999-0.9,40.699-3.501
		C118,44.35,118,71.55,118,71.55z M12.5,36.85l61.001-27l58.999,27.2C84.301,50.55,29.9,40.65,12.5,36.85z"/>
</g>
</svg>
