<?xml version="1.0" encoding="utf-8"?>
<!-- Generator: Adobe Illustrator 16.0.0, SVG Export Plug-In . SVG Version: 6.00 Build 0)  -->
<!DOCTYPE svg PUBLIC "-//W3C//DTD SVG 1.1//EN" "http://www.w3.org/Graphics/SVG/1.1/DTD/svg11.dtd">
<svg version="1.1" id="_x35_0m" xmlns="http://www.w3.org/2000/svg" xmlns:xlink="http://www.w3.org/1999/xlink" x="0px" y="0px"
	 width="144px" height="144px" viewBox="0 0 144 144" enable-background="new 0 0 144 144" xml:space="preserve">
<g>
	<polygon fill="#AEAEAE" points="10.088,4.4 10.088,45.701 76.488,96 133.988,46.6 130.688,4.4 	"/>
	<g id="Layer_1_00000176043535804802879660000016332918342581597837_">
		<path fill="#010101" d="M133.388,0.301c-0.7,0-1.4,0.301-1.9,0.801H13.088c-0.1,0-0.3,0-0.4,0.1c-0.5-0.5-1.2-0.801-1.899-0.801
			c-1.5,0-2.6,1.199-2.6,2.6v88c0,1.5,1.2,2.6,2.6,2.6c1.4,0,2.6-1.199,2.6-2.6V49.301l60.7,48.998V141.1c0,1.5,1.2,2.6,2.6,2.6
			s2.6-1.199,2.6-2.6V98.201l51.3-45.4v38.1c0,1.5,1.2,2.6,2.6,2.6s2.6-1.199,2.6-2.6v-88C135.988,1.4,134.888,0.301,133.388,0.301z
			 M125.088,6.301L76.788,49.5L20.888,6.301H125.088z M13.488,42.5V7.301l60.7,46.9V91.5L13.488,42.5z M79.388,91.1V54.301
			l51.3-45.9v37.301L79.388,91.1z"/>
	</g>
</g>
</svg>
