<?xml version="1.0" encoding="utf-8"?>
<!-- Generator: Adobe Illustrator 16.0.0, SVG Export Plug-In . SVG Version: 6.00 Build 0)  -->
<!DOCTYPE svg PUBLIC "-//W3C//DTD SVG 1.1//EN" "http://www.w3.org/Graphics/SVG/1.1/DTD/svg11.dtd">
<svg version="1.1" id="_x35_0m" xmlns="http://www.w3.org/2000/svg" xmlns:xlink="http://www.w3.org/1999/xlink" x="0px" y="0px"
	 width="144px" height="144px" viewBox="0 0 144 144" enable-background="new 0 0 144 144" xml:space="preserve">
<g>
	<g>
		<path fill="#010101" d="M43.331,73.291l4.466,1.416c-0.687,2.482-1.819,4.335-3.409,5.544s-3.605,1.809-6.057,1.809
			c-3.028,0-5.511-1.036-7.461-3.105c-1.95-2.068-2.919-4.891-2.919-8.484c0-3.791,0.98-6.742,2.941-8.834
			c1.96-2.103,4.531-3.148,7.722-3.148c2.789,0,5.054,0.828,6.797,2.473c1.034,0.97,1.808,2.375,2.331,4.194l-4.554,1.089
			c-0.271-1.177-0.827-2.112-1.688-2.799c-0.86-0.686-1.895-1.024-3.115-1.024c-1.688,0-3.061,0.61-4.107,1.82
			c-1.045,1.208-1.579,3.18-1.579,5.892c0,2.887,0.522,4.934,1.557,6.153c1.035,1.222,2.386,1.83,4.042,1.83
			c1.219,0,2.276-0.391,3.159-1.164C42.307,76.177,42.939,74.957,43.331,73.291z"/>
		<path fill="#010101" d="M72.283,81.668h-5.01l-1.994-5.175h-9.106l-1.884,5.175h-4.88l8.877-22.788h4.869L72.283,81.668z
			 M63.82,72.647l-3.138-8.452L57.6,72.647H63.82z"/>
		<path fill="#010101" d="M74.669,81.668V58.88h6.884l4.139,15.544l4.084-15.544h6.906v22.788h-4.281v-17.94l-4.52,17.94h-4.434
			l-4.509-17.94v17.94H74.669z"/>
		<path fill="#010101" d="M101.247,81.668V58.88h7.386c2.799,0,4.619,0.108,5.468,0.337c1.307,0.339,2.396,1.09,3.278,2.233
			c0.883,1.145,1.318,2.625,1.318,4.433c0,1.396-0.251,2.572-0.762,3.531c-0.512,0.958-1.155,1.697-1.939,2.243
			c-0.784,0.544-1.579,0.903-2.386,1.078c-1.099,0.217-2.69,0.326-4.77,0.326h-2.996v8.595h-4.597V81.668z M105.843,62.735v6.471
			h2.517c1.808,0,3.028-0.119,3.638-0.358c0.61-0.241,1.089-0.61,1.438-1.123c0.349-0.512,0.523-1.1,0.523-1.774
			c0-0.829-0.24-1.516-0.73-2.048c-0.49-0.535-1.1-0.872-1.852-1.014c-0.544-0.099-1.655-0.153-3.312-0.153H105.843L105.843,62.735z
			"/>
	</g>
	<path fill="#030303" d="M143.804,65.22c0.109-0.861,0.196-1.722,0.196-2.582c0-5.828-2.614-11.34-7.244-16.252V39.71h-2.298v4.454
		c-3.181-2.865-7.069-5.501-11.557-7.822v-6.251h-2.298v5.119c-3.791-1.797-7.974-3.376-12.44-4.728v-5.107h-2.298v4.434
		c-4.258-1.178-8.769-2.137-13.485-2.855v-5.186h-2.297v4.849c-4.967-0.664-10.152-1.057-15.479-1.154v-5.644h-2.298v5.611
		c-0.098,0-0.196,0-0.294,0c-5.522,0-10.893,0.337-16.056,0.946v-5.838h-2.298v6.121c-6.47,0.883-12.581,2.222-18.213,3.944V25.43
		h-2.298v5.913c-4.542,1.514-8.736,3.278-12.505,5.262V33.13h-2.298v4.748c-4.128,2.386-7.657,5.044-10.49,7.921v-3.464H5.556v6.012
		c-3.268,4.041-5.174,8.442-5.468,13.061H0v30.804h2.298V81.982c1.111,2.201,2.604,4.325,4.433,6.351v12.733H9.03V90.654
		c2.887,2.68,6.405,5.161,10.435,7.384v13.42h2.299V99.27c4.107,2.069,8.692,3.888,13.659,5.413v14.236h2.299v-13.55
		c6.143,1.721,12.82,3.007,19.878,3.747v15.065h2.298v-14.848c3.932,0.349,7.974,0.533,12.102,0.533c3.323,0,6.59-0.13,9.804-0.358
		v14.673h2.298v-14.848c7.733-0.675,15.054-1.993,21.752-3.846v13.442h2.298v-14.106c7.407-2.232,13.976-5.119,19.4-8.518v13.573
		h2.298V94.771c8.877-6.188,14.139-13.844,14.139-22.123c0-0.816-0.066-1.622-0.175-2.417c0.098-0.806,0.175-1.612,0.175-2.42
		C143.99,66.94,143.913,66.08,143.804,65.22z M140.929,57.072c-1.111-1.907-2.517-3.747-4.172-5.512v-2.016
		C138.674,51.942,140.089,54.458,140.929,57.072z M5.523,58.379c-0.795,0.991-1.525,2.004-2.157,3.028
		c0.544-1.46,1.264-2.887,2.157-4.281V58.379z M7.821,54.032c2.668-3.127,6.219-6.001,10.489-8.583v2.439
		c-4.117,2.387-7.657,5.044-10.489,7.92V54.032L7.821,54.032z M20.62,44.131c3.726-2.035,7.93-3.844,12.505-5.392v2.613
		c-4.542,1.515-8.747,3.279-12.505,5.263V44.131z M35.423,37.987c5.599-1.731,11.721-3.093,18.212-3.987v2.669
		c-6.47,0.884-12.592,2.223-18.212,3.944V37.987z M55.934,33.717c5.163-0.608,10.533-0.936,16.055-0.936c0.099,0,0.196,0,0.294,0
		v2.669c-0.098,0-0.196,0-0.294,0c-5.522,0-10.892,0.326-16.055,0.936V33.717z M74.582,32.814c5.336,0.097,10.511,0.5,15.479,1.165
		v2.657c-4.978-0.664-10.152-1.066-15.479-1.165V32.814z M92.358,34.307c4.727,0.73,9.237,1.699,13.485,2.885v2.637
		c-4.259-1.176-8.768-2.146-13.485-2.864V34.307z M108.142,37.856c4.509,1.373,8.681,2.997,12.439,4.837v2.538
		c-3.802-1.798-7.963-3.398-12.439-4.739V37.856z M122.89,43.87c4.608,2.472,8.519,5.271,11.558,8.321v1.983
		c-3.181-2.866-7.081-5.491-11.558-7.811V43.87z M136.746,54.752c1.71,2.123,3.028,4.345,3.878,6.655
		c-1.057-1.722-2.364-3.389-3.878-5V54.752z M134.448,47.007v2.331c-3.181-2.866-7.081-5.479-11.558-7.799v-2.832
		C127.498,41.157,131.397,43.956,134.448,47.007z M120.592,37.52v2.876c-3.802-1.798-7.963-3.398-12.439-4.75v-2.963
		C112.651,34.056,116.823,35.689,120.592,37.52z M105.843,32.019v2.962c-4.259-1.175-8.768-2.145-13.485-2.864v-2.983
		C97.085,29.862,101.607,30.832,105.843,32.019z M90.061,28.806v2.983c-4.978-0.663-10.152-1.066-15.479-1.165v-2.996
		C79.918,27.737,85.093,28.13,90.061,28.806z M72,27.607c0.099,0,0.196,0,0.294,0v2.996c-0.098,0-0.195,0-0.294,0
		c-5.522,0-10.892,0.325-16.056,0.936v-2.995C61.097,27.935,66.466,27.607,72,27.607z M53.635,28.838v2.996
		c-6.47,0.882-12.592,2.222-18.212,3.942v-2.962C41.021,31.082,47.144,29.73,53.635,28.838z M33.125,33.565v2.952
		c-4.542,1.514-8.736,3.288-12.505,5.271v-2.821C24.345,36.92,28.539,35.112,33.125,33.565z M18.322,40.275v2.776
		c-4.128,2.386-7.658,5.055-10.49,7.932v-2.103C10.5,45.744,14.041,42.857,18.322,40.275z M5.523,51.953v1.601
		c-0.926,1.144-1.754,2.319-2.461,3.519C3.627,55.318,4.466,53.608,5.523,51.953z M105.843,98.43
		c-6.655,1.863-13.986,3.191-21.752,3.879v-2.984c7.733-0.676,15.054-2.004,21.752-3.855V98.43z M108.142,94.805
		c7.406-2.233,13.975-5.132,19.399-8.53v2.724c-5.305,3.496-11.895,6.48-19.399,8.768V94.805z M81.804,102.493
		c-3.202,0.229-6.481,0.35-9.804,0.35c-4.128,0-8.169-0.187-12.102-0.534v-2.984c3.932,0.348,7.974,0.522,12.102,0.522
		c3.323,0,6.602-0.12,9.804-0.349V102.493z M57.6,102.079c-7.08-0.751-13.757-2.035-19.878-3.769v-2.963
		c6.143,1.732,12.82,3.007,19.878,3.747V102.079z M35.423,97.624c-5.01-1.546-9.597-3.408-13.659-5.522v-2.854
		c4.107,2.07,8.692,3.899,13.659,5.414V97.624z M19.465,90.85c-4.149-2.386-7.667-5.055-10.435-7.93v-2.266
		c2.887,2.689,6.394,5.174,10.435,7.396V90.85z M6.731,80.23c-1.655-2.19-2.908-4.478-3.67-6.853
		c0.991,1.699,2.232,3.344,3.67,4.935V80.23z M3.366,79.053c0.937,1.524,2.069,3.007,3.365,4.444v1.569
		C5.272,83.139,4.128,81.133,3.366,79.053z M9.03,87.757v-1.929c2.887,2.68,6.405,5.163,10.435,7.385v2.462
		C15.315,93.3,11.786,90.643,9.03,87.757z M21.764,96.938v-2.506c4.107,2.069,8.692,3.889,13.659,5.414v2.625
		C30.413,100.914,25.826,99.051,21.764,96.938z M37.722,103.146v-2.635c6.143,1.73,12.82,3.007,19.878,3.747v2.656
		C50.52,106.176,43.832,104.891,37.722,103.146z M72,107.679c-4.128,0-8.169-0.187-12.102-0.534v-2.657
		c3.932,0.349,7.974,0.533,12.102,0.533c3.323,0,6.602-0.119,9.804-0.349v2.669C78.59,107.56,75.323,107.679,72,107.679z
		 M84.102,107.145v-2.657c7.733-0.676,15.054-2.006,21.752-3.856v2.636C99.188,105.13,91.869,106.47,84.102,107.145z
		 M108.142,102.603v-2.625c7.406-2.233,13.975-5.131,19.399-8.539v2.385C122.248,97.32,115.657,100.304,108.142,102.603z
		 M129.851,92.211v-2.298c4.673-3.258,8.355-6.917,10.773-10.86C138.848,83.855,135.101,88.312,129.851,92.211z M129.851,87.385
		v-2.646c4.87-3.399,8.66-7.222,11.078-11.361C139.284,78.497,135.417,83.258,129.851,87.385z M129.851,82.211v-3.158h-2.298v4.761
		c-5.305,3.496-11.884,6.49-19.4,8.779v-4.488h-2.298v5.152c-6.655,1.862-13.986,3.192-21.752,3.879v-3.771h-2.298v3.955
		c-3.202,0.229-6.481,0.348-9.804,0.348c-4.128,0-8.169-0.186-12.102-0.532v-3.771H57.6v3.54c-7.08-0.751-13.757-2.037-19.878-3.769
		v-5.032h-2.299v4.346c-5-1.547-9.597-3.409-13.659-5.522v-6.263h-2.299v5c-4.161-2.386-7.667-5.055-10.435-7.94v-7.474H6.731v4.792
		c-1.786-2.362-3.093-4.847-3.834-7.417c0.556-1.949,1.449-3.845,2.625-5.674v4.868h2.298v-7.951
		c2.668-3.127,6.219-6.014,10.489-8.583v7.331h2.309v-8.65c3.726-2.036,7.919-3.855,12.505-5.402v6.351h2.298v-7.08
		c5.599-1.732,11.721-3.082,18.212-3.977v6.166h2.298v-6.471c5.163-0.608,10.533-0.936,16.055-0.936c0.099,0,0.196,0,0.294,0v6.699
		h2.299v-6.666c5.336,0.097,10.511,0.499,15.479,1.164v7.451h2.298v-7.113c4.727,0.73,9.237,1.689,13.485,2.875v7.843h2.299v-7.167
		c4.509,1.372,8.681,3.007,12.439,4.836v7.048h2.298v-5.882c4.608,2.462,8.518,5.261,11.557,8.311v7.179h2.298v-4.607
		c2.059,2.549,3.541,5.25,4.346,8.061C139.556,72.985,135.624,77.931,129.851,82.211z"/>
</g>
</svg>
