<?xml version="1.0" encoding="UTF-8"?>
<svg id="_50m" data-name="50m" xmlns="http://www.w3.org/2000/svg" version="1.1" viewBox="0 0 144 144">
  <defs>
    <style>
      .cls-1 {
        fill: #ed2024;
      }

      .cls-1, .cls-2, .cls-3, .cls-4 {
        stroke-width: 0px;
      }

      .cls-2 {
        fill: #000;
      }

      .cls-3 {
        fill: #e61628;
      }

      .cls-4 {
        fill: #fff;
      }
    </style>
  </defs>
  <path class="cls-4" d="M144,72c0,39.8-32.2,72-72,72S0,111.8,0,72,32.2,0,72,0s72,32.2,72,72Z"/>
  <path class="cls-1" d="M72.3,143.9C32.9,143.9.8,111.8.8,72.4S32.9,1,72.3,1s71.4,32.1,71.4,71.4-32.1,71.4-71.4,71.4ZM72.3,10.5c-34.2,0-62,27.8-62,62s27.8,62,62,62,62-27.8,62-62S106.5,10.5,72.3,10.5Z"/>
  <path class="cls-3" d="M21.6,90c-1-.6-1.4-1.4-1.4-2.6,0-4.8,0-9.6,0-14.4,0-1.2.3-2.4.5-3.7-.3,0-.6,0-.9,0-2.3,0-2.6-.5-1.8-2.7.8-2.1,1.2-2.5,3.6-2.5.9,0,1.3-.3,1.5-1.2.9-2.5,2-5,2.7-7.6,1-3.8,3.8-5.4,7.3-6.1,5-1,10-1,15.1-.7,2.7.2,5.3.6,7.9,1.2,2.5.5,4.2,2.1,5,4.7.9,2.9,2.1,5.6,3,8.5.3.8.7,1.2,1.6,1.1,2.8-.2,3.3,1.3,3.9,3.8.2.8-.4,1.3-1.2,1.3-.6,0-1.3,0-1.9,0,1,6.3.3,12.6.4,18.9,0,.6-.8,1.3-1.3,1.9h-7.8c-2.1-1.2-.8-3.5-1.4-5.1h-25.9c0,.9,0,1.7,0,2.5,0,1.1-.3,2.1-1.3,2.7h-7.8ZM60.6,64.8c-.1-.6-.2-1-.3-1.4-.8-2.6-1.8-5.1-2.5-7.7-.4-1.4-1.3-2.2-2.7-2.5-.6-.2-1.3-.3-1.9-.4-6-.9-12.1-.7-18.1-.2-3.3.3-5.5,1.6-6.3,5-.5,2.4-1.4,4.6-2.2,7.2,11.5,2.4,22.7,2.5,34,0ZM28.9,77.3s0,0,0-.1c.9,0,1.8.2,2.6,0,.7-.2,1.6-.7,1.7-1.2.1-.5-.5-1.5-1-1.8-2-1-4.1-1.9-6.2-2.6-.8-.2-2.3,0-2.5.3-.5,1-.6,2.4-.5,3.6,0,.6,1.2,1.3,1.9,1.5,1.3.3,2.6.3,4,.4ZM58.2,77.2c1.3,0,2.4,0,3.4-.2,2.9-.4,3.4-1.3,3-4.1-.2-1-.7-1.6-1.8-1.5-3,.2-5.7,1.6-8.2,3.1-1.1.6-.7,2.1.5,2.4,1.1.3,2.3.3,3.1.3Z"/>
  <path class="cls-2" d="M82,90c-1-.6-1.4-1.4-1.4-2.6,0-4.8,0-9.6,0-14.4,0-1.2.3-2.4.5-3.7-.3,0-.6,0-.9,0-2.3,0-2.6-.5-1.8-2.7.8-2.1,1.2-2.5,3.6-2.5.9,0,1.3-.3,1.5-1.2.9-2.5,2-5,2.7-7.6,1-3.8,3.8-5.4,7.3-6.1,5-1,10-1,15.1-.7,2.7.2,5.3.6,7.9,1.2,2.5.5,4.2,2.1,5,4.7.9,2.9,2.1,5.6,3,8.5.3.8.7,1.2,1.6,1.1,2.8-.2,3.3,1.3,3.9,3.8.2.8-.4,1.3-1.2,1.3-.6,0-1.3,0-1.9,0,1,6.3.3,12.6.4,18.9,0,.6-.8,1.3-1.3,1.9h-7.8c-2.1-1.2-.8-3.5-1.4-5.1h-25.9c0,.9,0,1.7,0,2.5,0,1.1-.3,2.1-1.3,2.7h-7.8ZM121,64.8c-.1-.6-.2-1-.3-1.4-.8-2.6-1.8-5.1-2.5-7.7-.4-1.4-1.3-2.2-2.7-2.5-.6-.2-1.3-.3-1.9-.4-6-.9-12.1-.7-18.1-.2-3.3.3-5.5,1.6-6.3,5-.5,2.4-1.4,4.6-2.2,7.2,11.5,2.4,22.7,2.5,34,0ZM89.3,77.3s0,0,0-.1c.9,0,1.8.2,2.6,0,.7-.2,1.6-.7,1.7-1.2.1-.5-.5-1.5-1-1.8-2-1-4.1-1.9-6.2-2.6-.8-.2-2.3,0-2.5.3-.5,1-.6,2.4-.5,3.6,0,.6,1.2,1.3,1.9,1.5,1.3.3,2.6.3,4,.4ZM118.6,77.2c1.3,0,2.4,0,3.4-.2,2.9-.4,3.4-1.3,3-4.1-.2-1-.7-1.6-1.8-1.5-3,.2-5.7,1.6-8.2,3.1-1.1.6-.7,2.1.5,2.4,1.1.3,2.3.3,3.1.3Z"/>
</svg>