<?xml version="1.0" encoding="UTF-8" standalone="no"?>
<!-- Generator: Adobe Illustrator 16.0.0, SVG Export Plug-In . SVG Version: 6.00 Build 0)  -->

<svg
   version="1.1"
   id="_x35_0m"
   x="0px"
   y="0px"
   width="144px"
   height="144px"
   viewBox="0 0 144 144"
   enable-background="new 0 0 144 144"
   xml:space="preserve"
   sodipodi:docname="compression_2023.svg"
   inkscape:version="1.2.1 (9c6d41e410, 2022-07-14)"
   xmlns:inkscape="http://www.inkscape.org/namespaces/inkscape"
   xmlns:sodipodi="http://sodipodi.sourceforge.net/DTD/sodipodi-0.dtd"
   xmlns="http://www.w3.org/2000/svg"
   xmlns:svg="http://www.w3.org/2000/svg"><defs
   id="defs11" /><sodipodi:namedview
   id="namedview9"
   pagecolor="#ffffff"
   bordercolor="#000000"
   borderopacity="0.25"
   inkscape:showpageshadow="2"
   inkscape:pageopacity="0.0"
   inkscape:pagecheckerboard="0"
   inkscape:deskcolor="#d1d1d1"
   showgrid="false"
   inkscape:zoom="5.4722222"
   inkscape:cx="63.685279"
   inkscape:cy="72"
   inkscape:window-width="1920"
   inkscape:window-height="986"
   inkscape:window-x="-11"
   inkscape:window-y="-11"
   inkscape:window-maximized="1"
   inkscape:current-layer="_x35_0m" />
<g
   id="g6">
	<path
   fill="#ed2024"
   d="m 91.440669,78.550406 -0.42457,1.365455 c -2.617529,8.412796 -10.208458,14.064674 -18.886487,14.064674 -8.615823,0 -16.378556,-5.815933 -18.880562,-14.1437 L 52.833366,78.452374 H 1.0870797 V 89.488042 H 44.112881 c 5.567801,10.390454 16.203792,16.797588 28.016731,16.797588 11.727039,0 22.331433,-6.36712 27.958478,-16.699555 h 43.17983 V 78.550406 Z"
   id="path2"
   style="stroke:#000000;stroke-width:1.49075;stroke-dasharray:none;stroke-opacity:1" />
	<polygon
   fill="#010101"
   points="57.979,37.519 57.979,44.519 68.377,44.519 68.377,62.319 57.979,62.319 72.178,86.819 86.377,62.319 75.979,62.319 75.979,44.519 86.377,44.519 86.377,37.519 "
   id="polygon4"
   transform="translate(33.989847,-10.416243)" />
</g>
</svg>
