<?xml version="1.0" encoding="utf-8"?>
<!-- Generator: Adobe Illustrator 16.0.0, SVG Export Plug-In . SVG Version: 6.00 Build 0)  -->
<!DOCTYPE svg PUBLIC "-//W3C//DTD SVG 1.1//EN" "http://www.w3.org/Graphics/SVG/1.1/DTD/svg11.dtd">
<svg version="1.1" id="Layer_1" xmlns="http://www.w3.org/2000/svg" xmlns:xlink="http://www.w3.org/1999/xlink" x="0px" y="0px"
	 width="144px" height="144px" viewBox="0 0 144 144" enable-background="new 0 0 144 144" xml:space="preserve">
<g>
	<g>
		<ellipse fill="#FCCB53" cx="72" cy="72" rx="67.814" ry="67.556"/>
		<path fill="#010101" d="M72,144c-39.702,0-72-32.297-72-72S32.298,0,72,0s72,32.297,72,72S111.702,144,72,144z M72,8.888
			C36.915,8.888,8.372,37.202,8.372,72S36.915,135.112,72,135.112S135.628,106.798,135.628,72S107.085,8.888,72,8.888z"/>
	</g>
	<g>
		<polygon fill="#010101" points="31.004,120.689 25.217,114.261 117.058,21.053 122.845,27.481 		"/>
	</g>
	<g>
		<polygon fill="#010101" points="40.298,133.438 34.511,127.009 126.352,33.796 132.139,40.225 		"/>
	</g>
	<g>
		<polygon fill="#010101" points="19.524,110.772 13.738,104.344 105.579,11.131 111.366,17.56 		"/>
	</g>
</g>
</svg>
