<?xml version="1.0" encoding="UTF-8" standalone="no"?>
<!-- Generator: Adobe Illustrator 16.0.0, SVG Export Plug-In . SVG Version: 6.00 Build 0)  -->

<svg
   version="1.1"
   id="_x35_0m"
   x="0px"
   y="0px"
   width="144px"
   height="144px"
   viewBox="0 0 144 144"
   enable-background="new 0 0 144 144"
   xml:space="preserve"
   sodipodi:docname="fuel_diesel.svg"
   inkscape:version="1.2.1 (9c6d41e410, 2022-07-14)"
   xmlns:inkscape="http://www.inkscape.org/namespaces/inkscape"
   xmlns:sodipodi="http://sodipodi.sourceforge.net/DTD/sodipodi-0.dtd"
   xmlns="http://www.w3.org/2000/svg"
   xmlns:svg="http://www.w3.org/2000/svg"><defs
   id="defs2133" /><sodipodi:namedview
   id="namedview2131"
   pagecolor="#ffffff"
   bordercolor="#000000"
   borderopacity="0.25"
   inkscape:showpageshadow="2"
   inkscape:pageopacity="0.0"
   inkscape:pagecheckerboard="0"
   inkscape:deskcolor="#d1d1d1"
   showgrid="false"
   inkscape:zoom="5.4722222"
   inkscape:cx="54.639594"
   inkscape:cy="72"
   inkscape:window-width="1920"
   inkscape:window-height="986"
   inkscape:window-x="-11"
   inkscape:window-y="-11"
   inkscape:window-maximized="1"
   inkscape:current-layer="_x35_0m" />
<circle
   fill="#F4EB26"
   cx="72"
   cy="72.156"
   r="68.664"
   id="circle2124" />
<path
   fill="#040303"
   d="m 72,43.904616 c 3.93513,0 7.10898,0.642919 9.52284,1.928111 2.41257,1.285193 4.28958,3.122105 5.62652,5.509445 1.33758,2.386692 2.2431,5.259779 2.71526,8.617319 0.47152,3.357539 0.70825,7.108981 0.70825,11.25303 0,4.932498 -0.30205,9.220783 -0.90487,12.86809 -0.60347,3.646013 -1.63964,6.649106 -3.10853,9.011223 -1.46888,2.36017 -3.43644,4.11817 -5.90269,5.27206 -2.46561,1.1539 -5.58707,1.731486 -9.36502,1.731486 H 53.42713 V 43.904616 Z m -2.203,47.848986 c 1.99344,0 3.59362,-0.341511 4.80055,-1.023885 1.20628,-0.681728 2.16419,-1.809747 2.87179,-3.383412 0.7076,-1.573665 1.18041,-3.64666 1.41714,-6.217044 0.23544,-2.571677 0.3538,-5.771398 0.3538,-9.601749 0,-3.199721 -0.10543,-6.006833 -0.31499,-8.420045 -0.20956,-2.413858 -0.64227,-4.420233 -1.29813,-6.021063 -0.6565,-1.60083 -1.6267,-2.807113 -2.91189,-3.620788 -1.28519,-0.813028 -3.00374,-1.219218 -5.155,-1.219218 H 64.75972 V 91.752955 H 69.797 Z"
   id="path2126"
   style="stroke-width:0.646801" />
<path
   fill="#020202"
   d="M138.3,44.157c-3.6-8.602-8.8-16.301-15.399-22.9c-6.601-6.6-14.301-11.801-22.9-15.4  c-8.9-3.801-18.3-5.699-28-5.699S52.9,2.056,44,5.856c-8.601,3.6-16.3,8.801-22.899,15.4C14.5,27.855,9.3,35.556,5.701,44.157  C1.9,53.056,0,62.456,0,72.157c0,9.699,1.899,19.199,5.7,27.998c3.6,8.603,8.8,16.301,15.4,22.899  c6.6,6.6,14.299,11.802,22.899,15.401c8.899,3.802,18.3,5.699,28,5.699s19.2-1.897,28-5.699c8.6-3.6,16.3-8.801,22.9-15.399  c6.6-6.601,11.8-14.299,15.398-22.9c3.801-8.898,5.7-18.299,5.7-27.998C144,62.456,142.1,53.056,138.3,44.157z M122.565,107.615  c-0.347,0.496-0.691,0.994-1.054,1.481c-0.033,0.044-0.068,0.087-0.102,0.131c-1.735,2.318-3.635,4.537-5.709,6.629  c-11.7,11.6-27.2,18.1-43.7,18.1c-11.399,0-22.3-3.1-31.899-8.801l0.061-0.062c-2.06-1.24-4.033-2.606-5.926-4.072l-0.035,0.035  c-1.301-1-2.6-2.101-3.801-3.199l0.021-0.021c-2.923-2.662-5.589-5.602-7.958-8.775c-0.052-0.067-0.11-0.136-0.163-0.203  l0.011-0.011c-7.589-10.261-12.082-22.949-12.082-36.69c0-34.113,27.655-61.771,61.771-61.771s61.771,27.657,61.771,61.771  c0,11.535-3.171,22.326-8.676,31.565c-0.033,0.056-0.063,0.112-0.096,0.167c-0.376,0.627-0.771,1.241-1.168,1.854  c-0.17,0.263-0.333,0.529-0.507,0.79C123.078,106.898,122.818,107.254,122.565,107.615z"
   id="path2128" />
</svg>
