<?xml version="1.0" encoding="utf-8"?>
<!-- Generator: Adobe Illustrator 16.0.0, SVG Export Plug-In . SVG Version: 6.00 Build 0)  -->
<!DOCTYPE svg PUBLIC "-//W3C//DTD SVG 1.1//EN" "http://www.w3.org/Graphics/SVG/1.1/DTD/svg11.dtd">
<svg version="1.1" id="_x35_0m" xmlns="http://www.w3.org/2000/svg" xmlns:xlink="http://www.w3.org/1999/xlink" x="0px" y="0px"
	 width="144px" height="144px" viewBox="0 0 144 144" enable-background="new 0 0 144 144" xml:space="preserve">
<circle fill="#37B44A" cx="72" cy="72" r="68.664"/>
<g>
	<path fill="#040303" d="M43.457,96.853c0.984,1.521,2.688,2.28,5.121,2.28c1.957,0,3.518-0.456,4.664-1.368
		c1.146-0.912,2.048-2.18,2.687-3.803c0.64-1.622,1.064-3.549,1.268-5.779c0.202-2.23,0.305-4.664,0.305-7.301v-3.447h-0.203
		c-1.217,1.825-2.961,3.296-5.222,4.41c-2.262,1.116-5.02,1.674-8.264,1.674c-3.174,0-5.881-0.558-8.112-1.674
		c-2.229-1.114-4.035-2.666-5.424-4.664c-1.39-1.986-2.403-4.359-3.042-7.097s-0.963-5.729-0.963-8.974
		c0-8.314,1.845-14.672,5.525-19.063c3.681-4.39,9.582-6.59,17.693-6.59c4.999,0,8.994,0.932,11.965,2.789
		c2.971,1.854,5.252,4.328,6.845,7.4c1.591,3.072,2.615,6.642,3.092,10.697s0.71,8.284,0.71,12.674
		c0,5.142-0.152,10.089-0.456,14.854c-0.305,4.766-1.218,8.974-2.738,12.624s-3.924,6.54-7.198,8.669
		c-3.276,2.13-7.858,3.194-13.739,3.194c-2.565,0-5.05-0.254-7.453-0.761c-2.402-0.507-4.512-1.45-6.337-2.839
		c-1.825-1.39-3.295-3.244-4.41-5.576s-1.704-5.223-1.774-8.67h13.992C41.987,93.222,42.474,95.331,43.457,96.853z M42.696,69.628
		c1.218,2.099,3.245,3.143,6.084,3.143c2.91,0,4.969-1.044,6.186-3.143c1.217-2.1,1.825-5.576,1.825-10.443
		c0-2.029-0.102-3.924-0.305-5.679c-0.202-1.755-0.588-3.265-1.166-4.512c-0.577-1.247-1.389-2.23-2.434-2.94
		c-1.044-0.709-2.413-1.064-4.106-1.064c-1.754,0-3.163,0.355-4.207,1.064c-1.045,0.71-1.846,1.703-2.383,2.99
		c-0.538,1.288-0.893,2.789-1.065,4.512c-0.172,1.725-0.253,3.6-0.253,5.629C40.872,64.052,41.48,67.539,42.696,69.628z"/>
	<path fill="#040303" d="M90.149,48.233l-1.521,16.324h0.202c1.349-1.896,3.113-3.265,5.272-4.105
		c2.16-0.842,4.796-1.268,7.909-1.268c3.447,0,6.307,0.658,8.567,1.977c2.262,1.318,4.056,3.063,5.374,5.223
		c1.318,2.159,2.251,4.613,2.788,7.351s0.812,5.525,0.812,8.364c0,3.984-0.334,7.604-1.014,10.85s-1.876,6.033-3.6,8.365
		c-1.725,2.332-4.076,4.086-7.047,5.271c-2.971,1.187-6.763,1.775-11.356,1.775c-4.532,0-8.192-0.609-11.001-1.825
		c-2.809-1.218-4.948-2.819-6.438-4.817c-1.49-1.996-2.484-4.156-2.991-6.488s-0.761-4.512-0.761-6.541v-1.925h13.992
		c0,1.216,0.071,2.504,0.203,3.853s0.456,2.616,0.963,3.803c0.507,1.186,1.237,2.16,2.181,2.94c0.942,0.78,2.199,1.166,3.751,1.166
		c3.042,0,5.223-1.166,6.54-3.498c1.318-2.332,1.978-5.831,1.978-10.495c0-2.971-0.132-5.445-0.406-7.401
		c-0.273-1.957-0.729-3.519-1.368-4.664s-1.501-1.956-2.586-2.434s-2.433-0.71-4.056-0.71c-2.099,0-3.7,0.588-4.815,1.774
		c-1.116,1.187-1.805,2.788-2.079,4.815h-13.08l2.637-39.035h37.414v11.355H90.149z"/>
</g>
<path fill="#020202" d="M138.3,44.157c-3.6-8.602-8.8-16.301-15.399-22.9c-6.601-6.6-14.301-11.801-22.9-15.4
	c-8.9-3.801-18.3-5.699-28-5.699S52.9,2.056,44,5.856c-8.601,3.6-16.3,8.801-22.899,15.4C14.5,27.855,9.3,35.556,5.701,44.157
	C1.9,53.056,0,62.456,0,72.157c0,9.699,1.899,19.199,5.7,27.998c3.6,8.603,8.8,16.301,15.4,22.899
	c6.6,6.6,14.299,11.802,22.899,15.401c8.899,3.802,18.3,5.699,28,5.699s19.2-1.897,28-5.699c8.6-3.6,16.3-8.801,22.9-15.399
	c6.6-6.601,11.8-14.299,15.398-22.9c3.801-8.898,5.7-18.299,5.7-27.998C144,62.456,142.1,53.056,138.3,44.157z M122.565,107.615
	c-0.347,0.496-0.691,0.994-1.054,1.481c-0.033,0.044-0.068,0.087-0.102,0.131c-1.735,2.318-3.635,4.537-5.709,6.629
	c-11.7,11.6-27.2,18.1-43.7,18.1c-11.399,0-22.3-3.1-31.899-8.801l0.061-0.062c-2.06-1.24-4.033-2.606-5.926-4.072l-0.035,0.035
	c-1.301-1-2.6-2.101-3.801-3.199l0.021-0.021c-2.923-2.662-5.589-5.602-7.958-8.775c-0.052-0.067-0.11-0.136-0.163-0.203
	l0.011-0.011c-7.589-10.261-12.082-22.949-12.082-36.69c0-34.113,27.655-61.771,61.771-61.771s61.771,27.657,61.771,61.771
	c0,11.535-3.171,22.326-8.676,31.565c-0.033,0.056-0.063,0.112-0.096,0.167c-0.376,0.627-0.771,1.241-1.168,1.854
	c-0.17,0.263-0.333,0.529-0.507,0.79C123.078,106.898,122.818,107.254,122.565,107.615z"/>
</svg>
