<?xml version="1.0" encoding="utf-8"?>
<!-- Generator: Adobe Illustrator 16.0.0, SVG Export Plug-In . SVG Version: 6.00 Build 0)  -->
<!DOCTYPE svg PUBLIC "-//W3C//DTD SVG 1.1//EN" "http://www.w3.org/Graphics/SVG/1.1/DTD/svg11.dtd">
<svg version="1.1" id="Layer_1" xmlns="http://www.w3.org/2000/svg" xmlns:xlink="http://www.w3.org/1999/xlink" x="0px" y="0px"
	 width="144px" height="144px" viewBox="0 0 144 144" enable-background="new 0 0 144 144" xml:space="preserve">
<g>
	<path d="M13.621,111.45H0.001V22.505h13.62V111.45z"/>
	<path d="M39.431,111.45H25.809V22.505h19.517l12.68,63.783l12.188-63.783h18.771v88.945H75.344V55.566L63.57,111.45H52.639
		L39.431,55.713V111.45z"/>
	<path d="M122.65,22.505c6.639,0,11.921,2.066,15.852,6.194c3.664,3.934,5.497,8.94,5.497,15.019V56.64
		c0,5.852-2.076,10.857-6.229,15.02c-4.154,4.162-9.183,6.24-15.083,6.24h-7.863v33.551h-13.621V22.505H122.65z M130.773,43.962
		c0-2.342-0.699-4.218-2.099-5.633c-1.399-1.414-3.284-2.121-5.655-2.121h-8.196v28.43h8.196c2.174,0,4.009-0.756,5.508-2.268
		c1.498-1.512,2.246-3.324,2.246-5.438V43.962z"/>
</g>
</svg>
