<?xml version="1.0" encoding="utf-8"?>
<!-- Generator: Adobe Illustrator 16.0.0, SVG Export Plug-In . SVG Version: 6.00 Build 0)  -->
<!DOCTYPE svg PUBLIC "-//W3C//DTD SVG 1.1//EN" "http://www.w3.org/Graphics/SVG/1.1/DTD/svg11.dtd">
<svg version="1.1" id="Layer_1" xmlns="http://www.w3.org/2000/svg" xmlns:xlink="http://www.w3.org/1999/xlink" x="0px" y="0px"
	 width="144px" height="144px" viewBox="0 0 144 144" enable-background="new 0 0 144 144" xml:space="preserve">
<g>
	<path d="M64.91,110.307c-3.218,0.904-7.039,1.307-11.465,1.307c-6.536,0-11.664-1.006-15.586-3.118
		c-3.923-2.111-6.839-5.129-8.85-9.051c-2.012-3.922-3.419-8.648-4.023-14.078c-0.603-5.43-0.904-11.464-0.904-18.101
		c0-6.537,0.302-12.571,0.904-18.001c0.604-5.431,1.911-10.258,4.023-14.18c2.111-3.922,5.027-7.04,8.85-9.252
		c3.82-2.212,9.05-3.318,15.586-3.318c6.537,0,11.666,1.106,15.588,3.318c3.821,2.212,6.839,5.33,8.85,9.252
		s3.419,8.648,4.022,14.18c0.603,5.53,0.905,11.564,0.905,18.001c0,7.341-0.402,13.979-1.207,19.91
		c-0.805,5.933-2.614,10.962-5.43,15.086l9.251,9.05l-10.258,9.252L64.91,110.307z M41.882,82.048
		c0.302,4.021,0.804,7.342,1.709,9.855c0.905,2.513,2.012,4.423,3.62,5.529c1.609,1.208,3.621,1.71,6.234,1.71
		c2.615,0,4.627-0.603,6.235-1.71c1.609-1.205,2.816-3.017,3.621-5.529c0.804-2.514,1.407-5.834,1.709-9.855
		c0.302-4.023,0.402-8.949,0.402-14.782c0-5.832-0.101-10.66-0.402-14.683c-0.302-4.023-0.805-7.342-1.709-9.854
		c-0.805-2.616-2.012-4.427-3.621-5.632c-1.608-1.207-3.62-1.71-6.235-1.71c-2.613,0-4.625,0.604-6.234,1.71
		c-1.608,1.104-2.815,3.016-3.62,5.632c-0.805,2.613-1.407,5.831-1.709,9.854c-0.302,4.022-0.402,8.949-0.402,14.683
		C41.479,72.997,41.68,77.924,41.882,82.048z"/>
	<path d="M119.918,28.247h-10.962v41.935H98.8V28.247H87.838v-8.348h32.08V28.247z"/>
</g>
</svg>
