<?xml version="1.0" encoding="utf-8"?>
<!-- Generator: Adobe Illustrator 16.0.0, SVG Export Plug-In . SVG Version: 6.00 Build 0)  -->
<!DOCTYPE svg PUBLIC "-//W3C//DTD SVG 1.1//EN" "http://www.w3.org/Graphics/SVG/1.1/DTD/svg11.dtd">
<svg version="1.1" id="Layer_1" xmlns="http://www.w3.org/2000/svg" xmlns:xlink="http://www.w3.org/1999/xlink" x="0px" y="0px"
	 width="144px" height="144px" viewBox="0 0 144 144" enable-background="new 0 0 144 144" xml:space="preserve">
<g>
	<g>
		<path fill="#010101" d="M113.896,17.882c-4.39-8.454-9.62-13.425-11.947-15.499C99.494,0.199,95.629,0,95.629,0H58.303
			c13.718,2.098,25.813,35.056,25.813,35.056h0.009L69.83,43.299l41.387,4.37l17.156-38.135L113.896,17.882z"/>
		<path fill="#010101" d="M56.667,3.178c0,0-3.536-0.894-10.019,6.355c-6.483,7.25-16.011,23.636-16.011,23.636l26.62,15.691
			c0,0,13.162-19.167,18.27-25.522C75.527,23.338,66.195,2.284,56.667,3.178z"/>
	</g>
	<g>
		<path fill="#010101" d="M15.016,66.358c-4.393,8.448-5.47,15.629-5.838,18.739c-0.387,3.283,1.646,6.617,1.646,6.617l21.189,31.07
			c-6.078-12.611,13.893-41.393,13.893-41.393l-0.006-0.008l14.829,7.225l-19.937-36.93L0,59.046L15.016,66.358z"/>
		<path fill="#010101" d="M35.53,122.343c0,0,1.28,3.453,10.86,4.725c9.586,1.285,28.335-0.088,28.335-0.088L72.39,95.915
			c0,0-23.077-0.068-31.15-0.713C41.24,95.202,29.391,114.915,35.53,122.343z"/>
	</g>
	<g>
		<path fill="#010101" d="M101.173,127.147c9.433,0.318,16.296-1.83,19.225-2.848c3.091-1.08,5.172-4.383,5.172-4.383L144,87.095
			c-8.58,11.023-42.903,5.395-42.903,5.395l-0.003,0.006l-0.031-16.641l-24.191,34.236l24.336,33.908L101.173,127.147z"/>
		<path fill="#010101" d="M142.075,84.085c0,0,2.514-2.67-0.528-11.943c-3.033-9.279-12.426-25.746-12.426-25.746l-26.638,15.667
			c0,0,9.995,21.028,12.938,28.657C115.422,90.72,138.134,92.911,142.075,84.085z"/>
	</g>
</g>
</svg>
