<?xml version="1.0" encoding="utf-8"?>
<!-- Generator: Adobe Illustrator 16.0.0, SVG Export Plug-In . SVG Version: 6.00 Build 0)  -->
<!DOCTYPE svg PUBLIC "-//W3C//DTD SVG 1.1//EN" "http://www.w3.org/Graphics/SVG/1.1/DTD/svg11.dtd">
<svg version="1.1" id="_x35_0m" xmlns="http://www.w3.org/2000/svg" xmlns:xlink="http://www.w3.org/1999/xlink" x="0px" y="0px"
	 width="144px" height="144px" viewBox="0 0 144 144" enable-background="new 0 0 144 144" xml:space="preserve">
<g>
	<path fill="#040303" d="M34.42,37.129H12.424v20.995h20.709V72.87H12.424v23.995h22.87v14.747H0v-89.23h34.433v14.747H34.42z"/>
	<path fill="#040303" d="M60.224,22.382l8.799,62.986h0.168l8.888-62.986h18.38v89.23H85.074V40.377h-0.167l-10.959,71.235h-9.66
		L53.328,40.377h-0.167v71.235H41.754v-89.23H60.224z"/>
	<path fill="#040303" d="M127.097,22.382c3.167,0,5.82,0.771,7.98,2.312c2.16,1.542,3.896,3.563,5.217,6.062
		c1.321,2.499,2.271,5.354,2.843,8.562c0.571,3.206,0.862,6.477,0.862,9.81c0,4.583-0.47,8.582-1.422,11.998
		c-0.952,3.415-2.273,6.205-3.974,8.372c-1.703,2.166-3.75,3.791-6.168,4.875c-2.417,1.083-5.093,1.624-8.026,1.624h-6.65v35.617
		h-12.424v-89.23H127.097z M123.302,62.748c2.473,0,4.477-1.082,6-3.248c1.522-2.167,2.285-5.541,2.285-10.123
		c0-4.5-0.662-7.916-1.981-10.249c-1.322-2.333-3.539-3.499-6.65-3.499h-5.172v27.119H123.302z"/>
</g>
</svg>
