<?xml version="1.0" encoding="utf-8"?>
<!-- Generator: Adobe Illustrator 24.2.0, SVG Export Plug-In . SVG Version: 6.00 Build 0)  -->
<svg version="1.1" id="Layer_1" xmlns="http://www.w3.org/2000/svg" xmlns:xlink="http://www.w3.org/1999/xlink" x="0px" y="0px"
	 viewBox="0 0 144 144" style="enable-background:new 0 0 144 144;" xml:space="preserve">
<style type="text/css">
	.st0{fill:none;}
	.st1{fill:#EB272A;}
	.st2{fill:#010101;}
	.st3{enable-background:new    ;}
</style>
<rect class="st0" width="144" height="144"/>
<g>
	<g id="path2">
		<path class="st1" d="M132.6,75.8l-0.3-0.4c-7.5-8.2-27.8-17.8-60.3-17.8c-32.3,0-52.7,9.6-60.3,17.8l-0.3,0.4H1.3L2.4,74
			C11.4,59.1,39.3,49.1,72,49.1s60.6,10,69.6,24.9l1.1,1.8C142.7,75.8,132.6,75.8,132.6,75.8z"/>
		<path class="st2" d="M72,49.8c32.4,0,60.1,9.9,68.9,24.5l0.4,0.7h-8.4l-0.1-0.1c-7.6-8.3-28.1-18.1-60.8-18.1
			c-32.6,0-53.1,9.7-60.8,18.1L11.1,75H2.7l0.4-0.7C11.9,59.7,39.6,49.8,72,49.8 M72,48.3c-32.9,0-61.2,10.1-70.2,25.2l-1.8,3h11.7
			l0.6-0.6c7.5-8.1,27.6-17.6,59.7-17.6c32.2,0,52.3,9.5,59.7,17.6l0.6,0.6H144l-1.8-3C133.2,58.5,104.9,48.3,72,48.3L72,48.3z"/>
	</g>
	<g class="st3">
		<path d="M0.4,88.4l1.7-0.2c0.1,0.6,0.3,1,0.6,1.2s0.7,0.4,1.3,0.4c0.6,0,1-0.1,1.3-0.4s0.4-0.5,0.4-0.8c0-0.2-0.1-0.4-0.2-0.5
			s-0.3-0.3-0.6-0.4c-0.2-0.1-0.7-0.2-1.4-0.4c-0.9-0.2-1.6-0.5-2-0.8c-0.5-0.5-0.8-1-0.8-1.7c0-0.4,0.1-0.8,0.4-1.2
			s0.6-0.7,1.1-0.9s1-0.3,1.7-0.3c1.1,0,1.9,0.2,2.4,0.7s0.8,1.1,0.9,1.9l-1.7,0.1c-0.1-0.4-0.2-0.8-0.5-1s-0.6-0.3-1.1-0.3
			c-0.5,0-0.9,0.1-1.2,0.3c-0.2,0.1-0.3,0.3-0.3,0.5c0,0.2,0.1,0.4,0.3,0.5c0.2,0.2,0.8,0.4,1.6,0.6s1.5,0.4,1.9,0.6
			s0.7,0.5,0.9,0.9s0.3,0.8,0.3,1.4c0,0.5-0.1,1-0.4,1.4s-0.7,0.7-1.2,1S4.7,91.3,4,91.3c-1.1,0-1.9-0.3-2.5-0.8S0.5,89.3,0.4,88.4z
			"/>
		<path d="M8.9,82.6h1.7v4.7c0,0.7,0,1.2,0.1,1.4c0.1,0.4,0.3,0.6,0.5,0.8s0.7,0.3,1.1,0.3c0.5,0,0.9-0.1,1.1-0.3s0.4-0.4,0.5-0.7
			S14,88,14,87.3v-4.8h1.7v4.5c0,1,0,1.8-0.1,2.2s-0.3,0.8-0.5,1.1s-0.6,0.5-1,0.7s-1,0.3-1.7,0.3c-0.8,0-1.4-0.1-1.9-0.3
			s-0.8-0.4-1-0.7s-0.4-0.6-0.5-1c-0.1-0.5-0.2-1.2-0.2-2.2V82.6z"/>
		<path d="M17.5,91.2v-8.6h2.6l1.6,5.9l1.5-5.9h2.6v8.6h-1.6v-6.8l-1.7,6.8h-1.7l-1.7-6.8v6.8H17.5z"/>
		<path d="M27.5,91.2v-8.6h2.6l1.6,5.9l1.5-5.9h2.6v8.6h-1.6v-6.8l-1.7,6.8h-1.7l-1.7-6.8v6.8H27.5z"/>
		<path d="M37.5,91.2v-8.6h1.7v8.6H37.5z"/>
		<path d="M42.8,91.2V84h-2.5v-1.5h6.8V84h-2.5v7.1H42.8z"/>
	</g>
</g>
</svg>
