<?xml version="1.0" encoding="utf-8"?>
<!-- Generator: Adobe Illustrator 16.0.0, SVG Export Plug-In . SVG Version: 6.00 Build 0)  -->
<!DOCTYPE svg PUBLIC "-//W3C//DTD SVG 1.1//EN" "http://www.w3.org/Graphics/SVG/1.1/DTD/svg11.dtd">
<svg version="1.1" id="Layer_1" xmlns="http://www.w3.org/2000/svg" xmlns:xlink="http://www.w3.org/1999/xlink" x="0px" y="0px"
	 width="144px" height="144px" viewBox="0 0 144 144" enable-background="new 0 0 144 144" xml:space="preserve">
<g>
	<path fill="#010101" d="M60.965,108.636c-0.418,0-0.834-0.137-1.178-0.396c-0.51-0.381-0.799-0.99-0.77-1.631
		c0.008-0.267,0.527-16.452-6.309-30.757c-0.012,0-0.023,0.008-0.039,0.016L2.557,92.206c-0.582,0.19-1.242,0.091-1.752-0.282
		C0.301,91.558,0,90.972,0,90.347c0-19.281,7.084-28.761,13.027-33.318c6.158-4.718,12.91-5.602,16.273-5.357l83.848-16.278
		c6.865-0.305,12.627,1.76,17.32,6.165C143.34,53.645,143.98,79.015,144,80.089c0.02,0.854-0.529,1.623-1.346,1.89L61.57,108.544
		C61.373,108.605,61.168,108.636,60.965,108.636z"/>
	<path fill="#ABABAB" d="M36.934,54.163c23.068,10.7,25.713,40.573,25.971,49.84l77.129-25.271
		c-0.332-5.426-2.203-24.92-12.238-34.332c-3.902-3.658-8.65-5.411-14.189-5.144L36.934,54.163z"/>
	<path fill="#ABABAB" d="M28.102,55.512c-2.697,0-7.873,0.914-12.703,4.618C8.371,65.518,4.439,74.998,3.951,87.641l46.91-15.288
		C46.502,64.885,39.826,58.4,29.609,55.649c-0.09-0.022-0.201-0.046-0.326-0.061c-0.076-0.008-0.152-0.016-0.229-0.031
		C28.787,55.527,28.467,55.512,28.102,55.512z"/>
</g>
</svg>
