<?xml version="1.0" encoding="utf-8"?>
<!-- Generator: Adobe Illustrator 16.0.0, SVG Export Plug-In . SVG Version: 6.00 Build 0)  -->
<!DOCTYPE svg PUBLIC "-//W3C//DTD SVG 1.1//EN" "http://www.w3.org/Graphics/SVG/1.1/DTD/svg11.dtd">
<svg version="1.1" id="_x35_0m" xmlns="http://www.w3.org/2000/svg" xmlns:xlink="http://www.w3.org/1999/xlink" x="0px" y="0px"
	 width="144px" height="144px" viewBox="0 0 144 144" enable-background="new 0 0 144 144" xml:space="preserve">
<g>
	<path fill="#040303" d="M46.5,88.269h0.292L57.21,22.382h14.639l-16.114,89.097H37.559L21.443,22.382h15.131L46.5,88.269z"/>
	<path fill="#040303" d="M107.757,44.687c-0.291-1.688-0.774-3.236-1.427-4.643s-1.487-2.572-2.502-3.495
		c-1.015-0.925-2.24-1.387-3.687-1.387c-3.406,0-5.867,2.33-7.365,6.992c-1.507,4.661-2.261,12.378-2.261,23.148
		c0,5.144,0.131,9.806,0.392,13.984c0.262,4.181,0.734,7.738,1.428,10.671c0.683,2.935,1.668,5.185,2.943,6.751
		c1.276,1.568,2.934,2.352,4.963,2.352c0.854,0,1.788-0.281,2.804-0.845c1.015-0.562,1.969-1.406,2.854-2.531
		c0.883-1.125,1.616-2.552,2.209-4.279c0.592-1.729,0.884-3.759,0.884-6.089v-8.802h-9.334V63.735h22.898v46.417h-10.419v-7.958
		h-0.201c-1.709,3.376-3.748,5.768-6.139,7.174s-5.254,2.11-8.6,2.11c-4.32,0-7.848-0.924-10.56-2.773
		c-2.723-1.848-4.853-4.702-6.391-8.56c-1.537-3.858-2.571-8.62-3.094-14.287c-0.523-5.666-0.784-12.236-0.784-19.712
		c0-7.233,0.382-13.584,1.124-19.048c0.754-5.466,2.051-10.028,3.879-13.685c1.839-3.657,4.261-6.411,7.274-8.26
		c3.014-1.848,6.782-2.772,11.303-2.772c7.726,0,13.293,2.352,16.698,7.053c3.405,4.702,5.104,11.435,5.104,20.194h-13.564
		C108.199,48.022,108.058,46.374,107.757,44.687z"/>
</g>
</svg>
