<?xml version="1.0" encoding="UTF-8" standalone="no"?>
<svg
   width="100%"
   height="100%"
   viewBox="0 0 144 144"
   version="1.1"
   xml:space="preserve"
   style="fill-rule:evenodd;clip-rule:evenodd;stroke-linejoin:round;stroke-miterlimit:2;"
   id="svg1472"
   sodipodi:docname="waypoint_masked.svg"
   inkscape:version="1.2.1 (9c6d41e410, 2022-07-14)"
   xmlns:inkscape="http://www.inkscape.org/namespaces/inkscape"
   xmlns:sodipodi="http://sodipodi.sourceforge.net/DTD/sodipodi-0.dtd"
   xmlns="http://www.w3.org/2000/svg"
   xmlns:svg="http://www.w3.org/2000/svg"><defs
   id="defs1476" /><sodipodi:namedview
   id="namedview1474"
   pagecolor="#ffffff"
   bordercolor="#000000"
   borderopacity="0.25"
   inkscape:showpageshadow="2"
   inkscape:pageopacity="0.0"
   inkscape:pagecheckerboard="0"
   inkscape:deskcolor="#d1d1d1"
   showgrid="false"
   inkscape:zoom="5.4722222"
   inkscape:cx="54.639594"
   inkscape:cy="72"
   inkscape:window-width="1920"
   inkscape:window-height="986"
   inkscape:window-x="-11"
   inkscape:window-y="-11"
   inkscape:window-maximized="1"
   inkscape:current-layer="svg1472" />
    <g
   id="g1470">
        <circle
   cx="72"
   cy="72"
   r="68.101"
   style="fill:rgb(34,252,253);"
   id="circle1462" />
        <path
   d="M72,143.999C62.301,143.999 52.8,142.101 44,138.3C35.4,134.7 27.7,129.499 21.101,122.9C14.5,116.3 9.3,108.601 5.7,99.999C1.9,91.2 0,81.7 0,71.999C0,62.3 1.9,52.8 5.7,43.999C9.3,35.401 14.5,27.7 21.1,21.101C27.7,14.501 35.4,9.3 44,5.7C52.8,1.899 62.301,0.001 72,0.001C81.7,0.001 91.2,1.899 100,5.7C108.601,9.3 116.3,14.501 122.9,21.1C129.5,27.7 134.7,35.401 138.299,43.998C142.1,52.898 143.999,62.299 143.999,71.998C143.999,81.699 142.1,91.199 138.299,99.998C134.699,108.6 129.499,116.299 122.9,122.898C116.299,129.498 108.6,134.699 100,138.298C91.2,142.101 81.7,143.999 72,143.999ZM72,10.3C55.5,10.3 40,16.7 28.3,28.402C16.601,40.101 10.3,55.502 10.3,72C10.3,88.502 16.7,104.002 28.401,115.701C40.1,127.4 55.6,133.801 72.101,133.801C88.601,133.801 104.1,127.401 115.8,115.701C127.5,104.001 133.901,88.502 133.901,72.101C133.901,55.7 127.501,40.101 115.8,28.402C104.1,16.7 88.5,10.3 72,10.3Z"
   style="fill:rgb(1,1,1);fill-rule:nonzero;"
   id="path1464" />
        <g
   id="g1468">
            <path
   d="M 55.849249,100.03237 H 44.939847 V 43.967631 h 17.067881 l 10.154309,44.07294 10.046284,-44.07294 H 99.060152 V 99.923269 H 88.149671 V 53.042774 L 77.563265,100.0313 H 66.329791 L 55.742304,53.041694 v 9.071902 z"
   style="fill:#010101;fill-rule:nonzero;stroke-width:1.08025"
   id="path1466" />
        </g>
    </g>
</svg>
