<?xml version="1.0" encoding="UTF-8" standalone="no"?>
<!-- Generator: Adobe Illustrator 16.0.0, SVG Export Plug-In . SVG Version: 6.00 Build 0)  -->

<svg
   version="1.1"
   id="_x35_0m"
   x="0px"
   y="0px"
   width="144px"
   height="144px"
   viewBox="0 0 144 144"
   enable-background="new 0 0 144 144"
   xml:space="preserve"
   sodipodi:docname="waypoint_precise.svg"
   inkscape:version="1.2.1 (9c6d41e410, 2022-07-14)"
   xmlns:inkscape="http://www.inkscape.org/namespaces/inkscape"
   xmlns:sodipodi="http://sodipodi.sourceforge.net/DTD/sodipodi-0.dtd"
   xmlns="http://www.w3.org/2000/svg"
   xmlns:svg="http://www.w3.org/2000/svg"><defs
   id="defs1747" /><sodipodi:namedview
   id="namedview1745"
   pagecolor="#ffffff"
   bordercolor="#000000"
   borderopacity="0.25"
   inkscape:showpageshadow="2"
   inkscape:pageopacity="0.0"
   inkscape:pagecheckerboard="0"
   inkscape:deskcolor="#d1d1d1"
   showgrid="false"
   inkscape:zoom="5.4722222"
   inkscape:cx="54.639594"
   inkscape:cy="72"
   inkscape:window-width="1920"
   inkscape:window-height="986"
   inkscape:window-x="-11"
   inkscape:window-y="-11"
   inkscape:window-maximized="1"
   inkscape:current-layer="_x35_0m" />
<path
   fill="#FFFFFF"
   d="M72,6.683C35.985,6.683,6.683,35.985,6.683,72S35.985,137.317,72,137.317  c36.016,0,65.318-29.303,65.318-65.317S108.016,6.683,72,6.683z"
   id="path1738" />
<path
   fill="#040303"
   d="m 74.210453,43.811969 c 2.898467,0 5.329691,0.489827 7.303797,1.460915 1.974104,0.971088 3.568962,2.250557 4.777565,3.829062 1.207825,1.578505 2.07612,3.379729 2.605662,5.408345 0.529543,2.029395 0.789642,4.090719 0.789642,6.198766 0,2.898468 -0.433758,5.424699 -1.302831,7.579471 -0.867515,2.156329 -2.076119,3.924068 -3.632041,5.290756 -1.555142,1.365909 -3.434241,2.392287 -5.645082,3.079135 -2.21162,0.687627 -4.658419,1.026379 -7.343513,1.026379 H 65.683256 V 100.18803 H 54.31288 V 43.811969 Z m -3.473957,25.503716 c 2.266132,0 4.089939,-0.686848 5.487776,-2.053536 1.397837,-1.365909 2.092473,-3.49654 2.092473,-6.395786 0,-2.841621 -0.607417,-4.99795 -1.816021,-6.47444 -1.216391,-1.475711 -3.236441,-2.210063 -6.079618,-2.210063 h -4.737851 v 17.133825 z"
   id="path1740"
   style="stroke-width:0.778739" />
<path
   fill="#020202"
   d="M138.301,44.157c-3.6-8.602-8.801-16.301-15.4-22.9S108.6,9.456,100,5.856c-8.9-3.801-18.299-5.699-28-5.699  c-9.699,0-19.1,1.898-28,5.699c-8.6,3.6-16.299,8.801-22.898,15.4c-6.602,6.599-11.801,14.299-15.4,22.9  C1.9,53.056,0,62.456,0,72.157c0,9.699,1.9,19.199,5.701,27.998c3.6,8.603,8.799,16.301,15.4,22.899  c6.6,6.6,14.299,11.802,22.898,15.401c8.9,3.802,18.301,5.699,28,5.699c9.701,0,19.201-1.897,28-5.699  c8.6-3.6,16.301-8.801,22.9-15.399c6.6-6.601,11.801-14.299,15.398-22.9C142.1,91.258,144,81.857,144,72.158  C144,62.456,142.1,53.056,138.301,44.157z M122.564,107.615c-0.347,0.496-0.69,0.994-1.053,1.481  c-0.033,0.044-0.068,0.087-0.102,0.131c-1.735,2.318-3.636,4.537-5.709,6.629C104,127.456,88.5,133.956,72,133.956  c-11.398,0-22.299-3.1-31.898-8.801l0.061-0.062c-2.06-1.24-4.033-2.606-5.926-4.072l-0.035,0.035c-1.301-1-2.6-2.101-3.801-3.199  l0.021-0.021c-2.924-2.662-5.59-5.602-7.959-8.775c-0.053-0.067-0.11-0.136-0.162-0.203l0.01-0.011  c-7.588-10.261-12.081-22.949-12.081-36.69c0-34.113,27.655-61.771,61.771-61.771s61.771,27.657,61.771,61.771  c0,11.535-3.171,22.326-8.676,31.565c-0.032,0.056-0.063,0.112-0.097,0.167c-0.376,0.627-0.771,1.241-1.168,1.854  c-0.17,0.263-0.332,0.529-0.507,0.79C123.078,106.898,122.818,107.254,122.564,107.615z"
   id="path1742" />
</svg>
