<?xml version="1.0" encoding="UTF-8" standalone="no"?>
<svg
   width="100%"
   height="100%"
   viewBox="0 0 144 144"
   version="1.1"
   xml:space="preserve"
   style="fill-rule:evenodd;clip-rule:evenodd;stroke-linejoin:round;stroke-miterlimit:2;"
   id="svg1332"
   sodipodi:docname="waypoint_eclipse.svg"
   inkscape:version="1.2.1 (9c6d41e410, 2022-07-14)"
   xmlns:inkscape="http://www.inkscape.org/namespaces/inkscape"
   xmlns:sodipodi="http://sodipodi.sourceforge.net/DTD/sodipodi-0.dtd"
   xmlns="http://www.w3.org/2000/svg"
   xmlns:svg="http://www.w3.org/2000/svg"><defs
   id="defs1336" /><sodipodi:namedview
   id="namedview1334"
   pagecolor="#ffffff"
   bordercolor="#000000"
   borderopacity="0.25"
   inkscape:showpageshadow="2"
   inkscape:pageopacity="0.0"
   inkscape:pagecheckerboard="0"
   inkscape:deskcolor="#d1d1d1"
   showgrid="false"
   inkscape:zoom="5.4722222"
   inkscape:cx="54.639594"
   inkscape:cy="72"
   inkscape:window-width="1920"
   inkscape:window-height="986"
   inkscape:window-x="-11"
   inkscape:window-y="-11"
   inkscape:window-maximized="1"
   inkscape:current-layer="svg1332" />
    <path
   d="M72,6.683C35.985,6.683 6.682,35.985 6.682,72C6.682,108.015 35.985,137.317 72,137.317C108.015,137.317 137.318,108.015 137.318,72C137.318,35.985 108.015,6.683 72,6.683Z"
   style="fill:rgb(91,255,255);fill-rule:nonzero;"
   id="path1326" />
    <path
   d="M 87.376381,53.106111 H 67.217077 v 13.281001 h 18.973416 v 9.328823 H 67.217077 v 15.177954 h 20.949895 v 9.328821 H 55.833028 V 43.777287 h 31.543353 z"
   style="fill:#040303;fill-rule:nonzero;stroke-width:0.779676"
   id="path1328" />
    <path
   d="M138.3,44.157C134.7,35.555 129.5,27.856 122.901,21.257C116.3,14.657 108.6,9.456 100.001,5.857C91.101,2.056 81.701,0.158 72.001,0.158C62.301,0.158 52.9,2.056 44,5.856C35.399,9.456 27.7,14.657 21.101,21.256C14.5,27.855 9.3,35.556 5.701,44.157C1.9,53.056 0,62.456 0,72.157C0,81.856 1.899,91.356 5.7,100.155C9.3,108.758 14.5,116.456 21.1,123.054C27.7,129.654 35.399,134.856 43.999,138.455C52.898,142.257 62.299,144.154 71.999,144.154C81.699,144.154 91.199,142.257 99.999,138.455C108.599,134.855 116.299,129.654 122.899,123.056C129.499,116.455 134.699,108.757 138.297,100.156C142.098,91.258 143.997,81.857 143.997,72.158C144,62.456 142.1,53.056 138.3,44.157ZM122.565,107.615C122.218,108.111 121.874,108.609 121.511,109.096C121.478,109.14 121.443,109.183 121.409,109.227C119.674,111.545 117.774,113.764 115.7,115.856C104,127.456 88.5,133.956 72,133.956C60.601,133.956 49.7,130.856 40.101,125.155L40.162,125.093C38.102,123.853 36.129,122.487 34.236,121.021L34.201,121.056C32.9,120.056 31.601,118.955 30.4,117.857L30.421,117.836C27.498,115.174 24.832,112.234 22.463,109.061C22.411,108.994 22.353,108.925 22.3,108.858L22.311,108.847C14.722,98.586 10.229,85.898 10.229,72.157C10.229,38.044 37.884,10.386 72,10.386C106.116,10.386 133.771,38.043 133.771,72.157C133.771,83.692 130.6,94.483 125.095,103.722C125.062,103.778 125.032,103.834 124.999,103.889C124.623,104.516 124.228,105.13 123.831,105.743C123.661,106.006 123.498,106.272 123.324,106.533C123.078,106.898 122.818,107.254 122.565,107.615Z"
   style="fill:rgb(2,2,2);fill-rule:nonzero;"
   id="path1330" />
</svg>
